<svg width="560" height="360" xmlns="http://www.w3.org/2000/svg">
  <path fill="#fff" stroke="#000" d="M15 17.5h244v338H15zM259 17h12v337h-12z"/>
  <path fill="#b2b2b2" d="M259 18h11v9h-11z"/>
  <path d="M261.07 24.372l3.625-6.122 3.624 6.122h-7.25z"/>
  <path fill="#999" d="M259 345h11v9h-11z"/>
  <path d="M261.7 346.85l3.31 5.248 3.313-5.247H261.7z"/>
  <path fill="#b2b2b2" d="M259 30h11v114h-11z"/>
  <g transform="translate(30 -10)">
    <circle fill="#fff" stroke="#000" cx="152" cy="254" r="32"/>
    <path fill="none" stroke="#000" d="M102.193 262.33l4.662-4.677H88.83v-5.791h8.908c4.9 0 8.91-.147 8.91-.326 0-.18-1.95-2.284-4.335-4.677l-4.336-4.353h8.014l6.12 6.13 6.12 6.133-6.13 6.12-6.132 6.118h-8.436l4.66-4.677zM19.764 237.363l18.6-18.6h26.304l18.6 18.6v26.304l-18.6 18.6H38.364l-18.6-18.6v-26.304z"/>
  </g>
  <text transform="matrix(.85515 0 0 .7733 106.75 9.283)" text-anchor="middle" font-family="Monospace" font-size="24" y="58.075" x="32.089" stroke-width="0" stroke="#000">
    Long article
  </text>
  <path fill="none" stroke="#000" d="M28.125 65.75h220"/>
  <text transform="matrix(.7883 0 0 .63053 76.157 9.832)" text-anchor="middle" font-family="Monospace" font-size="24" y="146.513" x="9.599" stroke-width="0" stroke="#000">
    Abstract
  </text>
  <path fill="none" stroke="#000" d="M30.75 116.038h157"/>
  <path fill="none" stroke="#000" stroke-width="3" d="M39.813 128h143M40.25 142h143M40.03 158h143M40.47 172h143M35.53 332.5h143M35.97 346.5h143"/>
  <path fill="#fff" stroke="#000" opacity=".75" d="M15 17.5h243.5V24H15z"/>
  <text transform="matrix(.7883 0 0 .63053 76.157 9.832)" text-anchor="middle" font-family="Monospace" font-size="24" y="468.07" x="4.524" stroke-width="0" stroke="#000">
    Background
  </text>
  <path fill="none" stroke="#000" d="M26.75 316.288h157"/>
  <g>
    <path fill="#fff" stroke="#000" d="M289 17h244v338H289zM533 16h12v337h-12z"/>
    <path fill="#b2b2b2" d="M533 17h11v9h-11z"/>
    <path d="M535.07 23.372l3.625-6.122 3.624 6.122h-7.25z"/>
    <path fill="#999" d="M533 344h11v9h-11z"/>
    <path d="M535.7 345.85l3.31 5.248 3.313-5.247H535.7z"/>
    <path fill="#b2b2b2" d="M533.5 129.5h11v114h-11z"/>
    <circle fill="#fff" stroke="#000" cx="464.492" cy="104.269" r="32"/>
    <path fill="none" stroke="#000" d="M414.685 112.6l4.662-4.677H401.32v-5.792h8.91c4.9 0 8.91-.146 8.91-.325 0-.18-1.95-2.284-4.335-4.677l-4.335-4.352h8.013l6.12 6.13 6.12 6.133-6.13 6.118-6.133 6.12h-8.436l4.66-4.678zM332.256 87.632l18.6-18.6h26.304l18.6 18.6v26.304l-18.6 18.6h-26.304l-18.6-18.6V87.632z"/>
    <text transform="matrix(.7883 0 0 .63053 76.157 9.832)" text-anchor="middle" font-family="Monospace" font-size="24" y="246.856" x="371.763" stroke-width="0" stroke="#000">
      Background
    </text>
    <path fill="none" stroke="#000" d="M316.242 176.807h157"/>
    <path fill="none" stroke="#000" stroke-width="3" d="M324.305 185.77h143M324.742 199.77h143M324.523 215.77h143"/>
    <path fill="#fff" stroke="#000" d="M322.5 238h175v117h-175z"/>
    <path fill="none" stroke="#000" stroke-width="3" d="M348.023 253.27h110.5M349 268.5h110.5M350.512 284.385h110.5M351.488 299.615h110.5M350.768 317.827h110.5M351.744 333.058h110.5"/>
    <path fill="#fff" stroke="#000" opacity=".75" d="M289 16.75h243.5v6.5H289z"/>
    <rect x="289.5" y="16.75" height="6.5" width="127" fill="red" opacity="0.75"/>
  </g>
</svg>
