<svg width="560" height="360" xmlns="http://www.w3.org/2000/svg">
  <path stroke-linecap="null" stroke-linejoin="null" stroke-dasharray="null" stroke="#000" fill="#fff" d="M15 17.5h244v338H15zM259 17h12v337h-12z"/>
  <path fill="#b2b2b2" d="M259 18h11v9h-11z"/>
  <path d="M261.07 24.372l3.625-6.122 3.624 6.122h-7.25z"/>
  <path fill="#999" d="M259 345h11v9h-11z"/>
  <path d="M261.7 346.85l3.31 5.248 3.313-5.247H261.7z"/>
  <path fill="#b2b2b2" d="M259 30h11v114h-11z"/>
  <circle r="32" cy="254" cx="152" stroke-linecap="null" stroke-linejoin="null" stroke-dasharray="null" stroke="#000" fill="#fff"/>
  <path d="M102.193 262.33l4.662-4.677H88.83v-5.791h8.908c4.9 0 8.91-.147 8.91-.326 0-.18-1.95-2.284-4.335-4.677l-4.336-4.353h8.014l6.12 6.13 6.12 6.133-6.13 6.12-6.132 6.118h-8.436l4.66-4.677zM19.764 237.363l18.6-18.6h26.304l18.6 18.6v26.304l-18.6 18.6H38.364l-18.6-18.6v-26.304z" stroke-linecap="null" stroke-linejoin="null" stroke-dasharray="null" stroke-width="null" stroke="#000" fill="none"/>
  <text stroke="#000" stroke-width="0" stroke-dasharray="null" stroke-linejoin="null" stroke-linecap="null" x="22.724" y="50.446" font-size="24" font-family="Monospace" text-anchor="middle" transform="matrix(.9139 0 0 .83692 111.926 5.552)">
    The Web Animations
  </text>
  <path stroke-linecap="null" stroke-linejoin="null" stroke-dasharray="null" stroke="#000" fill="none" d="M28.125 65.75h220"/>
  <text stroke="#000" stroke-width="0" stroke-dasharray="null" stroke-linejoin="null" stroke-linecap="null" x="9.599" y="146.513" font-size="24" font-family="Monospace" text-anchor="middle" transform="matrix(.7883 0 0 .63053 76.157 9.832)">
    Abstraction
  </text>
  <path stroke-linecap="null" stroke-linejoin="null" stroke-dasharray="null" stroke="#000" fill="none" d="M30.75 116.038h157"/>
  <path stroke-linecap="null" stroke-linejoin="null" stroke-dasharray="null" stroke-width="3" stroke="#000" fill="none" d="M39.813 128h143M40.25 142h143M40.03 158h143M40.47 172h143M36.03 310h143M36.47 324h143"/>
  <path fill="#fff" stroke="#000" stroke-width="null" stroke-dasharray="null" stroke-linejoin="null" stroke-linecap="null" d="M190.5 85h61v81.5h-61z"/>
  <text stroke="#000" stroke-width="0" stroke-dasharray="null" stroke-linejoin="null" stroke-linecap="null" x="182.157" y="141.375" font-size="24" font-family="Monospace" text-anchor="middle" transform="matrix(.7883 0 0 .54512 76.157 20.457)">
    Menu
  </text>
  <text stroke="#000" stroke-width="0" stroke-dasharray="null" stroke-linejoin="null" stroke-linecap="null" x="147.229" y="140.19" font-size="24" font-family="Monospace" text-anchor="middle" transform="matrix(.47034 0 0 .44425 151.443 49.883)">
    Abstract
  </text>
  <text stroke="#000" stroke-width="0" stroke-dasharray="null" stroke-linejoin="null" stroke-linecap="null" x="155.882" y="168.279" font-size="24" font-family="Monospace" text-anchor="middle" transform="matrix(.42205 0 0 .4946 155.1 42.853)">
    Background
  </text>
  <text stroke="#000" stroke-width="0" stroke-dasharray="null" stroke-linejoin="null" stroke-linecap="null" x="149.482" y="198.667" font-size="24" font-family="Monospace" text-anchor="middle" transform="matrix(.47034 0 0 .44425 151.443 49.883)">
    Detail
  </text>
  <text stroke="#000" stroke-width="0" stroke-dasharray="null" stroke-linejoin="null" stroke-linecap="null" x="148.418" y="233.557" font-size="24" font-family="Monospace" text-anchor="middle" transform="matrix(.47034 0 0 .44425 151.443 49.883)">
    Appendix
  </text>
  <g>
    <path stroke-linecap="null" stroke-linejoin="null" stroke-dasharray="null" stroke="#000" fill="#fff" d="M289 17h244v338H289zM533 16h12v337h-12z"/>
    <path fill="#b2b2b2" d="M533 17h11v9h-11z"/>
    <path d="M535.07 23.372l3.625-6.122 3.624 6.122h-7.25z"/>
    <path fill="#999" d="M533 344h11v9h-11z"/>
    <path d="M535.7 345.85l3.31 5.248 3.313-5.247H535.7z"/>
    <path fill="#b2b2b2" d="M533 95h11v114h-11z"/>
    <circle r="32" cy="55.5" cx="426.5" stroke-linecap="null" stroke-linejoin="null" stroke-dasharray="null" stroke="#000" fill="#fff"/>
    <path d="M376.693 63.83l4.662-4.677H363.33v-5.791h8.908c4.9 0 8.91-.147 8.91-.326 0-.18-1.95-2.284-4.335-4.677l-4.335-4.353h8.013l6.12 6.13 6.12 6.133-6.13 6.12-6.132 6.118h-8.436l4.66-4.677zM294.264 38.863l18.6-18.6h26.304l18.6 18.6v26.304l-18.6 18.6h-26.304l-18.6-18.6V38.863z" stroke-linecap="null" stroke-linejoin="null" stroke-dasharray="null" stroke-width="null" stroke="#000" fill="none"/>
    <text stroke="#000" stroke-width="0" stroke-dasharray="null" stroke-linejoin="null" stroke-linecap="null" x="343.865" y="237.706" font-size="24" font-family="Monospace" text-anchor="middle" transform="matrix(.7883 0 0 .63053 76.157 9.832)">
      Background
    </text>
    <path stroke-linecap="null" stroke-linejoin="null" stroke-dasharray="null" stroke="#000" fill="none" d="M294.25 173.538h157"/>
    <path stroke-linecap="null" stroke-linejoin="null" stroke-dasharray="null" stroke-width="3" stroke="#000" fill="none" d="M313.313 100.5h143M313.75 114.5h143M310.03 184.5h143M310.47 198.5h143M310.53 216.5h143M310.97 230.5h143"/>
    <path fill="#fff" stroke="#000" stroke-width="null" stroke-dasharray="null" stroke-linejoin="null" stroke-linecap="null" d="M467.5 22.5h61V104h-61z"/>
    <text stroke="#000" stroke-width="0" stroke-dasharray="null" stroke-linejoin="null" stroke-linecap="null" x="533.549" y="26.721" font-size="24" font-family="Monospace" text-anchor="middle" transform="matrix(.7883 0 0 .54512 76.157 20.457)">
      Menu
    </text>
    <text stroke="#000" stroke-width="0" stroke-dasharray="null" stroke-linejoin="null" stroke-linecap="null" x="736.166" y="-.496" font-size="24" font-family="Monospace" text-anchor="middle" transform="matrix(.47034 0 0 .44425 151.443 49.883)">
      Abstract
    </text>
    <text stroke="#000" stroke-width="0" stroke-dasharray="null" stroke-linejoin="null" stroke-linecap="null" x="744.594" y="29.844" font-size="24" font-family="Monospace" text-anchor="middle" transform="matrix(.43585 0 0 .39392 174.37 49.945)">
      Background
    </text>
    <text stroke="#000" stroke-width="0" stroke-dasharray="null" stroke-linejoin="null" stroke-linecap="null" x="738.418" y="57.981" font-size="24" font-family="Monospace" text-anchor="middle" transform="matrix(.47034 0 0 .44425 151.443 49.883)">
      Detail
    </text>
    <text stroke="#000" stroke-width="0" stroke-dasharray="null" stroke-linejoin="null" stroke-linecap="null" x="737.355" y="92.871" font-size="24" font-family="Monospace" text-anchor="middle" transform="matrix(.47034 0 0 .44425 151.443 49.883)">
      Appendix
    </text>
    <text transform="matrix(.4293 0 0 .36522 125.598 145.094)" text-anchor="middle" font-family="Monospace" font-size="24" y="317.082" x="516.297" stroke-linecap="null" stroke-linejoin="null" stroke-dasharray="null" stroke-width="0" stroke="#000">
      Example code:
    </text>
    <path stroke-linecap="null" stroke-linejoin="null" stroke-dasharray="null" stroke="#000" fill="#fff" d="M313 266.5h149V355H313z"/>
    <path stroke-linecap="null" stroke-linejoin="null" stroke-dasharray="null" stroke-width="2" stroke="#000" fill="none" d="M325.75 281.5h119M326.75 295h119M326.75 309.75h119M327.75 323.25h119"/>
  </g>
</svg>
