<?xml version="1.0" encoding="utf-8"?>
<!-- Generator: Adobe Illustrator 15.0.1, SVG Export Plug-In . SVG Version: 6.00 Build 0)  -->
<!DOCTYPE svg PUBLIC "-//W3C//DTD SVG 1.1//EN" "http://www.w3.org/Graphics/SVG/1.1/DTD/svg11.dtd">
<svg version="1.1" id="Layer_1" xmlns="http://www.w3.org/2000/svg" xmlns:xlink="http://www.w3.org/1999/xlink" x="0px" y="0px"
	 width="471px" height="506.194px" viewBox="0 0 471 506.194" enable-background="new 0 0 471 506.194" xml:space="preserve">
<g>
	<polyline fill="#0000FF" points="201.212,158.719 56.1,158.719 56.1,21.461 201.212,21.461 201.212,158.719 	"/>
	<polyline points="201.212,158.719 201.212,158.345 56.474,158.345 56.474,21.835 200.838,21.835 200.838,158.719 201.212,158.719 
		201.212,158.345 201.212,158.719 201.585,158.719 201.585,21.087 55.726,21.087 55.726,159.093 201.585,159.093 201.585,158.719 
		201.212,158.719 	"/>
	<polyline fill="#FF0000" points="163.064,235.015 17.952,235.015 17.952,97.757 163.064,97.757 163.064,235.015 	"/>
	<polyline points="163.064,235.015 163.064,234.641 18.326,234.641 18.326,98.131 162.69,98.131 162.69,235.015 163.064,235.015 
		163.064,234.641 163.064,235.015 163.438,235.015 163.438,97.383 17.578,97.383 17.578,235.389 163.438,235.389 163.438,235.015 
		163.064,235.015 	"/>
	<polyline fill="#00FF00" points="254.693,98.131 201.585,98.131 201.585,158.719 201.585,159.093 163.438,159.093 163.438,234.641 
		254.693,234.641 254.693,98.131 	"/>
	<polyline points="200.838,98.131 163.438,98.131 163.438,158.345 200.838,158.345 200.838,98.131 	"/>
	<path d="M201.212,158.719L201.212,158.719v-0.374V158.719h0.374H201.212 M201.585,98.131h-0.748v60.214h-37.4v0.748h38.148v-0.374
		V98.131"/>
	<polyline points="162.69,98.131 110.33,98.131 110.33,234.641 162.69,234.641 162.69,98.131 	"/>
	<polyline points="163.438,98.131 110.33,98.131 162.69,98.131 162.69,234.641 163.438,234.641 163.438,159.093 163.438,158.345 
		163.438,98.131 	"/>
	<path d="M255.067,235.015L255.067,235.015v-0.374V235.015h0.374H255.067 M255.441,97.383h-53.856v0.748h53.108v136.51h-91.256
		v0.374v0.374h92.004v-0.374V97.383"/>
	<polyline points="200.838,97.383 109.582,97.383 163.438,97.383 163.438,98.131 200.838,98.131 200.838,97.383 	"/>
	<polyline points="201.585,97.383 200.838,97.383 200.838,98.131 201.585,98.131 201.585,97.383 	"/>
	<polyline points="110.33,98.131 109.582,98.131 109.582,234.641 162.69,234.641 110.33,234.641 110.33,98.131 	"/>
	<path d="M163.064,235.015L163.064,235.015v-0.374V235.015h0.374H163.064 M163.438,234.641h-0.748h-53.108v0.748h53.855v-0.374
		V234.641 M163.438,97.383h-53.855v0.748h0.748h53.108V97.383"/>
	<path d="M262.174,236.884v6.733h-8.602v0.748h9.35v-7.481H262.174z M262.174,218.933v8.976h0.748v-8.976H262.174z M262.174,200.981
		v8.976h0.748v-8.976H262.174z M262.174,183.029v8.976h0.748v-8.976H262.174z M262.174,165.077v8.976h0.748v-8.976H262.174z
		 M262.174,147.125v8.976h0.748v-8.976H262.174z M262.174,129.173v8.976h0.748v-8.976H262.174z M262.174,111.221v8.976h0.748v-8.976
		H262.174z M262.174,93.269v8.976h0.748v-8.976H262.174z M247.774,90.464h8.976v-0.748h-8.976V90.464z M229.823,90.464h8.976v-0.748
		h-8.976V90.464z M211.87,90.464h8.976v-0.748h-8.976V90.464z M193.918,90.464h8.976v-0.748h-8.976V90.464z M175.966,90.464h8.976
		v-0.748h-8.976V90.464z M158.014,90.464h8.976v-0.748h-8.976V90.464z M140.063,90.464h8.976v-0.748h-8.976V90.464z M122.11,90.464
		h8.976v-0.748h-8.976V90.464z M104.159,90.464h8.976v-0.748h-8.976V90.464z M86.207,90.464h8.976v-0.748h-8.976V90.464z
		 M68.254,90.464h8.976v-0.748h-8.976V90.464z M50.303,90.464h8.976v-0.748h-8.976V90.464z M32.351,90.464h8.976v-0.748h-8.976
		V90.464z M14.398,90.464h8.976v-0.748h-8.976V90.464z M9.35,102.62v-8.976H8.602v8.976H9.35z M9.35,120.572v-8.976H8.602v8.976
		H9.35z M9.35,138.523v-8.976H8.602v8.976H9.35z M9.35,156.476V147.5H8.602v8.976H9.35z M9.35,174.427v-8.976H8.602v8.976H9.35z
		 M9.35,192.379v-8.976H8.602v8.976H9.35z M9.35,210.331v-8.976H8.602v8.976H9.35z M9.35,228.283v-8.976H8.602v8.976H9.35z
		 M11.22,243.617H9.35v-6.358H8.602v7.106h2.618V243.617z M29.172,243.617h-8.976v0.748h8.976V243.617z M47.124,243.617h-8.976
		v0.748h8.976V243.617z M65.076,243.617H56.1v0.748h8.976V243.617z M83.028,243.617h-8.976v0.748h8.976V243.617z M100.98,243.617
		h-8.976v0.748h8.976V243.617z M118.932,243.617h-8.976v0.748h8.976V243.617z M136.884,243.617h-8.976v0.748h8.976V243.617z
		 M154.836,243.617h-8.976v0.748h8.976V243.617z M172.788,243.617h-8.976v0.748h8.976V243.617z M190.74,243.617h-8.976v0.748h8.976
		V243.617z M208.692,243.617h-8.976v0.748h8.976V243.617z M226.644,243.617h-8.976v0.748h8.976V243.617z M244.596,243.617h-8.976
		v0.748h8.976V243.617z"/>
	<text transform="matrix(1 0 0 1 41.6387 256.6943)"><tspan x="0" y="0" font-family="'MyriadPro-Regular'" font-size="15.5616">g</tspan><tspan x="8.605" y="0" font-family="'MyriadPro-Regular'" font-size="15.5616">r</tspan><tspan x="13.554" y="0" font-family="'MyriadPro-Regular'" font-size="15.5616">oup isol</tspan><tspan x="64.844" y="0" font-family="'MyriadPro-Regular'" font-size="15.5616">a</tspan><tspan x="72.298" y="0" font-family="'MyriadPro-Regular'" font-size="15.5616">tion: a</tspan><tspan x="112.29" y="0" font-family="'MyriadPro-Regular'" font-size="15.5616">c</tspan><tspan x="119.168" y="0" font-family="'MyriadPro-Regular'" font-size="15.5616">cumul</tspan><tspan x="159.939" y="0" font-family="'MyriadPro-Regular'" font-size="15.5616">a</tspan><tspan x="167.378" y="0" font-family="'MyriadPro-Regular'" font-size="15.5616">t</tspan><tspan x="172.435" y="0" font-family="'MyriadPro-Regular'" font-size="15.5616">e</tspan></text>
	<polyline fill="#0000FF" points="200.838,400.336 55.726,400.336 55.726,263.078 200.838,263.078 200.838,400.336 	"/>
	<polyline points="200.838,400.336 200.838,399.962 56.1,399.962 56.1,263.452 200.464,263.452 200.464,400.336 200.838,400.336 
		200.838,399.962 200.838,400.336 201.212,400.336 201.212,262.704 55.352,262.704 55.352,400.71 201.212,400.71 201.212,400.336 
		200.838,400.336 	"/>
	<polyline fill="#FF0000" points="162.69,476.632 17.578,476.632 17.578,339.374 162.69,339.374 162.69,476.632 	"/>
	<polyline points="162.69,476.632 162.69,476.258 17.952,476.258 17.952,339.748 162.316,339.748 162.316,476.632 162.69,476.632 
		162.69,476.258 162.69,476.632 163.064,476.632 163.064,339 17.204,339 17.204,477.006 163.064,477.006 163.064,476.632 
		162.69,476.632 	"/>
	<polyline fill="#00FF00" points="254.32,339.748 201.212,339.748 201.212,400.336 201.212,400.71 163.064,400.71 163.064,476.258 
		254.32,476.258 254.32,339.748 	"/>
	<polyline fill="#00FF00" points="200.464,339.748 163.064,339.748 163.064,399.962 200.464,399.962 200.464,339.748 	"/>
	<path fill="#00FF00" d="M200.838,400.336L200.838,400.336v-0.374V400.336h0.374H200.838 M201.212,339.748h-0.748v60.214h-37.4
		v0.748h38.148v-0.374V339.748"/>
	<polyline points="162.316,339.748 109.956,339.748 109.956,476.258 162.316,476.258 162.316,339.748 	"/>
	<polyline points="163.064,339.748 109.956,339.748 162.316,339.748 162.316,476.258 163.064,476.258 163.064,400.71 
		163.064,399.962 163.064,339.748 	"/>
	<path d="M254.693,476.632L254.693,476.632v-0.374V476.632h0.374H254.693 M255.067,339h-53.855v0.748h53.108v136.51h-91.256v0.374
		v0.374h92.003v-0.374V339"/>
	<polyline points="200.464,339 109.208,339 163.064,339 163.064,339.748 200.464,339.748 200.464,339 	"/>
	<polyline points="201.212,339 200.464,339 200.464,339.748 201.212,339.748 201.212,339 	"/>
	<polyline points="163.064,339 109.208,339 109.208,339.748 109.956,339.748 163.064,339.748 163.064,339 	"/>
	<polyline points="109.956,339.748 109.208,339.748 109.208,476.258 162.316,476.258 109.956,476.258 109.956,339.748 	"/>
	<path d="M162.69,476.632L162.69,476.632v-0.374V476.632h0.374H162.69 M163.064,476.258h-0.748h-53.108v0.748h53.856v-0.374V476.258
		"/>
	<path d="M261.8,478.501v6.732h-8.602v0.748h9.35v-7.48H261.8z M261.8,460.549v8.977h0.748v-8.977H261.8z M261.8,442.598v8.976
		h0.748v-8.976H261.8z M261.8,424.646v8.976h0.748v-8.976H261.8z M261.8,406.693v8.976h0.748v-8.976H261.8z M261.8,388.741v8.976
		h0.748v-8.976H261.8z M261.8,370.789v8.977h0.748v-8.977H261.8z M261.8,352.837v8.977h0.748v-8.977H261.8z M261.8,334.886v8.976
		h0.748v-8.976H261.8z M247.4,332.081h8.976v-0.748H247.4V332.081z M229.449,332.081h8.976v-0.748h-8.976V332.081z M211.496,332.081
		h8.976v-0.748h-8.976V332.081z M193.544,332.081h8.976v-0.748h-8.976V332.081z M175.592,332.081h8.976v-0.748h-8.976V332.081z
		 M157.641,332.081h8.976v-0.748h-8.976V332.081z M139.688,332.081h8.976v-0.748h-8.976V332.081z M121.736,332.081h8.976v-0.748
		h-8.976V332.081z M103.785,332.081h8.976v-0.748h-8.976V332.081z M85.833,332.081h8.976v-0.748h-8.976V332.081z M67.88,332.081
		h8.976v-0.748H67.88V332.081z M49.929,332.081h8.976v-0.748h-8.976V332.081z M31.977,332.081h8.976v-0.748h-8.976V332.081z
		 M14.024,332.081H23v-0.748h-8.976V332.081z M8.976,344.236v-8.977H8.228v8.977H8.976z M8.976,362.188v-8.977H8.228v8.977H8.976z
		 M8.976,380.14v-8.976H8.228v8.976H8.976z M8.976,398.092v-8.976H8.228v8.976H8.976z M8.976,416.044v-8.976H8.228v8.976H8.976z
		 M8.976,433.996v-8.977H8.228v8.977H8.976z M8.976,451.948v-8.977H8.228v8.977H8.976z M8.976,469.9v-8.977H8.228v8.977H8.976z
		 M10.846,485.233h-1.87v-6.357H8.228v7.105h2.618V485.233z M28.798,485.233h-8.976v0.748h8.976V485.233z M46.75,485.233h-8.976
		v0.748h8.976V485.233z M64.702,485.233h-8.976v0.748h8.976V485.233z M82.654,485.233h-8.976v0.748h8.976V485.233z M100.606,485.233
		H91.63v0.748h8.976V485.233z M118.558,485.233h-8.976v0.748h8.976V485.233z M136.51,485.233h-8.976v0.748h8.976V485.233z
		 M154.462,485.233h-8.976v0.748h8.976V485.233z M172.414,485.233h-8.976v0.748h8.976V485.233z M190.366,485.233h-8.976v0.748h8.976
		V485.233z M208.318,485.233h-8.976v0.748h8.976V485.233z M226.27,485.233h-8.976v0.748h8.976V485.233z M244.222,485.233h-8.976
		v0.748h8.976V485.233z"/>
	<text transform="matrix(1 0 0 1 41.2646 498.3105)"><tspan x="0" y="0" font-family="'MyriadPro-Regular'" font-size="15.5616">g</tspan><tspan x="8.605" y="0" font-family="'MyriadPro-Regular'" font-size="15.5616">r</tspan><tspan x="13.554" y="0" font-family="'MyriadPro-Regular'" font-size="15.5616">oup isol</tspan><tspan x="64.844" y="0" font-family="'MyriadPro-Regular'" font-size="15.5616">a</tspan><tspan x="72.298" y="0" font-family="'MyriadPro-Regular'" font-size="15.5616">tion: isol</tspan><tspan x="126.809" y="0" font-family="'MyriadPro-Regular'" font-size="15.5616">a</tspan><tspan x="134.247" y="0" font-family="'MyriadPro-Regular'" font-size="15.5616">t</tspan><tspan x="139.305" y="0" font-family="'MyriadPro-Regular'" font-size="15.5616">e</tspan></text>
	<text transform="matrix(1 0 0 1 339.2178 13.5947)"><tspan x="0" y="0" font-family="'MyriadPro-Regular'" font-size="15.5616">back</tspan><tspan x="30.625" y="0" font-family="'MyriadPro-Regular'" font-size="15.5616">g</tspan><tspan x="39.23" y="0" font-family="'MyriadPro-Regular'" font-size="15.5616">r</tspan><tspan x="44.179" y="0" font-family="'MyriadPro-Regular'" font-size="15.5616">ound</tspan></text>
	<rect x="323.136" y="21.448" fill="#0000FF" width="145.111" height="137.258"/>
	<polygon points="468.247,158.706 468.247,158.332 323.51,158.332 323.51,21.822 467.873,21.822 467.873,158.706 468.247,158.706 
		468.247,158.332 468.247,158.706 468.621,158.706 468.621,21.074 322.762,21.074 322.762,159.08 468.621,159.08 468.621,158.706 	
		"/>
	<rect x="284.987" y="97.744" fill="#FF0000" width="145.112" height="137.258"/>
	<polygon points="430.1,235.002 430.1,234.628 285.361,234.628 285.361,98.118 429.726,98.118 429.726,235.002 430.1,235.002 
		430.1,234.628 430.1,235.002 430.474,235.002 430.474,97.37 284.614,97.37 284.614,235.376 430.474,235.376 430.474,235.002 	"/>
	<rect x="290.972" y="339.374" fill="#FF0000" width="145.111" height="137.258"/>
	<polygon points="436.083,476.632 436.083,476.258 291.346,476.258 291.346,339.748 435.709,339.748 435.709,476.632 
		436.083,476.632 436.083,476.258 436.083,476.632 436.457,476.632 436.457,339 290.598,339 290.598,477.006 436.457,477.006 
		436.457,476.632 	"/>
	<polyline points="0,260.834 470.491,260.834 470.491,259.338 0,259.338 	"/>
	<text transform="matrix(1 0 0 1 316.0293 276.1426)"><tspan x="0" y="0" font-family="'MyriadPro-Regular'" font-size="15.5616">back</tspan><tspan x="30.625" y="0" font-family="'MyriadPro-Regular'" font-size="15.5616">g</tspan><tspan x="39.23" y="0" font-family="'MyriadPro-Regular'" font-size="15.5616">r</tspan><tspan x="44.179" y="0" font-family="'MyriadPro-Regular'" font-size="15.5616">ound</tspan></text>
</g>
</svg>
