<?xml version="1.0" encoding="utf-8"?>
<!-- Generator: Adobe Illustrator 15.1.0, SVG Export Plug-In . SVG Version: 6.00 Build 0)  -->
<!DOCTYPE svg PUBLIC "-//W3C//DTD SVG 1.1//EN" "http://www.w3.org/Graphics/SVG/1.1/DTD/svg11.dtd" [
	<!ENTITY ns_extend "http://ns.adobe.com/Extensibility/1.0/">
	<!ENTITY ns_ai "http://ns.adobe.com/AdobeIllustrator/10.0/">
	<!ENTITY ns_graphs "http://ns.adobe.com/Graphs/1.0/">
	<!ENTITY ns_vars "http://ns.adobe.com/Variables/1.0/">
	<!ENTITY ns_imrep "http://ns.adobe.com/ImageReplacement/1.0/">
	<!ENTITY ns_sfw "http://ns.adobe.com/SaveForWeb/1.0/">
	<!ENTITY ns_custom "http://ns.adobe.com/GenericCustomNamespace/1.0/">
	<!ENTITY ns_adobe_xpath "http://ns.adobe.com/XPath/1.0/">
]>
<svg version="1.1" xmlns:x="&ns_extend;" xmlns:i="&ns_ai;" xmlns:graph="&ns_graphs;"
	 xmlns="http://www.w3.org/2000/svg" xmlns:xlink="http://www.w3.org/1999/xlink" x="0px" y="0px" width="278.714px"
	 height="180.723px" viewBox="0 0 278.714 180.723" enable-background="new 0 0 278.714 180.723" xml:space="preserve">
<metadata>
	<sfw  xmlns="&ns_sfw;">
		<slices></slices>
		<sliceSourceBounds  height="180.723" width="278.714" x="23.976" y="-202.418" bottomLeftOrigin="true"></sliceSourceBounds>
	</sfw>
</metadata>
<pattern  x="-23.976" y="-21.695" width="18.474" height="18.175" patternUnits="userSpaceOnUse" id="New_Pattern_Swatch_3" viewBox="0 -18.175 18.474 18.175" overflow="visible">
	<g>
		<polygon fill="none" points="0,0 18.474,0 18.474,-18.175 0,-18.175 		"/>
		<polygon fill="#E0E0E0" points="9.438,-8.938 0,-8.938 0,-18.175 9.438,-18.175 		"/>
		<polygon fill="#E0E0E0" points="18.474,0 9.036,0 9.036,-9.237 18.474,-9.237 		"/>
	</g>
</pattern>
<g id="Layer_2">
	<rect fill="url(#New_Pattern_Swatch_3)" width="278.714" height="180.723"/>
</g>
<g id="Layer_1">
	<rect x="30.02" y="20.883" fill="#FF0000" width="226.507" height="75.502"/>
	<g>
		<rect x="121.386" y="6.024" fill="none" width="43.775" height="13.253"/>
		<path d="M122.166,13.272c0.467,0.3,1.139,0.528,1.859,0.528c1.067,0,1.691-0.563,1.691-1.379c0-0.743-0.432-1.187-1.523-1.595
			c-1.319-0.48-2.135-1.176-2.135-2.303c0-1.259,1.043-2.195,2.614-2.195c0.815,0,1.427,0.192,1.775,0.396l-0.288,0.852
			c-0.252-0.156-0.792-0.384-1.523-0.384c-1.103,0-1.523,0.66-1.523,1.211c0,0.755,0.492,1.127,1.607,1.559
			c1.367,0.528,2.051,1.188,2.051,2.375c0,1.248-0.912,2.339-2.819,2.339c-0.779,0-1.631-0.24-2.063-0.528L122.166,13.272z"/>
		<path d="M128.177,6.029h1.056v3.634h0.024c0.168-0.3,0.432-0.576,0.755-0.755c0.312-0.18,0.684-0.288,1.08-0.288
			c0.779,0,2.027,0.48,2.027,2.471v3.454h-1.056V11.21c0-0.936-0.348-1.715-1.343-1.715c-0.684,0-1.211,0.48-1.415,1.043
			c-0.06,0.156-0.072,0.312-0.072,0.504v3.502h-1.056V6.029z"/>
		<path d="M138.915,13.153c0,0.503,0.024,0.995,0.084,1.391h-0.947l-0.084-0.731h-0.036c-0.324,0.456-0.947,0.863-1.775,0.863
			c-1.175,0-1.775-0.828-1.775-1.667c0-1.403,1.247-2.171,3.49-2.159v-0.12c0-0.468-0.132-1.343-1.319-1.331
			c-0.552,0-1.116,0.156-1.523,0.432l-0.24-0.708c0.479-0.3,1.187-0.504,1.919-0.504c1.775,0,2.207,1.211,2.207,2.363V13.153z
			 M137.896,11.582c-1.151-0.024-2.458,0.18-2.458,1.307c0,0.696,0.456,1.008,0.983,1.008c0.768,0,1.259-0.48,1.427-0.972
			c0.036-0.12,0.048-0.24,0.048-0.336V11.582z"/>
		<path d="M140.622,10.634c0-0.744-0.024-1.343-0.048-1.895h0.936l0.06,0.995h0.024c0.419-0.708,1.115-1.115,2.063-1.115
			c1.416,0,2.471,1.188,2.471,2.938c0,2.087-1.283,3.118-2.65,3.118c-0.768,0-1.439-0.336-1.787-0.912h-0.024v3.154h-1.043V10.634z
			 M141.665,12.181c0,0.156,0.012,0.3,0.048,0.432c0.192,0.732,0.828,1.235,1.583,1.235c1.116,0,1.763-0.911,1.763-2.243
			c0-1.151-0.612-2.146-1.727-2.146c-0.72,0-1.403,0.503-1.595,1.295c-0.036,0.132-0.072,0.288-0.072,0.42V12.181z"/>
		<path d="M148.037,11.833c0.024,1.427,0.923,2.015,1.991,2.015c0.755,0,1.223-0.132,1.607-0.3l0.192,0.756
			c-0.372,0.168-1.019,0.372-1.943,0.372c-1.787,0-2.854-1.188-2.854-2.938s1.032-3.118,2.723-3.118
			c1.907,0,2.399,1.655,2.399,2.723c0,0.216-0.012,0.372-0.036,0.492H148.037z M151.131,11.078c0.012-0.66-0.276-1.703-1.463-1.703
			c-1.079,0-1.535,0.971-1.619,1.703H151.131z"/>
		<path d="M157.96,7.731h-0.024l-1.355,0.732l-0.204-0.804l1.703-0.912h0.9v7.796h-1.02V7.731z"/>
	</g>
	<rect x="60.643" y="70.683" opacity="0.69" fill="#00FF00" width="95.582" height="69.077"/>
	<rect x="137.093" y="70.682" opacity="0.69" fill="#0000FF" width="95.582" height="69.077"/>
	<g>
		<rect x="77.61" y="144.739" fill="none" width="43.775" height="13.253"/>
		<path d="M78.391,151.987c0.467,0.301,1.139,0.528,1.859,0.528c1.067,0,1.691-0.563,1.691-1.38c0-0.742-0.432-1.187-1.523-1.594
			c-1.319-0.48-2.135-1.176-2.135-2.303c0-1.26,1.043-2.195,2.614-2.195c0.815,0,1.427,0.191,1.775,0.396l-0.288,0.852
			c-0.252-0.155-0.792-0.384-1.523-0.384c-1.103,0-1.523,0.66-1.523,1.211c0,0.756,0.492,1.128,1.607,1.56
			c1.367,0.528,2.051,1.188,2.051,2.374c0,1.248-0.912,2.34-2.819,2.34c-0.779,0-1.631-0.24-2.063-0.528L78.391,151.987z"/>
		<path d="M84.402,144.744h1.056v3.634h0.024c0.168-0.3,0.432-0.576,0.755-0.756c0.312-0.18,0.684-0.287,1.08-0.287
			c0.779,0,2.027,0.479,2.027,2.471v3.453h-1.056v-3.334c0-0.936-0.348-1.715-1.343-1.715c-0.684,0-1.211,0.48-1.415,1.043
			c-0.06,0.156-0.072,0.313-0.072,0.504v3.502h-1.056V144.744z"/>
		<path d="M95.14,151.868c0,0.504,0.024,0.995,0.084,1.391h-0.947l-0.084-0.73h-0.036c-0.324,0.455-0.947,0.863-1.775,0.863
			c-1.175,0-1.775-0.828-1.775-1.668c0-1.402,1.247-2.17,3.49-2.158v-0.12c0-0.468-0.132-1.343-1.319-1.331
			c-0.552,0-1.116,0.156-1.523,0.432l-0.24-0.707c0.479-0.301,1.187-0.504,1.919-0.504c1.775,0,2.207,1.211,2.207,2.362V151.868z
			 M94.121,150.296c-1.151-0.024-2.458,0.181-2.458,1.308c0,0.695,0.456,1.008,0.983,1.008c0.768,0,1.259-0.48,1.427-0.973
			c0.036-0.119,0.048-0.239,0.048-0.336V150.296z"/>
		<path d="M96.847,149.349c0-0.743-0.024-1.343-0.048-1.896h0.936l0.06,0.996h0.024c0.419-0.708,1.115-1.115,2.063-1.115
			c1.416,0,2.471,1.188,2.471,2.938c0,2.088-1.283,3.119-2.65,3.119c-0.768,0-1.439-0.336-1.787-0.912H97.89v3.154h-1.043V149.349z
			 M97.89,150.896c0,0.155,0.012,0.3,0.048,0.432c0.192,0.731,0.828,1.235,1.583,1.235c1.116,0,1.763-0.911,1.763-2.242
			c0-1.152-0.612-2.146-1.727-2.146c-0.72,0-1.403,0.503-1.595,1.295c-0.036,0.131-0.072,0.287-0.072,0.42V150.896z"/>
		<path d="M104.262,150.548c0.024,1.427,0.923,2.015,1.991,2.015c0.755,0,1.223-0.132,1.607-0.3l0.192,0.756
			c-0.372,0.168-1.019,0.372-1.943,0.372c-1.787,0-2.854-1.188-2.854-2.939c0-1.75,1.032-3.117,2.723-3.117
			c1.907,0,2.399,1.654,2.399,2.723c0,0.215-0.012,0.371-0.036,0.491H104.262z M107.356,149.792
			c0.012-0.659-0.276-1.702-1.463-1.702c-1.079,0-1.535,0.971-1.619,1.702H107.356z"/>
		<path d="M111.894,153.258v-0.646l0.828-0.805c1.991-1.895,2.902-2.902,2.902-4.077c0-0.792-0.372-1.523-1.535-1.523
			c-0.708,0-1.295,0.36-1.655,0.659l-0.336-0.743c0.528-0.444,1.307-0.792,2.195-0.792c1.679,0,2.387,1.152,2.387,2.268
			c0,1.439-1.043,2.603-2.687,4.186l-0.612,0.576v0.023h3.49v0.875H111.894z"/>
	</g>
	<g>
		<rect x="167.86" y="144.739" fill="none" width="43.775" height="13.253"/>
		<path d="M168.64,151.987c0.467,0.301,1.139,0.528,1.859,0.528c1.067,0,1.691-0.563,1.691-1.38c0-0.742-0.432-1.187-1.523-1.594
			c-1.319-0.48-2.135-1.176-2.135-2.303c0-1.26,1.043-2.195,2.614-2.195c0.815,0,1.427,0.191,1.775,0.396l-0.288,0.852
			c-0.252-0.155-0.792-0.384-1.523-0.384c-1.103,0-1.523,0.66-1.523,1.211c0,0.756,0.492,1.128,1.607,1.56
			c1.367,0.528,2.051,1.188,2.051,2.374c0,1.248-0.912,2.34-2.819,2.34c-0.779,0-1.631-0.24-2.063-0.528L168.64,151.987z"/>
		<path d="M174.652,144.744h1.056v3.634h0.024c0.168-0.3,0.432-0.576,0.755-0.756c0.312-0.18,0.684-0.287,1.08-0.287
			c0.779,0,2.026,0.479,2.026,2.471v3.453h-1.056v-3.334c0-0.936-0.348-1.715-1.344-1.715c-0.683,0-1.21,0.48-1.415,1.043
			c-0.06,0.156-0.072,0.313-0.072,0.504v3.502h-1.056V144.744z"/>
		<path d="M185.389,151.868c0,0.504,0.024,0.995,0.084,1.391h-0.947l-0.084-0.73h-0.035c-0.324,0.455-0.947,0.863-1.775,0.863
			c-1.176,0-1.775-0.828-1.775-1.668c0-1.402,1.248-2.17,3.49-2.158v-0.12c0-0.468-0.132-1.343-1.318-1.331
			c-0.553,0-1.116,0.156-1.523,0.432l-0.24-0.707c0.479-0.301,1.188-0.504,1.919-0.504c1.774,0,2.206,1.211,2.206,2.362V151.868z
			 M184.37,150.296c-1.15-0.024-2.458,0.181-2.458,1.308c0,0.695,0.456,1.008,0.983,1.008c0.768,0,1.26-0.48,1.428-0.973
			c0.035-0.119,0.047-0.239,0.047-0.336V150.296z"/>
		<path d="M187.096,149.349c0-0.743-0.023-1.343-0.048-1.896h0.936l0.06,0.996h0.024c0.419-0.708,1.115-1.115,2.063-1.115
			c1.415,0,2.471,1.188,2.471,2.938c0,2.088-1.283,3.119-2.65,3.119c-0.768,0-1.439-0.336-1.787-0.912h-0.024v3.154h-1.043V149.349z
			 M188.139,150.896c0,0.155,0.013,0.3,0.049,0.432c0.191,0.731,0.827,1.235,1.582,1.235c1.116,0,1.764-0.911,1.764-2.242
			c0-1.152-0.611-2.146-1.727-2.146c-0.721,0-1.404,0.503-1.596,1.295c-0.035,0.131-0.072,0.287-0.072,0.42V150.896z"/>
		<path d="M194.512,150.548c0.023,1.427,0.923,2.015,1.99,2.015c0.756,0,1.223-0.132,1.607-0.3l0.191,0.756
			c-0.371,0.168-1.02,0.372-1.943,0.372c-1.787,0-2.854-1.188-2.854-2.939c0-1.75,1.031-3.117,2.723-3.117
			c1.906,0,2.398,1.654,2.398,2.723c0,0.215-0.012,0.371-0.036,0.491H194.512z M197.606,149.792
			c0.012-0.659-0.275-1.702-1.463-1.702c-1.08,0-1.535,0.971-1.619,1.702H197.606z"/>
		<path d="M202.395,152.059c0.301,0.18,0.984,0.48,1.728,0.48c1.343,0,1.774-0.852,1.763-1.512
			c-0.012-1.092-0.995-1.559-2.015-1.559h-0.587v-0.792h0.587c0.768,0,1.739-0.396,1.739-1.319c0-0.623-0.396-1.176-1.367-1.176
			c-0.623,0-1.224,0.276-1.559,0.516l-0.289-0.768c0.42-0.299,1.212-0.6,2.051-0.6c1.535,0,2.231,0.912,2.231,1.859
			c0,0.816-0.491,1.5-1.439,1.848v0.023c0.96,0.18,1.728,0.899,1.739,1.99c0,1.248-0.983,2.34-2.842,2.34
			c-0.876,0-1.644-0.276-2.027-0.528L202.395,152.059z"/>
	</g>
	
		<rect x="55.02" y="65.462" fill="none" stroke="#000000" stroke-miterlimit="10" stroke-dasharray="4" width="185.141" height="92.53"/>
	<g>
		<rect x="124.085" y="164.132" fill="none" width="43.775" height="13.253"/>
		<path d="M131.162,172.292c-0.468,0.181-1.403,0.444-2.495,0.444c-1.223,0-2.231-0.313-3.022-1.068
			c-0.696-0.672-1.127-1.75-1.127-3.01c0-2.41,1.667-4.174,4.378-4.174c0.935,0,1.679,0.203,2.027,0.371l-0.264,0.852
			c-0.432-0.203-0.971-0.348-1.787-0.348c-1.967,0-3.25,1.224-3.25,3.25c0,2.052,1.223,3.263,3.118,3.263
			c0.684,0,1.151-0.096,1.392-0.216v-2.41H128.5v-0.84h2.663V172.292z"/>
		<path d="M132.713,168.659c0-0.684-0.012-1.271-0.048-1.811h0.923l0.048,1.15h0.036c0.264-0.779,0.912-1.271,1.619-1.271
			c0.108,0,0.192,0.013,0.288,0.024v0.995c-0.108-0.023-0.216-0.023-0.36-0.023c-0.744,0-1.271,0.552-1.416,1.344
			c-0.024,0.144-0.036,0.323-0.036,0.491v3.095h-1.056V168.659z"/>
		<path d="M141.77,169.702c0,2.146-1.499,3.082-2.89,3.082c-1.559,0-2.783-1.15-2.783-2.986c0-1.93,1.284-3.07,2.878-3.07
			C140.643,166.727,141.77,167.939,141.77,169.702z M137.177,169.762c0,1.271,0.72,2.23,1.751,2.23c1.007,0,1.763-0.947,1.763-2.255
			c0-0.983-0.492-2.219-1.739-2.219C137.716,167.519,137.177,168.67,137.177,169.762z"/>
		<path d="M147.962,171.057c0,0.611,0.012,1.14,0.048,1.596h-0.936l-0.06-0.947h-0.024c-0.264,0.467-0.887,1.078-1.919,1.078
			c-0.911,0-2.003-0.516-2.003-2.542v-3.394h1.056v3.201c0,1.104,0.348,1.859,1.295,1.859c0.708,0,1.199-0.492,1.391-0.971
			c0.06-0.145,0.096-0.336,0.096-0.541v-3.549h1.056V171.057z"/>
		<path d="M149.717,168.743c0-0.744-0.024-1.344-0.048-1.895h0.936l0.06,0.994h0.024c0.419-0.707,1.115-1.115,2.063-1.115
			c1.416,0,2.471,1.188,2.471,2.939c0,2.086-1.283,3.117-2.65,3.117c-0.768,0-1.439-0.336-1.787-0.911h-0.024v3.154h-1.043V168.743z
			 M150.76,170.29c0,0.156,0.012,0.3,0.048,0.432c0.192,0.732,0.828,1.235,1.583,1.235c1.115,0,1.763-0.911,1.763-2.243
			c0-1.15-0.611-2.146-1.727-2.146c-0.72,0-1.403,0.504-1.595,1.295c-0.036,0.133-0.072,0.289-0.072,0.42V170.29z"/>
	</g>
</g>
</svg>
