<?xml version="1.0" encoding="utf-8"?>
<!-- Generator: Adobe Illustrator 16.0.0, SVG Export Plug-In . SVG Version: 6.00 Build 0)  -->
<!DOCTYPE svg PUBLIC "-//W3C//DTD SVG 1.1//EN" "http://www.w3.org/Graphics/SVG/1.1/DTD/svg11.dtd">
<svg version="1.1" id="Layer_1" xmlns="http://www.w3.org/2000/svg" xmlns:xlink="http://www.w3.org/1999/xlink" x="0px" y="0px"
	 width="200px" height="200px" viewBox="0 0 200 200" enable-background="new 0 0 200 200" xml:space="preserve">
<g>
	<path fill="#FF0000" d="M62,15C30.52,15,5,40.52,5,72c0,23.745,14.518,44.098,35.162,52.667
		c1.859-24.726,19.491-45.052,42.863-50.941C83.009,73.153,83,72.577,83,72c0-16.394,6.921-31.171,18-41.57
		C90.804,20.861,77.087,15,62,15"/>
	<path fill="#00FF00" d="M140,15c-15.087,0-28.804,5.861-39,15.43c11.079,10.398,18,25.176,18,41.57
		c0,1.458-0.055,2.902-0.162,4.333c20.144,8.361,34.453,27.938,35.137,50.941C178.699,121.044,197,98.66,197,72
		C197,40.52,171.48,15,140,15"/>
	<path fill="#FFFF00" d="M101,30.43C89.921,40.829,83,55.606,83,72c0,0.577,0.009,1.153,0.025,1.726C87.497,72.599,92.179,72,97,72
		c7.735,0,15.112,1.542,21.838,4.333C118.945,74.902,119,73.458,119,72C119,55.606,112.079,40.829,101,30.43"/>
	<path fill="#0000FF" d="M101,113.569C90.804,123.14,77.087,129,62,129c-7.736,0-15.112-1.541-21.838-4.333
		C40.055,126.098,40,127.542,40,129c0,31.48,25.52,57,57,57s57-25.52,57-57c0-0.576-0.009-1.153-0.025-1.726
		C149.503,128.401,144.821,129,140,129C124.913,129,111.196,123.14,101,113.569"/>
	<path fill="#FF00FF" d="M83.025,73.726c-23.373,5.89-41.004,26.216-42.863,50.941C46.888,127.459,54.264,129,62,129
		c15.087,0,28.804-5.86,39-15.431C90.311,103.537,83.492,89.43,83.025,73.726"/>
	<path fill="#00FFFF" d="M118.838,76.333c-1.102,14.653-7.744,27.764-17.838,37.236C111.196,123.14,124.913,129,140,129
		c4.821,0,9.503-0.599,13.975-1.726C153.291,104.271,138.981,84.694,118.838,76.333"/>
	<path fill="#FFFFFF" d="M97,72c-4.821,0-9.503,0.599-13.975,1.726c0.466,15.704,7.285,29.812,17.975,39.844
		c10.094-9.473,16.736-22.583,17.838-37.236C112.112,73.542,104.735,72,97,72"/>
</g>
<g>
</g>
<g>
</g>
<g>
</g>
<g>
</g>
<g>
</g>
<g>
</g>
</svg>
