<?xml version="1.0" encoding="utf-8"?>
<!-- Generator: Adobe Illustrator 15.1.0, SVG Export Plug-In . SVG Version: 6.00 Build 0)  -->
<!DOCTYPE svg PUBLIC "-//W3C//DTD SVG 1.1//EN" "http://www.w3.org/Graphics/SVG/1.1/DTD/svg11.dtd" [
	<!ENTITY ns_extend "http://ns.adobe.com/Extensibility/1.0/">
	<!ENTITY ns_ai "http://ns.adobe.com/AdobeIllustrator/10.0/">
	<!ENTITY ns_graphs "http://ns.adobe.com/Graphs/1.0/">
	<!ENTITY ns_vars "http://ns.adobe.com/Variables/1.0/">
	<!ENTITY ns_imrep "http://ns.adobe.com/ImageReplacement/1.0/">
	<!ENTITY ns_sfw "http://ns.adobe.com/SaveForWeb/1.0/">
	<!ENTITY ns_custom "http://ns.adobe.com/GenericCustomNamespace/1.0/">
	<!ENTITY ns_adobe_xpath "http://ns.adobe.com/XPath/1.0/">
]>
<svg version="1.1" xmlns:x="&ns_extend;" xmlns:i="&ns_ai;" xmlns:graph="&ns_graphs;"
	 xmlns="http://www.w3.org/2000/svg" xmlns:xlink="http://www.w3.org/1999/xlink" x="0px" y="0px" width="278.714px"
	 height="232.931px" viewBox="0 0 278.714 232.931" enable-background="new 0 0 278.714 232.931" xml:space="preserve">
<metadata>
	<sfw  xmlns="&ns_sfw;">
		<slices></slices>
		<sliceSourceBounds  height="232.931" width="278.714" x="23.976" y="-249.83" bottomLeftOrigin="true"></sliceSourceBounds>
	</sfw>
</metadata>
<pattern  x="-23.976" y="-16.899" width="18.474" height="18.175" patternUnits="userSpaceOnUse" id="New_Pattern_Swatch_3" viewBox="0 -18.175 18.474 18.175" overflow="visible">
	<g>
		<polygon fill="none" points="0,0 18.474,0 18.474,-18.175 0,-18.175 		"/>
		<polygon fill="#E0E0E0" points="9.438,-8.938 0,-8.938 0,-18.175 9.438,-18.175 		"/>
		<polygon fill="#E0E0E0" points="18.474,0 9.036,0 9.036,-9.237 18.474,-9.237 		"/>
	</g>
</pattern>
<g id="Layer_2">
	<rect fill="url(#New_Pattern_Swatch_3)" width="278.714" height="232.931"/>
</g>
<g id="Layer_1">
	<rect x="56.626" y="6.001" fill="#FF0000" stroke="#000000" stroke-miterlimit="10" width="101.392" height="74.027"/>
	<rect x="102.824" y="31.572" fill="#0000FF" stroke="#000000" stroke-miterlimit="10" width="101.392" height="74.027"/>
	<g>
		<g>
			<line fill="none" stroke="#000000" stroke-miterlimit="10" x1="131.325" y1="112.025" x2="131.325" y2="122.456"/>
			<g>
				<path d="M131.325,128.491c-1.054-2.84-2.852-6.363-4.756-8.547l4.756,1.72l4.755-1.72
					C134.176,122.127,132.378,125.651,131.325,128.491z"/>
			</g>
		</g>
	</g>
	<g>
		<polyline fill="#FF7F7F" points="157.519,148.917 57.125,148.917 57.125,221.944 157.519,221.944 157.519,148.917 		"/>
		<path fill="#7F7F7F" d="M158.019,222.444L158.019,222.444v-0.5V222.444h0.5H158.019 M57.125,221.944v-73.026h100.393v73.026
			H57.125 M158.519,147.917H56.125v75.026h102.393v-0.5V147.917"/>
	</g>
	<g>
		<rect x="101.004" y="133.311" fill="none" width="60.643" height="12.45"/>
		<path d="M102.068,133.95c0.532-0.126,1.387-0.21,2.228-0.21c1.218,0,2.003,0.21,2.577,0.686c0.49,0.365,0.798,0.925,0.798,1.668
			c0,0.924-0.616,1.723-1.597,2.072v0.042c0.896,0.21,1.947,0.953,1.947,2.354c0,0.813-0.322,1.442-0.812,1.891
			c-0.645,0.603-1.709,0.883-3.25,0.883c-0.84,0-1.485-0.056-1.891-0.112V133.95z M103.287,137.816h1.106
			c1.275,0,2.031-0.687,2.031-1.598c0-1.092-0.827-1.541-2.059-1.541c-0.561,0-0.882,0.043-1.079,0.084V137.816z M103.287,142.326
			c0.252,0.042,0.588,0.057,1.022,0.057c1.261,0,2.423-0.463,2.423-1.835c0-1.275-1.106-1.821-2.437-1.821h-1.009V142.326z"/>
		<path d="M114.377,141.625c0,0.589,0.028,1.163,0.098,1.625h-1.107l-0.098-0.854h-0.042c-0.378,0.532-1.107,1.009-2.073,1.009
			c-1.373,0-2.073-0.967-2.073-1.947c0-1.639,1.457-2.535,4.076-2.521v-0.14c0-0.547-0.154-1.569-1.541-1.555
			c-0.645,0-1.303,0.182-1.779,0.504l-0.28-0.826c0.561-0.351,1.387-0.589,2.241-0.589c2.073,0,2.578,1.415,2.578,2.76V141.625z
			 M113.186,139.791c-1.345-0.028-2.871,0.21-2.871,1.527c0,0.812,0.532,1.176,1.148,1.176c0.896,0,1.471-0.56,1.667-1.134
			c0.042-0.141,0.056-0.28,0.056-0.393V139.791z"/>
		<path d="M121.195,143.012c-0.322,0.154-1.036,0.393-1.947,0.393c-2.045,0-3.376-1.387-3.376-3.46c0-2.087,1.429-3.614,3.642-3.614
			c0.729,0,1.373,0.183,1.709,0.364l-0.28,0.938c-0.294-0.154-0.756-0.322-1.429-0.322c-1.555,0-2.396,1.163-2.396,2.563
			c0,1.569,1.009,2.535,2.354,2.535c0.7,0,1.163-0.168,1.513-0.322L121.195,143.012z"/>
		<path d="M123.853,139.581h0.028c0.168-0.238,0.393-0.532,0.588-0.771l2.003-2.339h1.471l-2.605,2.787l2.983,3.992h-1.513
			l-2.325-3.25l-0.63,0.7v2.55h-1.219v-9.945h1.219V139.581z"/>
		<path d="M135.042,133.305v8.194c0,0.603,0.028,1.289,0.056,1.751h-1.093l-0.056-1.177h-0.042
			c-0.364,0.757-1.177,1.331-2.283,1.331c-1.639,0-2.914-1.387-2.914-3.446c-0.014-2.255,1.401-3.628,3.04-3.628
			c1.051,0,1.737,0.49,2.045,1.022h0.028v-4.048H135.042z M133.823,139.23c0-0.153-0.014-0.364-0.056-0.518
			c-0.182-0.771-0.854-1.415-1.779-1.415c-1.275,0-2.031,1.12-2.031,2.605c0,1.373,0.687,2.507,2.003,2.507
			c0.826,0,1.583-0.56,1.807-1.471c0.042-0.168,0.056-0.336,0.056-0.532V139.23z"/>
		<path d="M137.096,138.586c0-0.799-0.014-1.485-0.056-2.115h1.079l0.056,1.345h0.042c0.308-0.911,1.064-1.485,1.891-1.485
			c0.126,0,0.224,0.015,0.336,0.028v1.162c-0.126-0.027-0.252-0.027-0.42-0.027c-0.869,0-1.485,0.645-1.653,1.568
			c-0.028,0.168-0.042,0.378-0.042,0.574v3.614h-1.233V138.586z"/>
		<path d="M147.669,139.804c0,2.508-1.751,3.601-3.375,3.601c-1.821,0-3.25-1.345-3.25-3.488c0-2.255,1.499-3.586,3.362-3.586
			C146.353,136.331,147.669,137.746,147.669,139.804z M142.305,139.875c0,1.485,0.84,2.605,2.045,2.605
			c1.177,0,2.059-1.106,2.059-2.634c0-1.148-0.574-2.591-2.031-2.591C142.935,137.255,142.305,138.6,142.305,139.875z"/>
		<path d="M149.22,138.684c0-0.868-0.028-1.569-0.056-2.213h1.093l0.07,1.162h0.028c0.49-0.826,1.303-1.303,2.409-1.303
			c1.653,0,2.886,1.387,2.886,3.432c0,2.438-1.499,3.643-3.096,3.643c-0.896,0-1.681-0.393-2.087-1.064h-0.028v3.684h-1.219V138.684
			z M150.439,140.491c0,0.183,0.014,0.351,0.056,0.505c0.224,0.854,0.966,1.442,1.849,1.442c1.302,0,2.059-1.064,2.059-2.619
			c0-1.345-0.714-2.508-2.017-2.508c-0.841,0-1.639,0.589-1.863,1.513c-0.042,0.154-0.084,0.337-0.084,0.49V140.491z"/>
	</g>
	<g>
		<rect x="102.824" y="173.988" fill="#FF0000" width="55.195" height="48.456"/>
		<g>
			<polyline fill="none" stroke="#000000" stroke-miterlimit="10" points="158.019,220.944 158.019,222.444 156.519,222.444 			"/>
			
				<line fill="none" stroke="#000000" stroke-miterlimit="10" stroke-dasharray="3.0703,3.0703" x1="153.448" y1="222.444" x2="105.859" y2="222.444"/>
			<polyline fill="none" stroke="#000000" stroke-miterlimit="10" points="104.324,222.444 102.824,222.444 102.824,220.944 			"/>
			
				<line fill="none" stroke="#000000" stroke-miterlimit="10" stroke-dasharray="3.0304,3.0304" x1="102.824" y1="217.914" x2="102.824" y2="177.003"/>
			<polyline fill="none" stroke="#000000" stroke-miterlimit="10" points="102.824,175.488 102.824,173.988 104.324,173.988 			"/>
			
				<line fill="none" stroke="#000000" stroke-miterlimit="10" stroke-dasharray="3.0703,3.0703" x1="107.394" y1="173.988" x2="154.983" y2="173.988"/>
			<polyline fill="none" stroke="#000000" stroke-miterlimit="10" points="156.519,173.988 158.019,173.988 158.019,175.488 			"/>
			
				<line fill="none" stroke="#000000" stroke-miterlimit="10" stroke-dasharray="3.0304,3.0304" x1="158.019" y1="178.518" x2="158.019" y2="219.428"/>
		</g>
	</g>
</g>
</svg>
