<?xml version="1.0" encoding="utf-8"?>
<!-- Generator: Adobe Illustrator 16.0.0, SVG Export Plug-In . SVG Version: 6.00 Build 0)  -->
<!DOCTYPE svg PUBLIC "-//W3C//DTD SVG 1.1//EN" "http://www.w3.org/Graphics/SVG/1.1/DTD/svg11.dtd">
<svg version="1.1" xmlns="http://www.w3.org/2000/svg" xmlns:xlink="http://www.w3.org/1999/xlink" x="0px" y="0px"
	 width="278.714px" height="232.931px" viewBox="0 0 278.714 232.931" enable-background="new 0 0 278.714 232.931"
	 xml:space="preserve">
<pattern  x="-23.976" y="-16.899" width="18.474" height="18.175" patternUnits="userSpaceOnUse" id="New_Pattern_Swatch_3" viewBox="0 -18.175 18.474 18.175" overflow="visible">
	<g>
		<polygon fill="none" points="0,0 18.474,0 18.474,-18.175 0,-18.175 		"/>
		<polygon fill="#E0E0E0" points="9.438,-8.938 0,-8.938 0,-18.175 9.438,-18.175 		"/>
		<polygon fill="#E0E0E0" points="18.474,0 9.036,0 9.036,-9.237 18.474,-9.237 		"/>
	</g>
</pattern>
<g id="Layer_2">
	<rect y="1" fill="url(#New_Pattern_Swatch_3)" width="278.714" height="231.931"/>
</g>
<g id="Layer_1">
	<rect x="0.766" y="14.473" opacity="0.5" fill="#FF0000" width="107.456" height="67.382"/>
	<g>
		<rect x="12.89" y="1" fill="none" width="83.207" height="10.047"/>
		<path d="M13.955,1.625c0.617-0.126,1.499-0.196,2.339-0.196c1.303,0,2.143,0.238,2.731,0.771c0.477,0.42,0.743,1.064,0.743,1.793
			c0,1.247-0.785,2.073-1.779,2.409v0.042c0.729,0.252,1.163,0.925,1.387,1.905c0.308,1.316,0.532,2.227,0.729,2.591h-1.261
			c-0.154-0.266-0.364-1.079-0.63-2.255c-0.28-1.303-0.784-1.793-1.891-1.835h-1.148v4.09h-1.219V1.625z M15.173,5.925h1.247
			c1.303,0,2.129-0.714,2.129-1.793c0-1.219-0.883-1.751-2.171-1.765c-0.588,0-1.008,0.056-1.205,0.112V5.925z"/>
		<path d="M28.714,10.52c-0.546,0.196-1.625,0.519-2.899,0.519c-1.429,0-2.605-0.364-3.53-1.247
			c-0.812-0.785-1.316-2.045-1.316-3.516c0.014-2.815,1.947-4.875,5.113-4.875c1.092,0,1.947,0.238,2.353,0.434L28.14,2.83
			c-0.504-0.224-1.135-0.406-2.087-0.406c-2.297,0-3.796,1.429-3.796,3.796c0,2.396,1.443,3.81,3.642,3.81
			c0.798,0,1.345-0.112,1.625-0.252V6.962h-1.919v-0.98h3.11V10.52z"/>
		<path d="M30.572,1.625c0.532-0.112,1.373-0.196,2.228-0.196c1.218,0,2.003,0.21,2.591,0.687c0.49,0.364,0.784,0.924,0.784,1.667
			c0,0.91-0.602,1.709-1.597,2.073v0.028c0.896,0.224,1.947,0.966,1.947,2.367c0,0.813-0.322,1.429-0.798,1.891
			c-0.658,0.602-1.723,0.882-3.264,0.882c-0.84,0-1.485-0.056-1.891-0.112V1.625z M31.791,5.491h1.106
			c1.289,0,2.045-0.672,2.045-1.583c0-1.106-0.84-1.541-2.073-1.541c-0.56,0-0.882,0.042-1.079,0.084V5.491z M31.791,10.016
			c0.238,0.042,0.588,0.056,1.022,0.056c1.261,0,2.423-0.462,2.423-1.835c0-1.289-1.106-1.821-2.437-1.821h-1.009V10.016z"/>
		<path d="M40.794,1.219c-1.023,1.373-1.765,3.194-1.765,5.729c0,2.493,0.771,4.286,1.765,5.687h-0.967
			c-0.882-1.163-1.835-2.956-1.835-5.687c0.014-2.759,0.953-4.552,1.835-5.729H40.794z"/>
		<path d="M44.377,2.984H44.35l-1.583,0.854l-0.238-0.938l1.989-1.064h1.051v9.105h-1.191V2.984z"/>
		<path d="M48.478,12.663c0.308-0.827,0.687-2.326,0.84-3.348l1.373-0.14c-0.322,1.191-0.938,2.746-1.331,3.404L48.478,12.663z"/>
		<path d="M60.801,6.29c0,3.096-1.148,4.805-3.166,4.805c-1.779,0-2.984-1.667-3.012-4.679c0-3.054,1.316-4.734,3.166-4.734
			C59.708,1.681,60.801,3.39,60.801,6.29z M55.856,6.43c0,2.367,0.729,3.712,1.849,3.712c1.261,0,1.863-1.471,1.863-3.796
			c0-2.241-0.574-3.712-1.849-3.712C56.641,2.633,55.856,3.95,55.856,6.43z"/>
		<path d="M61.525,12.663c0.308-0.827,0.687-2.326,0.84-3.348l1.373-0.14c-0.322,1.191-0.938,2.746-1.331,3.404L61.525,12.663z"/>
		<path d="M73.848,6.29c0,3.096-1.148,4.805-3.166,4.805c-1.779,0-2.984-1.667-3.012-4.679c0-3.054,1.316-4.734,3.166-4.734
			C72.755,1.681,73.848,3.39,73.848,6.29z M68.903,6.43c0,2.367,0.729,3.712,1.849,3.712c1.261,0,1.863-1.471,1.863-3.796
			c0-2.241-0.574-3.712-1.849-3.712C69.688,2.633,68.903,3.95,68.903,6.43z"/>
		<path d="M74.572,12.663c0.308-0.827,0.687-2.326,0.84-3.348l1.373-0.14c-0.322,1.191-0.938,2.746-1.331,3.404L74.572,12.663z"/>
		<path d="M80.942,10.211c0-0.518,0.35-0.882,0.84-0.882s0.827,0.364,0.827,0.882c0,0.504-0.322,0.883-0.841,0.883
			C81.278,11.094,80.942,10.716,80.942,10.211z"/>
		<path d="M89.177,2.872h-3.474l-0.35,2.339c0.21-0.028,0.406-0.056,0.742-0.056c0.701,0,1.401,0.154,1.961,0.49
			c0.714,0.406,1.303,1.191,1.303,2.339c0,1.779-1.415,3.11-3.39,3.11c-0.995,0-1.835-0.28-2.269-0.561l0.308-0.938
			c0.378,0.224,1.121,0.504,1.947,0.504c1.163,0,2.157-0.756,2.157-1.975c-0.014-1.177-0.798-2.017-2.619-2.017
			c-0.519,0-0.925,0.056-1.261,0.098l0.588-4.371h4.356V2.872z"/>
		<path d="M90.574,12.635c0.995-1.387,1.765-3.208,1.765-5.729c0-2.507-0.756-4.3-1.765-5.687h0.953
			c0.896,1.148,1.835,2.941,1.835,5.701c0,2.745-0.938,4.524-1.835,5.715H90.574z"/>
	</g>
	<rect x="154.947" y="22.393" fill="#0000FF" fill-opacity="0.5" width="78.53" height="41.446"/>
	<g>
		<rect x="153.065" y="6.715" fill="none" width="82.294" height="10.046"/>
		<path d="M154.13,7.34c0.616-0.126,1.499-0.196,2.34-0.196c1.303,0,2.143,0.238,2.731,0.771c0.476,0.42,0.742,1.064,0.742,1.793
			c0,1.247-0.784,2.073-1.779,2.409v0.042c0.729,0.252,1.163,0.925,1.387,1.905c0.309,1.316,0.532,2.227,0.729,2.591h-1.261
			c-0.154-0.266-0.364-1.079-0.63-2.255c-0.28-1.303-0.785-1.793-1.892-1.835h-1.148v4.09h-1.219V7.34z M155.349,11.641h1.247
			c1.303,0,2.129-0.714,2.129-1.793c0-1.219-0.883-1.751-2.171-1.765c-0.589,0-1.009,0.056-1.205,0.112V11.641z"/>
		<path d="M168.89,16.235c-0.546,0.196-1.624,0.519-2.899,0.519c-1.429,0-2.605-0.364-3.529-1.247
			c-0.813-0.785-1.317-2.045-1.317-3.516c0.015-2.815,1.947-4.875,5.113-4.875c1.093,0,1.947,0.238,2.354,0.434l-0.295,0.995
			c-0.504-0.224-1.134-0.406-2.087-0.406c-2.297,0-3.796,1.429-3.796,3.796c0,2.396,1.442,3.81,3.642,3.81
			c0.799,0,1.345-0.112,1.625-0.252v-2.815h-1.919v-0.98h3.109V16.235z"/>
		<path d="M170.748,7.34c0.532-0.112,1.373-0.196,2.228-0.196c1.219,0,2.003,0.21,2.591,0.687c0.49,0.364,0.785,0.924,0.785,1.667
			c0,0.91-0.603,1.709-1.598,2.073v0.028c0.896,0.224,1.947,0.966,1.947,2.367c0,0.813-0.322,1.429-0.798,1.891
			c-0.659,0.602-1.724,0.882-3.264,0.882c-0.841,0-1.485-0.056-1.892-0.112V7.34z M171.967,11.207h1.106
			c1.289,0,2.045-0.672,2.045-1.583c0-1.106-0.84-1.541-2.072-1.541c-0.561,0-0.883,0.042-1.079,0.084V11.207z M171.967,15.731
			c0.238,0.042,0.588,0.056,1.022,0.056c1.261,0,2.424-0.462,2.424-1.835c0-1.289-1.107-1.821-2.438-1.821h-1.009V15.731z"/>
		<path d="M180.969,6.934c-1.021,1.373-1.766,3.194-1.766,5.729c0,2.493,0.771,4.286,1.766,5.687h-0.967
			c-0.883-1.163-1.834-2.956-1.834-5.687c0.014-2.759,0.951-4.552,1.834-5.729H180.969z"/>
		<path d="M187.928,12.005c0,3.096-1.148,4.805-3.166,4.805c-1.777,0-2.982-1.667-3.012-4.679c0-3.054,1.318-4.734,3.166-4.734
			C186.836,7.396,187.928,9.105,187.928,12.005z M182.985,12.145c0,2.367,0.727,3.712,1.848,3.712c1.262,0,1.863-1.471,1.863-3.796
			c0-2.241-0.574-3.712-1.85-3.712C183.768,8.349,182.985,9.666,182.985,12.145z"/>
		<path d="M188.653,18.378c0.309-0.827,0.686-2.326,0.84-3.348l1.373-0.14c-0.322,1.191-0.938,2.746-1.33,3.404L188.653,18.378z"/>
		<path d="M200.975,12.005c0,3.096-1.148,4.805-3.166,4.805c-1.777,0-2.982-1.667-3.012-4.679c0-3.054,1.318-4.734,3.166-4.734
			C199.883,7.396,200.975,9.105,200.975,12.005z M196.032,12.145c0,2.367,0.727,3.712,1.848,3.712c1.262,0,1.863-1.471,1.863-3.796
			c0-2.241-0.574-3.712-1.85-3.712C196.815,8.349,196.032,9.666,196.032,12.145z"/>
		<path d="M201.7,18.378c0.309-0.827,0.686-2.326,0.84-3.348l1.373-0.14c-0.322,1.191-0.938,2.746-1.33,3.404L201.7,18.378z"/>
		<path d="M210.647,8.699h-0.029l-1.582,0.854l-0.238-0.938l1.99-1.064h1.049v9.105h-1.189V8.699z"/>
		<path d="M214.747,18.378c0.309-0.827,0.686-2.326,0.84-3.348l1.373-0.14c-0.322,1.191-0.938,2.746-1.33,3.404L214.747,18.378z"/>
		<path d="M221.116,15.927c0-0.518,0.35-0.882,0.84-0.882c0.492,0,0.828,0.364,0.828,0.882c0,0.504-0.322,0.883-0.842,0.883
			C221.452,16.81,221.116,16.431,221.116,15.927z"/>
		<path d="M229.35,8.587h-3.473l-0.352,2.339c0.211-0.028,0.406-0.056,0.742-0.056c0.701,0,1.402,0.154,1.961,0.49
			c0.715,0.406,1.303,1.191,1.303,2.339c0,1.779-1.414,3.11-3.389,3.11c-0.994,0-1.836-0.28-2.27-0.561l0.309-0.938
			c0.377,0.224,1.119,0.504,1.947,0.504c1.162,0,2.156-0.756,2.156-1.975c-0.014-1.177-0.799-2.017-2.619-2.017
			c-0.518,0-0.924,0.056-1.262,0.098l0.59-4.371h4.355V8.587z"/>
		<path d="M230.747,18.35c0.994-1.387,1.766-3.208,1.766-5.729c0-2.507-0.756-4.3-1.766-5.687h0.953
			c0.896,1.148,1.834,2.941,1.834,5.701c0,2.745-0.938,4.524-1.834,5.715H230.747z"/>
	</g>
	<g>
		<path d="M131.017,40.861v3.063h2.945v0.782h-2.945v3.088h-0.834v-3.088h-2.945v-0.782h2.945v-3.063H131.017z"/>
	</g>
	<g>
		<g>
			<line fill="none" stroke="#000000" stroke-miterlimit="10" x1="130.431" y1="82.615" x2="130.431" y2="135.042"/>
			<g>
				<path d="M130.431,141.077c-1.054-2.84-2.852-6.363-4.756-8.548l4.756,1.721l4.755-1.721
					C133.282,134.713,131.484,138.237,130.431,141.077z"/>
			</g>
		</g>
	</g>
	<rect x="56.382" y="156.544" opacity="0.5" fill="#FF0000" width="107.457" height="67.383"/>
	<rect x="70.846" y="169.512" opacity="0.5" fill="#0000FF" width="78.529" height="41.446"/>
	<g>
		<g>
			<path fill="none" stroke="#000000" stroke-miterlimit="10" d="M190.231,169.512c0,12.35-15.264,22.554-35.177,24.29"/>
			<g>
				<path d="M149.022,194.063c2.781-1.199,6.207-3.177,8.29-5.191l-1.472,4.838l1.964,4.66
					C155.524,196.581,151.913,194.967,149.022,194.063z"/>
			</g>
		</g>
	</g>
	<g>
		<rect x="163.964" y="156.976" fill="none" width="113.215" height="10.047"/>
		<path d="M165.029,157.6c0.616-0.126,1.499-0.195,2.34-0.195c1.302,0,2.143,0.237,2.731,0.771c0.476,0.42,0.742,1.064,0.742,1.793
			c0,1.246-0.784,2.072-1.779,2.409v0.042c0.729,0.252,1.163,0.924,1.387,1.904c0.309,1.317,0.532,2.228,0.729,2.592h-1.261
			c-0.154-0.267-0.364-1.078-0.63-2.255c-0.28-1.303-0.785-1.793-1.892-1.835h-1.148v4.09h-1.219V157.6z M166.248,161.901h1.247
			c1.303,0,2.129-0.715,2.129-1.793c0-1.219-0.883-1.751-2.171-1.765c-0.589,0-1.009,0.056-1.205,0.111V161.901z"/>
		<path d="M179.789,166.496c-0.546,0.195-1.624,0.518-2.899,0.518c-1.429,0-2.605-0.364-3.529-1.246
			c-0.813-0.784-1.317-2.045-1.317-3.516c0.015-2.816,1.947-4.875,5.113-4.875c1.093,0,1.947,0.238,2.354,0.435l-0.295,0.994
			c-0.504-0.225-1.134-0.406-2.087-0.406c-2.297,0-3.796,1.429-3.796,3.796c0,2.396,1.442,3.811,3.642,3.811
			c0.799,0,1.345-0.112,1.625-0.253v-2.815h-1.919v-0.98h3.109V166.496z"/>
		<path d="M181.647,157.6c0.532-0.111,1.373-0.195,2.228-0.195c1.219,0,2.003,0.21,2.591,0.686c0.49,0.364,0.785,0.925,0.785,1.667
			c0,0.911-0.603,1.709-1.598,2.073v0.028c0.896,0.224,1.947,0.967,1.947,2.367c0,0.813-0.322,1.429-0.798,1.891
			c-0.659,0.603-1.724,0.883-3.264,0.883c-0.841,0-1.485-0.056-1.892-0.112V157.6z M182.866,161.466h1.106
			c1.289,0,2.045-0.672,2.045-1.583c0-1.106-0.84-1.54-2.073-1.54c-0.56,0-0.882,0.042-1.078,0.084V161.466z M182.866,165.991
			c0.238,0.042,0.588,0.057,1.022,0.057c1.261,0,2.424-0.463,2.424-1.835c0-1.289-1.107-1.821-2.438-1.821h-1.009V165.991z"/>
		<path d="M191.869,157.194c-1.022,1.373-1.766,3.194-1.766,5.729c0,2.493,0.771,4.286,1.766,5.688h-0.967
			c-0.883-1.163-1.835-2.956-1.835-5.688c0.014-2.76,0.952-4.553,1.835-5.729H191.869z"/>
		<path d="M192.875,166.187c0-0.519,0.35-0.883,0.841-0.883c0.49,0,0.826,0.364,0.826,0.883c0,0.504-0.322,0.883-0.841,0.883
			C193.21,167.07,192.875,166.691,192.875,166.187z"/>
		<path d="M195.968,165.5c0.35,0.225,1.162,0.574,2.017,0.574c1.583,0,2.073-1.008,2.06-1.765c-0.015-1.274-1.163-1.821-2.354-1.821
			h-0.687v-0.924h0.687c0.896,0,2.031-0.463,2.031-1.541c0-0.729-0.463-1.373-1.597-1.373c-0.729,0-1.429,0.322-1.821,0.603
			l-0.322-0.896c0.477-0.351,1.4-0.7,2.381-0.7c1.793,0,2.605,1.064,2.605,2.171c0,0.938-0.56,1.737-1.681,2.144v0.027
			c1.121,0.225,2.031,1.064,2.031,2.34c0,1.456-1.135,2.731-3.319,2.731c-1.023,0-1.92-0.322-2.368-0.616L195.968,165.5z"/>
		<path d="M203.15,165.5c0.35,0.225,1.162,0.574,2.017,0.574c1.583,0,2.073-1.008,2.06-1.765c-0.015-1.274-1.163-1.821-2.354-1.821
			h-0.687v-0.924h0.687c0.896,0,2.031-0.463,2.031-1.541c0-0.729-0.463-1.373-1.597-1.373c-0.729,0-1.429,0.322-1.821,0.603
			l-0.322-0.896c0.477-0.351,1.4-0.7,2.381-0.7c1.793,0,2.605,1.064,2.605,2.171c0,0.938-0.56,1.737-1.681,2.144v0.027
			c1.121,0.225,2.031,1.064,2.031,2.34c0,1.456-1.135,2.731-3.319,2.731c-1.023,0-1.92-0.322-2.368-0.616L203.15,165.5z"/>
		<path d="M209.631,168.638c0.308-0.826,0.686-2.325,0.84-3.348l1.373-0.14c-0.322,1.19-0.938,2.745-1.331,3.403L209.631,168.638z"
			/>
		<path d="M221.954,162.265c0,3.096-1.148,4.805-3.166,4.805c-1.778,0-2.983-1.667-3.012-4.679c0-3.054,1.317-4.734,3.166-4.734
			C220.861,157.657,221.954,159.366,221.954,162.265z M217.009,162.405c0,2.367,0.728,3.712,1.849,3.712
			c1.261,0,1.863-1.471,1.863-3.796c0-2.241-0.574-3.712-1.85-3.712C217.793,158.609,217.009,159.925,217.009,162.405z"/>
		<path d="M222.678,168.638c0.308-0.826,0.686-2.325,0.84-3.348l1.373-0.14c-0.322,1.19-0.938,2.745-1.331,3.403L222.678,168.638z"
			/>
		<path d="M229.047,166.187c0-0.519,0.35-0.883,0.84-0.883c0.491,0,0.827,0.364,0.827,0.883c0,0.504-0.322,0.883-0.841,0.883
			C229.383,167.07,229.047,166.691,229.047,166.187z"/>
		<path d="M237.043,158.679c-0.252-0.014-0.574,0-0.925,0.056c-1.933,0.322-2.955,1.737-3.165,3.236h0.042
			c0.434-0.574,1.19-1.051,2.199-1.051c1.61,0,2.745,1.162,2.745,2.941c0,1.667-1.135,3.208-3.025,3.208
			c-1.947,0-3.222-1.513-3.222-3.88c0-1.793,0.644-3.208,1.54-4.104c0.757-0.742,1.766-1.205,2.914-1.345
			c0.364-0.057,0.672-0.07,0.896-0.07V158.679z M236.693,163.932c0-1.303-0.742-2.087-1.877-2.087c-0.742,0-1.429,0.462-1.765,1.12
			c-0.084,0.14-0.14,0.322-0.14,0.546c0.027,1.499,0.714,2.605,2.003,2.605C235.979,166.117,236.693,165.235,236.693,163.932z"/>
		<path d="M244.225,158.679c-0.252-0.014-0.574,0-0.925,0.056c-1.933,0.322-2.955,1.737-3.165,3.236h0.042
			c0.434-0.574,1.19-1.051,2.199-1.051c1.61,0,2.745,1.162,2.745,2.941c0,1.667-1.135,3.208-3.025,3.208
			c-1.947,0-3.222-1.513-3.222-3.88c0-1.793,0.644-3.208,1.54-4.104c0.757-0.742,1.766-1.205,2.914-1.345
			c0.364-0.057,0.672-0.07,0.896-0.07V158.679z M243.875,163.932c0-1.303-0.742-2.087-1.877-2.087c-0.742,0-1.429,0.462-1.765,1.12
			c-0.084,0.14-0.14,0.322-0.14,0.546c0.027,1.499,0.714,2.605,2.003,2.605C243.161,166.117,243.875,165.235,243.875,163.932z"/>
		<path d="M245.803,168.638c0.309-0.826,0.687-2.325,0.841-3.348l1.373-0.14c-0.322,1.19-0.938,2.745-1.331,3.403L245.803,168.638z"
			/>
		<path d="M252.173,166.187c0-0.519,0.35-0.883,0.841-0.883c0.49,0,0.826,0.364,0.826,0.883c0,0.504-0.322,0.883-0.841,0.883
			C252.509,167.07,252.173,166.691,252.173,166.187z"/>
		<path d="M260.884,157.811v0.812l-3.965,8.293h-1.274l3.95-8.055v-0.027h-4.454v-1.022H260.884z"/>
		<path d="M267.589,158.847h-3.474l-0.351,2.339c0.21-0.027,0.406-0.056,0.742-0.056c0.7,0,1.401,0.154,1.961,0.49
			c0.715,0.406,1.303,1.19,1.303,2.339c0,1.779-1.414,3.11-3.39,3.11c-0.994,0-1.835-0.28-2.27-0.561l0.309-0.938
			c0.378,0.224,1.121,0.504,1.947,0.504c1.162,0,2.157-0.756,2.157-1.975c-0.015-1.177-0.799-2.018-2.62-2.018
			c-0.518,0-0.924,0.057-1.26,0.099l0.588-4.37h4.356V158.847z"/>
		<path d="M268.986,168.611c0.994-1.387,1.765-3.208,1.765-5.729c0-2.508-0.756-4.301-1.765-5.688h0.952
			c0.896,1.149,1.835,2.942,1.835,5.701c0,2.746-0.938,4.524-1.835,5.716H268.986z"/>
	</g>
	<g>
		<rect x="68.105" y="143.091" fill="none" width="84.01" height="10.047"/>
		<path d="M69.17,143.716c0.616-0.126,1.499-0.196,2.339-0.196c1.303,0,2.143,0.238,2.731,0.771c0.476,0.42,0.743,1.064,0.743,1.793
			c0,1.246-0.785,2.073-1.779,2.409v0.042c0.729,0.252,1.163,0.925,1.387,1.905c0.308,1.316,0.532,2.228,0.729,2.591h-1.261
			c-0.154-0.266-0.364-1.078-0.63-2.255c-0.28-1.303-0.784-1.793-1.891-1.835h-1.148v4.09H69.17V143.716z M70.389,148.017h1.247
			c1.303,0,2.129-0.715,2.129-1.793c0-1.219-0.883-1.752-2.171-1.766c-0.588,0-1.008,0.057-1.205,0.112V148.017z"/>
		<path d="M83.93,152.611c-0.546,0.196-1.625,0.519-2.899,0.519c-1.429,0-2.605-0.364-3.53-1.247
			c-0.813-0.784-1.316-2.045-1.316-3.516c0.014-2.815,1.947-4.875,5.113-4.875c1.092,0,1.947,0.238,2.353,0.435l-0.294,0.995
			c-0.504-0.225-1.135-0.406-2.087-0.406c-2.297,0-3.796,1.428-3.796,3.795c0,2.396,1.443,3.811,3.642,3.811
			c0.798,0,1.345-0.111,1.625-0.252v-2.815H80.82v-0.98h3.11V152.611z"/>
		<path d="M85.788,143.716c0.532-0.112,1.373-0.196,2.228-0.196c1.218,0,2.003,0.21,2.591,0.687c0.49,0.364,0.784,0.924,0.784,1.667
			c0,0.91-0.602,1.709-1.597,2.073v0.027c0.896,0.225,1.947,0.967,1.947,2.367c0,0.813-0.322,1.43-0.798,1.892
			c-0.658,0.603-1.723,0.882-3.264,0.882c-0.84,0-1.485-0.056-1.891-0.111V143.716z M87.006,147.583h1.106
			c1.289,0,2.045-0.673,2.045-1.583c0-1.106-0.841-1.541-2.073-1.541c-0.561,0-0.882,0.042-1.079,0.084V147.583z M87.006,152.107
			c0.238,0.042,0.588,0.056,1.022,0.056c1.261,0,2.423-0.462,2.423-1.835c0-1.289-1.106-1.82-2.437-1.82h-1.009V152.107z"/>
		<path d="M96.009,143.31c-1.022,1.373-1.765,3.193-1.765,5.729c0,2.494,0.771,4.287,1.765,5.688h-0.966
			c-0.882-1.162-1.835-2.955-1.835-5.688c0.014-2.759,0.953-4.552,1.835-5.729H96.009z"/>
		<path d="M99.593,145.075h-0.028l-1.583,0.854l-0.238-0.938l1.989-1.064h1.051v9.104h-1.191V145.075z"/>
		<path d="M103.693,154.754c0.308-0.827,0.687-2.325,0.84-3.349l1.373-0.14c-0.322,1.19-0.938,2.745-1.331,3.403L103.693,154.754z"
			/>
		<path d="M116.016,148.38c0,3.096-1.148,4.805-3.166,4.805c-1.779,0-2.984-1.666-3.012-4.678c0-3.055,1.316-4.734,3.166-4.734
			C114.923,143.773,116.016,145.481,116.016,148.38z M111.071,148.521c0,2.367,0.729,3.712,1.849,3.712
			c1.261,0,1.863-1.471,1.863-3.796c0-2.241-0.574-3.713-1.849-3.713C111.856,144.724,111.071,146.042,111.071,148.521z"/>
		<path d="M116.74,154.754c0.308-0.827,0.687-2.325,0.84-3.349l1.373-0.14c-0.322,1.19-0.938,2.745-1.331,3.403L116.74,154.754z"/>
		<path d="M129.063,148.38c0,3.096-1.148,4.805-3.166,4.805c-1.779,0-2.984-1.666-3.012-4.678c0-3.055,1.316-4.734,3.166-4.734
			C127.971,143.773,129.063,145.481,129.063,148.38z M124.119,148.521c0,2.367,0.729,3.712,1.849,3.712
			c1.261,0,1.863-1.471,1.863-3.796c0-2.241-0.574-3.713-1.849-3.713C124.903,144.724,124.119,146.042,124.119,148.521z"/>
		<path d="M129.788,154.754c0.308-0.827,0.687-2.325,0.84-3.349l1.373-0.14c-0.322,1.19-0.938,2.745-1.331,3.403L129.788,154.754z"
			/>
		<path d="M136.158,152.302c0-0.518,0.35-0.882,0.84-0.882s0.827,0.364,0.827,0.882c0,0.505-0.322,0.883-0.841,0.883
			C136.494,153.185,136.158,152.807,136.158,152.302z"/>
		<path d="M144.393,144.962h-3.474l-0.35,2.34c0.21-0.028,0.406-0.057,0.742-0.057c0.701,0,1.401,0.154,1.961,0.49
			c0.714,0.406,1.303,1.191,1.303,2.34c0,1.779-1.415,3.109-3.39,3.109c-0.995,0-1.835-0.279-2.269-0.561l0.308-0.938
			c0.378,0.224,1.121,0.504,1.947,0.504c1.163,0,2.157-0.756,2.157-1.975c-0.014-1.178-0.798-2.018-2.619-2.018
			c-0.519,0-0.924,0.057-1.261,0.098l0.588-4.37h4.356V144.962z"/>
		<path d="M145.789,154.726c0.995-1.387,1.765-3.207,1.765-5.729c0-2.508-0.756-4.301-1.765-5.688h0.952
			c0.896,1.148,1.835,2.941,1.835,5.701c0,2.745-0.939,4.524-1.835,5.715H145.789z"/>
	</g>
	<g>
	</g>
	<g>
	</g>
	<g>
	</g>
</g>
</svg>
