<?xml version="1.0" encoding="utf-8"?>
<!-- Generator: Adobe Illustrator 16.0.0, SVG Export Plug-In . SVG Version: 6.00 Build 0)  -->
<!DOCTYPE svg PUBLIC "-//W3C//DTD SVG 1.1//EN" "http://www.w3.org/Graphics/SVG/1.1/DTD/svg11.dtd">
<svg version="1.1" xmlns="http://www.w3.org/2000/svg" xmlns:xlink="http://www.w3.org/1999/xlink" x="0px" y="0px"
	 width="278.714px" height="232.931px" viewBox="0 0 278.714 232.931" enable-background="new 0 0 278.714 232.931"
	 xml:space="preserve">
<pattern  x="-23.976" y="-16.899" width="18.474" height="18.175" patternUnits="userSpaceOnUse" id="New_Pattern_Swatch_3" viewBox="0 -18.175 18.474 18.175" overflow="visible">
	<g>
		<polygon fill="none" points="0,0 18.474,0 18.474,-18.175 0,-18.175 		"/>
		<polygon fill="#E0E0E0" points="9.438,-8.938 0,-8.938 0,-18.175 9.438,-18.175 		"/>
		<polygon fill="#E0E0E0" points="18.474,0 9.036,0 9.036,-9.237 18.474,-9.237 		"/>
	</g>
</pattern>
<g id="Layer_2">
	<rect fill="url(#New_Pattern_Swatch_3)" width="278.714" height="232.931"/>
</g>
<g id="Layer_1">
	<rect x="4.473" y="16.473" fill="#FF0000" width="107.456" height="67.382"/>
	<g>
		<rect x="24.183" y="3" fill="none" width="68.037" height="10.047"/>
		<path d="M25.247,3.625c0.617-0.126,1.499-0.196,2.339-0.196c1.303,0,2.143,0.238,2.731,0.771c0.477,0.42,0.743,1.064,0.743,1.793
			c0,1.247-0.785,2.073-1.779,2.409v0.042c0.729,0.252,1.163,0.925,1.387,1.905c0.308,1.316,0.532,2.227,0.729,2.591h-1.261
			c-0.154-0.266-0.364-1.079-0.63-2.255c-0.28-1.303-0.784-1.793-1.891-1.835h-1.148v4.09h-1.219V3.625z M26.466,7.925h1.247
			c1.303,0,2.129-0.714,2.129-1.793c0-1.219-0.883-1.751-2.171-1.765c-0.588,0-1.008,0.056-1.205,0.112V7.925z"/>
		<path d="M40.007,12.52c-0.546,0.196-1.625,0.519-2.899,0.519c-1.429,0-2.605-0.364-3.53-1.247
			c-0.812-0.785-1.316-2.045-1.316-3.516c0.014-2.815,1.947-4.875,5.113-4.875c1.092,0,1.947,0.238,2.353,0.434L39.433,4.83
			c-0.504-0.224-1.135-0.406-2.087-0.406c-2.297,0-3.796,1.429-3.796,3.796c0,2.396,1.443,3.81,3.642,3.81
			c0.798,0,1.345-0.112,1.625-0.252V8.962h-1.919v-0.98h3.11V12.52z"/>
		<path d="M41.865,3.625c0.532-0.112,1.373-0.196,2.228-0.196c1.218,0,2.003,0.21,2.591,0.687c0.49,0.364,0.784,0.924,0.784,1.667
			c0,0.91-0.602,1.709-1.597,2.073v0.028c0.896,0.224,1.947,0.966,1.947,2.367c0,0.813-0.322,1.429-0.798,1.891
			c-0.658,0.602-1.723,0.882-3.264,0.882c-0.84,0-1.485-0.056-1.891-0.112V3.625z M43.083,7.491h1.106
			c1.289,0,2.045-0.672,2.045-1.583c0-1.106-0.84-1.541-2.073-1.541c-0.56,0-0.882,0.042-1.079,0.084V7.491z M43.083,12.016
			c0.238,0.042,0.588,0.056,1.022,0.056c1.261,0,2.423-0.462,2.423-1.835c0-1.289-1.106-1.821-2.437-1.821h-1.009V12.016z"/>
		<path d="M52.086,3.219c-1.023,1.373-1.765,3.194-1.765,5.729c0,2.493,0.771,4.286,1.765,5.687H51.12
			c-0.882-1.163-1.835-2.956-1.835-5.687c0.014-2.759,0.953-4.552,1.835-5.729H52.086z"/>
		<path d="M55.67,4.984h-0.028l-1.583,0.854l-0.238-0.938l1.989-1.064h1.051v9.105H55.67V4.984z"/>
		<path d="M59.77,14.663c0.308-0.827,0.687-2.326,0.84-3.348l1.373-0.14c-0.322,1.191-0.938,2.746-1.331,3.404L59.77,14.663z"/>
		<path d="M72.093,8.29c0,3.096-1.148,4.805-3.166,4.805c-1.779,0-2.984-1.667-3.012-4.679c0-3.054,1.316-4.734,3.166-4.734
			C71,3.681,72.093,5.39,72.093,8.29z M67.148,8.43c0,2.367,0.729,3.712,1.849,3.712c1.261,0,1.863-1.471,1.863-3.796
			c0-2.241-0.574-3.712-1.849-3.712C67.933,4.633,67.148,5.95,67.148,8.43z"/>
		<path d="M72.817,14.663c0.308-0.827,0.687-2.326,0.84-3.348l1.373-0.14c-0.322,1.191-0.938,2.746-1.331,3.404L72.817,14.663z"/>
		<path d="M85.141,8.29c0,3.096-1.148,4.805-3.166,4.805c-1.779,0-2.984-1.667-3.012-4.679c0-3.054,1.316-4.734,3.166-4.734
			C84.048,3.681,85.141,5.39,85.141,8.29z M80.196,8.43c0,2.367,0.729,3.712,1.849,3.712c1.261,0,1.863-1.471,1.863-3.796
			c0-2.241-0.574-3.712-1.849-3.712C80.98,4.633,80.196,5.95,80.196,8.43z"/>
		<path d="M85.921,14.635c0.995-1.387,1.765-3.208,1.765-5.729c0-2.507-0.756-4.3-1.765-5.687h0.953
			c0.896,1.148,1.835,2.941,1.835,5.701c0,2.745-0.938,4.524-1.835,5.715H85.921z"/>
	</g>
	<rect x="151.947" y="22.393" fill="#0000FF" fill-opacity="0.5" width="78.53" height="41.446"/>
	<g>
		<rect x="150.066" y="6.715" fill="none" width="82.293" height="10.046"/>
		<path d="M151.13,7.34c0.616-0.126,1.499-0.196,2.34-0.196c1.303,0,2.143,0.238,2.731,0.771c0.476,0.42,0.742,1.064,0.742,1.793
			c0,1.247-0.784,2.073-1.779,2.409v0.042c0.729,0.252,1.163,0.925,1.387,1.905c0.309,1.316,0.532,2.227,0.729,2.591h-1.261
			c-0.154-0.266-0.364-1.079-0.63-2.255c-0.28-1.303-0.785-1.793-1.892-1.835h-1.148v4.09h-1.219V7.34z M152.349,11.641h1.247
			c1.303,0,2.129-0.714,2.129-1.793c0-1.219-0.883-1.751-2.171-1.765c-0.589,0-1.009,0.056-1.205,0.112V11.641z"/>
		<path d="M165.89,16.235c-0.546,0.196-1.624,0.519-2.899,0.519c-1.429,0-2.605-0.364-3.529-1.247
			c-0.813-0.785-1.317-2.045-1.317-3.516c0.015-2.815,1.947-4.875,5.113-4.875c1.093,0,1.947,0.238,2.354,0.434l-0.295,0.995
			c-0.504-0.224-1.134-0.406-2.087-0.406c-2.297,0-3.796,1.429-3.796,3.796c0,2.396,1.442,3.81,3.642,3.81
			c0.799,0,1.345-0.112,1.625-0.252v-2.815h-1.919v-0.98h3.109V16.235z"/>
		<path d="M167.749,7.34c0.532-0.112,1.373-0.196,2.228-0.196c1.219,0,2.003,0.21,2.591,0.687c0.49,0.364,0.785,0.924,0.785,1.667
			c0,0.91-0.603,1.709-1.598,2.073v0.028c0.896,0.224,1.947,0.966,1.947,2.367c0,0.813-0.322,1.429-0.798,1.891
			c-0.659,0.602-1.724,0.882-3.264,0.882c-0.841,0-1.485-0.056-1.892-0.112V7.34z M168.967,11.207h1.106
			c1.289,0,2.045-0.672,2.045-1.583c0-1.106-0.84-1.541-2.072-1.541c-0.561,0-0.883,0.042-1.079,0.084V11.207z M168.967,15.731
			c0.238,0.042,0.588,0.056,1.022,0.056c1.261,0,2.424-0.462,2.424-1.835c0-1.289-1.107-1.821-2.438-1.821h-1.009V15.731z"/>
		<path d="M177.97,6.934c-1.022,1.373-1.766,3.194-1.766,5.729c0,2.493,0.771,4.286,1.766,5.687h-0.967
			c-0.883-1.163-1.835-2.956-1.835-5.687c0.014-2.759,0.952-4.552,1.835-5.729H177.97z"/>
		<path d="M184.929,12.005c0,3.096-1.148,4.805-3.166,4.805c-1.778,0-2.983-1.667-3.012-4.679c0-3.054,1.317-4.734,3.166-4.734
			C183.836,7.396,184.929,9.105,184.929,12.005z M179.985,12.145c0,2.367,0.728,3.712,1.849,3.712c1.261,0,1.863-1.471,1.863-3.796
			c0-2.241-0.574-3.712-1.85-3.712C180.769,8.349,179.985,9.666,179.985,12.145z"/>
		<path d="M185.654,18.378c0.308-0.827,0.686-2.326,0.84-3.348l1.373-0.14c-0.322,1.191-0.938,2.746-1.331,3.404L185.654,18.378z"/>
		<path d="M197.976,12.005c0,3.096-1.148,4.805-3.166,4.805c-1.778,0-2.983-1.667-3.012-4.679c0-3.054,1.317-4.734,3.166-4.734
			C196.883,7.396,197.976,9.105,197.976,12.005z M193.032,12.145c0,2.367,0.728,3.712,1.849,3.712c1.261,0,1.863-1.471,1.863-3.796
			c0-2.241-0.574-3.712-1.85-3.712C193.816,8.349,193.032,9.666,193.032,12.145z"/>
		<path d="M198.701,18.378c0.308-0.827,0.686-2.326,0.84-3.348l1.373-0.14c-0.322,1.191-0.938,2.746-1.331,3.404L198.701,18.378z"/>
		<path d="M207.647,8.699h-0.028l-1.582,0.854l-0.238-0.938l1.989-1.064h1.05v9.105h-1.19V8.699z"/>
		<path d="M211.748,18.378c0.308-0.827,0.686-2.326,0.84-3.348l1.373-0.14c-0.322,1.191-0.938,2.746-1.331,3.404L211.748,18.378z"/>
		<path d="M218.117,15.927c0-0.518,0.35-0.882,0.84-0.882c0.491,0,0.827,0.364,0.827,0.882c0,0.504-0.322,0.883-0.841,0.883
			C218.453,16.81,218.117,16.431,218.117,15.927z"/>
		<path d="M226.351,8.587h-3.474l-0.351,2.339c0.21-0.028,0.406-0.056,0.742-0.056c0.7,0,1.401,0.154,1.961,0.49
			c0.715,0.406,1.303,1.191,1.303,2.339c0,1.779-1.414,3.11-3.39,3.11c-0.994,0-1.835-0.28-2.27-0.561l0.309-0.938
			c0.378,0.224,1.12,0.504,1.947,0.504c1.162,0,2.157-0.756,2.157-1.975c-0.015-1.177-0.799-2.017-2.62-2.017
			c-0.518,0-0.924,0.056-1.261,0.098l0.589-4.371h4.356V8.587z"/>
		<path d="M227.748,18.35c0.994-1.387,1.765-3.208,1.765-5.729c0-2.507-0.756-4.3-1.765-5.687h0.952
			c0.896,1.148,1.835,2.941,1.835,5.701c0,2.745-0.938,4.524-1.835,5.715H227.748z"/>
	</g>
	<g>
		<path d="M131.017,40.861v3.063h2.945v0.782h-2.945v3.088h-0.834v-3.088h-2.945v-0.782h2.945v-3.063H131.017z"/>
	</g>
	<g>
		<g>
			<line fill="none" stroke="#000000" stroke-miterlimit="10" x1="130.431" y1="82.615" x2="130.431" y2="135.042"/>
			<g>
				<path d="M130.431,141.077c-1.054-2.84-2.852-6.363-4.756-8.548l4.756,1.721l4.755-1.721
					C133.282,134.713,131.484,138.237,130.431,141.077z"/>
			</g>
		</g>
	</g>
	<rect x="75.864" y="156.544" fill="#FF0000" width="107.457" height="67.383"/>
	<g>
		<rect x="96.422" y="143.184" fill="none" width="86.34" height="10.046"/>
		<path d="M97.487,143.808c0.616-0.126,1.499-0.195,2.339-0.195c1.303,0,2.143,0.237,2.731,0.77
			c0.476,0.421,0.743,1.065,0.743,1.793c0,1.247-0.785,2.073-1.779,2.41v0.042c0.729,0.252,1.163,0.924,1.387,1.904
			c0.308,1.317,0.532,2.228,0.729,2.592h-1.261c-0.154-0.267-0.364-1.078-0.63-2.255c-0.28-1.303-0.784-1.793-1.891-1.835h-1.148
			v4.09h-1.219V143.808z M98.706,148.109h1.247c1.303,0,2.129-0.715,2.129-1.793c0-1.219-0.883-1.751-2.171-1.765
			c-0.588,0-1.008,0.056-1.205,0.111V148.109z"/>
		<path d="M112.247,152.704c-0.546,0.196-1.625,0.518-2.899,0.518c-1.429,0-2.605-0.364-3.53-1.246
			c-0.813-0.784-1.316-2.045-1.316-3.516c0.014-2.816,1.947-4.875,5.113-4.875c1.092,0,1.947,0.238,2.353,0.435l-0.294,0.994
			c-0.504-0.225-1.135-0.406-2.087-0.406c-2.297,0-3.796,1.429-3.796,3.796c0,2.396,1.443,3.811,3.642,3.811
			c0.798,0,1.345-0.112,1.625-0.253v-2.815h-1.919v-0.98h3.11V152.704z"/>
		<path d="M114.104,143.808c0.532-0.111,1.373-0.195,2.228-0.195c1.218,0,2.003,0.21,2.591,0.686
			c0.49,0.364,0.784,0.925,0.784,1.667c0,0.911-0.602,1.709-1.597,2.073v0.028c0.896,0.224,1.947,0.967,1.947,2.367
			c0,0.813-0.322,1.429-0.798,1.891c-0.658,0.603-1.723,0.883-3.264,0.883c-0.84,0-1.485-0.056-1.891-0.112V143.808z
			 M115.323,147.674h1.106c1.289,0,2.045-0.672,2.045-1.583c0-1.106-0.841-1.54-2.073-1.54c-0.561,0-0.882,0.042-1.079,0.084
			V147.674z M115.323,152.199c0.238,0.042,0.588,0.057,1.022,0.057c1.261,0,2.423-0.463,2.423-1.835
			c0-1.289-1.106-1.821-2.437-1.821h-1.009V152.199z"/>
		<path d="M124.326,143.402c-1.022,1.373-1.765,3.194-1.765,5.729c0,2.493,0.771,4.286,1.765,5.688h-0.966
			c-0.882-1.163-1.835-2.956-1.835-5.688c0.014-2.76,0.953-4.553,1.835-5.729H124.326z"/>
		<path d="M127.91,145.167h-0.028l-1.583,0.854l-0.238-0.938l1.989-1.064h1.051v9.104h-1.191V145.167z"/>
		<path d="M132.01,154.846c0.308-0.826,0.687-2.325,0.84-3.348l1.373-0.14c-0.322,1.19-0.938,2.745-1.331,3.403L132.01,154.846z"/>
		<path d="M144.333,148.473c0,3.096-1.148,4.805-3.166,4.805c-1.779,0-2.984-1.667-3.012-4.679c0-3.054,1.316-4.734,3.166-4.734
			C143.24,143.865,144.333,145.574,144.333,148.473z M139.388,148.613c0,2.367,0.729,3.712,1.849,3.712
			c1.261,0,1.863-1.471,1.863-3.796c0-2.241-0.574-3.712-1.849-3.712C140.173,144.817,139.388,146.133,139.388,148.613z"/>
		<path d="M145.057,154.846c0.308-0.826,0.687-2.325,0.84-3.348l1.373-0.14c-0.322,1.19-0.938,2.745-1.331,3.403L145.057,154.846z"
			/>
		<path d="M157.38,148.473c0,3.096-1.148,4.805-3.166,4.805c-1.778,0-2.983-1.667-3.012-4.679c0-3.054,1.317-4.734,3.166-4.734
			C156.288,143.865,157.38,145.574,157.38,148.473z M152.436,148.613c0,2.367,0.729,3.712,1.849,3.712
			c1.261,0,1.863-1.471,1.863-3.796c0-2.241-0.574-3.712-1.85-3.712C153.22,144.817,152.436,146.133,152.436,148.613z"/>
		<path d="M158.161,154.819c0.994-1.387,1.765-3.208,1.765-5.729c0-2.508-0.756-4.301-1.765-5.688h0.952
			c0.896,1.149,1.835,2.942,1.835,5.701c0,2.746-0.938,4.524-1.835,5.716H158.161z"/>
	</g>
	<rect x="90.328" y="169.512" opacity="0.5" fill="#0000FF" width="78.529" height="41.446"/>
	<g>
		<g>
			<path fill="none" stroke="#000000" stroke-miterlimit="10" d="M210.723,169.512c0,12.35-15.264,22.554-35.177,24.29"/>
			<g>
				<path d="M169.514,194.063c2.781-1.199,6.207-3.177,8.29-5.191l-1.472,4.838l1.964,4.66
					C176.016,196.581,172.405,194.967,169.514,194.063z"/>
			</g>
		</g>
	</g>
	<g>
		<rect x="184.457" y="156.976" fill="none" width="96.75" height="10.047"/>
		<path d="M185.521,157.6c0.616-0.126,1.499-0.195,2.34-0.195c1.302,0,2.143,0.237,2.731,0.771c0.476,0.42,0.742,1.064,0.742,1.793
			c0,1.246-0.784,2.072-1.779,2.409v0.042c0.729,0.252,1.163,0.924,1.387,1.904c0.309,1.317,0.532,2.228,0.729,2.592h-1.261
			c-0.154-0.267-0.364-1.078-0.63-2.255c-0.28-1.303-0.785-1.793-1.892-1.835h-1.148v4.09h-1.219V157.6z M186.74,161.901h1.247
			c1.303,0,2.129-0.715,2.129-1.793c0-1.219-0.883-1.751-2.171-1.765c-0.589,0-1.009,0.056-1.205,0.111V161.901z"/>
		<path d="M200.281,166.496c-0.546,0.195-1.624,0.518-2.899,0.518c-1.429,0-2.605-0.364-3.529-1.246
			c-0.813-0.784-1.317-2.045-1.317-3.516c0.015-2.816,1.947-4.875,5.113-4.875c1.093,0,1.947,0.238,2.354,0.435l-0.295,0.994
			c-0.504-0.225-1.134-0.406-2.087-0.406c-2.297,0-3.796,1.429-3.796,3.796c0,2.396,1.442,3.811,3.642,3.811
			c0.799,0,1.345-0.112,1.625-0.253v-2.815h-1.919v-0.98h3.109V166.496z"/>
		<path d="M202.139,157.6c0.532-0.111,1.373-0.195,2.228-0.195c1.219,0,2.003,0.21,2.591,0.686c0.49,0.364,0.785,0.925,0.785,1.667
			c0,0.911-0.603,1.709-1.598,2.073v0.028c0.896,0.224,1.947,0.967,1.947,2.367c0,0.813-0.322,1.429-0.798,1.891
			c-0.659,0.603-1.724,0.883-3.264,0.883c-0.841,0-1.485-0.056-1.892-0.112V157.6z M203.358,161.466h1.106
			c1.289,0,2.045-0.672,2.045-1.583c0-1.106-0.84-1.54-2.073-1.54c-0.56,0-0.882,0.042-1.078,0.084V161.466z M203.358,165.991
			c0.238,0.042,0.588,0.057,1.022,0.057c1.261,0,2.424-0.463,2.424-1.835c0-1.289-1.107-1.821-2.438-1.821h-1.009V165.991z"/>
		<path d="M212.361,157.194c-1.022,1.373-1.766,3.194-1.766,5.729c0,2.493,0.771,4.286,1.766,5.688h-0.967
			c-0.883-1.163-1.835-2.956-1.835-5.688c0.014-2.76,0.952-4.553,1.835-5.729H212.361z"/>
		<path d="M213.367,166.187c0-0.519,0.35-0.883,0.841-0.883c0.49,0,0.826,0.364,0.826,0.883c0,0.504-0.322,0.883-0.841,0.883
			C213.703,167.07,213.367,166.691,213.367,166.187z"/>
		<path d="M221.601,158.847h-3.474l-0.351,2.339c0.21-0.027,0.406-0.056,0.742-0.056c0.7,0,1.401,0.154,1.961,0.49
			c0.715,0.406,1.303,1.19,1.303,2.339c0,1.779-1.414,3.11-3.39,3.11c-0.994,0-1.835-0.28-2.27-0.561l0.309-0.938
			c0.378,0.224,1.121,0.504,1.947,0.504c1.162,0,2.157-0.756,2.157-1.975c-0.015-1.177-0.799-2.018-2.62-2.018
			c-0.518,0-0.924,0.057-1.26,0.099l0.588-4.37h4.356V158.847z"/>
		<path d="M222.942,168.638c0.308-0.826,0.686-2.325,0.84-3.348l1.373-0.14c-0.322,1.19-0.938,2.745-1.331,3.403L222.942,168.638z"
			/>
		<path d="M235.264,162.265c0,3.096-1.148,4.805-3.166,4.805c-1.778,0-2.983-1.667-3.012-4.679c0-3.054,1.317-4.734,3.166-4.734
			C234.171,157.657,235.264,159.366,235.264,162.265z M230.32,162.405c0,2.367,0.728,3.712,1.849,3.712
			c1.261,0,1.863-1.471,1.863-3.796c0-2.241-0.574-3.712-1.85-3.712C231.104,158.609,230.32,159.925,230.32,162.405z"/>
		<path d="M235.989,168.638c0.308-0.826,0.686-2.325,0.84-3.348l1.373-0.14c-0.322,1.19-0.938,2.745-1.331,3.403L235.989,168.638z"
			/>
		<path d="M242.358,166.187c0-0.519,0.35-0.883,0.84-0.883c0.491,0,0.827,0.364,0.827,0.883c0,0.504-0.322,0.883-0.841,0.883
			C242.694,167.07,242.358,166.691,242.358,166.187z"/>
		<path d="M250.592,158.847h-3.474l-0.351,2.339c0.21-0.027,0.406-0.056,0.742-0.056c0.7,0,1.401,0.154,1.961,0.49
			c0.715,0.406,1.303,1.19,1.303,2.339c0,1.779-1.414,3.11-3.39,3.11c-0.994,0-1.835-0.28-2.27-0.561l0.309-0.938
			c0.378,0.224,1.12,0.504,1.947,0.504c1.162,0,2.157-0.756,2.157-1.975c-0.015-1.177-0.799-2.018-2.62-2.018
			c-0.518,0-0.924,0.057-1.261,0.099l0.589-4.37h4.356V158.847z"/>
		<path d="M251.989,168.611c0.994-1.387,1.765-3.208,1.765-5.729c0-2.508-0.756-4.301-1.765-5.688h0.952
			c0.896,1.149,1.835,2.942,1.835,5.701c0,2.746-0.938,4.524-1.835,5.716H251.989z"/>
	</g>
	<g>
	</g>
	<g>
	</g>
	<g>
	</g>
</g>
</svg>
