<svg xmlns="http://www.w3.org/2000/svg" fill="#333" width="180" height="20">
	<g transform="translate(0,0)">
		<circle cy="10" cx="10" r="10" fill-opacity=".1"/>
	</g>
	<g transform="translate(20,0)">
		<circle cy="10" cx="10" r="10" fill-opacity=".1"/>
		<path d="M 10 0 A 10,10 0 0,1 17,3 L 10,10 z"/>
	</g>
	<g transform="translate(40,0)">
		<circle cy="10" cx="10" r="10" fill-opacity=".1"/>
		<path d="M 10 0 A 10,10 0 0,1 20,10 L 10,10 z"/>
	</g>
	<g transform="translate(60,0)">
		<circle cy="10" cx="10" r="10" fill-opacity=".1"/>
		<path d="M 10 0 A 10,10 0 0,1 17,17 L 10,10 z"/>
	</g>
	<g transform="translate(80,0)">
		<circle cy="10" cx="10" r="10" fill-opacity=".1"/>
		<path d="M 10 0 A 10,10 0 0,1 10,20 L 10,10 z"/>
	</g>
	<g transform="translate(100,0)">
		<circle cy="10" cx="10" r="10" fill-opacity=".1"/>
		<path d="M 10 0 A 10,10 0 1,1 3,17 L 10,10 z"/>
	</g>
	<g transform="translate(120,0)">
		<circle cy="10" cx="10" r="10" fill-opacity=".1"/>
		<path d="M 10 0 A 10,10 0 1,1 0,10 L 10,10 z"/>
	</g>
	<g transform="translate(140,0)">
		<circle cy="10" cx="10" r="10" fill-opacity=".1"/>
		<path d="M 10 0 A 10,10 0 1,1 3,3 L 10,10 z"/>
	</g>
	<g transform="translate(160,0)">
		<circle class="f" cx="10" cy="10" r="10"/>
	</g>
</svg>