<?xml version="1.0" encoding="utf-8"?>
<!-- Generator: Adobe Illustrator 17.1.0, SVG Export Plug-In . SVG Version: 6.00 Build 0)  -->
<!DOCTYPE svg PUBLIC "-//W3C//DTD SVG 1.1//EN" "http://www.w3.org/Graphics/SVG/1.1/DTD/svg11.dtd">
<svg version="1.1" id="Layer_1" xmlns="http://www.w3.org/2000/svg" xmlns:xlink="http://www.w3.org/1999/xlink" x="0px" y="0px"
	 viewBox="0 0 333.1 295.5" enable-background="new 0 0 333.1 295.5" xml:space="preserve">
<rect x="220.5" y="0.5" fill="#FFFFFF" stroke="#000000" stroke-miterlimit="10" width="112.1" height="294.5"/>
<g>
	<rect x="230.3" y="10.4" fill="none" stroke="#000000" stroke-miterlimit="10" width="92.5" height="55.6"/>
	<g>
		<g>
			<line fill="none" stroke="#000000" stroke-miterlimit="10" x1="239.1" y1="22.3" x2="305.4" y2="22.3"/>
			<g>
				<path d="M311.4,22.3c-2.8,1.1-6.4,2.9-8.5,4.8l1.7-4.8l-1.7-4.8C305.1,19.5,308.6,21.3,311.4,22.3z"/>
			</g>
		</g>
	</g>
	<g>
		<g>
			<line fill="none" stroke="#000000" stroke-miterlimit="10" x1="239.1" y1="37.3" x2="305.4" y2="37.3"/>
			<g>
				<path d="M311.4,37.3c-2.8,1.1-6.4,2.9-8.5,4.8l1.7-4.8l-1.7-4.8C305.1,34.5,308.6,36.3,311.4,37.3z"/>
			</g>
		</g>
	</g>
	<g>
		<g>
			<line fill="none" stroke="#000000" stroke-miterlimit="10" x1="239.1" y1="52.3" x2="305.4" y2="52.3"/>
			<g>
				<path d="M311.4,52.3c-2.8,1.1-6.4,2.9-8.5,4.8l1.7-4.8l-1.7-4.8C305.1,49.5,308.6,51.3,311.4,52.3z"/>
			</g>
		</g>
	</g>
</g>
<rect x="230.3" y="78" fill="none" stroke="#000000" stroke-miterlimit="10" width="92.5" height="122.2"/>
<g>
	<g>
		<line fill="none" stroke="#000000" stroke-miterlimit="10" x1="314.4" y1="86.5" x2="314.4" y2="128"/>
		<g>
			<path d="M314.4,134c-1.1-2.8-2.9-6.4-4.8-8.5l4.8,1.7l4.8-1.7C317.3,127.6,315.5,131.2,314.4,134z"/>
		</g>
	</g>
</g>
<g>
	<g>
		<line fill="none" stroke="#000000" stroke-miterlimit="10" x1="299.4" y1="86.5" x2="299.4" y2="128"/>
		<g>
			<path d="M299.4,134c-1.1-2.8-2.9-6.4-4.8-8.5l4.8,1.7l4.8-1.7C302.3,127.6,300.5,131.2,299.4,134z"/>
		</g>
	</g>
</g>
<g>
	<g>
		<line fill="none" stroke="#000000" stroke-miterlimit="10" x1="284.4" y1="86.5" x2="284.4" y2="128"/>
		<g>
			<path d="M284.4,134c-1.1-2.8-2.9-6.4-4.8-8.5l4.8,1.7l4.8-1.7C287.3,127.6,285.5,131.2,284.4,134z"/>
		</g>
	</g>
</g>
<g>
	<g>
		<line fill="none" stroke="#000000" stroke-miterlimit="10" x1="269.4" y1="86.5" x2="269.4" y2="128"/>
		<g>
			<path d="M269.4,134c-1.1-2.8-2.9-6.4-4.8-8.5l4.8,1.7l4.8-1.7C272.3,127.6,270.5,131.2,269.4,134z"/>
		</g>
	</g>
</g>
<g>
	<g>
		<line fill="none" stroke="#000000" stroke-miterlimit="10" x1="254.4" y1="86.5" x2="254.4" y2="128"/>
		<g>
			<path d="M254.4,134c-1.1-2.8-2.9-6.4-4.8-8.5l4.8,1.7l4.8-1.7C257.3,127.6,255.5,131.2,254.4,134z"/>
		</g>
	</g>
</g>
<g>
	<g>
		<line fill="none" stroke="#000000" stroke-miterlimit="10" x1="239.4" y1="86.5" x2="239.4" y2="128"/>
		<g>
			<path d="M239.4,134c-1.1-2.8-2.9-6.4-4.8-8.5l4.8,1.7l4.8-1.7C242.3,127.6,240.5,131.2,239.4,134z"/>
		</g>
	</g>
</g>
<g>
	<g>
		<line fill="none" stroke="#000000" stroke-miterlimit="10" x1="314.4" y1="146.5" x2="314.4" y2="188"/>
		<g>
			<path d="M314.4,194c-1.1-2.8-2.9-6.4-4.8-8.5l4.8,1.7l4.8-1.7C317.3,187.6,315.5,191.2,314.4,194z"/>
		</g>
	</g>
</g>
<g>
	<g>
		<line fill="none" stroke="#000000" stroke-miterlimit="10" x1="299.4" y1="146.5" x2="299.4" y2="188"/>
		<g>
			<path d="M299.4,194c-1.1-2.8-2.9-6.4-4.8-8.5l4.8,1.7l4.8-1.7C302.3,187.6,300.5,191.2,299.4,194z"/>
		</g>
	</g>
</g>
<g>
	<g>
		<line fill="none" stroke="#000000" stroke-miterlimit="10" x1="284.4" y1="146.5" x2="284.4" y2="188"/>
		<g>
			<path d="M284.4,194c-1.1-2.8-2.9-6.4-4.8-8.5l4.8,1.7l4.8-1.7C287.3,187.6,285.5,191.2,284.4,194z"/>
		</g>
	</g>
</g>
<g>
	<g>
		<line fill="none" stroke="#000000" stroke-miterlimit="10" x1="269.4" y1="146.5" x2="269.4" y2="188"/>
		<g>
			<path d="M269.4,194c-1.1-2.8-2.9-6.4-4.8-8.5l4.8,1.7l4.8-1.7C272.3,187.6,270.5,191.2,269.4,194z"/>
		</g>
	</g>
</g>
<g>
	<g>
		<line fill="none" stroke="#000000" stroke-miterlimit="10" x1="254.4" y1="146.5" x2="254.4" y2="188"/>
		<g>
			<path d="M254.4,194c-1.1-2.8-2.9-6.4-4.8-8.5l4.8,1.7l4.8-1.7C257.3,187.6,255.5,191.2,254.4,194z"/>
		</g>
	</g>
</g>
<g>
	<g>
		<line fill="none" stroke="#000000" stroke-miterlimit="10" x1="239.4" y1="146.5" x2="239.4" y2="188"/>
		<g>
			<path d="M239.4,194c-1.1-2.8-2.9-6.4-4.8-8.5l4.8,1.7l4.8-1.7C242.3,187.6,240.5,191.2,239.4,194z"/>
		</g>
	</g>
</g>
<rect x="230.3" y="212.3" fill="none" stroke="#000000" stroke-miterlimit="10" width="92.5" height="71.5"/>
<g>
	<g>
		<line fill="none" stroke="#000000" stroke-miterlimit="10" x1="239.1" y1="240.1" x2="305.4" y2="240.1"/>
		<g>
			<path d="M311.4,240.1c-2.8,1.1-6.4,2.9-8.5,4.8l1.7-4.8l-1.7-4.8C305.1,237.2,308.6,239,311.4,240.1z"/>
		</g>
	</g>
</g>
<g>
	<g>
		<line fill="none" stroke="#000000" stroke-miterlimit="10" x1="239.1" y1="255.1" x2="305.4" y2="255.1"/>
		<g>
			<path d="M311.4,255.1c-2.8,1.1-6.4,2.9-8.5,4.8l1.7-4.8l-1.7-4.8C305.1,252.2,308.6,254,311.4,255.1z"/>
		</g>
	</g>
</g>
<g>
	<g>
		<line fill="none" stroke="#000000" stroke-miterlimit="10" x1="239.1" y1="270.1" x2="305.4" y2="270.1"/>
		<g>
			<path d="M311.4,270.1c-2.8,1.1-6.4,2.9-8.5,4.8l1.7-4.8l-1.7-4.8C305.1,267.2,308.6,269,311.4,270.1z"/>
		</g>
	</g>
</g>
<rect x="0.5" y="0.5" fill="#FFFFFF" stroke="#000000" stroke-miterlimit="10" width="112.1" height="294.5"/>
<g>
	<rect x="10.3" y="10.4" fill="none" stroke="#000000" stroke-miterlimit="10" width="92.5" height="55.6"/>
	<g>
		<g>
			<line fill="none" stroke="#000000" stroke-miterlimit="10" x1="19.1" y1="22.3" x2="85.4" y2="22.3"/>
			<g>
				<path d="M91.4,22.3c-2.8,1.1-6.4,2.9-8.5,4.8l1.7-4.8l-1.7-4.8C85.1,19.5,88.6,21.3,91.4,22.3z"/>
			</g>
		</g>
	</g>
	<g>
		<g>
			<line fill="none" stroke="#000000" stroke-miterlimit="10" x1="19.1" y1="37.3" x2="85.4" y2="37.3"/>
			<g>
				<path d="M91.4,37.3c-2.8,1.1-6.4,2.9-8.5,4.8l1.7-4.8l-1.7-4.8C85.1,34.5,88.6,36.3,91.4,37.3z"/>
			</g>
		</g>
	</g>
	<g>
		<g>
			<line fill="none" stroke="#000000" stroke-miterlimit="10" x1="19.1" y1="52.3" x2="85.4" y2="52.3"/>
			<g>
				<path d="M91.4,52.3c-2.8,1.1-6.4,2.9-8.5,4.8l1.7-4.8l-1.7-4.8C85.1,49.5,88.6,51.3,91.4,52.3z"/>
			</g>
		</g>
	</g>
</g>
<g>
	<rect x="10.3" y="153" fill="none" stroke="#000000" stroke-miterlimit="10" width="92.5" height="130.8"/>
	<g>
		<g>
			<line fill="none" stroke="#000000" stroke-miterlimit="10" x1="19.1" y1="240.1" x2="85.4" y2="240.1"/>
			<g>
				<path d="M91.4,240.1c-2.8,1.1-6.4,2.9-8.5,4.8l1.7-4.8l-1.7-4.8C85.1,237.2,88.6,239,91.4,240.1z"/>
			</g>
		</g>
	</g>
	<g>
		<g>
			<line fill="none" stroke="#000000" stroke-miterlimit="10" x1="19.1" y1="225.1" x2="85.4" y2="225.1"/>
			<g>
				<path d="M91.4,225.1c-2.8,1.1-6.4,2.9-8.5,4.8l1.7-4.8l-1.7-4.8C85.1,222.2,88.6,224,91.4,225.1z"/>
			</g>
		</g>
	</g>
	<g>
		<g>
			<line fill="none" stroke="#000000" stroke-miterlimit="10" x1="19.1" y1="210.1" x2="85.4" y2="210.1"/>
			<g>
				<path d="M91.4,210.1c-2.8,1.1-6.4,2.9-8.5,4.8l1.7-4.8l-1.7-4.8C85.1,207.2,88.6,209,91.4,210.1z"/>
			</g>
		</g>
	</g>
	<g>
		<g>
			<line fill="none" stroke="#000000" stroke-miterlimit="10" x1="19.1" y1="195.1" x2="85.4" y2="195.1"/>
			<g>
				<path d="M91.4,195.1c-2.8,1.1-6.4,2.9-8.5,4.8l1.7-4.8l-1.7-4.8C85.1,192.2,88.6,194,91.4,195.1z"/>
			</g>
		</g>
	</g>
	<g>
		<g>
			<line fill="none" stroke="#000000" stroke-miterlimit="10" x1="19.1" y1="180.1" x2="85.4" y2="180.1"/>
			<g>
				<path d="M91.4,180.1c-2.8,1.1-6.4,2.9-8.5,4.8l1.7-4.8l-1.7-4.8C85.1,177.2,88.6,179,91.4,180.1z"/>
			</g>
		</g>
	</g>
	<g>
		<g>
			<line fill="none" stroke="#000000" stroke-miterlimit="10" x1="19.1" y1="165.1" x2="85.4" y2="165.1"/>
			<g>
				<path d="M91.4,165.1c-2.8,1.1-6.4,2.9-8.5,4.8l1.7-4.8l-1.7-4.8C85.1,162.2,88.6,164,91.4,165.1z"/>
			</g>
		</g>
	</g>
	<g>
		<g>
			<line fill="none" stroke="#000000" stroke-miterlimit="10" x1="19.1" y1="255.1" x2="85.4" y2="255.1"/>
			<g>
				<path d="M91.4,255.1c-2.8,1.1-6.4,2.9-8.5,4.8l1.7-4.8l-1.7-4.8C85.1,252.2,88.6,254,91.4,255.1z"/>
			</g>
		</g>
	</g>
	<g>
		<g>
			<line fill="none" stroke="#000000" stroke-miterlimit="10" x1="19.1" y1="270.1" x2="85.4" y2="270.1"/>
			<g>
				<path d="M91.4,270.1c-2.8,1.1-6.4,2.9-8.5,4.8l1.7-4.8l-1.7-4.8C85.1,267.2,88.6,269,91.4,270.1z"/>
			</g>
		</g>
	</g>
</g>
<g>
	<rect x="9.7" y="78" fill="#FFFFFF" stroke="#000000" stroke-miterlimit="10" width="186.2" height="64.5"/>
	<g>
		<line fill="#FFFFFF" x1="183.9" y1="86.5" x2="183.9" y2="134"/>
		<g>
			<line fill="none" stroke="#000000" stroke-miterlimit="10" x1="183.9" y1="86.5" x2="183.9" y2="128"/>
			<g>
				<path d="M183.9,134c-1.1-2.8-2.9-6.4-4.8-8.5l4.8,1.7l4.8-1.7C186.7,127.6,184.9,131.2,183.9,134z"/>
			</g>
		</g>
	</g>
	<g>
		<line fill="#FFFFFF" x1="168.9" y1="86.5" x2="168.9" y2="134"/>
		<g>
			<line fill="none" stroke="#000000" stroke-miterlimit="10" x1="168.9" y1="86.5" x2="168.9" y2="128"/>
			<g>
				<path d="M168.9,134c-1.1-2.8-2.9-6.4-4.8-8.5l4.8,1.7l4.8-1.7C171.7,127.6,169.9,131.2,168.9,134z"/>
			</g>
		</g>
	</g>
	<g>
		<line fill="#FFFFFF" x1="153.9" y1="86.5" x2="153.9" y2="134"/>
		<g>
			<line fill="none" stroke="#000000" stroke-miterlimit="10" x1="153.9" y1="86.5" x2="153.9" y2="128"/>
			<g>
				<path d="M153.9,134c-1.1-2.8-2.9-6.4-4.8-8.5l4.8,1.7l4.8-1.7C156.7,127.6,154.9,131.2,153.9,134z"/>
			</g>
		</g>
	</g>
	<g>
		<line fill="#FFFFFF" x1="138.9" y1="86.5" x2="138.9" y2="134"/>
		<g>
			<line fill="none" stroke="#000000" stroke-miterlimit="10" x1="138.9" y1="86.5" x2="138.9" y2="128"/>
			<g>
				<path d="M138.9,134c-1.1-2.8-2.9-6.4-4.8-8.5l4.8,1.7l4.8-1.7C141.7,127.6,139.9,131.2,138.9,134z"/>
			</g>
		</g>
	</g>
	<g>
		<line fill="#FFFFFF" x1="123.9" y1="86.5" x2="123.9" y2="134"/>
		<g>
			<line fill="none" stroke="#000000" stroke-miterlimit="10" x1="123.9" y1="86.5" x2="123.9" y2="128"/>
			<g>
				<path d="M123.9,134c-1.1-2.8-2.9-6.4-4.8-8.5l4.8,1.7l4.8-1.7C126.7,127.6,124.9,131.2,123.9,134z"/>
			</g>
		</g>
	</g>
	<g>
		<line fill="#FFFFFF" x1="108.9" y1="86.5" x2="108.9" y2="134"/>
		<g>
			<line fill="none" stroke="#000000" stroke-miterlimit="10" x1="108.9" y1="86.5" x2="108.9" y2="128"/>
			<g>
				<path d="M108.9,134c-1.1-2.8-2.9-6.4-4.8-8.5l4.8,1.7l4.8-1.7C111.7,127.6,109.9,131.2,108.9,134z"/>
			</g>
		</g>
	</g>
	<g>
		<line fill="#FFFFFF" x1="93.9" y1="86.5" x2="93.9" y2="134"/>
		<g>
			<line fill="none" stroke="#000000" stroke-miterlimit="10" x1="93.9" y1="86.5" x2="93.9" y2="128"/>
			<g>
				<path d="M93.9,134c-1.1-2.8-2.9-6.4-4.8-8.5l4.8,1.7l4.8-1.7C96.7,127.6,94.9,131.2,93.9,134z"/>
			</g>
		</g>
	</g>
	<g>
		<line fill="#FFFFFF" x1="78.9" y1="86.5" x2="78.9" y2="134"/>
		<g>
			<line fill="none" stroke="#000000" stroke-miterlimit="10" x1="78.9" y1="86.5" x2="78.9" y2="128"/>
			<g>
				<path d="M78.9,134c-1.1-2.8-2.9-6.4-4.8-8.5l4.8,1.7l4.8-1.7C81.7,127.6,79.9,131.2,78.9,134z"/>
			</g>
		</g>
	</g>
	<g>
		<line fill="#FFFFFF" x1="63.9" y1="86.5" x2="63.9" y2="134"/>
		<g>
			<line fill="none" stroke="#000000" stroke-miterlimit="10" x1="63.9" y1="86.5" x2="63.9" y2="128"/>
			<g>
				<path d="M63.9,134c-1.1-2.8-2.9-6.4-4.8-8.5l4.8,1.7l4.8-1.7C66.7,127.6,64.9,131.2,63.9,134z"/>
			</g>
		</g>
	</g>
	<g>
		<line fill="#FFFFFF" x1="48.9" y1="86.5" x2="48.9" y2="134"/>
		<g>
			<line fill="none" stroke="#000000" stroke-miterlimit="10" x1="48.9" y1="86.5" x2="48.9" y2="128"/>
			<g>
				<path d="M48.9,134c-1.1-2.8-2.9-6.4-4.8-8.5l4.8,1.7l4.8-1.7C51.7,127.6,49.9,131.2,48.9,134z"/>
			</g>
		</g>
	</g>
	<g>
		<line fill="#FFFFFF" x1="33.9" y1="86.5" x2="33.9" y2="134"/>
		<g>
			<line fill="none" stroke="#000000" stroke-miterlimit="10" x1="33.9" y1="86.5" x2="33.9" y2="128"/>
			<g>
				<path d="M33.9,134c-1.1-2.8-2.9-6.4-4.8-8.5l4.8,1.7l4.8-1.7C36.7,127.6,34.9,131.2,33.9,134z"/>
			</g>
		</g>
	</g>
	<g>
		<line fill="#FFFFFF" x1="18.9" y1="86.5" x2="18.9" y2="134"/>
		<g>
			<line fill="none" stroke="#000000" stroke-miterlimit="10" x1="18.9" y1="86.5" x2="18.9" y2="128"/>
			<g>
				<path d="M18.9,134c-1.1-2.8-2.9-6.4-4.8-8.5l4.8,1.7l4.8-1.7C21.7,127.6,19.9,131.2,18.9,134z"/>
			</g>
		</g>
	</g>
</g>
<g>
	<g>
		<line fill="none" stroke="#000000" stroke-miterlimit="10" x1="239.1" y1="225.3" x2="305.4" y2="225.3"/>
		<g>
			<path d="M311.4,225.3c-2.8,1.1-6.4,2.9-8.5,4.8l1.7-4.8l-1.7-4.8C305.1,222.4,308.6,224.2,311.4,225.3z"/>
		</g>
	</g>
</g>
</svg>
