<?xml version="1.0" encoding="UTF-8" standalone="no"?>
<!-- Creator: CorelDRAW -->

<svg
   xmlns:dc="http://purl.org/dc/elements/1.1/"
   xmlns:cc="http://creativecommons.org/ns#"
   xmlns:rdf="http://www.w3.org/1999/02/22-rdf-syntax-ns#"
   xmlns:svg="http://www.w3.org/2000/svg"
   xmlns="http://www.w3.org/2000/svg"
   xmlns:inkscape="http://www.inkscape.org/namespaces/inkscape"
   xml:space="preserve"
   shape-rendering="geometricPrecision"
   text-rendering="geometricPrecision"
   image-rendering="optimizeQuality"
   clip-rule="evenodd"
   viewBox="0 0 152.125 225.73628"
   id="svg3603"
   version="1.1"
   inkscape:version="0.48.0 r9654"
   width="100%"
   height="100%"
   style="fill-rule:evenodd"><metadata
   id="metadata3667"><rdf:RDF><cc:Work
       rdf:about=""><dc:format>image/svg+xml</dc:format><dc:type
         rdf:resource="http://purl.org/dc/dcmitype/StillImage" /></cc:Work></rdf:RDF></metadata>
 <defs
   id="defs3605">
   <linearGradient
   id="id0"
   gradientUnits="userSpaceOnUse"
   x1="81.314499"
   y1="52.247601"
   x2="81.314499"
   y2="8.6392698"
   gradientTransform="translate(0,16)">
    <stop
   offset="0"
   stop-color="white"
   id="stop3608" />
    <stop
   offset="1"
   stop-color="dodgerblue"
   id="stop3610" />
   </linearGradient>
   <linearGradient
   id="id1"
   gradientUnits="userSpaceOnUse"
   x1="49.7705"
   y1="51.949799"
   x2="49.7705"
   y2="8.3414402"
   gradientTransform="translate(0,16)">
    <stop
   offset="0"
   stop-color="white"
   id="stop3613" />
    <stop
   offset="1"
   stop-color="dodgerblue"
   id="stop3615" />
   </linearGradient>
   <linearGradient
   id="id2"
   gradientUnits="userSpaceOnUse"
   x1="21.2418"
   y1="52.102501"
   x2="21.2418"
   y2="8.4941397"
   gradientTransform="translate(0,16)">
    <stop
   offset="0"
   stop-color="white"
   id="stop3618" />
    <stop
   offset="1"
   stop-color="dodgerblue"
   id="stop3620" />
   </linearGradient>
   <linearGradient
   id="id3"
   gradientUnits="userSpaceOnUse"
   x1="130.47301"
   y1="71.970703"
   x2="130.47301"
   y2="28.3624"
   gradientTransform="translate(0,16)">
    <stop
   offset="0"
   stop-color="white"
   id="stop3623" />
    <stop
   offset="1"
   stop-color="dodgerblue"
   id="stop3625" />
   </linearGradient>
   <linearGradient
   id="id4"
   gradientUnits="userSpaceOnUse"
   x1="130.205"
   y1="122.623"
   x2="130.205"
   y2="79.014297"
   gradientTransform="translate(0,16)">
    <stop
   offset="0"
   stop-color="white"
   id="stop3628" />
    <stop
   offset="1"
   stop-color="dodgerblue"
   id="stop3630" />
   </linearGradient>
   <linearGradient
   id="id5"
   gradientUnits="userSpaceOnUse"
   x1="130.69299"
   y1="172.39799"
   x2="130.69299"
   y2="128.789"
   gradientTransform="translate(0,16)">
    <stop
   offset="0"
   stop-color="white"
   id="stop3633" />
    <stop
   offset="1"
   stop-color="dodgerblue"
   id="stop3635" />
   </linearGradient>
 </defs>
 <g
   id="Layer_x0020_1"
   transform="translate(0.09375,3.1321204)">
  <metadata
   id="CorelCorpID_0Corel-Layer" />
  <line
   x1="49.8778"
   y1="7.8906202"
   x2="49.883099"
   y2="196.00101"
   id="line3639"
   style="fill:none;stroke:#000000;stroke-width:2.00012994" />
  <line
   x1="130.59047"
   y1="6.8678761"
   x2="130.59753"
   y2="195.24709"
   id="line3641"
   style="fill:none;stroke:#000000;stroke-width:2.01673055" />
  <path
   d="M 92.35,68.2476 92.3553,38.2456 81.3198,24.6393 70.279,38.2305 70.2737,68.2325 92.35,68.24762 z M 92.353,53.2459 M 86.8379,31.4425 M 75.7994,31.4349 M 70.27598,53.2307 M 81.31228,68.24"
   id="path3643"
   style="fill:url(#id0);fill-rule:nonzero;stroke:#87cefa;stroke-width:0.576002"
   inkscape:connector-curvature="0" />
  <path
   d="M 60.806,67.9498 60.8113,37.9478 49.7758,24.3415 38.735,37.9327 38.7297,67.9347 60.806,67.94982 z M 60.809,52.9481 M 55.2939,31.1447 M 44.2554,31.1371 m -5.52342,21.7958 m 11.0363,15.0093"
   id="path3645"
   style="fill:url(#id1);fill-rule:nonzero;stroke:#87cefa;stroke-width:0.576002"
   inkscape:connector-curvature="0" />
  <path
   d="M 32.2773,68.1025 32.2826,38.1005 21.2471,24.4942 10.2063,38.0854 10.201,68.0874 32.2773,68.10252 z m 0.003,-15.0017 M 26.7652,31.2974 M 15.7267,31.2898 m -5.52342,21.7958 m 11.0363,15.0093"
   id="path3647"
   style="fill:url(#id2);fill-rule:nonzero;stroke:#87cefa;stroke-width:0.576002"
   inkscape:connector-curvature="0" />
  <path
   d="m 141.508,87.9707 0.005,-30.002 -11.0355,-13.6063 -11.0408,13.5912 -0.005,30.002 22.0763,0.01512 z M 141.511,72.969 M 135.9959,51.1656 M 124.9574,51.158 m -5.52342,21.7958 m 11.0363,15.0093"
   id="path3649"
   style="fill:url(#id3);fill-rule:nonzero;stroke:#87cefa;stroke-width:0.576002"
   inkscape:connector-curvature="0" />
  <path
   d="m 141.241,138.623 0.005,-30.002 -11.0355,-13.6063 -11.0408,13.5912 -0.005,30.002 22.0763,0.0151 z m 0.003,-15.0017 m -5.5151,-21.8034 m -11.0385,-0.008 m -5.5234,21.79584 m 11.0363,15.0093"
   id="path3651"
   style="fill:url(#id4);fill-rule:nonzero;stroke:#87cefa;stroke-width:0.576002"
   inkscape:connector-curvature="0" />
  <path
   d="m 141.729,188.398 0.005,-30.002 -11.0355,-13.6063 -11.0408,13.5912 -0.005,30.002 22.0763,0.0151 z m 0.003,-15.0017 m -5.5151,-21.8034 m -11.0385,-0.008 m -5.52342,21.7958 m 11.0363,15.0093"
   id="path3653"
   style="fill:url(#id5);fill-rule:nonzero;stroke:#87cefa;stroke-width:0.576002"
   inkscape:connector-curvature="0" />
  <polygon
   points="85.6262,102.743 88.2764,100.092 66.0142,77.8819 70.3539,73.565 92.5261,95.8423 95.1824,93.1861 98.3723,105.938 "
   id="polygon3655"
   transform="translate(0,16)"
   style="fill:#ff6347;stroke:#ff0000;stroke-width:2.00012994" />
  <g
   transform="matrix(0.989903,0,0,1,48.4092,102.0208)"
   id="g3657">
   <text
   x="80"
   y="110"
   font-weight="normal"
   font-size="16.0003"
   id="text3659"
   style="font-size:16.00029945px;font-weight:normal;fill:#000000;font-family:Arial">0°</text>

  </g>
  <g
   transform="matrix(0.989903,0,0,1,-35.426,102.4479)"
   id="g3661">
   <text
   x="80"
   y="110"
   font-weight="normal"
   font-size="16.0003"
   id="text3663"
   style="font-size:16.00029945px;font-weight:normal;fill:#000000;font-family:Arial">0°</text>

  </g>
 </g>
</svg>