<svg width="701" height="246" viewBox="0 0 701 246" fill="none" xmlns="http://www.w3.org/2000/svg">
<rect width="701" height="246" fill="white"/>
<path d="M11.5 10.5H216.5V235.5H11.5V10.5Z" fill="white" stroke="#999999" stroke-width="5"/>
<path d="M43.4072 47H41.7725V36.1631L38.4941 37.3672V35.8906L43.1523 34.1416H43.4072V47Z" fill="black"/>
<path d="M95.7192 57.6948C96.1029 57.2976 96.092 56.6645 95.6948 56.2808L89.2221 50.0275C88.8249 49.6438 88.1918 49.6547 87.8081 50.0519C87.4244 50.4491 87.4353 51.0821 87.8325 51.4659L93.586 57.0244L88.0275 62.7779C87.6438 63.1751 87.6547 63.8082 88.0519 64.1919C88.4491 64.5756 89.0822 64.5647 89.4659 64.1675L95.7192 57.6948ZM37.0172 58.9999L95.0172 57.9999L94.9828 56.0001L36.9828 57.0001L37.0172 58.9999Z" fill="black"/>
<path d="M44.9277 169.702H46.7031V171.029H44.9277V174H43.293V171.029H37.4658V170.071L43.1963 161.203H44.9277V169.702ZM39.3115 169.702H43.293V163.427L43.0996 163.778L39.3115 169.702Z" fill="black"/>
<path d="M95.7192 184.695C96.1029 184.298 96.092 183.665 95.6948 183.281L89.2221 177.028C88.8249 176.644 88.1918 176.655 87.8081 177.052C87.4244 177.449 87.4353 178.082 87.8325 178.466L93.586 184.024L88.0275 189.778C87.6438 190.175 87.6547 190.808 88.0519 191.192C88.4491 191.576 89.0822 191.565 89.4659 191.168L95.7192 184.695ZM37.0172 186L95.0172 185L94.9828 183L36.9828 184L37.0172 186Z" fill="black"/>
<path d="M40.4277 121.811H41.6494C42.417 121.799 43.0205 121.597 43.46 121.204C43.8994 120.812 44.1191 120.281 44.1191 119.613C44.1191 118.113 43.3721 117.363 41.8779 117.363C41.1748 117.363 40.6123 117.565 40.1904 117.97C39.7744 118.368 39.5664 118.898 39.5664 119.561H37.9404C37.9404 118.547 38.3096 117.706 39.0479 117.038C39.792 116.364 40.7354 116.027 41.8779 116.027C43.085 116.027 44.0312 116.347 44.7168 116.985C45.4023 117.624 45.7451 118.512 45.7451 119.648C45.7451 120.205 45.5635 120.744 45.2002 121.266C44.8428 121.787 44.3535 122.177 43.7324 122.435C44.4355 122.657 44.9775 123.026 45.3584 123.542C45.7451 124.058 45.9385 124.688 45.9385 125.432C45.9385 126.58 45.5635 127.491 44.8135 128.165C44.0635 128.839 43.0879 129.176 41.8867 129.176C40.6855 129.176 39.707 128.851 38.9512 128.2C38.2012 127.55 37.8262 126.691 37.8262 125.625H39.4609C39.4609 126.299 39.6807 126.838 40.1201 127.242C40.5596 127.646 41.1484 127.849 41.8867 127.849C42.6719 127.849 43.2725 127.644 43.6885 127.233C44.1045 126.823 44.3125 126.234 44.3125 125.467C44.3125 124.723 44.084 124.151 43.627 123.753C43.1699 123.354 42.5107 123.149 41.6494 123.138H40.4277V121.811Z" fill="black"/>
<path d="M95.7192 139.695C96.1029 139.298 96.092 138.665 95.6948 138.281L89.2221 132.028C88.8249 131.644 88.1918 131.655 87.8081 132.052C87.4244 132.449 87.4353 133.082 87.8325 133.466L93.586 139.024L88.0275 144.778C87.6438 145.175 87.6547 145.808 88.0519 146.192C88.4491 146.576 89.0822 146.565 89.4659 146.168L95.7192 139.695ZM37.0172 141L95.0172 140L94.9828 138L36.9828 139L37.0172 141Z" fill="black"/>
<path d="M46.4482 86H38.0635V84.8311L42.4932 79.9092C43.1494 79.165 43.6006 78.5615 43.8467 78.0986C44.0986 77.6299 44.2246 77.1465 44.2246 76.6484C44.2246 75.9805 44.0225 75.4326 43.6182 75.0049C43.2139 74.5771 42.6748 74.3633 42.001 74.3633C41.1924 74.3633 40.5625 74.5947 40.1113 75.0576C39.666 75.5146 39.4434 76.1533 39.4434 76.9736H37.8174C37.8174 75.7959 38.1953 74.8438 38.9512 74.1172C39.7129 73.3906 40.7295 73.0273 42.001 73.0273C43.1904 73.0273 44.1309 73.3408 44.8223 73.9678C45.5137 74.5889 45.8594 75.418 45.8594 76.4551C45.8594 77.7148 45.0566 79.2148 43.4512 80.9551L40.0234 84.6729H46.4482V86Z" fill="black"/>
<path d="M95.7192 96.6948C96.1029 96.2976 96.092 95.6645 95.6948 95.2808L89.2221 89.0275C88.8249 88.6438 88.1918 88.6547 87.8081 89.0519C87.4244 89.4491 87.4353 90.0821 87.8325 90.4659L93.586 96.0244L88.0275 101.778C87.6438 102.175 87.6547 102.808 88.0519 103.192C88.4491 103.576 89.0822 103.565 89.4659 103.168L95.7192 96.6948ZM37.0172 97.9999L95.0172 96.9999L94.9828 95.0001L36.9828 96.0001L37.0172 97.9999Z" fill="black"/>
<path d="M11.5 10.5H216.5V235.5H11.5V10.5Z" fill="white" stroke="#999999" stroke-width="5"/>
<path d="M43.4072 47H41.7725V36.1631L38.4941 37.3672V35.8906L43.1523 34.1416H43.4072V47Z" fill="black"/>
<path d="M95.7115 58.2071C96.102 57.8166 96.102 57.1834 95.7115 56.7929L89.3475 50.4289C88.957 50.0384 88.3238 50.0384 87.9333 50.4289C87.5428 50.8195 87.5428 51.4526 87.9333 51.8431L93.5901 57.5L87.9333 63.1569C87.5428 63.5474 87.5428 64.1805 87.9333 64.5711C88.3238 64.9616 88.957 64.9616 89.3475 64.5711L95.7115 58.2071ZM36.9957 58.5H95.0043V56.5H36.9957V58.5Z" fill="black"/>
<path d="M44.9277 169.702H46.7031V171.029H44.9277V174H43.293V171.029H37.4658V170.071L43.1963 161.203H44.9277V169.702ZM39.3115 169.702H43.293V163.427L43.0996 163.778L39.3115 169.702Z" fill="black"/>
<path d="M95.7115 185.207C96.102 184.817 96.102 184.183 95.7115 183.793L89.3475 177.429C88.957 177.038 88.3238 177.038 87.9333 177.429C87.5428 177.819 87.5428 178.453 87.9333 178.843L93.5901 184.5L87.9333 190.157C87.5428 190.547 87.5428 191.181 87.9333 191.571C88.3238 191.962 88.957 191.962 89.3475 191.571L95.7115 185.207ZM36.9957 185.5H95.0043V183.5H36.9957V185.5Z" fill="black"/>
<path d="M40.4277 121.811H41.6494C42.417 121.799 43.0205 121.597 43.46 121.204C43.8994 120.812 44.1191 120.281 44.1191 119.613C44.1191 118.113 43.3721 117.363 41.8779 117.363C41.1748 117.363 40.6123 117.565 40.1904 117.97C39.7744 118.368 39.5664 118.898 39.5664 119.561H37.9404C37.9404 118.547 38.3096 117.706 39.0479 117.038C39.792 116.364 40.7354 116.027 41.8779 116.027C43.085 116.027 44.0312 116.347 44.7168 116.985C45.4023 117.624 45.7451 118.512 45.7451 119.648C45.7451 120.205 45.5635 120.744 45.2002 121.266C44.8428 121.787 44.3535 122.177 43.7324 122.435C44.4355 122.657 44.9775 123.026 45.3584 123.542C45.7451 124.058 45.9385 124.688 45.9385 125.432C45.9385 126.58 45.5635 127.491 44.8135 128.165C44.0635 128.839 43.0879 129.176 41.8867 129.176C40.6855 129.176 39.707 128.851 38.9512 128.2C38.2012 127.55 37.8262 126.691 37.8262 125.625H39.4609C39.4609 126.299 39.6807 126.838 40.1201 127.242C40.5596 127.646 41.1484 127.849 41.8867 127.849C42.6719 127.849 43.2725 127.644 43.6885 127.233C44.1045 126.823 44.3125 126.234 44.3125 125.467C44.3125 124.723 44.084 124.151 43.627 123.753C43.1699 123.354 42.5107 123.149 41.6494 123.138H40.4277V121.811Z" fill="black"/>
<path d="M95.7115 140.207C96.102 139.817 96.102 139.183 95.7115 138.793L89.3475 132.429C88.957 132.038 88.3238 132.038 87.9333 132.429C87.5428 132.819 87.5428 133.453 87.9333 133.843L93.5901 139.5L87.9333 145.157C87.5428 145.547 87.5428 146.181 87.9333 146.571C88.3238 146.962 88.957 146.962 89.3475 146.571L95.7115 140.207ZM36.9957 140.5H95.0043V138.5H36.9957V140.5Z" fill="black"/>
<path d="M46.4482 86H38.0635V84.8311L42.4932 79.9092C43.1494 79.165 43.6006 78.5615 43.8467 78.0986C44.0986 77.6299 44.2246 77.1465 44.2246 76.6484C44.2246 75.9805 44.0225 75.4326 43.6182 75.0049C43.2139 74.5771 42.6748 74.3633 42.001 74.3633C41.1924 74.3633 40.5625 74.5947 40.1113 75.0576C39.666 75.5146 39.4434 76.1533 39.4434 76.9736H37.8174C37.8174 75.7959 38.1953 74.8438 38.9512 74.1172C39.7129 73.3906 40.7295 73.0273 42.001 73.0273C43.1904 73.0273 44.1309 73.3408 44.8223 73.9678C45.5137 74.5889 45.8594 75.418 45.8594 76.4551C45.8594 77.7148 45.0566 79.2148 43.4512 80.9551L40.0234 84.6729H46.4482V86Z" fill="black"/>
<path d="M95.7115 97.2071C96.102 96.8166 96.102 96.1834 95.7115 95.7929L89.3475 89.4289C88.957 89.0384 88.3238 89.0384 87.9333 89.4289C87.5428 89.8195 87.5428 90.4526 87.9333 90.8431L93.5901 96.5L87.9333 102.157C87.5428 102.547 87.5428 103.181 87.9333 103.571C88.3238 103.962 88.957 103.962 89.3475 103.571L95.7115 97.2071ZM36.9957 97.5H95.0043V95.5H36.9957V97.5Z" fill="black"/>
<path d="M131.811 40.584L132.461 34.2031H139.018V35.7061H133.841L133.454 39.1953C134.081 38.8262 134.793 38.6416 135.59 38.6416C136.756 38.6416 137.682 39.0283 138.367 39.8018C139.053 40.5693 139.396 41.6094 139.396 42.9219C139.396 44.2402 139.038 45.2803 138.323 46.042C137.614 46.7979 136.621 47.1758 135.344 47.1758C134.213 47.1758 133.29 46.8623 132.575 46.2354C131.86 45.6084 131.453 44.7412 131.354 43.6338H132.892C132.991 44.3662 133.252 44.9199 133.674 45.2949C134.096 45.6641 134.652 45.8486 135.344 45.8486C136.1 45.8486 136.691 45.5908 137.119 45.0752C137.553 44.5596 137.77 43.8477 137.77 42.9395C137.77 42.084 137.535 41.3984 137.066 40.8828C136.604 40.3613 135.985 40.1006 135.212 40.1006C134.503 40.1006 133.946 40.2559 133.542 40.5664L133.111 40.918L131.811 40.584Z" fill="black"/>
<path d="M188.711 58.2071C189.102 57.8166 189.102 57.1834 188.711 56.7929L182.347 50.4289C181.957 50.0384 181.324 50.0384 180.933 50.4289C180.543 50.8195 180.543 51.4526 180.933 51.8431L186.59 57.5L180.933 63.1569C180.543 63.5474 180.543 64.1805 180.933 64.5711C181.324 64.9616 181.957 64.9616 182.347 64.5711L188.711 58.2071ZM129.996 58.5H188.004V56.5H129.996V58.5Z" fill="black"/>
<path d="M138.824 164.543C138.824 165.182 138.654 165.75 138.314 166.248C137.98 166.746 137.526 167.136 136.952 167.417C137.62 167.704 138.147 168.123 138.534 168.674C138.927 169.225 139.123 169.849 139.123 170.546C139.123 171.653 138.748 172.535 137.998 173.191C137.254 173.848 136.272 174.176 135.054 174.176C133.823 174.176 132.836 173.848 132.092 173.191C131.354 172.529 130.984 171.647 130.984 170.546C130.984 169.854 131.172 169.23 131.547 168.674C131.928 168.117 132.452 167.695 133.12 167.408C132.552 167.127 132.104 166.737 131.775 166.239C131.447 165.741 131.283 165.176 131.283 164.543C131.283 163.465 131.629 162.609 132.32 161.977C133.012 161.344 133.923 161.027 135.054 161.027C136.179 161.027 137.087 161.344 137.778 161.977C138.476 162.609 138.824 163.465 138.824 164.543ZM137.497 170.511C137.497 169.796 137.269 169.213 136.812 168.762C136.36 168.311 135.769 168.085 135.036 168.085C134.304 168.085 133.715 168.308 133.27 168.753C132.83 169.198 132.61 169.784 132.61 170.511C132.61 171.237 132.824 171.809 133.252 172.225C133.686 172.641 134.286 172.849 135.054 172.849C135.815 172.849 136.413 172.641 136.847 172.225C137.28 171.803 137.497 171.231 137.497 170.511ZM135.054 162.363C134.415 162.363 133.896 162.562 133.498 162.961C133.105 163.354 132.909 163.89 132.909 164.569C132.909 165.22 133.103 165.747 133.489 166.151C133.882 166.55 134.403 166.749 135.054 166.749C135.704 166.749 136.223 166.55 136.609 166.151C137.002 165.747 137.198 165.22 137.198 164.569C137.198 163.919 136.996 163.389 136.592 162.979C136.188 162.568 135.675 162.363 135.054 162.363Z" fill="black"/>
<path d="M188.711 185.207C189.102 184.817 189.102 184.183 188.711 183.793L182.347 177.429C181.957 177.038 181.324 177.038 180.933 177.429C180.543 177.819 180.543 178.453 180.933 178.843L186.59 184.5L180.933 190.157C180.543 190.547 180.543 191.181 180.933 191.571C181.324 191.962 181.957 191.962 182.347 191.571L188.711 185.207ZM129.996 185.5H188.004V183.5H129.996V185.5Z" fill="black"/>
<path d="M139.325 117.117L134.025 129H132.32L137.603 117.539H130.677V116.203H139.325V117.117Z" fill="black"/>
<path d="M188.711 140.207C189.102 139.817 189.102 139.183 188.711 138.793L182.347 132.429C181.957 132.038 181.324 132.038 180.933 132.429C180.543 132.819 180.543 133.453 180.933 133.843L186.59 139.5L180.933 145.157C180.543 145.547 180.543 146.181 180.933 146.571C181.324 146.962 181.957 146.962 182.347 146.571L188.711 140.207ZM129.996 140.5H188.004V138.5H129.996V140.5Z" fill="black"/>
<path d="M137.444 73.1943V74.5742H137.146C135.88 74.5977 134.872 74.9727 134.122 75.6992C133.372 76.4258 132.938 77.4482 132.821 78.7666C133.495 77.9932 134.415 77.6064 135.581 77.6064C136.694 77.6064 137.582 77.999 138.244 78.7842C138.912 79.5693 139.246 80.583 139.246 81.8252C139.246 83.1436 138.886 84.1982 138.165 84.9893C137.45 85.7803 136.489 86.1758 135.282 86.1758C134.058 86.1758 133.064 85.707 132.303 84.7695C131.541 83.8262 131.16 82.6133 131.16 81.1309V80.5068C131.16 78.1514 131.661 76.3525 132.663 75.1104C133.671 73.8623 135.168 73.2236 137.154 73.1943H137.444ZM135.309 78.96C134.752 78.96 134.239 79.127 133.771 79.4609C133.302 79.7949 132.977 80.2139 132.795 80.7178V81.3154C132.795 82.3701 133.032 83.2197 133.507 83.8643C133.981 84.5088 134.573 84.8311 135.282 84.8311C136.015 84.8311 136.589 84.5615 137.005 84.0225C137.427 83.4834 137.638 82.7773 137.638 81.9043C137.638 81.0254 137.424 80.3164 136.996 79.7773C136.574 79.2324 136.012 78.96 135.309 78.96Z" fill="black"/>
<path d="M188.711 97.2071C189.102 96.8166 189.102 96.1834 188.711 95.7929L182.347 89.4289C181.957 89.0384 181.324 89.0384 180.933 89.4289C180.543 89.8195 180.543 90.4526 180.933 90.8431L186.59 96.5L180.933 102.157C180.543 102.547 180.543 103.181 180.933 103.571C181.324 103.962 181.957 103.962 182.347 103.571L188.711 97.2071ZM129.996 97.5H188.004V95.5H129.996V97.5Z" fill="black"/>
<line x1="115" y1="13" x2="115" y2="233" stroke="black" stroke-width="4"/>
<path d="M453.5 10.5V215.5H228.5V10.5H453.5Z" fill="white" stroke="#999999" stroke-width="5"/>
<path d="M417 42.4072V40.7725H427.837L426.633 37.4941H428.109L429.858 42.1523V42.4072H417Z" fill="black"/>
<path d="M406.305 94.7192C406.702 95.1029 407.335 95.092 407.719 94.6948L413.972 88.2221C414.356 87.8249 414.345 87.1918 413.948 86.8081C413.551 86.4244 412.918 86.4353 412.534 86.8325L406.976 92.586L401.222 87.0275C400.825 86.6438 400.192 86.6547 399.808 87.0519C399.424 87.4491 399.435 88.0822 399.832 88.4659L406.305 94.7192ZM405 36.0172L406 94.0172L408 93.9828L407 35.9828L405 36.0172Z" fill="black"/>
<path d="M294.298 43.9277V45.7031H292.971V43.9277H290V42.293H292.971V36.4658H293.929L302.797 42.1963V43.9277H294.298ZM294.298 38.3115V42.293H300.573L300.222 42.0996L294.298 38.3115Z" fill="black"/>
<path d="M279.305 94.7192C279.702 95.1029 280.335 95.092 280.719 94.6948L286.972 88.2221C287.356 87.8249 287.345 87.1918 286.948 86.8081C286.551 86.4244 285.918 86.4353 285.534 86.8325L279.976 92.586L274.222 87.0275C273.825 86.6438 273.192 86.6547 272.808 87.0519C272.424 87.4491 272.435 88.0822 272.832 88.4659L279.305 94.7192ZM278 36.0172L279 94.0172L281 93.9828L280 35.9828L278 36.0172Z" fill="black"/>
<path d="M342.189 39.4277V40.6494C342.201 41.417 342.403 42.0205 342.796 42.46C343.188 42.8994 343.719 43.1191 344.387 43.1191C345.887 43.1191 346.637 42.3721 346.637 40.8779C346.637 40.1748 346.435 39.6123 346.03 39.1904C345.632 38.7744 345.102 38.5664 344.439 38.5664V36.9404C345.453 36.9404 346.294 37.3096 346.962 38.0479C347.636 38.792 347.973 39.7354 347.973 40.8779C347.973 42.085 347.653 43.0312 347.015 43.7168C346.376 44.4023 345.488 44.7451 344.352 44.7451C343.795 44.7451 343.256 44.5635 342.734 44.2002C342.213 43.8428 341.823 43.3535 341.565 42.7324C341.343 43.4355 340.974 43.9775 340.458 44.3584C339.942 44.7451 339.312 44.9385 338.568 44.9385C337.42 44.9385 336.509 44.5635 335.835 43.8135C335.161 43.0635 334.824 42.0879 334.824 40.8867C334.824 39.6855 335.149 38.707 335.8 37.9512C336.45 37.2012 337.309 36.8262 338.375 36.8262V38.4609C337.701 38.4609 337.162 38.6807 336.758 39.1201C336.354 39.5596 336.151 40.1484 336.151 40.8867C336.151 41.6719 336.356 42.2725 336.767 42.6885C337.177 43.1045 337.766 43.3125 338.533 43.3125C339.277 43.3125 339.849 43.084 340.247 42.627C340.646 42.1699 340.851 41.5107 340.862 40.6494V39.4277H342.189Z" fill="black"/>
<path d="M324.305 94.7192C324.702 95.1029 325.335 95.092 325.719 94.6948L331.972 88.2221C332.356 87.8249 332.345 87.1918 331.948 86.8081C331.551 86.4244 330.918 86.4353 330.534 86.8325L324.976 92.586L319.222 87.0275C318.825 86.6438 318.192 86.6547 317.808 87.0519C317.424 87.4491 317.435 88.0822 317.832 88.4659L324.305 94.7192ZM323 36.0172L324 94.0172L326 93.9828L325 35.9828L323 36.0172Z" fill="black"/>
<path d="M378 45.4482V37.0635H379.169L384.091 41.4932C384.835 42.1494 385.438 42.6006 385.901 42.8467C386.37 43.0986 386.854 43.2246 387.352 43.2246C388.02 43.2246 388.567 43.0225 388.995 42.6182C389.423 42.2139 389.637 41.6748 389.637 41.001C389.637 40.1924 389.405 39.5625 388.942 39.1113C388.485 38.666 387.847 38.4434 387.026 38.4434V36.8174C388.204 36.8174 389.156 37.1953 389.883 37.9512C390.609 38.7129 390.973 39.7295 390.973 41.001C390.973 42.1904 390.659 43.1309 390.032 43.8223C389.411 44.5137 388.582 44.8594 387.545 44.8594C386.285 44.8594 384.785 44.0566 383.045 42.4512L379.327 39.0234V45.4482H378Z" fill="black"/>
<path d="M367.305 94.7192C367.702 95.1029 368.335 95.092 368.719 94.6948L374.972 88.2221C375.356 87.8249 375.345 87.1918 374.948 86.8081C374.551 86.4244 373.918 86.4353 373.534 86.8325L367.976 92.586L362.222 87.0275C361.825 86.6438 361.192 86.6547 360.808 87.0519C360.424 87.4491 360.435 88.0822 360.832 88.4659L367.305 94.7192ZM366 36.0172L367 94.0172L369 93.9828L368 35.9828L366 36.0172Z" fill="black"/>
<path d="M453.5 10.5V215.5H228.5V10.5H453.5Z" fill="white" stroke="#999999" stroke-width="5"/>
<path d="M417 42.4072V40.7725H427.837L426.633 37.4941H428.109L429.858 42.1523V42.4072H417Z" fill="black"/>
<path d="M405.793 94.7114C406.183 95.1019 406.817 95.1019 407.207 94.7114L413.571 88.3475C413.962 87.9569 413.962 87.3238 413.571 86.9333C413.181 86.5427 412.547 86.5427 412.157 86.9333L406.5 92.5901L400.843 86.9333C400.453 86.5427 399.819 86.5427 399.429 86.9333C399.038 87.3238 399.038 87.9569 399.429 88.3475L405.793 94.7114ZM405.5 35.9957V94.0043H407.5V35.9957H405.5Z" fill="black"/>
<path d="M294.298 43.9277V45.7031H292.971V43.9277H290V42.293H292.971V36.4658H293.929L302.797 42.1963V43.9277H294.298ZM294.298 38.3115V42.293H300.573L300.222 42.0996L294.298 38.3115Z" fill="black"/>
<path d="M278.793 94.7115C279.183 95.102 279.817 95.102 280.207 94.7115L286.571 88.3475C286.962 87.957 286.962 87.3238 286.571 86.9333C286.181 86.5428 285.547 86.5428 285.157 86.9333L279.5 92.5901L273.843 86.9333C273.453 86.5428 272.819 86.5428 272.429 86.9333C272.038 87.3238 272.038 87.957 272.429 88.3475L278.793 94.7115ZM278.5 35.9957V94.0043H280.5V35.9957H278.5Z" fill="black"/>
<path d="M342.189 39.4277V40.6494C342.201 41.417 342.403 42.0205 342.796 42.46C343.188 42.8994 343.719 43.1191 344.387 43.1191C345.887 43.1191 346.637 42.3721 346.637 40.8779C346.637 40.1748 346.435 39.6123 346.03 39.1904C345.632 38.7744 345.102 38.5664 344.439 38.5664V36.9404C345.453 36.9404 346.294 37.3096 346.962 38.0479C347.636 38.792 347.973 39.7354 347.973 40.8779C347.973 42.085 347.653 43.0312 347.015 43.7168C346.376 44.4023 345.488 44.7451 344.352 44.7451C343.795 44.7451 343.256 44.5635 342.734 44.2002C342.213 43.8428 341.823 43.3535 341.565 42.7324C341.343 43.4355 340.974 43.9775 340.458 44.3584C339.942 44.7451 339.312 44.9385 338.568 44.9385C337.42 44.9385 336.509 44.5635 335.835 43.8135C335.161 43.0635 334.824 42.0879 334.824 40.8867C334.824 39.6855 335.149 38.707 335.8 37.9512C336.45 37.2012 337.309 36.8262 338.375 36.8262V38.4609C337.701 38.4609 337.162 38.6807 336.758 39.1201C336.354 39.5596 336.151 40.1484 336.151 40.8867C336.151 41.6719 336.356 42.2725 336.767 42.6885C337.177 43.1045 337.766 43.3125 338.533 43.3125C339.277 43.3125 339.849 43.084 340.247 42.627C340.646 42.1699 340.851 41.5107 340.862 40.6494V39.4277H342.189Z" fill="black"/>
<path d="M323.793 94.7114C324.183 95.1019 324.817 95.1019 325.207 94.7114L331.571 88.3475C331.962 87.9569 331.962 87.3238 331.571 86.9333C331.181 86.5427 330.547 86.5427 330.157 86.9333L324.5 92.5901L318.843 86.9333C318.453 86.5427 317.819 86.5427 317.429 86.9333C317.038 87.3238 317.038 87.9569 317.429 88.3475L323.793 94.7114ZM323.5 35.9957V94.0043H325.5V35.9957H323.5Z" fill="black"/>
<path d="M378 45.4482V37.0635H379.169L384.091 41.4932C384.835 42.1494 385.438 42.6006 385.901 42.8467C386.37 43.0986 386.854 43.2246 387.352 43.2246C388.02 43.2246 388.567 43.0225 388.995 42.6182C389.423 42.2139 389.637 41.6748 389.637 41.001C389.637 40.1924 389.405 39.5625 388.942 39.1113C388.485 38.666 387.847 38.4434 387.026 38.4434V36.8174C388.204 36.8174 389.156 37.1953 389.883 37.9512C390.609 38.7129 390.973 39.7295 390.973 41.001C390.973 42.1904 390.659 43.1309 390.032 43.8223C389.411 44.5137 388.582 44.8594 387.545 44.8594C386.285 44.8594 384.785 44.0566 383.045 42.4512L379.327 39.0234V45.4482H378Z" fill="black"/>
<path d="M366.793 94.7114C367.183 95.1019 367.817 95.1019 368.207 94.7114L374.571 88.3475C374.962 87.9569 374.962 87.3238 374.571 86.9333C374.181 86.5427 373.547 86.5427 373.157 86.9333L367.5 92.5901L361.843 86.9333C361.453 86.5427 360.819 86.5427 360.429 86.9333C360.038 87.3238 360.038 87.9569 360.429 88.3475L366.793 94.7114ZM366.5 35.9957V94.0043H368.5V35.9957H366.5Z" fill="black"/>
<path d="M423.416 130.811L429.797 131.461V138.018H428.294V132.841L424.805 132.454C425.174 133.081 425.358 133.793 425.358 134.59C425.358 135.756 424.972 136.682 424.198 137.367C423.431 138.053 422.391 138.396 421.078 138.396C419.76 138.396 418.72 138.038 417.958 137.323C417.202 136.614 416.824 135.621 416.824 134.344C416.824 133.213 417.138 132.29 417.765 131.575C418.392 130.86 419.259 130.453 420.366 130.354V131.892C419.634 131.991 419.08 132.252 418.705 132.674C418.336 133.096 418.151 133.652 418.151 134.344C418.151 135.1 418.409 135.691 418.925 136.119C419.44 136.553 420.152 136.77 421.061 136.77C421.916 136.77 422.602 136.535 423.117 136.066C423.639 135.604 423.899 134.985 423.899 134.212C423.899 133.503 423.744 132.946 423.434 132.542L423.082 132.111L423.416 130.811Z" fill="black"/>
<path opacity="0.9" d="M405.793 187.711C406.183 188.102 406.817 188.102 407.207 187.711L413.571 181.347C413.962 180.957 413.962 180.324 413.571 179.933C413.181 179.543 412.547 179.543 412.157 179.933L406.5 185.59L400.843 179.933C400.453 179.543 399.819 179.543 399.429 179.933C399.038 180.324 399.038 180.957 399.429 181.347L405.793 187.711ZM405.5 128.996V187.004H407.5V128.996H405.5Z" fill="black"/>
<path d="M299.457 137.824C298.818 137.824 298.25 137.654 297.752 137.314C297.254 136.98 296.864 136.526 296.583 135.952C296.296 136.62 295.877 137.147 295.326 137.534C294.775 137.927 294.151 138.123 293.454 138.123C292.347 138.123 291.465 137.748 290.809 136.998C290.152 136.254 289.824 135.272 289.824 134.054C289.824 132.823 290.152 131.836 290.809 131.092C291.471 130.354 292.353 129.984 293.454 129.984C294.146 129.984 294.77 130.172 295.326 130.547C295.883 130.928 296.305 131.452 296.592 132.12C296.873 131.552 297.263 131.104 297.761 130.775C298.259 130.447 298.824 130.283 299.457 130.283C300.535 130.283 301.391 130.629 302.023 131.32C302.656 132.012 302.973 132.923 302.973 134.054C302.973 135.179 302.656 136.087 302.023 136.778C301.391 137.476 300.535 137.824 299.457 137.824ZM293.489 136.497C294.204 136.497 294.787 136.269 295.238 135.812C295.689 135.36 295.915 134.769 295.915 134.036C295.915 133.304 295.692 132.715 295.247 132.27C294.802 131.83 294.216 131.61 293.489 131.61C292.763 131.61 292.191 131.824 291.775 132.252C291.359 132.686 291.151 133.286 291.151 134.054C291.151 134.815 291.359 135.413 291.775 135.847C292.197 136.28 292.769 136.497 293.489 136.497ZM301.637 134.054C301.637 133.415 301.438 132.896 301.039 132.498C300.646 132.105 300.11 131.909 299.431 131.909C298.78 131.909 298.253 132.103 297.849 132.489C297.45 132.882 297.251 133.403 297.251 134.054C297.251 134.704 297.45 135.223 297.849 135.609C298.253 136.002 298.78 136.198 299.431 136.198C300.081 136.198 300.611 135.996 301.021 135.592C301.432 135.188 301.637 134.675 301.637 134.054Z" fill="black"/>
<path d="M279.305 187.719C279.702 188.103 280.335 188.092 280.719 187.695L286.972 181.222C287.356 180.825 287.345 180.192 286.948 179.808C286.551 179.424 285.918 179.435 285.534 179.832L279.976 185.586L274.222 180.028C273.825 179.644 273.192 179.655 272.808 180.052C272.424 180.449 272.435 181.082 272.832 181.466L279.305 187.719ZM278 129.017L279 187.017L281 186.983L280 128.983L278 129.017Z" fill="black"/>
<path d="M346.883 138.325L335 133.025V131.32L346.461 136.603V129.677H347.797V138.325H346.883Z" fill="black"/>
<path d="M323.793 187.711C324.183 188.102 324.817 188.102 325.207 187.711L331.571 181.347C331.962 180.957 331.962 180.324 331.571 179.933C331.181 179.543 330.547 179.543 330.157 179.933L324.5 185.59L318.843 179.933C318.453 179.543 317.819 179.543 317.429 179.933C317.038 180.324 317.038 180.957 317.429 181.347L323.793 187.711ZM323.5 128.996V187.004H325.5V128.996H323.5Z" fill="black"/>
<path d="M390.806 136.444H389.426V136.146C389.402 134.88 389.027 133.872 388.301 133.122C387.574 132.372 386.552 131.938 385.233 131.821C386.007 132.495 386.394 133.415 386.394 134.581C386.394 135.694 386.001 136.582 385.216 137.244C384.431 137.912 383.417 138.246 382.175 138.246C380.856 138.246 379.802 137.886 379.011 137.165C378.22 136.45 377.824 135.489 377.824 134.282C377.824 133.058 378.293 132.064 379.23 131.303C380.174 130.541 381.387 130.16 382.869 130.16H383.493C385.849 130.16 387.647 130.661 388.89 131.663C390.138 132.671 390.776 134.168 390.806 136.154V136.444ZM385.04 134.309C385.04 133.752 384.873 133.239 384.539 132.771C384.205 132.302 383.786 131.977 383.282 131.795H382.685C381.63 131.795 380.78 132.032 380.136 132.507C379.491 132.981 379.169 133.573 379.169 134.282C379.169 135.015 379.438 135.589 379.978 136.005C380.517 136.427 381.223 136.638 382.096 136.638C382.975 136.638 383.684 136.424 384.223 135.996C384.768 135.574 385.04 135.012 385.04 134.309Z" fill="black"/>
<path d="M366.793 187.711C367.183 188.102 367.817 188.102 368.207 187.711L374.571 181.347C374.962 180.957 374.962 180.324 374.571 179.933C374.181 179.543 373.547 179.543 373.157 179.933L367.5 185.59L361.843 179.933C361.453 179.543 360.819 179.543 360.429 179.933C360.038 180.324 360.038 180.957 360.429 181.347L366.793 187.711ZM366.5 128.996V187.004H368.5V128.996H366.5Z" fill="black"/>
<line x1="451" y1="114" x2="231" y2="114" stroke="black" stroke-width="4"/>
<path d="M690.5 10.5V215.5H465.5V10.5H690.5Z" fill="white" stroke="#999999" stroke-width="5"/>
<path d="M654 42.4072V40.7725H664.837L663.633 37.4941H665.109L666.858 42.1523V42.4072H654Z" fill="black"/>
<path d="M643.305 94.7192C643.702 95.1029 644.335 95.092 644.719 94.6948L650.972 88.2221C651.356 87.8249 651.345 87.1918 650.948 86.8081C650.551 86.4244 649.918 86.4353 649.534 86.8325L643.976 92.586L638.222 87.0275C637.825 86.6438 637.192 86.6547 636.808 87.0519C636.424 87.4491 636.435 88.0822 636.832 88.4659L643.305 94.7192ZM642 36.0172L643 94.0172L645 93.9828L644 35.9828L642 36.0172Z" fill="black"/>
<path d="M531.298 43.9277V45.7031H529.971V43.9277H527V42.293H529.971V36.4658H530.929L539.797 42.1963V43.9277H531.298ZM531.298 38.3115V42.293H537.573L537.222 42.0996L531.298 38.3115Z" fill="black"/>
<path d="M516.305 94.7192C516.702 95.1029 517.335 95.092 517.719 94.6948L523.972 88.2221C524.356 87.8249 524.345 87.1918 523.948 86.8081C523.551 86.4244 522.918 86.4353 522.534 86.8325L516.976 92.586L511.222 87.0275C510.825 86.6438 510.192 86.6547 509.808 87.0519C509.424 87.4491 509.435 88.0822 509.832 88.4659L516.305 94.7192ZM515 36.0172L516 94.0172L518 93.9828L517 35.9828L515 36.0172Z" fill="black"/>
<path d="M579.189 39.4277V40.6494C579.201 41.417 579.403 42.0205 579.796 42.46C580.188 42.8994 580.719 43.1191 581.387 43.1191C582.887 43.1191 583.637 42.3721 583.637 40.8779C583.637 40.1748 583.435 39.6123 583.03 39.1904C582.632 38.7744 582.102 38.5664 581.439 38.5664V36.9404C582.453 36.9404 583.294 37.3096 583.962 38.0479C584.636 38.792 584.973 39.7354 584.973 40.8779C584.973 42.085 584.653 43.0312 584.015 43.7168C583.376 44.4023 582.488 44.7451 581.352 44.7451C580.795 44.7451 580.256 44.5635 579.734 44.2002C579.213 43.8428 578.823 43.3535 578.565 42.7324C578.343 43.4355 577.974 43.9775 577.458 44.3584C576.942 44.7451 576.312 44.9385 575.568 44.9385C574.42 44.9385 573.509 44.5635 572.835 43.8135C572.161 43.0635 571.824 42.0879 571.824 40.8867C571.824 39.6855 572.149 38.707 572.8 37.9512C573.45 37.2012 574.309 36.8262 575.375 36.8262V38.4609C574.701 38.4609 574.162 38.6807 573.758 39.1201C573.354 39.5596 573.151 40.1484 573.151 40.8867C573.151 41.6719 573.356 42.2725 573.767 42.6885C574.177 43.1045 574.766 43.3125 575.533 43.3125C576.277 43.3125 576.849 43.084 577.247 42.627C577.646 42.1699 577.851 41.5107 577.862 40.6494V39.4277H579.189Z" fill="black"/>
<path d="M561.305 94.7192C561.702 95.1029 562.335 95.092 562.719 94.6948L568.972 88.2221C569.356 87.8249 569.345 87.1918 568.948 86.8081C568.551 86.4244 567.918 86.4353 567.534 86.8325L561.976 92.586L556.222 87.0275C555.825 86.6438 555.192 86.6547 554.808 87.0519C554.424 87.4491 554.435 88.0822 554.832 88.4659L561.305 94.7192ZM560 36.0172L561 94.0172L563 93.9828L562 35.9828L560 36.0172Z" fill="black"/>
<path d="M615 45.4482V37.0635H616.169L621.091 41.4932C621.835 42.1494 622.438 42.6006 622.901 42.8467C623.37 43.0986 623.854 43.2246 624.352 43.2246C625.02 43.2246 625.567 43.0225 625.995 42.6182C626.423 42.2139 626.637 41.6748 626.637 41.001C626.637 40.1924 626.405 39.5625 625.942 39.1113C625.485 38.666 624.847 38.4434 624.026 38.4434V36.8174C625.204 36.8174 626.156 37.1953 626.883 37.9512C627.609 38.7129 627.973 39.7295 627.973 41.001C627.973 42.1904 627.659 43.1309 627.032 43.8223C626.411 44.5137 625.582 44.8594 624.545 44.8594C623.285 44.8594 621.785 44.0566 620.045 42.4512L616.327 39.0234V45.4482H615Z" fill="black"/>
<path d="M604.305 94.7192C604.702 95.1029 605.335 95.092 605.719 94.6948L611.972 88.2221C612.356 87.8249 612.345 87.1918 611.948 86.8081C611.551 86.4244 610.918 86.4353 610.534 86.8325L604.976 92.586L599.222 87.0275C598.825 86.6438 598.192 86.6547 597.808 87.0519C597.424 87.4491 597.435 88.0822 597.832 88.4659L604.305 94.7192ZM603 36.0172L604 94.0172L606 93.9828L605 35.9828L603 36.0172Z" fill="black"/>
<path d="M690.5 10.5V215.5H465.5V10.5H690.5Z" fill="white" stroke="#999999" stroke-width="5"/>
<path d="M658.298 43.9277V45.7031H656.971V43.9277H654V42.293H656.971V36.4658H657.929L666.797 42.1963V43.9277H658.298ZM658.298 38.3115V42.293H664.573L664.222 42.0996L658.298 38.3115Z" fill="black"/>
<path d="M642.793 94.7114C643.183 95.1019 643.817 95.1019 644.207 94.7114L650.571 88.3475C650.962 87.9569 650.962 87.3238 650.571 86.9333C650.181 86.5427 649.547 86.5427 649.157 86.9333L643.5 92.5901L637.843 86.9333C637.453 86.5427 636.819 86.5427 636.429 86.9333C636.038 87.3238 636.038 87.9569 636.429 88.3475L642.793 94.7114ZM642.5 35.9957V94.0043H644.5V35.9957H642.5Z" fill="black"/>
<path d="M527 42.4072V40.7725H537.837L536.633 37.4941H538.109L539.858 42.1523V42.4072H527Z" fill="black"/>
<path opacity="0.9" d="M515.793 94.7114C516.183 95.1019 516.817 95.1019 517.207 94.7114L523.571 88.3475C523.962 87.9569 523.962 87.3238 523.571 86.9333C523.181 86.5427 522.547 86.5427 522.157 86.9333L516.5 92.5901L510.843 86.9333C510.453 86.5427 509.819 86.5427 509.429 86.9333C509.038 87.3238 509.038 87.9569 509.429 88.3475L515.793 94.7114ZM515.5 35.9957V94.0043H517.5V35.9957H515.5Z" fill="black"/>
<path d="M572 45.4482V37.0635H573.169L578.091 41.4932C578.835 42.1494 579.438 42.6006 579.901 42.8467C580.37 43.0986 580.854 43.2246 581.352 43.2246C582.02 43.2246 582.567 43.0225 582.995 42.6182C583.423 42.2139 583.637 41.6748 583.637 41.001C583.637 40.1924 583.405 39.5625 582.942 39.1113C582.485 38.666 581.847 38.4434 581.026 38.4434V36.8174C582.204 36.8174 583.156 37.1953 583.883 37.9512C584.609 38.7129 584.973 39.7295 584.973 41.001C584.973 42.1904 584.659 43.1309 584.032 43.8223C583.411 44.5137 582.582 44.8594 581.545 44.8594C580.285 44.8594 578.785 44.0566 577.045 42.4512L573.327 39.0234V45.4482H572Z" fill="black"/>
<path d="M561.305 94.7192C561.702 95.1029 562.335 95.092 562.719 94.6948L568.972 88.2221C569.356 87.8249 569.345 87.1918 568.948 86.8081C568.551 86.4244 567.918 86.4353 567.534 86.8325L561.976 92.586L556.222 87.0275C555.825 86.6438 555.192 86.6547 554.808 87.0519C554.424 87.4491 554.435 88.0822 554.832 88.4659L561.305 94.7192ZM560 36.0172L561 94.0172L563 93.9828L562 35.9828L560 36.0172Z" fill="black"/>
<path d="M622.189 39.4277V40.6494C622.201 41.417 622.403 42.0205 622.796 42.46C623.188 42.8994 623.719 43.1191 624.387 43.1191C625.887 43.1191 626.637 42.3721 626.637 40.8779C626.637 40.1748 626.435 39.6123 626.03 39.1904C625.632 38.7744 625.102 38.5664 624.439 38.5664V36.9404C625.453 36.9404 626.294 37.3096 626.962 38.0479C627.636 38.792 627.973 39.7354 627.973 40.8779C627.973 42.085 627.653 43.0312 627.015 43.7168C626.376 44.4023 625.488 44.7451 624.352 44.7451C623.795 44.7451 623.256 44.5635 622.734 44.2002C622.213 43.8428 621.823 43.3535 621.565 42.7324C621.343 43.4355 620.974 43.9775 620.458 44.3584C619.942 44.7451 619.312 44.9385 618.568 44.9385C617.42 44.9385 616.509 44.5635 615.835 43.8135C615.161 43.0635 614.824 42.0879 614.824 40.8867C614.824 39.6855 615.149 38.707 615.8 37.9512C616.45 37.2012 617.309 36.8262 618.375 36.8262V38.4609C617.701 38.4609 617.162 38.6807 616.758 39.1201C616.354 39.5596 616.151 40.1484 616.151 40.8867C616.151 41.6719 616.356 42.2725 616.767 42.6885C617.177 43.1045 617.766 43.3125 618.533 43.3125C619.277 43.3125 619.849 43.084 620.247 42.627C620.646 42.1699 620.851 41.5107 620.862 40.6494V39.4277H622.189Z" fill="black"/>
<path d="M603.793 94.7115C604.183 95.102 604.817 95.102 605.207 94.7115L611.571 88.3475C611.962 87.957 611.962 87.3238 611.571 86.9333C611.181 86.5428 610.547 86.5428 610.157 86.9333L604.5 92.5901L598.843 86.9333C598.453 86.5428 597.819 86.5428 597.429 86.9333C597.038 87.3238 597.038 87.957 597.429 88.3475L603.793 94.7115ZM603.5 35.9957V94.0043H605.5V35.9957H603.5Z" fill="black"/>
<path d="M663.457 137.824C662.818 137.824 662.25 137.654 661.752 137.314C661.254 136.98 660.864 136.526 660.583 135.952C660.296 136.62 659.877 137.147 659.326 137.534C658.775 137.927 658.151 138.123 657.454 138.123C656.347 138.123 655.465 137.748 654.809 136.998C654.152 136.254 653.824 135.272 653.824 134.054C653.824 132.823 654.152 131.836 654.809 131.092C655.471 130.354 656.353 129.984 657.454 129.984C658.146 129.984 658.77 130.172 659.326 130.547C659.883 130.928 660.305 131.452 660.592 132.12C660.873 131.552 661.263 131.104 661.761 130.775C662.259 130.447 662.824 130.283 663.457 130.283C664.535 130.283 665.391 130.629 666.023 131.32C666.656 132.012 666.973 132.923 666.973 134.054C666.973 135.179 666.656 136.087 666.023 136.778C665.391 137.476 664.535 137.824 663.457 137.824ZM657.489 136.497C658.204 136.497 658.787 136.269 659.238 135.812C659.689 135.36 659.915 134.769 659.915 134.036C659.915 133.304 659.692 132.715 659.247 132.27C658.802 131.83 658.216 131.61 657.489 131.61C656.763 131.61 656.191 131.824 655.775 132.252C655.359 132.686 655.151 133.286 655.151 134.054C655.151 134.815 655.359 135.413 655.775 135.847C656.197 136.28 656.769 136.497 657.489 136.497ZM665.637 134.054C665.637 133.415 665.438 132.896 665.039 132.498C664.646 132.105 664.11 131.909 663.431 131.909C662.78 131.909 662.253 132.103 661.849 132.489C661.45 132.882 661.251 133.403 661.251 134.054C661.251 134.704 661.45 135.223 661.849 135.609C662.253 136.002 662.78 136.198 663.431 136.198C664.081 136.198 664.611 135.996 665.021 135.592C665.432 135.188 665.637 134.675 665.637 134.054Z" fill="black"/>
<path d="M642.793 187.711C643.183 188.102 643.817 188.102 644.207 187.711L650.571 181.347C650.962 180.957 650.962 180.324 650.571 179.933C650.181 179.543 649.547 179.543 649.157 179.933L643.5 185.59L637.843 179.933C637.453 179.543 636.819 179.543 636.429 179.933C636.038 180.324 636.038 180.957 636.429 181.347L642.793 187.711ZM642.5 128.996V187.004H644.5V128.996H642.5Z" fill="black"/>
<path d="M533.416 130.811L539.797 131.461V138.018H538.294V132.841L534.805 132.454C535.174 133.081 535.358 133.793 535.358 134.59C535.358 135.756 534.972 136.682 534.198 137.367C533.431 138.053 532.391 138.396 531.078 138.396C529.76 138.396 528.72 138.038 527.958 137.323C527.202 136.614 526.824 135.621 526.824 134.344C526.824 133.213 527.138 132.29 527.765 131.575C528.392 130.86 529.259 130.453 530.366 130.354V131.892C529.634 131.991 529.08 132.252 528.705 132.674C528.336 133.096 528.151 133.652 528.151 134.344C528.151 135.1 528.409 135.691 528.925 136.119C529.44 136.553 530.152 136.77 531.061 136.77C531.916 136.77 532.602 136.535 533.117 136.066C533.639 135.604 533.899 134.985 533.899 134.212C533.899 133.503 533.744 132.946 533.434 132.542L533.082 132.111L533.416 130.811Z" fill="black"/>
<path d="M515.793 187.711C516.183 188.102 516.817 188.102 517.207 187.711L523.571 181.347C523.962 180.957 523.962 180.324 523.571 179.933C523.181 179.543 522.547 179.543 522.157 179.933L516.5 185.59L510.843 179.933C510.453 179.543 509.819 179.543 509.429 179.933C509.038 180.324 509.038 180.957 509.429 181.347L515.793 187.711ZM515.5 128.996V187.004H517.5V128.996H515.5Z" fill="black"/>
<path d="M584.806 136.444H583.426V136.146C583.402 134.88 583.027 133.872 582.301 133.122C581.574 132.372 580.552 131.938 579.233 131.821C580.007 132.495 580.394 133.415 580.394 134.581C580.394 135.694 580.001 136.582 579.216 137.244C578.431 137.912 577.417 138.246 576.175 138.246C574.856 138.246 573.802 137.886 573.011 137.165C572.22 136.45 571.824 135.489 571.824 134.282C571.824 133.058 572.293 132.064 573.23 131.303C574.174 130.541 575.387 130.16 576.869 130.16H577.493C579.849 130.16 581.647 130.661 582.89 131.663C584.138 132.671 584.776 134.168 584.806 136.154V136.444ZM579.04 134.309C579.04 133.752 578.873 133.239 578.539 132.771C578.205 132.302 577.786 131.977 577.282 131.795H576.685C575.63 131.795 574.78 132.032 574.136 132.507C573.491 132.981 573.169 133.573 573.169 134.282C573.169 135.015 573.438 135.589 573.978 136.005C574.517 136.427 575.223 136.638 576.096 136.638C576.975 136.638 577.684 136.424 578.223 135.996C578.768 135.574 579.04 135.012 579.04 134.309Z" fill="black"/>
<path d="M560.793 187.711C561.183 188.102 561.817 188.102 562.207 187.711L568.571 181.347C568.962 180.957 568.962 180.324 568.571 179.933C568.181 179.543 567.547 179.543 567.157 179.933L561.5 185.59L555.843 179.933C555.453 179.543 554.819 179.543 554.429 179.933C554.038 180.324 554.038 180.957 554.429 181.347L560.793 187.711ZM560.5 128.996V187.004H562.5V128.996H560.5Z" fill="black"/>
<path d="M626.883 138.325L615 133.025V131.32L626.461 136.603V129.677H627.797V138.325H626.883Z" fill="black"/>
<path d="M604.305 187.719C604.702 188.103 605.335 188.092 605.719 187.695L611.972 181.222C612.356 180.825 612.345 180.192 611.948 179.808C611.551 179.424 610.918 179.435 610.534 179.832L604.976 185.586L599.222 180.028C598.825 179.644 598.192 179.655 597.808 180.052C597.424 180.449 597.435 181.082 597.832 181.466L604.305 187.719ZM603 129.017L604 187.017L606 186.983L605 128.983L603 129.017Z" fill="black"/>
<line x1="688" y1="114" x2="468" y2="114" stroke="black" stroke-width="4"/>
</svg>
