<?xml version="1.0" encoding="UTF-8" standalone="no"?>
<svg
   xmlns:dc="http://purl.org/dc/elements/1.1/"
   xmlns:cc="http://creativecommons.org/ns#"
   xmlns:rdf="http://www.w3.org/1999/02/22-rdf-syntax-ns#"
   xmlns:svg="http://www.w3.org/2000/svg"
   xmlns="http://www.w3.org/2000/svg"
   version="1.1"
   id="svg2"
   xml:space="preserve"
   width="356"
   height="100"
   preserveAspectRatio="xMidYMid slice"
   viewBox="0 0 456 128"><metadata
   id="metadata8"><rdf:RDF><cc:Work
       rdf:about=""><dc:format>image/svg+xml</dc:format><dc:type
         rdf:resource="http://purl.org/dc/dcmitype/StillImage" /></cc:Work></rdf:RDF></metadata><defs
   id="defs6">
</defs><path
   d="M 2.0265599,125.81459 H 455.14522 V 0.37498986 H 2.0265599 Z"
   style="fill:#c3c3c3;fill-opacity:1;fill-rule:evenodd;stroke:none;stroke-width:0.13333333"
   id="path14" /><path
   d="M 2.0265599,125.81459 H 455.14522 V 0.37498986 H 2.0265599 Z"
   style="fill:none;stroke:#c3c3c3;stroke-width:1.27376664;stroke-linecap:butt;stroke-linejoin:miter;stroke-miterlimit:10;stroke-dasharray:none;stroke-opacity:1"
   id="path16" /><text
   y="38.396935"
   x="17.392666"
   id="text30"
   style="font-variant:normal;font-weight:normal;font-size:15.36000061px;font-family:Helvetica;-inkscape-font-specification:Helvetica;writing-mode:lr-tb;fill:#000000;fill-opacity:1;fill-rule:nonzero;stroke:none;stroke-width:1.33333325"><tspan
     style="stroke-width:1.33333325"
     id="tspan20"
     y="38.396935"
     x="17.392666 26.777626 31.892506 40.432667 48.972824 54.087704 57.497623 65.17762 72.857628 77.127708 81.397789 89.937943 98.478104 102.74818 114.69827 119.81315 128.3533 136.89346 141.16354 145.43362 158.2285 166.76866 175.30882 179.5789 187.2589 191.52898 201.77411 210.31425 217.99426">Fredrick the Great meets Bach</tspan><tspan
     style="stroke-width:1.33333325"
     id="tspan22"
     y="56.316269"
     x="16.106207 23.786207 32.326366 40.866528 49.406685 57.946846 66.487007 70.757088 81.847008 85.256927 92.936928 101.47709 104.88701 113.42717 121.96733 129.64732 133.9174 143.30237 151.84251 156.9574 164.63742 173.17757">Johann Nikolaus Forkel</tspan><tspan
     style="stroke-width:1.33333325"
     id="tspan24"
     y="72.950134"
     x="17.386415 29.336496 37.876656 46.416817 50.686893 59.227055 66.907051 75.447212 83.987373 87.397293 95.937454 104.47762 108.7477 113.01778 116.4277 124.96785 132.64786 136.91794 141.18802 149.72818 157.40817 161.67827 170.21841 178.75856 183.02864 194.11858 202.65874 210.33873 214.60881 223.14897 231.68913 235.95921 240.22929 243.63921 252.17937 260.71951 264.98959 273.52975 276.9397 284.61969 288.88977 293.15985 296.56976 305.10992 309.38 317.92017 322.19025 327.30515 335.84531 344.38547 352.92563 360.60559 364.8757 373.41586 381.95602 390.49619 394.76624 403.3064 406.71631">One evening, just as he was getting his flute ready and his</tspan><tspan
     style="stroke-width:1.33333325"
     id="tspan26"
     y="88.309998"
     x="17.386415 30.181295 38.721455 46.401455 49.811375 57.491375 60.901295 69.441452 77.981613 85.661613 89.931694 101.02161 109.56178 114.67665 123.21681 127.48689 136.02705 143.70706 151.38705 159.92722 172.72209 181.26225 184.67216 193.21233 201.75249 206.02257 210.29265 218.83281 227.37297 231.64305 240.18321 244.45329 248.72337 252.13329 259.81329 268.35345 273.46832 277.7384 286.27856 291.39346 299.93362 308.47379 317.01395 325.55411 329.82419 334.09427 342.6344 346.04434 358.8392 363.10928 371.64944 375.91953 379.32947 382.73938 390.41934 394.68945 398.9595 407.49966">musicians were assembled, an officer brought him a list of</tspan><tspan
     style="stroke-width:1.33333325"
     id="tspan28"
     y="103.66987"
     x="17.386415 21.656496 30.196655 38.736816 43.006897 50.686893 54.956974 60.071854 68.612015 77.152176 85.692329 94.232491 99.347374 107.02737 111.29745 122.38737 130.92754 139.4677 143.73778 152.27795 160.81808 169.35825 173.62833 182.16849 187.28337 192.39825 195.80817 203.48816 212.02832 220.56848">the strangers who had arrived.</tspan></text>

</svg>