<?xml version="1.0" encoding="UTF-8" standalone="no"?>
<svg
   xmlns:dc="http://purl.org/dc/elements/1.1/"
   xmlns:cc="http://creativecommons.org/ns#"
   xmlns:rdf="http://www.w3.org/1999/02/22-rdf-syntax-ns#"
   xmlns:svg="http://www.w3.org/2000/svg"
   xmlns="http://www.w3.org/2000/svg"
   version="1.1"
   id="svg2"
   xml:space="preserve"
   width="354"
   height="126"
   preserveAspectRatio="xMidYMid slice"
   viewBox="0 0 453.33334 161.33333"><metadata
   id="metadata8"><rdf:RDF><cc:Work
       rdf:about=""><dc:format>image/svg+xml</dc:format><dc:type
         rdf:resource="http://purl.org/dc/dcmitype/StillImage" /></cc:Work></rdf:RDF></metadata><defs
   id="defs6">


</defs><path
   d="M 2.1552133,159.58854 H 452.69254 V 1.275214 H 2.1552133 Z"
   style="fill:#c3c3c3;fill-opacity:1;fill-rule:evenodd;stroke:none;stroke-width:0.13333333"
   id="path14" /><path
   d="M 2.1552133,159.58854 H 452.69254 V 1.275214 H 2.1552133 Z"
   style="fill:none;stroke:#c3c3c3;stroke-width:1.27376664;stroke-linecap:butt;stroke-linejoin:miter;stroke-miterlimit:10;stroke-dasharray:none;stroke-opacity:1"
   id="path16" /><text
   y="42.283867"
   x="17.492666"
   id="text22"
   style="font-variant:normal;font-weight:normal;font-size:20.47986603px;font-family:Helvetica;-inkscape-font-specification:Helvetica;writing-mode:lr-tb;fill:#000000;fill-opacity:1;fill-rule:nonzero;stroke:none;stroke-width:1.33333325"><tspan
     style="stroke-width:1.33333325"
     id="tspan20"
     y="42.283867"
     x="17.492666 30.005865 36.825661 48.212467 59.59927 66.419067 70.965599 81.205528 91.445465 97.138863 102.83226 114.21907 125.60588 131.29929 147.23262 154.05243 165.43922 176.82602 182.51942 188.21283 205.27257 216.65936 228.04617 233.73956 243.97949 249.67291 263.33298 274.71979 284.95972">Fredrick the Great meets Bach</tspan></text>

<text
   y="71.742668"
   x="18.772875"
   id="text26"
   style="font-style:oblique;font-variant:normal;font-size:15.36000061px;font-family:Helvetica;-inkscape-font-specification:Helvetica-Oblique;writing-mode:lr-tb;fill:#000000;fill-opacity:1;fill-rule:nonzero;stroke:none;stroke-width:1.33333325"><tspan
     style="stroke-width:1.33333325"
     id="tspan24"
     y="71.742668"
     x="18.772875 26.452873 34.993034 43.533192 52.073353 60.613514 69.153671 73.423752 84.513672 87.923592 95.603592 104.14375 107.55367 116.09383 124.634 132.314 136.58408 145.96902 154.50919 159.62407 167.30406 175.84422">Johann Nikolaus Forkel</tspan></text>

<text
   y="106.28333"
   x="20.053082"
   id="text34"
   style="font-variant:normal;font-weight:normal;font-size:15.36000061px;font-family:Helvetica;-inkscape-font-specification:Helvetica;writing-mode:lr-tb;fill:#000000;fill-opacity:1;fill-rule:nonzero;stroke:none;stroke-width:1.33333325"><tspan
     style="stroke-width:1.33333325"
     id="tspan28"
     y="106.28333"
     x="20.053082 32.003162 40.54332 49.083481 53.353561 61.893723 69.573723 78.113884 86.654045 90.063957 98.604118 107.14428 111.41436 115.68444 119.09436 127.63452 135.31453 139.58461 143.85468 152.39484 160.07484 164.34492 172.88509 181.42525 185.69533 196.78523 205.32539 213.00539 217.27547 225.81563 234.35579 238.62587 242.89595 246.30588 254.84604 263.3862 267.65628 276.19644 279.60635 287.28635 291.55643 295.82651 299.23645 307.77658 312.04666 320.58682 324.8569 329.9718 338.51196 347.05212 355.59229 363.27228 367.54236 376.08252 384.62265 393.16281 397.43292 405.97308 409.383">One evening, just as he was getting his flute ready and his</tspan><tspan
     style="stroke-width:1.33333325"
     id="tspan30"
     y="121.6432"
     x="20.053082 32.847961 41.388123 49.068123 52.478043 60.158043 63.567963 72.108116 80.648277 88.328285 92.598358 103.68828 112.22845 117.34332 125.88348 130.15356 138.69371 146.37372 154.05373 162.59389 175.38876 183.92892 187.33884 195.879 204.41916 208.68924 212.95932 221.49947 230.03963 234.30971 242.84987 247.11995 251.39003 254.79996 262.47995 271.02011 276.13501 280.40509 288.94522 294.06012 302.60028 311.14044 319.6806 328.22076 332.49084 336.76093 345.30109 348.711 361.50586 365.77594 374.3161 378.58618 381.99609 385.40601 393.08603 397.35614 401.62619 410.16635">musicians were assembled, an officer brought him a list of</tspan><tspan
     style="stroke-width:1.33333325"
     id="tspan32"
     y="137.00307"
     x="20.053082 24.323162 32.863323 41.403481 45.673561 53.353561 57.623642 62.738522 71.278679 79.81884 88.359001 96.899162 102.01404 109.69404 113.96412 125.05404 133.59419 142.13435 146.40443 154.9446 163.48476 172.02492 176.295 184.83516 189.95004 195.06491 198.47482 206.15485 214.69501 223.23517">the strangers who had arrived.</tspan></text>

</svg>