<?xml version="1.0" encoding="UTF-8" standalone="no"?>
<svg
   xmlns:dc="http://purl.org/dc/elements/1.1/"
   xmlns:cc="http://creativecommons.org/ns#"
   xmlns:rdf="http://www.w3.org/1999/02/22-rdf-syntax-ns#"
   xmlns:svg="http://www.w3.org/2000/svg"
   xmlns="http://www.w3.org/2000/svg"
   version="1.1"
   id="svg2"
   xml:space="preserve"
   width="243"
   height="334"
   preserveAspectRatio="xMidYMid slice"
   viewBox="0 0 310.66666 428"><metadata
     id="metadata8"><rdf:RDF><cc:Work
         rdf:about=""><dc:format>image/svg+xml</dc:format><dc:type
           rdf:resource="http://purl.org/dc/dcmitype/StillImage" /></cc:Work></rdf:RDF></metadata><defs
     id="defs6" /><g
     id="g10"
     transform="matrix(1.3333333,0,0,-1.3333333,0,428)"><g
       id="g12"
       transform="scale(0.1)"><path
         d="m 967.199,1292.4 h 403.199 v 640.801 H 967.199 Z"
         style="fill:#ffffbf;fill-opacity:1;fill-rule:evenodd;stroke:none"
         id="path14" /><path
         d="m 1118.4,1901.89 c -14.4,-26.5 -43.2,-79.5 -57.6,-122.86 -14.4,-43.37 -14.4,-77.09 13.2,-112.42 27.6,-35.34 82.8,-72.27 110.4,-108.41 27.6,-36.14 27.6,-71.47 14.4,-115.63 -13.2,-44.17 -39.6,-97.17 -52.8,-123.67 -13.2,-26.5 -13.2,-26.5 0,-26.5 13.2,0 39.6,0 52.8,0 13.2,0 13.2,0 26.4,26.5 13.2,26.5 39.6,79.5 52.8,123.67 13.2,44.16 13.2,79.49 -13.2,115.63 -26.4,36.14 -79.2,73.07 -105.6,108.41 -26.4,35.33 -26.4,69.05 -13.2,112.42 13.2,43.36 39.6,96.36 52.8,122.86 13.2,26.5 13.2,26.5 0,26.5 -13.2,0 -39.6,0 -52.8,0 -13.2,0 -13.2,0 -13.2,0 0,0 0,0 -14.4,-26.5"
         style="fill:#0000ff;fill-opacity:1;fill-rule:evenodd;stroke:none"
         id="path16" /><path
         d="m 967.199,2566.8 h 403.199 v 640.801 H 967.199 Z"
         style="fill:#ffffbf;fill-opacity:1;fill-rule:evenodd;stroke:none"
         id="path18" /><path
         d="m 967.199,1926 h 403.199 v 640.801 H 967.199 Z"
         style="fill:#ffffbf;fill-opacity:1;fill-rule:evenodd;stroke:none"
         id="path20" /><path
         d="m 967.199,658.801 h 403.199 v 640.801 H 967.199 Z"
         style="fill:#ffffbf;fill-opacity:1;fill-rule:evenodd;stroke:none"
         id="path22" /><path
         d="m 967.199,18 h 403.199 V 658.801 H 967.199 Z"
         style="fill:#ffffbf;fill-opacity:1;fill-rule:evenodd;stroke:none"
         id="path24" /><path
         d="m 1118.4,3176.29 c -14.4,-26.5 -43.2,-79.5 -57.6,-123.66 -14.4,-44.17 -14.4,-79.5 13.2,-114.84 27.6,-35.33 82.8,-70.66 110.4,-105.99 27.6,-35.34 27.6,-70.67 14.4,-114.84 -13.2,-44.16 -39.6,-97.16 -52.8,-123.66 -13.2,-26.5 -13.2,-26.5 0,-26.5 13.2,0 39.6,0 52.8,0 13.2,0 13.2,0 26.4,26.5 13.2,26.5 39.6,79.5 52.8,123.66 13.2,44.17 13.2,79.5 -13.2,114.84 -26.4,35.33 -79.2,70.66 -105.6,105.99 -26.4,35.34 -26.4,70.67 -13.2,114.84 13.2,44.16 39.6,97.16 52.8,123.66 13.2,26.5 13.2,26.5 0,26.5 -13.2,0 -39.6,0 -52.8,0 -13.2,0 -13.2,0 -13.2,0 0,0 0,0 -14.4,-26.5"
         style="fill:#0000ff;fill-opacity:1;fill-rule:evenodd;stroke:none"
         id="path26" /><path
         d="m 1118.4,2542.69 c -14.4,-26.5 -43.2,-79.5 -57.6,-123.67 -14.4,-44.16 -14.4,-79.49 13.2,-114.83 27.6,-35.33 82.8,-70.66 110.4,-105.99 27.6,-35.34 27.6,-70.67 14.4,-114.83 -13.2,-44.17 -39.6,-97.17 -52.8,-123.67 -13.2,-26.5 -13.2,-26.5 0,-26.5 13.2,0 39.6,0 52.8,0 13.2,0 13.2,0 26.4,26.5 13.2,26.5 39.6,79.5 52.8,123.67 13.2,44.16 13.2,79.49 -13.2,114.83 -26.4,35.33 -79.2,70.66 -105.6,105.99 -26.4,35.34 -26.4,70.67 -13.2,114.83 13.2,44.17 39.6,97.17 52.8,123.67 13.2,26.5 13.2,26.5 0,26.5 -13.2,0 -39.6,0 -52.8,0 -13.2,0 -13.2,0 -13.2,0 0,0 0,0 -14.4,-26.5"
         style="fill:#0000ff;fill-opacity:1;fill-rule:evenodd;stroke:none"
         id="path28" /><path
         d="m 1111.2,1268.29 c -14.4,-26.5 -43.2,-79.5 -57.6,-123.67 -14.4,-44.16 -14.4,-79.49 13.2,-114.83 27.6,-35.329 82.8,-70.661 110.4,-105.993 27.6,-35.332 27.6,-70.664 14.4,-114.832 -13.2,-44.164 -39.6,-97.164 -52.8,-123.664 -13.2,-26.496 -13.2,-26.496 0,-26.496 13.2,0 39.6,0 52.8,0 13.2,0 13.2,0 26.4,26.496 13.2,26.5 39.6,79.5 52.8,123.664 13.2,44.168 13.2,79.5 -13.2,114.832 -26.4,35.332 -79.2,70.664 -105.6,105.993 -26.4,35.34 -26.4,70.67 -13.2,114.83 13.2,44.17 39.6,97.17 52.8,123.67 13.2,26.5 13.2,26.5 0,26.5 -13.2,0 -39.6,0 -52.8,0 -13.2,0 -13.2,0 -13.2,0 0,0 0,0 -14.4,-26.5"
         style="fill:#0000ff;fill-opacity:1;fill-rule:evenodd;stroke:none"
         id="path30" /><path
         d="m 1118.4,627.484 c -14.4,-26.496 -43.2,-79.496 -57.6,-122.859 -14.4,-43.363 -14.4,-77.09 13.2,-112.422 27.6,-35.332 82.8,-72.269 110.4,-108.406 27.6,-36.133 27.6,-71.465 14.4,-115.633 C 1185.6,124 1159.2,71 1146,44.5039 c -13.2,-26.5 -13.2,-26.5 0,-26.5 13.2,0 39.6,0 52.8,0 13.2,0 13.2,0 26.4,26.5 C 1238.4,71 1264.8,124 1278,168.164 c 13.2,44.168 13.2,79.5 -13.2,115.633 -26.4,36.137 -79.2,73.074 -105.6,108.406 -26.4,35.332 -26.4,69.059 -13.2,112.422 13.2,43.363 39.6,96.363 52.8,122.859 13.2,26.5 13.2,26.5 0,26.5 -13.2,0 -39.6,0 -52.8,0 -13.2,0 -13.2,0 -13.2,0 0,0 0,0 -14.4,-26.5"
         style="fill:#0000ff;fill-opacity:1;fill-rule:evenodd;stroke:none"
         id="path32" /><g
         id="g34"
         transform="scale(10)"><text
   transform="matrix(1,0,0,-1,24.7199,104.286)"
   style="font-variant:normal;font-weight:bold;font-size:10.07999992px;font-family:Times;-inkscape-font-specification:Times-Bold;writing-mode:lr-tb;fill:#808080;fill-opacity:1;fill-rule:nonzero;stroke:none"
   id="text78"><tspan
     x="0 5.6044798 10.64448 16.24896 21.28896 23.80896 27.1656 31.641121 36.681122 40.037762 42.557758 48.162239 53.20224 58.806721 63.846722 66.366722 69.723358 74.198883 79.238876 82.59552 85.115517 90.720001 95.760002 101.36448 106.40448 108.92448 112.28112 116.75664 121.79664 125.15328 127.67328 133.27776 138.31776 143.92224 148.96223 151.48224 154.83888 159.31441 164.3544 167.71104 170.23103 175.83553 180.87552 186.48"
     y="0"
     id="tspan36">body text body text body text body text body</tspan><tspan
     x="0 3.3566401 7.83216 12.87216 16.2288 18.7488 24.353279 29.39328 34.997761 40.037762 42.557758 45.914398 50.389919 55.42992 58.78656 61.306561 66.911041 71.951042 77.555519 82.59552 85.115517 88.47216 92.947678 97.987679 101.34432"
     y="10.0801"
     id="tspan38">text body text body text.</tspan><tspan
     x="0 5.6044798 10.64448 16.24896 21.28896 23.80896 27.1656 31.641121 36.681122 40.037762 42.557758 48.162239 53.20224 58.806721 63.846722 66.366722 69.723358 74.198883 79.238876 82.59552 85.115517 90.720001 95.760002 101.36448 106.40448 108.92448 112.28112 116.75664 121.79664 125.15328 127.67328 133.27776 138.31776 143.92224 148.96223 151.48224 154.83888 159.31441 164.3544"
     y="30.239901"
     id="tspan40">body text body text body text body text</tspan><tspan
     x="0 5.6044798 10.64448 16.24896 21.28896 23.80896 27.1656 31.641121 36.681122"
     y="40.32"
     id="tspan42">body text</tspan><tspan
     x="0 5.6044798 10.64448 16.24896 21.28896 23.80896 27.1656 31.641121 36.681122 40.037762 42.557758 48.162239 53.20224 58.806721 63.846722 66.366722 69.723358 74.198883 79.238876 82.59552 85.115517 90.720001 95.760002 101.36448 106.40448 108.92448 112.28112 116.75664 121.79664 125.15328 127.67328 133.27776 138.31776 143.92224 148.96223 151.48224 154.83888 159.31441 164.3544 167.71104 170.23103 175.83553 180.87552 186.48"
     y="60.480202"
     id="tspan44">body text body text body text body text body</tspan><tspan
     x="0 3.3566401 7.83216 12.87216 16.2288 18.7488 24.353279 29.39328 34.997761 40.037762 42.557758 45.914398 50.389919 55.42992 58.78656 61.306561 66.911041 71.951042 77.555519 82.59552 85.115517 88.47216 92.947678 97.987679 101.34432 103.86432 109.4688 114.5088 120.11328 125.15328 127.67328 131.02992 135.50545 140.54544 143.90208 146.42207 152.02657 157.06656 162.67104 167.71104 170.23103 173.58768 178.0632 183.1032"
     y="70.560303"
     id="tspan46">text body text body text body text body text</tspan><tspan
     x="0 5.6044798 10.64448 16.24896 21.28896 23.80896 27.1656 31.641121 36.681122 40.037762 42.557758 48.162239 53.20224 58.806721 63.846722 66.366722 69.723358 74.198883 79.238876"
     y="80.640404"
     id="tspan48">body text body text</tspan><tspan
     x="0 5.6044798 10.64448 16.24896 21.28896 23.80896 27.1656 31.641121 36.681122 40.037762 42.557758 48.162239 53.20224 58.806721 63.846722 66.366722 69.723358 74.198883 79.238876 82.59552 85.115517 90.720001 95.760002 101.36448 106.40448 108.92448 112.28112 116.75664 121.79664 125.15328 127.67328 133.27776 138.31776 143.92224 148.96223 151.48224 154.83888 159.31441 164.3544 167.71104 170.23103 175.83553 180.87552 186.48"
     y="-95.039597"
     id="tspan50">body text body text body text body text body</tspan><tspan
     x="0 3.3566401 7.83216 12.87216 16.2288 18.7488 24.353279 29.39328 34.997761 40.037762 42.557758 45.914398 50.389919 55.42992 58.78656 61.306561 66.911041 71.951042 77.555519 82.59552 85.115517 88.47216 92.947678 97.987679 101.34432"
     y="-84.959503"
     id="tspan52">text body text body text.</tspan><tspan
     x="0 5.6044798 10.64448 16.24896 21.28896 23.80896 27.1656 31.641121 36.681122 40.037762 42.557758 48.162239 53.20224 58.806721 63.846722 66.366722 69.723358 74.198883 79.238876 82.59552 85.115517 90.720001 95.760002 101.36448 106.40448 108.92448 112.28112 116.75664 121.79664 125.15328 127.67328 133.27776 138.31776 143.92224 148.96223 151.48224 154.83888 159.31441 164.3544"
     y="-64.799301"
     id="tspan54">body text body text body text body text</tspan><tspan
     x="0 5.6044798 10.64448 16.24896 21.28896 23.80896 27.1656 31.641121 36.681122"
     y="-54.7192"
     id="tspan56">body text</tspan><tspan
     x="0 5.6044798 10.64448 16.24896 21.28896 23.80896 27.1656 31.641121 36.681122 40.037762 42.557758 48.162239 53.20224 58.806721 63.846722 66.366722 69.723358 74.198883 79.238876 82.59552 85.115517 90.720001 95.760002 101.36448 106.40448 108.92448 112.28112 116.75664 121.79664 125.15328 127.67328 133.27776 138.31776 143.92224 148.96223 151.48224 154.83888 159.31441 164.3544 167.71104 170.23103 175.83553 180.87552 186.48"
     y="-34.559399"
     id="tspan58">body text body text body text body text body</tspan><tspan
     x="0 3.3566401 7.83216 12.87216 16.2288 18.7488 24.353279 29.39328 34.997761 40.037762 42.557758 45.914398 50.389919 55.42992 58.78656 61.306561 66.911041 71.951042 77.555519 82.59552 85.115517 88.47216 92.947678 97.987679 101.34432 103.86432 109.4688 114.5088 120.11328 125.15328 127.67328 131.02992 135.50545 140.54544 143.90208 146.42207 152.02657 157.06656 162.67104 167.71104 170.23103 173.58768 178.0632 183.1032"
     y="-24.4793"
     id="tspan60">text body text body text body text body text</tspan><tspan
     x="0 5.6044798 10.64448 16.24896 21.28896 23.80896 27.1656 31.641121 36.681122 40.037762 42.557758 48.162239 53.20224 58.806721 63.846722 66.366722 69.723358 74.198883 79.238876"
     y="-14.3992"
     id="tspan62">body text body text</tspan><tspan
     x="0 5.6044798 10.64448 16.24896 21.28896 23.80896 27.1656 31.641121 36.681122 40.037762 42.557758 48.162239 53.20224 58.806721 63.846722 66.366722 69.723358 74.198883 79.238876 82.59552 85.115517 90.720001 95.760002 101.36448 106.40448 108.92448 112.28112 116.75664 121.79664 125.15328 127.67328 133.27776 138.31776 143.92224 148.96223 151.48224 154.83888 159.31441 164.3544 167.71104 170.23103 175.83553 180.87552 186.48"
     y="-198.71919"
     id="tspan64">body text body text body text body text body</tspan><tspan
     x="0 3.3566401 7.83216 12.87216 16.2288 18.7488 24.353279 29.39328 34.997761 40.037762 42.557758 45.914398 50.389919 55.42992 58.78656 61.306561 66.911041 71.951042 77.555519 82.59552 85.115517 88.47216 92.947678 97.987679 101.34432"
     y="-188.6391"
     id="tspan66">text body text body text.</tspan><tspan
     x="0 5.6044798 10.64448 16.24896 21.28896 23.80896 27.1656 31.641121 36.681122 40.037762 42.557758 48.162239 53.20224 58.806721 63.846722 66.366722 69.723358 74.198883 79.238876 82.59552 85.115517 90.720001 95.760002 101.36448 106.40448 108.92448 112.28112 116.75664 121.79664 125.15328 127.67328 133.27776 138.31776 143.92224 148.96223 151.48224 154.83888 159.31441 164.3544"
     y="-168.47929"
     id="tspan68">body text body text body text body text</tspan><tspan
     x="0 5.6044798 10.64448 16.24896 21.28896 23.80896 27.1656 31.641121 36.681122"
     y="-158.3992"
     id="tspan70">body text</tspan><tspan
     x="0 5.6044798 10.64448 16.24896 21.28896 23.80896 27.1656 31.641121 36.681122 40.037762 42.557758 48.162239 53.20224 58.806721 63.846722 66.366722 69.723358 74.198883 79.238876 82.59552 85.115517 90.720001 95.760002 101.36448 106.40448 108.92448 112.28112 116.75664 121.79664 125.15328 127.67328 133.27776 138.31776 143.92224 148.96223 151.48224 154.83888 159.31441 164.3544 167.71104 170.23103 175.83553 180.87552 186.48"
     y="-138.239"
     id="tspan72">body text body text body text body text body</tspan><tspan
     x="0 3.3566401 7.83216 12.87216 16.2288 18.7488 24.353279 29.39328 34.997761 40.037762 42.557758 45.914398 50.389919 55.42992 58.78656 61.306561 66.911041 71.951042 77.555519 82.59552 85.115517 88.47216 92.947678 97.987679 101.34432 103.86432 109.4688 114.5088 120.11328 125.15328 127.67328 131.02992 135.50545 140.54544 143.90208 146.42207 152.02657 157.06656 162.67104 167.71104 170.23103 173.58768 178.0632 183.1032"
     y="-128.1593"
     id="tspan74">text body text body text body text body text</tspan><tspan
     x="0 5.6044798 10.64448 16.24896 21.28896 23.80896 27.1656 31.641121 36.681122 40.037762 42.557758 48.162239 53.20224 58.806721 63.846722 66.366722 69.723358 74.198883 79.238876"
     y="-118.0796"
     id="tspan76">body text body text</tspan></text>

</g><path
         d="m 16.8008,18 h 2311.2 v 3189.6 h -2311.2 z"
         style="fill:none;stroke:#000000;stroke-width:7.19999981;stroke-linecap:butt;stroke-linejoin:miter;stroke-miterlimit:10;stroke-dasharray:14.4, 14.4, 14.4, 14.4, 14.4, 14.4, 14.4, 14.4;stroke-dashoffset:108;stroke-opacity:1"
         id="path80" /><path
         d="m 967.199,1292.4 h 403.199 v 640.801 H 967.199 Z"
         style="fill:none;stroke:#000000;stroke-width:7.19999981;stroke-linecap:butt;stroke-linejoin:miter;stroke-miterlimit:10;stroke-dasharray:none;stroke-opacity:1"
         id="path82" /><path
         d="m 1370.4,1933.2 205.2,277.2"
         style="fill:none;stroke:#000000;stroke-width:7.19999981;stroke-linecap:butt;stroke-linejoin:miter;stroke-miterlimit:10;stroke-dasharray:none;stroke-opacity:1"
         id="path84" /><g
         id="g86"
         transform="scale(10)"><text
   transform="matrix(1,0,0,-1,160.16,215.781)"
   style="font-variant:normal;font-weight:bold;font-size:10.07999992px;font-family:Helvetica;-inkscape-font-specification:Helvetica-Bold;writing-mode:lr-tb;fill:#000000;fill-opacity:1;fill-rule:nonzero;stroke:none"
   id="text90"><tspan
     x="0 5.6044798 11.20896 17.36784 20.72448 26.32896 30.25008 33.052319 35.854561 44.815681 50.420158 56.579041"
     y="0"
     id="tspan88">center image</tspan></text>

</g></g></g></svg>