<?xml version="1.0" encoding="UTF-8" standalone="no"?>
<!-- Created with Inkscape, vi and sed. -->
<svg
   xmlns:svg="http://www.w3.org/2000/svg"
   xmlns="http://www.w3.org/2000/svg"
   xmlns:xlink="http://www.w3.org/1999/xlink"
   width="455"
   height="340"
   version="1.1"
   font-family="Helvetica"
   >
  <g id="edges" fill="none" stroke="#000">
    <g id="margin-edge" stroke-width="3" stroke-dasharray="12, 3">
      <rect width="366" height="202" x="47.5" y="36.5" />
      <path d="m 174,268.5 40,0" />
    </g>
    <g id="border-edge" stroke-width="3">
      <rect width="301" height="150" x="79.5" y="62.5" />
      <path d="m 174,287.5 40,0" />
    </g>
    <g id="padding-edge" stroke-dasharray="12, 4">
      <rect width="255" height="102" x="102.5" y="86.5" />
      <path d="m 174,306.5 40,0" />
    </g>
    <g id="content-edge">
      <rect width="195" height="44" x="132.5" y="115.5" />
      <path d="m 174,325.5 40,0" />
    </g>
  </g>
  <g id="area-sides"
      font-size="12px" font-style="italic" font-weight="bold"
      text-align="center" text-anchor="middle">
    <text x="144" y="53" >TM</text>
    <text x="396" y="141" >RM</text>
    <text x="144" y="229" >BM</text>
    <text x="63" y="141" >LM</text>
    <text x="144" y="78" >TB</text>
    <text x="368" y="141" >RB</text>
    <text x="144" y="203" >BB</text>
    <text x="91" y="141" >LB</text>
    <text x="144" y="105" >TP</text>
    <text x="342" y="141" >RP</text>
    <text x="144" y="179" >BP</text>
    <text x="118" y="141" >LP</text>
  </g>
  <g id="direction" font-size="12px" display="none">
    <text x="134" y="29" >Top</text>
    <text x="419" y="141" >Right</text>
    <text x="135" y="252" >Bottom</text>
    <text x="18" y="141" >Left</text>
  </g>
  <g id="edge-legend" font-size="10px">
    <text x="227" y="272" >Margin edge</text>
    <text x="227" y="291" >Border edge</text>
    <text x="227" y="310" >Padding edge</text>
    <text x="227" y="329" >Content edge</text>
  </g>
  <g id="areas" font-size="12px" font-style="italic" font-weight="bold">
    <text x="208" y="53" >Margin (Transparent)</text>
    <text x="208" y="78" >Border</text>
    <text x="208" y="105" >Padding</text>
    <text x="208" y="141" >Content</text>
  </g>
</svg>
