<?xml version="1.0" encoding="UTF-8" standalone="no"?>
<svg
   xmlns:dc="http://purl.org/dc/elements/1.1/"
   xmlns:cc="http://creativecommons.org/ns#"
   xmlns:rdf="http://www.w3.org/1999/02/22-rdf-syntax-ns#"
   xmlns:svg="http://www.w3.org/2000/svg"
   xmlns="http://www.w3.org/2000/svg"
   version="1.1"
   id="svg2"
   xml:space="preserve"
   width="414"
   height="584"
   preserveAspectRatio="xMidYMid slice"
   viewBox="0 0 530.66669 749.33331"><metadata
     id="metadata8"><rdf:RDF><cc:Work
         rdf:about=""><dc:format>image/svg+xml</dc:format><dc:type
           rdf:resource="http://purl.org/dc/dcmitype/StillImage" /></cc:Work></rdf:RDF></metadata><defs
     id="defs6" /><g
     id="g10"
     transform="matrix(1.3333333,0,0,-1.3333333,0,749.33333)"><g
       id="g12"
       transform="scale(0.1)"><path
         d="M 236.199,685.43 V 2443.48 H 2529.04 V 685.43 H 236.199"
         style="fill:#ffff00;fill-opacity:1;fill-rule:evenodd;stroke:none"
         id="path14" /><path
         d="M 236.199,685.43 V 2443.48 H 2529.04 V 685.43 Z"
         style="fill:none;stroke:#000000;stroke-width:4.72424984;stroke-linecap:butt;stroke-linejoin:miter;stroke-miterlimit:10;stroke-dasharray:none;stroke-opacity:1"
         id="path16" /><g
         id="g18"
         transform="scale(10)"><text
   transform="matrix(1,0,0,-1,29.793,69.8027)"
   style="font-style:oblique;font-variant:normal;font-size:10.39340019px;font-family:Helvetica;-inkscape-font-specification:Helvetica-Oblique;writing-mode:lr-tb;fill:#000000;fill-opacity:1;fill-rule:nonzero;stroke:none"
   id="text22"><tspan
     x="0 7.504035 13.282765 16.172131 21.950861 27.729591 33.50832 39.287052 41.594387 47.373116"
     y="0"
     id="tspan20">UL padding</tspan></text>

</g><path
         d="m 510.207,1792.79 v 382.35 H 2168.73 V 1792.79 H 541.699"
         style="fill:#5151ff;fill-opacity:1;fill-rule:evenodd;stroke:none"
         id="path24" /><g
         id="g26"
         transform="scale(10)"><text
   transform="matrix(1,0,0,-1,56.5637,179.657)"
   style="font-style:oblique;font-variant:normal;font-size:10.39340019px;font-family:Helvetica;-inkscape-font-specification:Helvetica-Oblique;writing-mode:lr-tb;fill:#000000;fill-opacity:1;fill-rule:nonzero;stroke:none"
   id="text30"><tspan
     x="0 5.7787304 8.6680956 11.557461 17.336191 23.114922 28.893652 34.672382 36.979717 42.758446"
     y="0"
     id="tspan28">LI padding</tspan></text>

</g><path
         d="m 618.547,1906.8 v 153.7 H 2137.24 V 1906.8 H 618.547"
         style="fill:#5151ff;fill-opacity:1;fill-rule:evenodd;stroke:none"
         id="path32" /><g
         id="g34"
         transform="scale(10)"><text
   transform="matrix(1,0,0,-1,61.8547,191.121)"
   style="font-variant:normal;font-weight:normal;font-size:13.22789955px;font-family:Helvetica;-inkscape-font-specification:Helvetica;writing-mode:lr-tb;fill:#ffffff;fill-opacity:1;fill-rule:nonzero;stroke:none"
   id="text38"><tspan
     x="0 8.0822468 11.018841 15.423732 22.037682 25.715038 29.392393 36.747105 39.683701 47.038414 58.057255 65.411964 72.766678 76.444031 80.121391 87.476105 91.153458 94.830818 97.76741 100.704 107.31796"
     y="0"
     id="tspan36">First element of list</tspan></text>

</g><path
         d="m 239.98,3684.38 v 1713.96 h 2275.2 V 3684.38 H 239.98"
         style="fill:#ffff00;fill-opacity:1;fill-rule:evenodd;stroke:none"
         id="path40" /><g
         id="g42"
         transform="scale(10)"><text
   transform="matrix(1,0,0,-1,4.53398,55.9449)"
   style="font-style:oblique;font-variant:normal;font-size:10.39340019px;font-family:Helvetica;-inkscape-font-specification:Helvetica-Oblique;writing-mode:lr-tb;fill:#000000;fill-opacity:1;fill-rule:nonzero;stroke:none"
   id="text48"><tspan
     x="0 7.504035 13.282765 16.172131 24.829832 30.608562 34.069565 39.848297 42.155632 47.934361"
     y="0"
     id="tspan44">UL margins</tspan><tspan
     x="38.171902 43.95063 46.839996 49.729362 58.387062 64.165794 67.626793 73.405525 75.71286 81.491592"
     y="-30.046499"
     id="tspan46">LI margins</tspan></text>

</g><path
         d="M 388.637,838.496 V 2290.41 H 2375.97 V 838.496 Z"
         style="fill:none;stroke:#000000;stroke-width:4.72424984;stroke-linecap:butt;stroke-linejoin:miter;stroke-miterlimit:10;stroke-dasharray:none;stroke-opacity:1"
         id="path50" /><path
         d="m 617.918,1884.13 h 1550.82 v 183.301 H 617.918 Z"
         style="fill:none;stroke:#000000;stroke-width:4.72424984;stroke-linecap:butt;stroke-linejoin:miter;stroke-miterlimit:10;stroke-dasharray:none;stroke-opacity:1"
         id="path52" /><path
         d="m 502.648,990.93 -3.152,593.37 H 2174.4 V 990.93 H 541.699"
         style="fill:#5151ff;fill-opacity:1;fill-rule:evenodd;stroke:none"
         id="path54" /><g
         id="g56"
         transform="scale(10)"><text
   transform="matrix(1,0,0,-1,56.5637,100.353)"
   style="font-style:oblique;font-variant:normal;font-size:10.39340019px;font-family:Helvetica;-inkscape-font-specification:Helvetica-Oblique;writing-mode:lr-tb;fill:#000000;fill-opacity:1;fill-rule:nonzero;stroke:none"
   id="text60"><tspan
     x="0 5.7787304 8.6680956 11.557461 17.336191 23.114922 28.893652 34.672382 36.979717 42.758446"
     y="0"
     id="tspan58">LI padding</tspan></text>

</g><path
         d="m 618.547,1108.09 v 418.89 H 2146.69 V 1108.09 H 618.547"
         style="fill:#5151ff;fill-opacity:1;fill-rule:evenodd;stroke:none"
         id="path62" /><g
         id="g64"
         transform="scale(10)"><text
   transform="matrix(1,0,0,-1,61.8547,139.533)"
   style="font-variant:normal;font-weight:normal;font-size:13.22789955px;font-family:Helvetica;-inkscape-font-specification:Helvetica;writing-mode:lr-tb;fill:#ffffff;fill-opacity:1;fill-rule:nonzero;stroke:none"
   id="text72"><tspan
     x="0 8.8230095 16.177721 22.791672 30.146383 37.501095 44.855808 48.533165 55.887878 58.824471 66.179184 77.198021 84.552734 91.907448 95.584808 99.262161 106.61687 110.29423 113.97159 116.90818 119.84477 126.45872 130.13608 133.81343 136.75003 143.36398 147.04134"
     y="0"
     id="tspan66">Second element of list is a</tspan><tspan
     x="0 7.3547125 10.291306 13.968662 17.646019 20.582613 27.937325 35.292038 42.646751 50.001461 54.406353 58.08371 61.761066 69.115776 72.793137 75.729729 78.666321 81.602913 88.957626 95.571579 99.248932 103.65382 111.00854 114.68589"
     y="13.3539"
     id="tspan68">bit longer to illustrate</tspan><tspan
     x="0 9.5505438 13.955435 21.310146 28.66486 36.019573 38.956165 46.310879 53.665592"
     y="26.7707"
     id="tspan70">wrapping.</tspan></text>

</g><path
         d="M 7.54688,189.07 H 2767.77"
         style="fill:none;stroke:#000000;stroke-width:4.72424984;stroke-linecap:butt;stroke-linejoin:miter;stroke-miterlimit:10;stroke-dasharray:none;stroke-opacity:1"
         id="path74" /><path
         d="M 7.54688,189.07 83.1328,170.172 v 37.793 z"
         style="fill:none;stroke:#000000;stroke-width:4.72424984;stroke-linecap:butt;stroke-linejoin:miter;stroke-miterlimit:10;stroke-dasharray:none;stroke-opacity:1"
         id="path76" /><path
         d="m 2767.77,189.07 -76.22,18.895 v -37.793 z"
         style="fill:none;stroke:#000000;stroke-width:4.72424984;stroke-linecap:butt;stroke-linejoin:miter;stroke-miterlimit:10;stroke-dasharray:none;stroke-opacity:1"
         id="path78" /><g
         id="g80"
         transform="scale(10)"><text
   transform="matrix(1,0,0,-1,102.924,1.01758)"
   style="font-style:oblique;font-variant:normal;font-size:10.39340019px;font-family:Helvetica;-inkscape-font-specification:Helvetica-Oblique;writing-mode:lr-tb;fill:#000000;fill-opacity:1;fill-rule:nonzero;stroke:none"
   id="text84"><tspan
     x="0 6.9323978 12.711128 17.907827 20.797194 28.301228 30.608562 36.387295 39.276657 45.055389 47.944756 53.723484 56.61285 59.502216 67.006248"
     y="0"
     id="tspan82">Box width of UL</tspan></text>

</g><path
         d="M 2834.54,1831.85 V 1603.2"
         style="fill:none;stroke:#000000;stroke-width:4.72424984;stroke-linecap:butt;stroke-linejoin:miter;stroke-miterlimit:10;stroke-dasharray:none;stroke-opacity:1"
         id="path86" /><path
         d="m 2834.54,1831.85 -18.9,-76.22 h 37.79 z"
         style="fill:none;stroke:#000000;stroke-width:4.72424984;stroke-linecap:butt;stroke-linejoin:miter;stroke-miterlimit:10;stroke-dasharray:none;stroke-opacity:1"
         id="path88" /><path
         d="m 2834.54,1603.2 18.89,76.21 h -37.79 z"
         style="fill:none;stroke:#000000;stroke-width:4.72424984;stroke-linecap:butt;stroke-linejoin:miter;stroke-miterlimit:10;stroke-dasharray:none;stroke-opacity:1"
         id="path90" /><g
         id="g92"
         transform="scale(10)"><text
   transform="matrix(1,0,0,-1,291.139,168.193)"
   style="font-style:oblique;font-variant:normal;font-size:10.39340019px;font-family:Helvetica;-inkscape-font-specification:Helvetica-Oblique;writing-mode:lr-tb;fill:#000000;fill-opacity:1;fill-rule:nonzero;stroke:none"
   id="text100"><tspan
     x="0 7.504035 13.282765 15.5901 17.897434 23.676165 29.454895 34.651596 40.430325 46.209057 49.098423 57.756123 63.534855 66.995857 72.77459 75.081924 80.860649 83.750015 86.05735"
     y="0"
     id="tspan94">Collapsed margin is</tspan><tspan
     x="0 8.6577024 14.436433 19.633133 23.094135 28.872866 34.651596 40.430325 45.627026 48.516392 51.405758 57.184486 62.963219 68.741951 73.938644 77.399651 83.469398 89.248123 95.026855 100.80559"
     y="10.4566"
     id="tspan96">max(12px, 12px)=12px</tspan><tspan
     x="-198.23 -190.72597 -184.94724 -179.1685 -176.27914 -170.50041 -164.72168 -161.83231 -158.94295 -151.43892 -149.13158 -143.35284 -140.46349 -134.68475 -131.79538 -126.01665 -123.12729 -120.23792 -112.73389"
     y="136.6256"
     id="tspan98">Content width of UL</tspan></text>

</g><path
         d="M 388.637,475.672 H 2375.97"
         style="fill:none;stroke:#000000;stroke-width:4.72424984;stroke-linecap:butt;stroke-linejoin:miter;stroke-miterlimit:10;stroke-dasharray:none;stroke-opacity:1"
         id="path102" /><path
         d="m 388.637,475.672 76.847,-19.527 v 38.425 z"
         style="fill:none;stroke:#000000;stroke-width:4.72424984;stroke-linecap:butt;stroke-linejoin:miter;stroke-miterlimit:10;stroke-dasharray:none;stroke-opacity:1"
         id="path104" /><path
         d="m 2375.97,475.672 -76.22,18.898 v -38.425 z"
         style="fill:none;stroke:#000000;stroke-width:4.72424984;stroke-linecap:butt;stroke-linejoin:miter;stroke-miterlimit:10;stroke-dasharray:none;stroke-opacity:1"
         id="path106" /><path
         d="m 531.621,3923.75 v 593.99 H 2174.4 V 3923.75 H 531.621"
         style="fill:#5151ff;fill-opacity:1;fill-rule:evenodd;stroke:none"
         id="path108" /><path
         d="m 539.813,3931.93 v 576.99 H 2168.73 v -576.99 z"
         style="fill:none;stroke:#38fb30;stroke-width:9.44849968;stroke-linecap:butt;stroke-linejoin:miter;stroke-miterlimit:10;stroke-dasharray:56.691;stroke-dashoffset:0;stroke-opacity:1"
         id="path110" /><g
         id="g112"
         transform="scale(10)"><text
   transform="matrix(1,0,0,-1,61.5398,432.814)"
   style="font-variant:normal;font-weight:normal;font-size:13.22789955px;font-family:Helvetica;-inkscape-font-specification:Helvetica;writing-mode:lr-tb;fill:#ffffff;fill-opacity:1;fill-rule:nonzero;stroke:none"
   id="text120"><tspan
     x="0 8.8230095 16.177721 22.791672 30.146383 37.501095 44.855808 48.533165 55.887878 58.824471 66.179184 77.198021 84.552734 91.907448 95.584808 99.262161 106.61687 110.29423 113.97159 116.90818 119.84477 126.45872 130.13608 133.81343 136.75003 143.36398 147.04134"
     y="0"
     id="tspan114">Second element of list is a</tspan><tspan
     x="0 7.3547125 10.291306 13.968662 17.646019 20.582613 27.937325 35.292038 42.646751 50.001461 54.406353 58.08371 61.761066 69.115776 72.793137 75.729729 78.666321 81.602913 88.957626 95.571579 99.248932 103.65382 111.00854 114.68589"
     y="13.4168"
     id="tspan116">bit longer to illustrate</tspan><tspan
     x="0 9.5505438 13.955435 21.310146 28.66486 36.019573 38.956165 46.310879 53.665592"
     y="26.7707"
     id="tspan118">wrapping.</tspan></text>

</g><path
         d="m 532.254,4725.61 v 382.35 H 2168.73 V 4725.61 H 532.254"
         style="fill:#5151ff;fill-opacity:1;fill-rule:evenodd;stroke:none"
         id="path122" /><g
         id="g124"
         transform="scale(10)"><text
   transform="matrix(1,0,0,-1,61.5398,484.403)"
   style="font-variant:normal;font-weight:normal;font-size:13.22789955px;font-family:Helvetica;-inkscape-font-specification:Helvetica;writing-mode:lr-tb;fill:#ffffff;fill-opacity:1;fill-rule:nonzero;stroke:none"
   id="text128"><tspan
     x="0 8.0822468 11.018841 15.423732 22.037682 25.715038 29.392393 36.747105 39.683701 47.038414 58.057255 65.411964 72.766678 76.444031 80.121391 87.476105 91.153458 94.830818 97.76741 100.704 107.31796"
     y="0"
     id="tspan126">First element of list</tspan></text>

</g><path
         d="M 665.793,2806.3 H 2117.71"
         style="fill:none;stroke:#000000;stroke-width:4.72424984;stroke-linecap:butt;stroke-linejoin:miter;stroke-miterlimit:10;stroke-dasharray:none;stroke-opacity:1"
         id="path130" /><path
         d="m 665.793,2806.3 76.848,-18.89 v 38.42 z"
         style="fill:none;stroke:#000000;stroke-width:4.72424984;stroke-linecap:butt;stroke-linejoin:miter;stroke-miterlimit:10;stroke-dasharray:none;stroke-opacity:1"
         id="path132" /><path
         d="m 2117.71,2806.3 -76.22,19.53 v -38.42 z"
         style="fill:none;stroke:#000000;stroke-width:4.72424984;stroke-linecap:butt;stroke-linejoin:miter;stroke-miterlimit:10;stroke-dasharray:none;stroke-opacity:1"
         id="path134" /><g
         id="g136"
         transform="scale(10)"><text
   transform="matrix(1,0,0,-1,96.2473,288.567)"
   style="font-style:oblique;font-variant:normal;font-size:10.39340019px;font-family:Helvetica;-inkscape-font-specification:Helvetica-Oblique;writing-mode:lr-tb;fill:#000000;fill-opacity:1;fill-rule:nonzero;stroke:none"
   id="text140"><tspan
     x="0 7.504035 13.282765 19.061495 21.950861 27.729591 33.50832 36.397686 39.287052 46.791088 49.098423 54.877151 57.766518 63.545246 66.434616 72.213341 75.102707 77.992073 83.770805"
     y="0"
     id="tspan138">Content width of LI</tspan></text>

</g><path
         d="m 625.477,2059.24 v 749.58"
         style="fill:none;stroke:#000000;stroke-width:9.44849968;stroke-linecap:butt;stroke-linejoin:miter;stroke-miterlimit:10;stroke-dasharray:9.4485, 42.8332;stroke-dashoffset:42.83319855;stroke-opacity:1"
         id="path142" /><path
         d="m 2168.73,2065.54 v 724.39"
         style="fill:none;stroke:#000000;stroke-width:9.44849968;stroke-linecap:butt;stroke-linejoin:miter;stroke-miterlimit:10;stroke-dasharray:9.4485, 42.8332;stroke-dashoffset:42.83319855;stroke-opacity:1"
         id="path144" /><path
         d="m 510.836,1792.79 v 382.35 H 2168.73 v -382.35 l -1657.894,1.26"
         style="fill:none;stroke:#000000;stroke-width:4.72424984;stroke-linecap:butt;stroke-linejoin:miter;stroke-miterlimit:10;stroke-dasharray:none;stroke-opacity:1"
         id="path146" /><path
         d="m 619.18,1089.2 h 1549.55 v 412.586 H 619.18 Z"
         style="fill:none;stroke:#000000;stroke-width:4.72424984;stroke-linecap:butt;stroke-linejoin:miter;stroke-miterlimit:10;stroke-dasharray:none;stroke-opacity:1"
         id="path148" /><path
         d="M 510.836,997.859 V 1576.74 H 2168.73 V 997.859 Z"
         style="fill:none;stroke:#38fb30;stroke-width:9.44849968;stroke-linecap:butt;stroke-linejoin:miter;stroke-miterlimit:10;stroke-dasharray:56.691;stroke-dashoffset:0;stroke-opacity:1"
         id="path150" /></g></g></svg>