<?xml version="1.0" encoding="UTF-8" standalone="no"?>
<svg
   xmlns:dc="http://purl.org/dc/elements/1.1/"
   xmlns:cc="http://creativecommons.org/ns#"
   xmlns:rdf="http://www.w3.org/1999/02/22-rdf-syntax-ns#"
   xmlns:svg="http://www.w3.org/2000/svg"
   xmlns="http://www.w3.org/2000/svg"
   version="1.1"
   id="svg2"
   xml:space="preserve"
   width="243"
   height="141"
   preserveAspectRatio="xMidYMid slice"
   viewBox="0 0 310.66666 180"><metadata
   id="metadata8"><rdf:RDF><cc:Work
       rdf:about=""><dc:format>image/svg+xml</dc:format><dc:type
         rdf:resource="http://purl.org/dc/dcmitype/StillImage" /></cc:Work></rdf:RDF></metadata><defs
   id="defs6">


</defs><text
   y="48.190136"
   x="43.491199"
   id="text24"
   style="font-variant:normal;font-weight:normal;font-size:17.8326664px;font-family:Helvetica;-inkscape-font-specification:Helvetica;writing-mode:lr-tb;fill:#000000;fill-opacity:1;fill-rule:nonzero;stroke:none;stroke-width:1.33333325"><tspan
     style="stroke-width:1.33333325"
     id="tspan16"
     y="48.190136"
     x="43.491199 48.448681 53.406162 63.321125 72.237457 82.15242 92.067383 97.024864 101.98235 114.85753 124.77249 129.72998 135.66824 145.58322 155.49817 160.45566 170.37062 179.28696 189.20192 199.11688 209.03185 218.94681 227.86314 232.82062 237.77811 247.69305 252.65054 261.56686 271.48184 277.4201 286.33646">I used two red hyphens to serve</tspan><tspan
     style="stroke-width:1.33333325"
     id="tspan18"
     y="66.022934"
     x="43.491199 53.406162 62.322495 67.279976 77.194939 82.15242 91.068756 100.98372 110.89868 120.81364 130.72861 140.64355 145.60104 155.51601 165.43097 171.36925 176.32672 181.28421 192.17996 202.09492 212.00989 220.92624 225.88371 238.7589 242.71774 246.67661 250.63544 255.59294 261.92352 266.88101 270.83987 280.75482 290.66977 295.62726">as a change bar. They will &quot;float&quot;</tspan><tspan
     style="stroke-width:1.33333325"
     id="tspan20"
     y="83.855736"
     x="43.491199 48.448681 58.363644 63.321125 68.278603 78.193565 88.108528 93.06601 97.024864 106.93983 111.89731 116.85479 121.81227 131.72723 136.68471 141.6422 146.59967 156.51463 166.4296 171.38708 175.34593 179.30478 189.21976 199.13472 204.09218 213.00853 222.92349 232.83844 237.79593 247.71091 251.66974 261.58469 265.54355 275.45853">to the left of the line containing</tspan><tspan
     style="stroke-width:1.33333325"
     id="tspan22"
     y="101.68853"
     x="43.491199 54.386959 67.262146 72.219627 84.114014 89.071495 101.94668 111.86164 117.79992 127.71488">THIS word.</tspan></text>

<text
   y="101.04267"
   x="20.563066"
   id="text30"
   style="font-variant:normal;font-weight:normal;font-size:17.8326664px;font-family:Helvetica;-inkscape-font-specification:Helvetica;writing-mode:lr-tb;fill:#f91340;fill-opacity:1;fill-rule:nonzero;stroke:none;stroke-width:1.33333325"><tspan
     style="stroke-width:1.33333325"
     id="tspan28"
     y="101.04267"
     x="20.563066 30.977343">−−</tspan></text>

<path
   d="M 1.4567733,155.42347 H 42.217199"
   style="fill:none;stroke:#000000;stroke-width:1;stroke-linecap:butt;stroke-linejoin:miter;stroke-miterlimit:10;stroke-dasharray:none;stroke-opacity:1"
   id="path32" /><path
   d="M 11.64688,157.9708 1.4567733,155.42347 11.64688,152.876"
   style="fill:none;stroke:#000000;stroke-width:1;stroke-linecap:butt;stroke-linejoin:miter;stroke-miterlimit:10;stroke-dasharray:none;stroke-opacity:1"
   id="path34" /><path
   d="m 32.027066,152.876 10.190133,2.54747 -10.190133,2.54733"
   style="fill:none;stroke:#000000;stroke-width:1;stroke-linecap:butt;stroke-linejoin:miter;stroke-miterlimit:10;stroke-dasharray:none;stroke-opacity:1"
   id="path36" /><text
   y="174.16197"
   x="7.1885467"
   id="text42"
   style="font-variant:normal;font-weight:normal;font-size:14.01146698px;font-family:Helvetica;-inkscape-font-specification:Helvetica;writing-mode:lr-tb;fill:#000000;fill-opacity:1;fill-rule:nonzero;stroke:none;stroke-width:1.33333325"><tspan
     style="stroke-width:1.33333325"
     id="tspan40"
     y="174.16197"
     x="7.1885467 14.978922 22.769297 30.559673">10px</tspan></text>

<path
   d="M 1.4567733,136.3172 V 0.0240045"
   style="fill:none;stroke:#000000;stroke-width:1;stroke-linecap:butt;stroke-linejoin:miter;stroke-miterlimit:10;stroke-dasharray:none;stroke-opacity:1"
   id="path44" /><path
   d="M 309.70799,136.3172 V 0.0240045"
   style="fill:none;stroke:#000000;stroke-width:1;stroke-linecap:butt;stroke-linejoin:miter;stroke-miterlimit:10;stroke-dasharray:none;stroke-opacity:1"
   id="path46" /></svg>