<?xml version="1.0" encoding="UTF-8" standalone="no"?>
<svg
   xmlns:dc="http://purl.org/dc/elements/1.1/"
   xmlns:cc="http://creativecommons.org/ns#"
   xmlns:rdf="http://www.w3.org/1999/02/22-rdf-syntax-ns#"
   xmlns:svg="http://www.w3.org/2000/svg"
   xmlns="http://www.w3.org/2000/svg"
   version="1.1"
   id="svg2"
   xml:space="preserve"
   width="292"
   height="577"
   preserveAspectRatio="xMidYMid slice"
   viewBox="0 0 291.70667 577"><metadata
   id="metadata8"><rdf:RDF><cc:Work
       rdf:about=""><dc:format>image/svg+xml</dc:format><dc:type
         rdf:resource="http://purl.org/dc/dcmitype/StillImage" /></cc:Work></rdf:RDF></metadata><defs
   id="defs6">











</defs><path
   d="M 45.244266,264.93867 V 54.76668 H 236.30933 V 264.93867 H 45.244266"
   style="fill:#c2c1c0;fill-opacity:1;fill-rule:evenodd;stroke:none;stroke-width:0.13333333"
   id="path14" /><path
   d="M 45.244266,264.93867 V 54.76668 H 236.30933 v 210.17199 z"
   style="fill:none;stroke:#100f0d;stroke-width:2.54753327;stroke-linecap:butt;stroke-linejoin:miter;stroke-miterlimit:10;stroke-dasharray:none;stroke-opacity:1"
   id="path16" /><path
   d="M 64.351065,226.72534 V 73.873346 H 198.096 V 226.72534 H 64.351065"
   style="fill:#ffffff;fill-opacity:1;fill-rule:evenodd;stroke:none;stroke-width:0.13333333"
   id="path18" /><path
   d="M 64.351065,226.72534 V 73.873346 H 198.096 V 226.72534 Z"
   style="fill:none;stroke:#100f0d;stroke-width:2.54753327;stroke-linecap:butt;stroke-linejoin:miter;stroke-miterlimit:10;stroke-dasharray:15.28519962, 5.09506654;stroke-dashoffset:0;stroke-opacity:1"
   id="path20" /><path
   d="M 26.137999,54.76668 H 45.244266 M 26.137999,73.873346 H 45.244266 M 26.137999,92.980012 H 45.244266 M 26.137999,112.08668 h 19.106267 m -19.106267,19.10666 h 19.106267 m -19.106267,19.10667 h 19.106267 m -19.106267,19.10667 h 19.106267 m -19.106267,0 H 45.244266 M 26.137999,188.51334 H 45.244266 M 26.137999,207.61868 H 45.244266 M 26.137999,226.72534 H 45.244266 M 26.137999,245.83201 H 45.244266 M 26.137999,264.93867 H 45.244266 M 236.30933,35.660014 V 54.76668 M 217.20266,35.660014 V 54.76668 M 198.096,35.660014 V 54.76668 M 178.98933,35.660014 V 54.76668 M 159.88266,35.660014 V 54.76668 M 140.77733,35.660014 V 54.76668 m 0,-19.106666 V 54.76668 M 121.67026,35.660014 V 54.76668 M 102.564,35.660014 V 54.76668 M 83.457865,35.660014 V 54.76668 M 64.351065,35.660014 V 54.76668 M 45.244266,35.660014 V 54.76668"
   style="fill:none;stroke:#100f0d;stroke-width:2.54753327;stroke-linecap:butt;stroke-linejoin:miter;stroke-miterlimit:10;stroke-dasharray:none;stroke-opacity:1"
   id="path22" /><text
   y="58.544014"
   x="13.583333"
   id="text34"
   style="font-style:oblique;font-variant:normal;font-size:15.28519917px;font-family:Helvetica;-inkscape-font-specification:Helvetica-Oblique;writing-mode:lr-tb;fill:#100f0d;fill-opacity:1;fill-rule:nonzero;stroke:none;stroke-width:1.33333325"><tspan
     style="stroke-width:1.33333325"
     id="tspan26"
     y="58.544014"
     x="13.583333">0</tspan><tspan
     style="stroke-width:1.33333325"
     id="tspan28"
     y="31.544014"
     x="227.52199 236.02332">50</tspan><tspan
     style="stroke-width:1.33333325"
     id="tspan30"
     y="270.06534"
     x="0.0006663067 4.2474136 12.748067"> 55</tspan><tspan
     style="stroke-width:1.33333325"
     id="tspan32"
     y="215.54401"
     x="70.719467 78.362061 81.757912 85.153755 93.655067 97.901169 102.99113 111.4918 119.99245 123.38831 131.8896">clip region</tspan></text>

<path
   d="M 45.244266,555.35573 V 345.18801 H 236.30933 V 555.35573 H 45.244266"
   style="fill:#c2c1c0;fill-opacity:1;fill-rule:evenodd;stroke:none;stroke-width:0.13333333"
   id="path36" /><path
   d="M 45.244266,555.35573 V 345.18801 H 236.30933 v 210.16772 z"
   style="fill:none;stroke:#100f0d;stroke-width:2.54753327;stroke-linecap:butt;stroke-linejoin:miter;stroke-miterlimit:10;stroke-dasharray:none;stroke-opacity:1"
   id="path38" /><path
   d="M 64.895332,517.14533 V 364.29201 H 255.13333 V 517.14533 H 64.895332"
   style="fill:#ffffff;fill-opacity:1;fill-rule:evenodd;stroke:none;stroke-width:0.13333333"
   id="path40" /><path
   d="M 64.895332,517.14533 V 364.29201 H 255.13333 v 152.85332 z"
   style="fill:none;stroke:#100f0d;stroke-width:2.54753327;stroke-linecap:butt;stroke-linejoin:miter;stroke-miterlimit:10;stroke-dasharray:15.28519962, 5.09506654;stroke-dashoffset:0;stroke-opacity:1"
   id="path42" /><path
   d="m 26.137999,345.18801 h 19.106267 m -19.106267,19.104 H 45.244266 M 26.137999,383.39867 H 45.244266 M 26.137999,402.50534 H 45.244266 M 26.137999,421.612 h 19.106267 m -19.106267,19.10667 h 19.106267 m -19.106267,19.1068 h 19.106267 m -19.106267,0 h 19.106267 m -19.106267,19.10627 h 19.106267 m -19.106267,19.1068 H 45.244266 M 26.137999,517.14533 H 45.244266 M 26.137999,536.24947 H 45.244266 M 26.137999,555.35573 H 45.244266 M 236.30933,326.08001 v 19.108 m -19.10667,-19.108 v 19.108 m -19.10666,-19.108 v 19.108 m -19.10667,-19.108 v 19.108 m -19.10667,-19.108 v 19.108 m -19.10533,-19.108 v 19.108 m 0,-19.108 v 19.108 m -19.10707,-19.108 v 19.108 m -19.10626,-19.108 v 19.108 m -19.106135,-19.108 v 19.108 m -19.1068,-19.108 v 19.108 m -19.106799,-19.108 v 19.108"
   style="fill:none;stroke:#100f0d;stroke-width:2.54753327;stroke-linecap:butt;stroke-linejoin:miter;stroke-miterlimit:10;stroke-dasharray:none;stroke-opacity:1"
   id="path44" /><text
   y="322.62802"
   x="227.18799"
   id="text58"
   style="font-style:oblique;font-variant:normal;font-size:15.28519917px;font-family:Helvetica;-inkscape-font-specification:Helvetica-Oblique;writing-mode:lr-tb;fill:#100f0d;fill-opacity:1;fill-rule:nonzero;stroke:none;stroke-width:1.33333325"><tspan
     style="stroke-width:1.33333325"
     id="tspan48"
     y="322.62802"
     x="227.18799 235.6893">50</tspan><tspan
     style="stroke-width:1.33333325"
     id="tspan50"
     y="560.8147"
     x="4.9999871 13.500658">55</tspan><tspan
     style="stroke-width:1.33333325"
     id="tspan52"
     y="504.68921"
     x="70.718796 78.361397 81.75724 85.153091 93.654396 97.900497 102.99046 111.49113 119.99178 123.38763 131.88893">clip region</tspan><tspan
     style="stroke-width:1.33333325"
     id="tspan54"
     y="280.50253"
     x="140.77094 149.27223 157.77223 166.27356 174.77486 178.1707 185.81329 190.0607 198.5607 201.95653 210.45786 218.10046 225.74306 229.99045 238.49046 246.99176">#one’s block box</tspan><tspan
     style="stroke-width:1.33333325"
     id="tspan56"
     y="569.64789"
     x="140.77094 149.27223 153.51833 164.55739 173.05739 176.45325 184.09584 188.34193 196.84323 200.23907 208.7404 216.38232 224.02493 228.27103 236.77232 245.27364">#two’s block box</tspan></text>

<text
   y="145.41869"
   x="67.874535"
   id="text64"
   style="font-variant:normal;font-weight:normal;font-size:16px;font-family:Helvetica;writing-mode:lr-tb;fill:#ed1e24;fill-opacity:1;fill-rule:nonzero;stroke:none;stroke-width:1.33333325"><tspan
     style="stroke-width:1.33333325"
     id="tspan62"
     y="145.41869"
     x="67.874535 76.082535 84.962746">5px</tspan></text>

<path
   d="M 43.666666,140.75201 H 55.333332"
   style="fill:none;stroke:#ed1e24;stroke-width:2.66666651;stroke-linecap:butt;stroke-linejoin:miter;stroke-miterlimit:4;stroke-dasharray:none;stroke-opacity:1"
   id="path66" /><path
   d="m 58.482265,139.38534 c -2.204133,-0.66533 -3.636933,-1.27866 -5.405733,-1.988 v 6.72534 c 0.6328,-0.3 3.2016,-1.32267 5.405733,-1.98934 2.359467,-0.712 4.498933,-1.2 5.886533,-1.37333 -1.3876,-0.17467 -3.527066,-0.66133 -5.886533,-1.37467"
   style="fill:#ed1e24;fill-opacity:1;fill-rule:nonzero;stroke:none;stroke-width:0.13333333"
   id="path68" /><path
   d="M 43.666666,159.75201 H 190"
   style="fill:none;stroke:#ed1e24;stroke-width:2.66666651;stroke-linecap:butt;stroke-linejoin:miter;stroke-miterlimit:4;stroke-dasharray:none;stroke-opacity:1"
   id="path70" /><path
   d="m 193.148,158.38534 c -2.20267,-0.66533 -3.636,-1.27866 -5.404,-1.988 v 6.72534 c 0.632,-0.3 3.20133,-1.32267 5.404,-1.98934 2.36,-0.712 4.5,-1.2 5.88666,-1.37333 -1.38666,-0.17467 -3.52666,-0.66133 -5.88666,-1.37467"
   style="fill:#ed1e24;fill-opacity:1;fill-rule:nonzero;stroke:none;stroke-width:0.13333333"
   id="path72" /><text
   y="164.08534"
   x="200.99998"
   id="text78"
   style="font-variant:normal;font-weight:normal;font-size:16px;font-family:Helvetica;writing-mode:lr-tb;fill:#ed1e24;fill-opacity:1;fill-rule:nonzero;stroke:none;stroke-width:1.33333325"><tspan
     style="stroke-width:1.33333325"
     id="tspan76"
     y="164.08534"
     x="200.99998 209.20799 217.41599 226.29619">40px</tspan></text>

<path
   d="M 150.36,53.74268 V 65.409346"
   style="fill:none;stroke:#ed1e24;stroke-width:2.66666651;stroke-linecap:butt;stroke-linejoin:miter;stroke-miterlimit:4;stroke-dasharray:none;stroke-opacity:1"
   id="path80" /><path
   d="m 151.72533,68.558679 c 0.66667,-2.204 1.28,-3.637333 1.98933,-5.405333 h -6.72533 c 0.3,0.632 1.32267,3.201333 1.988,5.405333 0.71333,2.358667 1.20133,4.498667 1.37467,5.885334 0.17466,-1.386667 0.66133,-3.526667 1.37333,-5.885334"
   style="fill:#ed1e24;fill-opacity:1;fill-rule:nonzero;stroke:none;stroke-width:0.13333333"
   id="path82" /><path
   d="M 169.36,53.752013 V 218.74268"
   style="fill:none;stroke:#ed1e24;stroke-width:2.66666651;stroke-linecap:butt;stroke-linejoin:miter;stroke-miterlimit:4;stroke-dasharray:none;stroke-opacity:1"
   id="path84" /><path
   d="m 170.72533,221.89068 c 0.66667,-2.20267 1.28,-3.636 1.98933,-5.404 h -6.72533 c 0.3,0.632 1.32267,3.20133 1.988,5.404 0.71333,2.36 1.20133,4.5 1.37467,5.88666 0.17466,-1.38666 0.66133,-3.52666 1.37333,-5.88666"
   style="fill:#ed1e24;fill-opacity:1;fill-rule:nonzero;stroke:none;stroke-width:0.13333333"
   id="path86" /><text
   y="89.428009"
   x="138.87334"
   id="text94"
   style="font-variant:normal;font-weight:normal;font-size:16px;font-family:Helvetica;writing-mode:lr-tb;fill:#ed1e24;fill-opacity:1;fill-rule:nonzero;stroke:none;stroke-width:1.33333325"><tspan
     style="stroke-width:1.33333325"
     id="tspan90"
     y="89.428009"
     x="138.87334 147.08133 155.96153">5px</tspan><tspan
     style="stroke-width:1.33333325"
     id="tspan92"
     y="241.88802"
     x="154.33319 162.5412 170.74919 179.62939">45px</tspan></text>

<path
   d="M 43.999999,429.752 H 55.666665"
   style="fill:none;stroke:#ed1e24;stroke-width:2.66666651;stroke-linecap:butt;stroke-linejoin:miter;stroke-miterlimit:4;stroke-dasharray:none;stroke-opacity:1"
   id="path96" /><path
   d="m 58.815599,428.38534 c -2.204134,-0.66534 -3.636934,-1.27867 -5.405734,-1.988 v 6.72533 c 0.6328,-0.3 3.2016,-1.32267 5.405734,-1.98933 2.359466,-0.712 4.498933,-1.2 5.886533,-1.37334 -1.3876,-0.17466 -3.527067,-0.66133 -5.886533,-1.37466"
   style="fill:#ed1e24;fill-opacity:1;fill-rule:nonzero;stroke:none;stroke-width:0.13333333"
   id="path98" /><text
   y="434.75201"
   x="67.874535"
   id="text104"
   style="font-variant:normal;font-weight:normal;font-size:16px;font-family:Helvetica;writing-mode:lr-tb;fill:#ed1e24;fill-opacity:1;fill-rule:nonzero;stroke:none;stroke-width:1.33333325"><tspan
     style="stroke-width:1.33333325"
     id="tspan102"
     y="434.75201"
     x="67.874535 76.082535 84.962746">5px</tspan></text>

<path
   d="M 43.999999,450.4188 H 247.33333"
   style="fill:none;stroke:#ed1e24;stroke-width:2.66666651;stroke-linecap:butt;stroke-linejoin:miter;stroke-miterlimit:4;stroke-dasharray:none;stroke-opacity:1"
   id="path106" /><path
   d="m 250.48133,449.05214 c -2.20267,-0.66574 -3.636,-1.27867 -5.404,-1.98814 v 6.72507 c 0.632,-0.3 3.20133,-1.3224 5.404,-1.98907 2.36,-0.712 4.5,-1.2 5.88666,-1.37346 -1.38666,-0.1744 -3.52666,-0.66147 -5.88666,-1.3744"
   style="fill:#ed1e24;fill-opacity:1;fill-rule:nonzero;stroke:none;stroke-width:0.13333333"
   id="path108" /><text
   y="454.08548"
   x="259"
   id="text114"
   style="font-variant:normal;font-weight:normal;font-size:16px;font-family:Helvetica;writing-mode:lr-tb;fill:#ed1e24;fill-opacity:1;fill-rule:nonzero;stroke:none;stroke-width:1.33333325"><tspan
     style="stroke-width:1.33333325"
     id="tspan112"
     y="454.08548"
     x="259 267.20798 275.41599 284.2962">55px</tspan></text>

<path
   d="m 170.02666,344.07601 v 11.66666"
   style="fill:none;stroke:#ed1e24;stroke-width:2.66666651;stroke-linecap:butt;stroke-linejoin:miter;stroke-miterlimit:4;stroke-dasharray:none;stroke-opacity:1"
   id="path116" /><path
   d="m 171.392,358.89201 c 0.66666,-2.204 1.28,-3.63734 1.98933,-5.40534 H 166.656 c 0.3,0.63334 1.32266,3.20134 1.988,5.40534 0.71333,2.35866 1.20133,4.49866 1.37466,5.88666 0.17467,-1.388 0.66134,-3.528 1.37334,-5.88666"
   style="fill:#ed1e24;fill-opacity:1;fill-rule:nonzero;stroke:none;stroke-width:0.13333333"
   id="path118" /><path
   d="M 189.02666,343.75201 V 508.74267"
   style="fill:none;stroke:#ed1e24;stroke-width:2.66666651;stroke-linecap:butt;stroke-linejoin:miter;stroke-miterlimit:4;stroke-dasharray:none;stroke-opacity:1"
   id="path120" /><path
   d="m 190.392,511.89067 c 0.66666,-2.20267 1.28,-3.636 1.98933,-5.40427 H 185.656 c 0.3,0.63334 1.32266,3.2016 1.988,5.40427 0.71333,2.3588 1.20133,4.5 1.37466,5.888 0.17467,-1.388 0.66134,-3.5292 1.37334,-5.888"
   style="fill:#ed1e24;fill-opacity:1;fill-rule:nonzero;stroke:none;stroke-width:0.13333333"
   id="path122" /><text
   y="378.76401"
   x="157.53999"
   id="text130"
   style="font-variant:normal;font-weight:normal;font-size:16px;font-family:Helvetica;writing-mode:lr-tb;fill:#ed1e24;fill-opacity:1;fill-rule:nonzero;stroke:none;stroke-width:1.33333325"><tspan
     style="stroke-width:1.33333325"
     id="tspan126"
     y="378.76401"
     x="157.53999 165.748 174.6282">5px</tspan><tspan
     style="stroke-width:1.33333325"
     id="tspan128"
     y="532.55469"
     x="173.99986 182.20787 190.41586 199.29607">45px</tspan></text>

<text
   y="31.877348"
   x="39.25"
   id="text140"
   style="font-style:oblique;font-variant:normal;font-size:15.28519917px;font-family:Helvetica;-inkscape-font-specification:Helvetica-Oblique;writing-mode:lr-tb;fill:#100f0d;fill-opacity:1;fill-rule:nonzero;stroke:none;stroke-width:1.33333325"><tspan
     style="stroke-width:1.33333325"
     id="tspan134"
     y="31.877348"
     x="39.25">0</tspan><tspan
     style="stroke-width:1.33333325"
     id="tspan136"
     y="323.21066"
     x="39.916664">0</tspan><tspan
     style="stroke-width:1.33333325"
     id="tspan138"
     y="350.21066"
     x="13.583333">0</tspan></text>

<text
   y="-147"
   x="27.41868"
   id="text148"
   style="font-variant:normal;font-weight:normal;font-size:16px;font-family:Helvetica;writing-mode:lr-tb;fill:#ed1e24;fill-opacity:1;fill-rule:nonzero;stroke:none;stroke-width:1.33333325"
   transform="rotate(90)"><tspan
     style="stroke-width:1.33333325"
     id="tspan144"
     y="-147"
     x="27.41868 32.618553 41.402554">top</tspan><tspan
     style="stroke-width:1.33333325"
     id="tspan146"
     y="-167"
     x="-0.0058518867 9.0981464 17.882147 23.178146 28.377987 37.161987">bottom</tspan></text>

<text
   y="145.41869"
   x="17.159866"
   id="text158"
   style="font-variant:normal;font-weight:normal;font-size:16px;font-family:Helvetica;writing-mode:lr-tb;fill:#ed1e24;fill-opacity:1;fill-rule:nonzero;stroke:none;stroke-width:1.33333325"><tspan
     style="stroke-width:1.33333325"
     id="tspan150"
     y="145.41869"
     x="17.159866 20.935865 28.951866 33.799519">left</tspan><tspan
     style="stroke-width:1.33333325"
     id="tspan152"
     y="164.08534"
     x="6.9999733 12.295546 16.039545 24.983545 33.799305">right</tspan><tspan
     style="stroke-width:1.33333325"
     id="tspan154"
     y="436.75201"
     x="17.159866 20.935865 28.951866 33.799519">left</tspan><tspan
     style="stroke-width:1.33333325"
     id="tspan156"
     y="454.75201"
     x="6.9999733 12.295546 16.039545 24.983545 33.799305">right</tspan></text>

<text
   y="-166.33333"
   x="318.08533"
   id="text164"
   style="font-variant:normal;font-weight:normal;font-size:16px;font-family:Helvetica;writing-mode:lr-tb;fill:#ed1e24;fill-opacity:1;fill-rule:nonzero;stroke:none;stroke-width:1.33333325"
   transform="rotate(90)"><tspan
     style="stroke-width:1.33333325"
     id="tspan160"
     y="-166.33333"
     x="318.08533 323.28522 332.06921">top</tspan><tspan
     style="stroke-width:1.33333325"
     id="tspan162"
     y="-184.33333"
     x="290.66241 299.76642 308.55042 313.84641 319.0463 327.83029">bottom</tspan></text>

</svg>
