<?xml version="1.0" encoding="UTF-8" standalone="no"?>
<svg
   xmlns:dc="http://purl.org/dc/elements/1.1/"
   xmlns:cc="http://creativecommons.org/ns#"
   xmlns:rdf="http://www.w3.org/1999/02/22-rdf-syntax-ns#"
   xmlns:svg="http://www.w3.org/2000/svg"
   xmlns="http://www.w3.org/2000/svg"
   version="1.1"
   id="svg2"
   xml:space="preserve"
   width="114"
   height="72"
   preserveAspectRatio="xMidYMid slice"
   viewBox="0 0 145.33333 92"><metadata
   id="metadata8"><rdf:RDF><cc:Work
       rdf:about=""><dc:format>image/svg+xml</dc:format><dc:type
         rdf:resource="http://purl.org/dc/dcmitype/StillImage" /></cc:Work></rdf:RDF></metadata><defs
   id="defs6">

</defs><text
   y="46.602669"
   x="1.7130266"
   id="text18"
   style="font-style:italic;font-variant:normal;font-size:63.68826675px;font-family:New Century Schoolbook;writing-mode:lr-tb;fill:#000000;fill-opacity:1;fill-rule:nonzero;stroke:none;stroke-width:1.33333325"><tspan
     style="stroke-width:1.33333325"
     id="tspan16"
     y="46.602669"
     x="1.7130266 27.188332">&quot;A</tspan></text>

<text
   y="22.816668"
   x="78.139023"
   id="text30"
   style="font-variant:normal;font-weight:normal;font-size:15.28519917px;font-family:New Century Schoolbook;writing-mode:lr-tb;fill:#000000;fill-opacity:1;fill-rule:nonzero;stroke:none;stroke-width:1.33333325"><tspan
     style="stroke-width:1.33333325"
     id="tspan20"
     y="22.816668"
     x="78.139023 86.637596 91.452431 98.239059 107.01277 111.26205 116.07689">bird in</tspan><tspan
     style="stroke-width:1.33333325"
     id="tspan22"
     y="38.101601"
     x="78.139023 84.084969 93.424225 101.06683 105.31611 114.65536 123.15394 132.49319">the hand</tspan><tspan
     style="stroke-width:1.33333325"
     id="tspan24"
     y="53.386536"
     x="78.139023 82.953865 90.030907 94.280197 106.17208 113.81468 120.60131 126.54725">is worth</tspan><tspan
     style="stroke-width:1.33333325"
     id="tspan26"
     y="69.945335"
     x="1.713027 7.6589699 19.550856 27.193455 31.442741 36.25758 45.596836 49.846119 55.792065 65.131317 72.773918 77.023209 85.521774 94.861031 101.93808 111.27734 115.52662">two in the bush,&quot;</tspan><tspan
     style="stroke-width:1.33333325"
     id="tspan28"
     y="85.230263"
     x="1.713027 8.7900734 17.288645 25.496799 32.573845 36.823132 45.321701 54.660957 58.910244 66.552841 71.367683 80.141388 84.390671 93.164375 99.951004 107.59361 115.80176 123.44436 130.23099 138.72955">says an old proverb.</tspan></text>

</svg>