<?xml version="1.0" encoding="UTF-8" standalone="no"?>
<svg
   xmlns:dc="http://purl.org/dc/elements/1.1/"
   xmlns:cc="http://creativecommons.org/ns#"
   xmlns:rdf="http://www.w3.org/1999/02/22-rdf-syntax-ns#"
   xmlns:svg="http://www.w3.org/2000/svg"
   xmlns="http://www.w3.org/2000/svg"
   version="1.1"
   id="svg2"
   xml:space="preserve"
   width="318"
   height="306"
   preserveAspectRatio="xMidYMid slice"
   viewBox="0 0 406.66666 393.33334"><metadata
   id="metadata8"><rdf:RDF><cc:Work
       rdf:about=""><dc:format>image/svg+xml</dc:format><dc:type
         rdf:resource="http://purl.org/dc/dcmitype/StillImage" /></cc:Work></rdf:RDF></metadata><defs
   id="defs6">




</defs><path
   d="M 0.98645864,211.89333 V 73.653338 H 405.14666 V 211.89333 Z"
   style="fill:none;stroke:#000000;stroke-width:0.59999996;stroke-linecap:butt;stroke-linejoin:miter;stroke-miterlimit:10;stroke-dasharray:1.19999997, 4.79999988;stroke-dashoffset:36;stroke-opacity:1"
   id="path14" /><path
   d="M 0.98645864,392.37343 V 190.77334 H 405.14666 v 201.60009 z"
   style="fill:none;stroke:#000000;stroke-width:0.59999996;stroke-linecap:butt;stroke-linejoin:miter;stroke-miterlimit:10;stroke-dasharray:1.19999997, 4.79999988;stroke-dashoffset:36;stroke-opacity:1"
   id="path16" /><path
   d="M 22.106799,365.41306 V 216.61333 H 384.02666 v 148.79973 z"
   style="fill:none;stroke:#000000;stroke-width:0.59999996;stroke-linecap:butt;stroke-linejoin:miter;stroke-miterlimit:10;stroke-dasharray:1.19999997, 4.79999988;stroke-dashoffset:36;stroke-opacity:1"
   id="path18" /><path
   d="M 22.106799,185.25334 V 99.973337 H 384.02666 v 85.280003 z"
   style="fill:none;stroke:#000000;stroke-width:0.59999996;stroke-linecap:butt;stroke-linejoin:miter;stroke-miterlimit:10;stroke-dasharray:1.19999997, 4.79999988;stroke-dashoffset:36;stroke-opacity:1"
   id="path20" /><path
   d="M 22.026533,269.65307 V 121.09334 h 95.920397 v 148.55973 z"
   style="fill:none;stroke:#000000;stroke-width:0.59999996;stroke-linecap:butt;stroke-linejoin:miter;stroke-miterlimit:10;stroke-dasharray:1.19999997, 4.79999988;stroke-dashoffset:36;stroke-opacity:1"
   id="path22" /><path
   d="M 11.54688,371.25306 V 211.89333 h 383.03978 v 159.35973 z"
   style="fill:none;stroke:#ff1440;stroke-width:1.19999993;stroke-linecap:butt;stroke-linejoin:miter;stroke-miterlimit:10;stroke-dasharray:none;stroke-opacity:1"
   id="path24" /><path
   d="M 11.54688,190.85334 V 94.773337 h 383.03978 v 96.080003 z"
   style="fill:none;stroke:#ff1440;stroke-width:1.19999993;stroke-linecap:butt;stroke-linejoin:miter;stroke-miterlimit:10;stroke-dasharray:none;stroke-opacity:1"
   id="path26" /><path
   d="M 34.506799,258.13333 V 131.65334 H 106.34693 V 258.13333 H 34.506799"
   style="fill:#c2c2c2;fill-opacity:1;fill-rule:evenodd;stroke:none;stroke-width:0.13333333"
   id="path28" /><path
   d="M 34.506799,258.13333 V 131.65334 h 71.840131 v 126.47999 z"
   style="fill:none;stroke:#000000;stroke-width:1.19999993;stroke-linecap:butt;stroke-linejoin:miter;stroke-miterlimit:10;stroke-dasharray:none;stroke-opacity:1"
   id="path30" /><text
   y="117.49334"
   x="22.106798"
   id="text42"
   style="font-variant:normal;font-weight:normal;font-size:13.19999886px;font-family:Helvetica;-inkscape-font-specification:Helvetica;writing-mode:lr-tb;fill:#000000;fill-opacity:1;fill-rule:nonzero;stroke:none;stroke-width:1.33333325"><tspan
     style="stroke-width:1.33333325"
     id="tspan34"
     y="117.49334"
     x="22.106798 30.9112 38.250401 49.245998 56.585197 60.254799 66.854797 74.194 85.189598 92.528801 95.459198 102.79839 106.46799 110.1376 117.47679 124.0768 127.74639 131.416 134.34641 141.68559 145.35519 149.0248 156.364 163.7032 167.3728 171.04239 173.97279 178.36839 184.9684 188.638 192.30759 199.64679 206.98599 211.38159 218.72079 226.06 230.4556 237.7948 245.13399 252.47319 256.14279 259.81241 263.48199 267.15158 270.8212 278.1604 285.4996 292.09958 295.7692 303.1084 306.77798 310.4476 313.37799 320.71719 328.0564 331.72598 334.6564 341.99557">Some sample text in the first paragraph. It has a floating</tspan><tspan
     style="stroke-width:1.33333325"
     id="tspan36"
     y="138.6136"
     x="118.1068 121.03719 132.03281 139.37199 146.7112 154.0504 157.72 161.38959 168.72879 176.06799 179.73759 183.4072 192.93759 200.27679 206.8768 210.54639 214.942 217.87241 225.21159 232.55078 236.2204 239.89 247.22919 254.56841 261.90759 269.2468 272.91638 276.586 283.9252 291.26437 295.66 302.99918 306.66879 311.06439 319.8688 324.26437 327.93399 330.86441 338.20358 341.8732 345.54279 352.88199">image that was right about here (X) in the</tspan><tspan
     style="stroke-width:1.33333325"
     id="tspan38"
     y="159.73334"
     x="118.1068 124.70679 132.04599 139.38519 143.78079 150.3808 157.72 161.38959 165.0592 174.5896 181.9288 191.4592 198.7984 205.39841 212.73759 217.13321 220.8028 224.4724 228.142 235.4812 242.82039 246.48999 249.42039 260.41599 267.75519 275.09439 282.43359 286.10318 289.0336 295.63358 299.30319 305.9032 313.2424 316.91199 319.84238 327.18161 331.57718 338.91638 346.25558 349.9252 353.59479 360.93399 368.27316">source. However, the image is so large that</tspan><tspan
     style="stroke-width:1.33333325"
     id="tspan40"
     y="181.8136"
     x="118.1068 121.03719 124.70679 128.3764 135.71559 142.3156 145.9852 153.3244 160.6636 168.00279 174.6028 178.2724 185.6116 192.95079 195.8812 203.2204 212.75079 216.42039 220.09 227.4292 234.76839 238.43799 242.10759 249.44679 256.04678 259.7164 263.38599 270.72519 274.39481 278.06439 281.73398 289.07318 292.0036 298.60361 302.27319 309.6124 316.9516 321.3472 328.68637 336.0256 340.42117 347.76041 355.09958 362.43878">it extends below the text of this paragraph.</tspan></text>

<path
   d="M 106.34693,131.65334 34.426532,258.13333"
   style="fill:none;stroke:#000000;stroke-width:0.59999996;stroke-linecap:butt;stroke-linejoin:miter;stroke-miterlimit:10;stroke-dasharray:none;stroke-opacity:1"
   id="path44" /><text
   y="234.61333"
   x="118.1068"
   id="text62"
   style="font-variant:normal;font-weight:normal;font-size:13.19999886px;font-family:Helvetica;-inkscape-font-specification:Helvetica;writing-mode:lr-tb;fill:#000000;fill-opacity:1;fill-rule:nonzero;stroke:none;stroke-width:1.33333325"><tspan
     style="stroke-width:1.33333325"
     id="tspan48"
     y="234.61333"
     x="118.1068 126.172 133.5112 140.8504 144.52 151.12 158.4592 165.0592 172.39839 179.73759 187.0768 190.7464 198.0856 205.4248 209.8204 217.15959 224.49879 228.89439 236.2336 243.5728 250.91199 254.5816 257.51199 264.112 267.78159 271.4512 278.79041 286.12958 290.52518 297.86441 301.534 308.8732 313.2688 320.608 324.27759 331.61679 334.54721 341.14719">The second paragraph is therefore also</tspan><tspan
     style="stroke-width:1.33333325"
     id="tspan50"
     y="255.73306"
     x="118.1068 125.446 129.1156 132.7852 140.1244 146.7244 150.394 157.7332 165.0724 168.74199 172.41159 181.216 188.55519 195.1552 198.8248 201.7552 209.09439 212.0248 214.9552 222.2944 229.63361 233.30319 240.6424 247.9816 254.5816 261.92081 268.52078 272.1904 275.12079 282.45999 286.12958 289.06 292.72958 296.3992 303.73837 308.134 315.47318 319.14279 323.8288 331.168 338.50717 345.10721 352.44638 359.78558">affected. Any inline boxes in it are &quot;pushed</tspan><tspan
     style="stroke-width:1.33333325"
     id="tspan52"
     y="276.85278"
     x="118.1068 125.446 132.04601 134.97639 142.3156 149.6548 153.3244 158.01041 161.68001 169.0192 175.6192 179.2888 182.95839 190.29759 197.6368 204.2368 207.9064 215.24561 219.6412 226.98039 230.64999 234.3196 241.6588 246.0544 253.3936 256.32401 263.66321 271.00238 278.34158 285.68079 289.35037 293.01999 297.41559 304.75479 315.7504 319.41998 326.01999 333.35919 344.3548 347.28519 354.62439">aside,&quot; as they are forbidden from coming</tspan><tspan
     style="stroke-width:1.33333325"
     id="tspan54"
     y="297.97305"
     x="22.106802 25.037203 32.376404 38.976398 41.906799 49.246002 56.585201 60.254803 63.924404 71.263603 78.602798 82.2724 89.611603 94.007202 101.3464 108.6856 112.3552 119.6944 127.0336 129.964 132.89439 143.89 146.8204 150.49001 157.82919 165.1684 168.838 176.1772 182.77719 186.44679 190.11639 197.4556 204.7948 208.4644 212.134 215.06439 222.40359 229.7428 233.4124 236.3428 243.68199 251.02119 254.6908 257.62122 268.61679 275.95599 283.2952 290.6344 293.56479 300.16479 303.83438 314.82999 322.16919 326.56479 333.90399 336.83438 344.17358 350.77359">inside the area delimited by the floating image’s margins.</tspan><tspan
     style="stroke-width:1.33333325"
     id="tspan56"
     y="319.0928"
     x="22.106802 31.637197 38.976398 42.646 49.985199 53.6548 57.324402 64.663597 72.0028 75.672401 79.342003 83.011604 90.3508 97.690002 101.3596 108.6988 116.038 120.4336 127.7728 135.112 139.5076 146.8468 154.186 161.52521 165.19481 172.534 179.8732 186.47319 193.81239 200.4124 204.082 211.4212 215.8168 223.15601 226.82559 233.4256 237.0952 240.0256 242.95599 245.8864 249.556 253.9516 261.2908 267.89078 271.56039 278.8996 286.2388 293.57797 300.91721 303.8476 311.1868 315.5824 319.25198 322.9216 330.26077 337.60001">Note that the paragraph boxes are still rectangular, but</tspan><tspan
     style="stroke-width:1.33333325"
     id="tspan58"
     y="341.17307"
     x="22.106802 25.7764 33.115601 40.454803 43.385204 47.780804 51.450405 58.7896 66.128799 70.524406 77.863602 85.202805 89.598404 96.198402 99.868004 107.2072 114.5464 121.8856 125.5552 132.89439 140.2336 146.8336 153.43359 160.7728 165.1684 172.5076 179.8468 187.18599 194.52519 201.1252 204.7948 212.134 216.5296 223.8688 227.53839 232.2244 238.8244 241.75479 244.6852 252.0244 259.36359 266.70279 274.04199 278.728 282.39758 289.73679 294.13239 297.80197 300.73239 308.07159 311.74118 319.08038 323.47598 327.87158 335.21078 342.54999 346.21957 353.55881">their borders and backgrounds are &quot;clipped&quot; or interrupted</tspan><tspan
     style="stroke-width:1.33333325"
     id="tspan60"
     y="362.29279"
     x="22.106802 29.446005 36.046001 39.715603 43.385204 50.7244 58.063602 61.7332 65.402802 68.333199 75.672401 83.011604 86.681198 89.611603 96.950798 104.29 107.9596 110.89 121.8856 129.22479 136.564 143.9032">by the floating image.</tspan></text>

<path
   d="m 235.22666,73.813338 42.24,-53.199999"
   style="fill:none;stroke:#000000;stroke-width:0.59999996;stroke-linecap:butt;stroke-linejoin:miter;stroke-miterlimit:10;stroke-dasharray:none;stroke-opacity:1"
   id="path64" /><text
   y="10.93334"
   x="235.22665"
   id="text70"
   style="font-variant:normal;font-weight:bold;font-size:13.19999886px;font-family:Helvetica;-inkscape-font-specification:Helvetica-Bold;writing-mode:lr-tb;fill:#000000;fill-opacity:1;fill-rule:nonzero;stroke:none;stroke-width:1.33333325"><tspan
     style="stroke-width:1.33333325"
     id="tspan68"
     y="10.93334"
     x="235.22665 243.29185 250.63106 255.76585 263.10507 271.17026 276.30505 283.64426 291.70944 299.77466 303.44424 315.17905 322.51825 327.65305 335.71826 339.38785">paragraph margin</tspan></text>

<path
   d="M 76.106798,126.45334 44.266666,20.853339"
   style="fill:none;stroke:#000000;stroke-width:0.59999996;stroke-linecap:butt;stroke-linejoin:miter;stroke-miterlimit:10;stroke-dasharray:none;stroke-opacity:1"
   id="path72" /><text
   y="10.93334"
   x="23.066666"
   id="text80"
   style="font-variant:normal;font-weight:bold;font-size:13.19999886px;font-family:Helvetica;-inkscape-font-specification:Helvetica-Bold;writing-mode:lr-tb;fill:#000000;fill-opacity:1;fill-rule:nonzero;stroke:none;stroke-width:1.33333325"><tspan
     style="stroke-width:1.33333325"
     id="tspan76"
     y="10.93334"
     x="23.066666 26.736265 38.471066 45.810265 53.875465 61.214664 64.884262 76.619064 83.958267 89.093063 97.158264 100.82787">image margin</tspan><tspan
     style="stroke-width:1.33333325"
     id="tspan78"
     y="33.013607"
     x="107.54693 115.61214 122.95132 128.08614 135.42532 143.49052 148.62532 155.96452 164.02972 172.09492 175.76453 183.82973 191.89493 197.02974 205.09492 212.43413">paragraph border</tspan></text>

<path
   d="m 128.66666,41.333339 31.68,53.439998"
   style="fill:none;stroke:#000000;stroke-width:0.59999996;stroke-linecap:butt;stroke-linejoin:miter;stroke-miterlimit:10;stroke-dasharray:none;stroke-opacity:1"
   id="path82" /><path
   d="M 34.586399,131.65334 108.1068,259.33333"
   style="fill:none;stroke:#000000;stroke-width:0.59999996;stroke-linecap:butt;stroke-linejoin:miter;stroke-miterlimit:10;stroke-dasharray:none;stroke-opacity:1"
   id="path84" /><text
   y="54.133339"
   x="266.98666"
   id="text90"
   style="font-variant:normal;font-weight:bold;font-size:13.19999886px;font-family:Helvetica;-inkscape-font-specification:Helvetica-Bold;writing-mode:lr-tb;fill:#000000;fill-opacity:1;fill-rule:nonzero;stroke:none;stroke-width:1.33333325"><tspan
     style="stroke-width:1.33333325"
     id="tspan88"
     y="54.133339"
     x="266.98666 275.05185 282.39105 287.52585 294.86505 302.93027 308.06506 315.40427 323.46945 331.53467 335.20425 343.26947 350.60864 358.67386 366.73904 370.40866 378.47385">paragraph padding</tspan></text>

<path
   d="m 266.98666,99.573337 52.72,-36.479999"
   style="fill:none;stroke:#000000;stroke-width:0.59999996;stroke-linecap:butt;stroke-linejoin:miter;stroke-miterlimit:10;stroke-dasharray:none;stroke-opacity:1"
   id="path92" /></svg>