<?xml version="1.0" encoding="UTF-8" standalone="no"?>
<svg
   xmlns:dc="http://purl.org/dc/elements/1.1/"
   xmlns:cc="http://creativecommons.org/ns#"
   xmlns:rdf="http://www.w3.org/1999/02/22-rdf-syntax-ns#"
   xmlns:svg="http://www.w3.org/2000/svg"
   xmlns="http://www.w3.org/2000/svg"
   version="1.1"
   id="svg2"
   xml:space="preserve"
   width="319"
   height="286"
   preserveAspectRatio="xMidYMid slice"
   viewBox="0 0 408 368"><metadata
   id="metadata8"><rdf:RDF><cc:Work
       rdf:about=""><dc:format>image/svg+xml</dc:format><dc:type
         rdf:resource="http://purl.org/dc/dcmitype/StillImage" /></cc:Work></rdf:RDF></metadata><defs
   id="defs6"><clipPath
   clipPathUnits="userSpaceOnUse"
   id="clipPath108"><path
     d="M 0,0 H 3060 V 2760 H 0 Z m 1974.49,914.547 h -22.68 l -7.56,54.801 h 37.8 z m -22.68,249.443 h 22.68 l 7.56,-54.8 h -37.8 z"
     id="path106"
     style="clip-rule:evenodd" /></clipPath>




</defs><path
   d="m 12.732813,344.49267 v -73.74 H 395.71199 v 73.74 z"
   style="fill:none;stroke:#ff1440;stroke-width:1.25979996;stroke-linecap:butt;stroke-linejoin:miter;stroke-miterlimit:10;stroke-dasharray:none;stroke-opacity:1"
   id="path14" /><path
   d="M 2.1505199,213.30534 V 75.064007 H 406.29466 l -0.924,139.249333 z"
   style="fill:none;stroke:#000000;stroke-width:0.62989998;stroke-linecap:butt;stroke-linejoin:miter;stroke-miterlimit:10;stroke-dasharray:1.25979997, 5.03919987;stroke-dashoffset:37.79399872;stroke-opacity:1"
   id="path16" /><path
   d="M 23.231199,186.68134 V 101.35201 H 385.13066 v 85.32933 z"
   style="fill:none;stroke:#000000;stroke-width:0.62989998;stroke-linecap:butt;stroke-linejoin:miter;stroke-miterlimit:10;stroke-dasharray:1.25979997, 5.03919987;stroke-dashoffset:37.79399872;stroke-opacity:1"
   id="path18" /><path
   d="M 0.97499998,365.48959 V 244.5484 H 405.37066 l 0.924,122.20056 H 2.1505199"
   style="fill:none;stroke:#000000;stroke-width:0.62989998;stroke-linecap:butt;stroke-linejoin:miter;stroke-miterlimit:10;stroke-dasharray:1.25979997, 5.03919987;stroke-dashoffset:37.79399872;stroke-opacity:1"
   id="path20" /><path
   d="M 23.231199,340.8812 V 276.1276 H 385.13066 v 64.7536 z"
   style="fill:none;stroke:#000000;stroke-width:0.62989998;stroke-linecap:butt;stroke-linejoin:miter;stroke-miterlimit:10;stroke-dasharray:1.25979997, 5.03919987;stroke-dashoffset:37.79399872;stroke-opacity:1"
   id="path22" /><path
   d="M 23.147333,271.08854 V 122.51601 h 95.912527 v 148.57253 z"
   style="fill:none;stroke:#000000;stroke-width:0.62989998;stroke-linecap:butt;stroke-linejoin:miter;stroke-miterlimit:10;stroke-dasharray:1.25979997, 5.03919987;stroke-dashoffset:37.79399872;stroke-opacity:1"
   id="path24" /><path
   d="M 12.732813,192.22534 V 96.228007 H 395.71199 v 95.997333 z"
   style="fill:none;stroke:#ff1440;stroke-width:1.25979996;stroke-linecap:butt;stroke-linejoin:miter;stroke-miterlimit:10;stroke-dasharray:none;stroke-opacity:1"
   id="path26" /><path
   d="m 35.661466,259.58227 v -126.4836 h 71.808264 v 126.4836 H 35.661466"
   style="fill:#c2c2c2;fill-opacity:1;fill-rule:evenodd;stroke:none;stroke-width:0.13333333"
   id="path28" /><path
   d="m 35.661466,259.58227 v -126.4836 h 71.808264 v 126.4836 z"
   style="fill:none;stroke:#000000;stroke-width:1.25979996;stroke-linecap:butt;stroke-linejoin:miter;stroke-miterlimit:10;stroke-dasharray:none;stroke-opacity:1"
   id="path30" /><text
   y="118.90534"
   x="23.231199"
   id="text42"
   style="font-variant:normal;font-weight:normal;font-size:13.85786629px;font-family:Helvetica;-inkscape-font-specification:Helvetica;writing-mode:lr-tb;fill:#000000;fill-opacity:1;fill-rule:nonzero;stroke:none;stroke-width:1.33333325"><tspan
     style="stroke-width:1.33333325"
     id="tspan34"
     y="118.90534"
     x="23.231199 32.474396 40.179371 51.722973 59.427944 63.280434 70.209366 77.914337 89.457939 97.16291 100.23936 107.94434 111.79682 115.64931 123.35429 130.28322 134.13571 137.98819 141.06464 148.76961 152.6221 156.47458 164.17957 171.88455 175.737 179.58951 182.66595 187.28062 194.20955 198.06204 201.91452 209.61951 217.32448 221.93915 229.64412 237.34909 241.96376 249.66873 257.37372 265.07867 268.93115 272.78366 276.63614 280.48865 284.34113 292.04608 299.75107 306.67999 310.53247 318.23746 322.08994 325.94244 329.01886 336.72385 344.42883 348.28131 351.35776 359.06274">Some sample text in the first paragraph. It has a floating</tspan><tspan
     style="stroke-width:1.33333325"
     id="tspan36"
     y="139.98601"
     x="119.22813 122.30458 133.84818 141.55316 149.25812 156.9631 160.81558 164.66808 172.37305 180.07802 183.93051 187.78299 197.78836 205.49335 212.42227 216.27478 220.88943 223.96588 231.67085 239.37582 243.22832 247.0808 254.78578 262.49075 270.19574 277.9007 281.75317 285.60565 293.31064 301.01562 305.63028 313.33527 317.18774 321.80243 331.04562 335.66028 339.51276 342.58923 350.29419 354.14667 357.99918 365.70413">image that was right about here (X) in the</tspan><tspan
     style="stroke-width:1.33333325"
     id="tspan38"
     y="161.15054"
     x="119.22813 126.15706 133.86203 141.56702 146.18167 153.11061 160.81558 164.66808 168.52057 178.52594 186.23091 196.2363 203.94125 210.87019 218.57516 223.18985 227.04233 230.89481 234.74731 242.45229 250.15726 254.00974 257.08618 268.62979 276.33478 284.03973 291.74469 295.5972 298.67365 305.60257 309.45508 316.384 324.08896 327.94147 331.01788 338.72287 343.33752 351.04251 358.7475 362.59998 366.45245 374.15741 381.86243">source. However, the image is so large that</tspan><tspan
     style="stroke-width:1.33333325"
     id="tspan40"
     y="183.23907"
     x="119.22813 122.30458 126.15706 130.00955 137.71452 144.64346 148.49594 156.20093 163.90588 171.61087 178.53979 182.39229 190.09726 197.80225 200.87868 208.58365 218.58902 222.44153 226.29401 233.99898 241.70395 245.55643 249.40892 257.11389 264.04285 267.89532 271.7478 279.45276 283.30527 287.15775 291.01025 298.71521 301.79166 308.72058 312.57309 320.27805 327.98303 332.59772 340.30267 348.00763 352.62231 360.32727 368.03226 375.73724">it extends below the text of this paragraph.</tspan></text>

<path
   d="M 107.46973,133.09867 35.577599,259.58227"
   style="fill:none;stroke:#000000;stroke-width:0.62989998;stroke-linecap:butt;stroke-linejoin:miter;stroke-miterlimit:10;stroke-dasharray:none;stroke-opacity:1"
   id="path44" /><path
   d="M 236.38933,75.230674 278.63466,22.068009"
   style="fill:none;stroke:#000000;stroke-width:0.62989998;stroke-linecap:butt;stroke-linejoin:miter;stroke-miterlimit:10;stroke-dasharray:none;stroke-opacity:1"
   id="path46" /><text
   y="12.325342"
   x="236.38933"
   id="text52"
   style="font-variant:normal;font-weight:bold;font-size:13.85786629px;font-family:Helvetica;-inkscape-font-specification:Helvetica-Bold;writing-mode:lr-tb;fill:#000000;fill-opacity:1;fill-rule:nonzero;stroke:none;stroke-width:1.33333325"><tspan
     style="stroke-width:1.33333325"
     id="tspan50"
     y="12.325342"
     x="236.38933 244.85649 252.56146 257.95218 265.65714 274.1243 279.51501 287.21997 295.68713 304.1543 308.00677 320.32642 328.0314 333.42212 341.88925 345.74176">paragraph margin</tspan></text>

<path
   d="M 77.234931,127.89067 45.403599,22.236009"
   style="fill:none;stroke:#000000;stroke-width:0.62989998;stroke-linecap:butt;stroke-linejoin:miter;stroke-miterlimit:10;stroke-dasharray:none;stroke-opacity:1"
   id="path54" /><text
   y="12.325342"
   x="24.239065"
   id="text62"
   style="font-variant:normal;font-weight:bold;font-size:13.85786629px;font-family:Helvetica;-inkscape-font-specification:Helvetica-Bold;writing-mode:lr-tb;fill:#000000;fill-opacity:1;fill-rule:nonzero;stroke:none;stroke-width:1.33333325"><tspan
     style="stroke-width:1.33333325"
     id="tspan58"
     y="12.325342"
     x="24.239065 28.091553 40.411198 48.116169 56.583328 64.2883 68.140785 80.460426 88.165405 93.556114 102.02327 105.87576">image margin</tspan><tspan
     style="stroke-width:1.33333325"
     id="tspan60"
     y="34.413876"
     x="108.72973 117.19689 124.90186 130.29257 137.99754 146.46471 151.85541 159.56038 168.02754 176.49471 180.34718 188.81433 197.28149 202.67221 211.13937 218.84433">paragraph border</tspan></text>

<path
   d="m 129.8104,42.728008 31.66293,53.499999"
   style="fill:none;stroke:#000000;stroke-width:0.62989998;stroke-linecap:butt;stroke-linejoin:miter;stroke-miterlimit:10;stroke-dasharray:none;stroke-opacity:1"
   id="path64" /><path
   d="m 35.745332,133.09867 73.488528,127.6592"
   style="fill:none;stroke:#000000;stroke-width:0.62989998;stroke-linecap:butt;stroke-linejoin:miter;stroke-miterlimit:10;stroke-dasharray:none;stroke-opacity:1"
   id="path66" /><text
   y="55.578674"
   x="268.13599"
   id="text72"
   style="font-variant:normal;font-weight:bold;font-size:13.85786629px;font-family:Helvetica;-inkscape-font-specification:Helvetica-Bold;writing-mode:lr-tb;fill:#000000;fill-opacity:1;fill-rule:nonzero;stroke:none;stroke-width:1.33333325"><tspan
     style="stroke-width:1.33333325"
     id="tspan70"
     y="55.578674"
     x="268.13599 276.60315 284.30811 289.69882 297.40381 305.87097 311.26166 318.96664 327.43381 335.90097 339.75345 348.22061 355.92557 364.39273 372.85989 376.71237 385.17953">paragraph padding</tspan></text>

<path
   d="m 268.13599,101.01601 52.744,-36.534669"
   style="fill:none;stroke:#000000;stroke-width:0.62989998;stroke-linecap:butt;stroke-linejoin:miter;stroke-miterlimit:10;stroke-dasharray:none;stroke-opacity:1"
   id="path74" /><text
   y="293.59695"
   x="34.737465"
   id="text84"
   style="font-variant:normal;font-weight:normal;font-size:13.85786629px;font-family:Helvetica;-inkscape-font-specification:Helvetica;writing-mode:lr-tb;fill:#000000;fill-opacity:1;fill-rule:nonzero;stroke:none;stroke-width:1.33333325"><tspan
     style="stroke-width:1.33333325"
     id="tspan78"
     y="293.59695"
     x="34.737465 43.204624 50.909595 53.986042 60.914974 64.767464 72.472435 80.177414 84.792084 92.497055 100.20203 104.8167 112.52167 120.22664 127.93162 131.7841 139.48907 147.19405 154.12299 157.97546 161.05191 164.9044 171.83334 175.68582 178.76227 185.69121 188.76764 196.47263 204.1776 208.79227 211.86871 215.72121 223.42618 228.04085 235.74582 243.45081 251.15576 255.77045 262.69937 266.55185 273.48077 281.18576 285.03824 288.89075 292.74323 300.44818 304.30069 307.37714 310.45355 318.15854 322.01105 325.86353 329.716 332.79245 336.64496 343.57388">This paragraph has its ’clear’ propery set to ’left,’ so</tspan><tspan
     style="stroke-width:1.33333325"
     id="tspan80"
     y="314.76147"
     x="34.737465 38.589954 46.294926 53.999901 57.852386 61.704876 64.781319 68.633804 72.48629 82.491669 85.568115 88.644562 91.721008 95.573502 103.27847 110.98344 114.83594 118.68842 126.3934 131.00806 137.937 145.64197 153.34694 157.19943 161.05191 168.7569 172.60938 180.31436 188.01933 191.87181 199.57678 207.28175 210.35822 218.06319 228.06856 231.92105 239.62601 247.33099 254.25992 258.11243 261.18884 268.89383 272.74631 276.59882 284.6918 288.54428 291.62073 299.32571 307.03067 310.88318 313.95959 321.66458 329.36957 333.22205 336.29849 347.8421 355.54706 363.25204 370.95703 377.88593">that it will be forced to be below any left−floating images.</tspan><tspan
     style="stroke-width:1.33333325"
     id="tspan82"
     y="336.85001"
     x="34.737465 43.204624 50.909595 53.986042 60.914974 64.767464 67.84391 74.772842 78.625328 86.330307 94.035278 101.74025 109.44522 113.29771 121.00269 127.93162 131.7841 139.48907 147.19405 154.89902 157.97546 165.68045 173.38542 177.23792 182.15744 189.08638 192.16283 199.86781 207.57277 212.18745 219.89241 227.59738 234.52632 242.23129 247.15083 251.00333 254.8558 262.56079 266.41327 269.48972 273.34222 280.27115 284.12363 287.9761 295.68109 303.38605 307.23856 318.78217 326.48712 331.10181 338.80676 341.88321 349.5882">This is done by adding &quot;clearance&quot; to its top margin.</tspan></text>

<path
   d="m 241.17599,191.72134 v 21.08"
   style="fill:none;stroke:#000000;stroke-width:0.62989998;stroke-linecap:butt;stroke-linejoin:miter;stroke-miterlimit:10;stroke-dasharray:none;stroke-opacity:1"
   id="path86" /><path
   d="m 241.17599,212.80134 2.01734,-7.64267 h -3.948 z"
   style="fill:none;stroke:#000000;stroke-width:0.62989998;stroke-linecap:butt;stroke-linejoin:miter;stroke-miterlimit:10;stroke-dasharray:none;stroke-opacity:1"
   id="path88" /><path
   d="m 276.87199,269.6604 v -25.112"
   style="fill:none;stroke:#000000;stroke-width:0.62989998;stroke-linecap:butt;stroke-linejoin:miter;stroke-miterlimit:10;stroke-dasharray:none;stroke-opacity:1"
   id="path90" /><path
   d="m 276.87199,244.5484 -1.932,7.6428 h 3.86267 z"
   style="fill:none;stroke:#000000;stroke-width:0.62989998;stroke-linecap:butt;stroke-linejoin:miter;stroke-miterlimit:10;stroke-dasharray:none;stroke-opacity:1"
   id="path92" /><path
   d="m 225.80666,95.640007 v -21.08"
   style="fill:none;stroke:#000000;stroke-width:0.62989998;stroke-linecap:butt;stroke-linejoin:miter;stroke-miterlimit:10;stroke-dasharray:none;stroke-opacity:1"
   id="path94" /><path
   d="m 225.80666,74.560007 -1.93067,7.726667 h 3.86267 z"
   style="fill:none;stroke:#000000;stroke-width:0.62989998;stroke-linecap:butt;stroke-linejoin:miter;stroke-miterlimit:10;stroke-dasharray:none;stroke-opacity:1"
   id="path96" /><path
   d="m 230.59466,345.75267 v 21.16452"
   style="fill:none;stroke:#000000;stroke-width:0.62989998;stroke-linecap:butt;stroke-linejoin:miter;stroke-miterlimit:10;stroke-dasharray:none;stroke-opacity:1"
   id="path98" /><path
   d="m 230.59466,366.91719 1.932,-7.81094 h -3.864 z"
   style="fill:none;stroke:#000000;stroke-width:0.62989998;stroke-linecap:butt;stroke-linejoin:miter;stroke-miterlimit:10;stroke-dasharray:none;stroke-opacity:1"
   id="path100" /><path
   d="M 261.75333,214.31334 V 244.5484"
   style="fill:none;stroke:#000000;stroke-width:2.51959991;stroke-linecap:butt;stroke-linejoin:miter;stroke-miterlimit:10;stroke-dasharray:1.25979997, 3.77939991;stroke-dashoffset:28.34550095;stroke-opacity:1"
   id="path110" /><path
   d="m 264.27333,220.108 -2.52,-5.03866 -2.52,5.03866 z"
   style="fill:#000000;fill-opacity:1;fill-rule:evenodd;stroke:none;stroke-width:0.13333333"
   id="path112" /><path
   d="m 264.27333,220.108 -2.52,-5.03866 -2.52,5.03866 z"
   style="fill:none;stroke:#000000;stroke-width:0.62989998;stroke-linecap:butt;stroke-linejoin:miter;stroke-miterlimit:10;stroke-dasharray:none;stroke-opacity:1"
   id="path114" /><path
   d="m 259.23333,238.7536 2.52,5.03907 2.52,-5.03907 z"
   style="fill:#000000;fill-opacity:1;fill-rule:evenodd;stroke:none;stroke-width:0.13333333"
   id="path116" /><path
   d="m 259.23333,238.7536 2.52,5.03907 2.52,-5.03907 z"
   style="fill:none;stroke:#000000;stroke-width:0.62989998;stroke-linecap:butt;stroke-linejoin:miter;stroke-miterlimit:10;stroke-dasharray:none;stroke-opacity:1"
   id="path118" /></svg>