<?xml version="1.0" encoding="UTF-8" standalone="no"?>
<svg
   xmlns:dc="http://purl.org/dc/elements/1.1/"
   xmlns:cc="http://creativecommons.org/ns#"
   xmlns:rdf="http://www.w3.org/1999/02/22-rdf-syntax-ns#"
   xmlns:svg="http://www.w3.org/2000/svg"
   xmlns="http://www.w3.org/2000/svg"
   version="1.1"
   id="svg2"
   xml:space="preserve"
   width="385"
   height="345"
   preserveAspectRatio="xMidYMid slice"
   viewBox="0 0 493.33334 441.33334"><metadata
     id="metadata8"><rdf:RDF><cc:Work
         rdf:about=""><dc:format>image/svg+xml</dc:format><dc:type
           rdf:resource="http://purl.org/dc/dcmitype/StillImage" /></cc:Work></rdf:RDF></metadata><defs
     id="defs6" /><g
     id="g10"
     transform="matrix(1.3333333,0,0,-1.3333333,0,441.33333)"><g
       id="g12"
       transform="scale(0.1)"><path
         d="m 739.035,201.574 h 2227.75 v 2875.53 H 739.035 Z"
         style="fill:none;stroke:#000000;stroke-width:7.5;stroke-linecap:butt;stroke-linejoin:miter;stroke-miterlimit:10;stroke-dasharray:none;stroke-opacity:1"
         id="path14" /><g
         id="g16"
         transform="scale(10)"><text
   transform="matrix(1,0,0,-1,59.5734,274.836)"
   style="font-variant:normal;font-weight:normal;font-size:11.46389961px;font-family:Helvetica;-inkscape-font-specification:Helvetica;writing-mode:lr-tb;fill:#000000;fill-opacity:1;fill-rule:nonzero;stroke:none"
   id="text34"><tspan
     x="0"
     y="0"
     id="tspan18">1</tspan><tspan
     x="0"
     y="34.3918"
     id="tspan20">2</tspan><tspan
     x="0"
     y="70.694099"
     id="tspan22">3</tspan><tspan
     x="0"
     y="106.9964"
     id="tspan24">4</tspan><tspan
     x="0"
     y="142.3437"
     id="tspan26">5</tspan><tspan
     x="0"
     y="178.646"
     id="tspan28">6</tspan><tspan
     x="0"
     y="213.9929"
     id="tspan30">7</tspan><tspan
     x="0"
     y="247.4292"
     id="tspan32">8</tspan></text>

</g><path
         d="M 739.035,2723.63 H 996.973"
         style="fill:none;stroke:#000000;stroke-width:7.5;stroke-linecap:butt;stroke-linejoin:miter;stroke-miterlimit:10;stroke-dasharray:none;stroke-opacity:1"
         id="path36" /><path
         d="M 739.035,2360.61 H 996.973"
         style="fill:none;stroke:#000000;stroke-width:7.5;stroke-linecap:butt;stroke-linejoin:miter;stroke-miterlimit:10;stroke-dasharray:none;stroke-opacity:1"
         id="path38" /><path
         d="M 739.035,564.598 H 996.973"
         style="fill:none;stroke:#000000;stroke-width:7.5;stroke-linecap:butt;stroke-linejoin:miter;stroke-miterlimit:10;stroke-dasharray:none;stroke-opacity:1"
         id="path40" /><path
         d="M 739.035,1644.12 H 996.973"
         style="fill:none;stroke:#000000;stroke-width:7.5;stroke-linecap:butt;stroke-linejoin:miter;stroke-miterlimit:10;stroke-dasharray:none;stroke-opacity:1"
         id="path42" /><path
         d="M 739.035,1997.59 H 996.973"
         style="fill:none;stroke:#000000;stroke-width:7.5;stroke-linecap:butt;stroke-linejoin:miter;stroke-miterlimit:10;stroke-dasharray:none;stroke-opacity:1"
         id="path44" /><path
         d="M 739.035,1281.09 H 996.973"
         style="fill:none;stroke:#000000;stroke-width:7.5;stroke-linecap:butt;stroke-linejoin:miter;stroke-miterlimit:10;stroke-dasharray:none;stroke-opacity:1"
         id="path46" /><path
         d="M 739.035,918.07 H 996.973"
         style="fill:none;stroke:#000000;stroke-width:7.5;stroke-linecap:butt;stroke-linejoin:miter;stroke-miterlimit:10;stroke-dasharray:none;stroke-opacity:1"
         id="path48" /><g
         id="g50"
         transform="scale(10)"><text
   transform="matrix(1,0,0,-1,132.293,318.895)"
   style="font-style:oblique;font-variant:normal;font-weight:bold;font-size:11.46389961px;font-family:Helvetica;-inkscape-font-specification:Helvetica-BoldOblique;writing-mode:lr-tb;fill:#000000;fill-opacity:1;fill-rule:nonzero;stroke:none"
   id="text54"><tspan
     x="0 8.2769356 15.281379 21.655308 28.65975 38.851158 45.225086 52.229527 56.047009 59.233971 70.055893 73.242859 80.247299 87.25174 94.256187"
     y="0"
     id="tspan52">Document Window</tspan></text>

<text
   transform="matrix(1,0,0,-1,64.3504,315.62859)"
   style="font-variant:normal;font-weight:normal;font-size:10.50860023px;font-family:Helvetica;-inkscape-font-specification:Helvetica;writing-mode:lr-tb;fill:#000000;fill-opacity:1;fill-rule:nonzero;stroke:none"
   id="text62"><tspan
     x="0 3.4993639 9.342145 12.263536 18.106318"
     y="0"
     id="tspan56">(0,0)</tspan><tspan
     x="208.261 211.76036 217.60315 220.52454 223.44592 229.28871 235.13148 240.97427"
     y="-1.9109401"
     id="tspan58">(0, 400)</tspan><tspan
     x="-6.6869998 -3.1876361 2.6551454 8.4979267 14.340709 17.2621 20.183491 26.026272 203.48399 206.98337 212.82614 218.66893 224.5117 227.43311 230.35449 236.19727 242.04005 247.88283"
     y="309.52505"
     id="tspan60">(400, 0)(400, 400)</tspan></text>

<text
   transform="matrix(1,0,0,-1,83.4564,275.40653)"
   style="font-variant:normal;font-weight:normal;font-size:13.37450027px;font-family:Helvetica;-inkscape-font-specification:Helvetica;writing-mode:lr-tb;fill:#000000;fill-opacity:1;fill-rule:nonzero;stroke:none"
   id="text66"><tspan
     x="0 8.9207916 16.357014 23.793236 26.762375 34.198597 41.634819 44.603958 52.04018 59.476402 63.194511 70.630737 74.348846 78.066956 85.503181 92.9394 100.37563 107.06287 110.78098 117.46823 124.90446 132.34068 136.05879 143.49501 150.93123 154.64934 161.33659"
     y="0"
     id="tspan64">Beginning of body contents.</tspan></text>

</g><g
         id="g68"
         transform="scale(10)"><text
   transform="matrix(1,0,0,-1,256.371,275.407)"
   style="font-variant:normal;font-weight:normal;font-size:13.37450027px;font-family:Helvetica;-inkscape-font-specification:Helvetica;writing-mode:lr-tb;fill:#f91340;fill-opacity:1;fill-rule:nonzero;stroke:none"
   id="text72"><tspan
     x="0 8.9207916 12.638903 20.075125 24.528833"
     y="0"
     id="tspan70">Start</tspan></text>

</g><path
         d="M 433.332,2723.63 H 309.137 v -343.92 h 143.301"
         style="fill:none;stroke:#000000;stroke-width:7.5;stroke-linecap:butt;stroke-linejoin:miter;stroke-miterlimit:10;stroke-dasharray:none;stroke-opacity:1"
         id="path74" /><g
         id="g76"
         transform="scale(10)"><text
   transform="matrix(1,0,0,-1,3.20938,251.465)"
   style="font-style:oblique;font-variant:normal;font-size:10.50860023px;font-family:Helvetica;-inkscape-font-specification:Helvetica-Oblique;writing-mode:lr-tb;fill:#000000;fill-opacity:1;fill-rule:nonzero;stroke:none"
   id="text80"><tspan
     x="0 5.8427815 11.685563 14.606954 20.449736"
     y="0"
     id="tspan78">24 px</tspan></text>

</g><g
         id="g82"
         transform="scale(10)"><text
   transform="matrix(1,0,0,-1,83.4566,241.015)"
   style="font-variant:normal;font-weight:normal;font-size:13.37450027px;font-family:Helvetica;-inkscape-font-specification:Helvetica;writing-mode:lr-tb;fill:#f91340;fill-opacity:1;fill-rule:nonzero;stroke:none"
   id="text88"><tspan
     x="0 7.4362221 11.154333 14.872444 22.308666 29.744888 33.462997 40.89922 45.352928 49.071041 55.758289 63.194511 70.630737 74.348846 81.785065 89.221291 92.9394 99.626648 103.34476 107.06287 115.98367 123.41988 130.85611 134.57422 142.01044 145.72855 149.44667 156.88289 164.31911 168.03722 175.47343"
     y="0"
     id="tspan84">of outer contents. End of outer</tspan><tspan
     x="0 6.6872501 14.123472 21.559694 25.277805 32.714027 40.150249 43.868359 50.555611"
     y="37.257401"
     id="tspan86">contents.</tspan></text>

</g><path
         d="m 1990.51,864.07 h 926.664 v 757.523 H 1990.51 Z"
         style="fill:none;stroke:#000000;stroke-width:7.5;stroke-linecap:butt;stroke-linejoin:miter;stroke-miterlimit:10;stroke-dasharray:114.639, 38.213;stroke-dashoffset:0;stroke-opacity:1"
         id="path90" /><g
         id="g92"
         transform="scale(10)"><text
   transform="matrix(1,0,0,-1,200.962,133.064)"
   style="font-variant:normal;font-weight:normal;font-size:13.37450027px;font-family:Helvetica;-inkscape-font-specification:Helvetica;writing-mode:lr-tb;fill:#5151fa;fill-opacity:1;fill-rule:nonzero;stroke:none"
   id="text98"><tspan
     x="0 3.718111 11.154333 18.590555 26.026777"
     y="0"
     id="tspan94">Inner</tspan><tspan
     x="0 9.6563892 17.092611 24.528833 28.246944 35.683167 43.119389 46.837498 53.52475"
     y="26.749201"
     id="tspan96">Contents.</tspan></text>

</g><g
         id="g100"
         transform="scale(10)"><text
   transform="matrix(1,0,0,-1,216.247,74.7297)"
   style="font-style:oblique;font-variant:normal;font-size:10.50860023px;font-family:Helvetica;-inkscape-font-specification:Helvetica-Oblique;writing-mode:lr-tb;fill:#000000;fill-opacity:1;fill-rule:nonzero;stroke:none"
   id="text108"><tspan
     x="0 7.5872092 9.9201183 15.7629 18.68429 24.527073 27.448463 33.585487 36.506878 42.349659 48.19244 54.035221 56.956612 62.799393"
     y="0"
     id="tspan102">width = 130 px</tspan><tspan
     x="85.979301 91.822083 97.664864 99.997772 105.84055 111.68333 114.60473 117.52612 123.66314 126.58453 132.42731 138.2701 144.11287 149.95566"
     y="-51.587502"
     id="tspan104">height = 130px</tspan><tspan
     x="-57.319698 -53.820335 -47.683315 -41.84053 -35.997749 -30.154968 -27.233578 -24.312187 -18.175165 -12.332383 -6.4896016 -0.64682019"
     y="-92.666397"
     id="tspan106">(+200, −100)</tspan></text>

<text
   transform="matrix(1,0,0,-1,144.5976,203.7578)"
   style="font-variant:normal;font-weight:normal;font-size:13.37450027px;font-family:Helvetica;-inkscape-font-specification:Helvetica;writing-mode:lr-tb;fill:#000000;fill-opacity:1;fill-rule:nonzero;stroke:none"
   id="text112"><tspan
     x="0 8.9207916 16.357014 23.793236 27.511347 34.947567 38.66568 42.383789 49.820011 57.256233 64.692459 71.379707 75.097816 81.785065 89.221291 96.657509 100.37563 107.81184 115.24807 118.96618 125.65343"
     y="0"
     id="tspan110">End of body contents.</tspan></text>

</g><path
         d="M 2792.98,3058 H 2544.6 v -305.71"
         style="fill:none;stroke:#000000;stroke-width:28.65979958;stroke-linecap:butt;stroke-linejoin:miter;stroke-miterlimit:10;stroke-dasharray:114.639, 38.213;stroke-dashoffset:0;stroke-opacity:1"
         id="path114" /></g></g></svg>