<?xml version="1.0" encoding="UTF-8" standalone="no"?>
<svg
   xmlns:dc="http://purl.org/dc/elements/1.1/"
   xmlns:cc="http://creativecommons.org/ns#"
   xmlns:rdf="http://www.w3.org/1999/02/22-rdf-syntax-ns#"
   xmlns:svg="http://www.w3.org/2000/svg"
   xmlns="http://www.w3.org/2000/svg"
   version="1.1"
   id="svg2"
   xml:space="preserve"
   width="326"
   height="342"
   preserveAspectRatio="xMidYMid slice"
   viewBox="0 0 417.33334 437.33334"><metadata
   id="metadata8"><rdf:RDF><cc:Work
       rdf:about=""><dc:format>image/svg+xml</dc:format><dc:type
         rdf:resource="http://purl.org/dc/dcmitype/StillImage" /></cc:Work></rdf:RDF></metadata><defs
   id="defs6">









</defs><path
   d="M 95.871331,411.79013 H 392.90466 V 28.38614 H 95.871331 Z"
   style="fill:none;stroke:#000000;stroke-width:1;stroke-linecap:butt;stroke-linejoin:miter;stroke-miterlimit:10;stroke-dasharray:none;stroke-opacity:1"
   id="path14" /><text
   y="72.218674"
   x="76.764534"
   id="text34"
   style="font-variant:normal;font-weight:normal;font-size:15.28519917px;font-family:Helvetica;-inkscape-font-specification:Helvetica;writing-mode:lr-tb;fill:#000000;fill-opacity:1;fill-rule:nonzero;stroke:none;stroke-width:1.33333325"><tspan
     style="stroke-width:1.33333325"
     id="tspan18"
     y="72.218674"
     x="76.764534">1</tspan><tspan
     style="stroke-width:1.33333325"
     id="tspan20"
     y="118.0744"
     x="76.764534">2</tspan><tspan
     style="stroke-width:1.33333325"
     id="tspan22"
     y="166.47746"
     x="76.764534">3</tspan><tspan
     style="stroke-width:1.33333325"
     id="tspan24"
     y="214.88054"
     x="76.764534">4</tspan><tspan
     style="stroke-width:1.33333325"
     id="tspan26"
     y="262.01028"
     x="76.764534">5</tspan><tspan
     style="stroke-width:1.33333325"
     id="tspan28"
     y="310.41333"
     x="76.764534">6</tspan><tspan
     style="stroke-width:1.33333325"
     id="tspan30"
     y="357.54254"
     x="76.764534">7</tspan><tspan
     style="stroke-width:1.33333325"
     id="tspan32"
     y="402.12427"
     x="76.764534">8</tspan></text>

<path
   d="M 97.705731,75.517339 H 130.2636"
   style="fill:none;stroke:#000000;stroke-width:1;stroke-linecap:butt;stroke-linejoin:miter;stroke-miterlimit:10;stroke-dasharray:none;stroke-opacity:1"
   id="path36" /><path
   d="M 95.871331,123.91867 H 130.26306"
   style="fill:none;stroke:#000000;stroke-width:1;stroke-linecap:butt;stroke-linejoin:miter;stroke-miterlimit:10;stroke-dasharray:none;stroke-opacity:1"
   id="path38" /><path
   d="M 95.871331,363.38693 H 130.26306"
   style="fill:none;stroke:#000000;stroke-width:1;stroke-linecap:butt;stroke-linejoin:miter;stroke-miterlimit:10;stroke-dasharray:none;stroke-opacity:1"
   id="path40" /><path
   d="M 95.871331,219.45067 H 130.26306"
   style="fill:none;stroke:#000000;stroke-width:1;stroke-linecap:butt;stroke-linejoin:miter;stroke-miterlimit:10;stroke-dasharray:none;stroke-opacity:1"
   id="path42" /><path
   d="M 95.871331,172.32134 H 130.26306"
   style="fill:none;stroke:#000000;stroke-width:1;stroke-linecap:butt;stroke-linejoin:miter;stroke-miterlimit:10;stroke-dasharray:none;stroke-opacity:1"
   id="path44" /><path
   d="M 95.871331,267.85467 H 130.26306"
   style="fill:none;stroke:#000000;stroke-width:1;stroke-linecap:butt;stroke-linejoin:miter;stroke-miterlimit:10;stroke-dasharray:none;stroke-opacity:1"
   id="path46" /><path
   d="M 95.871331,316.25733 H 130.26306"
   style="fill:none;stroke:#000000;stroke-width:1;stroke-linecap:butt;stroke-linejoin:miter;stroke-miterlimit:10;stroke-dasharray:none;stroke-opacity:1"
   id="path48" /><text
   y="13.473341"
   x="173.724"
   id="text54"
   style="font-style:oblique;font-variant:normal;font-weight:bold;font-size:15.28519917px;font-family:Helvetica;-inkscape-font-specification:Helvetica-BoldOblique;writing-mode:lr-tb;fill:#000000;fill-opacity:1;fill-rule:nonzero;stroke:none;stroke-width:1.33333325"><tspan
     style="stroke-width:1.33333325"
     id="tspan52"
     y="13.473341"
     x="173.724 184.75992 194.09917 202.59775 211.937 225.52554 234.02411 243.36337 248.45334 252.70262 267.13187 271.38113 280.7204 290.05966 299.39893">Document Window</tspan></text>

<text
   y="17.828554"
   x="83.133865"
   id="text62"
   style="font-variant:normal;font-weight:normal;font-size:14.01146698px;font-family:Helvetica;-inkscape-font-specification:Helvetica;writing-mode:lr-tb;fill:#000000;fill-opacity:1;fill-rule:nonzero;stroke:none;stroke-width:1.33333325"><tspan
     style="stroke-width:1.33333325"
     id="tspan56"
     y="17.828554"
     x="83.133865 87.799683 95.590057 99.485245 107.27562">(0,0)</tspan><tspan
     style="stroke-width:1.33333325"
     id="tspan58"
     y="15.280634"
     x="360.81519 365.48102 373.27139 377.16656 381.06177 388.85214 396.64252 404.43289">(0, 400)</tspan><tspan
     style="stroke-width:1.33333325"
     id="tspan60"
     y="430.52863"
     x="74.217865 78.883682 86.674057 94.464432 102.25481 106.15 110.04519 117.83556 354.44586 359.11169 366.90204 374.69244 382.48279 386.37799 390.27319 398.06354 405.85394 413.64429">(400, 0)(400, 400)</tspan></text>

<text
   y="71.45797"
   x="108.60853"
   id="text66"
   style="font-variant:normal;font-weight:normal;font-size:17.8326664px;font-family:Helvetica;-inkscape-font-specification:Helvetica;writing-mode:lr-tb;fill:#000000;fill-opacity:1;fill-rule:nonzero;stroke:none;stroke-width:1.33333325"><tspan
     style="stroke-width:1.33333325"
     id="tspan64"
     y="71.45797"
     x="108.60853 120.50292 130.41788 140.33284 144.2917 154.20667 164.12163 168.08047 177.99544 187.9104 192.86787 202.78284 207.74033 212.6978 222.61276 232.52773 242.4427 251.35901 256.3165 265.23285 275.1478 285.06277 290.02023 299.93521 309.85016 314.80765 323.72397">Beginning of body contents.</tspan></text>

<text
   y="71.457336"
   x="339.16132"
   id="text72"
   style="font-variant:normal;font-weight:normal;font-size:17.8326664px;font-family:Helvetica;-inkscape-font-specification:Helvetica;writing-mode:lr-tb;fill:#f91340;fill-opacity:1;fill-rule:nonzero;stroke:none;stroke-width:1.33333325"><tspan
     style="stroke-width:1.33333325"
     id="tspan70"
     y="71.457336"
     x="339.16132 351.05569 356.01318 365.92816 371.86642">Start</tspan></text>

<path
   d="M 55.110932,75.516006 H 38.551599 V 121.372 h 19.1068"
   style="fill:none;stroke:#000000;stroke-width:1;stroke-linecap:butt;stroke-linejoin:miter;stroke-miterlimit:10;stroke-dasharray:none;stroke-opacity:1"
   id="path74" /><text
   y="103.38001"
   x="1.6125066"
   id="text80"
   style="font-style:oblique;font-variant:normal;font-size:14.01146698px;font-family:Helvetica;-inkscape-font-specification:Helvetica-Oblique;writing-mode:lr-tb;fill:#000000;fill-opacity:1;fill-rule:nonzero;stroke:none;stroke-width:1.33333325"><tspan
     style="stroke-width:1.33333325"
     id="tspan78"
     y="103.38001"
     x="1.6125066 9.4028816 17.193256 21.088444 28.87882">24 px</tspan></text>

<path
   d="m 288.20933,123.91867 v 0 h 2.548 v 0 z"
   style="fill:none;stroke:#000000;stroke-width:1;stroke-linecap:butt;stroke-linejoin:miter;stroke-miterlimit:10;stroke-dasharray:15.28519962, 5.09506654;stroke-dashoffset:0;stroke-opacity:1"
   id="path82" /><path
   d="m 302.02266,170.66934 h 88.08853 V 75.515206 h -88.08853 z"
   style="fill:none;stroke:#000000;stroke-width:1;stroke-linecap:butt;stroke-linejoin:miter;stroke-miterlimit:10;stroke-dasharray:15.28519962, 5.09506654;stroke-dashoffset:0;stroke-opacity:1"
   id="path84" /><text
   y="117.31334"
   x="303.49466"
   id="text92"
   style="font-variant:normal;font-weight:normal;font-size:17.8326664px;font-family:Helvetica;-inkscape-font-specification:Helvetica;writing-mode:lr-tb;fill:#5151fa;fill-opacity:1;fill-rule:nonzero;stroke:none;stroke-width:1.33333325"><tspan
     style="stroke-width:1.33333325"
     id="tspan88"
     y="117.31334"
     x="303.49466 308.45215 318.3671 328.28207 338.19702">Inner</tspan><tspan
     style="stroke-width:1.33333325"
     id="tspan90"
     y="166.98987"
     x="303.49466 312.41098 322.32596 332.24091 337.19839 347.11337 357.02832 361.98581 370.90213">contents.</tspan></text>

<text
   y="184.90134"
   x="307.31732"
   id="text98"
   style="font-style:oblique;font-variant:normal;font-size:14.01146698px;font-family:Helvetica;-inkscape-font-specification:Helvetica-Oblique;writing-mode:lr-tb;fill:#000000;fill-opacity:1;fill-rule:nonzero;stroke:none;stroke-width:1.33333325"><tspan
     style="stroke-width:1.33333325"
     id="tspan96"
     y="184.90134"
     x="307.31732 317.43359 320.54416 328.33453 332.22971 340.02008 348.20279 352.09799 359.88837 367.67874 375.46912 379.36429 387.15466">width= 130 px</tspan></text>

<text
   y="117.31334"
   x="108.6088"
   id="text108"
   style="font-variant:normal;font-weight:normal;font-size:17.8326664px;font-family:Helvetica;-inkscape-font-specification:Helvetica;writing-mode:lr-tb;fill:#f91340;fill-opacity:1;fill-rule:nonzero;stroke:none;stroke-width:1.33333325"><tspan
     style="stroke-width:1.33333325"
     id="tspan102"
     y="117.31334"
     x="108.6088 118.52377 123.48125 128.43872 138.35368 148.26865 153.22614 163.1411 169.07938 174.03685 182.95319 192.86815 202.78311 207.74059 217.65555 227.57051 232.528 241.44432">of outer contents.</tspan><tspan
     style="stroke-width:1.33333325"
     id="tspan104"
     y="214.1196"
     x="108.6088 118.52377 123.48125 128.43872 138.35368 148.26865 153.22614 163.1411 169.07938 174.03685 182.95319 192.86815 202.78311 207.74059 217.65555 227.57051 232.528 241.44432">of outer contents.</tspan><tspan
     style="stroke-width:1.33333325"
     id="tspan106"
     y="166.98987"
     x="108.6088 120.50319 124.46204 134.377 138.33586 142.29471 152.20967 162.12463 167.08211 175.99844 185.91341 195.82837 200.78584 210.70082 220.61577 225.57326 234.48959 239.44707 244.40456 256.29895 266.2139">Sibling contents. End</tspan></text>

<text
   y="214.11867"
   x="256.36667"
   id="text116"
   style="font-variant:normal;font-weight:normal;font-size:17.8326664px;font-family:Helvetica;-inkscape-font-specification:Helvetica;writing-mode:lr-tb;fill:#000000;fill-opacity:1;fill-rule:nonzero;stroke:none;stroke-width:1.33333325"><tspan
     style="stroke-width:1.33333325"
     id="tspan112"
     y="214.11867"
     x="256.36667 268.26105 278.17603 288.09097 293.04846 302.96341 307.9209 312.87839 322.79333 332.70831 342.62326">End of body</tspan><tspan
     style="stroke-width:1.33333325"
     id="tspan114"
     y="263.7952"
     x="108.60933 117.52566 127.44063 137.35559 142.31308 152.22803 162.14301 167.10048 176.01682">contents.</tspan></text>

</svg>