<?xml version="1.0" encoding="UTF-8" standalone="no"?>
<svg
   xmlns:dc="http://purl.org/dc/elements/1.1/"
   xmlns:cc="http://creativecommons.org/ns#"
   xmlns:rdf="http://www.w3.org/1999/02/22-rdf-syntax-ns#"
   xmlns:svg="http://www.w3.org/2000/svg"
   xmlns="http://www.w3.org/2000/svg"
   version="1.1"
   id="svg2"
   xml:space="preserve"
   width="326"
   height="342"
   preserveAspectRatio="xMidYMid slice"
   viewBox="0 0 417.33334 437.33334"><metadata
   id="metadata8"><rdf:RDF><cc:Work
       rdf:about=""><dc:format>image/svg+xml</dc:format><dc:type
         rdf:resource="http://purl.org/dc/dcmitype/StillImage" /></cc:Work></rdf:RDF></metadata><defs
   id="defs6">









</defs><path
   d="M 95.871331,411.79013 H 392.90466 V 28.38614 H 95.871331 Z"
   style="fill:none;stroke:#000000;stroke-width:1;stroke-linecap:butt;stroke-linejoin:miter;stroke-miterlimit:10;stroke-dasharray:none;stroke-opacity:1"
   id="path14" /><text
   y="72.218674"
   x="76.764534"
   id="text34"
   style="font-variant:normal;font-weight:normal;font-size:15.28519917px;font-family:Helvetica;-inkscape-font-specification:Helvetica;writing-mode:lr-tb;fill:#000000;fill-opacity:1;fill-rule:nonzero;stroke:none;stroke-width:1.33333325"><tspan
     style="stroke-width:1.33333325"
     id="tspan18"
     y="72.218674"
     x="76.764534">1</tspan><tspan
     style="stroke-width:1.33333325"
     id="tspan20"
     y="118.0744"
     x="76.764534">2</tspan><tspan
     style="stroke-width:1.33333325"
     id="tspan22"
     y="166.47746"
     x="76.764534">3</tspan><tspan
     style="stroke-width:1.33333325"
     id="tspan24"
     y="214.88054"
     x="76.764534">4</tspan><tspan
     style="stroke-width:1.33333325"
     id="tspan26"
     y="262.01028"
     x="76.764534">5</tspan><tspan
     style="stroke-width:1.33333325"
     id="tspan28"
     y="310.41333"
     x="76.764534">6</tspan><tspan
     style="stroke-width:1.33333325"
     id="tspan30"
     y="357.54254"
     x="76.764534">7</tspan><tspan
     style="stroke-width:1.33333325"
     id="tspan32"
     y="402.12427"
     x="76.764534">8</tspan></text>

<path
   d="M 95.871331,75.516006 H 130.26306"
   style="fill:none;stroke:#000000;stroke-width:1;stroke-linecap:butt;stroke-linejoin:miter;stroke-miterlimit:10;stroke-dasharray:none;stroke-opacity:1"
   id="path36" /><path
   d="M 95.871331,123.91867 H 130.26306"
   style="fill:none;stroke:#000000;stroke-width:1;stroke-linecap:butt;stroke-linejoin:miter;stroke-miterlimit:10;stroke-dasharray:none;stroke-opacity:1"
   id="path38" /><path
   d="M 95.871331,363.38693 H 130.26306"
   style="fill:none;stroke:#000000;stroke-width:1;stroke-linecap:butt;stroke-linejoin:miter;stroke-miterlimit:10;stroke-dasharray:none;stroke-opacity:1"
   id="path40" /><path
   d="M 95.871331,219.45067 H 130.26306"
   style="fill:none;stroke:#000000;stroke-width:1;stroke-linecap:butt;stroke-linejoin:miter;stroke-miterlimit:10;stroke-dasharray:none;stroke-opacity:1"
   id="path42" /><path
   d="M 95.871331,172.32134 H 130.26306"
   style="fill:none;stroke:#000000;stroke-width:1;stroke-linecap:butt;stroke-linejoin:miter;stroke-miterlimit:10;stroke-dasharray:none;stroke-opacity:1"
   id="path44" /><path
   d="M 95.871331,267.85467 H 130.26306"
   style="fill:none;stroke:#000000;stroke-width:1;stroke-linecap:butt;stroke-linejoin:miter;stroke-miterlimit:10;stroke-dasharray:none;stroke-opacity:1"
   id="path46" /><path
   d="M 95.871331,316.25733 H 130.26306"
   style="fill:none;stroke:#000000;stroke-width:1;stroke-linecap:butt;stroke-linejoin:miter;stroke-miterlimit:10;stroke-dasharray:none;stroke-opacity:1"
   id="path48" /><text
   y="13.473341"
   x="173.724"
   id="text54"
   style="font-style:oblique;font-variant:normal;font-weight:bold;font-size:15.28519917px;font-family:Helvetica;-inkscape-font-specification:Helvetica-BoldOblique;writing-mode:lr-tb;fill:#000000;fill-opacity:1;fill-rule:nonzero;stroke:none;stroke-width:1.33333325"><tspan
     style="stroke-width:1.33333325"
     id="tspan52"
     y="13.473341"
     x="173.724 184.75992 194.09917 202.59775 211.937 225.52554 234.02411 243.36337 248.45334 252.70262 267.13187 271.38113 280.7204 290.05966 299.39893">Document Window</tspan></text>

<text
   y="17.828554"
   x="83.133865"
   id="text62"
   style="font-variant:normal;font-weight:normal;font-size:14.01146698px;font-family:Helvetica;-inkscape-font-specification:Helvetica;writing-mode:lr-tb;fill:#000000;fill-opacity:1;fill-rule:nonzero;stroke:none;stroke-width:1.33333325"><tspan
     style="stroke-width:1.33333325"
     id="tspan56"
     y="17.828554"
     x="83.133865 87.799683 95.590057 99.485245 107.27562">(0,0)</tspan><tspan
     style="stroke-width:1.33333325"
     id="tspan58"
     y="15.280634"
     x="360.81519 365.48102 373.27139 377.16656 381.06177 388.85214 396.64252 404.43289">(0, 400)</tspan><tspan
     style="stroke-width:1.33333325"
     id="tspan60"
     y="430.52863"
     x="74.217865 78.883682 86.674057 94.464432 102.25481 106.15 110.04519 117.83556 354.44586 359.11169 366.90204 374.69244 382.48279 386.37799 390.27319 398.06354 405.85394 413.64429">(400, 0)(400, 400)</tspan></text>

<text
   y="71.45797"
   x="108.60853"
   id="text66"
   style="font-variant:normal;font-weight:normal;font-size:17.8326664px;font-family:Helvetica;-inkscape-font-specification:Helvetica;writing-mode:lr-tb;fill:#000000;fill-opacity:1;fill-rule:nonzero;stroke:none;stroke-width:1.33333325"><tspan
     style="stroke-width:1.33333325"
     id="tspan64"
     y="71.45797"
     x="108.60853 120.50292 130.41788 140.33284 144.2917 154.20667 164.12163 168.08047 177.99544 187.9104 192.86787 202.78284 207.74033 212.6978 222.61276 232.52773 242.4427 251.35901 256.3165 265.23285 275.1478 285.06277 290.02023 299.93521 309.85016 314.80765 323.72397">Beginning of body contents.</tspan></text>

<text
   y="71.457336"
   x="339.16132"
   id="text72"
   style="font-variant:normal;font-weight:normal;font-size:17.8326664px;font-family:Helvetica;-inkscape-font-specification:Helvetica;writing-mode:lr-tb;fill:#f91340;fill-opacity:1;fill-rule:nonzero;stroke:none;stroke-width:1.33333325"><tspan
     style="stroke-width:1.33333325"
     id="tspan70"
     y="71.457336"
     x="339.16132 351.05569 356.01318 365.92816 371.86642">Start</tspan></text>

<path
   d="M 55.110932,75.516006 H 38.551599 V 121.372 h 19.1068"
   style="fill:none;stroke:#000000;stroke-width:1;stroke-linecap:butt;stroke-linejoin:miter;stroke-miterlimit:10;stroke-dasharray:none;stroke-opacity:1"
   id="path74" /><text
   y="103.38001"
   x="1.6125066"
   id="text80"
   style="font-style:oblique;font-variant:normal;font-size:14.01146698px;font-family:Helvetica;-inkscape-font-specification:Helvetica-Oblique;writing-mode:lr-tb;fill:#000000;fill-opacity:1;fill-rule:nonzero;stroke:none;stroke-width:1.33333325"><tspan
     style="stroke-width:1.33333325"
     id="tspan78"
     y="103.38001"
     x="1.6125066 9.4028816 17.193256 21.088444 28.87882">24 px</tspan></text>

<text
   y="166.98933"
   x="108.6088"
   id="text88"
   style="font-variant:normal;font-weight:normal;font-size:17.8326664px;font-family:Helvetica;-inkscape-font-specification:Helvetica;writing-mode:lr-tb;fill:#f91340;fill-opacity:1;fill-rule:nonzero;stroke:none;stroke-width:1.33333325"><tspan
     style="stroke-width:1.33333325"
     id="tspan84"
     y="166.98933"
     x="108.6088 118.52377 123.48125 128.43872 138.35368 148.26865 153.22614 163.1411 169.07938 174.03685 182.95319 192.86815 202.78311 207.74059 217.65555 227.57051 232.528 241.44432">of outer contents.</tspan><tspan
     style="stroke-width:1.33333325"
     id="tspan86"
     y="117.31281"
     x="108.6088 118.52377 123.48125 128.43872 138.35368 148.26865 153.22614 163.1411 169.07938 174.03685 182.95319 192.86815 202.78311 207.74059 217.65555 227.57051 232.528 241.44432 246.40181 251.35928 263.25369 273.16864">of outer contents. End</tspan></text>

<text
   y="166.98933"
   x="255.092"
   id="text96"
   style="font-variant:normal;font-weight:normal;font-size:17.8326664px;font-family:Helvetica;-inkscape-font-specification:Helvetica;writing-mode:lr-tb;fill:#000000;fill-opacity:1;fill-rule:nonzero;stroke:none;stroke-width:1.33333325"><tspan
     style="stroke-width:1.33333325"
     id="tspan92"
     y="166.98933"
     x="255.092 266.98639 276.90134">End</tspan><tspan
     style="stroke-width:1.33333325"
     id="tspan94"
     y="214.11908"
     x="108.60933 118.52428 123.48177 128.43925 138.35422 148.26918 158.18413 167.10048 172.05795 180.97429 190.88925 200.80421 205.76169 215.67665 225.59161 230.5491 239.46544">of body contents.</tspan></text>

<path
   d="m 288.20933,123.91867 v 0 h 2.548 v 0 z"
   style="fill:none;stroke:#000000;stroke-width:1;stroke-linecap:butt;stroke-linejoin:miter;stroke-miterlimit:10;stroke-dasharray:15.28519962, 5.09506654;stroke-dashoffset:0;stroke-opacity:1"
   id="path98" /><path
   d="m 294.57866,171.048 h 95.53226 V 75.515739 h -95.53226 z"
   style="fill:none;stroke:#000000;stroke-width:1;stroke-linecap:butt;stroke-linejoin:miter;stroke-miterlimit:10;stroke-dasharray:15.28519962, 5.09506654;stroke-dashoffset:0;stroke-opacity:1"
   id="path100" /><text
   y="116.03867"
   x="299.67334"
   id="text108"
   style="font-variant:normal;font-weight:normal;font-size:17.8326664px;font-family:Helvetica;-inkscape-font-specification:Helvetica;writing-mode:lr-tb;fill:#5151fa;fill-opacity:1;fill-rule:nonzero;stroke:none;stroke-width:1.33333325"><tspan
     style="stroke-width:1.33333325"
     id="tspan104"
     y="116.03867"
     x="299.67334 304.6308 314.54578 324.46072 334.3757">Inner</tspan><tspan
     style="stroke-width:1.33333325"
     id="tspan106"
     y="165.71574"
     x="299.67334 308.58966 318.50464 328.41959 333.37708 343.29202 353.207 358.16446 367.08081">contents.</tspan></text>

<text
   y="184.90134"
   x="300.948"
   id="text114"
   style="font-style:oblique;font-variant:normal;font-size:14.01146698px;font-family:Helvetica;-inkscape-font-specification:Helvetica-Oblique;writing-mode:lr-tb;fill:#000000;fill-opacity:1;fill-rule:nonzero;stroke:none;stroke-width:1.33333325"><tspan
     style="stroke-width:1.33333325"
     id="tspan112"
     y="184.90134"
     x="300.948 311.06427 314.1748 321.96518 325.86038 333.65076 341.83344 345.72864 353.51901 361.30939 369.09976 372.99496 380.78534">width= 130 px</tspan></text>

</svg>