<?xml version="1.0" encoding="UTF-8" standalone="no"?>
<svg
   xmlns:dc="http://purl.org/dc/elements/1.1/"
   xmlns:cc="http://creativecommons.org/ns#"
   xmlns:rdf="http://www.w3.org/1999/02/22-rdf-syntax-ns#"
   xmlns:svg="http://www.w3.org/2000/svg"
   xmlns="http://www.w3.org/2000/svg"
   version="1.1"
   id="svg2"
   xml:space="preserve"
   width="326"
   height="342"
   preserveAspectRatio="xMidYMid slice"
   viewBox="0 0 417.33334 437.33334"><metadata
   id="metadata8"><rdf:RDF><cc:Work
       rdf:about=""><dc:format>image/svg+xml</dc:format><dc:type
         rdf:resource="http://purl.org/dc/dcmitype/StillImage" /></cc:Work></rdf:RDF></metadata><defs
   id="defs6">








</defs><path
   d="M 95.871331,411.79013 H 392.90466 V 28.38614 H 95.871331 Z"
   style="fill:none;stroke:#000000;stroke-width:1;stroke-linecap:butt;stroke-linejoin:miter;stroke-miterlimit:10;stroke-dasharray:none;stroke-opacity:1"
   id="path14" /><text
   y="72.218674"
   x="76.764534"
   id="text34"
   style="font-variant:normal;font-weight:normal;font-size:15.28519917px;font-family:Helvetica;-inkscape-font-specification:Helvetica;writing-mode:lr-tb;fill:#000000;fill-opacity:1;fill-rule:nonzero;stroke:none;stroke-width:1.33333325"><tspan
     style="stroke-width:1.33333325"
     id="tspan18"
     y="72.218674"
     x="76.764534">1</tspan><tspan
     style="stroke-width:1.33333325"
     id="tspan20"
     y="118.0744"
     x="76.764534">2</tspan><tspan
     style="stroke-width:1.33333325"
     id="tspan22"
     y="166.47746"
     x="76.764534">3</tspan><tspan
     style="stroke-width:1.33333325"
     id="tspan24"
     y="214.88054"
     x="76.764534">4</tspan><tspan
     style="stroke-width:1.33333325"
     id="tspan26"
     y="262.01028"
     x="76.764534">5</tspan><tspan
     style="stroke-width:1.33333325"
     id="tspan28"
     y="310.41333"
     x="76.764534">6</tspan><tspan
     style="stroke-width:1.33333325"
     id="tspan30"
     y="357.54254"
     x="76.764534">7</tspan><tspan
     style="stroke-width:1.33333325"
     id="tspan32"
     y="402.12427"
     x="76.764534">8</tspan></text>

<path
   d="M 95.871331,75.516006 H 130.26306"
   style="fill:none;stroke:#000000;stroke-width:1;stroke-linecap:butt;stroke-linejoin:miter;stroke-miterlimit:10;stroke-dasharray:none;stroke-opacity:1"
   id="path36" /><path
   d="M 95.871331,123.91867 H 130.26306"
   style="fill:none;stroke:#000000;stroke-width:1;stroke-linecap:butt;stroke-linejoin:miter;stroke-miterlimit:10;stroke-dasharray:none;stroke-opacity:1"
   id="path38" /><path
   d="M 95.871331,363.38693 H 130.26306"
   style="fill:none;stroke:#000000;stroke-width:1;stroke-linecap:butt;stroke-linejoin:miter;stroke-miterlimit:10;stroke-dasharray:none;stroke-opacity:1"
   id="path40" /><path
   d="M 95.871331,219.45067 H 130.26306"
   style="fill:none;stroke:#000000;stroke-width:1;stroke-linecap:butt;stroke-linejoin:miter;stroke-miterlimit:10;stroke-dasharray:none;stroke-opacity:1"
   id="path42" /><path
   d="M 95.871331,172.32134 H 130.26306"
   style="fill:none;stroke:#000000;stroke-width:1;stroke-linecap:butt;stroke-linejoin:miter;stroke-miterlimit:10;stroke-dasharray:none;stroke-opacity:1"
   id="path44" /><path
   d="M 95.871331,267.85467 H 130.26306"
   style="fill:none;stroke:#000000;stroke-width:1;stroke-linecap:butt;stroke-linejoin:miter;stroke-miterlimit:10;stroke-dasharray:none;stroke-opacity:1"
   id="path46" /><path
   d="M 95.871331,316.25733 H 130.26306"
   style="fill:none;stroke:#000000;stroke-width:1;stroke-linecap:butt;stroke-linejoin:miter;stroke-miterlimit:10;stroke-dasharray:none;stroke-opacity:1"
   id="path48" /><text
   y="13.473341"
   x="173.724"
   id="text54"
   style="font-style:oblique;font-variant:normal;font-weight:bold;font-size:15.28519917px;font-family:Helvetica;-inkscape-font-specification:Helvetica-BoldOblique;writing-mode:lr-tb;fill:#000000;fill-opacity:1;fill-rule:nonzero;stroke:none;stroke-width:1.33333325"><tspan
     style="stroke-width:1.33333325"
     id="tspan52"
     y="13.473341"
     x="173.724 184.75992 194.09917 202.59775 211.937 225.52554 234.02411 243.36337 248.45334 252.70262 267.13187 271.38113 280.7204 290.05966 299.39893">Document Window</tspan></text>

<text
   y="17.828554"
   x="83.133865"
   id="text62"
   style="font-variant:normal;font-weight:normal;font-size:14.01146698px;font-family:Helvetica;-inkscape-font-specification:Helvetica;writing-mode:lr-tb;fill:#000000;fill-opacity:1;fill-rule:nonzero;stroke:none;stroke-width:1.33333325"><tspan
     style="stroke-width:1.33333325"
     id="tspan56"
     y="17.828554"
     x="83.133865 87.799683 95.590057 99.485245 107.27562">(0,0)</tspan><tspan
     style="stroke-width:1.33333325"
     id="tspan58"
     y="15.280634"
     x="360.81519 365.48102 373.27139 377.16656 381.06177 388.85214 396.64252 404.43289">(0, 400)</tspan><tspan
     style="stroke-width:1.33333325"
     id="tspan60"
     y="430.52863"
     x="74.217865 78.883682 86.674057 94.464432 102.25481 106.15 110.04519 117.83556 354.44586 359.11169 366.90204 374.69244 382.48279 386.37799 390.27319 398.06354 405.85394 413.64429">(400, 0)(400, 400)</tspan></text>

<path
   d="M 55.110932,75.516006 H 38.551599 V 121.372 h 19.1068"
   style="fill:none;stroke:#000000;stroke-width:1;stroke-linecap:butt;stroke-linejoin:miter;stroke-miterlimit:10;stroke-dasharray:none;stroke-opacity:1"
   id="path64" /><text
   y="103.38001"
   x="1.6125066"
   id="text70"
   style="font-style:oblique;font-variant:normal;font-size:14.01146698px;font-family:Helvetica;-inkscape-font-specification:Helvetica-Oblique;writing-mode:lr-tb;fill:#000000;fill-opacity:1;fill-rule:nonzero;stroke:none;stroke-width:1.33333325"><tspan
     style="stroke-width:1.33333325"
     id="tspan68"
     y="103.38001"
     x="1.6125066 9.4028816 17.193256 21.088444 28.87882">24 px</tspan></text>

<text
   y="71.457069"
   x="108.6089"
   id="text76"
   style="font-variant:normal;font-weight:normal;font-size:17.8326664px;font-family:Helvetica;-inkscape-font-specification:Helvetica;writing-mode:lr-tb;fill:#000000;fill-opacity:1;fill-rule:nonzero;stroke:none;stroke-width:1.33333325"><tspan
     style="stroke-width:1.33333325"
     id="tspan72"
     y="71.457069"
     x="108.6089 120.50329 130.41826 140.33321 144.29207 154.20703 164.12199 168.08084 177.9958 187.91077 192.86824 202.78322 207.74069 212.69817 222.61314 232.52809 242.44307 251.35939 256.31686 265.23322 275.14816 285.06314 290.02063 299.93558 309.85052 314.80801 323.72437 328.68182 333.63931 345.53369 355.44867 365.36365 370.32111 380.23608">Beginning of body contents. End of</tspan><tspan
     style="stroke-width:1.33333325"
     id="tspan74"
     y="118.58627"
     x="108.6089 118.52386 128.43883 138.35379 147.27013 152.2276 161.14394 171.0589 180.97386 185.93134 195.8463 205.76126 210.71875 219.63509">body contents.</tspan></text>

<path
   d="M 241.03866,407.78173 H 390.11199 V 222.44974 H 241.03866 Z"
   style="fill:none;stroke:#000000;stroke-width:1;stroke-linecap:butt;stroke-linejoin:miter;stroke-miterlimit:10;stroke-dasharray:15.28519962, 5.09506654;stroke-dashoffset:0;stroke-opacity:1"
   id="path78" /><text
   y="218.01868"
   x="206.68933"
   id="text84"
   style="font-style:oblique;font-variant:normal;font-size:14.01146698px;font-family:Helvetica;-inkscape-font-specification:Helvetica-Oblique;writing-mode:lr-tb;fill:#000000;fill-opacity:1;fill-rule:nonzero;stroke:none;stroke-width:1.33333325"><tspan
     style="stroke-width:1.33333325"
     id="tspan82"
     y="218.01868"
     x="206.68933 211.35515 219.14552 226.9359 234.72627 238.62146 242.51665 250.30702 258.09741 265.88779">(200, 200)</tspan></text>

<text
   y="266.34399"
   x="243.62799"
   id="text92"
   style="font-variant:normal;font-weight:normal;font-size:17.8326664px;font-family:Helvetica;-inkscape-font-specification:Helvetica;writing-mode:lr-tb;fill:#f91340;fill-opacity:1;fill-rule:nonzero;stroke:none;stroke-width:1.33333325"><tspan
     style="stroke-width:1.33333325"
     id="tspan88"
     y="266.34399"
     x="243.62799 255.52238 260.47986 270.39484 276.3331 281.29059 286.24808 296.16302 301.12051 306.07797 315.99295 325.9079 330.86539 340.78036">Start of outer</tspan><tspan
     style="stroke-width:1.33333325"
     id="tspan90"
     y="312.19974"
     x="243.62799 252.54433 262.45929 272.37424 277.33173 287.2467 297.16165 302.11914 311.03546">contents.</tspan></text>

<text
   y="312.19946"
   x="328.97067"
   id="text100"
   style="font-variant:normal;font-weight:normal;font-size:17.8326664px;font-family:Helvetica;-inkscape-font-specification:Helvetica;writing-mode:lr-tb;fill:#5151fa;fill-opacity:1;fill-rule:nonzero;stroke:none;stroke-width:1.33333325"><tspan
     style="stroke-width:1.33333325"
     id="tspan96"
     y="312.19946"
     x="328.97067 333.92813 343.84311 353.75806 363.67303">Inner</tspan><tspan
     style="stroke-width:1.33333325"
     id="tspan98"
     y="354.23334"
     x="243.62799 252.54433 262.45929 272.37424 277.33173 287.2467 297.16165 302.11914 311.03546">contents.</tspan></text>

<text
   y="354.23334"
   x="328.97067"
   id="text108"
   style="font-variant:normal;font-weight:normal;font-size:17.8326664px;font-family:Helvetica;-inkscape-font-specification:Helvetica;writing-mode:lr-tb;fill:#f91340;fill-opacity:1;fill-rule:nonzero;stroke:none;stroke-width:1.33333325"><tspan
     style="stroke-width:1.33333325"
     id="tspan104"
     y="354.23334"
     x="328.97067 340.86505 350.78 360.69498 365.65247 375.56741">End of</tspan><tspan
     style="stroke-width:1.33333325"
     id="tspan106"
     y="397.54172"
     x="243.62799 253.54295 263.45792 268.41541 278.33035 284.26865 289.22614 298.14246 308.0574 317.97238 322.92987 332.84482 342.7598 347.71725 356.63361">outer contents.</tspan></text>

</svg>