<?xml version="1.0" encoding="UTF-8" standalone="no"?>
<svg
   xmlns:dc="http://purl.org/dc/elements/1.1/"
   xmlns:cc="http://creativecommons.org/ns#"
   xmlns:rdf="http://www.w3.org/1999/02/22-rdf-syntax-ns#"
   xmlns:svg="http://www.w3.org/2000/svg"
   xmlns="http://www.w3.org/2000/svg"
   version="1.1"
   id="svg2"
   xml:space="preserve"
   width="326"
   height="342"
   preserveAspectRatio="xMidYMid slice"
   viewBox="0 0 417.33334 437.33334"><metadata
   id="metadata8"><rdf:RDF><cc:Work
       rdf:about=""><dc:format>image/svg+xml</dc:format><dc:type
         rdf:resource="http://purl.org/dc/dcmitype/StillImage" /></cc:Work></rdf:RDF></metadata><defs
   id="defs6">










</defs><path
   d="M 95.871331,411.79013 H 392.90466 V 28.38614 H 95.871331 Z"
   style="fill:none;stroke:#000000;stroke-width:1;stroke-linecap:butt;stroke-linejoin:miter;stroke-miterlimit:10;stroke-dasharray:none;stroke-opacity:1"
   id="path14" /><text
   y="72.218674"
   x="76.764534"
   id="text32"
   style="font-variant:normal;font-weight:normal;font-size:15.28519917px;font-family:Helvetica;-inkscape-font-specification:Helvetica;writing-mode:lr-tb;fill:#000000;fill-opacity:1;fill-rule:nonzero;stroke:none;stroke-width:1.33333325"><tspan
     style="stroke-width:1.33333325"
     id="tspan18"
     y="72.218674"
     x="76.764534">1</tspan><tspan
     style="stroke-width:1.33333325"
     id="tspan20"
     y="118.0744"
     x="76.764534">2</tspan><tspan
     style="stroke-width:1.33333325"
     id="tspan22"
     y="166.47746"
     x="76.764534">3</tspan><tspan
     style="stroke-width:1.33333325"
     id="tspan24"
     y="262.01028"
     x="76.764534">5</tspan><tspan
     style="stroke-width:1.33333325"
     id="tspan26"
     y="310.41333"
     x="76.764534">6</tspan><tspan
     style="stroke-width:1.33333325"
     id="tspan28"
     y="357.54254"
     x="76.764534">7</tspan><tspan
     style="stroke-width:1.33333325"
     id="tspan30"
     y="402.12427"
     x="76.764534">8</tspan></text>

<path
   d="M 95.871331,75.516006 H 130.26306"
   style="fill:none;stroke:#000000;stroke-width:1;stroke-linecap:butt;stroke-linejoin:miter;stroke-miterlimit:10;stroke-dasharray:none;stroke-opacity:1"
   id="path34" /><path
   d="M 95.871331,123.91867 H 130.26306"
   style="fill:none;stroke:#000000;stroke-width:1;stroke-linecap:butt;stroke-linejoin:miter;stroke-miterlimit:10;stroke-dasharray:none;stroke-opacity:1"
   id="path36" /><path
   d="M 95.871331,363.38693 H 130.26306"
   style="fill:none;stroke:#000000;stroke-width:1;stroke-linecap:butt;stroke-linejoin:miter;stroke-miterlimit:10;stroke-dasharray:none;stroke-opacity:1"
   id="path38" /><path
   d="M 95.871331,172.32134 H 130.26306"
   style="fill:none;stroke:#000000;stroke-width:1;stroke-linecap:butt;stroke-linejoin:miter;stroke-miterlimit:10;stroke-dasharray:none;stroke-opacity:1"
   id="path40" /><text
   y="13.473341"
   x="173.724"
   id="text46"
   style="font-style:oblique;font-variant:normal;font-weight:bold;font-size:15.28519917px;font-family:Helvetica;-inkscape-font-specification:Helvetica-BoldOblique;writing-mode:lr-tb;fill:#000000;fill-opacity:1;fill-rule:nonzero;stroke:none;stroke-width:1.33333325"><tspan
     style="stroke-width:1.33333325"
     id="tspan44"
     y="13.473341"
     x="173.724 184.75992 194.09917 202.59775 211.937 225.52554 234.02411 243.36337 248.45334 252.70262 267.13187 271.38113 280.7204 290.05966 299.39893">Document Window</tspan></text>

<text
   y="17.828554"
   x="83.133865"
   id="text54"
   style="font-variant:normal;font-weight:normal;font-size:14.01146698px;font-family:Helvetica;-inkscape-font-specification:Helvetica;writing-mode:lr-tb;fill:#000000;fill-opacity:1;fill-rule:nonzero;stroke:none;stroke-width:1.33333325"><tspan
     style="stroke-width:1.33333325"
     id="tspan48"
     y="17.828554"
     x="83.133865 87.799683 95.590057 99.485245 107.27562">(0,0)</tspan><tspan
     style="stroke-width:1.33333325"
     id="tspan50"
     y="15.280634"
     x="360.81519 365.48102 373.27139 377.16656 381.06177 388.85214 396.64252 404.43289">(0, 400)</tspan><tspan
     style="stroke-width:1.33333325"
     id="tspan52"
     y="430.52863"
     x="74.217865 78.883682 86.674057 94.464432 102.25481 106.15 110.04519 117.83556 354.44586 359.11169 366.90204 374.69244 382.48279 386.37799 390.27319 398.06354 405.85394 413.64429">(400, 0)(400, 400)</tspan></text>

<text
   y="71.45797"
   x="108.60853"
   id="text58"
   style="font-variant:normal;font-weight:normal;font-size:17.8326664px;font-family:Helvetica;-inkscape-font-specification:Helvetica;writing-mode:lr-tb;fill:#000000;fill-opacity:1;fill-rule:nonzero;stroke:none;stroke-width:1.33333325"><tspan
     style="stroke-width:1.33333325"
     id="tspan56"
     y="71.45797"
     x="108.60853 120.50292 130.41788 140.33284 144.2917 154.20667 164.12163 168.08047 177.99544 187.9104 192.86787 202.78284 207.74033 212.6978 222.61276 232.52773 242.4427 251.35901 256.3165 265.23285 275.1478 285.06277 290.02023 299.93521 309.85016 314.80765 323.72397">Beginning of body contents.</tspan></text>

<text
   y="71.457336"
   x="339.16132"
   id="text64"
   style="font-variant:normal;font-weight:normal;font-size:17.8326664px;font-family:Helvetica;-inkscape-font-specification:Helvetica;writing-mode:lr-tb;fill:#f91340;fill-opacity:1;fill-rule:nonzero;stroke:none;stroke-width:1.33333325"><tspan
     style="stroke-width:1.33333325"
     id="tspan62"
     y="71.457336"
     x="339.16132 351.05569 356.01318 365.92816 371.86642">Start</tspan></text>

<path
   d="M 55.110932,75.516006 H 38.551599 V 121.372 h 19.1068"
   style="fill:none;stroke:#000000;stroke-width:1;stroke-linecap:butt;stroke-linejoin:miter;stroke-miterlimit:10;stroke-dasharray:none;stroke-opacity:1"
   id="path66" /><text
   y="103.38001"
   x="1.6125066"
   id="text72"
   style="font-style:oblique;font-variant:normal;font-size:14.01146698px;font-family:Helvetica;-inkscape-font-specification:Helvetica-Oblique;writing-mode:lr-tb;fill:#000000;fill-opacity:1;fill-rule:nonzero;stroke:none;stroke-width:1.33333325"><tspan
     style="stroke-width:1.33333325"
     id="tspan70"
     y="103.38001"
     x="1.6125066 9.4028816 17.193256 21.088444 28.87882">24 px</tspan></text>

<text
   y="117.31334"
   x="108.6088"
   id="text80"
   style="font-variant:normal;font-weight:normal;font-size:17.8326664px;font-family:Helvetica;-inkscape-font-specification:Helvetica;writing-mode:lr-tb;fill:#f91340;fill-opacity:1;fill-rule:nonzero;stroke:none;stroke-width:1.33333325"><tspan
     style="stroke-width:1.33333325"
     id="tspan76"
     y="117.31334"
     x="108.6088 118.52377 123.48125 128.43872 138.35368 148.26865 153.22614 163.1411 169.07938 174.03685 182.95319 192.86815 202.78311 207.74059 217.65555 227.57051 232.528 241.44432 246.40181 251.35928 263.25369 273.16864 283.08362 288.04108 297.95605 302.91351 307.87103 317.78598 327.70093 332.65842 342.57336">of outer contents. End of outer</tspan><tspan
     style="stroke-width:1.33333325"
     id="tspan78"
     y="166.98987"
     x="108.6088 117.52513 127.44009 137.35506 142.31255 152.22751 162.14247 167.09995 176.01628">contents.</tspan></text>

<text
   y="166.98933"
   x="190.13066"
   id="text86"
   style="font-variant:normal;font-weight:normal;font-size:17.8326664px;font-family:Helvetica;-inkscape-font-specification:Helvetica;writing-mode:lr-tb;fill:#000000;fill-opacity:1;fill-rule:nonzero;stroke:none;stroke-width:1.33333325"><tspan
     style="stroke-width:1.33333325"
     id="tspan84"
     y="166.98933"
     x="190.13066 202.02505 211.94002 221.85498 226.81245 236.72742 241.68491 246.64238 256.55734 266.47229 276.38727 285.30359 290.26108 299.1774 309.09238 319.00732 323.96484 333.87976 343.79474 348.75223 357.66855">End of body contents.</tspan></text>

<path
   d="M 94.597331,219.45334 H 125.06613 V 329.88747 H 97.246931"
   style="fill:none;stroke:#000000;stroke-width:1;stroke-linecap:butt;stroke-linejoin:miter;stroke-miterlimit:10;stroke-dasharray:15.28519962, 5.09506654;stroke-dashoffset:0;stroke-opacity:1"
   id="path88" /><text
   y="298.18799"
   x="98.4188"
   id="text94"
   style="font-variant:normal;font-weight:normal;font-size:17.8326664px;font-family:Helvetica;-inkscape-font-specification:Helvetica;writing-mode:lr-tb;fill:#5151fa;fill-opacity:1;fill-rule:nonzero;stroke:none;stroke-width:1.33333325"><tspan
     style="stroke-width:1.33333325"
     id="tspan92"
     y="298.18799"
     x="98.4188 108.33376 113.29124 122.20757">nts.</tspan></text>

<path
   d="M 94.916131,220.72667 H 44.283866 V 329.8292 h 51.587465"
   style="fill:#bfbfbf;fill-opacity:1;fill-rule:evenodd;stroke:none;stroke-width:0.13333333"
   id="path96" /><path
   d="M 94.916131,220.72667 H 44.283866 V 329.8292 h 51.587465"
   style="fill:none;stroke:#000000;stroke-width:1;stroke-linecap:butt;stroke-linejoin:miter;stroke-miterlimit:10;stroke-dasharray:15.28519962, 5.09506654;stroke-dashoffset:0;stroke-opacity:1"
   id="path98" /><text
   y="256.15332"
   x="46.194267"
   id="text106"
   style="font-variant:normal;font-weight:normal;font-size:17.8326664px;font-family:Helvetica;-inkscape-font-specification:Helvetica;writing-mode:lr-tb;fill:#000000;fill-opacity:1;fill-rule:nonzero;stroke:none;stroke-width:1.33333325"><tspan
     style="stroke-width:1.33333325"
     id="tspan102"
     y="256.15332"
     x="46.194267 51.151749 61.066711 70.981674 80.896637">Inner</tspan><tspan
     style="stroke-width:1.33333325"
     id="tspan104"
     y="298.18774"
     x="46.194267 59.06945 68.984413 78.899376 83.856857">Conte</tspan></text>

<text
   y="211.65027"
   x="10.5292"
   id="text110"
   style="font-style:oblique;font-variant:normal;font-size:14.01146698px;font-family:Helvetica;-inkscape-font-specification:Helvetica-Oblique;writing-mode:lr-tb;fill:#000000;fill-opacity:1;fill-rule:nonzero;stroke:none;stroke-width:1.33333325"><tspan
     style="stroke-width:1.33333325"
     id="tspan108"
     y="211.65027"
     x="10.5292 15.195019 23.377714 31.168091 38.958466 46.74884 50.644028 54.539215 62.329594 70.119965 77.910339">(−100, 200)</tspan></text>

</svg>