<?xml version="1.0" encoding="UTF-8" standalone="no"?>
<svg
   xmlns:dc="http://purl.org/dc/elements/1.1/"
   xmlns:cc="http://creativecommons.org/ns#"
   xmlns:rdf="http://www.w3.org/1999/02/22-rdf-syntax-ns#"
   xmlns:svg="http://www.w3.org/2000/svg"
   xmlns="http://www.w3.org/2000/svg"
   version="1.1"
   id="svg2"
   xml:space="preserve"
   width="364"
   height="96"
   preserveAspectRatio="xMidYMid slice"
   viewBox="0 0 468 125.33333"><metadata
   id="metadata8"><rdf:RDF><cc:Work
       rdf:about=""><dc:format>image/svg+xml</dc:format><dc:type
         rdf:resource="http://purl.org/dc/dcmitype/StillImage" /></cc:Work></rdf:RDF></metadata><defs
   id="defs6">



</defs><text
   y="70"
   x="1.2"
   id="text22"
   style="font-variant:normal;font-weight:normal;font-size:21.60000038px;font-family:Times;-inkscape-font-specification:Times-Roman;writing-mode:lr-tb;fill:#000000;fill-opacity:1;fill-rule:nonzero;stroke:none;stroke-width:1.33333325"><tspan
     style="stroke-width:1.33333325"
     id="tspan16"
     y="70"
     x="1.2 14.3976 21.590399 32.3904 41.980801 49.173599 56.366402 65.956802 82.761597 88.766396 94.166397 104.96639 115.7664 125.3568 132.54959 137.9496 154.75439 165.5544 170.95441 180.5448 191.34479 196.7448 213.54961 219.55438 225.55919 236.35919 241.7592 252.55919 262.1496 272.94958 282.54001 292.1304 302.93039 318.5256 329.32559 338.91599 344.31601 355.116 364.70639 373.1088 379.11362 388.70398">Erbarremt over my en mijn benaeuwde vesten</tspan><tspan
     style="stroke-width:1.33333325"
     id="tspan18"
     y="94"
     x="1.2 14.3976 25.197599 30.597601 40.188 47.380798 64.1856 73.775993 79.175995 89.975998 100.77599 107.9688 118.76879 128.35919 135.552 146.35199 151.752 157.15199 166.7424 177.5424 182.94238 193.7424 204.5424 209.94238 226.74719 232.752 238.75679 249.55678 254.95679 265.75681 276.55679 282.56158 292.15201 302.952 308.35199 319.15201 328.7424 339.54239 349.13278">En arme burgery, en op mijn volcx gebed</tspan><tspan
     style="stroke-width:1.33333325"
     id="tspan20"
     y="118"
     x="1.2 14.3976 25.197599 30.597601 41.397598 50.987999 61.788002 71.378403 77.383202 83.387993 94.187996 99.587997 110.38799 119.9784 128.3808 137.97119 148.77119 155.96399 165.5544 176.3544 181.75439 192.55438 202.14481 207.5448 218.34479 227.9352 238.73518 249.5352 259.12558 264.5256 272.92801 278.9328 288.52319 299.32321 304.72318 315.52319 326.32321 332.32797 341.9184 351.50879 357.51358">En dagelix geschrey de bange stad ontzet.</tspan></text>

<text
   y="46"
   x="1.2"
   id="text26"
   style="font-variant:normal;font-weight:normal;font-size:64.79999542px;font-family:Times;-inkscape-font-specification:Times-Roman;writing-mode:lr-tb;fill:#000000;fill-opacity:1;fill-rule:nonzero;stroke:none;stroke-width:1.33333325"><tspan
     style="stroke-width:1.33333325"
     id="tspan24"
     y="46"
     x="1.2">H</tspan></text>

<text
   y="46"
   x="49.200001"
   id="text30"
   style="font-variant:normal;font-weight:bold;font-size:21.60000038px;font-family:Times;-inkscape-font-specification:Times-Bold;writing-mode:lr-tb;fill:#000000;fill-opacity:1;fill-rule:nonzero;stroke:none;stroke-width:1.33333325"><tspan
     style="stroke-width:1.33333325"
     id="tspan28"
     y="46"
     x="49.200001 58.790398 65.9832 71.383202 83.392799 92.983192 110.976 120.5664 126.5712 134.9736 144.564 156.57359">et hemelsche</tspan></text>

<text
   y="46"
   x="169.2"
   id="text34"
   style="font-variant:normal;font-weight:normal;font-size:21.60000038px;font-family:Times;-inkscape-font-specification:Times-Roman;writing-mode:lr-tb;fill:#000000;fill-opacity:1;fill-rule:nonzero;stroke:none;stroke-width:1.33333325"><tspan
     style="stroke-width:1.33333325"
     id="tspan32"
     y="46"
     x="169.2 180 189.59039 196.7832 206.3736 215.964 226.76399 232.7688 238.16879 248.9688 258.5592 268.1496 275.34241 281.3472 286.74719 296.33759 302.34238 311.9328 322.73279 328.13278 334.1376 343.728 354.52798 359.92801 365.9328 375.52319 386.32321 397.1232 406.71359 412.11359 418.11838 427.7088 436.11118 442.116 451.70639">gerecht heeft zich ten lange lesten</tspan></text>

</svg>