<?xml version="1.0" encoding="UTF-8" standalone="no"?>
<svg
   xmlns:dc="http://purl.org/dc/elements/1.1/"
   xmlns:cc="http://creativecommons.org/ns#"
   xmlns:rdf="http://www.w3.org/1999/02/22-rdf-syntax-ns#"
   xmlns:svg="http://www.w3.org/2000/svg"
   xmlns="http://www.w3.org/2000/svg"
   version="1.1"
   id="svg2"
   xml:space="preserve"
   width="204"
   height="219"
   preserveAspectRatio="xMidYMid slice"
   viewBox="0 0 261.33334 280"><metadata
   id="metadata8"><rdf:RDF><cc:Work
       rdf:about=""><dc:format>image/svg+xml</dc:format><dc:type
         rdf:resource="http://purl.org/dc/dcmitype/StillImage" /></cc:Work></rdf:RDF></metadata><defs
   id="defs6">


</defs><text
   y="13.78534"
   x="82.813065"
   id="text24"
   style="font-variant:normal;font-weight:normal;font-size:15.28519917px;font-family:Helvetica;-inkscape-font-specification:Helvetica;writing-mode:lr-tb;fill:#000000;fill-opacity:1;fill-rule:nonzero;stroke:none;stroke-width:1.33333325"><tspan
     style="stroke-width:1.33333325"
     id="tspan16"
     y="13.78534"
     x="82.813065 87.062347 90.455666 95.545639 103.18823 107.43752 111.68681 115.08012 118.47343 126.11604 130.36533 134.61461 138.00792 142.2572 150.75578">first list item</tspan><tspan
     style="stroke-width:1.33333325"
     id="tspan18"
     y="29.070272"
     x="82.813065 90.455666 98.954239 111.68681 120.18538 127.82798 132.07727 136.32655 139.71986 144.80983 152.45244">comes first</tspan><tspan
     style="stroke-width:1.33333325"
     id="tspan20"
     y="59.641071"
     x="82.813065 90.455666 98.954239 106.59683 115.09541 123.59398 132.09254 136.34183 139.73515 143.12846 150.77106 155.02036 159.26964 162.66295 166.91223 175.4108">second list item</tspan><tspan
     style="stroke-width:1.33333325"
     id="tspan22"
     y="74.926003"
     x="82.813065 90.455666 98.954239 111.68681 120.18538 127.82798 132.07727 139.71986 148.21843 155.86104 164.3596 172.85818">comes second</tspan></text>

<path
   d="m 73.896398,56.569339 c 0,-1.406667 -1.140666,-2.548 -2.547466,-2.548 -1.4068,0 -2.547334,1.141333 -2.547334,2.548 0,1.406667 1.140534,2.546667 2.547334,2.546667 1.4068,0 2.547466,-1.14 2.547466,-2.546667"
   style="fill:#000000;fill-opacity:1;fill-rule:evenodd;stroke:none;stroke-width:0.13333333"
   id="path26" /><path
   d="m 73.896398,56.569339 c 0,-1.406667 -1.140666,-2.548 -2.547466,-2.548 -1.4068,0 -2.547334,1.141333 -2.547334,2.548 0,1.406667 1.140534,2.546667 2.547334,2.546667 1.4068,0 2.547466,-1.14 2.547466,-2.546667"
   style="fill:none;stroke:#000000;stroke-width:1;stroke-linecap:butt;stroke-linejoin:miter;stroke-miterlimit:10;stroke-dasharray:none;stroke-opacity:1"
   id="path28" /><path
   d="m 73.896398,9.4400068 c 0,-1.4066667 -1.140666,-2.548 -2.547466,-2.548 -1.4068,0 -2.547334,1.1413333 -2.547334,2.548 0,1.4066662 1.140534,2.5480002 2.547334,2.5480002 1.4068,0 2.547466,-1.141334 2.547466,-2.5480002"
   style="fill:#000000;fill-opacity:1;fill-rule:evenodd;stroke:none;stroke-width:0.13333333"
   id="path30" /><path
   d="m 73.896398,9.4400068 c 0,-1.4066667 -1.140666,-2.548 -2.547466,-2.548 -1.4068,0 -2.547334,1.1413333 -2.547334,2.548 0,1.4066662 1.140534,2.5480002 2.547334,2.5480002 1.4068,0 2.547466,-1.141334 2.547466,-2.5480002"
   style="fill:none;stroke:#000000;stroke-width:1;stroke-linecap:butt;stroke-linejoin:miter;stroke-miterlimit:10;stroke-dasharray:none;stroke-opacity:1"
   id="path32" /><path
   d="m 87.907864,172.48174 c 0,-1.4068 -1.140666,-2.54734 -2.547466,-2.54734 -1.4068,0 -2.547333,1.14054 -2.547333,2.54734 0,1.4068 1.140533,2.548 2.547333,2.548 1.4068,0 2.547466,-1.1412 2.547466,-2.548"
   style="fill:#000000;fill-opacity:1;fill-rule:evenodd;stroke:none;stroke-width:0.13333333"
   id="path34" /><path
   d="m 87.907864,172.48174 c 0,-1.4068 -1.140666,-2.54734 -2.547466,-2.54734 -1.4068,0 -2.547333,1.14054 -2.547333,2.54734 0,1.4068 1.140533,2.548 2.547333,2.548 1.4068,0 2.547466,-1.1412 2.547466,-2.548"
   style="fill:none;stroke:#000000;stroke-width:1;stroke-linecap:butt;stroke-linejoin:miter;stroke-miterlimit:10;stroke-dasharray:none;stroke-opacity:1"
   id="path36" /><path
   d="m 87.907864,126.62667 c 0,-1.408 -1.140666,-2.548 -2.547466,-2.548 -1.4068,0 -2.547333,1.14 -2.547333,2.548 0,1.40667 1.140533,2.54667 2.547333,2.54667 1.4068,0 2.547466,-1.14 2.547466,-2.54667"
   style="fill:#000000;fill-opacity:1;fill-rule:evenodd;stroke:none;stroke-width:0.13333333"
   id="path38" /><path
   d="m 87.907864,126.62667 c 0,-1.408 -1.140666,-2.548 -2.547466,-2.548 -1.4068,0 -2.547333,1.14 -2.547333,2.548 0,1.40667 1.140533,2.54667 2.547333,2.54667 1.4068,0 2.547466,-1.14 2.547466,-2.54667"
   style="fill:none;stroke:#000000;stroke-width:1;stroke-linecap:butt;stroke-linejoin:miter;stroke-miterlimit:10;stroke-dasharray:none;stroke-opacity:1"
   id="path40" /><text
   y="130.972"
   x="95.560921"
   id="text52"
   style="font-variant:normal;font-weight:normal;font-size:15.28519917px;font-family:Helvetica;-inkscape-font-specification:Helvetica;writing-mode:lr-tb;fill:#000000;fill-opacity:1;fill-rule:nonzero;stroke:none;stroke-width:1.33333325"><tspan
     style="stroke-width:1.33333325"
     id="tspan44"
     y="130.972"
     x="95.560921 99.810211 103.20352 108.2935 115.9361 120.18538 124.43466 127.82798 131.2213 138.86389 143.11317">first list </tspan><tspan
     style="stroke-width:1.33333325"
     id="tspan46"
     y="146.25746"
     x="82.813065 86.206383 90.455666 98.954239 111.68681 115.9361 123.57869 132.07727 144.80984 153.30841 160.951 165.20029 169.44957 172.8429 177.93286 185.57547">item comes first</tspan><tspan
     style="stroke-width:1.33333325"
     id="tspan48"
     y="176.82773"
     x="82.813065 95.560921 103.20352 111.7021 119.34469 127.84326 136.34184 144.84041 149.08969 152.483 155.87631 163.51892"> second list</tspan><tspan
     style="stroke-width:1.33333325"
     id="tspan50"
     y="192.11267"
     x="82.813065 86.206383 90.455666 98.954239 111.68681 115.9361 123.57869 132.07727 144.80984 153.30841 160.951 165.20029 172.8429 181.34146 188.98407 197.48264 205.9812">item comes second</tspan></text>

<path
   d="M 257.31866,94.782671 H 2.5656266"
   style="fill:none;stroke:#000000;stroke-width:1;stroke-linecap:butt;stroke-linejoin:miter;stroke-miterlimit:10;stroke-dasharray:none;stroke-opacity:1"
   id="path54" /><path
   d="m 84.086398,217.0636 v 61.14109"
   style="fill:none;stroke:#000000;stroke-width:1;stroke-linecap:butt;stroke-linejoin:miter;stroke-miterlimit:10;stroke-dasharray:none;stroke-opacity:1"
   id="path56" /><path
   d="m 81.539065,227.2536 2.547333,-10.19 2.548,10.19"
   style="fill:#000000;fill-opacity:1;fill-rule:evenodd;stroke:none;stroke-width:0.13333333"
   id="path58" /><path
   d="m 81.539065,227.2536 2.547333,-10.19 2.548,10.19"
   style="fill:none;stroke:#000000;stroke-width:1;stroke-linecap:butt;stroke-linejoin:miter;stroke-miterlimit:10;stroke-dasharray:none;stroke-opacity:1"
   id="path60" /><text
   y="243.65466"
   x="94.276527"
   id="text70"
   style="font-style:oblique;font-variant:normal;font-size:14.01146698px;font-family:Helvetica;-inkscape-font-specification:Helvetica-Oblique;writing-mode:lr-tb;fill:#000000;fill-opacity:1;fill-rule:nonzero;stroke:none;stroke-width:1.33333325"><tspan
     style="stroke-width:1.33333325"
     id="tspan64"
     y="243.65466"
     x="94.276527 102.83754 110.62791 118.41829 122.31348 125.42402 133.2144 137.10959 141.00478 144.89996 151.90569 155.01624 162.80661 170.59698 177.60272 181.49791 189.28828 193.18347 197.07866 200.97385 208.76422">The left sides of the</tspan><tspan
     style="stroke-width:1.33333325"
     id="tspan66"
     y="257.66614"
     x="94.276527 97.387077 100.49762 107.50336 111.39854 115.29373 118.40427 122.29946 130.08984 141.76138 145.65659 153.44696 161.23734 168.24306 176.03343 183.03917 186.93436 194.72473 199.39055 207.18092 211.07613 218.8665 226.65688 230.55205">list item boxes are not </tspan><tspan
     style="stroke-width:1.33333325"
     id="tspan68"
     y="271.67761"
     x="94.276527 102.06691 105.9621 109.85728 117.64766 124.65339 128.54858 136.33896 144.12933 148.02452 155.8149 162.82062 166.71581 178.38736 186.17775 190.84355 197.84929 205.63966 210.30548 214.20067 221.99104 225.10159 232.89197 239.89771 247.68808 259.35962 267.14999 274.9404">affected by marker placement</tspan></text>

</svg>