<?xml version="1.0" encoding="UTF-8" standalone="no"?>
<svg
   xmlns:dc="http://purl.org/dc/elements/1.1/"
   xmlns:cc="http://creativecommons.org/ns#"
   xmlns:rdf="http://www.w3.org/1999/02/22-rdf-syntax-ns#"
   xmlns:svg="http://www.w3.org/2000/svg"
   xmlns="http://www.w3.org/2000/svg"
   version="1.1"
   id="svg2"
   xml:space="preserve"
   width="177"
   height="173"
   preserveAspectRatio="xMidYMid slice"
   viewBox="0 0 226.66667 221.33333"><metadata
   id="metadata8"><rdf:RDF><cc:Work
       rdf:about=""><dc:format>image/svg+xml</dc:format><dc:type
         rdf:resource="http://purl.org/dc/dcmitype/StillImage" /></cc:Work></rdf:RDF></metadata><defs
   id="defs6">

</defs><path
   d="M 4.2427066,129.47187 H 131.61924 V 2.0948021 H 4.2427066 Z"
   style="fill:none;stroke:#f91340;stroke-width:2.54753327;stroke-linecap:butt;stroke-linejoin:miter;stroke-miterlimit:10;stroke-dasharray:none;stroke-opacity:1"
   id="path14" /><text
   y="151.87973"
   x="2.9687467"
   id="text22"
   style="font-style:oblique;font-variant:normal;font-size:15.28519917px;font-family:Helvetica;-inkscape-font-specification:Helvetica-Oblique;writing-mode:lr-tb;fill:#000000;fill-opacity:1;fill-rule:nonzero;stroke:none;stroke-width:1.33333325"><tspan
     style="stroke-width:1.33333325"
     id="tspan18"
     y="151.87973"
     x="2.9687467 14.004661 18.253946">DIV</tspan><tspan
     style="stroke-width:1.33333325"
     id="tspan20"
     y="214.29427"
     x="66.65728 76.852509 85.351082 97.242966 108.27888 118.47411 130.366 141.4019 153.29379 162.63306">BLOCKQUOTE</tspan></text>

<path
   d="M 67.930265,193.15933 H 225.07559 V 69.813467 H 67.930265 Z"
   style="fill:none;stroke:#000000;stroke-width:2.54753327;stroke-linecap:butt;stroke-linejoin:miter;stroke-miterlimit:10;stroke-dasharray:15.28519962, 5.09506654;stroke-dashoffset:0;stroke-opacity:1"
   id="path24" /><text
   y="85.624001"
   x="71.752129"
   id="text40"
   style="font-variant:normal;font-weight:normal;font-size:15.28519917px;font-family:Helvetica;-inkscape-font-specification:Helvetica;writing-mode:lr-tb;fill:#000000;fill-opacity:1;fill-rule:nonzero;stroke:none;stroke-width:1.33333325"><tspan
     style="stroke-width:1.33333325"
     id="tspan28"
     y="85.624001"
     x="71.752129 76.001419 80.250702 88.749275 92.142586 100.64116 109.13973 112.53304 116.78233 121.03162 124.42493 127.81824 135.46085 143.95941 148.20869 152.45799 160.95656 169.45514 173.70441 182.20299 185.5963 194.09488 201.73747">I didn’t like the play,</tspan><tspan
     style="stroke-width:1.33333325"
     id="tspan30"
     y="100.90947"
     x="71.752129 80.250702 88.749275 92.998558 97.247849 101.49713 109.9957 118.49427 126.99284 131.24213 135.49141 139.74071 147.3833 155.88187 166.91779 171.16707 174.56039">but then I saw it</tspan><tspan
     style="stroke-width:1.33333325"
     id="tspan32"
     y="116.19493"
     x="71.752129 80.250702 88.749275 97.247849 105.74641 110.83639 115.08567 123.58424 132.08281 139.72542 148.22398 153.31396 160.95656 169.45514">under adverse </tspan><tspan
     style="stroke-width:1.33333325"
     id="tspan34"
     y="131.48039"
     x="71.752129 79.39473 87.893303 96.391876 104.89044 108.28376 112.53304 115.92636 124.42493 132.92351 140.5661 144.81538 153.74194 157.99123 162.24051 170.73909 179.23766">conditions − the </tspan><tspan
     style="stroke-width:1.33333325"
     id="tspan36"
     y="146.76587"
     x="71.752129 79.39473 87.893303 92.983276 97.232559 105.73113 109.12444 117.62302 121.87231 132.90822 141.40678 149.04939 153.29868 161.79724 170.29581">curtain was up.</tspan><tspan
     style="stroke-width:1.33333325"
     id="tspan38"
     y="162.05133"
     x="71.752129 101.49713 110.42369 114.67297 126.56486 131.65483 140.1534 148.65198 156.29457 164.79315 173.29172 177.541 190.27357 198.77214 203.86212"> − Groucho Marx</tspan></text>

</svg>