<?xml version="1.0" encoding="UTF-8" standalone="no"?>
<svg
   xmlns:dc="http://purl.org/dc/elements/1.1/"
   xmlns:cc="http://creativecommons.org/ns#"
   xmlns:rdf="http://www.w3.org/1999/02/22-rdf-syntax-ns#"
   xmlns:svg="http://www.w3.org/2000/svg"
   xmlns="http://www.w3.org/2000/svg"
   version="1.1"
   id="svg2"
   xml:space="preserve"
   width="322"
   height="251"
   preserveAspectRatio="xMidYMid slice"
   viewBox="0 0 412 321.33334"><metadata
     id="metadata8"><rdf:RDF><cc:Work
         rdf:about=""><dc:format>image/svg+xml</dc:format><dc:type
           rdf:resource="http://purl.org/dc/dcmitype/StillImage" /></cc:Work></rdf:RDF></metadata><defs
     id="defs6" /><g
     id="g10"
     transform="matrix(1.3333333,0,0,-1.3333333,0,321.33333)"><g
       id="g12"
       transform="scale(0.1)"><path
         d="m 679.801,1598.8 c 0,22.86 -18.539,41.4 -41.403,41.4 -22.863,0 -41.398,-18.54 -41.398,-41.4 0,-22.86 18.535,-41.4 41.398,-41.4 22.864,0 41.403,18.54 41.403,41.4"
         style="fill:#ff1441;fill-opacity:1;fill-rule:evenodd;stroke:none"
         id="path14" /><path
         d="m 679.801,1598.8 c 0,22.86 -18.539,41.4 -41.403,41.4 -22.863,0 -41.398,-18.54 -41.398,-41.4 0,-22.86 18.535,-41.4 41.398,-41.4 22.864,0 41.403,18.54 41.403,41.4"
         style="fill:none;stroke:#ff1441;stroke-width:7.19999981;stroke-linecap:butt;stroke-linejoin:miter;stroke-miterlimit:10;stroke-dasharray:none;stroke-opacity:1"
         id="path16" /><path
         d="m 678,1512.4 c 0,22.86 -18.535,41.4 -41.398,41.4 -22.864,0 -41.403,-18.54 -41.403,-41.4 0,-22.86 18.539,-41.4 41.403,-41.4 22.863,0 41.398,18.54 41.398,41.4"
         style="fill:#ff1441;fill-opacity:1;fill-rule:evenodd;stroke:none"
         id="path18" /><path
         d="m 678,1512.4 c 0,22.86 -18.535,41.4 -41.398,41.4 -22.864,0 -41.403,-18.54 -41.403,-41.4 0,-22.86 18.539,-41.4 41.403,-41.4 22.863,0 41.398,18.54 41.398,41.4"
         style="fill:none;stroke:#ff1441;stroke-width:7.19999981;stroke-linecap:butt;stroke-linejoin:miter;stroke-miterlimit:10;stroke-dasharray:none;stroke-opacity:1"
         id="path20" /><path
         d="m 678,1424.2 c 0,22.86 -18.535,41.4 -41.398,41.4 -22.864,0 -41.403,-18.54 -41.403,-41.4 0,-22.86 18.539,-41.4 41.403,-41.4 22.863,0 41.398,18.54 41.398,41.4"
         style="fill:#ff1441;fill-opacity:1;fill-rule:evenodd;stroke:none"
         id="path22" /><path
         d="m 678,1424.2 c 0,22.86 -18.535,41.4 -41.398,41.4 -22.864,0 -41.403,-18.54 -41.403,-41.4 0,-22.86 18.539,-41.4 41.403,-41.4 22.863,0 41.398,18.54 41.398,41.4"
         style="fill:none;stroke:#ff1441;stroke-width:7.19999981;stroke-linecap:butt;stroke-linejoin:miter;stroke-miterlimit:10;stroke-dasharray:none;stroke-opacity:1"
         id="path24" /><path
         d="m 676.199,1339.6 c 0,22.86 -18.535,41.4 -41.398,41.4 -22.863,0 -41.403,-18.54 -41.403,-41.4 0,-22.86 18.54,-41.4 41.403,-41.4 22.863,0 41.398,18.54 41.398,41.4"
         style="fill:#ff1441;fill-opacity:1;fill-rule:evenodd;stroke:none"
         id="path26" /><path
         d="m 676.199,1339.6 c 0,22.86 -18.535,41.4 -41.398,41.4 -22.863,0 -41.403,-18.54 -41.403,-41.4 0,-22.86 18.54,-41.4 41.403,-41.4 22.863,0 41.398,18.54 41.398,41.4"
         style="fill:none;stroke:#ff1441;stroke-width:7.19999981;stroke-linecap:butt;stroke-linejoin:miter;stroke-miterlimit:10;stroke-dasharray:none;stroke-opacity:1"
         id="path28" /><path
         d="m 593.398,1341.4 c 0,22.86 -18.535,41.4 -41.398,41.4 -22.863,0 -41.398,-18.54 -41.398,-41.4 0,-22.86 18.535,-41.4 41.398,-41.4 22.863,0 41.398,18.54 41.398,41.4"
         style="fill:#ff1441;fill-opacity:1;fill-rule:evenodd;stroke:none"
         id="path30" /><path
         d="m 593.398,1341.4 c 0,22.86 -18.535,41.4 -41.398,41.4 -22.863,0 -41.398,-18.54 -41.398,-41.4 0,-22.86 18.535,-41.4 41.398,-41.4 22.863,0 41.398,18.54 41.398,41.4"
         style="fill:none;stroke:#ff1441;stroke-width:7.19999981;stroke-linecap:butt;stroke-linejoin:miter;stroke-miterlimit:10;stroke-dasharray:none;stroke-opacity:1"
         id="path32" /><path
         d="m 595.199,1426 c 0,22.86 -18.535,41.4 -41.398,41.4 -22.863,0 -41.403,-18.54 -41.403,-41.4 0,-22.86 18.54,-41.4 41.403,-41.4 22.863,0 41.398,18.54 41.398,41.4"
         style="fill:#ff1441;fill-opacity:1;fill-rule:evenodd;stroke:none"
         id="path34" /><path
         d="m 595.199,1426 c 0,22.86 -18.535,41.4 -41.398,41.4 -22.863,0 -41.403,-18.54 -41.403,-41.4 0,-22.86 18.54,-41.4 41.403,-41.4 22.863,0 41.398,18.54 41.398,41.4"
         style="fill:none;stroke:#ff1441;stroke-width:7.19999981;stroke-linecap:butt;stroke-linejoin:miter;stroke-miterlimit:10;stroke-dasharray:none;stroke-opacity:1"
         id="path36" /><path
         d="m 595.199,1514.2 c 0,22.86 -18.535,41.4 -41.398,41.4 -22.863,0 -41.403,-18.54 -41.403,-41.4 0,-22.86 18.54,-41.4 41.403,-41.4 22.863,0 41.398,18.54 41.398,41.4"
         style="fill:#ff1441;fill-opacity:1;fill-rule:evenodd;stroke:none"
         id="path38" /><path
         d="m 595.199,1514.2 c 0,22.86 -18.535,41.4 -41.398,41.4 -22.863,0 -41.403,-18.54 -41.403,-41.4 0,-22.86 18.54,-41.4 41.403,-41.4 22.863,0 41.398,18.54 41.398,41.4"
         style="fill:none;stroke:#ff1441;stroke-width:7.19999981;stroke-linecap:butt;stroke-linejoin:miter;stroke-miterlimit:10;stroke-dasharray:none;stroke-opacity:1"
         id="path40" /><path
         d="m 597,1600.6 c 0,22.86 -18.535,41.4 -41.398,41.4 -22.864,0 -41.403,-18.54 -41.403,-41.4 0,-22.86 18.539,-41.4 41.403,-41.4 22.863,0 41.398,18.54 41.398,41.4"
         style="fill:#ff1441;fill-opacity:1;fill-rule:evenodd;stroke:none"
         id="path42" /><path
         d="m 597,1600.6 c 0,22.86 -18.535,41.4 -41.398,41.4 -22.864,0 -41.403,-18.54 -41.403,-41.4 0,-22.86 18.539,-41.4 41.403,-41.4 22.863,0 41.398,18.54 41.398,41.4"
         style="fill:none;stroke:#ff1441;stroke-width:7.19999981;stroke-linecap:butt;stroke-linejoin:miter;stroke-miterlimit:10;stroke-dasharray:none;stroke-opacity:1"
         id="path44" /><path
         d="m 510.602,1597 c 0,22.86 -18.539,41.4 -41.403,41.4 -22.863,0 -41.398,-18.54 -41.398,-41.4 0,-22.86 18.535,-41.4 41.398,-41.4 22.864,0 41.403,18.54 41.403,41.4"
         style="fill:#ff1441;fill-opacity:1;fill-rule:evenodd;stroke:none"
         id="path46" /><path
         d="m 510.602,1597 c 0,22.86 -18.539,41.4 -41.403,41.4 -22.863,0 -41.398,-18.54 -41.398,-41.4 0,-22.86 18.535,-41.4 41.398,-41.4 22.864,0 41.403,18.54 41.403,41.4"
         style="fill:none;stroke:#ff1441;stroke-width:7.19999981;stroke-linecap:butt;stroke-linejoin:miter;stroke-miterlimit:10;stroke-dasharray:none;stroke-opacity:1"
         id="path48" /><path
         d="m 508.801,1510.6 c 0,22.86 -18.539,41.4 -41.403,41.4 -22.863,0 -41.398,-18.54 -41.398,-41.4 0,-22.86 18.535,-41.4 41.398,-41.4 22.864,0 41.403,18.54 41.403,41.4"
         style="fill:#ff1441;fill-opacity:1;fill-rule:evenodd;stroke:none"
         id="path50" /><path
         d="m 508.801,1510.6 c 0,22.86 -18.539,41.4 -41.403,41.4 -22.863,0 -41.398,-18.54 -41.398,-41.4 0,-22.86 18.535,-41.4 41.398,-41.4 22.864,0 41.403,18.54 41.403,41.4"
         style="fill:none;stroke:#ff1441;stroke-width:7.19999981;stroke-linecap:butt;stroke-linejoin:miter;stroke-miterlimit:10;stroke-dasharray:none;stroke-opacity:1"
         id="path52" /><path
         d="m 508.801,1422.4 c 0,22.86 -18.539,41.4 -41.403,41.4 -22.863,0 -41.398,-18.54 -41.398,-41.4 0,-22.86 18.535,-41.4 41.398,-41.4 22.864,0 41.403,18.54 41.403,41.4"
         style="fill:#ff1441;fill-opacity:1;fill-rule:evenodd;stroke:none"
         id="path54" /><path
         d="m 508.801,1422.4 c 0,22.86 -18.539,41.4 -41.403,41.4 -22.863,0 -41.398,-18.54 -41.398,-41.4 0,-22.86 18.535,-41.4 41.398,-41.4 22.864,0 41.403,18.54 41.403,41.4"
         style="fill:none;stroke:#ff1441;stroke-width:7.19999981;stroke-linecap:butt;stroke-linejoin:miter;stroke-miterlimit:10;stroke-dasharray:none;stroke-opacity:1"
         id="path56" /><path
         d="m 507,1337.8 c 0,22.86 -18.535,41.4 -41.398,41.4 -22.864,0 -41.403,-18.54 -41.403,-41.4 0,-22.86 18.539,-41.4 41.403,-41.4 22.863,0 41.398,18.54 41.398,41.4"
         style="fill:#ff1441;fill-opacity:1;fill-rule:evenodd;stroke:none"
         id="path58" /><path
         d="m 507,1337.8 c 0,22.86 -18.535,41.4 -41.398,41.4 -22.864,0 -41.403,-18.54 -41.403,-41.4 0,-22.86 18.539,-41.4 41.403,-41.4 22.863,0 41.398,18.54 41.398,41.4"
         style="fill:none;stroke:#ff1441;stroke-width:7.19999981;stroke-linecap:butt;stroke-linejoin:miter;stroke-miterlimit:10;stroke-dasharray:none;stroke-opacity:1"
         id="path60" /><path
         d="m 427.801,1598.8 c 0,22.86 -18.539,41.4 -41.403,41.4 -22.863,0 -41.398,-18.54 -41.398,-41.4 0,-22.86 18.535,-41.4 41.398,-41.4 22.864,0 41.403,18.54 41.403,41.4"
         style="fill:#ff1441;fill-opacity:1;fill-rule:evenodd;stroke:none"
         id="path62" /><path
         d="m 427.801,1598.8 c 0,22.86 -18.539,41.4 -41.403,41.4 -22.863,0 -41.398,-18.54 -41.398,-41.4 0,-22.86 18.535,-41.4 41.398,-41.4 22.864,0 41.403,18.54 41.403,41.4"
         style="fill:none;stroke:#ff1441;stroke-width:7.19999981;stroke-linecap:butt;stroke-linejoin:miter;stroke-miterlimit:10;stroke-dasharray:none;stroke-opacity:1"
         id="path64" /><path
         d="m 426,1512.4 c 0,22.86 -18.535,41.4 -41.398,41.4 -22.864,0 -41.403,-18.54 -41.403,-41.4 0,-22.86 18.539,-41.4 41.403,-41.4 22.863,0 41.398,18.54 41.398,41.4"
         style="fill:#ff1441;fill-opacity:1;fill-rule:evenodd;stroke:none"
         id="path66" /><path
         d="m 426,1512.4 c 0,22.86 -18.535,41.4 -41.398,41.4 -22.864,0 -41.403,-18.54 -41.403,-41.4 0,-22.86 18.539,-41.4 41.403,-41.4 22.863,0 41.398,18.54 41.398,41.4"
         style="fill:none;stroke:#ff1441;stroke-width:7.19999981;stroke-linecap:butt;stroke-linejoin:miter;stroke-miterlimit:10;stroke-dasharray:none;stroke-opacity:1"
         id="path68" /><path
         d="m 426,1424.2 c 0,22.86 -18.535,41.4 -41.398,41.4 -22.864,0 -41.403,-18.54 -41.403,-41.4 0,-22.86 18.539,-41.4 41.403,-41.4 22.863,0 41.398,18.54 41.398,41.4"
         style="fill:#ff1441;fill-opacity:1;fill-rule:evenodd;stroke:none"
         id="path70" /><path
         d="m 426,1424.2 c 0,22.86 -18.535,41.4 -41.398,41.4 -22.864,0 -41.403,-18.54 -41.403,-41.4 0,-22.86 18.539,-41.4 41.403,-41.4 22.863,0 41.398,18.54 41.398,41.4"
         style="fill:none;stroke:#ff1441;stroke-width:7.19999981;stroke-linecap:butt;stroke-linejoin:miter;stroke-miterlimit:10;stroke-dasharray:none;stroke-opacity:1"
         id="path72" /><path
         d="m 424.199,1339.6 c 0,22.86 -18.535,41.4 -41.398,41.4 -22.863,0 -41.403,-18.54 -41.403,-41.4 0,-22.86 18.54,-41.4 41.403,-41.4 22.863,0 41.398,18.54 41.398,41.4"
         style="fill:#ff1441;fill-opacity:1;fill-rule:evenodd;stroke:none"
         id="path74" /><path
         d="m 424.199,1339.6 c 0,22.86 -18.535,41.4 -41.398,41.4 -22.863,0 -41.403,-18.54 -41.403,-41.4 0,-22.86 18.54,-41.4 41.403,-41.4 22.863,0 41.398,18.54 41.398,41.4"
         style="fill:none;stroke:#ff1441;stroke-width:7.19999981;stroke-linecap:butt;stroke-linejoin:miter;stroke-miterlimit:10;stroke-dasharray:none;stroke-opacity:1"
         id="path76" /><g
         id="g78"
         transform="scale(10)"><text
   transform="matrix(1,0,0,-1,22.4398,227.055)"
   style="font-variant:normal;font-weight:normal;font-size:10.07999992px;font-family:Helvetica;-inkscape-font-specification:Helvetica;writing-mode:lr-tb;fill:#000000;fill-opacity:1;fill-rule:nonzero;stroke:none"
   id="text84"><tspan
     x="0 2.2377601 7.8422399 12.88224 18.486719 21.843361 27.44784 30.80448 33.04224 38.646721"
     y="0"
     id="tspan80">laserprint</tspan><tspan
     x="156.24001 164.63664 170.24112 175.8456 178.08336 180.8856 186.49008 189.84673 192.64896 197.68896 202.72896 206.0856 211.69008 217.29456"
     y="25.200001"
     id="tspan82">monitor screen</tspan></text>

</g><path
         d="m 1866,1217.2 h 338.398 v 345.602 H 1866 Z"
         style="fill:none;stroke:#000000;stroke-width:7.19999981;stroke-linecap:butt;stroke-linejoin:miter;stroke-miterlimit:10;stroke-dasharray:none;stroke-opacity:1"
         id="path86" /><path
         d="M 339.602,1296.4 H 678 v 345.602 H 339.602 Z"
         style="fill:none;stroke:#000000;stroke-width:7.19999981;stroke-linecap:butt;stroke-linejoin:miter;stroke-miterlimit:10;stroke-dasharray:none;stroke-opacity:1"
         id="path88" /><path
         d="M 332.398,1786 H 678"
         style="fill:none;stroke:#000000;stroke-width:7.19999981;stroke-linecap:butt;stroke-linejoin:miter;stroke-miterlimit:10;stroke-dasharray:none;stroke-opacity:1"
         id="path90" /><path
         d="m 317.559,1786 76.043,-19.01 v 38.02"
         style="fill:#000000;fill-opacity:1;fill-rule:evenodd;stroke:none"
         id="path92" /><path
         d="M 332.398,1786 390,1771.6 v 28.8 z"
         style="fill:none;stroke:#000000;stroke-width:7.19999981;stroke-linecap:butt;stroke-linejoin:miter;stroke-miterlimit:10;stroke-dasharray:none;stroke-opacity:1"
         id="path94" /><path
         d="m 692.844,1786 -76.043,19.01 v -38.02"
         style="fill:#000000;fill-opacity:1;fill-rule:evenodd;stroke:none"
         id="path96" /><path
         d="m 678,1786 -57.602,14.4 v -28.8 z"
         style="fill:none;stroke:#000000;stroke-width:7.19999981;stroke-linecap:butt;stroke-linejoin:miter;stroke-miterlimit:10;stroke-dasharray:none;stroke-opacity:1"
         id="path98" /><g
         id="g100"
         transform="scale(10)"><text
   transform="matrix(1,0,0,-1,41.8801,182.415)"
   style="font-variant:normal;font-weight:normal;font-size:10.07999992px;font-family:Helvetica;-inkscape-font-specification:Helvetica;writing-mode:lr-tb;fill:#000000;fill-opacity:1;fill-rule:nonzero;stroke:none"
   id="text104"><tspan
     x="0 5.6044798 11.20896"
     y="0"
     id="tspan102">1px</tspan></text>

</g><path
         d="m 1858.8,1678 h 345.6"
         style="fill:none;stroke:#000000;stroke-width:7.19999981;stroke-linecap:butt;stroke-linejoin:miter;stroke-miterlimit:10;stroke-dasharray:none;stroke-opacity:1"
         id="path106" /><path
         d="m 1843.96,1678 76.04,-19.01 v 38.02"
         style="fill:#000000;fill-opacity:1;fill-rule:evenodd;stroke:none"
         id="path108" /><path
         d="m 1858.8,1678 57.6,-14.4 v 28.8 z"
         style="fill:none;stroke:#000000;stroke-width:7.19999981;stroke-linecap:butt;stroke-linejoin:miter;stroke-miterlimit:10;stroke-dasharray:none;stroke-opacity:1"
         id="path110" /><path
         d="m 2219.24,1678 -76.04,19.01 v -38.02"
         style="fill:#000000;fill-opacity:1;fill-rule:evenodd;stroke:none"
         id="path112" /><path
         d="m 2204.4,1678 -57.6,14.4 v -28.8 z"
         style="fill:none;stroke:#000000;stroke-width:7.19999981;stroke-linecap:butt;stroke-linejoin:miter;stroke-miterlimit:10;stroke-dasharray:none;stroke-opacity:1"
         id="path114" /><g
         id="g116"
         transform="scale(10)"><text
   transform="matrix(1,0,0,-1,194.52,172.335)"
   style="font-variant:normal;font-weight:normal;font-size:10.07999992px;font-family:Helvetica;-inkscape-font-specification:Helvetica;writing-mode:lr-tb;fill:#000000;fill-opacity:1;fill-rule:nonzero;stroke:none"
   id="text120"><tspan
     x="0 5.6044798 11.20896"
     y="0"
     id="tspan118">1px</tspan></text>

</g><path
         d="m 2197.2,1390.6 c 0,99.08 -74.14,179.4 -165.6,179.4 -91.46,0 -165.6,-80.32 -165.6,-179.4 0,-99.08 74.14,-179.41 165.6,-179.41 91.46,0 165.6,80.33 165.6,179.41"
         style="fill:#ff1441;fill-opacity:1;fill-rule:evenodd;stroke:none"
         id="path122" /><path
         d="m 2197.2,1390.6 c 0,99.08 -74.14,179.4 -165.6,179.4 -91.46,0 -165.6,-80.32 -165.6,-179.4 0,-99.08 74.14,-179.41 165.6,-179.41 91.46,0 165.6,80.33 165.6,179.41"
         style="fill:none;stroke:#ff1441;stroke-width:7.19999981;stroke-linecap:butt;stroke-linejoin:miter;stroke-miterlimit:10;stroke-dasharray:none;stroke-opacity:1"
         id="path124" /><path
         d="m 202.801,122.801 c 0,47.715 -38.688,86.398 -86.403,86.398 C 68.6836,209.199 30,170.516 30,122.801 30,75.0859 68.6836,36.3984 116.398,36.3984 c 47.715,0 86.403,38.6875 86.403,86.4026"
         style="fill:#ff1441;fill-opacity:1;fill-rule:evenodd;stroke:none"
         id="path126" /><path
         d="m 202.801,122.801 c 0,47.715 -38.688,86.398 -86.403,86.398 C 68.6836,209.199 30,170.516 30,122.801 30,75.0859 68.6836,36.3984 116.398,36.3984 c 47.715,0 86.403,38.6875 86.403,86.4026"
         style="fill:none;stroke:#ff1441;stroke-width:7.19999981;stroke-linecap:butt;stroke-linejoin:miter;stroke-miterlimit:10;stroke-dasharray:none;stroke-opacity:1"
         id="path128" /><g
         id="g130"
         transform="scale(10)"><text
   transform="matrix(1,0,0,-1,31.0801,3.85547)"
   style="font-variant:normal;font-weight:normal;font-size:10.07999992px;font-family:Helvetica;-inkscape-font-specification:Helvetica;writing-mode:lr-tb;fill:#000000;fill-opacity:1;fill-rule:nonzero;stroke:none"
   id="text134"><tspan
     x="0 5.8867202 8.6889601 14.29344 17.09568 22.700159 28.30464 33.344639 35.582401 40.622398 46.226879 49.029121 54.633598 56.871361 61.911362 67.515839"
     y="0"
     id="tspan132">= 1 device pixel</tspan></text>

</g><path
         d="m 676.199,1339.6 c 0,22.86 -18.535,41.4 -41.398,41.4 -22.863,0 -41.403,-18.54 -41.403,-41.4 0,-22.86 18.54,-41.4 41.403,-41.4 22.863,0 41.398,18.54 41.398,41.4"
         style="fill:#ff1441;fill-opacity:1;fill-rule:evenodd;stroke:none"
         id="path136" /><path
         d="m 676.199,1339.6 c 0,22.86 -18.535,41.4 -41.398,41.4 -22.863,0 -41.403,-18.54 -41.403,-41.4 0,-22.86 18.54,-41.4 41.403,-41.4 22.863,0 41.398,18.54 41.398,41.4"
         style="fill:none;stroke:#ff1441;stroke-width:7.19999981;stroke-linecap:butt;stroke-linejoin:miter;stroke-miterlimit:10;stroke-dasharray:none;stroke-opacity:1"
         id="path138" /><path
         d="M 825.602,1638.4 V 1300"
         style="fill:none;stroke:#000000;stroke-width:7.19999981;stroke-linecap:butt;stroke-linejoin:miter;stroke-miterlimit:10;stroke-dasharray:none;stroke-opacity:1"
         id="path140" /><path
         d="M 825.602,1653.24 806.59,1577.2 h 38.019"
         style="fill:#000000;fill-opacity:1;fill-rule:evenodd;stroke:none"
         id="path142" /><path
         d="m 825.602,1638.4 -14.403,-57.6 H 840 Z"
         style="fill:none;stroke:#000000;stroke-width:7.19999981;stroke-linecap:butt;stroke-linejoin:miter;stroke-miterlimit:10;stroke-dasharray:none;stroke-opacity:1"
         id="path144" /><path
         d="m 825.602,1285.16 19.007,76.04 H 806.59"
         style="fill:#000000;fill-opacity:1;fill-rule:evenodd;stroke:none"
         id="path146" /><path
         d="M 825.602,1300 840,1357.6 h -28.801 z"
         style="fill:none;stroke:#000000;stroke-width:7.19999981;stroke-linecap:butt;stroke-linejoin:miter;stroke-miterlimit:10;stroke-dasharray:none;stroke-opacity:1"
         id="path148" /><path
         d="M 2344.8,1573.6 V 1235.2"
         style="fill:none;stroke:#000000;stroke-width:7.19999981;stroke-linecap:butt;stroke-linejoin:miter;stroke-miterlimit:10;stroke-dasharray:none;stroke-opacity:1"
         id="path150" /><path
         d="m 2344.8,1588.44 -19.01,-76.04 h 38.02"
         style="fill:#000000;fill-opacity:1;fill-rule:evenodd;stroke:none"
         id="path152" /><path
         d="m 2344.8,1573.6 -14.4,-57.6 h 28.8 z"
         style="fill:none;stroke:#000000;stroke-width:7.19999981;stroke-linecap:butt;stroke-linejoin:miter;stroke-miterlimit:10;stroke-dasharray:none;stroke-opacity:1"
         id="path154" /><path
         d="m 2344.8,1220.36 19.01,76.04 h -38.02"
         style="fill:#000000;fill-opacity:1;fill-rule:evenodd;stroke:none"
         id="path156" /><path
         d="m 2344.8,1235.2 14.4,57.6 h -28.8 z"
         style="fill:none;stroke:#000000;stroke-width:7.19999981;stroke-linecap:butt;stroke-linejoin:miter;stroke-miterlimit:10;stroke-dasharray:none;stroke-opacity:1"
         id="path158" /><path
         d="m 1866,871.602 h 338.398 V 1217.2 H 1866 Z"
         style="fill:none;stroke:#000000;stroke-width:7.19999981;stroke-linecap:butt;stroke-linejoin:miter;stroke-miterlimit:10;stroke-dasharray:none;stroke-opacity:1"
         id="path160" /><path
         d="m 2197.2,1045 c 0,99.08 -74.14,179.4 -165.6,179.4 -91.46,0 -165.6,-80.32 -165.6,-179.4 0,-99.082 74.14,-179.406 165.6,-179.406 91.46,0 165.6,80.324 165.6,179.406"
         style="fill:#39fb31;fill-opacity:1;fill-rule:evenodd;stroke:none"
         id="path162" /><path
         d="m 2197.2,1045 c 0,99.08 -74.14,179.4 -165.6,179.4 -91.46,0 -165.6,-80.32 -165.6,-179.4 0,-99.082 74.14,-179.406 165.6,-179.406 91.46,0 165.6,80.324 165.6,179.406"
         style="fill:none;stroke:#39fb31;stroke-width:7.19999981;stroke-linecap:butt;stroke-linejoin:miter;stroke-miterlimit:10;stroke-dasharray:none;stroke-opacity:1"
         id="path164" /><path
         d="m 2204.4,871.602 h 338.402 V 1217.2 H 2204.4 Z"
         style="fill:none;stroke:#000000;stroke-width:7.19999981;stroke-linecap:butt;stroke-linejoin:miter;stroke-miterlimit:10;stroke-dasharray:none;stroke-opacity:1"
         id="path166" /><path
         d="m 2535.6,1045 c 0,99.08 -74.14,179.4 -165.6,179.4 -91.46,0 -165.6,-80.32 -165.6,-179.4 0,-99.082 74.14,-179.406 165.6,-179.406 91.46,0 165.6,80.324 165.6,179.406"
         style="fill:#5151ff;fill-opacity:1;fill-rule:evenodd;stroke:none"
         id="path168" /><path
         d="m 2535.6,1045 c 0,99.08 -74.14,179.4 -165.6,179.4 -91.46,0 -165.6,-80.32 -165.6,-179.4 0,-99.082 74.14,-179.406 165.6,-179.406 91.46,0 165.6,80.324 165.6,179.406"
         style="fill:none;stroke:#5151ff;stroke-width:7.19999981;stroke-linecap:butt;stroke-linejoin:miter;stroke-miterlimit:10;stroke-dasharray:none;stroke-opacity:1"
         id="path170" /><path
         d="m 1018.2,1253.2 c 0,22.86 -18.536,41.4 -41.399,41.4 -22.863,0 -41.403,-18.54 -41.403,-41.4 0,-22.86 18.54,-41.4 41.403,-41.4 22.863,0 41.399,18.54 41.399,41.4"
         style="fill:#5151ff;fill-opacity:1;fill-rule:evenodd;stroke:none"
         id="path172" /><path
         d="m 1018.2,1253.2 c 0,22.86 -18.536,41.4 -41.399,41.4 -22.863,0 -41.403,-18.54 -41.403,-41.4 0,-22.86 18.54,-41.4 41.403,-41.4 22.863,0 41.399,18.54 41.399,41.4"
         style="fill:none;stroke:#5151ff;stroke-width:7.19999981;stroke-linecap:butt;stroke-linejoin:miter;stroke-miterlimit:10;stroke-dasharray:none;stroke-opacity:1"
         id="path174" /><path
         d="m 1016.4,1166.8 c 0,22.86 -18.537,41.4 -41.4,41.4 -22.863,0 -41.398,-18.54 -41.398,-41.4 0,-22.86 18.535,-41.4 41.398,-41.4 22.863,0 41.4,18.54 41.4,41.4"
         style="fill:#5151ff;fill-opacity:1;fill-rule:evenodd;stroke:none"
         id="path176" /><path
         d="m 1016.4,1166.8 c 0,22.86 -18.537,41.4 -41.4,41.4 -22.863,0 -41.398,-18.54 -41.398,-41.4 0,-22.86 18.535,-41.4 41.398,-41.4 22.863,0 41.4,18.54 41.4,41.4"
         style="fill:none;stroke:#5151ff;stroke-width:7.19999981;stroke-linecap:butt;stroke-linejoin:miter;stroke-miterlimit:10;stroke-dasharray:none;stroke-opacity:1"
         id="path178" /><path
         d="m 1016.4,1078.6 c 0,22.86 -18.537,41.4 -41.4,41.4 -22.863,0 -41.398,-18.54 -41.398,-41.4 0,-22.86 18.535,-41.4 41.398,-41.4 22.863,0 41.4,18.54 41.4,41.4"
         style="fill:#5151ff;fill-opacity:1;fill-rule:evenodd;stroke:none"
         id="path180" /><path
         d="m 1016.4,1078.6 c 0,22.86 -18.537,41.4 -41.4,41.4 -22.863,0 -41.398,-18.54 -41.398,-41.4 0,-22.86 18.535,-41.4 41.398,-41.4 22.863,0 41.4,18.54 41.4,41.4"
         style="fill:none;stroke:#5151ff;stroke-width:7.19999981;stroke-linecap:butt;stroke-linejoin:miter;stroke-miterlimit:10;stroke-dasharray:none;stroke-opacity:1"
         id="path182" /><path
         d="m 676.199,1339.6 c 0,22.86 -18.535,41.4 -41.398,41.4 -22.863,0 -41.403,-18.54 -41.403,-41.4 0,-22.86 18.54,-41.4 41.403,-41.4 22.863,0 41.398,18.54 41.398,41.4"
         style="fill:#ff1441;fill-opacity:1;fill-rule:evenodd;stroke:none"
         id="path184" /><path
         d="m 676.199,1339.6 c 0,22.86 -18.535,41.4 -41.398,41.4 -22.863,0 -41.403,-18.54 -41.403,-41.4 0,-22.86 18.54,-41.4 41.403,-41.4 22.863,0 41.398,18.54 41.398,41.4"
         style="fill:none;stroke:#ff1441;stroke-width:7.19999981;stroke-linecap:butt;stroke-linejoin:miter;stroke-miterlimit:10;stroke-dasharray:none;stroke-opacity:1"
         id="path186" /><path
         d="m 931.801,995.801 c 0,22.859 -18.539,41.399 -41.403,41.399 -22.863,0 -41.398,-18.54 -41.398,-41.399 0,-22.863 18.535,-41.403 41.398,-41.403 22.864,0 41.403,18.54 41.403,41.403"
         style="fill:#5151ff;fill-opacity:1;fill-rule:evenodd;stroke:none"
         id="path188" /><path
         d="m 931.801,995.801 c 0,22.859 -18.539,41.399 -41.403,41.399 -22.863,0 -41.398,-18.54 -41.398,-41.399 0,-22.863 18.535,-41.403 41.398,-41.403 22.864,0 41.403,18.54 41.403,41.403"
         style="fill:none;stroke:#5151ff;stroke-width:7.19999981;stroke-linecap:butt;stroke-linejoin:miter;stroke-miterlimit:10;stroke-dasharray:none;stroke-opacity:1"
         id="path190" /><path
         d="m 933.602,1080.4 c 0,22.86 -18.539,41.4 -41.403,41.4 -22.863,0 -41.398,-18.54 -41.398,-41.4 0,-22.86 18.535,-41.4 41.398,-41.4 22.864,0 41.403,18.54 41.403,41.4"
         style="fill:#5151ff;fill-opacity:1;fill-rule:evenodd;stroke:none"
         id="path192" /><path
         d="m 933.602,1080.4 c 0,22.86 -18.539,41.4 -41.403,41.4 -22.863,0 -41.398,-18.54 -41.398,-41.4 0,-22.86 18.535,-41.4 41.398,-41.4 22.864,0 41.403,18.54 41.403,41.4"
         style="fill:none;stroke:#5151ff;stroke-width:7.19999981;stroke-linecap:butt;stroke-linejoin:miter;stroke-miterlimit:10;stroke-dasharray:none;stroke-opacity:1"
         id="path194" /><path
         d="m 933.602,1168.6 c 0,22.86 -18.539,41.4 -41.403,41.4 -22.863,0 -41.398,-18.54 -41.398,-41.4 0,-22.86 18.535,-41.4 41.398,-41.4 22.864,0 41.403,18.54 41.403,41.4"
         style="fill:#5151ff;fill-opacity:1;fill-rule:evenodd;stroke:none"
         id="path196" /><path
         d="m 933.602,1168.6 c 0,22.86 -18.539,41.4 -41.403,41.4 -22.863,0 -41.398,-18.54 -41.398,-41.4 0,-22.86 18.535,-41.4 41.398,-41.4 22.864,0 41.403,18.54 41.403,41.4"
         style="fill:none;stroke:#5151ff;stroke-width:7.19999981;stroke-linecap:butt;stroke-linejoin:miter;stroke-miterlimit:10;stroke-dasharray:none;stroke-opacity:1"
         id="path198" /><path
         d="m 935.398,1255 c 0,22.86 -18.535,41.4 -41.398,41.4 -22.863,0 -41.398,-18.54 -41.398,-41.4 0,-22.86 18.535,-41.4 41.398,-41.4 22.863,0 41.398,18.54 41.398,41.4"
         style="fill:#5151ff;fill-opacity:1;fill-rule:evenodd;stroke:none"
         id="path200" /><path
         d="m 935.398,1255 c 0,22.86 -18.535,41.4 -41.398,41.4 -22.863,0 -41.398,-18.54 -41.398,-41.4 0,-22.86 18.535,-41.4 41.398,-41.4 22.863,0 41.398,18.54 41.398,41.4"
         style="fill:none;stroke:#5151ff;stroke-width:7.19999981;stroke-linecap:butt;stroke-linejoin:miter;stroke-miterlimit:10;stroke-dasharray:none;stroke-opacity:1"
         id="path202" /><path
         d="m 849,1251.4 c 0,22.86 -18.535,41.4 -41.398,41.4 -22.864,0 -41.403,-18.54 -41.403,-41.4 0,-22.86 18.539,-41.4 41.403,-41.4 22.863,0 41.398,18.54 41.398,41.4"
         style="fill:#5151ff;fill-opacity:1;fill-rule:evenodd;stroke:none"
         id="path204" /><path
         d="m 849,1251.4 c 0,22.86 -18.535,41.4 -41.398,41.4 -22.864,0 -41.403,-18.54 -41.403,-41.4 0,-22.86 18.539,-41.4 41.403,-41.4 22.863,0 41.398,18.54 41.398,41.4"
         style="fill:none;stroke:#5151ff;stroke-width:7.19999981;stroke-linecap:butt;stroke-linejoin:miter;stroke-miterlimit:10;stroke-dasharray:none;stroke-opacity:1"
         id="path206" /><path
         d="m 847.199,1165 c 0,22.86 -18.535,41.4 -41.398,41.4 -22.863,0 -41.403,-18.54 -41.403,-41.4 0,-22.86 18.54,-41.4 41.403,-41.4 22.863,0 41.398,18.54 41.398,41.4"
         style="fill:#5151ff;fill-opacity:1;fill-rule:evenodd;stroke:none"
         id="path208" /><path
         d="m 847.199,1165 c 0,22.86 -18.535,41.4 -41.398,41.4 -22.863,0 -41.403,-18.54 -41.403,-41.4 0,-22.86 18.54,-41.4 41.403,-41.4 22.863,0 41.398,18.54 41.398,41.4"
         style="fill:none;stroke:#5151ff;stroke-width:7.19999981;stroke-linecap:butt;stroke-linejoin:miter;stroke-miterlimit:10;stroke-dasharray:none;stroke-opacity:1"
         id="path210" /><path
         d="m 847.199,1076.8 c 0,22.86 -18.535,41.4 -41.398,41.4 -22.863,0 -41.403,-18.54 -41.403,-41.4 0,-22.86 18.54,-41.4 41.403,-41.4 22.863,0 41.398,18.54 41.398,41.4"
         style="fill:#5151ff;fill-opacity:1;fill-rule:evenodd;stroke:none"
         id="path212" /><path
         d="m 847.199,1076.8 c 0,22.86 -18.535,41.4 -41.398,41.4 -22.863,0 -41.403,-18.54 -41.403,-41.4 0,-22.86 18.54,-41.4 41.403,-41.4 22.863,0 41.398,18.54 41.398,41.4"
         style="fill:none;stroke:#5151ff;stroke-width:7.19999981;stroke-linecap:butt;stroke-linejoin:miter;stroke-miterlimit:10;stroke-dasharray:none;stroke-opacity:1"
         id="path214" /><path
         d="m 845.398,992.199 c 0,22.861 -18.535,41.401 -41.398,41.401 -22.863,0 -41.398,-18.54 -41.398,-41.401 0,-22.863 18.535,-41.398 41.398,-41.398 22.863,0 41.398,18.535 41.398,41.398"
         style="fill:#5151ff;fill-opacity:1;fill-rule:evenodd;stroke:none"
         id="path216" /><path
         d="m 845.398,992.199 c 0,22.861 -18.535,41.401 -41.398,41.401 -22.863,0 -41.398,-18.54 -41.398,-41.401 0,-22.863 18.535,-41.398 41.398,-41.398 22.863,0 41.398,18.535 41.398,41.398"
         style="fill:none;stroke:#5151ff;stroke-width:7.19999981;stroke-linecap:butt;stroke-linejoin:miter;stroke-miterlimit:10;stroke-dasharray:none;stroke-opacity:1"
         id="path218" /><path
         d="m 766.199,1253.2 c 0,22.86 -18.535,41.4 -41.398,41.4 -22.863,0 -41.403,-18.54 -41.403,-41.4 0,-22.86 18.54,-41.4 41.403,-41.4 22.863,0 41.398,18.54 41.398,41.4"
         style="fill:#5151ff;fill-opacity:1;fill-rule:evenodd;stroke:none"
         id="path220" /><path
         d="m 766.199,1253.2 c 0,22.86 -18.535,41.4 -41.398,41.4 -22.863,0 -41.403,-18.54 -41.403,-41.4 0,-22.86 18.54,-41.4 41.403,-41.4 22.863,0 41.398,18.54 41.398,41.4"
         style="fill:none;stroke:#5151ff;stroke-width:7.19999981;stroke-linecap:butt;stroke-linejoin:miter;stroke-miterlimit:10;stroke-dasharray:none;stroke-opacity:1"
         id="path222" /><path
         d="m 764.398,1166.8 c 0,22.86 -18.535,41.4 -41.398,41.4 -22.863,0 -41.398,-18.54 -41.398,-41.4 0,-22.86 18.535,-41.4 41.398,-41.4 22.863,0 41.398,18.54 41.398,41.4"
         style="fill:#5151ff;fill-opacity:1;fill-rule:evenodd;stroke:none"
         id="path224" /><path
         d="m 764.398,1166.8 c 0,22.86 -18.535,41.4 -41.398,41.4 -22.863,0 -41.398,-18.54 -41.398,-41.4 0,-22.86 18.535,-41.4 41.398,-41.4 22.863,0 41.398,18.54 41.398,41.4"
         style="fill:none;stroke:#5151ff;stroke-width:7.19999981;stroke-linecap:butt;stroke-linejoin:miter;stroke-miterlimit:10;stroke-dasharray:none;stroke-opacity:1"
         id="path226" /><path
         d="m 764.398,1078.6 c 0,22.86 -18.535,41.4 -41.398,41.4 -22.863,0 -41.398,-18.54 -41.398,-41.4 0,-22.86 18.535,-41.4 41.398,-41.4 22.863,0 41.398,18.54 41.398,41.4"
         style="fill:#5151ff;fill-opacity:1;fill-rule:evenodd;stroke:none"
         id="path228" /><path
         d="m 764.398,1078.6 c 0,22.86 -18.535,41.4 -41.398,41.4 -22.863,0 -41.398,-18.54 -41.398,-41.4 0,-22.86 18.535,-41.4 41.398,-41.4 22.863,0 41.398,18.54 41.398,41.4"
         style="fill:none;stroke:#5151ff;stroke-width:7.19999981;stroke-linecap:butt;stroke-linejoin:miter;stroke-miterlimit:10;stroke-dasharray:none;stroke-opacity:1"
         id="path230" /><path
         d="m 762.602,994 c 0,22.86 -18.539,41.4 -41.403,41.4 -22.863,0 -41.398,-18.54 -41.398,-41.4 0,-22.863 18.535,-41.398 41.398,-41.398 22.864,0 41.403,18.535 41.403,41.398"
         style="fill:#5151ff;fill-opacity:1;fill-rule:evenodd;stroke:none"
         id="path232" /><path
         d="m 762.602,994 c 0,22.86 -18.539,41.4 -41.403,41.4 -22.863,0 -41.398,-18.54 -41.398,-41.4 0,-22.863 18.535,-41.398 41.398,-41.398 22.864,0 41.403,18.535 41.403,41.398"
         style="fill:none;stroke:#5151ff;stroke-width:7.19999981;stroke-linecap:butt;stroke-linejoin:miter;stroke-miterlimit:10;stroke-dasharray:none;stroke-opacity:1"
         id="path234" /><path
         d="m 678,950.801 h 338.398 v 345.598 H 678 Z"
         style="fill:none;stroke:#000000;stroke-width:7.19999981;stroke-linecap:butt;stroke-linejoin:miter;stroke-miterlimit:10;stroke-dasharray:none;stroke-opacity:1"
         id="path236" /><path
         d="m 1014.6,994 c 0,22.86 -18.537,41.4 -41.401,41.4 -22.863,0 -41.398,-18.54 -41.398,-41.4 0,-22.863 18.535,-41.398 41.398,-41.398 22.864,0 41.401,18.535 41.401,41.398"
         style="fill:#5151ff;fill-opacity:1;fill-rule:evenodd;stroke:none"
         id="path238" /><path
         d="m 1014.6,994 c 0,22.86 -18.537,41.4 -41.401,41.4 -22.863,0 -41.398,-18.54 -41.398,-41.4 0,-22.863 18.535,-41.398 41.398,-41.398 22.864,0 41.401,18.535 41.401,41.398"
         style="fill:none;stroke:#5151ff;stroke-width:7.19999981;stroke-linecap:butt;stroke-linejoin:miter;stroke-miterlimit:10;stroke-dasharray:none;stroke-opacity:1"
         id="path240" /><path
         d="m 679.801,1253.2 c 0,22.86 -18.539,41.4 -41.403,41.4 -22.863,0 -41.398,-18.54 -41.398,-41.4 0,-22.86 18.535,-41.4 41.398,-41.4 22.864,0 41.403,18.54 41.403,41.4"
         style="fill:#39fb31;fill-opacity:1;fill-rule:evenodd;stroke:none"
         id="path242" /><path
         d="m 679.801,1253.2 c 0,22.86 -18.539,41.4 -41.403,41.4 -22.863,0 -41.398,-18.54 -41.398,-41.4 0,-22.86 18.535,-41.4 41.398,-41.4 22.864,0 41.403,18.54 41.403,41.4"
         style="fill:none;stroke:#39fb31;stroke-width:7.19999981;stroke-linecap:butt;stroke-linejoin:miter;stroke-miterlimit:10;stroke-dasharray:none;stroke-opacity:1"
         id="path244" /><path
         d="m 678,1166.8 c 0,22.86 -18.535,41.4 -41.398,41.4 -22.864,0 -41.403,-18.54 -41.403,-41.4 0,-22.86 18.539,-41.4 41.403,-41.4 22.863,0 41.398,18.54 41.398,41.4"
         style="fill:#39fb31;fill-opacity:1;fill-rule:evenodd;stroke:none"
         id="path246" /><path
         d="m 678,1166.8 c 0,22.86 -18.535,41.4 -41.398,41.4 -22.864,0 -41.403,-18.54 -41.403,-41.4 0,-22.86 18.539,-41.4 41.403,-41.4 22.863,0 41.398,18.54 41.398,41.4"
         style="fill:none;stroke:#39fb31;stroke-width:7.19999981;stroke-linecap:butt;stroke-linejoin:miter;stroke-miterlimit:10;stroke-dasharray:none;stroke-opacity:1"
         id="path248" /><path
         d="m 678,1078.6 c 0,22.86 -18.535,41.4 -41.398,41.4 -22.864,0 -41.403,-18.54 -41.403,-41.4 0,-22.86 18.539,-41.4 41.403,-41.4 22.863,0 41.398,18.54 41.398,41.4"
         style="fill:#39fb31;fill-opacity:1;fill-rule:evenodd;stroke:none"
         id="path250" /><path
         d="m 678,1078.6 c 0,22.86 -18.535,41.4 -41.398,41.4 -22.864,0 -41.403,-18.54 -41.403,-41.4 0,-22.86 18.539,-41.4 41.403,-41.4 22.863,0 41.398,18.54 41.398,41.4"
         style="fill:none;stroke:#39fb31;stroke-width:7.19999981;stroke-linecap:butt;stroke-linejoin:miter;stroke-miterlimit:10;stroke-dasharray:none;stroke-opacity:1"
         id="path252" /><path
         d="m 676.199,994 c 0,22.86 -18.535,41.4 -41.398,41.4 -22.863,0 -41.403,-18.54 -41.403,-41.4 0,-22.863 18.54,-41.398 41.403,-41.398 22.863,0 41.398,18.535 41.398,41.398"
         style="fill:#ff1441;fill-opacity:1;fill-rule:evenodd;stroke:none"
         id="path254" /><path
         d="m 676.199,994 c 0,22.86 -18.535,41.4 -41.398,41.4 -22.863,0 -41.403,-18.54 -41.403,-41.4 0,-22.863 18.54,-41.398 41.403,-41.398 22.863,0 41.398,18.535 41.398,41.398"
         style="fill:none;stroke:#ff1441;stroke-width:7.19999981;stroke-linecap:butt;stroke-linejoin:miter;stroke-miterlimit:10;stroke-dasharray:none;stroke-opacity:1"
         id="path256" /><path
         d="m 593.398,995.801 c 0,22.859 -18.535,41.399 -41.398,41.399 -22.863,0 -41.398,-18.54 -41.398,-41.399 0,-22.863 18.535,-41.403 41.398,-41.403 22.863,0 41.398,18.54 41.398,41.403"
         style="fill:#39fb31;fill-opacity:1;fill-rule:evenodd;stroke:none"
         id="path258" /><path
         d="m 593.398,995.801 c 0,22.859 -18.535,41.399 -41.398,41.399 -22.863,0 -41.398,-18.54 -41.398,-41.399 0,-22.863 18.535,-41.403 41.398,-41.403 22.863,0 41.398,18.54 41.398,41.403"
         style="fill:none;stroke:#39fb31;stroke-width:7.19999981;stroke-linecap:butt;stroke-linejoin:miter;stroke-miterlimit:10;stroke-dasharray:none;stroke-opacity:1"
         id="path260" /><path
         d="m 595.199,1080.4 c 0,22.86 -18.535,41.4 -41.398,41.4 -22.863,0 -41.403,-18.54 -41.403,-41.4 0,-22.86 18.54,-41.4 41.403,-41.4 22.863,0 41.398,18.54 41.398,41.4"
         style="fill:#39fb31;fill-opacity:1;fill-rule:evenodd;stroke:none"
         id="path262" /><path
         d="m 595.199,1080.4 c 0,22.86 -18.535,41.4 -41.398,41.4 -22.863,0 -41.403,-18.54 -41.403,-41.4 0,-22.86 18.54,-41.4 41.403,-41.4 22.863,0 41.398,18.54 41.398,41.4"
         style="fill:none;stroke:#39fb31;stroke-width:7.19999981;stroke-linecap:butt;stroke-linejoin:miter;stroke-miterlimit:10;stroke-dasharray:none;stroke-opacity:1"
         id="path264" /><path
         d="m 595.199,1168.6 c 0,22.86 -18.535,41.4 -41.398,41.4 -22.863,0 -41.403,-18.54 -41.403,-41.4 0,-22.86 18.54,-41.4 41.403,-41.4 22.863,0 41.398,18.54 41.398,41.4"
         style="fill:#39fb31;fill-opacity:1;fill-rule:evenodd;stroke:none"
         id="path266" /><path
         d="m 595.199,1168.6 c 0,22.86 -18.535,41.4 -41.398,41.4 -22.863,0 -41.403,-18.54 -41.403,-41.4 0,-22.86 18.54,-41.4 41.403,-41.4 22.863,0 41.398,18.54 41.398,41.4"
         style="fill:none;stroke:#39fb31;stroke-width:7.19999981;stroke-linecap:butt;stroke-linejoin:miter;stroke-miterlimit:10;stroke-dasharray:none;stroke-opacity:1"
         id="path268" /><path
         d="m 597,1255 c 0,22.86 -18.535,41.4 -41.398,41.4 -22.864,0 -41.403,-18.54 -41.403,-41.4 0,-22.86 18.539,-41.4 41.403,-41.4 22.863,0 41.398,18.54 41.398,41.4"
         style="fill:#39fb31;fill-opacity:1;fill-rule:evenodd;stroke:none"
         id="path270" /><path
         d="m 597,1255 c 0,22.86 -18.535,41.4 -41.398,41.4 -22.864,0 -41.403,-18.54 -41.403,-41.4 0,-22.86 18.539,-41.4 41.403,-41.4 22.863,0 41.398,18.54 41.398,41.4"
         style="fill:none;stroke:#39fb31;stroke-width:7.19999981;stroke-linecap:butt;stroke-linejoin:miter;stroke-miterlimit:10;stroke-dasharray:none;stroke-opacity:1"
         id="path272" /><path
         d="m 510.602,1251.4 c 0,22.86 -18.539,41.4 -41.403,41.4 -22.863,0 -41.398,-18.54 -41.398,-41.4 0,-22.86 18.535,-41.4 41.398,-41.4 22.864,0 41.403,18.54 41.403,41.4"
         style="fill:#39fb31;fill-opacity:1;fill-rule:evenodd;stroke:none"
         id="path274" /><path
         d="m 510.602,1251.4 c 0,22.86 -18.539,41.4 -41.403,41.4 -22.863,0 -41.398,-18.54 -41.398,-41.4 0,-22.86 18.535,-41.4 41.398,-41.4 22.864,0 41.403,18.54 41.403,41.4"
         style="fill:none;stroke:#39fb31;stroke-width:7.19999981;stroke-linecap:butt;stroke-linejoin:miter;stroke-miterlimit:10;stroke-dasharray:none;stroke-opacity:1"
         id="path276" /><path
         d="m 508.801,1165 c 0,22.86 -18.539,41.4 -41.403,41.4 -22.863,0 -41.398,-18.54 -41.398,-41.4 0,-22.86 18.535,-41.4 41.398,-41.4 22.864,0 41.403,18.54 41.403,41.4"
         style="fill:#39fb31;fill-opacity:1;fill-rule:evenodd;stroke:none"
         id="path278" /><path
         d="m 508.801,1165 c 0,22.86 -18.539,41.4 -41.403,41.4 -22.863,0 -41.398,-18.54 -41.398,-41.4 0,-22.86 18.535,-41.4 41.398,-41.4 22.864,0 41.403,18.54 41.403,41.4"
         style="fill:none;stroke:#39fb31;stroke-width:7.19999981;stroke-linecap:butt;stroke-linejoin:miter;stroke-miterlimit:10;stroke-dasharray:none;stroke-opacity:1"
         id="path280" /><path
         d="m 508.801,1076.8 c 0,22.86 -18.539,41.4 -41.403,41.4 -22.863,0 -41.398,-18.54 -41.398,-41.4 0,-22.86 18.535,-41.4 41.398,-41.4 22.864,0 41.403,18.54 41.403,41.4"
         style="fill:#39fb31;fill-opacity:1;fill-rule:evenodd;stroke:none"
         id="path282" /><path
         d="m 508.801,1076.8 c 0,22.86 -18.539,41.4 -41.403,41.4 -22.863,0 -41.398,-18.54 -41.398,-41.4 0,-22.86 18.535,-41.4 41.398,-41.4 22.864,0 41.403,18.54 41.403,41.4"
         style="fill:none;stroke:#39fb31;stroke-width:7.19999981;stroke-linecap:butt;stroke-linejoin:miter;stroke-miterlimit:10;stroke-dasharray:none;stroke-opacity:1"
         id="path284" /><path
         d="m 507,992.199 c 0,22.861 -18.535,41.401 -41.398,41.401 -22.864,0 -41.403,-18.54 -41.403,-41.401 0,-22.863 18.539,-41.398 41.403,-41.398 22.863,0 41.398,18.535 41.398,41.398"
         style="fill:#39fb31;fill-opacity:1;fill-rule:evenodd;stroke:none"
         id="path286" /><path
         d="m 507,992.199 c 0,22.861 -18.535,41.401 -41.398,41.401 -22.864,0 -41.403,-18.54 -41.403,-41.401 0,-22.863 18.539,-41.398 41.403,-41.398 22.863,0 41.398,18.535 41.398,41.398"
         style="fill:none;stroke:#39fb31;stroke-width:7.19999981;stroke-linecap:butt;stroke-linejoin:miter;stroke-miterlimit:10;stroke-dasharray:none;stroke-opacity:1"
         id="path288" /><path
         d="m 427.801,1253.2 c 0,22.86 -18.539,41.4 -41.403,41.4 -22.863,0 -41.398,-18.54 -41.398,-41.4 0,-22.86 18.535,-41.4 41.398,-41.4 22.864,0 41.403,18.54 41.403,41.4"
         style="fill:#39fb31;fill-opacity:1;fill-rule:evenodd;stroke:none"
         id="path290" /><path
         d="m 427.801,1253.2 c 0,22.86 -18.539,41.4 -41.403,41.4 -22.863,0 -41.398,-18.54 -41.398,-41.4 0,-22.86 18.535,-41.4 41.398,-41.4 22.864,0 41.403,18.54 41.403,41.4"
         style="fill:none;stroke:#39fb31;stroke-width:7.19999981;stroke-linecap:butt;stroke-linejoin:miter;stroke-miterlimit:10;stroke-dasharray:none;stroke-opacity:1"
         id="path292" /><path
         d="m 426,1166.8 c 0,22.86 -18.535,41.4 -41.398,41.4 -22.864,0 -41.403,-18.54 -41.403,-41.4 0,-22.86 18.539,-41.4 41.403,-41.4 22.863,0 41.398,18.54 41.398,41.4"
         style="fill:#39fb31;fill-opacity:1;fill-rule:evenodd;stroke:none"
         id="path294" /><path
         d="m 426,1166.8 c 0,22.86 -18.535,41.4 -41.398,41.4 -22.864,0 -41.403,-18.54 -41.403,-41.4 0,-22.86 18.539,-41.4 41.403,-41.4 22.863,0 41.398,18.54 41.398,41.4"
         style="fill:none;stroke:#39fb31;stroke-width:7.19999981;stroke-linecap:butt;stroke-linejoin:miter;stroke-miterlimit:10;stroke-dasharray:none;stroke-opacity:1"
         id="path296" /><path
         d="m 426,1078.6 c 0,22.86 -18.535,41.4 -41.398,41.4 -22.864,0 -41.403,-18.54 -41.403,-41.4 0,-22.86 18.539,-41.4 41.403,-41.4 22.863,0 41.398,18.54 41.398,41.4"
         style="fill:#39fb31;fill-opacity:1;fill-rule:evenodd;stroke:none"
         id="path298" /><path
         d="m 426,1078.6 c 0,22.86 -18.535,41.4 -41.398,41.4 -22.864,0 -41.403,-18.54 -41.403,-41.4 0,-22.86 18.539,-41.4 41.403,-41.4 22.863,0 41.398,18.54 41.398,41.4"
         style="fill:none;stroke:#39fb31;stroke-width:7.19999981;stroke-linecap:butt;stroke-linejoin:miter;stroke-miterlimit:10;stroke-dasharray:none;stroke-opacity:1"
         id="path300" /><path
         d="m 424.199,994 c 0,22.86 -18.535,41.4 -41.398,41.4 -22.863,0 -41.403,-18.54 -41.403,-41.4 0,-22.863 18.54,-41.398 41.403,-41.398 22.863,0 41.398,18.535 41.398,41.398"
         style="fill:#39fb31;fill-opacity:1;fill-rule:evenodd;stroke:none"
         id="path302" /><path
         d="m 424.199,994 c 0,22.86 -18.535,41.4 -41.398,41.4 -22.863,0 -41.403,-18.54 -41.403,-41.4 0,-22.863 18.54,-41.398 41.403,-41.398 22.863,0 41.398,18.535 41.398,41.398"
         style="fill:none;stroke:#39fb31;stroke-width:7.19999981;stroke-linecap:butt;stroke-linejoin:miter;stroke-miterlimit:10;stroke-dasharray:none;stroke-opacity:1"
         id="path304" /><path
         d="M 339.602,950.801 H 678 v 345.598 H 339.602 Z"
         style="fill:none;stroke:#000000;stroke-width:7.19999981;stroke-linecap:butt;stroke-linejoin:miter;stroke-miterlimit:10;stroke-dasharray:none;stroke-opacity:1"
         id="path306" /><path
         d="m 676.199,994 c 0,22.86 -18.535,41.4 -41.398,41.4 -22.863,0 -41.403,-18.54 -41.403,-41.4 0,-22.863 18.54,-41.398 41.403,-41.398 22.863,0 41.398,18.535 41.398,41.398"
         style="fill:#39fb31;fill-opacity:1;fill-rule:evenodd;stroke:none"
         id="path308" /><path
         d="m 676.199,994 c 0,22.86 -18.535,41.4 -41.398,41.4 -22.863,0 -41.403,-18.54 -41.403,-41.4 0,-22.863 18.54,-41.398 41.403,-41.398 22.863,0 41.398,18.535 41.398,41.398"
         style="fill:none;stroke:#39fb31;stroke-width:7.19999981;stroke-linecap:butt;stroke-linejoin:miter;stroke-miterlimit:10;stroke-dasharray:none;stroke-opacity:1"
         id="path310" /><path
         d="m 1196.4,2196.4 169.2,-169.2 V 378.398 H 62.3984 V 2196.4 Z"
         style="fill:none;stroke:#000000;stroke-width:7.19999981;stroke-linecap:butt;stroke-linejoin:miter;stroke-miterlimit:10;stroke-dasharray:none;stroke-opacity:1"
         id="path312" /><path
         d="m 1197.3,2196.4 v -170.1 h 169.2"
         style="fill:none;stroke:#000000;stroke-width:7.19999981;stroke-linecap:butt;stroke-linejoin:miter;stroke-miterlimit:10;stroke-dasharray:none;stroke-opacity:1"
         id="path314" /><path
         d="m 1639.2,1949.8 h 1364.4 l 61.2,-61.2 V 805 L 3000,740.199 H 1657.2 l -86.4,86.403 V 1881.4 Z"
         style="fill:none;stroke:#000000;stroke-width:7.19999981;stroke-linecap:butt;stroke-linejoin:miter;stroke-miterlimit:10;stroke-dasharray:none;stroke-opacity:1"
         id="path316" /></g></g></svg>