<?xml version="1.0" encoding="UTF-8" standalone="no"?>
<svg
   xmlns:dc="http://purl.org/dc/elements/1.1/"
   xmlns:cc="http://creativecommons.org/ns#"
   xmlns:rdf="http://www.w3.org/1999/02/22-rdf-syntax-ns#"
   xmlns:svg="http://www.w3.org/2000/svg"
   xmlns="http://www.w3.org/2000/svg"
   version="1.1"
   id="svg2"
   xml:space="preserve"
   width="327"
   height="235"
   preserveAspectRatio="xMidYMid slice"
   viewBox="0 0 326.66666 234.66667"><metadata
     id="metadata8"><rdf:RDF><cc:Work
         rdf:about=""><dc:format>image/svg+xml</dc:format><dc:type
           rdf:resource="http://purl.org/dc/dcmitype/StillImage" /></cc:Work></rdf:RDF></metadata><defs
     id="defs6" /><g
     id="g10"
     transform="matrix(1.3333333,0,0,-1.3333333,0,234.66667)"><g
       id="g12"
       transform="scale(0.1)"><path
         d="M 2428,1734.13 V 373.645 L 2132.8,696.93 v 790.25 z"
         style="fill:#c3c3c3;fill-opacity:1;fill-rule:evenodd;stroke:none"
         id="path14" /><path
         d="M 2428,1734.13 V 373.645 L 2132.8,696.93 v 790.25 z"
         style="fill:none;stroke:#c3c3c3;stroke-width:7.19999981;stroke-linecap:butt;stroke-linejoin:miter;stroke-miterlimit:10;stroke-dasharray:none;stroke-opacity:1"
         id="path16" /><path
         d="M 2168.8,1333.25 V 852.988"
         style="fill:none;stroke:#000000;stroke-width:7.19999981;stroke-linecap:butt;stroke-linejoin:miter;stroke-miterlimit:10;stroke-dasharray:none;stroke-opacity:1"
         id="path18" /><path
         d="m 2334.4,833.199 -216,122.403"
         style="fill:none;stroke:#000000;stroke-width:7.19999981;stroke-linecap:butt;stroke-linejoin:miter;stroke-miterlimit:10;stroke-dasharray:none;stroke-opacity:1"
         id="path20" /><path
         d="m 2334.4,1308.4 -216,-72"
         style="fill:none;stroke:#000000;stroke-width:7.19999981;stroke-linecap:butt;stroke-linejoin:miter;stroke-miterlimit:10;stroke-dasharray:none;stroke-opacity:1"
         id="path22" /><path
         d="M 2183.2,1250.8 275.199,1092.4 2183.2,934"
         style="fill:#ffc4d0;fill-opacity:1;fill-rule:evenodd;stroke:none"
         id="path24" /><path
         d="M 354.398,1250.8 30.3984,1092.4 354.398,934"
         style="fill:none;stroke:#000000;stroke-width:14.39999962;stroke-linecap:butt;stroke-linejoin:miter;stroke-miterlimit:10;stroke-dasharray:none;stroke-opacity:1"
         id="path26" /><path
         d="m 289.602,1222 c 0,0 0,0 10.796,-9.6 10.801,-9.6 32.403,-28.8 43.204,-61.2 10.796,-32.4 10.796,-78 0,-110.4 -10.801,-32.4 -32.403,-51.601 -43.204,-61.198 C 289.602,970 289.602,970 289.602,970"
         style="fill:none;stroke:#000000;stroke-width:14.39999962;stroke-linecap:butt;stroke-linejoin:miter;stroke-miterlimit:10;stroke-dasharray:none;stroke-opacity:1"
         id="path28" /><path
         d="M 1196.8,1459.6 V 689.199 l -172.8,216 V 1286.8 Z"
         style="fill:#c3c3c3;fill-opacity:1;fill-rule:evenodd;stroke:none"
         id="path30" /><path
         d="M 1196.8,1459.6 V 689.199 l -172.8,216 V 1286.8 Z"
         style="fill:none;stroke:#c3c3c3;stroke-width:7.19999981;stroke-linecap:butt;stroke-linejoin:miter;stroke-miterlimit:10;stroke-dasharray:none;stroke-opacity:1"
         id="path32" /><path
         d="M 1056.4,1219.43 V 979.676"
         style="fill:none;stroke:#000000;stroke-width:7.19999981;stroke-linecap:butt;stroke-linejoin:miter;stroke-miterlimit:10;stroke-dasharray:none;stroke-opacity:1"
         id="path34" /><path
         d="M 1124.8,1291.44 V 925.57"
         style="fill:none;stroke:#000000;stroke-width:7.19999981;stroke-linecap:butt;stroke-linejoin:miter;stroke-miterlimit:10;stroke-dasharray:none;stroke-opacity:1"
         id="path36" /><path
         d="m 1038.4,1164.4 122.4,57.6"
         style="fill:none;stroke:#000000;stroke-width:7.19999981;stroke-linecap:butt;stroke-linejoin:miter;stroke-miterlimit:10;stroke-dasharray:none;stroke-opacity:1"
         id="path38" /><path
         d="m 1038.4,1034.8 115.2,-50.402"
         style="fill:none;stroke:#000000;stroke-width:7.19999981;stroke-linecap:butt;stroke-linejoin:miter;stroke-miterlimit:10;stroke-dasharray:none;stroke-opacity:1"
         id="path40" /><path
         d="M 1067.2,1171.6 275.199,1092.4 1067.2,1013.2"
         style="fill:#ffc4d0;fill-opacity:1;fill-rule:evenodd;stroke:none"
         id="path42" /><path
         d="M 2284,1394.26 V 773.711"
         style="fill:none;stroke:#000000;stroke-width:7.19999981;stroke-linecap:butt;stroke-linejoin:miter;stroke-miterlimit:10;stroke-dasharray:none;stroke-opacity:1"
         id="path44" /><path
         d="M 275.199,674.801 H 1016.8"
         style="fill:none;stroke:#000000;stroke-width:7.19999981;stroke-linecap:butt;stroke-linejoin:miter;stroke-miterlimit:10;stroke-dasharray:none;stroke-opacity:1"
         id="path46" /><path
         d="m 260.355,674.801 76.043,-19.012 v 38.024"
         style="fill:#000000;fill-opacity:1;fill-rule:evenodd;stroke:none"
         id="path48" /><path
         d="m 275.199,674.801 57.602,-14.403 v 28.801 z"
         style="fill:none;stroke:#000000;stroke-width:7.19999981;stroke-linecap:butt;stroke-linejoin:miter;stroke-miterlimit:10;stroke-dasharray:none;stroke-opacity:1"
         id="path50" /><path
         d="m 1031.64,674.801 -76.038,19.012 v -38.024"
         style="fill:#000000;fill-opacity:1;fill-rule:evenodd;stroke:none"
         id="path52" /><path
         d="m 1016.8,674.801 -57.601,14.398 v -28.801 z"
         style="fill:none;stroke:#000000;stroke-width:7.19999981;stroke-linecap:butt;stroke-linejoin:miter;stroke-miterlimit:10;stroke-dasharray:none;stroke-opacity:1"
         id="path54" /><g
         id="g56"
         transform="scale(10)"><text
   transform="matrix(1,0,0,-1,46.9602,55.4555)"
   style="font-variant:normal;font-weight:normal;font-size:10.07999992px;font-family:Helvetica;-inkscape-font-specification:Helvetica;writing-mode:lr-tb;fill:#000000;fill-opacity:1;fill-rule:nonzero;stroke:none"
   id="text62"><tspan
     x="0 5.6044798 11.20896 14.0112 16.24896 21.853439 26.89344 32.497921 38.102402"
     y="0"
     id="tspan58">28 inches</tspan><tspan
     x="0 5.6044798 11.20896 14.0112 19.051201"
     y="10.0801"
     id="tspan60">71 cm</tspan></text>

</g><path
         d="M 282.398,300.398 H 2147.2"
         style="fill:none;stroke:#000000;stroke-width:7.19999981;stroke-linecap:butt;stroke-linejoin:miter;stroke-miterlimit:10;stroke-dasharray:none;stroke-opacity:1"
         id="path64" /><path
         d="m 267.559,300.398 76.043,-19.007 v 38.019"
         style="fill:#000000;fill-opacity:1;fill-rule:evenodd;stroke:none"
         id="path66" /><path
         d="M 282.398,300.398 340,286 v 28.801 z"
         style="fill:none;stroke:#000000;stroke-width:7.19999981;stroke-linecap:butt;stroke-linejoin:miter;stroke-miterlimit:10;stroke-dasharray:none;stroke-opacity:1"
         id="path68" /><path
         d="M 2162.04,300.398 2086,319.41 v -38.019"
         style="fill:#000000;fill-opacity:1;fill-rule:evenodd;stroke:none"
         id="path70" /><path
         d="m 2147.2,300.398 -57.6,14.403 V 286 Z"
         style="fill:none;stroke:#000000;stroke-width:7.19999981;stroke-linecap:butt;stroke-linejoin:miter;stroke-miterlimit:10;stroke-dasharray:none;stroke-opacity:1"
         id="path72" /><g
         id="g74"
         transform="scale(10)"><text
   transform="matrix(1,0,0,-1,95.9199,13.6953)"
   style="font-variant:normal;font-weight:normal;font-size:10.07999992px;font-family:Helvetica;-inkscape-font-specification:Helvetica;writing-mode:lr-tb;fill:#000000;fill-opacity:1;fill-rule:nonzero;stroke:none"
   id="text80"><tspan
     x="0 5.6044798 11.20896 16.81344 19.615681 21.853439 27.45792 32.497921 38.102402 43.706879"
     y="0"
     id="tspan76">140 inches</tspan><tspan
     x="0 5.6044798 8.4067202 14.0112 16.81344"
     y="10.0801"
     id="tspan78">3.5 m</tspan></text>

</g><path
         d="M 952,1187.73 V 994.531"
         style="fill:none;stroke:#000000;stroke-width:7.19999981;stroke-linecap:butt;stroke-linejoin:miter;stroke-miterlimit:10;stroke-dasharray:none;stroke-opacity:1"
         id="path82" /><path
         d="m 952,1202.57 -19.012,-76.04 h 38.024"
         style="fill:#000000;fill-opacity:1;fill-rule:evenodd;stroke:none"
         id="path84" /><path
         d="m 952,1187.73 -14.398,-57.6 h 28.796 z"
         style="fill:none;stroke:#000000;stroke-width:7.19999981;stroke-linecap:butt;stroke-linejoin:miter;stroke-miterlimit:10;stroke-dasharray:none;stroke-opacity:1"
         id="path86" /><path
         d="m 952,979.688 19.012,76.042 h -38.024"
         style="fill:#000000;fill-opacity:1;fill-rule:evenodd;stroke:none"
         id="path88" /><path
         d="m 952,994.531 14.398,57.599 h -28.796 z"
         style="fill:none;stroke:#000000;stroke-width:7.19999981;stroke-linecap:butt;stroke-linejoin:miter;stroke-miterlimit:10;stroke-dasharray:none;stroke-opacity:1"
         id="path90" /><g
         id="g92"
         transform="scale(10)"><text
   transform="matrix(1,0,0,-1,56.3199,121.695)"
   style="font-variant:normal;font-weight:normal;font-size:10.07999992px;font-family:Helvetica;-inkscape-font-specification:Helvetica;writing-mode:lr-tb;fill:#000000;fill-opacity:1;fill-rule:nonzero;stroke:none"
   id="text96"><tspan
     x="0 5.6044798 8.4067202 14.0112 19.615681 22.417919 30.81456"
     y="0"
     id="tspan94">0.26 mm</tspan></text>

</g><path
         d="M 2024.8,1330 V 934"
         style="fill:none;stroke:#000000;stroke-width:7.19999981;stroke-linecap:butt;stroke-linejoin:miter;stroke-miterlimit:10;stroke-dasharray:none;stroke-opacity:1"
         id="path98" /><path
         d="m 2024.8,1344.84 -19.01,-76.04 h 38.02"
         style="fill:#000000;fill-opacity:1;fill-rule:evenodd;stroke:none"
         id="path100" /><path
         d="m 2024.8,1330 -14.4,-57.6 h 28.8 z"
         style="fill:none;stroke:#000000;stroke-width:7.19999981;stroke-linecap:butt;stroke-linejoin:miter;stroke-miterlimit:10;stroke-dasharray:none;stroke-opacity:1"
         id="path102" /><path
         d="m 2024.8,919.156 19.01,76.043 h -38.02"
         style="fill:#000000;fill-opacity:1;fill-rule:evenodd;stroke:none"
         id="path104" /><path
         d="m 2024.8,934 14.4,57.602 h -28.8 z"
         style="fill:none;stroke:#000000;stroke-width:7.19999981;stroke-linecap:butt;stroke-linejoin:miter;stroke-miterlimit:10;stroke-dasharray:none;stroke-opacity:1"
         id="path106" /><g
         id="g108"
         transform="scale(10)"><text
   transform="matrix(1,0,0,-1,170.08,133.935)"
   style="font-variant:normal;font-weight:normal;font-size:10.07999992px;font-family:Helvetica;-inkscape-font-specification:Helvetica;writing-mode:lr-tb;fill:#000000;fill-opacity:1;fill-rule:nonzero;stroke:none"
   id="text114"><tspan
     x="0 5.6044798 8.4067202 14.0112 16.81344 25.210079"
     y="0"
     id="tspan110">1.3 mm</tspan><tspan
     x="-167.03999 -162 -159.76224 -154.15776 -146.88 -141.27551"
     y="52.3797"
     id="tspan112">viewer</tspan></text>

</g></g></g></svg>