<?xml version="1.0" encoding="UTF-8" standalone="no"?>
<svg
   xmlns:dc="http://purl.org/dc/elements/1.1/"
   xmlns:cc="http://creativecommons.org/ns#"
   xmlns:rdf="http://www.w3.org/1999/02/22-rdf-syntax-ns#"
   xmlns:svg="http://www.w3.org/2000/svg"
   xmlns="http://www.w3.org/2000/svg"
   version="1.1"
   id="svg2"
   xml:space="preserve"
   width="518"
   height="403"
   preserveAspectRatio="xMidYMid slice"
   viewBox="0 0 662.66669 516"><metadata
   id="metadata8"><rdf:RDF><cc:Work
       rdf:about=""><dc:format>image/svg+xml</dc:format><dc:type
         rdf:resource="http://purl.org/dc/dcmitype/StillImage" /></cc:Work></rdf:RDF></metadata><defs
   id="defs6">
</defs><path
   d="M 577.21199,395.27294 354.66666,320 3.3937466,437.81827 227.03066,512 Z"
   style="fill:#808080;fill-opacity:1;fill-rule:evenodd;stroke:none;stroke-width:0.13333333"
   id="path14" /><path
   d="M 577.21199,395.27294 354.66666,320 3.3937466,437.81827 227.03066,512 Z"
   style="fill:none;stroke:#808080;stroke-width:2.18181324;stroke-linecap:butt;stroke-linejoin:miter;stroke-miterlimit:10;stroke-dasharray:none;stroke-opacity:1"
   id="path16" /><path
   d="M 577.62132,396.5 353.98532,321.22667 2.7119733,437.95467 227.43999,512.13645 Z"
   style="fill:none;stroke:#000000;stroke-width:2.18181324;stroke-linecap:butt;stroke-linejoin:miter;stroke-miterlimit:10;stroke-dasharray:none;stroke-opacity:1"
   id="path18" /><path
   d="M 577.62132,332.136 355.07599,257.95467 3.8031199,374.68134 227.43999,447.77294 Z"
   style="fill:none;stroke:#000000;stroke-width:2.18181324;stroke-linecap:butt;stroke-linejoin:miter;stroke-miterlimit:10;stroke-dasharray:none;stroke-opacity:1"
   id="path20" /><path
   d="M 482.30265,237.09067 354.66666,192.36401 3.3937466,310.18134 131.03026,353.81867 Z"
   style="fill:#808080;fill-opacity:1;fill-rule:evenodd;stroke:none;stroke-width:0.13333333"
   id="path22" /><path
   d="M 482.30265,237.09067 354.66666,192.36401 3.3937466,310.18134 131.03026,353.81867 Z"
   style="fill:none;stroke:#808080;stroke-width:2.18181324;stroke-linecap:butt;stroke-linejoin:miter;stroke-miterlimit:10;stroke-dasharray:none;stroke-opacity:1"
   id="path24" /><path
   d="M 67.757865,333.09067 417.93999,216.36401"
   style="fill:none;stroke:#000000;stroke-width:2.18181324;stroke-linecap:butt;stroke-linejoin:miter;stroke-miterlimit:10;stroke-dasharray:none;stroke-opacity:1"
   id="path26" /><path
   d="M 577.62132,268.86401 355.07599,194.68134 3.8031199,311.40934 227.43999,384.5 Z"
   style="fill:none;stroke:#000000;stroke-width:2.18181324;stroke-linecap:butt;stroke-linejoin:miter;stroke-miterlimit:10;stroke-dasharray:none;stroke-opacity:1"
   id="path28" /><path
   d="m 131.03026,353.81867 350.18173,-116.728"
   style="fill:none;stroke:#000000;stroke-width:2.18181324;stroke-linecap:butt;stroke-linejoin:miter;stroke-miterlimit:10;stroke-dasharray:none;stroke-opacity:1"
   id="path30" /><path
   d="M 577.21199,203.27201 354.66666,128.00001 3.3937466,245.81734 227.03066,320 Z"
   style="fill:#c3c3c3;fill-opacity:1;fill-rule:evenodd;stroke:none;stroke-width:0.13333333"
   id="path32" /><path
   d="M 577.21199,203.27201 354.66666,128.00001 3.3937466,245.81734 227.03066,320 Z"
   style="fill:none;stroke:#c3c3c3;stroke-width:2.18181324;stroke-linecap:butt;stroke-linejoin:miter;stroke-miterlimit:10;stroke-dasharray:none;stroke-opacity:1"
   id="path34" /><path
   d="m 5.0302132,246.90934 222.5457768,74.18133 351.272,-116.72666 -223.636,-75.27333 z"
   style="fill:none;stroke:#000000;stroke-width:2.18181324;stroke-linecap:butt;stroke-linejoin:miter;stroke-miterlimit:10;stroke-dasharray:none;stroke-opacity:1"
   id="path36" /><path
   d="m 227.03066,171.63601 222.54533,75.27333"
   style="fill:none;stroke:#000000;stroke-width:2.18181324;stroke-linecap:butt;stroke-linejoin:miter;stroke-miterlimit:10;stroke-dasharray:none;stroke-opacity:1"
   id="path38" /><path
   d="M 577.21199,141.09068 354.66666,65.818678 3.3937466,183.63601 227.03066,257.81867 Z"
   style="fill:#808080;fill-opacity:1;fill-rule:evenodd;stroke:none;stroke-width:0.13333333"
   id="path40" /><path
   d="M 577.21199,141.09068 354.66666,65.818678 3.3937466,183.63601 227.03066,257.81867 Z"
   style="fill:none;stroke:#808080;stroke-width:2.18181324;stroke-linecap:butt;stroke-linejoin:miter;stroke-miterlimit:10;stroke-dasharray:none;stroke-opacity:1"
   id="path42" /><path
   d="m 5.0302132,184.72667 222.5457768,74.18267 351.272,-116.728 -223.636,-75.271995 z"
   style="fill:none;stroke:#000000;stroke-width:2.18181324;stroke-linecap:butt;stroke-linejoin:miter;stroke-miterlimit:10;stroke-dasharray:none;stroke-opacity:1"
   id="path44" /><path
   d="M 290.30266,236.54534 67.757865,162.36401"
   style="fill:none;stroke:#000000;stroke-width:2.18181324;stroke-linecap:butt;stroke-linejoin:miter;stroke-miterlimit:10;stroke-dasharray:none;stroke-opacity:1"
   id="path46" /><path
   d="m 131.03026,142.18134 223.6364,74.18267"
   style="fill:none;stroke:#000000;stroke-width:2.18181324;stroke-linecap:butt;stroke-linejoin:miter;stroke-miterlimit:10;stroke-dasharray:none;stroke-opacity:1"
   id="path48" /><path
   d="m 227.03066,109.45468 222.54533,75.27199"
   style="fill:none;stroke:#000000;stroke-width:2.18181324;stroke-linecap:butt;stroke-linejoin:miter;stroke-miterlimit:10;stroke-dasharray:none;stroke-opacity:1"
   id="path50" /><path
   d="M 290.84799,89.272011 514.48532,162.36401"
   style="fill:none;stroke:#000000;stroke-width:2.18181324;stroke-linecap:butt;stroke-linejoin:miter;stroke-miterlimit:10;stroke-dasharray:none;stroke-opacity:1"
   id="path52" /><path
   d="m 130.89373,161.95468 127.63693,-42.54534 -64.364,-20.727996 -63.27293,20.727996 63.27293,21.81734 -63.27293,20.728 L 3.2578133,119.40934 354.53066,2.6813462 577.07599,76.864011 226.89466,193.59067"
   style="fill:#c3c3c3;fill-opacity:1;fill-rule:evenodd;stroke:none;stroke-width:0.13333333"
   id="path54" /><path
   d="m 130.89373,161.95468 127.63693,-42.54534 -64.364,-20.727996 -63.27293,20.727996 63.27293,21.81734 -63.27293,20.728 L 3.2578133,119.40934 354.53066,2.6813462 577.07599,76.864011 226.89466,193.59067 Z"
   style="fill:none;stroke:#c3c3c3;stroke-width:2.18181324;stroke-linecap:butt;stroke-linejoin:miter;stroke-miterlimit:10;stroke-dasharray:none;stroke-opacity:1"
   id="path56" /><path
   d="M 3.3937466,119.27201 227.03066,193.45467 577.21199,76.726678 354.66666,1.4546795 Z"
   style="fill:none;stroke:#000000;stroke-width:2.18181324;stroke-linecap:butt;stroke-linejoin:miter;stroke-miterlimit:10;stroke-dasharray:none;stroke-opacity:1"
   id="path58" /><path
   d="M 227.03066,44.000012 449.57599,119.27201"
   style="fill:none;stroke:#000000;stroke-width:2.18181324;stroke-linecap:butt;stroke-linejoin:miter;stroke-miterlimit:10;stroke-dasharray:none;stroke-opacity:1"
   id="path60" /><path
   d="M 67.757865,140.00001 417.93999,23.272012"
   style="fill:none;stroke:#000000;stroke-width:2.18181324;stroke-linecap:butt;stroke-linejoin:miter;stroke-miterlimit:10;stroke-dasharray:none;stroke-opacity:1"
   id="path62" /><path
   d="M 131.03026,160.72668 354.66666,86.545344"
   style="fill:none;stroke:#000000;stroke-width:2.18181324;stroke-linecap:butt;stroke-linejoin:miter;stroke-miterlimit:10;stroke-dasharray:none;stroke-opacity:1"
   id="path64" /><path
   d="m 131.03026,76.726678 223.6364,74.182662"
   style="fill:none;stroke:#000000;stroke-width:2.18181324;stroke-linecap:butt;stroke-linejoin:miter;stroke-miterlimit:10;stroke-dasharray:none;stroke-opacity:1"
   id="path66" /><path
   d="M 355.21199,43.454678 514.48532,96.909344"
   style="fill:none;stroke:#000000;stroke-width:2.18181324;stroke-linecap:butt;stroke-linejoin:miter;stroke-miterlimit:10;stroke-dasharray:none;stroke-opacity:1"
   id="path68" /><path
   d="M 290.30266,171.09068 67.757865,96.909344"
   style="fill:none;stroke:#000000;stroke-width:2.18181324;stroke-linecap:butt;stroke-linejoin:miter;stroke-miterlimit:10;stroke-dasharray:none;stroke-opacity:1"
   id="path70" /><text
   y="59.073345"
   x="545.98529"
   id="text86"
   style="font-variant:normal;font-weight:bold;font-size:15.27266693px;font-family:Helvetica;-inkscape-font-specification:Helvetica-Bold;writing-mode:lr-tb;fill:#000000;fill-opacity:1;fill-rule:nonzero;stroke:none;stroke-width:1.33333325"><tspan
     style="stroke-width:1.33333325"
     id="tspan74"
     y="59.073345"
     x="545.98529 554.47693 562.96851 567.21436 571.46014">cells</tspan><tspan
     style="stroke-width:1.33333325"
     id="tspan76"
     y="123.43694"
     x="545.98529 551.92639 561.258 573.14014">rows</tspan><tspan
     style="stroke-width:1.33333325"
     id="tspan78"
     y="187.80055"
     x="545.98529 551.92639 561.258 573.14014 577.38593 586.71753 592.65857 601.99017 611.32178 620.65338">row groups</tspan><tspan
     style="stroke-width:1.33333325"
     id="tspan80"
     y="249.98227"
     x="544.89471 553.38629 562.7179 566.96368 576.29529 589.87268 599.20428">columns</tspan><tspan
     style="stroke-width:1.33333325"
     id="tspan82"
     y="377.61865"
     x="545.98529 551.07111 559.56274 568.89435 573.14014">table</tspan><tspan
     style="stroke-width:1.33333325"
     id="tspan84"
     y="313.25467"
     x="545.98529 554.47693 563.80853 568.05432 577.38593 590.96332 600.29492 604.54071 613.87231 619.81342 629.14496 638.47656 647.80817">column groups</tspan></text>

</svg>