<?xml version="1.0" encoding="UTF-8" standalone="no"?>
<svg
   xmlns:dc="http://purl.org/dc/elements/1.1/"
   xmlns:cc="http://creativecommons.org/ns#"
   xmlns:rdf="http://www.w3.org/1999/02/22-rdf-syntax-ns#"
   xmlns:svg="http://www.w3.org/2000/svg"
   xmlns="http://www.w3.org/2000/svg"
   version="1.1"
   id="svg2"
   xml:space="preserve"
   width="564"
   height="400"
   preserveAspectRatio="xMidYMid slice"
   viewBox="0 0 721.33331 512"><metadata
   id="metadata8"><rdf:RDF><cc:Work
       rdf:about=""><dc:format>image/svg+xml</dc:format><dc:type
         rdf:resource="http://purl.org/dc/dcmitype/StillImage" /><dc:title /></cc:Work></rdf:RDF></metadata><defs
   id="defs6"><clipPath
   clipPathUnits="userSpaceOnUse"
   id="clipPath94"><path
     d="M 0,0 H 5410 V 3840 H 0 Z m 207.297,439.781 h 9.613 l 15.793,-98.183 h -41.199 z"
     id="path92"
     style="clip-rule:evenodd" /></clipPath><clipPath
   clipPathUnits="userSpaceOnUse"
   id="clipPath108"><path
     d="M 0,0 H 5410 V 3840 H 0 Z m 5179.66,439.781 h 9.61 l 15.79,-98.183 h -41.2 z"
     id="path106"
     style="clip-rule:evenodd" /></clipPath>









</defs><path
   d="M 47.725955,385.41252 V 130.82199 H 24.473289 v 254.59053 h 23.252666"
   style="fill:#000000;fill-opacity:1;fill-rule:evenodd;stroke:none;stroke-width:0.13333333"
   id="path14" /><path
   d="M 47.725955,385.41252 V 130.82199 H 24.473289 v 254.59053 z"
   style="fill:none;stroke:#000000;stroke-width:0.68659997;stroke-linecap:butt;stroke-linejoin:miter;stroke-miterlimit:10;stroke-dasharray:none;stroke-opacity:1"
   id="path16" /><path
   d="M 267.43795,385.41252 V 130.82199 h -34.87866 v 254.59053 h 34.87866"
   style="fill:#000000;fill-opacity:1;fill-rule:evenodd;stroke:none;stroke-width:0.13333333"
   id="path18" /><path
   d="M 267.43795,385.41252 V 130.82199 h -34.87866 v 254.59053 z"
   style="fill:none;stroke:#000000;stroke-width:0.68659997;stroke-linecap:butt;stroke-linejoin:miter;stroke-miterlimit:10;stroke-dasharray:none;stroke-opacity:1"
   id="path20" /><path
   d="M 487.24195,385.41252 V 130.82199 h -23.34533 v 254.59053 h 23.34533"
   style="fill:#000000;fill-opacity:1;fill-rule:evenodd;stroke:none;stroke-width:0.13333333"
   id="path22" /><path
   d="M 487.24195,385.41252 V 130.82199 h -23.34533 v 254.59053 z"
   style="fill:none;stroke:#000000;stroke-width:0.68659997;stroke-linecap:butt;stroke-linejoin:miter;stroke-miterlimit:10;stroke-dasharray:none;stroke-opacity:1"
   id="path24" /><path
   d="M 708.05261,385.41252 V 130.82199 h -58.132 v 254.59053 h 58.132"
   style="fill:#000000;fill-opacity:1;fill-rule:evenodd;stroke:none;stroke-width:0.13333333"
   id="path26" /><path
   d="M 708.05261,385.41252 V 130.82199 h -58.132 v 254.59053 z"
   style="fill:none;stroke:#000000;stroke-width:0.68659997;stroke-linecap:butt;stroke-linejoin:miter;stroke-miterlimit:10;stroke-dasharray:none;stroke-opacity:1"
   id="path28" /><path
   d="m 197.67929,362.15932 v -219.712 H 70.887421 v 219.712 z"
   style="fill:none;stroke:#000000;stroke-width:0.68659997;stroke-linecap:butt;stroke-linejoin:miter;stroke-miterlimit:10;stroke-dasharray:5.49279986, 2.47175994, 1.37319997, 1.83093329, 1.37319997, 2.47175994;stroke-dashoffset:0;stroke-opacity:1"
   id="path30" /><path
   d="m 441.83395,362.15932 v -219.712 H 290.69129 v 219.712 z"
   style="fill:none;stroke:#000000;stroke-width:0.68659997;stroke-linecap:butt;stroke-linejoin:miter;stroke-miterlimit:10;stroke-dasharray:5.49279986, 2.47175994, 1.37319997, 1.83093329, 1.37319997, 2.47175994;stroke-dashoffset:0;stroke-opacity:1"
   id="path32" /><path
   d="m 615.04061,362.15932 v -219.712 h -92.92 v 219.712 z"
   style="fill:none;stroke:#000000;stroke-width:0.68659997;stroke-linecap:butt;stroke-linejoin:miter;stroke-miterlimit:10;stroke-dasharray:5.49279986, 2.47175994, 1.37319997, 1.83093329, 1.37319997, 2.47175994;stroke-dashoffset:0;stroke-opacity:1"
   id="path34" /><path
   d="M 24.473289,397.03851 V 385.41252 H 708.05261 v 11.62599 H 24.473289"
   style="fill:#000000;fill-opacity:1;fill-rule:evenodd;stroke:none;stroke-width:0.13333333"
   id="path36" /><path
   d="M 24.473289,397.03851 V 385.41252 H 708.05261 v 11.62599 z"
   style="fill:none;stroke:#000000;stroke-width:0.68659997;stroke-linecap:butt;stroke-linejoin:miter;stroke-miterlimit:10;stroke-dasharray:none;stroke-opacity:1"
   id="path38" /><path
   d="M 24.473289,119.19532 V 84.315323"
   style="fill:none;stroke:#000000;stroke-width:0.68659997;stroke-linecap:butt;stroke-linejoin:miter;stroke-miterlimit:10;stroke-dasharray:none;stroke-opacity:1"
   id="path40" /><path
   d="M 47.725955,119.19532 V 84.315323"
   style="fill:none;stroke:#000000;stroke-width:0.68659997;stroke-linecap:butt;stroke-linejoin:miter;stroke-miterlimit:10;stroke-dasharray:none;stroke-opacity:1"
   id="path42" /><path
   d="M 70.887421,119.19532 V 84.315323"
   style="fill:none;stroke:#000000;stroke-width:0.68659997;stroke-linecap:butt;stroke-linejoin:miter;stroke-miterlimit:10;stroke-dasharray:none;stroke-opacity:1"
   id="path44" /><path
   d="M 197.67929,119.19532 V 84.315323"
   style="fill:none;stroke:#000000;stroke-width:0.68659997;stroke-linecap:butt;stroke-linejoin:miter;stroke-miterlimit:10;stroke-dasharray:none;stroke-opacity:1"
   id="path46" /><path
   d="M 232.55929,119.19532 V 84.315323"
   style="fill:none;stroke:#000000;stroke-width:0.68659997;stroke-linecap:butt;stroke-linejoin:miter;stroke-miterlimit:10;stroke-dasharray:none;stroke-opacity:1"
   id="path48" /><path
   d="M 267.43795,119.19532 V 84.315323"
   style="fill:none;stroke:#000000;stroke-width:0.68659997;stroke-linecap:butt;stroke-linejoin:miter;stroke-miterlimit:10;stroke-dasharray:none;stroke-opacity:1"
   id="path50" /><path
   d="M 708.05261,119.19532 V 84.315323"
   style="fill:none;stroke:#000000;stroke-width:0.68659997;stroke-linecap:butt;stroke-linejoin:miter;stroke-miterlimit:10;stroke-dasharray:none;stroke-opacity:1"
   id="path52" /><path
   d="M 649.92061,119.19532 V 84.315323"
   style="fill:none;stroke:#000000;stroke-width:0.68659997;stroke-linecap:butt;stroke-linejoin:miter;stroke-miterlimit:10;stroke-dasharray:none;stroke-opacity:1"
   id="path54" /><path
   d="M 615.04061,119.19532 V 84.315323"
   style="fill:none;stroke:#000000;stroke-width:0.68659997;stroke-linecap:butt;stroke-linejoin:miter;stroke-miterlimit:10;stroke-dasharray:none;stroke-opacity:1"
   id="path56" /><path
   d="M 522.12061,119.19532 V 84.315323"
   style="fill:none;stroke:#000000;stroke-width:0.68659997;stroke-linecap:butt;stroke-linejoin:miter;stroke-miterlimit:10;stroke-dasharray:none;stroke-opacity:1"
   id="path58" /><path
   d="M 487.24195,119.19532 V 84.315323"
   style="fill:none;stroke:#000000;stroke-width:0.68659997;stroke-linecap:butt;stroke-linejoin:miter;stroke-miterlimit:10;stroke-dasharray:none;stroke-opacity:1"
   id="path60" /><path
   d="M 463.89662,119.19532 V 84.315323"
   style="fill:none;stroke:#000000;stroke-width:0.68659997;stroke-linecap:butt;stroke-linejoin:miter;stroke-miterlimit:10;stroke-dasharray:none;stroke-opacity:1"
   id="path62" /><path
   d="M 441.83395,119.19532 V 84.315323"
   style="fill:none;stroke:#000000;stroke-width:0.68659997;stroke-linecap:butt;stroke-linejoin:miter;stroke-miterlimit:10;stroke-dasharray:none;stroke-opacity:1"
   id="path64" /><path
   d="M 290.69129,119.19532 V 84.315323"
   style="fill:none;stroke:#000000;stroke-width:0.68659997;stroke-linecap:butt;stroke-linejoin:miter;stroke-miterlimit:10;stroke-dasharray:none;stroke-opacity:1"
   id="path66" /><text
   y="106.37798"
   x="116.29462"
   id="text72"
   style="font-variant:normal;font-weight:normal;font-size:16.47839928px;font-family:Helvetica;-inkscape-font-specification:Helvetica;writing-mode:lr-tb;fill:#000000;fill-opacity:1;fill-rule:nonzero;stroke:none;stroke-width:1.33333325"><tspan
     style="stroke-width:1.33333325"
     id="tspan70"
     y="106.37798"
     x="116.29462 128.19202 131.85022 141.01221 145.5932 348.82294 360.72037 364.37857 373.54056 378.12152 545.28186 557.17926 560.83746 569.99951 574.58044">widthwidthwidth</tspan></text>

<text
   y="252.88193"
   x="-103.54066"
   id="text76"
   style="font-variant:normal;font-weight:normal;font-size:16.47839928px;font-family:Helvetica;-inkscape-font-specification:Helvetica;writing-mode:lr-tb;fill:#000000;fill-opacity:1;fill-rule:nonzero;stroke:none;stroke-width:1.33333325"
   transform="rotate(-90)"><tspan
     style="stroke-width:1.33333325"
     id="tspan74"
     y="252.88193"
     x="-103.54066 -94.378654 -85.216667 -79.729362 -70.567375 -61.405392 -55.918087 -46.294693 -34.397297 -30.739092 -21.577105 -16.996111">border−width</tspan></text>

<text
   y="476.40121"
   x="-116.35154"
   id="text80"
   style="font-variant:normal;font-weight:normal;font-size:16.47840118px;font-family:Helvetica;-inkscape-font-specification:Helvetica;writing-mode:lr-tb;fill:#000000;fill-opacity:1;fill-rule:nonzero;stroke:none;stroke-width:1.33333325"
   transform="rotate(-91.699997)"><tspan
     style="stroke-width:1.33333325"
     id="tspan78"
     y="476.40121"
     x="-116.35154 -107.18953 -98.027542 -92.540237 -83.37825 -74.216248 -68.728943 -59.105549 -47.208149 -43.54995 -34.387962 -29.806967">border−width</tspan></text>

<text
   y="681.86993"
   x="-103.54066"
   id="text86"
   style="font-variant:normal;font-weight:normal;font-size:16.47839928px;font-family:Helvetica;-inkscape-font-specification:Helvetica;writing-mode:lr-tb;fill:#000000;fill-opacity:1;fill-rule:nonzero;stroke:none;stroke-width:1.33333325"
   transform="rotate(-90)"><tspan
     style="stroke-width:1.33333325"
     id="tspan82"
     y="681.86993"
     x="-103.54066 -94.378654 -85.216667 -79.729362 -70.567375 -61.405392 -55.918087 -46.294693 -34.397297 -30.739092 -21.577105 -16.996111">border−width</tspan><tspan
     style="stroke-width:1.33333325"
     id="tspan84"
     y="39.029938"
     x="-103.54066 -94.378654 -85.216667 -79.729362 -70.567375 -61.405392 -55.918087 -46.294693 -34.397297 -30.739092 -21.577105 -16.996111">border−width</tspan></text>

<path
   d="m 30.149289,456.54425 v 3.02093 l 0.0912,1.46453 0.09173,1.5568 0.183333,1.83067 0.2744,1.9224 0.366134,2.01413 0.457866,2.10574 0.640667,2.1052 0.732267,2.10573 1.007199,2.19733 1.281867,2.28854 1.556267,2.28853 2.014,2.28853 2.288533,2.38027 2.654667,2.28907 2.6552,1.9224 2.837599,1.73906 2.838,1.46507 2.746267,1.2812 2.7464,1.00733 2.746933,0.9156 2.746267,0.73227 2.563066,0.64067 2.654667,0.54946 2.5636,0.45787 2.563466,0.36613 2.380267,0.36614 2.288533,0.1828 2.105734,0.27506 1.9224,0.0911 1.556266,0.18333 1.281734,0.0917 h 0.915066 l 0.6412,0.0911 h 0.2744 0.1828"
   style="fill:none;stroke:#000000;stroke-width:0.68659997;stroke-linecap:butt;stroke-linejoin:bevel;stroke-miterlimit:10;stroke-dasharray:none;stroke-opacity:1"
   id="path96" /><path
   d="m 32.895689,468.99425 -2.7464,-10.98534 -2.7468,10.98534 z"
   style="fill:#000000;fill-opacity:1;fill-rule:evenodd;stroke:none;stroke-width:0.13333333"
   id="path98" /><path
   d="m 32.895689,468.99425 -2.7464,-10.98534 -2.7468,10.98534 z"
   style="fill:none;stroke:#000000;stroke-width:0.68659997;stroke-linecap:butt;stroke-linejoin:miter;stroke-miterlimit:10;stroke-dasharray:none;stroke-opacity:1"
   id="path100" /><path
   d="m 693.12994,456.54425 v 2.1052 l -0.092,1.28186 -0.0907,1.64787 -0.092,1.8308 -0.27467,2.014 -0.27467,2.10573 -0.36533,2.28854 -0.45867,2.28906 -0.64,2.28854 -0.824,2.38026 -1.09866,2.38014 -1.28134,2.38026 -1.55733,2.47187 -1.92133,2.38013 -2.38134,2.47147 -2.65466,2.28893 -2.92934,2.10534 -3.11333,1.73946 -3.112,1.46467 -3.02133,1.19013 -3.02,0.9156 -2.93067,0.73227 -2.92933,0.54947 -2.83734,0.36613 -2.83733,0.27453 -2.656,0.18334 -2.65467,0.1828 h -2.472 -2.196 -1.924 -1.64666 -1.09867 l -0.824,-0.0917 h -0.45733 -0.184"
   style="fill:none;stroke:#000000;stroke-width:0.68659997;stroke-linecap:butt;stroke-linejoin:bevel;stroke-miterlimit:10;stroke-dasharray:none;stroke-opacity:1"
   id="path110" /><path
   d="m 695.87661,468.99425 -2.74667,-10.98534 -2.74666,10.98534 z"
   style="fill:#000000;fill-opacity:1;fill-rule:evenodd;stroke:none;stroke-width:0.13333333"
   id="path112" /><path
   d="m 695.87661,468.99425 -2.74667,-10.98534 -2.74666,10.98534 z"
   style="fill:none;stroke:#000000;stroke-width:0.68659997;stroke-linecap:butt;stroke-linejoin:miter;stroke-miterlimit:10;stroke-dasharray:none;stroke-opacity:1"
   id="path114" /><text
   y="58.162346"
   x="-99.420647"
   id="text120"
   style="font-variant:normal;font-weight:normal;font-size:16.47839928px;font-family:Helvetica;-inkscape-font-specification:Helvetica;writing-mode:lr-tb;fill:#000000;fill-opacity:1;fill-rule:nonzero;stroke:none;stroke-width:1.33333325"
   transform="rotate(-90)"><tspan
     style="stroke-width:1.33333325"
     id="tspan118"
     y="58.162346"
     x="-99.420647 -90.258659 -81.096672 -71.934685 -62.772701 -59.114498 -49.952511">padding</tspan></text>

<text
   y="503.96509"
   x="89.562874"
   id="text124"
   style="font-variant:normal;font-weight:normal;font-size:16.47839928px;font-family:Helvetica;-inkscape-font-specification:Helvetica;writing-mode:lr-tb;fill:#000000;fill-opacity:1;fill-rule:nonzero;stroke:none;stroke-width:1.33333325"><tspan
     style="stroke-width:1.33333325"
     id="tspan122"
     y="503.96509"
     x="89.562874 94.143875 103.30586 112.46785 116.12605 125.28806 129.86905 139.03104 148.19302 153.68033 162.84232 172.0043 177.49161 182.0726 193.97003 197.62823 206.79022 211.37122 505.1842 509.76517 518.92719 528.08917 531.74738 540.90936 545.49036 554.65234 563.81433 569.30164 578.46362 587.62561 593.11292 597.69391 609.59131 613.24951 622.4115 626.99249">table border widthtable border width</tspan></text>

<text
   y="219.74194"
   x="-99.420647"
   id="text136"
   style="font-variant:normal;font-weight:normal;font-size:16.47839928px;font-family:Helvetica;-inkscape-font-specification:Helvetica;writing-mode:lr-tb;fill:#000000;fill-opacity:1;fill-rule:nonzero;stroke:none;stroke-width:1.33333325"
   transform="rotate(-90)"><tspan
     style="stroke-width:1.33333325"
     id="tspan126"
     y="219.74194"
     x="-99.420647 -90.258659 -81.096672 -71.934685 -62.772701 -59.114498 -49.952511">padding</tspan><tspan
     style="stroke-width:1.33333325"
     id="tspan128"
     y="277.96594"
     x="-99.420647 -90.258659 -81.096672 -71.934685 -62.772701 -59.114498 -49.952511">padding</tspan><tspan
     style="stroke-width:1.33333325"
     id="tspan130"
     y="451.17261"
     x="-99.420647 -90.258659 -81.096672 -71.934685 -62.772701 -59.114498 -49.952511">padding</tspan><tspan
     style="stroke-width:1.33333325"
     id="tspan132"
     y="503.53714"
     x="-99.420647 -90.258659 -81.096672 -71.934685 -62.772701 -59.114498 -49.952511">padding</tspan><tspan
     style="stroke-width:1.33333325"
     id="tspan134"
     y="631.33661"
     x="-99.420647 -90.258659 -81.096672 -71.934685 -62.772701 -59.114498 -49.952511">padding</tspan></text>

<path
   d="M 42.416488,443.63598 H 673.72194"
   style="fill:none;stroke:#000000;stroke-width:0.68659997;stroke-linecap:butt;stroke-linejoin:miter;stroke-miterlimit:10;stroke-dasharray:none;stroke-opacity:1"
   id="path138" /><path
   d="m 52.303555,446.65731 -12.2672,-3.02133 12.2672,-3.11253"
   style="fill:#000000;fill-opacity:1;fill-rule:evenodd;stroke:none;stroke-width:0.13333333"
   id="path140" /><path
   d="m 51.754088,445.92451 -9.3376,-2.28853 9.3376,-2.38027"
   style="fill:none;stroke:#000000;stroke-width:0.68659997;stroke-linecap:butt;stroke-linejoin:miter;stroke-miterlimit:10;stroke-dasharray:none;stroke-opacity:1"
   id="path142" /><path
   d="m 663.83528,440.52345 12.35866,3.11253 -12.35866,3.02133"
   style="fill:#000000;fill-opacity:1;fill-rule:evenodd;stroke:none;stroke-width:0.13333333"
   id="path144" /><path
   d="m 664.47528,441.25571 9.24666,2.38027 -9.24666,2.28853"
   style="fill:none;stroke:#000000;stroke-width:0.68659997;stroke-linecap:butt;stroke-linejoin:miter;stroke-miterlimit:10;stroke-dasharray:none;stroke-opacity:1"
   id="path146" /><text
   y="462.67758"
   x="313.94327"
   id="text152"
   style="font-variant:normal;font-weight:normal;font-size:16.47839928px;font-family:Helvetica;-inkscape-font-specification:Helvetica;writing-mode:lr-tb;fill:#000000;fill-opacity:1;fill-rule:nonzero;stroke:none;stroke-width:1.33333325"><tspan
     style="stroke-width:1.33333325"
     id="tspan150"
     y="462.67758"
     x="313.94327 319.43057 328.59256 340.48999 345.07095 356.96838 360.62659 369.78857 374.36957">row width</tspan></text>

<path
   d="m 244.18595,431.91825 v -34.87974 h 11.62534 v 34.87974 h -11.62534"
   style="fill:#000000;fill-opacity:1;fill-rule:evenodd;stroke:none;stroke-width:0.13333333"
   id="path154" /><path
   d="m 244.18595,431.91825 v -34.87974 h 11.62534 v 34.87974 z"
   style="fill:none;stroke:#000000;stroke-width:0.68659997;stroke-linecap:butt;stroke-linejoin:miter;stroke-miterlimit:10;stroke-dasharray:none;stroke-opacity:1"
   id="path156" /><path
   d="m 463.89662,431.91825 v -34.87974 h 23.34533 v 34.87974 h -23.34533"
   style="fill:#000000;fill-opacity:1;fill-rule:evenodd;stroke:none;stroke-width:0.13333333"
   id="path158" /><path
   d="M 59.352488,431.91825 V 391.27131 H 12.846742 v 40.64694 h 46.505746"
   style="fill:#000000;fill-opacity:1;fill-rule:evenodd;stroke:none;stroke-width:0.13333333"
   id="path160" /><path
   d="M 59.352488,431.91825 V 391.27131 H 12.846742 v 40.64694 z"
   style="fill:none;stroke:#000000;stroke-width:0.68659997;stroke-linecap:butt;stroke-linejoin:miter;stroke-miterlimit:10;stroke-dasharray:none;stroke-opacity:1"
   id="path162" /><path
   d="m 673.17261,431.91825 v -34.87974 h 11.62667 v 34.87974 h -11.62667"
   style="fill:#000000;fill-opacity:1;fill-rule:evenodd;stroke:none;stroke-width:0.13333333"
   id="path164" /><path
   d="m 673.17261,431.91825 v -34.87974 h 11.62667 v 34.87974 z"
   style="fill:none;stroke:#000000;stroke-width:0.68659997;stroke-linecap:butt;stroke-linejoin:miter;stroke-miterlimit:10;stroke-dasharray:none;stroke-opacity:1"
   id="path166" /><text
   y="83.491325"
   x="118.03368"
   id="text172"
   style="font-variant:normal;font-weight:normal;font-size:16.47839928px;font-family:Helvetica;-inkscape-font-specification:Helvetica;writing-mode:lr-tb;fill:#000000;fill-opacity:1;fill-rule:nonzero;stroke:none;stroke-width:1.33333325"><tspan
     style="stroke-width:1.33333325"
     id="tspan170"
     y="83.491325"
     x="118.03368 126.27287 135.43488 139.09308">cell</tspan></text>

<path
   d="M 36.008222,438.05158 V 119.46866"
   style="fill:none;stroke:#f9123f;stroke-width:1.37319994;stroke-linecap:butt;stroke-linejoin:miter;stroke-miterlimit:10;stroke-dasharray:8.23919979;stroke-dashoffset:0;stroke-opacity:1"
   id="path174" /><path
   d="M 250.04462,119.46866 V 438.05158"
   style="fill:none;stroke:#f9123f;stroke-width:1.37319994;stroke-linecap:butt;stroke-linejoin:miter;stroke-miterlimit:10;stroke-dasharray:8.23919979;stroke-dashoffset:0;stroke-opacity:1"
   id="path176" /><path
   d="M 476.16461,118.92066 V 484.00838"
   style="fill:none;stroke:#f9123f;stroke-width:1.37319994;stroke-linecap:butt;stroke-linejoin:miter;stroke-miterlimit:10;stroke-dasharray:8.23919979;stroke-dashoffset:0;stroke-opacity:1"
   id="path178" /><path
   d="M 679.03128,438.05158 V 119.46866"
   style="fill:none;stroke:#f9123f;stroke-width:1.37319994;stroke-linecap:butt;stroke-linejoin:miter;stroke-miterlimit:10;stroke-dasharray:8.23919979;stroke-dashoffset:0;stroke-opacity:1"
   id="path180" /><path
   d="M 36.648888,390.90518 H 679.58061"
   style="fill:none;stroke:#f9123f;stroke-width:1.37319994;stroke-linecap:butt;stroke-linejoin:miter;stroke-miterlimit:10;stroke-dasharray:8.23919979;stroke-dashoffset:0;stroke-opacity:1"
   id="path182" /><text
   y="473.66357"
   x="481.93262"
   id="text188"
   style="font-variant:normal;font-weight:normal;font-size:16.47839928px;font-family:Helvetica;-inkscape-font-specification:Helvetica;writing-mode:lr-tb;fill:#f9123f;fill-opacity:1;fill-rule:nonzero;stroke:none;stroke-width:1.33333325"><tspan
     style="stroke-width:1.33333325"
     id="tspan186"
     y="473.66357"
     x="481.93262 491.0946 496.58191 500.24011 509.4021 513.98309 517.6413 521.2995 530.46149">grid line</tspan></text>

<path
   d="m 24.289955,458.37505 0.09173,-11.2604 v 6.5916 h 11.443199 v -6.22494 11.07707"
   style="fill:none;stroke:#000000;stroke-width:1.37319994;stroke-linecap:butt;stroke-linejoin:miter;stroke-miterlimit:10;stroke-dasharray:none;stroke-opacity:1"
   id="path190" /><path
   d="m 678.75661,463.95945 v -20.23187 9.97867 h 29.38667 v -9.06294 19.31614"
   style="fill:none;stroke:#000000;stroke-width:1.37319994;stroke-linecap:butt;stroke-linejoin:miter;stroke-miterlimit:10;stroke-dasharray:none;stroke-opacity:1"
   id="path192" /></svg>