<svg xmlns="http://www.w3.org/2000/svg" height="262" width="158">
    <!-- this is essentially the Chrome 67 output for the example, very slightly tidied up, in SVG form -->
    <path d="M104 257h54v5h-54z" fill="yellow"/>
    <path d="M153 208h5v54h-5zM53 257h52v5H53z" fill="yellow"/>
    <path d="M104 208h1v49h-1z" fill="red"/>
    <path d="M0 257h56v5H0z" fill="yellow"/>
    <path d="M0 208h5v54H0z" fill="yellow"/>
    <path d="M53 208h3v49h-3z"/>
    <path d="M104 208h49v1h-49z" fill="red"/>
    <path d="M153 159h5v50h-5z" fill="yellow"/>
    <path d="M56 208h49v1H56z" fill="red"/>
    <path d="M104 159h1v50h-1zM5 208h48v1H5z" fill="red"/>
    <path d="M0 159h5v50H0z" fill="yellow"/>
    <path d="M53 159h3v50h-3z"/>
    <path d="M104 159h49v1h-49z" fill="red"/>
    <path d="M153 111h5v49h-5z" fill="yellow"/>
    <path d="M56 159h49v1H56z" fill="red"/>
    <path d="M104 111h1v49h-1zM5 159h48v1H5z" fill="red"/>
    <path d="M0 108h5v52H0z" fill="yellow"/>
    <path d="M53 111h3v49h-3z"/>
    <path d="M102 106h56v5h-56z" fill="green"/>
    <path d="M153 53h5v58h-5z" fill="green"/>
    <path d="M52 106h10v5H52m13-5h10v5H65m14-5h10v5H79m13-5h10v5H92" fill="blue"/>
    <path d="M102 53h5v58h-5z" fill="green"/>
    <path d="M5 108h47v1H5z" fill="red"/>
    <path d="M0 55h5v54H0z" fill="yellow"/>
    <path d="M57 53v10h-5V53m5 16v10h-5V69m5 16v10h-5V85m5 16v10h-5v-10" fill="blue"/>
    <path d="M104 0h54v5h-54z" fill="yellow"/>
    <path d="M102 53h56v5h-56z" fill="green"/>
    <path d="M153 0h5v53h-5zM53 0h52v5H53z" fill="yellow"/>
    <path d="M52 53h10v5H52m13-5h10v5H65m14-5h10v5H79m13-5h10v5H92" fill="blue"/>
    <path d="M104 5h1v48h-1z" fill="red"/>
    <path d="M0 0h56v5H0z" fill="yellow"/>
    <path d="M5 55h47v1H5z" fill="red"/>
    <path d="M0 0h5v56H0z" fill="yellow"/>
    <path d="M53 5h3v48h-3z"/>
    <g font-family="Times" font-size="16" font-weight="400">
        <text x="25" y="35">1</text>
        <text x="76" y="34">2</text>
        <text x="125" y="34">3</text>
        <text x="24" y="87">4</text>
        <text x="75" y="87">5</text>
        <text x="126" y="87">6</text>
        <text x="25" y="139">7</text>
        <text x="76" y="140">8</text>
        <text x="125" y="140">9</text>
        <text x="21" y="189">10</text>
        <text x="72" y="189">11</text>
        <text x="121" y="189">12</text>
        <text x="21" y="238">13</text>
        <text x="72" y="238">14</text>
        <text x="121" y="238">15</text>
    </g>
</svg>
