<svg xmlns="http://www.w3.org/2000/svg" height="76" width="112">
    <!-- this is essentially the Chrome 67 output for the example, very slightly tidied up, in SVG form -->
    <path d="M0 0h112v76H0z" fill="#ff0"/>
    <path d="M1.5 1.5h109v73H1.5z" fill="none" stroke="#000" stroke-width="3"/>
    <path d="M5 5h24v32H5zm26 0h24v66H31zm26 0h24v32H57zm26 0h24v32H83z" fill="red"/>
    <path d="M6.5 6.5h21v29h-21zm26 0h21v63h-21zm26 0h21v29h-21zm26 0h21v29h-21zm-78 34h21v29h-21z" fill="none" stroke="#000" stroke-width="3"/>
    <g font-family="Times" font-size="16" font-weight="400">
        <text x="13" y="26">1</text>
        <text x="39" y="43">2</text>
        <text x="65" y="26">3</text>
        <text x="91" y="26">4</text>
        <text x="13" y="60">5</text>
    </g>
</svg>
