<?xml version="1.0" encoding="UTF-8" standalone="no"?>
<svg
   xmlns:dc="http://purl.org/dc/elements/1.1/"
   xmlns:cc="http://creativecommons.org/ns#"
   xmlns:rdf="http://www.w3.org/1999/02/22-rdf-syntax-ns#"
   xmlns:svg="http://www.w3.org/2000/svg"
   xmlns="http://www.w3.org/2000/svg"
   version="1.1"
   id="svg2"
   xml:space="preserve"
   width="441"
   height="298"
   preserveAspectRatio="xMidYMid slice"
   viewBox="0 0 564 381.33334"><metadata
   id="metadata8"><rdf:RDF><cc:Work
       rdf:about=""><dc:format>image/svg+xml</dc:format><dc:type
         rdf:resource="http://purl.org/dc/dcmitype/StillImage" /></cc:Work></rdf:RDF></metadata><defs
   id="defs6">


</defs><path
   d="m 398.92399,334.36093 52.224,-315.894258 v 0 L 83.029198,31.204005 125.0636,322.89693"
   style="fill:#808080;fill-opacity:1;fill-rule:evenodd;stroke:none;stroke-width:0.13333333"
   id="path14" /><path
   d="m 390.66666,64.000005 v 0 0 L 379.99999,74.666671 H 166.66666 V 282.66667 L 156,293.33333 V 64.000005"
   style="fill:#ffffff;fill-opacity:1;fill-rule:evenodd;stroke:none;stroke-width:0.13333333"
   id="path16" /><path
   d="m 166.66666,282.66667 v 0 H 379.99999 V 74.666671 L 390.66666,64.000005 V 293.33333 H 156"
   style="fill:#000000;fill-opacity:1;fill-rule:evenodd;stroke:none;stroke-width:0.13333333"
   id="path18" /><path
   d="m 241.33333,90.666671 v 0 L 230.66666,101.33334 H 193.33333 V 160 l -10.66667,10.66667 V 90.666671"
   style="fill:#000000;fill-opacity:1;fill-rule:evenodd;stroke:none;stroke-width:0.13333333"
   id="path20" /><path
   d="m 363.99999,90.666671 v 0 l -5.33333,5.333333 h -42.66667 v 69.333336 l -5.33333,5.33333 V 90.666671"
   style="fill:#000000;fill-opacity:1;fill-rule:evenodd;stroke:none;stroke-width:0.13333333"
   id="path22" /><path
   d="m 294.66666,90.666671 v 0 l -5.33333,5.333333 h -26.66667 v 69.333336 l -5.33333,5.33333 V 90.666671"
   style="fill:#000000;fill-opacity:1;fill-rule:evenodd;stroke:none;stroke-width:0.13333333"
   id="path24" /><path
   d="m 241.33333,186.66667 v 0 L 235.99999,192 H 188 v 69.33333 l -5.33334,5.33334 v -80"
   style="fill:#000000;fill-opacity:1;fill-rule:evenodd;stroke:none;stroke-width:0.13333333"
   id="path26" /><path
   d="m 363.99999,186.66667 v 0 L 358.66666,192 h -42.66667 v 69.33333 l -5.33333,5.33334 v -80"
   style="fill:#000000;fill-opacity:1;fill-rule:evenodd;stroke:none;stroke-width:0.13333333"
   id="path28" /><path
   d="m 294.66666,186.66667 v 0 L 289.33333,192 h -26.66667 v 69.33333 l -5.33333,5.33334 v -80"
   style="fill:#000000;fill-opacity:1;fill-rule:evenodd;stroke:none;stroke-width:0.13333333"
   id="path30" /><path
   d="m 193.33333,160 v 0 h 37.33333 v -58.66666 l 10.66667,-10.666669 v 79.999999 h -58.66667"
   style="fill:#ffffff;fill-opacity:1;fill-rule:evenodd;stroke:none;stroke-width:0.13333333"
   id="path32" /><path
   d="m 315.99999,165.33334 v 0 h 42.66667 V 96.000004 l 5.33333,-5.333333 v 79.999999 h -53.33333"
   style="fill:#ffffff;fill-opacity:1;fill-rule:evenodd;stroke:none;stroke-width:0.13333333"
   id="path34" /><path
   d="m 262.66666,165.33334 v 0 h 26.66667 V 96.000004 l 5.33333,-5.333333 v 79.999999 h -37.33333"
   style="fill:#ffffff;fill-opacity:1;fill-rule:evenodd;stroke:none;stroke-width:0.13333333"
   id="path36" /><path
   d="m 188,261.33333 v 0 h 47.99999 V 192 l 5.33334,-5.33333 v 80 h -58.66667"
   style="fill:#ffffff;fill-opacity:1;fill-rule:evenodd;stroke:none;stroke-width:0.13333333"
   id="path38" /><path
   d="m 315.99999,261.33333 v 0 h 42.66667 V 192 l 5.33333,-5.33333 v 80 h -53.33333"
   style="fill:#ffffff;fill-opacity:1;fill-rule:evenodd;stroke:none;stroke-width:0.13333333"
   id="path40" /><path
   d="m 262.66666,261.33333 v 0 h 26.66667 V 192 l 5.33333,-5.33333 v 80 h -37.33333"
   style="fill:#ffffff;fill-opacity:1;fill-rule:evenodd;stroke:none;stroke-width:0.13333333"
   id="path42" /><path
   d="m 188,261.33333 v 64"
   style="fill:none;stroke:#000000;stroke-width:1.0666666;stroke-linecap:butt;stroke-linejoin:miter;stroke-miterlimit:10;stroke-dasharray:none;stroke-opacity:1"
   id="path44" /><path
   d="m 235.99999,261.33333 v 64"
   style="fill:none;stroke:#000000;stroke-width:1.0666666;stroke-linecap:butt;stroke-linejoin:miter;stroke-miterlimit:10;stroke-dasharray:none;stroke-opacity:1"
   id="path46" /><path
   d="m 188,320 h 47.99999"
   style="fill:none;stroke:#000000;stroke-width:1.0666666;stroke-linecap:butt;stroke-linejoin:miter;stroke-miterlimit:10;stroke-dasharray:none;stroke-opacity:1"
   id="path48" /><path
   d="m 294.66666,266.66667 v 58.66666"
   style="fill:none;stroke:#000000;stroke-width:1.0666666;stroke-linecap:butt;stroke-linejoin:miter;stroke-miterlimit:10;stroke-dasharray:none;stroke-opacity:1"
   id="path50" /><path
   d="m 310.66666,266.66667 v 58.66666"
   style="fill:none;stroke:#000000;stroke-width:1.0666666;stroke-linecap:butt;stroke-linejoin:miter;stroke-miterlimit:10;stroke-dasharray:none;stroke-opacity:1"
   id="path52" /><path
   d="m 294.66666,320 h 16"
   style="fill:none;stroke:#000000;stroke-width:1.0666666;stroke-linecap:butt;stroke-linejoin:miter;stroke-miterlimit:10;stroke-dasharray:none;stroke-opacity:1"
   id="path54" /><path
   d="M 166.66666,74.666671 V 32.000005"
   style="fill:none;stroke:#000000;stroke-width:1.0666666;stroke-linecap:butt;stroke-linejoin:miter;stroke-miterlimit:10;stroke-dasharray:none;stroke-opacity:1"
   id="path56" /><path
   d="M 379.99999,74.666671 V 32.000005"
   style="fill:none;stroke:#000000;stroke-width:1.0666666;stroke-linecap:butt;stroke-linejoin:miter;stroke-miterlimit:10;stroke-dasharray:none;stroke-opacity:1"
   id="path58" /><path
   d="M 166.66666,37.333339 H 379.99999"
   style="fill:none;stroke:#000000;stroke-width:1.0666666;stroke-linecap:butt;stroke-linejoin:miter;stroke-miterlimit:10;stroke-dasharray:none;stroke-opacity:1"
   id="path60" /><text
   y="12.664006"
   x="233.29733"
   id="text66"
   style="font-variant:normal;font-weight:normal;font-size:14.93333244px;font-family:Helvetica;-inkscape-font-specification:Helvetica;writing-mode:lr-tb;fill:#000000;fill-opacity:1;fill-rule:nonzero;stroke:none;stroke-width:1.33333325"><tspan
     style="stroke-width:1.33333325"
     id="tspan64"
     y="12.664006"
     x="233.29733 237.44879 245.75172 254.05466 257.36987 265.67279 269.82425 280.60614 283.92133 292.22427 296.37573">table width</tspan></text>

<path
   d="m 363.99999,170.66667 h 90.66667"
   style="fill:none;stroke:#000000;stroke-width:1.0666666;stroke-linecap:butt;stroke-linejoin:miter;stroke-miterlimit:10;stroke-dasharray:none;stroke-opacity:1"
   id="path68" /><path
   d="m 363.99999,186.66667 h 90.66667"
   style="fill:none;stroke:#000000;stroke-width:1.0666666;stroke-linecap:butt;stroke-linejoin:miter;stroke-miterlimit:10;stroke-dasharray:none;stroke-opacity:1"
   id="path70" /><path
   d="m 449.33332,170.66667 v 16"
   style="fill:none;stroke:#000000;stroke-width:1.0666666;stroke-linecap:butt;stroke-linejoin:miter;stroke-miterlimit:10;stroke-dasharray:none;stroke-opacity:1"
   id="path72" /><text
   y="173.22267"
   x="460"
   id="text94"
   style="font-variant:normal;font-weight:normal;font-size:14.93333244px;font-family:Helvetica;-inkscape-font-specification:Helvetica;writing-mode:lr-tb;fill:#000000;fill-opacity:1;fill-rule:nonzero;stroke:none;stroke-width:1.33333325"><tspan
     style="stroke-width:1.33333325"
     id="tspan76"
     y="173.22267"
     x="460 467.46664 475.76959 480.7424 484.89386 488.20905 495.67572 503.97867">vertical</tspan><tspan
     style="stroke-width:1.33333325"
     id="tspan78"
     y="189.22267"
     x="460 468.30292 476.60587 481.57864 489.88159 498.18451 503.15732 511.87839 519.34503 527.64801 535.95093 543.4176 546.73279 555.03571">border−spacing</tspan><tspan
     style="stroke-width:1.33333325"
     id="tspan80"
     y="374.40265"
     x="277.63068 285.93359 294.23651 299.20932 307.51227 315.81519 320.78799 329.50906 336.97571 345.27866 353.5816 361.04825 364.36346 372.66638">border−spacing</tspan><tspan
     style="stroke-width:1.33333325"
     id="tspan82"
     y="358.40265"
     x="277.63068 285.93359 294.23651 299.20932 302.52454 309.99118 318.29413 326.59705 330.74854 339.05145">horizontal</tspan><tspan
     style="stroke-width:1.33333325"
     id="tspan84"
     y="100.784"
     x="2.5240085 6.675457 14.978395 23.281332 26.596518 34.899456 39.050945 47.353882 55.656818 60.629597 68.932533 77.235474">table border</tspan><tspan
     style="stroke-width:1.33333325"
     id="tspan86"
     y="116.25067"
     x="3.0573337 8.0301523 16.33305 24.635986 28.787476 36.25415 44.557049 48.708538">(outset)</tspan><tspan
     style="stroke-width:1.33333325"
     id="tspan88"
     y="358.40399"
     x="183.43733 190.90399 199.20692 202.52213 205.83734 209.98878 220.77066 224.08588 232.38879 236.54025">cell width</tspan><tspan
     style="stroke-width:1.33333325"
     id="tspan90"
     y="200.44934"
     x="28.154663 35.621338 43.924274 47.23946 50.554646 54.706135 63.009075 71.312012 76.28479 84.58773 92.890663">cell border</tspan><tspan
     style="stroke-width:1.33333325"
     id="tspan92"
     y="215.916"
     x="28.687988 33.660809 36.975994 45.278931 52.745605 61.048542 65.199989">(inset)</tspan></text>

<path
   d="M 158.18133,94.258671 72.838532,112.09067"
   style="fill:none;stroke:#000000;stroke-width:1.0666666;stroke-linecap:butt;stroke-linejoin:miter;stroke-miterlimit:10;stroke-dasharray:none;stroke-opacity:1"
   id="path96" /><path
   d="m 148.73066,93.356004 11.60267,0.452 -10.45067,5.061333"
   style="fill:#000000;fill-opacity:1;fill-rule:evenodd;stroke:none;stroke-width:0.13333333"
   id="path98" /><path
   d="m 149.392,93.916004 8.78933,0.342667 -7.91733,3.833333"
   style="fill:none;stroke:#000000;stroke-width:1.0666666;stroke-linecap:butt;stroke-linejoin:miter;stroke-miterlimit:10;stroke-dasharray:none;stroke-opacity:1"
   id="path100" /><path
   d="M 187.47866,138.84 86.850531,179.60134"
   style="fill:none;stroke:#000000;stroke-width:1.0666666;stroke-linecap:butt;stroke-linejoin:miter;stroke-miterlimit:10;stroke-dasharray:none;stroke-opacity:1"
   id="path102" /><path
   d="m 178.01733,139.63334 11.49867,-1.61867 -9.384,6.84"
   style="fill:#000000;fill-opacity:1;fill-rule:evenodd;stroke:none;stroke-width:0.13333333"
   id="path104" /><path
   d="m 178.768,140.06667 8.71066,-1.22667 -7.10933,5.18134"
   style="fill:none;stroke:#000000;stroke-width:1.0666666;stroke-linecap:butt;stroke-linejoin:miter;stroke-miterlimit:10;stroke-dasharray:none;stroke-opacity:1"
   id="path106" /><path
   d="m 363.99999,74.666671 h 90.66667"
   style="fill:none;stroke:#000000;stroke-width:1.0666666;stroke-linecap:butt;stroke-linejoin:miter;stroke-miterlimit:10;stroke-dasharray:none;stroke-opacity:1"
   id="path108" /><path
   d="m 363.99999,90.666671 h 90.66667"
   style="fill:none;stroke:#000000;stroke-width:1.0666666;stroke-linecap:butt;stroke-linejoin:miter;stroke-miterlimit:10;stroke-dasharray:none;stroke-opacity:1"
   id="path110" /><path
   d="m 449.33332,74.666671 v 16"
   style="fill:none;stroke:#000000;stroke-width:1.0666666;stroke-linecap:butt;stroke-linejoin:miter;stroke-miterlimit:10;stroke-dasharray:none;stroke-opacity:1"
   id="path112" /><text
   y="70.20134"
   x="460"
   id="text122"
   style="font-variant:normal;font-weight:normal;font-size:14.93333244px;font-family:Helvetica;-inkscape-font-specification:Helvetica;writing-mode:lr-tb;fill:#000000;fill-opacity:1;fill-rule:nonzero;stroke:none;stroke-width:1.33333325"><tspan
     style="stroke-width:1.33333325"
     id="tspan116"
     y="70.20134"
     x="460 467.46664 475.76959 480.7424 484.89386 488.20905 495.67572 503.97867">vertical</tspan><tspan
     style="stroke-width:1.33333325"
     id="tspan118"
     y="85.134674"
     x="460 468.30292 476.60587 481.57864 489.88159 498.18451 503.15732 511.87839 519.34503 527.64801 535.95093 543.4176 546.73279 555.03571">border−spacing</tspan><tspan
     style="stroke-width:1.33333325"
     id="tspan120"
     y="100.068"
     x="460 468.30292 476.60587 484.90878 489.06024 497.36319 505.66611 513.96906 522.27197 525.58716 533.89014">and padding</tspan></text>

</svg>