<?xml version="1.0" encoding="UTF-8" standalone="no"?>
<svg
   xmlns:dc="http://purl.org/dc/elements/1.1/"
   xmlns:cc="http://creativecommons.org/ns#"
   xmlns:rdf="http://www.w3.org/1999/02/22-rdf-syntax-ns#"
   xmlns:svg="http://www.w3.org/2000/svg"
   xmlns="http://www.w3.org/2000/svg"
   version="1.1"
   id="svg2"
   xml:space="preserve"
   width="96"
   height="74"
   preserveAspectRatio="xMidYMid slice"
   viewBox="0 0 93.333336 98.666664"><metadata
   id="metadata8"><rdf:RDF><cc:Work
       rdf:about=""><dc:format>image/svg+xml</dc:format><dc:type
         rdf:resource="http://purl.org/dc/dcmitype/StillImage" /></cc:Work></rdf:RDF></metadata><defs
   id="defs6">
</defs><path
   d="M 4.2666666,94.133334 H 89.599998 V 30.133335 H 4.2666666 Z"
   style="fill:#ffff00;fill-opacity:1;fill-rule:evenodd;stroke:none;stroke-width:0.13333333"
   id="path14" /><path
   d="m 68.266665,62.133335 h 21.333333 v -32 H 68.266665 Z"
   style="fill:#f91340;fill-opacity:1;fill-rule:evenodd;stroke:none;stroke-width:0.13333333"
   id="path16" /><path
   d="m 68.266665,62.133335 h 21.333333 v -32 H 68.266665 Z"
   style="fill:none;stroke:#f91340;stroke-width:1.0666666;stroke-linecap:butt;stroke-linejoin:miter;stroke-miterlimit:10;stroke-dasharray:none;stroke-opacity:1"
   id="path18" /><path
   d="m 46.933332,62.133335 h 21.333333 v -32 H 46.933332 Z"
   style="fill:#f91340;fill-opacity:1;fill-rule:evenodd;stroke:none;stroke-width:0.13333333"
   id="path20" /><path
   d="m 46.933332,62.133335 h 21.333333 v -32 H 46.933332 Z"
   style="fill:none;stroke:#f91340;stroke-width:1.0666666;stroke-linecap:butt;stroke-linejoin:miter;stroke-miterlimit:10;stroke-dasharray:none;stroke-opacity:1"
   id="path22" /><path
   d="M 4.2666666,62.133335 H 25.599999 v -32 H 4.2666666 Z"
   style="fill:#f91340;fill-opacity:1;fill-rule:evenodd;stroke:none;stroke-width:0.13333333"
   id="path24" /><path
   d="M 4.2666666,62.133335 H 25.599999 v -32 H 4.2666666 Z"
   style="fill:none;stroke:#f91340;stroke-width:1.0666666;stroke-linecap:butt;stroke-linejoin:miter;stroke-miterlimit:10;stroke-dasharray:none;stroke-opacity:1"
   id="path26" /><path
   d="M 25.599999,93.066667 H 46.933332 V 30.133335 H 25.599999 Z"
   style="fill:#f91340;fill-opacity:1;fill-rule:evenodd;stroke:none;stroke-width:0.13333333"
   id="path28" /><path
   d="M 25.599999,93.066667 H 46.933332 V 30.133335 H 25.599999 Z"
   style="fill:none;stroke:#f91340;stroke-width:1.0666666;stroke-linecap:butt;stroke-linejoin:miter;stroke-miterlimit:10;stroke-dasharray:none;stroke-opacity:1"
   id="path30" /><path
   d="M 26.928133,28.805202 H 48.261465 V 60.805201 28.805202 H 69.594798 V 60.805201 28.805202 H 90.928131 V 60.805201 H 48.261465 V 92.805214 H 26.928133 V 28.805202 H 5.5947865 V 60.805201 H 26.928133 Z"
   style="fill:none;stroke:#000000;stroke-width:2.13333321;stroke-linecap:butt;stroke-linejoin:miter;stroke-miterlimit:10;stroke-dasharray:none;stroke-opacity:1"
   id="path32" /><path
   d="M 26.928133,31.461469 H 48.261465 V 63.461468 31.461469 H 69.594798 V 63.461468 31.461469 H 90.928131 V 63.461468 H 48.261465 V 95.461454 H 26.928133 V 31.461469 H 5.5947865 V 63.461468 H 26.928133 Z"
   style="fill:none;stroke:#000000;stroke-width:2.13333321;stroke-linecap:butt;stroke-linejoin:miter;stroke-miterlimit:10;stroke-dasharray:none;stroke-opacity:1"
   id="path34" /><path
   d="M 24.271866,31.461469 H 45.605199 V 63.461468 31.461469 H 66.938532 V 63.461468 31.461469 H 88.271864 V 63.461468 H 45.605199 V 95.461454 H 24.271866 V 31.461469 H 2.9385466 V 63.461468 H 24.271866 Z"
   style="fill:none;stroke:#000000;stroke-width:2.13333321;stroke-linecap:butt;stroke-linejoin:miter;stroke-miterlimit:10;stroke-dasharray:none;stroke-opacity:1"
   id="path36" /><path
   d="M 24.271866,28.805202 H 45.605199 V 60.805201 28.805202 H 66.938532 V 60.805201 28.805202 H 88.271864 V 60.805201 H 45.605199 V 92.805214 H 24.271866 V 28.805202 H 2.9385466 V 60.805201 H 24.271866 Z"
   style="fill:none;stroke:#000000;stroke-width:2.13333321;stroke-linecap:butt;stroke-linejoin:miter;stroke-miterlimit:10;stroke-dasharray:none;stroke-opacity:1"
   id="path38" /><text
   y="10.256269"
   x="10.94844"
   id="text44"
   style="font-style:oblique;font-variant:normal;font-weight:bold;font-size:12.80000019px;font-family:Helvetica;-inkscape-font-specification:Helvetica-BoldOblique;writing-mode:lr-tb;fill:#000000;fill-opacity:1;fill-rule:nonzero;stroke:none;stroke-width:1.33333325"><tspan
     style="stroke-width:1.33333325"
     id="tspan42"
     y="10.256269"
     x="10.94844 32.281815 53.615192 74.948563">1234</tspan></text>

<path
   d="m 25.599999,30.133335 h 21.333333 v 32 -32 h 21.333333 v 32 -32 h 21.333333 v 32 H 46.933332 V 94.133334 H 25.599999 V 30.133335 H 4.2666666 v 32 H 25.599999 Z"
   style="fill:none;stroke:#ffff00;stroke-width:2.13333321;stroke-linecap:butt;stroke-linejoin:miter;stroke-miterlimit:10;stroke-dasharray:none;stroke-opacity:1"
   id="path46" /><path
   d="M 15.074,44.485468 V 16.462536"
   style="fill:none;stroke:#000000;stroke-width:1;stroke-linecap:butt;stroke-linejoin:miter;stroke-miterlimit:10;stroke-dasharray:none;stroke-opacity:1"
   id="path48" /><path
   d="M 56.725465,44.485468 V 16.462536"
   style="fill:none;stroke:#000000;stroke-width:1;stroke-linecap:butt;stroke-linejoin:miter;stroke-miterlimit:10;stroke-dasharray:none;stroke-opacity:1"
   id="path50" /><path
   d="M 38.509866,44.485468 V 16.462536"
   style="fill:none;stroke:#000000;stroke-width:1;stroke-linecap:butt;stroke-linejoin:miter;stroke-miterlimit:10;stroke-dasharray:none;stroke-opacity:1"
   id="path52" /><path
   d="M 77.996931,44.485468 V 16.462536"
   style="fill:none;stroke:#000000;stroke-width:1;stroke-linecap:butt;stroke-linejoin:miter;stroke-miterlimit:10;stroke-dasharray:none;stroke-opacity:1"
   id="path54" /></svg>