<svg xmlns='http://www.w3.org/2000/svg' width="420" height="270">
	<style>
		:root { transform: translate(.5px, .5px); font-size: 18px; }
		text,tspan { font-family: sans-serif; fill: currentColor; }
		.vertical > tspan { text-anchor: start; }
		.direction { color: red; font-weight: bold; }

		.area-label > text { color: #444; font-size: 15px}
		.area-label > line { stroke: #444; stroke-width: 2px; }
	</style>
	<defs>
		<radialGradient id="fuzzy-bg">
			<stop offset="70%" stop-color="#f3f3f3" />
			<stop offset="100%" stop-color="#f3f3f3" stop-opacity="0" />
		</radialGradient>
	</defs>
	<rect fill="white" x="0" y="0" width="100%" height="100%" />
	<g transform="translate(60,60)">
		<rect stroke="#ccc" stroke-width="2" fill="transparent" stroke-dasharray="8" x="-30" y="-30" width="360" height="210" />
		<rect stroke="black" stroke-width="7" fill="#f3f3f3" width="300" height="150" />
		<g transform="translate(30,30)">
			<rect stroke="#aaa" stroke-width="2" fill="transparent" stroke-dasharray="2 3" width="240" height="90" />
			<g transform="translate(10,10) scale(.7)">
				<path d="M 0,6
						c 3,3  6,6  9,6
						c 3,0  6,-3 9,-6
						c 3,-3 6,-6 9,-6
						c 3,0  6,3  9,6
						c 3,3  6,6  9,6
						c 3,0  6,-3 9,-6
						c 3,-3 6,-6 9,-6
						c 3,0  6,3  9,6
						c 3,3  6,6  9,6
						c 3,0  6,-3 9,-6
						c 3,-3 6,-6 2,-6
						c 3,0  6,3  9,6
						c 3,3  6,6  7,6
						c 3,0  6,-3 9,-6
						c 3,-3 6,-6 9,-6
						c 3,0  6,3  9,6
						c 3,3  6,6  15,6
						c 3,0  6,-3 9,-6
						c 3,-3 6,-6 9,-6
						c 3,0  6,3  9,6
						c 3,3  6,6  9,6
						c 3,0  6,-3 5,-6
						c 3,-3 6,-6 9,-6
						c 3,0  6,3  9,6
						c 3,3  6,6  9,6
						c 3,0  6,-3 15,-6
						c 3,-3 6,-6 9,-6
						c 3,0  6,3  9,6
						c 3,3  6,6  9,6
						c 3,0  6,-3 9,-6
						c 3,-3 6,-6 9,-6
						c 3,0  6,3  9,6
						" fill="none" stroke="#ccc" stroke-width="2" vector-effect="non-scaling-stroke" />
				<path d="M 0,35
						c 3,0  6,-3 8,-6
						c 3,-3 6,-6 9,-6
						c 3,0  6,3  3,6
						c 3,3  6,6  3,6
						c 3,0  6,-3 9,-6
						c 3,-3 6,-6 8,-6
						c 3,0  6,3  9,6
						c 3,3  6,6  9,6
						c 3,0  6,-3 8,-6
						c 3,-3 6,-6 12,-6
						c 3,0  6,3  12,6
						c 3,3  6,6  9,6
						c 3,0  6,-3 9,-6
						c 3,-3 6,-6 9,-6
						c 3,0  6,3  9,6
						c 3,3  6,6  9,6
						c 3,0  6,-3 9,-6
						c 3,-3 6,-6 9,-6
						c 3,0  6,3  9,6
						" fill="none" stroke="#ccc" stroke-width="2" vector-effect="non-scaling-stroke" />
			</g>
		</g>
		<g transform="translate(35,173)">
			<g transform="translate(0,-62)" class="area-label">
				<text x="5">content area</text>
			</g>
			<g transform="translate(0,-34)" class="area-label">
				<text x="5">padding area</text>
			</g>
			<g transform="translate(0,-2)" class="area-label">
				<text x="5">margin area</text>
			</g>
		</g>
		<g class="direction">
			<g>
				<rect x="215" y="15" width="70" height="50" fill="url(#fuzzy-bg)" />

				<path d="M -25 15 h 350 m 1 1" stroke="red" stroke-width="3" />
				<path d='M 320 15 v -5 l 10 5 l -10 5 v -5' fill="currentcolor" />
				<path d='M -20 15 v -5 l -10 5 l 10 5 v -5' fill="currentcolor" />

				<path d="M 285 -25 v 200" stroke-width="3" stroke="red" />
				<path d='M 285 -20 h -5 l 5 -10 l 5 10 h -5' fill="currentcolor" />
				<path d='M 285 170 h -5 l 5 10 l 5 -10 h -5' fill="currentcolor" />

				<text text-anchor="end" x="280" y="33">outer</text>
				<text text-anchor="end" x="280" y="51">size</text>
			</g>
		</g>
	</g>
</svg>
