<svg xmlns="http://www.w3.org/2000/svg" viewBox="0 0 955 419" xmlns:xlink="http://www.w3.org/1999/xlink">
  <defs>
    <path id="a" d="M0 0h460v305H0z"/>
    <mask id="b" width="470" height="315" x="-5" y="-5">
      <path fill="#fff" d="M-5-5h470v315H-5z"/>
      <use xlink:href="#a"/>
    </mask>
  </defs>
  <g fill="none" fill-rule="evenodd">
    <g transform="translate(433 45)">
      <use fill="#D8D8D8" xlink:href="#a"/>
      <use stroke="#595959" stroke-width="10" mask="url(#b)" xlink:href="#a"/>
    </g>
    <path stroke="#595959" stroke-width="5" d="M740.5 45v305M433 197.5h460M585.5 45v305" stroke-linecap="square"/>
    <text fill="#000" font-size="14" transform="translate(0 -3)">
      <tspan x="491.208" y="14">auto</tspan>
    </text>
    <path stroke="#979797" stroke-width="2" d="M435 23h145m-134.2 3L435 23l10.8-3m123.4 6l10.8-3-10.8-3" stroke-linecap="square"/>
    <text fill="#000" font-size="14" transform="translate(0 -3)">
      <tspan x="802.208" y="14">auto</tspan>
    </text>
    <path stroke="#979797" stroke-width="2" d="M746 23h145m-134.2 3L746 23l10.8-3m123.4 6l10.8-3-10.8-3" stroke-linecap="square"/>
    <text fill="#000" font-size="14" transform="translate(0 -3)">
      <tspan x="653.074" y="14">1fr </tspan>
    </text>
    <path stroke="#979797" stroke-width="2" d="M591 23h145m-134.2 3L591 23l10.8-3m123.4 6l10.8-3-10.8-3" stroke-linecap="square"/>
    <path stroke="#979797" stroke-width="3" d="M430.5 5v35m155-35v35m155-35v35m155-35v35"/>
    <text fill="#000" font-size="36" transform="translate(0 -3)">
      <tspan x="495" y="287">b</tspan>
    </text>
    <text fill="#000" font-size="18" transform="translate(20 30)">
      <tspan x="208.06" y="18">header-top / a-start </tspan>
    </text>
    <text fill="#000" font-size="18" transform="translate(20 30)">
      <tspan x=".934" y="173">header-bottom / a-end / main-top / b-start</tspan>
    </text>
    <text fill="#000" font-size="18" transform="translate(20 30)">
      <tspan x="194.686" y="328">main-bottom / b-end</tspan>
    </text>
    <path stroke="#F99442" stroke-width="3" d="M393 42.5h35m-35 155h35m-35 155h35"/>
    <text fill="#000" font-size="14" transform="translate(0 -3)">
      <tspan x="382.074" y="281">1fr </tspan>
    </text>
    <text fill="#000" font-size="14" transform="translate(0 -3)">
      <tspan x="372.208" y="132">auto</tspan>
    </text>
    <path stroke="#F99442" stroke-width="3" d="M430.5 355v35m465-35v35"/>
    <text fill="#000" font-size="18" transform="translate(0 -3)">
      <tspan x="361.065" y="419">a-start / b-start</tspan>
    </text>
    <text fill="#000" font-size="18" transform="translate(0 -3)">
      <tspan x="833.399" y="419">a-end / b-end</tspan>
    </text>
    <text fill="#000" font-size="36" transform="translate(0 -3)">
      <tspan x="497" y="132">a</tspan>
    </text>
    <text fill="#000" font-size="36" transform="translate(0 -3)">
      <tspan x="653" y="132">a</tspan>
    </text>
    <text fill="#000" font-size="36" transform="translate(0 -3)">
      <tspan x="810" y="132">a</tspan>
    </text>
    <text fill="#000" font-size="36" transform="translate(0 -3)">
      <tspan x="652" y="287">b</tspan>
    </text>
    <text fill="#000" font-size="36" transform="translate(0 -3)">
      <tspan x="810" y="287">b</tspan>
    </text>
    <path stroke="#979797" stroke-width="2" d="M413 47.5v145m-3-134.2l3-10.8 3 10.8m-6 123.4l3 10.8 3-10.8m-3 20.3v145m-3-134.2l3-10.8 3 10.8m-6 123.4l3 10.8 3-10.8" stroke-linecap="square"/>
  </g>
</svg>
