<svg width="800" height="300" xmlns="http://www.w3.org/2000/svg">
    <style type="text/css">
        .background {
            fill-opacity: 1;
            rx: 0px;
            ry: 0px;
            fill: #FFF;
        }

        line {
            stroke: #333333;
            stroke-width: 2;
            stroke-dasharray: 8 5;
        }

        .implicit {
            stroke: red;
        }

        text {
            font-size: 20px;
            font-family: monospace;
            text-anchor: middle;
        }

        rect {
            fill-opacity: 0.8;
            rx: 10px;
            ry: 10px;
            stroke-width: 2;
        }

        .item-1 {
            fill: hsl(220, 80%, 90%);
            stroke: hsl(220, 80%, 65%);
        }

        .bold {
            font-weight: bold;
        }

        .small {
            font-size: 15px;
        }

        .big {
            font-size: 30px;
        }

        .linename {
            font-size: 19px;
        }

        .end {
            text-anchor: end;
        }

        .implicit-text {
            fill: red;
        }
    </style>

    <rect class="background" x="0" y="0" width="800" height="600" />

    <g>
        <g transform="translate(0, 50)">
            <text class="bold end" x="230" y="0">Line numbers:</text>
            <text class="bold end" x="230" y="30">Negative numbers:</text>
            <text class="bold end" x="230" y="60">Line names:</text>
        </g>

        <g transform="translate(400, 50)">
            <text class="end" x="5" y="0">1</text>
            <text class="end" x="105" y="0">2</text>
            <text class="implicit-text" x="200" y="0">3</text>
            <text class="implicit-text" x="300" y="0">4</text>
        </g>

        <g transform="translate(300, 80)">
            <text class="implicit-text" x="0" y="0">-3</text>
            <text class="end" x="105" y="0">-2</text>
            <text class="end" x="205" y="0">-1</text>
        </g>

        <g transform="translate(300, 110)">
            <text class="implicit-text" x="0" y="0">[foo]</text>
        </g>

        <g transform="translate(300, 130)">
            <line class="dashed implicit" x1="0" y1="0" x2="0" y2="100" />
            <line class="dashed" x1="100" y1="0" x2="100" y2="100" />
            <line class="dashed" x1="200" y1="0" x2="200" y2="100" />
            <line class="dashed implicit" x1="300" y1="0" x2="300" y2="100" />
            <line class="dashed implicit" x1="400" y1="0" x2="400" y2="100" />
            <line class="dashed implicit" x1="0" y1="0" x2="100" y2="0" />
            <line class="dashed implicit" x1="0" y1="100" x2="100" y2="100" />
            <line class="dashed" x1="100" y1="0" x2="200" y2="0" />
            <line class="dashed" x1="100" y1="100" x2="200" y2="100" />
            <line class="dashed implicit" x1="200" y1="0" x2="400" y2="0" />
            <line class="dashed implicit" x1="200" y1="100" x2="400" y2="100" />

            <g transform="translate(0, 0)">
                <rect class="item-1" x="5" y="5" width="390" height="90" />
                <text class="bold" x="200" y="50" fill="hsl(220, 80%, 65%)">grid-column: span foo / 4;</text>
            </g>
        </g>
    </g>
</svg>
