<?xml version="1.0" encoding="UTF-8" standalone="no"?>
<!-- Generator: Adobe Illustrator 16.0.3, SVG Export Plug-In . SVG Version: 6.00 Build 0)  -->

<svg
   xmlns:dc="http://purl.org/dc/elements/1.1/"
   xmlns:cc="http://creativecommons.org/ns#"
   xmlns:rdf="http://www.w3.org/1999/02/22-rdf-syntax-ns#"
   xmlns:svg="http://www.w3.org/2000/svg"
   xmlns="http://www.w3.org/2000/svg"
   xmlns:sodipodi="http://sodipodi.sourceforge.net/DTD/sodipodi-0.dtd"
   xmlns:inkscape="http://www.inkscape.org/namespaces/inkscape"
   version="1.1"
   id="Calque_1"
   x="0px"
   y="0px"
   width="500px"
   height="360px"
   viewBox="0 0 327 235"
   enable-background="new 0 0 327 235"
   xml:space="preserve"
   inkscape:version="0.48.4 r9939"
   sodipodi:docname="pixel1.svg"
   inkscape:export-filename="/home/simon/builds/csswg/css-values/pixel1.png"
   inkscape:export-xdpi="90"
   inkscape:export-ydpi="90"><metadata
     id="metadata95"><rdf:RDF><cc:Work
         rdf:about=""><dc:format>image/svg+xml</dc:format><dc:type
           rdf:resource="http://purl.org/dc/dcmitype/StillImage" /><dc:title></dc:title></cc:Work></rdf:RDF></metadata><defs
     id="defs93" /><sodipodi:namedview
     pagecolor="#ffffff"
     bordercolor="#666666"
     borderopacity="1"
     objecttolerance="10"
     gridtolerance="10"
     guidetolerance="10"
     inkscape:pageopacity="0"
     inkscape:pageshadow="2"
     inkscape:window-width="1920"
     inkscape:window-height="1173"
     id="namedview91"
     showgrid="false"
     inkscape:zoom="1.8952232"
     inkscape:cx="359.93749"
     inkscape:cy="209.79623"
     inkscape:window-x="1920"
     inkscape:window-y="27"
     inkscape:window-maximized="1"
     inkscape:current-layer="Calque_1" /><polygon
     clip-rule="evenodd"
     points="161.431,148.434 137.083,117.482 137.083,100.898 137.395,84.732 137.395,68.665 161.431,44.989 "
     id="polygon3"
     style="fill:#c2c2c2;fill-rule:evenodd"
     transform="translate(2.616,-1.308)" /><polygon
     clip-rule="evenodd"
     points="285.258,81.04 285.258,39.065 324.5,6.065 324.5,188.398 284.75,145.565 284.75,107.433 "
     id="polygon5"
     transform="translate(-2.616,0)"
     style="fill:#c2c2c2;fill-rule:evenodd" /><path
     clip-rule="evenodd"
     d="m 49.793,196.498 c 10.317,0.046 20.635,0.129 30.953,0.131 64.916,0.012 129.833,0.007 194.75,0 1.995,0 3.99,-0.086 5.984,-0.132 0,0.757 0,1.514 0,2.271 -10.65,-0.046 -21.301,-0.129 -31.952,-0.131 -64.583,-0.012 -129.167,-0.007 -193.75,0 -1.995,0 -3.99,0.086 -5.985,0.132 0,-0.757 0,-1.514 0,-2.271 z"
     id="path7"
     inkscape:connector-curvature="0"
     style="fill:#777777;fill-rule:evenodd" /><path
     clip-rule="evenodd"
     d="m 312.319,126.295 c 0.324,-0.467 0.658,-0.467 0.982,0 -0.324,0.467 -0.658,0.467 -0.982,0 z"
     id="path13"
     inkscape:connector-curvature="0"
     style="fill:#3e3e3e;fill-rule:evenodd" /><rect
     x="143.533"
     y="76.148003"
     width="1.275"
     height="32.167"
     id="rect17" /><line
     stroke-miterlimit="10"
     x1="144.19899"
     y1="82.232002"
     x2="158.44899"
     y2="75.982002"
     id="line19"
     style="fill:none;stroke:#231f20;stroke-width:1;stroke-miterlimit:10" /><line
     stroke-miterlimit="10"
     x1="288.22601"
     y1="70.398003"
     x2="312.14203"
     y2="61.397999"
     id="line21"
     style="fill:none;stroke:#231f20;stroke-width:1;stroke-miterlimit:10" /><line
     stroke-miterlimit="10"
     x1="144.16299"
     y1="101.817"
     x2="158.48599"
     y2="107.896"
     id="line23"
     style="fill:none;stroke:#231f20;stroke-width:1;stroke-miterlimit:10" /><line
     stroke-miterlimit="10"
     x1="288.02103"
     y1="112.817"
     x2="312.80801"
     y2="126.232"
     id="line25"
     style="fill:none;stroke:#231f20;stroke-width:1;stroke-miterlimit:10" /><polygon
     clip-rule="evenodd"
     points="144.5,102.455 37.065,92.181 144.5,82.065 "
     id="polygon39"
     transform="translate(2.616,0)"
     style="fill:#fec5d0;fill-rule:evenodd" /><g
     id="g27"
     transform="translate(2.616,0)"><path
       d="m 46.625,91.711 c 0,-6.129 -2.799,-11.616 -7.185,-15.253 L 6.713,92.125 38.785,107.479 c 4.759,-3.623 7.84,-9.34 7.84,-15.768 z"
       id="path29"
       inkscape:connector-curvature="0"
       style="fill:none" /><path
       d="m 40.794,108.44 c -0.301,0.252 -0.607,0.497 -0.922,0.733 l -2.377,-0.783 c 0.197,-0.126 0.392,-0.256 0.584,-0.39 0.241,-0.167 0.474,-0.345 0.707,-0.522 L 6.713,92.125 39.44,76.458 C 39.169,76.233 38.894,76.014 38.611,75.804 37.806,75.205 40,75.18 40,75.18 l 0.999,-0.024 c 0.137,0.118 0.268,0.243 0.402,0.364 l 7.441,-3.563 -0.792,-1.653 -43.459,20.804 -2.028,1.017 2.028,1.016 43.46,20.806 0.792,-1.653 -8.049,-3.854 z"
       id="path31"
       inkscape:connector-curvature="0" /><path
       d="m 46.625,91.711 c 0,6.428 -3.081,12.145 -7.84,15.767 l 2.009,0.962 c 4.783,-4.005 7.831,-10.018 7.831,-16.729 0,-6.422 -2.794,-12.197 -7.224,-16.192 l -1.96,0.938 c 4.385,3.638 7.184,9.125 7.184,15.254 z"
       id="path33"
       inkscape:connector-curvature="0" /><path
       d="m 38.079,108 c -0.192,0.134 -0.387,0.264 -0.584,0.39 l 2.377,0.783 c 0.314,-0.236 0.621,-0.481 0.922,-0.733 l -2.009,-0.962 c -0.233,0.177 -0.466,0.355 -0.706,0.522 z"
       id="path35"
       inkscape:connector-curvature="0" /><path
       d="m 40,75.18 c 0,0 -2.194,0.025 -1.389,0.624 0.283,0.21 0.558,0.429 0.829,0.654 L 41.4,75.52 C 41.266,75.399 41.135,75.274 40.998,75.156 L 40,75.18 z"
       id="path37"
       inkscape:connector-curvature="0" /></g><polygon
     points="128.063,77.44 125.125,87.836 130.875,87.836 "
     id="polygon41"
     transform="matrix(0.70273692,0,0,0.70273692,45.725687,25.625552)" /><polygon
     points="130.875,96.69 125.125,96.69 127.938,107.086 "
     id="polygon45"
     transform="matrix(0.70273692,0,0,0.70273692,45.725687,29.841974)" /><rect
     x="290.97501"
     y="60.730999"
     width="1.4170001"
     height="62.167999"
     id="rect47" /><polygon
     clip-rule="evenodd"
     points="161.375,80.753 292.026,70.012 292.026,112.784 161.375,101.565 "
     id="polygon49"
     transform="matrix(1,0,0,1.0920168,2.616,-7.0477856)"
     style="fill:#fec5d0;fill-rule:evenodd" /><polygon
     points="271.063,57.94 268.125,68.336 273.875,68.336 "
     id="polygon43"
     transform="translate(8,10)" /><polygon
     points="268.125,104.857 270.938,115.253 273.875,104.857 "
     id="polygon51"
     transform="translate(8,2)" /><rect
     x="134.85593"
     y="85.462196"
     width="1.581158"
     height="14.065978"
     id="rect53" /><rect
     x="277.83401"
     y="76.156242"
     width="2.25"
     height="31.028006"
     id="rect55" /><polygon
     points="126.261,145.055 126.261,150.805 136.657,147.992 "
     id="polygon57"
     transform="translate(6.616,0)" /><polygon
     points="279.594,200.509 289.99,197.696 279.594,194.759 "
     id="polygon59"
     transform="translate(2.616,0)" /><polygon
     points="46.407,145.055 36.01,147.867 46.407,150.805 "
     id="polygon61"
     transform="translate(2.616,0)" /><polygon
     points="46.407,194.759 36.01,197.571 46.407,200.509 "
     id="polygon63"
     transform="translate(2.616,0)" /><rect
     x="47.772602"
     y="146.76401"
     width="86.87249"
     height="2.25"
     id="rect65" /><rect
     x="47.773602"
     y="196.509"
     width="235.9055"
     height="2.25"
     id="rect67" /><rect
     x="152.69899"
     y="66.731003"
     width="1.275"
     height="48.417"
     id="rect69" /><rect
     x="306.05801"
     y="52.230999"
     width="1.4170001"
     height="80.834"
     id="rect71" /><text
     font-size="13.5"
     id="text73"
     x="227.31125"
     y="63.286896"
     style="font-size:13.5px;font-family:ArialMT">1.3 mm</text>
<text
     font-size="13.5"
     id="text75"
     x="74.781494"
     y="76.564903"
     style="font-size:13.5px;font-family:ArialMT">0.26 mm</text>
<text
     id="text77"
     x="139.7825"
     y="215.97441"
     style="font-size:12px"><tspan
       x="139.7825"
       y="215.97441"
       font-size="13.5"
       id="tspan79"
       style="font-size:13.5px;font-family:ArialMT">138 inch</tspan><tspan
       x="139.7825"
       y="229.97441"
       font-size="13.5"
       id="tspan81"
       style="font-size:13.5px;font-family:ArialMT">3.5 m</tspan></text>
<text
     id="text83"
     x="67.449501"
     y="164.5645"
     style="font-size:12px"><tspan
       x="67.449501"
       y="164.5645"
       font-size="13.5"
       id="tspan85"
       style="font-size:13.5px;font-family:ArialMT">28 inch</tspan><tspan
       x="67.449501"
       y="178.5645"
       font-size="13.5"
       id="tspan87"
       style="font-size:13.5px;font-family:ArialMT">71 cm</tspan></text>
<text
     font-size="13.5"
     id="text89"
     x="10.783"
     y="124.5645"
     style="font-size:13.5px;font-family:ArialMT">viewer</text>
</svg>