<?xml version="1.0" encoding="utf-8"?>
<!-- Obtained from https://en.wikipedia.org/wiki/Cap_height#/media/File:Typography_Line_Terms.svg -->
<!-- Generator: Adobe Illustrator 12.0.1, SVG Export Plug-In  -->
<!DOCTYPE svg PUBLIC "-//W3C//DTD SVG 1.1//EN" "http://www.w3.org/Graphics/SVG/1.1/DTD/svg11.dtd" [
	<!ENTITY ns_flows "http://ns.adobe.com/Flows/1.0/">
	<!ENTITY ns_svg "http://www.w3.org/2000/svg">
	<!ENTITY ns_xlink "http://www.w3.org/1999/xlink">
]>
<svg  version="1.1" xmlns="&ns_svg;" xmlns:xlink="&ns_xlink;" xmlns:a="http://ns.adobe.com/AdobeSVGViewerExtensions/3.0/"
	 width="361" height="97" viewBox="-0.122 -0.259 361 97" enable-background="new -0.122 -0.259 361 97" xml:space="preserve">
<defs>
</defs>
<line opacity="0.31" fill="none" stroke="#000000" stroke-linecap="round" x1="332.295" y1="37.132" x2="51.378" y2="37.132"/>
<line opacity="0.31" fill="none" stroke="#000000" stroke-linecap="round" x1="332.295" y1="16.466" x2="51.378" y2="16.466"/>
<line opacity="0.31" fill="none" stroke="#000000" stroke-linecap="round" x1="332.294" y1="13.466" x2="51.378" y2="13.466"/>
<line opacity="0.31" fill="none" stroke="#000000" stroke-linecap="round" x1="332.294" y1="83.8" x2="51.378" y2="83.8"/>
<line fill="none" stroke="#E32322" stroke-linecap="round" x1="332.295" y1="65.466" x2="51.378" y2="65.466"/>
<path d="M118.327,66.368c-6.048,0-9.864-1.872-11.232-2.664c-0.864-1.584-1.8-6.696-1.944-10.08c0.36-0.504,1.44-0.648,1.728-0.216
	c1.08,3.672,4.032,10.728,12.384,10.728c6.048,0,9-3.96,9-8.28c0-3.168-0.648-6.696-5.904-10.08l-6.84-4.464
	c-3.6-2.376-7.776-6.48-7.776-12.384c0-6.84,5.328-12.384,14.688-12.384c2.232,0,4.824,0.432,6.696,0.936
	c0.936,0.288,1.944,0.432,2.52,0.432c0.648,1.728,1.296,5.76,1.296,8.784c-0.288,0.432-1.44,0.648-1.8,0.216
	c-0.936-3.456-2.88-8.136-9.792-8.136c-7.056,0-8.568,4.68-8.568,7.992c0,4.176,3.456,7.2,6.12,8.856l5.76,3.6
	c4.536,2.808,9,6.984,9,13.824C133.664,60.968,127.688,66.368,118.327,66.368z"/>
<path d="M141.727,44.552c0-2.808,0-3.168-1.944-4.464l-0.648-0.432c-0.288-0.288-0.288-1.08,0.072-1.296
	c1.872-0.792,5.256-2.52,7.128-3.888c0.432,0,0.72,0.144,0.864,0.504c-0.144,1.296-0.288,2.376-0.288,3.312
	c0,0.504,0.144,0.936,0.648,0.936c0.936-0.432,5.472-3.384,10.08-3.384c7.272,0,11.952,5.904,11.952,13.176
	c0,10.008-7.344,17.208-17.568,17.208c-1.296,0-3.312-0.144-3.96-0.288c-0.648,0.144-1.008,0.504-1.008,2.016v7.56
	c0,5.112,0.144,5.761,2.736,6.12l2.808,0.359c0.504,0.361,0.36,1.585-0.144,1.801c-3.456-0.145-5.544-0.216-8.064-0.216
	c-2.592,0-4.752,0.071-6.768,0.216c-0.504-0.216-0.648-1.439-0.144-1.801l1.512-0.215c2.664-0.36,2.736-1.08,2.736-6.265V44.552z
	 M147.055,57.944c0,2.304,0.72,3.168,2.16,4.32c1.44,1.08,3.672,1.584,5.184,1.584c5.904,0,9.36-5.472,9.36-12.96
	c0-5.76-3.24-11.592-9.72-11.592c-3.096,0-5.328,1.152-6.12,2.016c-0.648,0.792-0.864,1.872-0.864,4.248V57.944z"/>
<path d="M178.446,24.607c0-4.248-0.072-4.68-2.232-5.976l-0.72-0.432c-0.36-0.216-0.36-1.224,0-1.44
	c1.8-0.576,5.184-1.656,7.776-3.024c0.288,0,0.576,0.144,0.72,0.432c-0.072,2.16-0.216,5.76-0.216,8.928v15.12
	c0,0.648,0.072,1.224,0.288,1.368c2.592-2.016,6.048-3.744,9.72-3.744c6.84,0,9.288,4.248,9.288,9.288v12.024
	c0,5.184,0.144,5.976,2.736,6.264l1.944,0.216c0.504,0.36,0.36,1.584-0.144,1.8c-2.592-0.144-4.68-0.216-7.2-0.216
	c-2.592,0-4.752,0.072-6.696,0.216c-0.504-0.216-0.648-1.44-0.144-1.8l1.44-0.216c2.664-0.432,2.736-1.08,2.736-6.264V46.855
	c0-4.608-2.232-7.704-6.84-7.704c-2.448,0-4.32,0.864-5.616,1.944c-1.296,1.08-1.512,1.44-1.512,3.96v12.096
	c0,5.184,0.144,5.904,2.736,6.264l1.512,0.216c0.504,0.288,0.36,1.584-0.144,1.8c-2.16-0.144-4.248-0.216-6.768-0.216
	c-2.592,0-4.752,0.072-7.056,0.216c-0.504-0.216-0.648-1.44-0.144-1.8l1.8-0.216c2.664-0.288,2.736-1.08,2.736-6.264V24.607z"/>
<path d="M216.247,44.552c0-2.808,0-3.168-1.944-4.464l-0.648-0.432c-0.288-0.288-0.288-1.08,0.072-1.296
	c1.656-0.576,5.76-2.448,7.416-3.528c0.36,0,0.648,0.144,0.72,0.432c-0.144,2.52-0.288,5.976-0.288,8.928v12.96
	c0,5.184,0.144,5.904,2.736,6.264l1.512,0.216c0.504,0.36,0.36,1.584-0.144,1.8c-2.16-0.144-4.248-0.216-6.768-0.216
	c-2.592,0-4.752,0.072-6.768,0.216c-0.504-0.216-0.648-1.44-0.144-1.8l1.512-0.216c2.664-0.36,2.736-1.08,2.736-6.264V44.552z
	 M222.223,24.032c0,2.592-1.8,3.744-3.816,3.744c-2.232,0-3.672-1.656-3.672-3.6c0-2.376,1.728-3.888,3.888-3.888
	S222.223,22.016,222.223,24.032z"/>
<path d="M234.75,44.552c0-2.808,0-3.168-1.944-4.464l-0.648-0.432c-0.288-0.288-0.288-1.08,0.072-1.296
	c1.656-0.576,5.76-2.448,7.2-3.528c0.288,0,0.648,0.144,0.792,0.504c-0.144,1.656-0.144,2.736-0.144,3.384
	c0,0.432,0.288,0.792,0.792,0.792c3.024-1.872,6.408-3.672,10.08-3.672c5.976,0,8.424,4.104,8.424,8.928v12.384
	c0,5.184,0.144,5.904,2.736,6.264l1.584,0.216c0.504,0.36,0.36,1.584-0.144,1.8c-2.16-0.144-4.248-0.216-6.768-0.216
	c-2.592,0-4.752,0.072-6.696,0.216c-0.504-0.216-0.648-1.44-0.144-1.8l1.368-0.216c2.664-0.432,2.736-1.08,2.736-6.264V46.424
	c0-4.104-1.872-7.128-6.768-7.128c-2.736,0-5.112,1.152-6.12,2.52c-0.936,1.224-1.08,2.232-1.08,4.32v11.016
	c0,5.184,0.144,5.832,2.736,6.264l1.296,0.216c0.504,0.36,0.36,1.584-0.144,1.8c-1.944-0.144-4.032-0.216-6.552-0.216
	c-2.592,0-4.752,0.072-6.768,0.216c-0.504-0.216-0.648-1.44-0.144-1.8l1.512-0.216c2.664-0.36,2.736-1.08,2.736-6.264V44.552z"/>
<path d="M271.757,41.744c-1.08-1.584-2.304-2.736-4.32-3.096l-1.152-0.216c-0.432-0.36-0.36-1.584,0.144-1.8
	c2.808,0.144,4.464,0.216,6.264,0.216c1.728,0,3.312-0.072,6.12-0.216c0.504,0.288,0.504,1.44,0.072,1.8l-1.08,0.216
	c-1.944,0.36-1.872,0.792-0.648,2.52l3.456,5.04c0.288,0.432,0.72,1.008,0.936,1.224c0.288-0.216,2.664-3.816,4.176-6.12
	c1.224-1.872,1.008-2.232-0.576-2.664l-0.864-0.216c-0.432-0.432-0.288-1.584,0.288-1.8c1.656,0.144,3.528,0.216,5.256,0.216
	c1.656,0,3.888-0.072,5.256-0.216c0.576,0.288,0.576,1.44,0.144,1.8l-1.08,0.216c-1.728,0.36-2.808,0.576-3.6,1.224
	c-1.224,1.008-3.888,4.32-6.768,8.208c-0.864,1.152-0.864,1.368,0.072,2.664l6.696,9.432c1.656,2.304,2.808,3.24,4.752,3.384
	l1.152,0.072c0.432,0.432,0.36,1.584-0.144,1.8c-2.664-0.144-5.04-0.216-7.128-0.216c-2.664,0-4.536,0.072-6.84,0.216
	c-0.576-0.216-0.72-1.44-0.216-1.8l2.088-0.216c2.088-0.216,2.16-0.864,1.224-2.16l-3.744-5.4c-0.864-1.296-1.296-1.872-1.584-2.088
	c-0.216,0.216-0.792,0.936-1.296,1.728l-3.024,4.752c-1.44,2.304-1.584,2.88,0.216,3.168l1.224,0.216
	c0.432,0.36,0.36,1.584-0.144,1.8c-1.8-0.144-3.6-0.216-5.328-0.216c-1.8,0-3.384,0.072-5.256,0.216
	c-0.576-0.288-0.648-1.512-0.144-1.8l1.656-0.288c1.296-0.216,2.304-0.792,3.6-2.16c1.512-1.584,4.752-6.408,6.408-8.424
	c0.648-0.792,0.792-1.08,0.216-1.872L271.757,41.744z"/>
<path fill="#E32322" d="M53.402,69.065v2.672h0.023c0.14-0.287,0.359-0.495,0.659-0.625c0.3-0.13,0.629-0.195,0.989-0.195
	c0.399,0,0.747,0.073,1.043,0.22c0.296,0.146,0.542,0.345,0.739,0.595s0.345,0.538,0.444,0.865c0.1,0.326,0.15,0.673,0.15,1.04
	c0,0.366-0.048,0.713-0.145,1.039c-0.096,0.327-0.243,0.611-0.439,0.854s-0.443,0.436-0.739,0.575
	c-0.296,0.14-0.641,0.21-1.033,0.21c-0.127,0-0.268-0.014-0.425-0.04c-0.156-0.026-0.311-0.07-0.464-0.13
	c-0.153-0.06-0.298-0.142-0.435-0.245c-0.136-0.104-0.251-0.231-0.344-0.385h-0.023v0.689h-0.852v-7.14H53.402z M56.456,72.871
	c-0.063-0.23-0.16-0.435-0.29-0.614c-0.13-0.181-0.296-0.323-0.5-0.43c-0.203-0.106-0.441-0.16-0.715-0.16
	c-0.286,0-0.53,0.057-0.729,0.17c-0.2,0.113-0.363,0.262-0.49,0.444c-0.126,0.184-0.218,0.392-0.275,0.625
	c-0.057,0.232-0.085,0.469-0.085,0.709c0,0.253,0.03,0.498,0.09,0.734s0.155,0.444,0.285,0.624c0.13,0.18,0.298,0.325,0.505,0.435
	c0.207,0.11,0.457,0.165,0.75,0.165s0.538-0.057,0.735-0.17s0.355-0.263,0.475-0.449c0.12-0.187,0.207-0.399,0.26-0.64
	s0.08-0.486,0.08-0.739C56.551,73.336,56.519,73.101,56.456,72.871z"/>
<path fill="#E32322" d="M62.374,76.315c-0.221,0-0.397-0.062-0.528-0.185c-0.131-0.124-0.196-0.325-0.196-0.605
	c-0.233,0.28-0.505,0.481-0.815,0.605c-0.31,0.123-0.645,0.185-1.005,0.185c-0.233,0-0.453-0.025-0.66-0.075
	s-0.389-0.133-0.545-0.25c-0.157-0.116-0.28-0.267-0.37-0.449c-0.09-0.184-0.135-0.405-0.135-0.665c0-0.293,0.05-0.533,0.15-0.72
	s0.232-0.338,0.396-0.455c0.163-0.116,0.35-0.205,0.561-0.265c0.21-0.06,0.425-0.11,0.645-0.15c0.233-0.046,0.456-0.081,0.666-0.104
	s0.395-0.057,0.555-0.1c0.16-0.044,0.287-0.107,0.38-0.19s0.14-0.205,0.14-0.365c0-0.187-0.035-0.336-0.105-0.449
	s-0.16-0.2-0.27-0.261c-0.11-0.06-0.233-0.1-0.37-0.119c-0.137-0.021-0.271-0.03-0.405-0.03c-0.359,0-0.659,0.068-0.899,0.204
	c-0.24,0.137-0.37,0.394-0.39,0.772h-0.852c0.013-0.319,0.08-0.589,0.2-0.809s0.28-0.397,0.48-0.534
	c0.2-0.136,0.431-0.234,0.691-0.294s0.534-0.09,0.82-0.09c0.233,0,0.465,0.017,0.696,0.05c0.23,0.033,0.438,0.102,0.625,0.205
	c0.187,0.104,0.337,0.248,0.45,0.435c0.114,0.187,0.17,0.43,0.17,0.729v2.658c0,0.199,0.012,0.346,0.035,0.439
	c0.023,0.093,0.102,0.14,0.235,0.14c0.073,0,0.16-0.017,0.26-0.05v0.662C62.837,76.271,62.634,76.315,62.374,76.315z M61.182,73.708
	c-0.174,0.037-0.356,0.067-0.546,0.091c-0.19,0.022-0.383,0.05-0.576,0.079c-0.194,0.03-0.368,0.079-0.521,0.146
	c-0.153,0.066-0.279,0.162-0.376,0.285c-0.097,0.123-0.145,0.291-0.145,0.505c0,0.14,0.028,0.258,0.085,0.354
	c0.057,0.097,0.13,0.176,0.22,0.235s0.197,0.104,0.321,0.13s0.249,0.04,0.376,0.04c0.28,0,0.521-0.038,0.722-0.115
	c0.2-0.076,0.364-0.173,0.491-0.29c0.127-0.116,0.22-0.243,0.28-0.38s0.09-0.265,0.09-0.385v-0.87
	C61.496,73.613,61.355,73.672,61.182,73.708z"/>
<path fill="#E32322" d="M64.373,75.049c0.08,0.13,0.184,0.232,0.314,0.31c0.129,0.076,0.276,0.132,0.439,0.165
	c0.163,0.033,0.331,0.05,0.503,0.05c0.133,0,0.272-0.01,0.419-0.03c0.146-0.02,0.281-0.057,0.404-0.109
	c0.123-0.054,0.224-0.132,0.304-0.235c0.08-0.103,0.12-0.234,0.12-0.395c0-0.22-0.083-0.386-0.25-0.499s-0.375-0.205-0.625-0.275
	c-0.25-0.069-0.521-0.133-0.813-0.189s-0.564-0.137-0.814-0.24s-0.458-0.248-0.624-0.435s-0.25-0.446-0.25-0.779
	c0-0.26,0.058-0.483,0.175-0.669c0.117-0.188,0.267-0.339,0.45-0.455s0.39-0.203,0.62-0.26c0.229-0.057,0.458-0.085,0.685-0.085
	c0.293,0,0.562,0.025,0.809,0.075s0.464,0.137,0.655,0.26c0.189,0.123,0.341,0.289,0.454,0.498c0.113,0.21,0.18,0.472,0.2,0.784
	h-0.852c-0.014-0.166-0.057-0.304-0.13-0.413c-0.073-0.11-0.167-0.198-0.279-0.265c-0.113-0.066-0.238-0.114-0.375-0.145
	c-0.136-0.03-0.274-0.045-0.414-0.045c-0.126,0-0.255,0.01-0.385,0.03c-0.13,0.02-0.248,0.055-0.354,0.104s-0.193,0.117-0.26,0.2
	c-0.066,0.083-0.1,0.191-0.1,0.325c0,0.146,0.052,0.268,0.155,0.364s0.235,0.177,0.395,0.24s0.339,0.116,0.539,0.16
	c0.2,0.043,0.399,0.088,0.599,0.135c0.213,0.047,0.421,0.104,0.624,0.17s0.383,0.155,0.539,0.265c0.157,0.11,0.283,0.249,0.38,0.415
	c0.096,0.167,0.145,0.373,0.145,0.62c0,0.312-0.065,0.573-0.195,0.779c-0.13,0.207-0.299,0.373-0.509,0.5
	c-0.209,0.127-0.446,0.215-0.708,0.265c-0.263,0.05-0.524,0.075-0.784,0.075c-0.286,0-0.56-0.03-0.819-0.09
	c-0.259-0.061-0.489-0.159-0.689-0.296s-0.359-0.316-0.479-0.54s-0.187-0.496-0.2-0.816h0.852
	C64.25,74.76,64.292,74.918,64.373,75.049z"/>
<path fill="#E32322" d="M72.33,75.875c-0.387,0.294-0.874,0.44-1.46,0.44c-0.414,0-0.772-0.066-1.076-0.2
	c-0.303-0.133-0.558-0.319-0.765-0.56c-0.207-0.24-0.362-0.526-0.465-0.859c-0.103-0.334-0.162-0.696-0.175-1.09
	c0-0.394,0.06-0.753,0.18-1.08c0.12-0.326,0.289-0.609,0.505-0.85s0.474-0.427,0.771-0.56c0.297-0.134,0.622-0.2,0.976-0.2
	c0.46,0,0.842,0.095,1.146,0.285c0.303,0.19,0.547,0.432,0.73,0.726c0.183,0.293,0.31,0.613,0.38,0.96
	c0.07,0.347,0.098,0.677,0.085,0.99h-3.875c-0.007,0.226,0.02,0.44,0.08,0.644c0.06,0.202,0.157,0.382,0.29,0.538
	c0.134,0.156,0.304,0.281,0.511,0.374s0.451,0.14,0.731,0.14c0.36,0,0.656-0.083,0.886-0.249c0.23-0.167,0.382-0.42,0.456-0.759
	h0.84C72.966,75.146,72.716,75.582,72.33,75.875z M72.128,72.558c-0.077-0.181-0.181-0.335-0.311-0.466
	c-0.13-0.13-0.284-0.233-0.461-0.31c-0.177-0.077-0.372-0.115-0.586-0.115c-0.221,0-0.419,0.038-0.597,0.115
	c-0.177,0.076-0.329,0.182-0.456,0.315c-0.127,0.133-0.227,0.288-0.3,0.465c-0.074,0.177-0.117,0.365-0.13,0.565h2.977
	C72.25,72.928,72.205,72.738,72.128,72.558z"/>
<path fill="#E32322" d="M74.888,69.065v7.141h-0.852v-7.141H74.888z"/>
<path fill="#E32322" d="M76.206,70.104v-1.039h0.852v1.039H76.206z M77.058,71.036v5.17h-0.852v-5.17H77.058z"/>
<path fill="#E32322" d="M79.13,71.037v0.819h0.019c0.354-0.626,0.914-0.939,1.681-0.939c0.34,0,0.623,0.047,0.85,0.14
	c0.227,0.094,0.41,0.224,0.55,0.391c0.14,0.166,0.238,0.364,0.295,0.595c0.057,0.229,0.085,0.484,0.085,0.765v3.399h-0.852v-3.499
	c0-0.32-0.093-0.573-0.28-0.76s-0.443-0.28-0.77-0.28c-0.26,0-0.485,0.04-0.674,0.12c-0.19,0.08-0.348,0.193-0.475,0.34
	c-0.127,0.146-0.222,0.318-0.285,0.515c-0.063,0.197-0.095,0.412-0.095,0.646v2.919h-0.852v-5.169H79.13z"/>
<path fill="#E32322" d="M87.499,75.875c-0.387,0.294-0.874,0.44-1.46,0.44c-0.414,0-0.772-0.066-1.075-0.2
	c-0.304-0.133-0.559-0.319-0.766-0.56c-0.207-0.24-0.362-0.526-0.465-0.859c-0.104-0.334-0.162-0.696-0.175-1.09
	c0-0.394,0.06-0.753,0.18-1.08c0.12-0.326,0.289-0.609,0.505-0.85s0.474-0.427,0.771-0.56c0.297-0.134,0.622-0.2,0.976-0.2
	c0.46,0,0.842,0.095,1.146,0.285s0.547,0.432,0.73,0.726c0.184,0.293,0.31,0.613,0.38,0.96c0.07,0.347,0.098,0.677,0.085,0.99
	h-3.875c-0.007,0.226,0.02,0.44,0.08,0.644c0.06,0.202,0.157,0.382,0.291,0.538c0.133,0.156,0.303,0.281,0.51,0.374
	s0.451,0.14,0.731,0.14c0.36,0,0.655-0.083,0.886-0.249c0.23-0.167,0.382-0.42,0.456-0.759h0.84
	C88.136,75.146,87.886,75.582,87.499,75.875z M87.297,72.558c-0.077-0.181-0.181-0.335-0.311-0.466
	c-0.13-0.13-0.284-0.233-0.461-0.31c-0.177-0.077-0.373-0.115-0.586-0.115c-0.221,0-0.419,0.038-0.596,0.115
	c-0.177,0.076-0.329,0.182-0.456,0.315c-0.127,0.133-0.228,0.288-0.301,0.465c-0.074,0.177-0.117,0.365-0.13,0.565h2.977
	C87.419,72.928,87.374,72.738,87.297,72.558z"/>
<path d="M56.285,94.638l0.002-0.699h-0.025c-0.14,0.286-0.359,0.493-0.659,0.619c-0.3,0.127-0.629,0.19-0.989,0.19
	c-0.399,0-0.747-0.073-1.043-0.22c-0.296-0.146-0.542-0.344-0.738-0.59c-0.196-0.247-0.345-0.533-0.444-0.86
	c-0.1-0.326-0.15-0.673-0.15-1.039s0.048-0.713,0.145-1.04c0.096-0.326,0.243-0.611,0.439-0.854s0.443-0.437,0.739-0.58
	s0.641-0.215,1.033-0.215c0.133,0,0.276,0.014,0.43,0.04c0.153,0.026,0.306,0.072,0.459,0.135c0.153,0.063,0.298,0.146,0.435,0.25
	c0.136,0.104,0.251,0.232,0.344,0.385h0.023v-2.661h0.852v7.14H56.285z M53.232,92.802c0.063,0.23,0.16,0.435,0.29,0.615
	c0.13,0.18,0.297,0.322,0.5,0.429c0.204,0.106,0.442,0.16,0.715,0.16c0.286,0,0.53-0.057,0.729-0.17
	c0.2-0.113,0.363-0.262,0.49-0.444c0.126-0.184,0.218-0.392,0.275-0.625c0.057-0.232,0.085-0.469,0.085-0.709
	c0-0.253-0.03-0.498-0.09-0.734s-0.155-0.444-0.285-0.624s-0.298-0.325-0.505-0.435c-0.207-0.11-0.457-0.165-0.75-0.165
	c-0.287,0-0.53,0.057-0.73,0.17s-0.36,0.263-0.48,0.449c-0.12,0.187-0.207,0.399-0.26,0.64s-0.08,0.486-0.08,0.739
	C53.137,92.338,53.168,92.572,53.232,92.802z"/>
<path d="M62.06,94.308c-0.387,0.294-0.874,0.44-1.46,0.44c-0.414,0-0.772-0.066-1.075-0.2c-0.304-0.133-0.559-0.319-0.766-0.56
	c-0.207-0.24-0.362-0.526-0.465-0.859c-0.104-0.334-0.162-0.696-0.175-1.09c0-0.394,0.06-0.753,0.18-1.08
	c0.12-0.326,0.289-0.609,0.505-0.85s0.474-0.427,0.771-0.56c0.297-0.134,0.622-0.2,0.976-0.2c0.46,0,0.842,0.095,1.146,0.285
	s0.547,0.432,0.73,0.726c0.184,0.293,0.31,0.613,0.38,0.96c0.07,0.347,0.098,0.677,0.085,0.99h-3.875
	c-0.007,0.226,0.02,0.44,0.08,0.644c0.06,0.202,0.157,0.382,0.291,0.538c0.133,0.156,0.303,0.281,0.51,0.374s0.451,0.14,0.731,0.14
	c0.36,0,0.655-0.083,0.886-0.249c0.23-0.167,0.382-0.42,0.456-0.759h0.84C62.696,93.578,62.446,94.015,62.06,94.308z M61.858,90.99
	c-0.077-0.181-0.181-0.335-0.311-0.466c-0.13-0.13-0.284-0.233-0.461-0.31C60.909,90.138,60.713,90.1,60.5,90.1
	c-0.221,0-0.419,0.038-0.596,0.115c-0.177,0.076-0.329,0.182-0.456,0.315c-0.127,0.133-0.228,0.288-0.301,0.465
	c-0.074,0.177-0.117,0.365-0.13,0.565h2.977C61.98,91.36,61.935,91.171,61.858,90.99z"/>
<path d="M64.373,93.481c0.08,0.13,0.184,0.232,0.314,0.31c0.129,0.076,0.276,0.132,0.439,0.165c0.163,0.033,0.331,0.05,0.503,0.05
	c0.133,0,0.272-0.01,0.419-0.03c0.146-0.02,0.281-0.057,0.404-0.109c0.123-0.054,0.224-0.132,0.304-0.235
	c0.08-0.103,0.12-0.234,0.12-0.395c0-0.22-0.083-0.386-0.25-0.499s-0.375-0.205-0.625-0.275c-0.25-0.069-0.521-0.133-0.813-0.189
	s-0.564-0.137-0.814-0.24s-0.458-0.248-0.624-0.435s-0.25-0.446-0.25-0.779c0-0.26,0.058-0.483,0.175-0.669
	c0.117-0.188,0.267-0.339,0.45-0.455s0.39-0.203,0.62-0.26c0.229-0.057,0.458-0.085,0.685-0.085c0.293,0,0.562,0.025,0.809,0.075
	s0.464,0.137,0.655,0.26c0.189,0.123,0.341,0.289,0.454,0.498c0.113,0.21,0.18,0.472,0.2,0.784h-0.852
	c-0.014-0.166-0.057-0.304-0.13-0.413c-0.073-0.11-0.167-0.198-0.279-0.265c-0.113-0.066-0.238-0.114-0.375-0.145
	c-0.136-0.03-0.274-0.045-0.414-0.045c-0.126,0-0.255,0.01-0.385,0.03c-0.13,0.02-0.248,0.055-0.354,0.104s-0.193,0.117-0.26,0.2
	c-0.066,0.083-0.1,0.191-0.1,0.325c0,0.146,0.052,0.268,0.155,0.364s0.235,0.177,0.395,0.24s0.339,0.116,0.539,0.16
	c0.2,0.043,0.399,0.088,0.599,0.135c0.213,0.047,0.421,0.104,0.624,0.17s0.383,0.155,0.539,0.265c0.157,0.11,0.283,0.249,0.38,0.415
	c0.096,0.167,0.145,0.373,0.145,0.62c0,0.312-0.065,0.573-0.195,0.779c-0.13,0.207-0.299,0.373-0.509,0.5
	c-0.209,0.127-0.446,0.215-0.708,0.265c-0.263,0.05-0.524,0.075-0.784,0.075c-0.286,0-0.56-0.03-0.819-0.09
	c-0.259-0.061-0.489-0.159-0.689-0.296s-0.359-0.316-0.479-0.54s-0.187-0.496-0.2-0.816h0.852
	C64.25,93.192,64.292,93.351,64.373,93.481z"/>
<path d="M71.756,90.37c-0.213-0.181-0.5-0.271-0.86-0.271c-0.307,0-0.563,0.057-0.77,0.17c-0.207,0.113-0.372,0.263-0.495,0.449
	c-0.123,0.187-0.211,0.401-0.265,0.645c-0.054,0.243-0.08,0.495-0.08,0.755c0,0.239,0.028,0.473,0.085,0.699
	s0.145,0.428,0.265,0.604c0.12,0.177,0.276,0.318,0.47,0.425s0.423,0.16,0.69,0.16c0.42,0,0.749-0.109,0.985-0.329
	c0.236-0.22,0.381-0.529,0.435-0.929h0.87c-0.093,0.64-0.332,1.134-0.715,1.479c-0.383,0.348-0.905,0.521-1.565,0.521
	c-0.394,0-0.742-0.063-1.045-0.19c-0.303-0.126-0.557-0.306-0.76-0.539c-0.203-0.233-0.356-0.512-0.459-0.835
	s-0.155-0.679-0.155-1.064c0-0.387,0.05-0.748,0.149-1.085c0.1-0.337,0.251-0.63,0.455-0.88c0.203-0.25,0.458-0.446,0.764-0.59
	s0.664-0.215,1.07-0.215c0.293,0,0.568,0.035,0.825,0.105c0.256,0.069,0.483,0.179,0.68,0.325s0.358,0.332,0.485,0.555
	c0.127,0.224,0.207,0.489,0.24,0.796h-0.88C72.11,90.804,71.97,90.55,71.756,90.37z"/>
<path d="M77.649,94.308c-0.387,0.294-0.874,0.44-1.46,0.44c-0.414,0-0.772-0.066-1.075-0.2c-0.304-0.133-0.559-0.319-0.766-0.56
	c-0.207-0.24-0.362-0.526-0.465-0.859c-0.104-0.334-0.162-0.696-0.175-1.09c0-0.394,0.06-0.753,0.18-1.08
	c0.12-0.326,0.289-0.609,0.505-0.85s0.474-0.427,0.771-0.56c0.297-0.134,0.622-0.2,0.976-0.2c0.46,0,0.842,0.095,1.146,0.285
	s0.547,0.432,0.73,0.726c0.184,0.293,0.31,0.613,0.38,0.96c0.07,0.347,0.098,0.677,0.085,0.99h-3.875
	c-0.007,0.226,0.02,0.44,0.08,0.644c0.06,0.202,0.157,0.382,0.291,0.538c0.133,0.156,0.303,0.281,0.51,0.374s0.451,0.14,0.731,0.14
	c0.36,0,0.655-0.083,0.886-0.249c0.23-0.167,0.382-0.42,0.456-0.759h0.84C78.286,93.578,78.036,94.015,77.649,94.308z M77.448,90.99
	c-0.077-0.181-0.181-0.335-0.311-0.466c-0.13-0.13-0.284-0.233-0.461-0.31c-0.177-0.077-0.373-0.115-0.586-0.115
	c-0.221,0-0.419,0.038-0.596,0.115c-0.177,0.076-0.329,0.182-0.456,0.315c-0.127,0.133-0.228,0.288-0.301,0.465
	c-0.074,0.177-0.117,0.365-0.13,0.565h2.977C77.57,91.36,77.524,91.171,77.448,90.99z"/>
<path d="M80.111,89.47v0.819h0.019c0.354-0.626,0.914-0.939,1.681-0.939c0.34,0,0.623,0.047,0.85,0.14
	c0.227,0.094,0.41,0.224,0.55,0.391c0.14,0.166,0.238,0.364,0.295,0.595c0.057,0.229,0.085,0.484,0.085,0.765v3.399h-0.852V91.14
	c0-0.32-0.093-0.573-0.28-0.76s-0.443-0.28-0.77-0.28c-0.26,0-0.485,0.04-0.674,0.12c-0.19,0.08-0.348,0.193-0.475,0.34
	c-0.127,0.146-0.222,0.318-0.285,0.515c-0.063,0.197-0.095,0.412-0.095,0.646v2.919h-0.852V89.47H80.111z"/>
<path d="M88.584,94.638l0.002-0.699h-0.025c-0.14,0.286-0.359,0.493-0.659,0.619c-0.299,0.127-0.629,0.19-0.988,0.19
	c-0.399,0-0.747-0.073-1.043-0.22c-0.296-0.146-0.543-0.344-0.739-0.59c-0.196-0.247-0.344-0.533-0.444-0.86
	c-0.1-0.326-0.15-0.673-0.15-1.039s0.048-0.713,0.145-1.04c0.097-0.326,0.243-0.611,0.439-0.854s0.442-0.437,0.739-0.58
	s0.641-0.215,1.034-0.215c0.133,0,0.276,0.014,0.429,0.04c0.153,0.026,0.307,0.072,0.459,0.135c0.153,0.063,0.298,0.146,0.434,0.25
	c0.137,0.104,0.251,0.232,0.345,0.385h0.023v-2.661h0.852v7.14H88.584z M85.531,92.802c0.063,0.23,0.16,0.435,0.29,0.615
	c0.13,0.18,0.297,0.322,0.5,0.429c0.204,0.106,0.442,0.16,0.715,0.16c0.287,0,0.53-0.057,0.73-0.17
	c0.2-0.113,0.363-0.262,0.49-0.444c0.126-0.184,0.218-0.392,0.275-0.625c0.057-0.232,0.085-0.469,0.085-0.709
	c0-0.253-0.03-0.498-0.09-0.734c-0.06-0.236-0.155-0.444-0.285-0.624s-0.298-0.325-0.505-0.435c-0.207-0.11-0.457-0.165-0.75-0.165
	c-0.287,0-0.53,0.057-0.73,0.17s-0.36,0.263-0.48,0.449s-0.207,0.399-0.26,0.64c-0.054,0.24-0.08,0.486-0.08,0.739
	C85.436,92.338,85.468,92.572,85.531,92.802z"/>
<path d="M94.359,94.308c-0.387,0.294-0.874,0.44-1.46,0.44c-0.414,0-0.772-0.066-1.076-0.2c-0.303-0.133-0.558-0.319-0.765-0.56
	c-0.207-0.24-0.362-0.526-0.465-0.859c-0.103-0.334-0.162-0.696-0.175-1.09c0-0.394,0.06-0.753,0.18-1.08
	c0.12-0.326,0.289-0.609,0.505-0.85s0.474-0.427,0.771-0.56c0.297-0.134,0.622-0.2,0.976-0.2c0.46,0,0.842,0.095,1.146,0.285
	c0.303,0.19,0.547,0.432,0.73,0.726c0.183,0.293,0.31,0.613,0.38,0.96c0.07,0.347,0.098,0.677,0.085,0.99h-3.875
	c-0.007,0.226,0.02,0.44,0.08,0.644c0.06,0.202,0.157,0.382,0.29,0.538c0.134,0.156,0.304,0.281,0.511,0.374s0.451,0.14,0.731,0.14
	c0.36,0,0.656-0.083,0.886-0.249c0.23-0.167,0.382-0.42,0.456-0.759h0.84C94.996,93.578,94.746,94.015,94.359,94.308z M94.157,90.99
	c-0.077-0.181-0.181-0.335-0.311-0.466c-0.13-0.13-0.284-0.233-0.461-0.31c-0.177-0.077-0.372-0.115-0.586-0.115
	c-0.221,0-0.419,0.038-0.597,0.115c-0.177,0.076-0.329,0.182-0.456,0.315c-0.127,0.133-0.227,0.288-0.3,0.465
	c-0.074,0.177-0.117,0.365-0.13,0.565h2.977C94.279,91.36,94.234,91.171,94.157,90.99z"/>
<path d="M96.792,89.47v1.09h0.019c0.205-0.42,0.458-0.73,0.758-0.93c0.3-0.2,0.68-0.294,1.14-0.28v0.898
	c-0.34,0-0.63,0.047-0.87,0.14c-0.24,0.094-0.433,0.23-0.58,0.41c-0.146,0.181-0.253,0.398-0.32,0.655
	c-0.067,0.257-0.1,0.552-0.1,0.886v2.3h-0.852V89.47H96.792z"/>
<path d="M102.88,87.498v2.73h0.023c0.066-0.16,0.16-0.295,0.28-0.404c0.12-0.11,0.254-0.2,0.404-0.27
	c0.15-0.07,0.307-0.122,0.47-0.155s0.321-0.05,0.474-0.05c0.34,0,0.623,0.047,0.85,0.14c0.226,0.094,0.409,0.224,0.549,0.391
	c0.14,0.166,0.238,0.364,0.295,0.595c0.057,0.229,0.085,0.484,0.085,0.765v3.399h-0.852V91.14c0-0.32-0.093-0.573-0.28-0.76
	s-0.443-0.28-0.77-0.28c-0.26,0-0.485,0.04-0.674,0.12c-0.19,0.08-0.348,0.193-0.475,0.34c-0.127,0.146-0.222,0.318-0.285,0.515
	c-0.063,0.197-0.095,0.412-0.095,0.646v2.919h-0.852v-7.141H102.88z"/>
<path d="M111.199,94.308c-0.387,0.294-0.874,0.44-1.46,0.44c-0.414,0-0.772-0.066-1.076-0.2c-0.303-0.133-0.558-0.319-0.765-0.56
	c-0.207-0.24-0.362-0.526-0.465-0.859c-0.103-0.334-0.162-0.696-0.175-1.09c0-0.394,0.06-0.753,0.18-1.08
	c0.12-0.326,0.289-0.609,0.505-0.85s0.474-0.427,0.771-0.56c0.297-0.134,0.622-0.2,0.976-0.2c0.46,0,0.842,0.095,1.146,0.285
	c0.303,0.19,0.547,0.432,0.73,0.726c0.183,0.293,0.31,0.613,0.38,0.96c0.07,0.347,0.098,0.677,0.085,0.99h-3.875
	c-0.007,0.226,0.02,0.44,0.08,0.644c0.06,0.202,0.157,0.382,0.29,0.538c0.134,0.156,0.304,0.281,0.511,0.374s0.451,0.14,0.731,0.14
	c0.36,0,0.656-0.083,0.886-0.249c0.23-0.167,0.382-0.42,0.456-0.759h0.84C111.835,93.578,111.585,94.015,111.199,94.308z
	 M110.997,90.99c-0.077-0.181-0.181-0.335-0.311-0.466c-0.13-0.13-0.284-0.233-0.461-0.31c-0.177-0.077-0.372-0.115-0.586-0.115
	c-0.221,0-0.419,0.038-0.597,0.115c-0.177,0.076-0.329,0.182-0.456,0.315c-0.127,0.133-0.227,0.288-0.3,0.465
	c-0.074,0.177-0.117,0.365-0.13,0.565h2.977C111.119,91.36,111.074,91.171,110.997,90.99z"/>
<path d="M112.905,88.537v-1.039h0.852v1.039H112.905z M113.757,89.469v5.17h-0.852v-5.17H113.757z"/>
<path d="M118.909,96.103c-0.386,0.42-0.993,0.63-1.819,0.63c-0.24,0-0.485-0.026-0.735-0.08s-0.477-0.14-0.68-0.26
	c-0.204-0.12-0.372-0.276-0.505-0.47c-0.134-0.193-0.207-0.43-0.22-0.71h0.852c0.006,0.153,0.055,0.283,0.145,0.39
	s0.2,0.193,0.33,0.26c0.13,0.067,0.271,0.115,0.425,0.146s0.3,0.045,0.44,0.045c0.28,0,0.517-0.048,0.71-0.145s0.354-0.23,0.48-0.4
	c0.126-0.17,0.218-0.375,0.275-0.614c0.057-0.24,0.085-0.504,0.085-0.79v-0.34h-0.02c-0.147,0.319-0.369,0.555-0.666,0.705
	c-0.297,0.149-0.612,0.225-0.946,0.225c-0.387,0-0.724-0.07-1.011-0.21c-0.287-0.141-0.527-0.329-0.721-0.565
	c-0.193-0.237-0.339-0.514-0.436-0.831c-0.097-0.316-0.145-0.651-0.145-1.006c0-0.307,0.04-0.621,0.12-0.945
	c0.08-0.323,0.213-0.617,0.401-0.881c0.187-0.263,0.434-0.479,0.741-0.65c0.307-0.17,0.684-0.255,1.132-0.255
	c0.327,0,0.627,0.071,0.901,0.215c0.274,0.144,0.487,0.358,0.641,0.646h0.01v-0.74h0.797v4.731
	C119.489,95.048,119.296,95.682,118.909,96.103z M117.826,93.776c0.197-0.117,0.356-0.271,0.476-0.461
	c0.121-0.189,0.209-0.404,0.266-0.645c0.057-0.24,0.085-0.48,0.085-0.721c0-0.227-0.027-0.45-0.08-0.67
	c-0.054-0.221-0.139-0.419-0.256-0.596s-0.269-0.318-0.456-0.425s-0.415-0.16-0.682-0.16c-0.274,0-0.508,0.052-0.702,0.155
	s-0.353,0.242-0.476,0.415c-0.124,0.173-0.214,0.373-0.271,0.601c-0.057,0.227-0.085,0.463-0.085,0.71c0,0.233,0.023,0.467,0.07,0.7
	c0.046,0.233,0.127,0.445,0.241,0.635c0.113,0.19,0.264,0.344,0.451,0.461c0.187,0.116,0.421,0.175,0.702,0.175
	S117.629,93.893,117.826,93.776z"/>
<path d="M121.57,87.498v2.73h0.023c0.066-0.16,0.16-0.295,0.28-0.404c0.12-0.11,0.254-0.2,0.404-0.27
	c0.15-0.07,0.307-0.122,0.47-0.155s0.321-0.05,0.474-0.05c0.34,0,0.623,0.047,0.85,0.14c0.226,0.094,0.409,0.224,0.549,0.391
	c0.14,0.166,0.238,0.364,0.295,0.595c0.057,0.229,0.085,0.484,0.085,0.765v3.399h-0.852V91.14c0-0.32-0.093-0.573-0.28-0.76
	s-0.443-0.28-0.77-0.28c-0.26,0-0.485,0.04-0.674,0.12c-0.19,0.08-0.348,0.193-0.475,0.34c-0.127,0.146-0.222,0.318-0.285,0.515
	c-0.063,0.197-0.095,0.412-0.095,0.646v2.919h-0.852v-7.141H121.57z"/>
<path d="M128.439,89.467v0.75h-1.031v3.212c0,0.1,0.008,0.18,0.025,0.24c0.017,0.06,0.048,0.106,0.095,0.14
	c0.046,0.033,0.112,0.055,0.195,0.065c0.083,0.01,0.192,0.015,0.325,0.015h0.391v0.75h-0.65c-0.22,0-0.409-0.015-0.566-0.045
	c-0.156-0.03-0.283-0.085-0.38-0.165s-0.169-0.193-0.215-0.34c-0.047-0.147-0.07-0.341-0.07-0.581l-0.001-3.291h-0.88v-0.75h0.88
	V87.92h0.852v1.547H128.439z"/>
<path d="M53.321,43.137v0.76h0.019c0.387-0.587,0.945-0.88,1.672-0.88c0.32,0,0.61,0.066,0.871,0.2
	c0.26,0.133,0.444,0.359,0.551,0.68c0.173-0.279,0.402-0.496,0.686-0.649s0.596-0.23,0.936-0.23c0.26,0,0.496,0.028,0.706,0.085
	c0.21,0.057,0.391,0.145,0.541,0.265c0.15,0.12,0.267,0.275,0.351,0.466c0.083,0.189,0.125,0.418,0.125,0.685v3.789h-0.852v-3.39
	c0-0.159-0.013-0.31-0.04-0.449c-0.027-0.141-0.077-0.262-0.15-0.365c-0.074-0.104-0.175-0.185-0.306-0.245
	c-0.13-0.06-0.298-0.09-0.505-0.09c-0.42,0-0.751,0.12-0.991,0.36c-0.24,0.239-0.36,0.56-0.36,0.959v3.22h-0.852v-3.39
	c0-0.166-0.015-0.319-0.045-0.46c-0.03-0.14-0.082-0.261-0.155-0.364s-0.172-0.184-0.295-0.24c-0.123-0.057-0.282-0.085-0.475-0.085
	c-0.247,0-0.458,0.05-0.635,0.15c-0.177,0.1-0.32,0.22-0.431,0.359c-0.11,0.14-0.19,0.285-0.24,0.435
	c-0.05,0.15-0.075,0.275-0.075,0.375v3.22H52.52v-5.169H53.321z"/>
<path d="M64.66,47.975c-0.387,0.294-0.874,0.44-1.46,0.44c-0.414,0-0.772-0.066-1.076-0.2c-0.303-0.133-0.558-0.319-0.765-0.56
	c-0.207-0.24-0.362-0.526-0.465-0.859c-0.103-0.334-0.162-0.696-0.175-1.09c0-0.394,0.06-0.753,0.18-1.08
	c0.12-0.326,0.289-0.609,0.505-0.85s0.474-0.427,0.771-0.56c0.297-0.134,0.622-0.2,0.976-0.2c0.46,0,0.842,0.095,1.146,0.285
	c0.303,0.19,0.547,0.432,0.73,0.726c0.183,0.293,0.31,0.613,0.38,0.96c0.07,0.347,0.098,0.677,0.085,0.99h-3.875
	c-0.007,0.226,0.02,0.44,0.08,0.644c0.06,0.202,0.157,0.382,0.29,0.538c0.134,0.156,0.304,0.281,0.511,0.374s0.451,0.14,0.731,0.14
	c0.36,0,0.656-0.083,0.886-0.249c0.23-0.167,0.382-0.42,0.456-0.759h0.84C65.296,47.246,65.046,47.682,64.66,47.975z M64.458,44.658
	c-0.077-0.181-0.181-0.335-0.311-0.466c-0.13-0.13-0.284-0.233-0.461-0.31c-0.177-0.077-0.372-0.115-0.586-0.115
	c-0.221,0-0.419,0.038-0.597,0.115c-0.177,0.076-0.329,0.182-0.456,0.315c-0.127,0.133-0.227,0.288-0.3,0.465
	c-0.074,0.177-0.117,0.365-0.13,0.565h2.977C64.58,45.028,64.535,44.838,64.458,44.658z"/>
<path d="M70.085,48.305l0.002-0.699h-0.025c-0.14,0.286-0.359,0.493-0.659,0.619c-0.3,0.127-0.629,0.19-0.989,0.19
	c-0.399,0-0.747-0.073-1.043-0.22c-0.296-0.146-0.542-0.344-0.738-0.59c-0.196-0.247-0.345-0.533-0.444-0.86
	c-0.1-0.326-0.15-0.673-0.15-1.039s0.048-0.713,0.145-1.04c0.096-0.326,0.243-0.611,0.439-0.854s0.443-0.437,0.739-0.58
	s0.641-0.215,1.033-0.215c0.133,0,0.276,0.014,0.43,0.04c0.153,0.026,0.306,0.072,0.459,0.135c0.153,0.063,0.298,0.146,0.435,0.25
	c0.136,0.104,0.251,0.232,0.344,0.385h0.023v-2.661h0.852v7.14H70.085z M67.032,46.469c0.063,0.23,0.16,0.435,0.29,0.615
	c0.13,0.18,0.297,0.322,0.5,0.429c0.204,0.106,0.442,0.16,0.715,0.16c0.286,0,0.53-0.057,0.729-0.17
	c0.2-0.113,0.363-0.262,0.49-0.444c0.126-0.184,0.218-0.392,0.275-0.625c0.057-0.232,0.085-0.469,0.085-0.709
	c0-0.253-0.03-0.498-0.09-0.734s-0.155-0.444-0.285-0.624s-0.298-0.325-0.505-0.435c-0.207-0.11-0.457-0.165-0.75-0.165
	c-0.287,0-0.53,0.057-0.73,0.17s-0.36,0.263-0.48,0.449c-0.12,0.187-0.207,0.399-0.26,0.64s-0.08,0.486-0.08,0.739
	C66.937,46.005,66.968,46.24,67.032,46.469z"/>
<path d="M72.246,42.205v-1.039h0.852v1.039H72.246z M73.098,43.136v5.17h-0.852v-5.17H73.098z"/>
<path d="M78.343,48.416c-0.221,0-0.397-0.062-0.528-0.185c-0.131-0.124-0.196-0.325-0.196-0.605
	c-0.233,0.28-0.505,0.481-0.815,0.605c-0.31,0.123-0.645,0.185-1.005,0.185c-0.233,0-0.453-0.025-0.66-0.075
	s-0.389-0.133-0.545-0.25c-0.157-0.116-0.28-0.267-0.37-0.449c-0.09-0.184-0.135-0.405-0.135-0.665c0-0.293,0.05-0.533,0.15-0.72
	s0.232-0.338,0.396-0.455c0.163-0.116,0.35-0.205,0.561-0.265c0.21-0.06,0.425-0.11,0.645-0.15c0.233-0.046,0.456-0.081,0.666-0.104
	s0.395-0.057,0.555-0.1c0.16-0.044,0.287-0.107,0.38-0.19s0.14-0.205,0.14-0.365c0-0.187-0.035-0.336-0.105-0.449
	s-0.16-0.2-0.27-0.261c-0.11-0.06-0.233-0.1-0.37-0.119c-0.137-0.021-0.271-0.03-0.405-0.03c-0.359,0-0.659,0.068-0.899,0.204
	c-0.24,0.137-0.37,0.394-0.39,0.772h-0.852c0.013-0.319,0.08-0.589,0.2-0.809s0.28-0.397,0.48-0.534
	c0.2-0.136,0.431-0.234,0.691-0.294s0.534-0.09,0.82-0.09c0.233,0,0.465,0.017,0.696,0.05c0.23,0.033,0.438,0.102,0.625,0.205
	c0.187,0.104,0.337,0.248,0.45,0.435c0.114,0.187,0.17,0.43,0.17,0.729v2.658c0,0.199,0.012,0.346,0.035,0.439
	c0.023,0.093,0.102,0.14,0.235,0.14c0.073,0,0.16-0.017,0.26-0.05v0.662C78.807,48.372,78.604,48.416,78.343,48.416z M77.151,45.808
	c-0.174,0.037-0.356,0.067-0.546,0.091c-0.19,0.022-0.383,0.05-0.576,0.079c-0.194,0.03-0.368,0.079-0.521,0.146
	c-0.153,0.066-0.279,0.162-0.376,0.285c-0.097,0.123-0.145,0.291-0.145,0.505c0,0.14,0.028,0.258,0.085,0.354
	c0.057,0.097,0.13,0.176,0.22,0.235s0.197,0.104,0.321,0.13s0.249,0.04,0.376,0.04c0.28,0,0.521-0.038,0.722-0.115
	c0.2-0.076,0.364-0.173,0.491-0.29c0.127-0.116,0.22-0.243,0.28-0.38s0.09-0.265,0.09-0.385v-0.87
	C77.465,45.713,77.325,45.772,77.151,45.808z"/>
<path d="M80.491,43.137v0.819h0.019c0.354-0.626,0.914-0.939,1.681-0.939c0.34,0,0.623,0.047,0.85,0.14
	c0.227,0.094,0.41,0.224,0.55,0.391c0.14,0.166,0.238,0.364,0.295,0.595c0.057,0.229,0.085,0.484,0.085,0.765v3.399h-0.852v-3.499
	c0-0.32-0.093-0.573-0.28-0.76s-0.443-0.28-0.77-0.28c-0.26,0-0.485,0.04-0.674,0.12c-0.19,0.08-0.348,0.193-0.475,0.34
	c-0.127,0.146-0.222,0.318-0.285,0.515c-0.063,0.197-0.095,0.412-0.095,0.646v2.919h-0.852v-5.169H80.491z"/>
<path d="M55.607,23.205c-0.214-0.181-0.5-0.271-0.86-0.271c-0.307,0-0.563,0.057-0.77,0.17s-0.372,0.263-0.495,0.449
	c-0.124,0.187-0.212,0.401-0.265,0.645s-0.08,0.495-0.08,0.755c0,0.239,0.028,0.473,0.085,0.699s0.145,0.428,0.265,0.604
	c0.12,0.177,0.276,0.318,0.47,0.425s0.423,0.16,0.69,0.16c0.42,0,0.748-0.109,0.985-0.329c0.236-0.22,0.381-0.529,0.435-0.929h0.87
	c-0.094,0.64-0.332,1.134-0.715,1.479c-0.383,0.348-0.905,0.521-1.565,0.521c-0.394,0-0.742-0.063-1.045-0.19
	c-0.304-0.126-0.557-0.306-0.76-0.539s-0.356-0.512-0.459-0.835c-0.104-0.323-0.155-0.679-0.155-1.064
	c0-0.387,0.05-0.748,0.15-1.085c0.1-0.337,0.251-0.63,0.454-0.88s0.458-0.446,0.765-0.59s0.663-0.215,1.07-0.215
	c0.293,0,0.568,0.035,0.825,0.105c0.257,0.069,0.483,0.179,0.68,0.325s0.358,0.332,0.485,0.555c0.127,0.224,0.207,0.489,0.24,0.796
	h-0.88C55.96,23.639,55.82,23.385,55.607,23.205z"/>
<path d="M61.813,27.583c-0.221,0-0.397-0.062-0.528-0.185c-0.131-0.124-0.196-0.325-0.196-0.605
	c-0.233,0.28-0.505,0.481-0.815,0.605c-0.31,0.123-0.645,0.185-1.005,0.185c-0.233,0-0.454-0.025-0.66-0.075
	s-0.388-0.133-0.545-0.25c-0.156-0.116-0.28-0.267-0.37-0.449c-0.09-0.184-0.135-0.405-0.135-0.665c0-0.293,0.05-0.533,0.15-0.72
	s0.232-0.338,0.396-0.455c0.164-0.116,0.35-0.205,0.56-0.265c0.21-0.06,0.425-0.11,0.646-0.15c0.233-0.046,0.455-0.081,0.666-0.104
	c0.21-0.023,0.395-0.057,0.555-0.1c0.16-0.044,0.287-0.107,0.38-0.19s0.14-0.205,0.14-0.365c0-0.187-0.035-0.336-0.105-0.449
	s-0.16-0.2-0.27-0.261c-0.11-0.06-0.233-0.1-0.37-0.119c-0.137-0.021-0.271-0.03-0.405-0.03c-0.359,0-0.659,0.068-0.899,0.204
	c-0.24,0.137-0.37,0.394-0.39,0.772h-0.852c0.013-0.319,0.08-0.589,0.2-0.809s0.28-0.397,0.48-0.534
	c0.2-0.136,0.43-0.234,0.69-0.294c0.26-0.06,0.534-0.09,0.82-0.09c0.233,0,0.465,0.017,0.695,0.05
	c0.23,0.033,0.439,0.102,0.625,0.205c0.187,0.104,0.337,0.248,0.451,0.435c0.113,0.187,0.17,0.43,0.17,0.729v2.658
	c0,0.199,0.012,0.346,0.035,0.439c0.023,0.093,0.102,0.14,0.235,0.14c0.073,0,0.16-0.017,0.26-0.05v0.662
	C62.277,27.539,62.074,27.583,61.813,27.583z M60.622,24.976c-0.174,0.037-0.356,0.067-0.546,0.091
	c-0.19,0.022-0.382,0.05-0.576,0.079c-0.194,0.03-0.368,0.079-0.521,0.146s-0.279,0.162-0.375,0.285
	c-0.097,0.123-0.146,0.291-0.146,0.505c0,0.14,0.028,0.258,0.085,0.354c0.057,0.097,0.13,0.176,0.221,0.235s0.197,0.104,0.321,0.13
	s0.249,0.04,0.376,0.04c0.28,0,0.521-0.038,0.721-0.115c0.201-0.076,0.364-0.173,0.491-0.29c0.127-0.116,0.221-0.243,0.281-0.38
	s0.09-0.265,0.09-0.385v-0.87C60.936,24.881,60.795,24.939,60.622,24.976z"/>
<path d="M64.042,22.305v0.699h0.023c0.14-0.286,0.359-0.494,0.659-0.624c0.3-0.13,0.629-0.195,0.989-0.195
	c0.399,0,0.747,0.073,1.043,0.22c0.296,0.146,0.542,0.345,0.739,0.595s0.345,0.538,0.444,0.865c0.1,0.326,0.15,0.673,0.15,1.04
	c0,0.366-0.048,0.713-0.145,1.039c-0.096,0.327-0.243,0.611-0.439,0.854s-0.443,0.436-0.739,0.575
	c-0.296,0.14-0.641,0.21-1.033,0.21c-0.127,0-0.268-0.014-0.425-0.04c-0.156-0.026-0.311-0.07-0.464-0.13
	c-0.153-0.06-0.298-0.142-0.435-0.245c-0.136-0.104-0.251-0.231-0.344-0.385h-0.023v2.659H63.19v-7.138H64.042z M67.095,24.139
	c-0.063-0.23-0.16-0.435-0.29-0.614c-0.13-0.181-0.296-0.323-0.5-0.43c-0.203-0.106-0.441-0.16-0.715-0.16
	c-0.286,0-0.53,0.057-0.729,0.17c-0.2,0.113-0.363,0.262-0.49,0.444c-0.126,0.184-0.218,0.392-0.275,0.625
	c-0.057,0.232-0.085,0.469-0.085,0.709c0,0.253,0.03,0.498,0.09,0.734s0.155,0.444,0.285,0.624c0.13,0.18,0.298,0.325,0.505,0.435
	c0.207,0.11,0.457,0.165,0.75,0.165s0.538-0.057,0.735-0.17s0.355-0.263,0.475-0.449c0.12-0.187,0.207-0.399,0.26-0.64
	s0.08-0.486,0.08-0.739C67.19,24.604,67.159,24.368,67.095,24.139z"/>
<path d="M72.621,20.333v2.73h0.023c0.066-0.16,0.16-0.295,0.28-0.404c0.12-0.11,0.254-0.2,0.404-0.27
	c0.15-0.07,0.307-0.122,0.47-0.155s0.321-0.05,0.474-0.05c0.34,0,0.623,0.047,0.85,0.14c0.226,0.094,0.409,0.224,0.549,0.391
	c0.14,0.166,0.238,0.364,0.295,0.595c0.057,0.229,0.085,0.484,0.085,0.765v3.399h-0.852v-3.499c0-0.32-0.093-0.573-0.28-0.76
	s-0.443-0.28-0.77-0.28c-0.26,0-0.485,0.04-0.674,0.12c-0.19,0.08-0.348,0.193-0.475,0.34c-0.127,0.146-0.222,0.318-0.285,0.515
	c-0.063,0.197-0.095,0.412-0.095,0.646v2.919h-0.852v-7.141H72.621z"/>
<path d="M80.939,27.143c-0.387,0.294-0.874,0.44-1.46,0.44c-0.414,0-0.772-0.066-1.075-0.2c-0.304-0.133-0.559-0.319-0.766-0.56
	c-0.207-0.24-0.362-0.526-0.465-0.859c-0.104-0.334-0.162-0.696-0.175-1.09c0-0.394,0.06-0.753,0.18-1.08
	c0.12-0.326,0.289-0.609,0.505-0.85s0.474-0.427,0.771-0.56c0.297-0.134,0.622-0.2,0.976-0.2c0.46,0,0.842,0.095,1.146,0.285
	s0.547,0.432,0.73,0.726c0.184,0.293,0.31,0.613,0.38,0.96c0.07,0.347,0.098,0.677,0.085,0.99h-3.875
	c-0.007,0.226,0.02,0.44,0.08,0.644c0.06,0.202,0.157,0.382,0.291,0.538c0.133,0.156,0.303,0.281,0.51,0.374s0.451,0.14,0.731,0.14
	c0.36,0,0.655-0.083,0.886-0.249c0.23-0.167,0.382-0.42,0.456-0.759h0.84C81.576,26.413,81.326,26.85,80.939,27.143z M80.738,23.825
	c-0.077-0.181-0.181-0.335-0.311-0.466c-0.13-0.13-0.284-0.233-0.461-0.31c-0.177-0.077-0.373-0.115-0.586-0.115
	c-0.221,0-0.419,0.038-0.596,0.115c-0.177,0.076-0.329,0.182-0.456,0.315c-0.127,0.133-0.228,0.288-0.301,0.465
	c-0.074,0.177-0.117,0.365-0.13,0.565h2.977C80.86,24.195,80.814,24.006,80.738,23.825z"/>
<path d="M82.646,21.372v-1.039h0.852v1.039H82.646z M83.498,22.304v5.17h-0.852v-5.17H83.498z"/>
<path d="M88.65,28.938c-0.387,0.42-0.993,0.63-1.819,0.63c-0.24,0-0.485-0.026-0.735-0.08s-0.477-0.14-0.68-0.26
	c-0.203-0.12-0.371-0.276-0.505-0.47c-0.133-0.193-0.207-0.43-0.22-0.71h0.852c0.007,0.153,0.055,0.283,0.145,0.39
	c0.09,0.106,0.2,0.193,0.33,0.26c0.13,0.067,0.272,0.115,0.425,0.146s0.3,0.045,0.44,0.045c0.28,0,0.517-0.048,0.71-0.145
	s0.354-0.23,0.48-0.4c0.127-0.17,0.219-0.375,0.275-0.614c0.057-0.24,0.085-0.504,0.085-0.79v-0.34h-0.02
	c-0.147,0.319-0.369,0.555-0.666,0.705c-0.297,0.149-0.612,0.225-0.946,0.225c-0.387,0-0.724-0.07-1.011-0.21
	c-0.287-0.141-0.527-0.329-0.721-0.565c-0.194-0.237-0.339-0.514-0.436-0.831c-0.097-0.316-0.145-0.651-0.145-1.006
	c0-0.307,0.04-0.621,0.12-0.945c0.08-0.323,0.214-0.617,0.4-0.881c0.187-0.263,0.434-0.479,0.741-0.65
	c0.307-0.17,0.685-0.255,1.132-0.255c0.327,0,0.627,0.071,0.901,0.215c0.274,0.144,0.488,0.358,0.641,0.646h0.01v-0.74h0.797v4.731
	C89.23,27.883,89.037,28.517,88.65,28.938z M87.567,26.611c0.197-0.117,0.356-0.271,0.476-0.461
	c0.121-0.189,0.209-0.404,0.266-0.645c0.057-0.24,0.085-0.48,0.085-0.721c0-0.227-0.027-0.45-0.08-0.67
	c-0.054-0.221-0.139-0.419-0.256-0.596s-0.269-0.318-0.456-0.425c-0.188-0.106-0.415-0.16-0.682-0.16
	c-0.274,0-0.508,0.052-0.702,0.155s-0.353,0.242-0.476,0.415s-0.214,0.373-0.271,0.601c-0.057,0.227-0.085,0.463-0.085,0.71
	c0,0.233,0.023,0.467,0.07,0.7s0.127,0.445,0.24,0.635c0.114,0.19,0.264,0.344,0.451,0.461c0.188,0.116,0.421,0.175,0.702,0.175
	S87.37,26.728,87.567,26.611z"/>
<path d="M91.311,20.333v2.73h0.023c0.066-0.16,0.16-0.295,0.28-0.404c0.12-0.11,0.254-0.2,0.404-0.27
	c0.15-0.07,0.307-0.122,0.47-0.155s0.321-0.05,0.475-0.05c0.339,0,0.623,0.047,0.849,0.14c0.227,0.094,0.41,0.224,0.55,0.391
	c0.14,0.166,0.238,0.364,0.294,0.595c0.057,0.229,0.085,0.484,0.085,0.765v3.399h-0.852v-3.499c0-0.32-0.093-0.573-0.28-0.76
	s-0.443-0.28-0.77-0.28c-0.26,0-0.484,0.04-0.674,0.12s-0.348,0.193-0.475,0.34c-0.126,0.146-0.221,0.318-0.285,0.515
	c-0.063,0.197-0.095,0.412-0.095,0.646v2.919h-0.852v-7.141H91.311z"/>
<path d="M98.18,22.302v0.75h-1.031v3.212c0,0.1,0.008,0.18,0.025,0.24c0.017,0.06,0.048,0.106,0.095,0.14
	c0.046,0.033,0.112,0.055,0.195,0.065c0.083,0.01,0.192,0.015,0.325,0.015h0.391v0.75h-0.65c-0.22,0-0.409-0.015-0.566-0.045
	c-0.156-0.03-0.283-0.085-0.38-0.165s-0.169-0.193-0.215-0.34c-0.047-0.147-0.07-0.341-0.07-0.581l-0.001-3.291h-0.88v-0.75h0.88
	v-1.547h0.852v1.547H98.18z"/>
<path d="M56.494,7.25c-0.221,0-0.397-0.062-0.528-0.185C55.835,6.941,55.77,6.74,55.77,6.46c-0.233,0.28-0.505,0.481-0.815,0.605
	c-0.31,0.123-0.645,0.185-1.005,0.185c-0.233,0-0.453-0.025-0.66-0.075s-0.389-0.133-0.545-0.25c-0.157-0.116-0.28-0.267-0.37-0.449
	c-0.09-0.184-0.135-0.405-0.135-0.665c0-0.293,0.05-0.533,0.15-0.72s0.232-0.338,0.396-0.455c0.163-0.116,0.35-0.205,0.561-0.265
	c0.21-0.06,0.425-0.11,0.645-0.15c0.233-0.046,0.456-0.081,0.666-0.104s0.395-0.057,0.555-0.1c0.16-0.044,0.287-0.107,0.38-0.19
	s0.14-0.205,0.14-0.365c0-0.187-0.035-0.336-0.105-0.449s-0.16-0.2-0.27-0.261c-0.11-0.06-0.233-0.1-0.37-0.119
	c-0.137-0.021-0.271-0.03-0.405-0.03c-0.359,0-0.659,0.068-0.899,0.204c-0.24,0.137-0.37,0.394-0.39,0.772h-0.852
	c0.013-0.319,0.08-0.589,0.2-0.809s0.28-0.397,0.48-0.534c0.2-0.136,0.431-0.234,0.691-0.294s0.534-0.09,0.82-0.09
	c0.233,0,0.465,0.017,0.696,0.05c0.23,0.033,0.438,0.102,0.625,0.205c0.187,0.104,0.337,0.248,0.45,0.435
	c0.114,0.187,0.17,0.43,0.17,0.729v2.658c0,0.199,0.012,0.346,0.035,0.439c0.023,0.093,0.102,0.14,0.235,0.14
	c0.073,0,0.16-0.017,0.26-0.05V7.12C56.958,7.206,56.754,7.25,56.494,7.25z M55.302,4.643c-0.174,0.037-0.356,0.067-0.546,0.091
	c-0.19,0.022-0.383,0.05-0.576,0.079c-0.194,0.03-0.368,0.079-0.521,0.146c-0.153,0.066-0.279,0.162-0.376,0.285
	c-0.097,0.123-0.145,0.291-0.145,0.505c0,0.14,0.028,0.258,0.085,0.354c0.057,0.097,0.13,0.176,0.22,0.235s0.197,0.104,0.321,0.13
	s0.249,0.04,0.376,0.04c0.28,0,0.521-0.038,0.722-0.115c0.2-0.076,0.364-0.173,0.491-0.29c0.127-0.116,0.22-0.243,0.28-0.38
	s0.09-0.265,0.09-0.385v-0.87C55.616,4.548,55.475,4.606,55.302,4.643z"/>
<path d="M58.493,5.983c0.08,0.13,0.184,0.232,0.314,0.31c0.129,0.076,0.276,0.132,0.439,0.165c0.163,0.033,0.331,0.05,0.503,0.05
	c0.133,0,0.272-0.01,0.419-0.03c0.146-0.02,0.281-0.057,0.404-0.109c0.123-0.054,0.224-0.132,0.304-0.235
	c0.08-0.103,0.12-0.234,0.12-0.395c0-0.22-0.083-0.386-0.25-0.499s-0.375-0.205-0.625-0.275c-0.25-0.069-0.521-0.133-0.813-0.189
	s-0.564-0.137-0.814-0.24S58.037,4.286,57.87,4.1s-0.25-0.446-0.25-0.779c0-0.26,0.058-0.483,0.175-0.669
	c0.117-0.188,0.267-0.339,0.45-0.455s0.39-0.203,0.62-0.26c0.229-0.057,0.458-0.085,0.685-0.085c0.293,0,0.562,0.025,0.809,0.075
	s0.464,0.137,0.655,0.26c0.189,0.123,0.341,0.289,0.454,0.498c0.113,0.21,0.18,0.472,0.2,0.784h-0.852
	c-0.014-0.166-0.057-0.304-0.13-0.413c-0.073-0.11-0.167-0.198-0.279-0.265c-0.113-0.066-0.238-0.114-0.375-0.145
	c-0.136-0.03-0.274-0.045-0.414-0.045c-0.126,0-0.255,0.01-0.385,0.03c-0.13,0.02-0.248,0.055-0.354,0.104s-0.193,0.117-0.26,0.2
	c-0.066,0.083-0.1,0.191-0.1,0.325c0,0.146,0.052,0.268,0.155,0.364s0.235,0.177,0.395,0.24s0.339,0.116,0.539,0.16
	c0.2,0.043,0.399,0.088,0.599,0.135c0.213,0.047,0.421,0.104,0.624,0.17s0.383,0.155,0.539,0.265c0.157,0.11,0.283,0.249,0.38,0.415
	c0.096,0.167,0.145,0.373,0.145,0.62c0,0.312-0.065,0.573-0.195,0.779c-0.13,0.207-0.299,0.373-0.509,0.5
	c-0.209,0.127-0.446,0.215-0.708,0.265c-0.263,0.05-0.524,0.075-0.784,0.075c-0.286,0-0.56-0.03-0.819-0.09
	C58.62,7.1,58.39,7.001,58.19,6.864s-0.359-0.316-0.479-0.54s-0.187-0.496-0.2-0.816h0.852C58.37,5.694,58.413,5.853,58.493,5.983z"
	/>
<path d="M65.876,2.872c-0.213-0.181-0.5-0.271-0.86-0.271c-0.307,0-0.563,0.057-0.77,0.17c-0.207,0.113-0.372,0.263-0.495,0.449
	c-0.123,0.187-0.211,0.401-0.265,0.645c-0.054,0.243-0.08,0.495-0.08,0.755c0,0.239,0.028,0.473,0.085,0.699
	s0.145,0.428,0.265,0.604c0.12,0.177,0.276,0.318,0.47,0.425s0.423,0.16,0.69,0.16c0.42,0,0.749-0.109,0.985-0.329
	c0.236-0.22,0.381-0.529,0.435-0.929h0.87c-0.093,0.64-0.332,1.134-0.715,1.479c-0.383,0.348-0.905,0.521-1.565,0.521
	c-0.394,0-0.742-0.063-1.045-0.19c-0.303-0.126-0.557-0.306-0.76-0.539c-0.203-0.233-0.356-0.512-0.459-0.835
	s-0.155-0.679-0.155-1.064c0-0.387,0.05-0.748,0.149-1.085c0.1-0.337,0.251-0.63,0.455-0.88c0.203-0.25,0.458-0.446,0.764-0.59
	s0.664-0.215,1.07-0.215c0.293,0,0.568,0.035,0.825,0.105c0.256,0.069,0.483,0.179,0.68,0.325s0.358,0.332,0.485,0.555
	c0.127,0.224,0.207,0.489,0.24,0.796h-0.88C66.23,3.306,66.09,3.052,65.876,2.872z"/>
<path d="M71.77,6.81c-0.387,0.294-0.874,0.44-1.46,0.44c-0.414,0-0.772-0.066-1.075-0.2c-0.304-0.133-0.559-0.319-0.766-0.56
	c-0.207-0.24-0.362-0.526-0.465-0.859c-0.104-0.334-0.162-0.696-0.175-1.09c0-0.394,0.06-0.753,0.18-1.08
	c0.12-0.326,0.289-0.609,0.505-0.85s0.474-0.427,0.771-0.56c0.297-0.134,0.622-0.2,0.976-0.2c0.46,0,0.842,0.095,1.146,0.285
	s0.547,0.432,0.73,0.726c0.184,0.293,0.31,0.613,0.38,0.96c0.07,0.347,0.098,0.677,0.085,0.99h-3.875
	c-0.007,0.226,0.02,0.44,0.08,0.644c0.06,0.202,0.157,0.382,0.291,0.538c0.133,0.156,0.303,0.281,0.51,0.374s0.451,0.14,0.731,0.14
	c0.36,0,0.655-0.083,0.886-0.249c0.23-0.167,0.382-0.42,0.456-0.759h0.84C72.406,6.08,72.156,6.517,71.77,6.81z M71.568,3.492
	c-0.077-0.181-0.181-0.335-0.311-0.466c-0.13-0.13-0.284-0.233-0.461-0.31c-0.177-0.077-0.373-0.115-0.586-0.115
	c-0.221,0-0.419,0.038-0.596,0.115c-0.177,0.076-0.329,0.182-0.456,0.315c-0.127,0.133-0.228,0.288-0.301,0.465
	c-0.074,0.177-0.117,0.365-0.13,0.565h2.977C71.69,3.862,71.645,3.673,71.568,3.492z"/>
<path d="M74.231,1.972v0.819h0.019c0.354-0.626,0.914-0.939,1.681-0.939c0.34,0,0.623,0.047,0.85,0.14
	c0.227,0.094,0.41,0.224,0.55,0.391c0.14,0.166,0.238,0.364,0.295,0.595c0.057,0.229,0.085,0.484,0.085,0.765v3.399h-0.852V3.642
	c0-0.32-0.093-0.573-0.28-0.76s-0.443-0.28-0.77-0.28c-0.26,0-0.485,0.04-0.674,0.12c-0.19,0.08-0.348,0.193-0.475,0.34
	c-0.127,0.146-0.222,0.318-0.285,0.515c-0.063,0.197-0.095,0.412-0.095,0.646v2.919h-0.852V1.972H74.231z"/>
<path d="M82.705,7.14l0.002-0.699h-0.025c-0.14,0.286-0.359,0.493-0.659,0.619c-0.299,0.127-0.629,0.19-0.988,0.19
	c-0.399,0-0.747-0.073-1.043-0.22c-0.296-0.146-0.543-0.344-0.739-0.59c-0.196-0.247-0.344-0.533-0.444-0.86
	c-0.1-0.326-0.15-0.673-0.15-1.039s0.048-0.713,0.145-1.04c0.097-0.326,0.243-0.611,0.439-0.854s0.442-0.437,0.739-0.58
	s0.641-0.215,1.034-0.215c0.133,0,0.276,0.014,0.429,0.04c0.153,0.026,0.307,0.072,0.459,0.135c0.153,0.063,0.298,0.146,0.434,0.25
	c0.137,0.104,0.251,0.232,0.345,0.385h0.023V0h0.852v7.14H82.705z M79.651,5.304c0.063,0.23,0.16,0.435,0.29,0.615
	c0.13,0.18,0.297,0.322,0.5,0.429c0.204,0.106,0.442,0.16,0.715,0.16c0.287,0,0.53-0.057,0.73-0.17
	c0.2-0.113,0.363-0.262,0.49-0.444c0.126-0.184,0.218-0.392,0.275-0.625c0.057-0.232,0.085-0.469,0.085-0.709
	c0-0.253-0.03-0.498-0.09-0.734c-0.06-0.236-0.155-0.444-0.285-0.624s-0.298-0.325-0.505-0.435c-0.207-0.11-0.457-0.165-0.75-0.165
	c-0.287,0-0.53,0.057-0.73,0.17s-0.36,0.263-0.48,0.449s-0.207,0.399-0.26,0.64c-0.054,0.24-0.08,0.486-0.08,0.739
	C79.556,4.84,79.588,5.074,79.651,5.304z"/>
<path d="M88.479,6.81c-0.387,0.294-0.874,0.44-1.46,0.44c-0.414,0-0.772-0.066-1.076-0.2c-0.303-0.133-0.558-0.319-0.765-0.56
	c-0.207-0.24-0.362-0.526-0.465-0.859c-0.103-0.334-0.162-0.696-0.175-1.09c0-0.394,0.06-0.753,0.18-1.08
	c0.12-0.326,0.289-0.609,0.505-0.85s0.474-0.427,0.771-0.56c0.297-0.134,0.622-0.2,0.976-0.2c0.46,0,0.842,0.095,1.146,0.285
	c0.303,0.19,0.547,0.432,0.73,0.726c0.183,0.293,0.31,0.613,0.38,0.96c0.07,0.347,0.098,0.677,0.085,0.99h-3.875
	c-0.007,0.226,0.02,0.44,0.08,0.644c0.06,0.202,0.157,0.382,0.29,0.538c0.134,0.156,0.304,0.281,0.511,0.374s0.451,0.14,0.731,0.14
	c0.36,0,0.656-0.083,0.886-0.249c0.23-0.167,0.382-0.42,0.456-0.759h0.84C89.116,6.08,88.866,6.517,88.479,6.81z M88.277,3.492
	c-0.077-0.181-0.181-0.335-0.311-0.466c-0.13-0.13-0.284-0.233-0.461-0.31c-0.177-0.077-0.372-0.115-0.586-0.115
	c-0.221,0-0.419,0.038-0.597,0.115c-0.177,0.076-0.329,0.182-0.456,0.315c-0.127,0.133-0.227,0.288-0.3,0.465
	c-0.074,0.177-0.117,0.365-0.13,0.565h2.977C88.399,3.862,88.354,3.673,88.277,3.492z"/>
<path d="M90.912,1.972v1.09h0.019c0.205-0.42,0.458-0.73,0.758-0.93c0.3-0.2,0.68-0.294,1.14-0.28V2.75
	c-0.34,0-0.63,0.047-0.87,0.14c-0.24,0.094-0.433,0.23-0.58,0.41c-0.146,0.181-0.253,0.398-0.32,0.655
	c-0.067,0.257-0.1,0.552-0.1,0.886v2.3h-0.852V1.972H90.912z"/>
<path d="M97,0v2.73h0.023c0.066-0.16,0.16-0.295,0.28-0.404c0.12-0.11,0.254-0.2,0.404-0.27c0.15-0.07,0.307-0.122,0.47-0.155
	s0.321-0.05,0.474-0.05c0.34,0,0.623,0.047,0.85,0.14c0.226,0.094,0.409,0.224,0.549,0.391c0.14,0.166,0.238,0.364,0.295,0.595
	c0.057,0.229,0.085,0.484,0.085,0.765v3.399h-0.852V3.642c0-0.32-0.093-0.573-0.28-0.76s-0.443-0.28-0.77-0.28
	c-0.26,0-0.485,0.04-0.674,0.12c-0.19,0.08-0.348,0.193-0.475,0.34c-0.127,0.146-0.222,0.318-0.285,0.515
	C97.032,3.773,97,3.988,97,4.222v2.919h-0.852V0H97z"/>
<path d="M105.319,6.81c-0.387,0.294-0.874,0.44-1.46,0.44c-0.414,0-0.772-0.066-1.076-0.2c-0.303-0.133-0.558-0.319-0.765-0.56
	c-0.207-0.24-0.362-0.526-0.465-0.859c-0.103-0.334-0.162-0.696-0.175-1.09c0-0.394,0.06-0.753,0.18-1.08
	c0.12-0.326,0.289-0.609,0.505-0.85s0.474-0.427,0.771-0.56c0.297-0.134,0.622-0.2,0.976-0.2c0.46,0,0.842,0.095,1.146,0.285
	c0.303,0.19,0.547,0.432,0.73,0.726c0.183,0.293,0.31,0.613,0.38,0.96c0.07,0.347,0.098,0.677,0.085,0.99h-3.875
	c-0.007,0.226,0.02,0.44,0.08,0.644c0.06,0.202,0.157,0.382,0.29,0.538c0.134,0.156,0.304,0.281,0.511,0.374s0.451,0.14,0.731,0.14
	c0.36,0,0.656-0.083,0.886-0.249c0.23-0.167,0.382-0.42,0.456-0.759h0.84C105.956,6.08,105.706,6.517,105.319,6.81z M105.117,3.492
	c-0.077-0.181-0.181-0.335-0.311-0.466c-0.13-0.13-0.284-0.233-0.461-0.31c-0.177-0.077-0.372-0.115-0.586-0.115
	c-0.221,0-0.419,0.038-0.597,0.115c-0.177,0.076-0.329,0.182-0.456,0.315c-0.127,0.133-0.227,0.288-0.3,0.465
	c-0.074,0.177-0.117,0.365-0.13,0.565h2.977C105.239,3.862,105.194,3.673,105.117,3.492z"/>
<path d="M107.025,1.039V0h0.852v1.039H107.025z M107.877,1.971v5.17h-0.852v-5.17H107.877z"/>
<path d="M113.029,8.604c-0.386,0.42-0.993,0.63-1.819,0.63c-0.24,0-0.485-0.026-0.735-0.08s-0.477-0.14-0.68-0.26
	c-0.204-0.12-0.372-0.276-0.505-0.47c-0.134-0.193-0.207-0.43-0.22-0.71h0.852c0.006,0.153,0.055,0.283,0.145,0.39
	s0.2,0.193,0.33,0.26c0.13,0.067,0.271,0.115,0.425,0.146s0.3,0.045,0.44,0.045c0.28,0,0.517-0.048,0.71-0.145s0.354-0.23,0.48-0.4
	c0.126-0.17,0.218-0.375,0.275-0.614c0.057-0.24,0.085-0.504,0.085-0.79v-0.34h-0.02c-0.147,0.319-0.369,0.555-0.666,0.705
	c-0.297,0.149-0.612,0.225-0.946,0.225c-0.387,0-0.724-0.07-1.011-0.21c-0.287-0.141-0.527-0.329-0.721-0.565
	c-0.193-0.237-0.339-0.514-0.436-0.831c-0.097-0.316-0.145-0.651-0.145-1.006c0-0.307,0.04-0.621,0.12-0.945
	c0.08-0.323,0.213-0.617,0.401-0.881c0.187-0.263,0.434-0.479,0.741-0.65c0.307-0.17,0.684-0.255,1.132-0.255
	c0.327,0,0.627,0.071,0.901,0.215c0.274,0.144,0.487,0.358,0.641,0.646h0.01v-0.74h0.797v4.731
	C113.609,7.55,113.416,8.184,113.029,8.604z M111.946,6.278c0.197-0.117,0.356-0.271,0.476-0.461
	c0.121-0.189,0.209-0.404,0.266-0.645c0.057-0.24,0.085-0.48,0.085-0.721c0-0.227-0.027-0.45-0.08-0.67
	c-0.054-0.221-0.139-0.419-0.256-0.596s-0.269-0.318-0.456-0.425s-0.415-0.16-0.682-0.16c-0.274,0-0.508,0.052-0.702,0.155
	s-0.353,0.242-0.476,0.415c-0.124,0.173-0.214,0.373-0.271,0.601c-0.057,0.227-0.085,0.463-0.085,0.71c0,0.233,0.023,0.467,0.07,0.7
	c0.046,0.233,0.127,0.445,0.241,0.635c0.113,0.19,0.264,0.344,0.451,0.461c0.187,0.116,0.421,0.175,0.702,0.175
	S111.749,6.395,111.946,6.278z"/>
<path d="M115.69,0v2.73h0.023c0.066-0.16,0.16-0.295,0.28-0.404c0.12-0.11,0.254-0.2,0.404-0.27c0.15-0.07,0.307-0.122,0.47-0.155
	s0.321-0.05,0.474-0.05c0.34,0,0.623,0.047,0.85,0.14c0.226,0.094,0.409,0.224,0.549,0.391c0.14,0.166,0.238,0.364,0.295,0.595
	c0.057,0.229,0.085,0.484,0.085,0.765v3.399h-0.852V3.642c0-0.32-0.093-0.573-0.28-0.76s-0.443-0.28-0.77-0.28
	c-0.26,0-0.485,0.04-0.674,0.12c-0.19,0.08-0.348,0.193-0.475,0.34c-0.127,0.146-0.222,0.318-0.285,0.515
	c-0.063,0.197-0.095,0.412-0.095,0.646v2.919h-0.852V0H115.69z"/>
<path d="M122.56,1.969v0.75h-1.031v3.212c0,0.1,0.008,0.18,0.025,0.24c0.017,0.06,0.048,0.106,0.095,0.14
	c0.046,0.033,0.112,0.055,0.195,0.065c0.083,0.01,0.192,0.015,0.325,0.015h0.391v0.75h-0.65c-0.22,0-0.409-0.015-0.566-0.045
	c-0.156-0.03-0.283-0.085-0.38-0.165s-0.169-0.193-0.215-0.34c-0.047-0.147-0.07-0.341-0.07-0.581l-0.001-3.291h-0.88v-0.75h0.88
	V0.422h0.852v1.547H122.56z"/>
<path d="M10.919,94.639l0.18-0.74h-0.02c-0.254,0.334-0.515,0.559-0.785,0.675s-0.579,0.175-0.925,0.175
	c-0.327,0-0.617-0.052-0.87-0.155c-0.254-0.103-0.467-0.246-0.64-0.43s-0.303-0.404-0.39-0.665c-0.086-0.26-0.13-0.546-0.13-0.859
	c0-0.394,0.065-0.785,0.195-1.175c0.13-0.39,0.317-0.741,0.56-1.055s0.543-0.568,0.9-0.765c0.357-0.196,0.762-0.295,1.215-0.295
	c0.16,0,0.323,0.015,0.49,0.045s0.325,0.08,0.475,0.15c0.15,0.069,0.282,0.163,0.395,0.28c0.113,0.116,0.197,0.261,0.25,0.435h0.02
	l0.55-2.762h0.84l-1.51,7.141H10.919z M8.505,93.636c0.21,0.247,0.548,0.37,1.015,0.37c0.32,0,0.606-0.083,0.86-0.25
	c0.253-0.166,0.465-0.376,0.635-0.629c0.17-0.253,0.3-0.531,0.39-0.835c0.09-0.303,0.135-0.587,0.135-0.854
	c0-0.387-0.112-0.706-0.335-0.959c-0.223-0.253-0.545-0.38-0.965-0.38c-0.34,0-0.637,0.078-0.89,0.235
	c-0.253,0.156-0.467,0.357-0.64,0.604c-0.173,0.247-0.303,0.52-0.39,0.819c-0.086,0.3-0.13,0.593-0.13,0.88
	C8.19,93.057,8.295,93.39,8.505,93.636z"/>
<path d="M14,92.759c0,0.2,0.037,0.378,0.11,0.534c0.074,0.156,0.173,0.286,0.3,0.389c0.126,0.104,0.27,0.183,0.43,0.239
	c0.16,0.057,0.327,0.085,0.5,0.085c0.38,0,0.693-0.085,0.94-0.255c0.246-0.17,0.43-0.415,0.55-0.735h0.85
	c-0.067,0.287-0.173,0.539-0.32,0.755c-0.146,0.217-0.323,0.397-0.53,0.541c-0.207,0.145-0.437,0.253-0.69,0.326
	s-0.52,0.11-0.8,0.11c-0.427,0-0.781-0.065-1.065-0.195s-0.509-0.296-0.676-0.499c-0.167-0.204-0.284-0.427-0.351-0.67
	s-0.1-0.479-0.1-0.705c0-0.493,0.072-0.944,0.215-1.354c0.144-0.41,0.337-0.762,0.581-1.055c0.243-0.293,0.527-0.521,0.85-0.68
	c0.323-0.16,0.662-0.24,1.016-0.24c0.76,0,1.315,0.2,1.665,0.601C17.825,90.35,18,90.913,18,91.641c0,0.133-0.01,0.26-0.03,0.38
	c-0.02,0.12-0.036,0.217-0.05,0.29h-3.889C14.01,92.457,14,92.606,14,92.759z M17.113,91.025c-0.037-0.177-0.103-0.334-0.2-0.471
	s-0.225-0.247-0.385-0.33s-0.356-0.125-0.59-0.125c-0.247,0-0.468,0.038-0.665,0.115c-0.197,0.076-0.368,0.182-0.515,0.315
	c-0.146,0.133-0.27,0.288-0.37,0.465c-0.101,0.177-0.18,0.365-0.24,0.565h3C17.162,91.381,17.15,91.202,17.113,91.025z"/>
<path d="M21.614,90.325c-0.213-0.15-0.469-0.226-0.768-0.226c-0.126,0-0.256,0.01-0.389,0.03c-0.133,0.02-0.251,0.055-0.354,0.104
	s-0.188,0.117-0.254,0.2s-0.1,0.191-0.1,0.325c0,0.12,0.038,0.223,0.115,0.31s0.18,0.167,0.31,0.24s0.276,0.142,0.439,0.205
	c0.163,0.062,0.328,0.128,0.495,0.194c0.173,0.073,0.341,0.153,0.504,0.24s0.308,0.185,0.434,0.295
	c0.126,0.109,0.23,0.239,0.31,0.39c0.08,0.15,0.12,0.325,0.12,0.524c0,0.287-0.063,0.532-0.19,0.735s-0.29,0.368-0.49,0.494
	c-0.2,0.127-0.425,0.219-0.674,0.275c-0.25,0.057-0.501,0.085-0.755,0.085c-0.3,0-0.576-0.028-0.829-0.085
	c-0.253-0.057-0.472-0.152-0.655-0.285c-0.183-0.134-0.328-0.312-0.435-0.536c-0.106-0.224-0.16-0.502-0.16-0.836h0.844
	c-0.013,0.187,0.015,0.345,0.084,0.476c0.07,0.13,0.167,0.232,0.289,0.31c0.123,0.076,0.266,0.132,0.429,0.165
	c0.163,0.033,0.334,0.05,0.514,0.05c0.14,0,0.279-0.014,0.418-0.04c0.14-0.026,0.266-0.071,0.379-0.135s0.205-0.145,0.274-0.245
	c0.07-0.1,0.105-0.223,0.105-0.369c0-0.127-0.04-0.235-0.12-0.325c-0.08-0.09-0.184-0.172-0.31-0.244
	c-0.126-0.074-0.271-0.143-0.434-0.205c-0.163-0.063-0.328-0.132-0.495-0.205c-0.173-0.066-0.341-0.14-0.504-0.22
	s-0.31-0.175-0.439-0.285c-0.13-0.109-0.233-0.237-0.31-0.385c-0.077-0.146-0.115-0.316-0.115-0.509c0-0.24,0.055-0.453,0.165-0.64
	c0.11-0.187,0.255-0.342,0.435-0.465c0.18-0.123,0.385-0.218,0.615-0.285c0.229-0.066,0.464-0.1,0.704-0.1s0.477,0.028,0.709,0.085
	c0.233,0.057,0.441,0.15,0.625,0.28c0.184,0.13,0.332,0.3,0.445,0.51s0.17,0.466,0.17,0.766h-0.852
	C21.927,90.696,21.827,90.475,21.614,90.325z"/>
<path d="M26.993,90.364C26.8,90.188,26.534,90.1,26.195,90.1c-0.326,0-0.614,0.073-0.863,0.22s-0.459,0.336-0.628,0.569
	c-0.17,0.233-0.298,0.495-0.384,0.784c-0.086,0.29-0.13,0.574-0.13,0.854c0,0.2,0.021,0.39,0.065,0.569
	c0.043,0.18,0.115,0.336,0.215,0.47c0.1,0.133,0.231,0.239,0.394,0.319s0.365,0.12,0.604,0.12c0.366,0,0.679-0.097,0.938-0.288
	c0.259-0.193,0.449-0.448,0.569-0.767h0.849c-0.153,0.586-0.433,1.031-0.839,1.338c-0.406,0.306-0.913,0.459-1.519,0.459
	c-0.706,0-1.237-0.193-1.594-0.58c-0.356-0.386-0.535-0.933-0.535-1.64c0-0.413,0.062-0.81,0.185-1.189
	c0.123-0.38,0.306-0.718,0.549-1.015c0.243-0.296,0.543-0.533,0.899-0.71c0.356-0.176,0.765-0.265,1.224-0.265
	c0.586,0,1.051,0.142,1.395,0.425c0.343,0.283,0.524,0.728,0.544,1.333h-0.852C27.283,90.788,27.186,90.54,26.993,90.364z"/>
<path d="M29.399,92.759c0,0.2,0.037,0.378,0.11,0.534c0.074,0.156,0.173,0.286,0.3,0.389c0.126,0.104,0.27,0.183,0.43,0.239
	c0.16,0.057,0.327,0.085,0.5,0.085c0.38,0,0.693-0.085,0.94-0.255c0.246-0.17,0.43-0.415,0.55-0.735h0.85
	c-0.067,0.287-0.173,0.539-0.32,0.755c-0.146,0.217-0.323,0.397-0.53,0.541c-0.207,0.145-0.437,0.253-0.69,0.326
	s-0.52,0.11-0.8,0.11c-0.427,0-0.781-0.065-1.065-0.195s-0.509-0.296-0.676-0.499c-0.167-0.204-0.284-0.427-0.351-0.67
	s-0.1-0.479-0.1-0.705c0-0.493,0.072-0.944,0.215-1.354c0.144-0.41,0.337-0.762,0.581-1.055c0.243-0.293,0.527-0.521,0.85-0.68
	c0.323-0.16,0.662-0.24,1.016-0.24c0.76,0,1.315,0.2,1.665,0.601c0.351,0.399,0.525,0.963,0.525,1.69c0,0.133-0.01,0.26-0.03,0.38
	c-0.02,0.12-0.036,0.217-0.05,0.29h-3.889C29.41,92.457,29.399,92.606,29.399,92.759z M32.513,91.025
	c-0.037-0.177-0.103-0.334-0.2-0.471s-0.225-0.247-0.385-0.33s-0.356-0.125-0.59-0.125c-0.247,0-0.468,0.038-0.665,0.115
	c-0.197,0.076-0.368,0.182-0.515,0.315c-0.146,0.133-0.27,0.288-0.37,0.465c-0.101,0.177-0.18,0.365-0.24,0.565h3
	C32.561,91.381,32.549,91.202,32.513,91.025z"/>
<path d="M35.625,89.47l-0.16,0.779h0.02c0.213-0.3,0.483-0.524,0.81-0.675c0.327-0.149,0.67-0.225,1.03-0.225
	c0.487,0,0.849,0.106,1.086,0.32c0.237,0.213,0.355,0.55,0.355,1.01c0,0.113-0.014,0.26-0.04,0.439
	c-0.027,0.181-0.063,0.37-0.11,0.57l-0.631,2.949h-0.851l0.66-3.02c0.007-0.053,0.017-0.114,0.03-0.185
	c0.013-0.07,0.026-0.144,0.04-0.221c0.013-0.076,0.025-0.149,0.035-0.22c0.01-0.069,0.015-0.128,0.015-0.175
	c0-0.246-0.087-0.428-0.26-0.545c-0.174-0.116-0.387-0.175-0.64-0.175c-0.233,0-0.465,0.057-0.695,0.17s-0.425,0.257-0.585,0.43
	c-0.153,0.134-0.273,0.295-0.36,0.485c-0.087,0.189-0.157,0.389-0.21,0.595l-0.6,2.859h-0.84l1.08-5.169H35.625z"/>
<path d="M42.517,89.467l-0.16,0.75h-1.03l-0.64,3.039c-0.007,0.06-0.014,0.116-0.02,0.17c-0.007,0.054-0.01,0.11-0.01,0.17
	c0,0.134,0.052,0.225,0.155,0.275c0.103,0.05,0.222,0.074,0.355,0.074c0.086,0,0.17-0.008,0.25-0.024
	c0.08-0.017,0.16-0.039,0.24-0.065l-0.15,0.783c-0.1,0.013-0.2,0.023-0.3,0.033c-0.1,0.009-0.2,0.014-0.3,0.014
	c-0.16,0-0.31-0.012-0.45-0.035c-0.14-0.023-0.262-0.066-0.365-0.13s-0.187-0.148-0.25-0.255s-0.095-0.243-0.095-0.41
	c0-0.073,0.005-0.143,0.015-0.21c0.01-0.066,0.022-0.14,0.035-0.22l0.68-3.209h-0.87l0.16-0.75h0.87l0.32-1.531h0.85l-0.32,1.531
	H42.517z"/>
<path d="M1.88,43.136l-0.19,0.77l0.02,0.021c0.22-0.28,0.485-0.502,0.795-0.665s0.645-0.245,1.005-0.245
	c0.327,0,0.606,0.07,0.84,0.21c0.233,0.141,0.387,0.38,0.46,0.72c0.2-0.279,0.458-0.505,0.775-0.675
	c0.316-0.17,0.648-0.255,0.995-0.255c0.18,0,0.356,0.021,0.53,0.065c0.173,0.043,0.328,0.109,0.465,0.199
	c0.137,0.09,0.246,0.209,0.326,0.355s0.12,0.326,0.12,0.54c0,0.153-0.017,0.326-0.05,0.52s-0.067,0.363-0.101,0.51l-0.654,3.1H6.37
	l0.72-3.279c0.02-0.08,0.038-0.175,0.055-0.285c0.017-0.109,0.025-0.201,0.025-0.274c0-0.2-0.075-0.367-0.225-0.5
	c-0.15-0.134-0.338-0.2-0.565-0.2c-0.12,0-0.242,0.021-0.365,0.06c-0.123,0.041-0.241,0.092-0.354,0.155
	c-0.114,0.063-0.22,0.139-0.32,0.226c-0.1,0.086-0.187,0.176-0.26,0.27c-0.14,0.153-0.244,0.33-0.31,0.529
	c-0.067,0.2-0.124,0.41-0.17,0.631l-0.57,2.669H3.18l0.62-2.949c0.047-0.2,0.085-0.387,0.115-0.56
	c0.03-0.174,0.045-0.29,0.045-0.351c0-0.213-0.062-0.38-0.185-0.5s-0.302-0.18-0.535-0.18s-0.465,0.066-0.695,0.2
	c-0.23,0.133-0.422,0.286-0.575,0.46c-0.18,0.173-0.303,0.348-0.37,0.524c-0.066,0.177-0.126,0.392-0.18,0.645l-0.58,2.71H0
	l1.09-5.169H1.88z"/>
<path d="M9.46,46.425c0,0.2,0.037,0.378,0.11,0.534c0.074,0.156,0.173,0.286,0.3,0.389c0.126,0.104,0.27,0.183,0.43,0.239
	c0.16,0.057,0.327,0.085,0.5,0.085c0.38,0,0.693-0.085,0.94-0.255c0.246-0.17,0.43-0.415,0.55-0.735h0.85
	c-0.067,0.287-0.173,0.539-0.32,0.755c-0.146,0.217-0.323,0.397-0.53,0.541c-0.207,0.145-0.437,0.253-0.69,0.326
	s-0.52,0.11-0.8,0.11c-0.427,0-0.781-0.065-1.065-0.195s-0.509-0.296-0.676-0.499c-0.167-0.204-0.284-0.427-0.351-0.67
	s-0.1-0.479-0.1-0.705c0-0.493,0.072-0.944,0.215-1.354c0.144-0.41,0.337-0.762,0.581-1.055c0.243-0.293,0.527-0.521,0.85-0.68
	c0.323-0.16,0.662-0.24,1.016-0.24c0.76,0,1.315,0.2,1.665,0.601c0.351,0.399,0.525,0.963,0.525,1.69c0,0.133-0.01,0.26-0.03,0.38
	c-0.02,0.12-0.036,0.217-0.05,0.29H9.491C9.47,46.124,9.46,46.273,9.46,46.425z M12.573,44.692c-0.037-0.177-0.103-0.334-0.2-0.471
	s-0.225-0.247-0.385-0.33s-0.356-0.125-0.59-0.125c-0.247,0-0.468,0.038-0.665,0.115c-0.197,0.076-0.368,0.182-0.515,0.315
	c-0.146,0.133-0.27,0.288-0.37,0.465c-0.101,0.177-0.18,0.365-0.24,0.565h3C12.622,45.047,12.61,44.869,12.573,44.692z"/>
<path d="M14.616,43.951c0.137-0.209,0.305-0.385,0.505-0.524c0.2-0.14,0.427-0.243,0.68-0.311c0.253-0.066,0.517-0.1,0.79-0.1
	c0.253,0,0.493,0.021,0.72,0.06c0.227,0.04,0.427,0.11,0.601,0.21c0.173,0.101,0.312,0.235,0.416,0.405s0.155,0.385,0.155,0.645
	c0,0.146-0.019,0.305-0.055,0.475s-0.072,0.324-0.105,0.465l-0.33,1.408c-0.02,0.107-0.048,0.227-0.085,0.36
	c-0.037,0.133-0.055,0.26-0.055,0.38c0,0.119,0.023,0.203,0.07,0.249c0.046,0.047,0.106,0.07,0.18,0.07
	c0.04,0,0.085-0.009,0.135-0.024c0.05-0.018,0.095-0.032,0.135-0.046l-0.13,0.632c-0.067,0.026-0.152,0.052-0.255,0.075
	c-0.104,0.023-0.192,0.035-0.265,0.035c-0.233,0-0.41-0.063-0.53-0.19c-0.12-0.127-0.167-0.305-0.14-0.531l-0.02-0.021
	c-0.18,0.241-0.403,0.425-0.67,0.552s-0.62,0.19-1.06,0.19c-0.22,0-0.425-0.025-0.615-0.075s-0.355-0.133-0.495-0.25
	c-0.14-0.116-0.251-0.267-0.335-0.449c-0.083-0.184-0.125-0.408-0.125-0.675c0-0.38,0.082-0.677,0.245-0.89
	c0.164-0.214,0.372-0.375,0.625-0.485c0.253-0.109,0.533-0.185,0.84-0.225s0.603-0.073,0.89-0.101
	c0.227-0.02,0.421-0.041,0.584-0.064c0.164-0.023,0.298-0.062,0.405-0.115c0.107-0.053,0.185-0.13,0.235-0.229
	c0.05-0.101,0.075-0.236,0.075-0.41c0-0.14-0.034-0.253-0.1-0.34s-0.15-0.155-0.25-0.205s-0.212-0.085-0.335-0.104
	c-0.124-0.021-0.242-0.03-0.355-0.03c-0.16,0-0.318,0.017-0.475,0.05s-0.298,0.089-0.425,0.165c-0.127,0.077-0.233,0.174-0.32,0.29
	c-0.086,0.117-0.143,0.259-0.17,0.425h-0.85C14.391,44.41,14.479,44.162,14.616,43.951z M14.861,47.493
	c0.189,0.12,0.404,0.18,0.644,0.18c0.672,0,1.155-0.227,1.448-0.68c0.14-0.193,0.234-0.403,0.285-0.63
	c0.05-0.227,0.104-0.461,0.165-0.7h-0.02c-0.12,0.087-0.271,0.148-0.454,0.185c-0.183,0.037-0.378,0.065-0.584,0.085
	c-0.207,0.021-0.415,0.045-0.624,0.075c-0.21,0.03-0.398,0.078-0.564,0.145c-0.167,0.067-0.303,0.162-0.409,0.285
	c-0.107,0.124-0.164,0.295-0.17,0.516C14.577,47.193,14.671,47.373,14.861,47.493z"/>
<path d="M20.825,43.136l-0.16,0.779h0.02c0.213-0.3,0.483-0.524,0.81-0.675c0.327-0.149,0.67-0.225,1.03-0.225
	c0.487,0,0.849,0.106,1.086,0.32c0.237,0.213,0.355,0.55,0.355,1.01c0,0.113-0.014,0.26-0.04,0.439
	c-0.027,0.181-0.063,0.37-0.11,0.57l-0.631,2.949h-0.851l0.66-3.02c0.007-0.053,0.017-0.114,0.03-0.185
	c0.013-0.07,0.026-0.144,0.04-0.221c0.013-0.076,0.025-0.149,0.035-0.22c0.01-0.069,0.015-0.128,0.015-0.175
	c0-0.246-0.087-0.428-0.26-0.545c-0.174-0.116-0.387-0.175-0.64-0.175c-0.233,0-0.465,0.057-0.695,0.17s-0.425,0.257-0.585,0.43
	c-0.153,0.134-0.273,0.295-0.36,0.485c-0.087,0.189-0.157,0.389-0.21,0.595l-0.6,2.859h-0.84l1.08-5.169H20.825z"/>
<path d="M29.507,41.165l-1.5,7.141h-0.84l1.49-7.141H29.507z"/>
<path d="M31.256,43.135l-1.08,5.17h-0.84l1.07-5.17H31.256z M30.597,42.204l0.22-1.039h0.86l-0.22,1.039H30.597z"/>
<path d="M33.405,43.136l-0.16,0.779h0.02c0.213-0.3,0.483-0.524,0.81-0.675c0.327-0.149,0.67-0.225,1.03-0.225
	c0.487,0,0.849,0.106,1.085,0.32c0.237,0.213,0.356,0.55,0.356,1.01c0,0.113-0.013,0.26-0.04,0.439
	c-0.027,0.181-0.063,0.37-0.11,0.57l-0.631,2.949h-0.85l0.66-3.02c0.007-0.053,0.017-0.114,0.03-0.185
	c0.014-0.07,0.027-0.144,0.04-0.221c0.014-0.076,0.025-0.149,0.035-0.22c0.01-0.069,0.015-0.128,0.015-0.175
	c0-0.246-0.086-0.428-0.26-0.545c-0.173-0.116-0.387-0.175-0.64-0.175c-0.233,0-0.465,0.057-0.695,0.17s-0.425,0.257-0.585,0.43
	c-0.153,0.134-0.273,0.295-0.36,0.485c-0.086,0.189-0.157,0.389-0.21,0.595l-0.6,2.859h-0.84l1.08-5.169H33.405z"/>
<path d="M38.01,46.425c0,0.2,0.037,0.378,0.11,0.534c0.074,0.156,0.173,0.286,0.3,0.389c0.126,0.104,0.27,0.183,0.43,0.239
	c0.16,0.057,0.327,0.085,0.5,0.085c0.38,0,0.693-0.085,0.94-0.255c0.246-0.17,0.43-0.415,0.55-0.735h0.85
	c-0.067,0.287-0.173,0.539-0.32,0.755c-0.146,0.217-0.323,0.397-0.53,0.541c-0.207,0.145-0.437,0.253-0.69,0.326
	s-0.52,0.11-0.8,0.11c-0.427,0-0.781-0.065-1.065-0.195s-0.509-0.296-0.676-0.499c-0.167-0.204-0.284-0.427-0.351-0.67
	s-0.1-0.479-0.1-0.705c0-0.493,0.072-0.944,0.215-1.354c0.144-0.41,0.337-0.762,0.581-1.055c0.243-0.293,0.527-0.521,0.85-0.68
	c0.323-0.16,0.662-0.24,1.016-0.24c0.76,0,1.315,0.2,1.665,0.601c0.351,0.399,0.525,0.963,0.525,1.69c0,0.133-0.01,0.26-0.03,0.38
	c-0.02,0.12-0.036,0.217-0.05,0.29h-3.889C38.02,46.124,38.01,46.273,38.01,46.425z M41.123,44.692
	c-0.037-0.177-0.103-0.334-0.2-0.471s-0.225-0.247-0.385-0.33s-0.356-0.125-0.59-0.125c-0.247,0-0.468,0.038-0.665,0.115
	c-0.197,0.076-0.368,0.182-0.515,0.315c-0.146,0.133-0.27,0.288-0.37,0.465c-0.101,0.177-0.18,0.365-0.24,0.565h3
	C41.171,45.047,41.16,44.869,41.123,44.692z"/>
<path d="M14.017,2.786c0.137-0.209,0.305-0.385,0.505-0.524c0.2-0.14,0.427-0.243,0.68-0.311c0.253-0.066,0.517-0.1,0.79-0.1
	c0.253,0,0.493,0.021,0.72,0.06c0.227,0.04,0.427,0.11,0.601,0.21c0.173,0.101,0.312,0.235,0.416,0.405s0.155,0.385,0.155,0.645
	c0,0.146-0.019,0.305-0.055,0.475s-0.072,0.324-0.105,0.465l-0.33,1.408c-0.02,0.107-0.048,0.227-0.085,0.36
	c-0.037,0.133-0.055,0.26-0.055,0.38c0,0.119,0.023,0.203,0.07,0.249c0.046,0.047,0.106,0.07,0.18,0.07
	c0.04,0,0.085-0.009,0.135-0.024c0.05-0.018,0.095-0.032,0.135-0.046l-0.13,0.632c-0.067,0.026-0.152,0.052-0.255,0.075
	c-0.104,0.023-0.192,0.035-0.265,0.035c-0.233,0-0.41-0.063-0.53-0.19c-0.12-0.127-0.167-0.305-0.14-0.531l-0.02-0.021
	c-0.18,0.241-0.403,0.425-0.67,0.552s-0.62,0.19-1.06,0.19c-0.22,0-0.425-0.025-0.615-0.075s-0.355-0.133-0.495-0.25
	c-0.14-0.116-0.251-0.267-0.335-0.449c-0.083-0.184-0.125-0.408-0.125-0.675c0-0.38,0.082-0.677,0.245-0.89
	c0.164-0.214,0.372-0.375,0.625-0.485c0.253-0.109,0.533-0.185,0.84-0.225s0.603-0.073,0.89-0.101
	c0.227-0.02,0.421-0.041,0.584-0.064c0.164-0.023,0.298-0.062,0.405-0.115c0.107-0.053,0.185-0.13,0.235-0.229
	c0.05-0.101,0.075-0.236,0.075-0.41c0-0.14-0.034-0.253-0.1-0.34s-0.15-0.155-0.25-0.205s-0.212-0.085-0.335-0.104
	c-0.124-0.021-0.242-0.03-0.355-0.03c-0.16,0-0.318,0.017-0.475,0.05s-0.298,0.089-0.425,0.165c-0.127,0.077-0.233,0.174-0.32,0.29
	c-0.086,0.117-0.143,0.259-0.17,0.425h-0.85C13.792,3.245,13.88,2.997,14.017,2.786z M14.262,6.328
	c0.189,0.12,0.404,0.18,0.644,0.18c0.672,0,1.155-0.227,1.448-0.68c0.14-0.193,0.234-0.403,0.285-0.63
	c0.05-0.227,0.104-0.461,0.165-0.7h-0.02c-0.12,0.087-0.271,0.148-0.454,0.185c-0.183,0.037-0.378,0.065-0.584,0.085
	c-0.207,0.021-0.415,0.045-0.624,0.075c-0.21,0.03-0.398,0.078-0.564,0.145c-0.167,0.067-0.303,0.162-0.409,0.285
	c-0.107,0.124-0.164,0.295-0.17,0.516C13.977,6.028,14.072,6.208,14.262,6.328z"/>
<path d="M21.615,2.827c-0.212-0.15-0.469-0.226-0.768-0.226c-0.126,0-0.256,0.01-0.389,0.03c-0.133,0.02-0.251,0.055-0.354,0.104
	s-0.188,0.117-0.254,0.2s-0.1,0.191-0.1,0.325c0,0.12,0.038,0.223,0.115,0.31s0.18,0.167,0.31,0.24s0.276,0.142,0.439,0.205
	c0.163,0.062,0.328,0.128,0.495,0.194c0.173,0.073,0.341,0.153,0.504,0.24s0.308,0.185,0.435,0.295
	c0.126,0.109,0.23,0.239,0.31,0.39c0.08,0.15,0.12,0.325,0.12,0.524c0,0.287-0.063,0.532-0.19,0.735s-0.29,0.368-0.49,0.494
	c-0.2,0.127-0.425,0.219-0.675,0.275c-0.25,0.057-0.501,0.085-0.754,0.085c-0.3,0-0.576-0.028-0.83-0.085
	c-0.253-0.057-0.471-0.152-0.654-0.285c-0.184-0.134-0.328-0.312-0.435-0.536c-0.107-0.224-0.16-0.502-0.16-0.836h0.844
	c-0.014,0.187,0.015,0.345,0.085,0.476c0.069,0.13,0.166,0.232,0.289,0.31c0.123,0.076,0.266,0.132,0.429,0.165
	c0.163,0.033,0.334,0.05,0.513,0.05c0.14,0,0.279-0.014,0.418-0.04s0.266-0.071,0.379-0.135s0.204-0.145,0.274-0.245
	c0.069-0.1,0.104-0.223,0.104-0.369c0-0.127-0.04-0.235-0.12-0.325c-0.08-0.09-0.183-0.172-0.31-0.244
	c-0.126-0.074-0.271-0.143-0.435-0.205c-0.163-0.063-0.328-0.132-0.494-0.205c-0.173-0.066-0.341-0.14-0.504-0.22
	s-0.31-0.175-0.439-0.285c-0.13-0.109-0.233-0.237-0.31-0.385c-0.077-0.146-0.115-0.316-0.115-0.509c0-0.24,0.055-0.453,0.165-0.64
	c0.109-0.187,0.254-0.342,0.435-0.465c0.18-0.123,0.385-0.218,0.614-0.285c0.23-0.066,0.465-0.1,0.705-0.1s0.477,0.028,0.709,0.085
	c0.233,0.057,0.441,0.15,0.625,0.28s0.332,0.3,0.445,0.51s0.17,0.466,0.17,0.766h-0.852C21.927,3.198,21.828,2.976,21.615,2.827z"/>
<path d="M26.994,2.866c-0.193-0.177-0.459-0.265-0.798-0.265c-0.326,0-0.614,0.073-0.863,0.22s-0.459,0.336-0.629,0.569
	c-0.169,0.233-0.297,0.495-0.384,0.784c-0.087,0.29-0.13,0.574-0.13,0.854c0,0.2,0.021,0.39,0.065,0.569
	c0.043,0.18,0.115,0.336,0.214,0.47c0.1,0.133,0.231,0.239,0.395,0.319s0.365,0.12,0.604,0.12c0.366,0,0.679-0.097,0.938-0.288
	c0.26-0.193,0.449-0.448,0.569-0.767h0.849c-0.153,0.586-0.433,1.031-0.839,1.338c-0.406,0.306-0.913,0.459-1.519,0.459
	c-0.707,0-1.238-0.193-1.594-0.58c-0.356-0.386-0.535-0.933-0.535-1.64c0-0.413,0.062-0.81,0.185-1.189
	c0.124-0.38,0.307-0.718,0.55-1.015c0.243-0.296,0.543-0.533,0.899-0.71c0.356-0.176,0.765-0.265,1.225-0.265
	c0.586,0,1.051,0.142,1.394,0.425c0.343,0.283,0.525,0.728,0.545,1.333h-0.852C27.283,3.29,27.187,3.042,26.994,2.866z"/>
<path d="M29.4,5.26c0,0.2,0.037,0.378,0.11,0.534s0.173,0.286,0.3,0.389c0.126,0.104,0.27,0.183,0.43,0.239
	c0.16,0.057,0.326,0.085,0.5,0.085c0.38,0,0.693-0.085,0.939-0.255c0.247-0.17,0.43-0.415,0.55-0.735h0.85
	c-0.067,0.287-0.173,0.539-0.32,0.755c-0.146,0.217-0.323,0.397-0.53,0.541c-0.207,0.145-0.437,0.253-0.69,0.326
	c-0.253,0.073-0.52,0.11-0.8,0.11c-0.427,0-0.782-0.065-1.065-0.195s-0.509-0.296-0.676-0.499c-0.167-0.204-0.284-0.427-0.351-0.67
	s-0.1-0.479-0.1-0.705c0-0.493,0.072-0.944,0.215-1.354c0.143-0.41,0.336-0.762,0.58-1.055c0.243-0.293,0.526-0.521,0.85-0.68
	c0.324-0.16,0.662-0.24,1.015-0.24c0.761,0,1.315,0.2,1.666,0.601c0.35,0.399,0.525,0.963,0.525,1.69c0,0.133-0.01,0.26-0.03,0.38
	c-0.021,0.12-0.037,0.217-0.05,0.29h-3.889C29.41,4.958,29.4,5.108,29.4,5.26z M32.513,3.527c-0.037-0.177-0.103-0.334-0.2-0.471
	s-0.225-0.247-0.385-0.33c-0.16-0.083-0.356-0.125-0.59-0.125c-0.247,0-0.468,0.038-0.665,0.115
	c-0.197,0.076-0.368,0.182-0.515,0.315c-0.146,0.133-0.27,0.288-0.37,0.465c-0.1,0.177-0.18,0.365-0.24,0.565h3
	C32.562,3.882,32.55,3.704,32.513,3.527z"/>
<path d="M35.625,1.971l-0.16,0.779h0.02c0.213-0.3,0.483-0.524,0.81-0.675c0.327-0.149,0.67-0.225,1.03-0.225
	c0.487,0,0.849,0.106,1.086,0.32c0.237,0.213,0.355,0.55,0.355,1.01c0,0.113-0.014,0.26-0.04,0.439
	c-0.027,0.181-0.063,0.37-0.11,0.57L37.985,7.14h-0.851l0.66-3.02c0.007-0.053,0.017-0.114,0.03-0.185
	c0.013-0.07,0.026-0.144,0.04-0.221c0.013-0.076,0.025-0.149,0.035-0.22c0.01-0.069,0.015-0.128,0.015-0.175
	c0-0.246-0.087-0.428-0.26-0.545c-0.174-0.116-0.387-0.175-0.64-0.175c-0.233,0-0.465,0.057-0.695,0.17s-0.425,0.257-0.585,0.43
	c-0.153,0.134-0.273,0.295-0.36,0.485c-0.087,0.189-0.157,0.389-0.21,0.595l-0.6,2.859h-0.84l1.08-5.169H35.625z"/>
<path d="M42.517,1.968l-0.16,0.75h-1.03l-0.64,3.039c-0.007,0.06-0.014,0.116-0.02,0.17c-0.007,0.054-0.01,0.11-0.01,0.17
	c0,0.134,0.052,0.225,0.155,0.275c0.104,0.05,0.222,0.074,0.355,0.074c0.086,0,0.17-0.008,0.25-0.024s0.16-0.039,0.24-0.065
	l-0.15,0.783c-0.1,0.013-0.2,0.023-0.3,0.033c-0.1,0.009-0.2,0.014-0.3,0.014c-0.16,0-0.31-0.012-0.45-0.035
	c-0.14-0.023-0.262-0.066-0.365-0.13s-0.187-0.148-0.25-0.255s-0.095-0.243-0.095-0.41c0-0.073,0.005-0.143,0.015-0.21
	c0.01-0.066,0.021-0.14,0.035-0.22l0.68-3.209h-0.87l0.16-0.75h0.87l0.32-1.531h0.85l-0.32,1.531H42.517z"/>
<path opacity="0.7" d="M317.878,42.144l2.831,1.024c-1.333-1.53-2.593-3.998-3.331-5.987c-0.738,1.989-1.998,4.458-3.331,5.987
	l2.831-1.024v18.144l-2.831-1.024c1.333,1.53,2.593,3.998,3.331,5.987c0.738-1.989,1.998-4.458,3.331-5.987l-2.831,1.024V42.144z"/>
<path d="M324.289,49.044h1.09l1.24,1.811l1.29-1.811h1.02l-1.78,2.381l2,2.791h-1.09l-1.44-2.141l-1.44,2.141h-1.03l1.94-2.721
	L324.289,49.044z"/>
<path d="M332.579,51.036v0.797h-2.89v-0.797H332.579z"/>
<path d="M334.521,47.075v2.73h0.023c0.066-0.16,0.16-0.295,0.28-0.404c0.12-0.11,0.254-0.2,0.404-0.27s0.307-0.122,0.47-0.155
	s0.321-0.05,0.474-0.05c0.34,0,0.623,0.047,0.85,0.14c0.226,0.093,0.409,0.223,0.549,0.39c0.14,0.167,0.238,0.365,0.295,0.595
	s0.085,0.485,0.085,0.765v3.399h-0.852v-3.499c0-0.32-0.093-0.573-0.28-0.76c-0.187-0.187-0.443-0.28-0.77-0.28
	c-0.26,0-0.485,0.04-0.674,0.12c-0.19,0.08-0.348,0.193-0.475,0.34c-0.127,0.146-0.222,0.318-0.285,0.515
	c-0.063,0.197-0.095,0.412-0.095,0.645v2.919h-0.852v-7.141H334.521z"/>
<path d="M342.84,53.885c-0.387,0.293-0.874,0.44-1.46,0.44c-0.414,0-0.772-0.066-1.075-0.2c-0.304-0.133-0.559-0.319-0.766-0.56
	c-0.207-0.24-0.362-0.526-0.465-0.86c-0.104-0.333-0.162-0.696-0.175-1.089c0-0.394,0.06-0.753,0.18-1.08
	c0.12-0.326,0.289-0.609,0.505-0.85c0.217-0.24,0.474-0.427,0.771-0.56c0.297-0.134,0.622-0.2,0.976-0.2
	c0.46,0,0.842,0.095,1.146,0.285s0.547,0.432,0.73,0.725s0.31,0.614,0.38,0.96c0.07,0.347,0.098,0.677,0.085,0.99h-3.875
	c-0.007,0.226,0.02,0.44,0.08,0.644c0.06,0.203,0.157,0.382,0.291,0.538c0.133,0.156,0.303,0.281,0.51,0.374
	c0.207,0.093,0.451,0.14,0.731,0.14c0.36,0,0.655-0.083,0.886-0.25c0.23-0.166,0.382-0.419,0.456-0.758h0.84
	C343.477,53.155,343.227,53.592,342.84,53.885z M342.638,50.567c-0.077-0.18-0.181-0.335-0.311-0.465
	c-0.13-0.13-0.284-0.233-0.461-0.31c-0.177-0.077-0.373-0.115-0.586-0.115c-0.221,0-0.419,0.039-0.596,0.115
	c-0.177,0.077-0.329,0.182-0.456,0.315s-0.228,0.289-0.301,0.465c-0.074,0.177-0.117,0.365-0.13,0.565h2.977
	C342.76,50.938,342.715,50.748,342.638,50.567z"/>
<path d="M344.546,48.114v-1.039h0.852v1.039H344.546z M345.398,49.046v5.17h-0.852v-5.17H345.398z"/>
<path d="M350.55,55.679c-0.387,0.42-0.993,0.63-1.819,0.63c-0.24,0-0.485-0.027-0.735-0.08s-0.477-0.14-0.68-0.26
	s-0.371-0.276-0.505-0.47c-0.133-0.193-0.206-0.43-0.22-0.71h0.852c0.007,0.153,0.055,0.283,0.145,0.39
	c0.09,0.107,0.2,0.193,0.33,0.26c0.131,0.066,0.272,0.115,0.426,0.145c0.153,0.03,0.3,0.045,0.439,0.045
	c0.28,0,0.518-0.048,0.711-0.145s0.354-0.23,0.479-0.4c0.127-0.17,0.219-0.375,0.275-0.615s0.085-0.503,0.085-0.79v-0.34h-0.02
	c-0.147,0.32-0.369,0.555-0.666,0.705s-0.613,0.225-0.947,0.225c-0.387,0-0.724-0.07-1.011-0.21s-0.527-0.329-0.721-0.565
	c-0.194-0.237-0.339-0.514-0.437-0.831c-0.096-0.317-0.145-0.652-0.145-1.006c0-0.307,0.04-0.622,0.12-0.946
	c0.08-0.323,0.214-0.617,0.4-0.88c0.187-0.264,0.435-0.48,0.741-0.65c0.307-0.17,0.685-0.255,1.132-0.255
	c0.327,0,0.628,0.072,0.901,0.215c0.273,0.144,0.487,0.359,0.641,0.646h0.01v-0.74h0.797v4.731
	C351.13,54.625,350.937,55.259,350.55,55.679z M349.467,53.354c0.197-0.117,0.356-0.271,0.476-0.46
	c0.121-0.19,0.209-0.405,0.267-0.645c0.057-0.24,0.085-0.48,0.085-0.721c0-0.227-0.027-0.45-0.08-0.67
	c-0.054-0.22-0.139-0.418-0.256-0.595s-0.27-0.319-0.456-0.425c-0.188-0.106-0.415-0.16-0.682-0.16
	c-0.274,0-0.509,0.052-0.702,0.155s-0.353,0.242-0.477,0.415c-0.123,0.173-0.213,0.374-0.271,0.6
	c-0.057,0.227-0.085,0.463-0.085,0.71c0,0.233,0.023,0.467,0.07,0.7s0.127,0.445,0.24,0.635s0.264,0.343,0.451,0.46
	c0.188,0.116,0.422,0.175,0.702,0.175S349.27,53.47,349.467,53.354z"/>
<path d="M353.21,47.075v2.73h0.023c0.066-0.16,0.16-0.295,0.28-0.404c0.12-0.11,0.255-0.2,0.404-0.27s0.307-0.122,0.47-0.155
	s0.321-0.05,0.475-0.05c0.34,0,0.623,0.047,0.849,0.14c0.227,0.093,0.409,0.223,0.55,0.39c0.14,0.167,0.238,0.365,0.295,0.595
	s0.084,0.485,0.084,0.765v3.399h-0.852v-3.499c0-0.32-0.093-0.573-0.279-0.76c-0.187-0.187-0.443-0.28-0.77-0.28
	c-0.26,0-0.484,0.04-0.674,0.12c-0.19,0.08-0.349,0.193-0.476,0.34c-0.126,0.146-0.222,0.318-0.284,0.515
	c-0.063,0.197-0.096,0.412-0.096,0.645v2.919h-0.852v-7.141H353.21z"/>
<path d="M360.08,49.044v0.75h-1.031v3.212c0,0.1,0.009,0.18,0.025,0.24s0.049,0.107,0.096,0.14c0.046,0.033,0.111,0.055,0.195,0.065
	c0.083,0.01,0.191,0.015,0.324,0.015h0.391v0.75h-0.65c-0.22,0-0.408-0.015-0.565-0.045c-0.156-0.03-0.283-0.085-0.38-0.165
	s-0.169-0.193-0.215-0.34c-0.047-0.147-0.07-0.34-0.07-0.58l-0.002-3.292h-0.879v-0.75h0.879v-1.547h0.852v1.547H360.08z"/>
</svg>
