<?xml version="1.0" encoding="utf-8"?>
<!-- Generator: Adobe Illustrator 17.1.0, SVG Export Plug-In . SVG Version: 6.00 Build 0)  -->
<!DOCTYPE svg PUBLIC "-//W3C//DTD SVG 1.1//EN" "http://www.w3.org/Graphics/SVG/1.1/DTD/svg11.dtd">
<svg version="1.1" id="Layer_1" xmlns="http://www.w3.org/2000/svg" xmlns:xlink="http://www.w3.org/1999/xlink" x="0px" y="0px"
	 viewBox="0 0 158.5 295.5" enable-background="new 0 0 158.5 295.5" xml:space="preserve">
<rect x="0.5" y="0.5" fill="#FFFFFF" stroke="#000000" stroke-miterlimit="10" width="157.5" height="294.5"/>
<g>
	<rect x="10.4" y="10.4" fill="none" stroke="#000000" stroke-miterlimit="10" width="137.7" height="55.6"/>
	<g>
		<g>
			<line fill="none" stroke="#000000" stroke-miterlimit="10" x1="23.5" y1="22.3" x2="125.1" y2="22.3"/>
			<g>
				<path d="M131.2,22.3c-2.8,1.1-6.4,2.9-8.5,4.8l1.7-4.8l-1.7-4.8C124.8,19.5,128.3,21.3,131.2,22.3z"/>
			</g>
		</g>
	</g>
	<g>
		<g>
			<line fill="none" stroke="#000000" stroke-miterlimit="10" x1="23.5" y1="37.3" x2="125.1" y2="37.3"/>
			<g>
				<path d="M131.2,37.3c-2.8,1.1-6.4,2.9-8.5,4.8l1.7-4.8l-1.7-4.8C124.8,34.5,128.3,36.3,131.2,37.3z"/>
			</g>
		</g>
	</g>
	<g>
		<g>
			<line fill="none" stroke="#000000" stroke-miterlimit="10" x1="23.5" y1="52.3" x2="125.1" y2="52.3"/>
			<g>
				<path d="M131.2,52.3c-2.8,1.1-6.4,2.9-8.5,4.8l1.7-4.8l-1.7-4.8C124.8,49.5,128.3,51.3,131.2,52.3z"/>
			</g>
		</g>
	</g>
</g>
<g>
	<rect x="40.2" y="106.8" fill="none" stroke="#000000" stroke-miterlimit="10" width="78.1" height="64.2"/>
	<g>
		<g>
			<line fill="none" stroke="#000000" stroke-miterlimit="10" x1="109.9" y1="115.3" x2="109.9" y2="156.7"/>
			<g>
				<path d="M109.9,162.8c-1.1-2.8-2.9-6.4-4.8-8.5l4.8,1.7l4.8-1.7C112.8,156.4,111,159.9,109.9,162.8z"/>
			</g>
		</g>
	</g>
	<g>
		<g>
			<line fill="none" stroke="#000000" stroke-miterlimit="10" x1="94.9" y1="115.3" x2="94.9" y2="156.7"/>
			<g>
				<path d="M94.9,162.8c-1.1-2.8-2.9-6.4-4.8-8.5l4.8,1.7l4.8-1.7C97.8,156.4,96,159.9,94.9,162.8z"/>
			</g>
		</g>
	</g>
	<g>
		<g>
			<line fill="none" stroke="#000000" stroke-miterlimit="10" x1="79.9" y1="115.3" x2="79.9" y2="156.7"/>
			<g>
				<path d="M79.9,162.8c-1.1-2.8-2.9-6.4-4.8-8.5l4.8,1.7l4.8-1.7C82.8,156.4,81,159.9,79.9,162.8z"/>
			</g>
		</g>
	</g>
	<g>
		<g>
			<line fill="none" stroke="#000000" stroke-miterlimit="10" x1="64.9" y1="115.3" x2="64.9" y2="156.7"/>
			<g>
				<path d="M64.9,162.8c-1.1-2.8-2.9-6.4-4.8-8.5l4.8,1.7l4.8-1.7C67.8,156.4,66,159.9,64.9,162.8z"/>
			</g>
		</g>
	</g>
	<g>
		<g>
			<line fill="none" stroke="#000000" stroke-miterlimit="10" x1="49.9" y1="115.3" x2="49.9" y2="156.7"/>
			<g>
				<path d="M49.9,162.8c-1.1-2.8-2.9-6.4-4.8-8.5l4.8,1.7l4.8-1.7C52.8,156.4,51,159.9,49.9,162.8z"/>
			</g>
		</g>
	</g>
</g>
<g>
	<rect x="10.4" y="226.8" fill="none" stroke="#000000" stroke-miterlimit="10" width="137.7" height="55.6"/>
	<g>
		<g>
			<line fill="none" stroke="#000000" stroke-miterlimit="10" x1="23.5" y1="238.7" x2="125.1" y2="238.7"/>
			<g>
				<path d="M131.2,238.7c-2.8,1.1-6.4,2.9-8.5,4.8l1.7-4.8l-1.7-4.8C124.8,235.9,128.3,237.6,131.2,238.7z"/>
			</g>
		</g>
	</g>
	<g>
		<g>
			<line fill="none" stroke="#000000" stroke-miterlimit="10" x1="23.5" y1="253.7" x2="125.1" y2="253.7"/>
			<g>
				<path d="M131.2,253.7c-2.8,1.1-6.4,2.9-8.5,4.8l1.7-4.8l-1.7-4.8C124.8,250.9,128.3,252.6,131.2,253.7z"/>
			</g>
		</g>
	</g>
	<g>
		<g>
			<line fill="none" stroke="#000000" stroke-miterlimit="10" x1="23.5" y1="268.7" x2="125.1" y2="268.7"/>
			<g>
				<path d="M131.2,268.7c-2.8,1.1-6.4,2.9-8.5,4.8l1.7-4.8l-1.7-4.8C124.8,265.9,128.3,267.6,131.2,268.7z"/>
			</g>
		</g>
	</g>
</g>
<g>
	<g>
		<g>
			<line fill="none" stroke="#F7941D" stroke-miterlimit="10" x1="11.5" y1="128.3" x2="39.1" y2="128.3"/>
			<g>
				<polygon fill="#F7941D" points="14.8,132.3 15.5,131.6 11.9,128.3 15.5,124.9 14.8,124.2 10.4,128.3 				"/>
			</g>
			<g>
				<polygon fill="#F7941D" points="35.8,132.3 35.1,131.6 38.7,128.3 35.1,124.9 35.8,124.2 40.2,128.3 				"/>
			</g>
		</g>
	</g>
	<text transform="matrix(1 0 0 1 11.8826 122.5861)" fill="#F7941D" font-family="'Verdana'" font-size="12">auto</text>
</g>
<g>
	<g>
		<line fill="none" stroke="#F7941D" stroke-miterlimit="10" x1="45.2" y1="67.1" x2="45.2" y2="105.7"/>
		<g>
			<polygon fill="#F7941D" points="41.1,70.4 41.8,71.1 45.2,67.5 48.5,71.1 49.3,70.4 45.2,66 			"/>
		</g>
		<g>
			<polygon fill="#F7941D" points="41.1,102.4 41.8,101.7 45.2,105.3 48.5,101.7 49.3,102.4 45.2,106.8 			"/>
		</g>
	</g>
</g>
<text transform="matrix(1 0 0 1 47.833 83.2527)" fill="#F7941D" font-family="'Verdana'" font-size="12">margin collapsing</text>
<g>
	<g>
		<line fill="none" stroke="#F7941D" stroke-miterlimit="10" x1="45.2" y1="172.1" x2="45.2" y2="225.7"/>
		<g>
			<polygon fill="#F7941D" points="41.1,175.4 41.8,176.1 45.2,172.5 48.5,176.1 49.3,175.4 45.2,171 			"/>
		</g>
		<g>
			<polygon fill="#F7941D" points="41.1,222.4 41.8,221.7 45.2,225.3 48.5,221.7 49.3,222.4 45.2,226.8 			"/>
		</g>
	</g>
</g>
<text transform="matrix(1 0 0 1 47.8328 218.5861)" fill="#F7941D" font-family="'Verdana'" font-size="12">margin collapsing</text>
<g>
	<g>
		<line fill="none" stroke="#00AEEF" stroke-miterlimit="10" x1="41.3" y1="179.3" x2="117.2" y2="179.3"/>
		<g>
			<polygon fill="#00AEEF" points="44.6,183.3 45.3,182.6 41.7,179.3 45.3,175.9 44.6,175.2 40.2,179.3 			"/>
		</g>
		<g>
			<polygon fill="#00AEEF" points="113.9,183.3 113.2,182.6 116.8,179.3 113.2,175.9 113.9,175.2 118.3,179.3 			"/>
		</g>
	</g>
</g>
<text transform="matrix(1 0 0 1 52.5 189.9193)" fill="#00AEEF" font-family="'Verdana'" font-size="12">block size</text>
<g>
	<line fill="#00AEEF" x1="124.2" y1="106.8" x2="124.2" y2="171"/>
	<g>
		<line fill="none" stroke="#00AEEF" stroke-miterlimit="10" x1="124.2" y1="107.8" x2="124.2" y2="169.9"/>
		<g>
			<polygon fill="#00AEEF" points="120.1,111.2 120.8,111.8 124.2,108.2 127.5,111.8 128.3,111.2 124.2,106.8 			"/>
		</g>
		<g>
			<polygon fill="#00AEEF" points="120.1,166.6 120.8,165.9 124.2,169.5 127.5,165.9 128.3,166.6 124.2,171 			"/>
		</g>
	</g>
</g>
<text transform="matrix(0 1 -1 0 129.502 133.5861)" fill="#00AEEF" font-family="'Verdana'" font-size="12">inline size</text>
<g>
	<g>
		<g>
			<line fill="none" stroke="#F7941D" stroke-miterlimit="10" x1="119.4" y1="128.3" x2="147" y2="128.3"/>
			<g>
				<polygon fill="#F7941D" points="122.7,132.3 123.4,131.6 119.8,128.3 123.4,124.9 122.7,124.2 118.3,128.3 				"/>
			</g>
			<g>
				<polygon fill="#F7941D" points="143.7,132.3 143,131.6 146.6,128.3 143,124.9 143.7,124.2 148.1,128.3 				"/>
			</g>
		</g>
	</g>
	<text transform="matrix(1 0 0 1 119.8049 122.5861)" fill="#F7941D" font-family="'Verdana'" font-size="12">auto</text>
</g>
</svg>
