<svg xmlns="http://www.w3.org/2000/svg" width="588" height="199" style="background:#fff" viewBox="0 0 588 199">
  <g fill="none" fill-rule="evenodd">
    <rect width="582" height="192" x="3" y="4" stroke="#979797" stroke-width="2"/>
    <path stroke="#000" stroke-linecap="square" stroke-width="6" d="M194 18.5L194 183M393 18.5L393 184"/>
    <text fill="#000" font-family="ArialMT, Arial" font-size="18">
      <tspan x="14" y="31">Following his own </tspan> <tspan x="14" y="51">account, Lunardi&apos;s </tspan> <tspan x="14" y="71">first act on finding </tspan> <tspan x="14" y="91">himself fairly above </tspan> <tspan x="14" y="111">the town was to </tspan> <tspan x="14" y="131">fortify himself with </tspan> <tspan x="14" y="151">some glasses of </tspan> <tspan x="14" y="171">wine, and to devour </tspan>
    </text>
    <text fill="#000" font-family="ArialMT, Arial" font-size="18">
      <tspan x="214" y="30">the leg of a </tspan> <tspan x="214" y="50">chicken. He </tspan> <tspan x="214" y="70">describes the city </tspan> <tspan x="214" y="90">as a vast beehive, </tspan> <tspan x="214" y="110">St. Paul’s and other </tspan> <tspan x="214" y="130">churches standing </tspan> <tspan x="214" y="150">out prominently; the</tspan> <tspan x="214" y="170">streets shrunk to</tspan>
    </text>
    <text fill="#000" font-family="ArialMT, Arial" font-size="18">
      <tspan x="414" y="30">lines, and all </tspan> <tspan x="414" y="50">humanity </tspan> <tspan x="414" y="70">apparently </tspan> <tspan x="414" y="90">transfixed and </tspan> <tspan x="414" y="110">watching him. A </tspan> <tspan x="414" y="130">little later he is </tspan> <tspan x="414" y="150">equally struck by </tspan> <tspan x="414" y="170">the view of the</tspan>
    </text>
  </g>
</svg>
