<!-- vim: set expandtab ts=2 sw=2 tw=80: -->
<svg xmlns="http://www.w3.org/2000/svg"
  xmlns:xlink="http://www.w3.org/1999/xlink"
  width="100%" height="100%" viewBox="0 0 500 473">
  <defs>
    <style type="text/css">
    svg {
      font-size: 19px;
      font-family: sans-serif;
    }

    /*
     * Line work
     */
    .tick {
      stroke: black;
      stroke-width: 1;
      fill: none;
    }
    .arrowLine {
      stroke: black;
      stroke-width: 1.5;
      marker-end: url(#arrow);
      fill: none;
    }
    .activeSpan  {
      fill: paleturquoise;
      stroke: black;
    }
    .tLine {
      stroke: blue;
      stroke-width: 4;
      stroke-dasharray: 3 10;
      stroke-linecap: round;
    }
    .tLineLabel {
      fill: blue;
      font-size: 25px;
      font-style: italic;
    }
    .tLineNum {
      fill: blue;
      font-size: 15px;
      font-style: italic;
    }

    /* Text labels */
    .timelineLabel {
      font-size: 0.8em;
    }
    .tickLabel {
      font-size: 0.8em;
      text-anchor: middle;
    }
    .animationLabel {
      text-anchor: start;
      font-size: 15px;
    }
    </style>

    <!-- Arrows -->
    <style type="text/css">
      .blackArrowHead {
        fill: black;
        stroke: none;
      }
    </style>
    <marker id="arrow" viewBox="0 -5 10 10" orient="auto" markerWidth="5"
      markerHeight="5">
      <path d="M0-5l10 5l-10 5z" class="blackArrowHead"/>
    </marker>
    <!-- Timeline -->
    <g id="timeline">
      <text y="0.1em" class="timelineLabel">Timeline</text>
      <g transform="translate(0 15)">
        <line x2="480" class="arrowLine"/>
        <path d="M0-5v10m120-10v10m120-10v10m120-10v10" class="tick"/>
        <g class="tickLabel">
          <text x="0" y="1.3em">0</text>
          <text x="120" y="1.3em">1</text>
          <text x="240" y="1.3em">2</text>
          <text x="360" y="1.3em">3</text>
        </g>
      </g>
    </g>
  </defs>
  <!-- (a) Initial state -->
  <g transform="translate(0 15)">
    <text x="5" y="0.1em">(a) Initial state</text>
    <use xlink:href="#timeline" x="10" y="25"/>
    <g transform="translate(130 110)">
      <rect y="30" width="240" height="50" class="activeSpan"/>
      <path d="M0 0h360" class="arrowLine"/>
      <path d="M0-5v10m120-10v10m120-10v10" class="tick"/>
      <text y="-17" class="timelineLabel">Player current time</text>
      <g transform="translate(0 20)" class="tickLabel">
        <text x="0">0</text>
        <text x="120">1</text>
        <text x="240">2</text>
      </g>
      <text x="15" y="60" class="animationLabel">Source content</text>
    </g>
  </g>
  <!-- (b) Seeked result -->
  <g transform="translate(0 265)">
    <text x="5" y="0.1em">(b) After seeking current time to 2s</text>
    <use xlink:href="#timeline" x="10" y="25"/>
    <g transform="translate(70 110)">
      <rect y="30" width="240" height="50" class="activeSpan"/>
      <path d="M0 0h360" class="arrowLine"/>
      <path d="M0-5v10m120-10v10m120-10v10" class="tick"/>
      <text y="-20" class="timelineLabel">Player current time&#x2032;</text>
      <g transform="translate(0 20)" class="tickLabel">
        <text x="0">0</text>
        <text x="120">1</text>
      </g>
      <text x="15" y="60" class="animationLabel">Source content</text>
    </g>
  </g>
  <!-- Dotted 't' line -->
  <g transform="translate(310 20)">
    <path d="M0 0v450" class="tLine"/>
    <text x="5" y="5" class="tLineLabel">t</text>
    <text x="5" y="30" class="tLineNum">2.5</text>
    <text x="5" y="100" class="tLineNum">1.5</text>
    <text x="5" y="280" class="tLineNum">2.5</text>
    <text x="5" y="350" class="tLineNum">2</text>
  </g>
</svg>
