<!-- vim: set expandtab ts=2 sw=2 tw=80: -->
<svg xmlns="http://www.w3.org/2000/svg"
  xmlns:xlink="http://www.w3.org/1999/xlink"
  width="100%" height="100%" viewBox="35 -2 470 605">
  <defs>
    <style type="text/css">
    svg {
      font-size: 18px;
      font-family: sans-serif;
    }

    /*
     * Line work
     */
    .arrowLine {
      stroke: black;
      stroke-width: 1.5;
      fill: none;
      marker-end: url(#arrow);
    }
    </style>

    <!-- Arrows -->
    <style type="text/css">
      .blackArrowHead {
        fill: black;
        stroke: none;
      }
    </style>
    <marker id="arrow" viewBox="0 -5 10 10" orient="auto" markerWidth="5"
      markerHeight="5">
      <path d="M0-5l10 5l-10 5z" class="blackArrowHead"/>
    </marker>
    <marker id="reverseArrow" viewBox="-10 -5 10 10" orient="auto"
      markerWidth="5" markerHeight="5">
      <path d="M0-5l-10 5l10 5z" class="blackArrowHead"/>
    </marker>

    <!-- Star -->
    <style type="text/css">
      .startTimeStar {
        stroke: blue;
        stroke-linecap: round;
        stroke-width: 2;
        fill: none;
      }
    </style>
    <path d="M-3.5-3.5l7 7M3.5-3.5l-7 7M0-5v10M-5 0h10"
      class="startTimeStar" id="star"/>
    
    <!-- Document -->
    <style type="text/css">
      .document {
        fill: lightgreen;
        stroke: black;
        stroke-width: 2;
      }
    </style>
    <g id="document">
      <path d="M0 0h100v70c-20-8-30-8-50 0s-30 8-50 0z" class="document"/>
      <g transform="translate(50 45)">
        <text y="-0.7em" text-anchor="middle">Document<tspan x="0"
          dy="1em">timeline</tspan></text>
      </g>
    </g>

    <!-- Player -->
    <style type="text/css">
      .player {
        fill: plum;
        stroke: black;
        stroke-width: 2;
      }
    </style>
    <g id="player">
      <path d="M-30-40v80l80-40z" class="player"/>
      <text y="0.3em" text-anchor="middle">Player</text>
    </g>

    <!-- Animation -->
    <style type="text/css">
      .animation {
        fill: paleturquoise;
        stroke: black;
        stroke-width: 2;
      }
    </style>
    <g id="animation">
      <ellipse rx="60" ry="40" class="animation"/>
      <text y="0.3em" text-anchor="middle">Animation</text>
    </g>

    <!-- Group -->
    <style type="text/css">
      .group {
        fill: navajowhite;
        stroke: black;
        stroke-width: 2;
      }
    </style>
    <g id="group">
      <rect x="-60" y="-35" width="120" height="70" rx="10" ry="10"
        class="group"/>
      <text y="-0.2em" text-anchor="middle">Timing<tspan x="0"
        dy="1em">group</tspan></text>
    </g>
  </defs>
  <!-- Global clock -->
  <g transform="translate(300 50)">
    <circle r="50" fill="brown" stroke="black" stroke-width="2"/>
    <circle r="43" fill="white" stroke="black" stroke-width="2"/>
    <path d="M0-43v8M43 0h-8M0 43v-8M-43 0h8"
      stroke="black" stroke-width="2" fill="none"/>
    <text y="-0.2em" text-anchor="middle">Global<tspan x="0"
      dy="1em">clock</tspan></text>
  </g>

  <!-- Document timelines -->
  <use x="150" y="150" xlink:href="#document"/>
  <line x1="200" y1="150" x2="250" y2="80" class="arrowLine"/>
  <use x="350" y="150" xlink:href="#document"/>
  <line x1="400" y1="150" x2="350" y2="80" class="arrowLine"/>

  <!-- Animation and player -->
  <use x="100" y="300" xlink:href="#player"/>
  <line x1="125" y1="288" x2="180" y2="235" class="arrowLine"/>
  <use x="100" y="430" xlink:href="#animation"/>
  <line x1="100" y1="390" x2="100" y2="340" class="arrowLine"/>

  <!-- Group and player -->
  <use x="300" y="300" xlink:href="#player"/>
  <line x1="270" y1="300" x2="220" y2="235" class="arrowLine"/>
  <use x="300" y="430" xlink:href="#group"/>
  <line x1="300" y1="395" x2="300" y2="340" class="arrowLine"/>

  <!-- Group children -->
  <use x="220" y="560" xlink:href="#animation"/>
  <line x1="220" y1="520" x2="250" y2="475" class="arrowLine"/>
  <use x="390" y="560" xlink:href="#animation"/>
  <line x1="390" y1="520" x2="350" y2="475" class="arrowLine"/>
</svg>
