<svg xmlns="http://www.w3.org/2000/svg" xmlns:xlink="http://www.w3.org/1999/xlink" width="451px" height="260px">
<style type="text/css">
<![CDATA[
	.text{font-family:'MyriadPro-Regular';font-size:14pt;}
]]>
</style>
<defs>
<polygon id="figure" fill="inherit" stroke="inherit" marker-end="inherit" points="15.647,99.281 30.036,87.77 65.647,99.64 85.432,55.396 122.842,57.554 184.353,73.381 
	198.381,105.396 199.101,150.719 145.144,159.353 155.216,139.928 126.439,120.504 112.05,138.849 80.755,128.417 39.029,126.259 
	24.64,104.676 "/>
<g id="tri">
	<polygon fill="#A44188" points="34.892,107.554 41.727,74.46 20.504,85.971"/>
	<polygon fill="#A44188" points="34.892,107.554 61.511,80.935 76.619,109.712"/>
	<polygon fill="#8F3A7B" points="34.892,107.554 61.511,80.935 41.007,73.741"/>
	<polygon fill="#8F3A7B" points="151.079,121.223 141.007,140.647 194.964,132.014"/>
	<polygon fill="#A44188" points="122.302,101.799 150.36,93.525 151.079,121.223"/>
	<polygon fill="#CF67A8" points="180.216,54.676 150.36,93.525 194.245,86.691"/>
	<polygon fill="#A44188" points="194.245,86.691 151.079,121.223 194.964,132.014"/>
	<polygon fill="#C0539F" points="194.245,86.691 151.079,121.223 149.64,92.806"/>
	<polygon fill="#C0539F" points="90.288,80.935 61.511,80.935 76.619,109.712"/>
	<polygon fill="#CF67A8" points="90.288,80.935 61.511,80.935 81.295,37.41"/>
	<polygon fill="#CF67A8" points="90.288,80.935 107.554,120.144 76.619,109.712"/>
	<polygon fill="#C0539F" points="90.288,80.935 107.554,120.144 121.942,101.439"/>
	<polygon fill="#A44188" points="90.288,80.935 122.302,75.18 121.942,101.439"/>
	<polygon fill="#C0539F" points="90.288,80.935 122.302,75.18 81.295,36.691"/>
	<polygon fill="#CF67A8" points="119.065,39.209 122.302,75.18 81.333,37"/>
	<polygon fill="#C0539F" points="119.065,39.209 122.302,75.18 151.799,47.122"/>
	<polygon fill="#A44188" points="150,93.525 122.302,75.18 151.799,47.122"/>
	<polygon fill="#8F3A7B" points="150,93.525 122.302,75.18 121.583,102.158"/>
	<polygon fill="#C0539F" points="150,93.525 180.216,54.676 151.799,47.122"/>
	<polygon fill="#CF67A8" points="121.748,101.288 107,120.353 151.079,121.223"/>
	<polygon fill="#C0539F" points="142.252,140.496 107,120.353 151.079,121.223"/>
	<polygon fill="#C0539F" points="25.705,68.554 41.532,74.309 20.504,85.971"/>
	<polygon fill="#8F3A7B" points="34.892,107.554 56.281,150.928 76.619,109.712"/>
	<polygon fill="#C0539F" points="34.892,107.554 5.201,109.201 20.504,85.971"/>
	<polygon fill="#A44188" points="12.036,79.345 5.201,109.201 20.504,85.971"/>
	<polygon fill="#C0539F" points="87.216,152.727 107.554,120.144 76.619,109.712"/>
	<polygon fill="#8F3A7B" points="87.216,152.727 107.554,120.144 113.5,159.5"/>
	<polygon fill="#A44188" points="142.252,140.496 107,120.353 113.475,159.561"/>
	<polygon fill="#A44188" points="50.525,49.489 61.511,80.935 41.007,73.741"/>
	<polygon fill="#C0539F" points="50.525,49.849 61.511,80.935 81.295,37.41"/>
	<polygon fill="#CF67A8" points="50.5,50 25.667,68.5 41.167,74.333"/>
	<polygon fill="#A44188" points="167.791,176.468 142.167,140.333 194.964,132.014"/>
	<polygon fill="#C0539F" points="167.791,176.468 142.167,140.333 113.333,159.5"/>
	<polygon fill="#CF67A8" points="167.791,176.468 126.333,200.333 113.333,159.5"/>
	<polygon fill="#A44188" points="87.216,152.727 56,150.75 76.619,109.712"/>
	<polygon fill="#8F3A7B" points="34.892,107.554 5.201,109.201 19.333,134"/>
	<polygon fill="#A44188" points="34.892,107.554 56.281,150.928 19.333,133.667"/>
	<polygon fill="#8F3A7B" points="167.791,176.468 214.333,174 194.964,132.014"/>
	<polygon fill="#A44188" points="167.791,176.468 214.333,174 190.667,205"/>
	<polygon fill="#C0539F" points="167.791,176.468 125.667,200.333 190.667,205"/>
	<polygon fill="#C0539F" points="23.667,174 56.281,150.928 19.333,133.667"/>
	<polygon fill="#A44188" points="23.667,174 56.281,150.928 63,195.333"/>
	<polygon fill="#8F3A7B" points="86.667,152.667 56.281,150.928 63,195.333"/>
	<polygon fill="#A44188" points="86.667,152.667 113.333,159.333 63,195.333"/>
	<polygon fill="#C0539F" points="62.667,195.333 126.333,200.333 113.333,159.5"/>
	<polygon fill="#8F3A7B" points="168,15.333 180.216,54.676 151.799,47.122"/>
	<polygon fill="#A44188" points="168,15.333 136,12.667 151.799,47.122"/>
	<polygon fill="#CF67A8" points="119.065,39.209 136.333,13 151.799,47.122"/>
	<polygon fill="#C0539F" points="119.065,39.209 136.333,13 98.333,11"/>
	<polygon fill="#C0539F" points="168,15.333 180.216,54.676 206,20"/>
	<polygon fill="#A44188" points="119.065,39.209 98,10 81.333,37"/>
	<polygon fill="#A44188" points="50.525,49.849 55.667,18 81.295,37.41"/>
	<polygon fill="#C0539F" points="50.5,50 25.667,68.5 26,31.333"/>
	<polygon fill="#8F3A7B" points="50.525,49.849 55.667,18 25.667,31.667"/>
	<polygon fill="#C0539F" points="55,18 98,10 81.333,37"/>
	<polygon fill="#A44188" points="4,50.333 25.667,68.5 26,31.333"/>
	<polygon fill="#C0539F" points="4,50.333 26.667,69.5 12.667,80"/>
	<polygon fill="#CF67A8" points="25.899,69.065 20.504,85.971 11.511,80.576"/>
</g>
<g id="triangles">
	<polygon fill="#CF67A8" points="30.036,87.77 24.64,104.676 15.647,99.281 "/>
	<polygon fill="#A44188" points="39.029,126.259 45.863,93.165 24.64,104.676 "/>
	<polygon fill="#A44188" points="39.029,126.259 65.647,99.64 80.755,128.417 "/>
	<polygon fill="#8F3A7B" points="39.029,126.259 65.647,99.64 45.144,92.446 "/>
	<polygon fill="#8F3A7B" points="155.216,139.928 145.144,159.353 199.101,150.719 "/>
	<polygon fill="#A44188" points="126.439,120.504 154.496,112.23 155.216,139.928 "/>
	<polygon fill="#CF67A8" points="184.353,73.381 154.496,112.23 198.381,105.396 "/>
	<polygon fill="#A44188" points="198.381,105.396 155.216,139.928 199.101,150.719 "/>
	<polygon fill="#C0539F" points="198.381,105.396 155.216,139.928 153.777,111.511 "/>
	<polygon fill="#C0539F" points="94.424,99.64 65.647,99.64 80.755,128.417 "/>
	<polygon fill="#CF67A8" points="94.424,99.64 65.647,99.64 85.432,56.115 "/>
	<polygon fill="#CF67A8" points="94.424,99.64 111.691,138.849 80.755,128.417 "/>
	<polygon fill="#C0539F" points="94.424,99.64 111.691,138.849 126.079,120.144 "/>
	<polygon fill="#A44188" points="94.424,99.64 126.439,93.885 126.079,120.144 "/>
	<polygon fill="#C0539F" points="94.424,99.64 126.439,93.885 85.432,55.396 "/>
	<polygon fill="#CF67A8" points="123.201,57.914 126.439,93.885 85.432,55.396 "/>
	<polygon fill="#C0539F" points="123.201,57.914 126.439,93.885 155.935,65.827 "/>
	<polygon fill="#A44188" points="154.137,112.23 126.439,93.885 155.935,65.827 "/>
	<polygon fill="#8F3A7B" points="154.137,112.23 126.439,93.885 125.719,120.863 "/>
	<polygon fill="#C0539F" points="154.137,112.23 184.353,73.381 155.935,65.827 "/>
</g>
</defs>
<svg x="20.5" y="11.5" width="189" height="189" viewBox="0 0 214 214">
	<rect fill="#44549A" width="214" height="214"/>
	<use xlink:href="#figure" fill="#C24C9C"/>
	<use xlink:href="#tri"/>
</svg>
<svg x="246.5" y="11.5" width="189" height="189" viewBox="0 0 214 214">
	<rect fill="#575757" width="214" height="214"/>
	<polygon fill="#676767" points="34.892,107.554 41.727,74.46 20.504,85.971"/>
	<polygon fill="#676767" points="34.892,107.554 61.511,80.935 76.619,109.712"/>
	<polygon fill="#5B5B5B" points="34.892,107.554 61.511,80.935 41.007,73.741"/>
	<polygon fill="#5B5B5B" points="151.079,121.223 141.007,140.647 194.964,132.014"/>
	<polygon fill="#676767" points="122.302,101.799 150.36,93.525 151.079,121.223"/>
	<polygon fill="#8D8D8D" points="180.216,54.676 150.36,93.525 194.245,86.691"/>
	<polygon fill="#676767" points="194.245,86.691 151.079,121.223 194.964,132.014"/>
	<polygon fill="#7C7C7C" points="194.245,86.691 151.079,121.223 149.64,92.806"/>
	<polygon fill="#7C7C7C" points="90.288,80.935 61.511,80.935 76.619,109.712"/>
	<polygon fill="#8D8D8D" points="90.288,80.935 61.511,80.935 81.295,37.41"/>
	<polygon fill="#8D8D8D" points="90.288,80.935 107.554,120.144 76.619,109.712"/>
	<polygon fill="#7C7C7C" points="90.288,80.935 107.554,120.144 121.942,101.439"/>
	<polygon fill="#676767" points="90.288,80.935 122.302,75.18 121.942,101.439"/>
	<polygon fill="#7C7C7C" points="90.288,80.935 122.302,75.18 81.295,36.691"/>
	<polygon fill="#8D8D8D" points="119.065,39.209 122.302,75.18 81.333,37"/>
	<polygon fill="#7C7C7C" points="119.065,39.209 122.302,75.18 151.799,47.122"/>
	<polygon fill="#676767" points="150,93.525 122.302,75.18 151.799,47.122"/>
	<polygon fill="#5B5B5B" points="150,93.525 122.302,75.18 121.583,102.158"/>
	<polygon fill="#7C7C7C" points="150,93.525 180.216,54.676 151.799,47.122"/>
	<polygon fill="#8D8D8D" points="121.748,101.288 107,120.353 151.079,121.223"/>
	<polygon fill="#7C7C7C" points="142.252,140.496 107,120.353 151.079,121.223"/>
	<polygon fill="#7C7C7C" points="25.705,68.554 41.532,74.309 20.504,85.971"/>
	<polygon fill="#5B5B5B" points="34.892,107.554 56.281,150.928 76.619,109.712"/>
	<polygon fill="#7C7C7C" points="34.892,107.554 5.201,109.201 20.504,85.971"/>
	<polygon fill="#676767" points="12.036,79.345 5.201,109.201 20.504,85.971"/>
	<polygon fill="#7C7C7C" points="87.216,152.727 107.554,120.144 76.619,109.712"/>
	<polygon fill="#5B5B5B" points="87.216,152.727 107.554,120.144 113.5,159.5"/>
	<polygon fill="#676767" points="142.252,140.496 107,120.353 113.475,159.561"/>
	<polygon fill="#676767" points="50.525,49.489 61.511,80.935 41.007,73.741"/>
	<polygon fill="#7C7C7C" points="50.525,49.849 61.511,80.935 81.295,37.41"/>
	<polygon fill="#8D8D8D" points="50.5,50 25.667,68.5 41.167,74.333"/>
	<polygon fill="#676767" points="167.791,176.468 142.167,140.333 194.964,132.014"/>
	<polygon fill="#7C7C7C" points="167.791,176.468 142.167,140.333 113.333,159.5"/>
	<polygon fill="#8D8D8D" points="167.791,176.468 126.333,200.333 113.333,159.5"/>
	<polygon fill="#676767" points="87.216,152.727 56,150.75 76.619,109.712"/>
	<polygon fill="#5B5B5B" points="34.892,107.554 5.201,109.201 19.333,134"/>
	<polygon fill="#676767" points="34.892,107.554 56.281,150.928 19.333,133.667"/>
	<polygon fill="#5B5B5B" points="167.791,176.468 214.333,174 194.964,132.014"/>
	<polygon fill="#676767" points="167.791,176.468 214.333,174 190.667,205"/>
	<polygon fill="#7C7C7C" points="167.791,176.468 125.667,200.333 190.667,205"/>
	<polygon fill="#7C7C7C" points="23.667,174 56.281,150.928 19.333,133.667"/>
	<polygon fill="#676767" points="23.667,174 56.281,150.928 63,195.333"/>
	<polygon fill="#5B5B5B" points="86.667,152.667 56.281,150.928 63,195.333"/>
	<polygon fill="#676767" points="86.667,152.667 113.333,159.333 63,195.333"/>
	<polygon fill="#7C7C7C" points="62.667,195.333 126.333,200.333 113.333,159.5"/>
	<polygon fill="#5B5B5B" points="168,15.333 180.216,54.676 151.799,47.122"/>
	<polygon fill="#676767" points="168,15.333 136,12.667 151.799,47.122"/>
	<polygon fill="#8D8D8D" points="119.065,39.209 136.333,13 151.799,47.122"/>
	<polygon fill="#7C7C7C" points="119.065,39.209 136.333,13 98.333,11"/>
	<polygon fill="#7C7C7C" points="168,15.333 180.216,54.676 206,20"/>
	<polygon fill="#676767" points="119.065,39.209 98,10 81.333,37"/>
	<polygon fill="#676767" points="50.525,49.849 55.667,18 81.295,37.41"/>
	<polygon fill="#7C7C7C" points="50.5,50 25.667,68.5 26,31.333"/>
	<polygon fill="#5B5B5B" points="50.525,49.849 55.667,18 25.667,31.667"/>
	<polygon fill="#7C7C7C" points="55,18 98,10 81.333,37"/>
	<polygon fill="#676767" points="4,50.333 25.667,68.5 26,31.333"/>
	<polygon fill="#7C7C7C" points="4,50.333 26.667,69.5 12.667,80"/>
	<polygon fill="#8D8D8D" points="25.899,69.065 20.504,85.971 11.511,80.576"/>
</svg>
<text x="76.397" y="230.9009" class="text">object</text>
<text x="243.7041" y="230.9009" class="text">object with filter applied</text>
</svg>