<!-- vim: set expandtab ts=2 sw=2 tw=80: -->
<svg xmlns="http://www.w3.org/2000/svg" width="100%" height="100%"
  xmlns:xlink="http://www.w3.org/1999/xlink"
  viewBox="0 0 420 205">
  <defs>
    <style type="text/css">
    svg {
      font-size: 19px;
      font-family: sans-serif;
    }

    .line, .arrowLine {
      stroke: black;
      stroke-width: 1.5;
      fill: none;
    }
		.dashLine {
			stroke-dasharray: 3 2;
		  stroke: red;
      fill: none;
      stroke-width: 1.5;
		}
    .seqGroupSpan  {
      fill: navajowhite;
      stroke: black;
    }
    .animSpan  {
      stroke: black;
      fill: paleturquoise;
    }
    .animLabel {
      fill: black;
      text-anchor: middle;
      font-size: 1.1em;
    }
    .seqGroupParams {
      fill: chocolate;
    }
    .startTimeStar {
      stroke: red;
      stroke-linecap: round;
      stroke-width: 2;
      fill: none;
    }
		.delayLabel {
			text-anchor: middle;
			font-size: 12px;
		}
    </style>
		
    <!-- Star -->
    <path d="M-3.5-3.5l7 7M3.5-3.5l-7 7M0-5v10M-5 0h10" class="startTimeStar"
			id="star"/>
  </defs>
  <g transform="translate(10 10)">
    <rect width="400" height="185" class="seqGroupSpan"/>
    <text x="5" y="25" class="seqGroupParams">&#8220;sequence&#8221;</text>
    <g transform="translate(0 40)">
      <rect width="150" height="30" class="animSpan"/>
      <text x="75" y="1.1em" class="animLabel">A</text>
    </g>
    <g transform="translate(0 80)">
      <rect x="110" width="180" height="30" class="animSpan"/>
      <text x="200" y="1.1em" class="animLabel">B</text>
    </g>
		<path d="M150,110v-30M290,150v-30" class="dashLine"/>
		<path
			d="M110,115a5,5,0,0,0,5,5h10a5,5,0,0,1,5,5a5,5,0,0,1,5-5h10a5,5,0,0,0,5-5"
			class="line"/>
		<text x="130" y="135" class="delayLabel">(negative)
      <tspan x="130" dy="1em">start delay</tspan></text>
    <g transform="translate(0 120)">
      <rect x="350" width="50" height="30" class="animSpan"/>
      <text x="375" y="1.1em" class="animLabel">C</text>
    </g>
		<path
			d="M290,155a5,5,0,0,0,5,5h20a5,5,0,0,1,5,5a5,5,0,0,1,5-5h20a5,5,0,0,0,5-5"
			class="line"/>
		<text x="320" y="175" class="delayLabel">start delay</text>
		<use xlink:href="#star" x="0" y="40"/>
		<use xlink:href="#star" x="150" y="80"/>
		<use xlink:href="#star" x="290" y="120"/>
  </g>
</svg>
