<svg xmlns="http://www.w3.org/2000/svg" viewBox="0 0 400 400" width="400" height="400">
	<g style="font-size: 24px; font-family: Menlo, Consolas, 'DejaVu Sans Mono', Monaco, monospace;">
		<rect style="fill: white" width="400" height="400" />
		<path style="fill: #e6e6e6" d="M0 100 H100 A200 200 0 0 1 300 300 V400 H0 Z" />
		<g style="fill: none; stroke: #9d9d9d; stroke-width: 3;">
			<path d="M 100 100 A 200 200 0 0 1 300 300" />
			<path d="M100 100 H0" />
			<path d="M300 300 V400" />
		</g>
		<path style="fill: none; stroke: #000000; stroke-width: 4;" d="m300 100v200h-200v-200z" />
		<g style="fill: none; stroke: #ff0000; stroke-width: 5;">
			<path d="M100 66 H280" />
			<path d="M337 100 V280" />
			<path d="M300 332 H120" />
			<path d="M66 300 V120" />
		</g>
		<g style="fill: #ff0000">
			<path d="M280 56 L300 66 L280 76 Z" />
			<path d="M327 280 L337 300 L347 280 Z" />
			<path d="M120 322 L100 332 L120 342 Z" />
			<path d="M56 120 L66 100 L76 120 Z" />
			<text x="196" y="55">v1</text>
			<text x="348" y="198">v2</text>
			<text x="196" y="361">v3</text>
			<text x="27" y="198">v4</text>
		</g>
		<g style="fill: none; stroke: #ff00ff; stroke-width: 6;">
			<path d="M235 100 H300" />
			<path d="M300 100 V165" />
			<path d="M100 300 H165" />
			<path d="M100 300 V235" />
		</g>
		<g style="fill: #ff00ff">
			<path d="M240 90 L220 100 L240 110 Z" />
			<path d="M290 160 L300 180 L310 160 Z" />
			<path d="M160 310 L180 300 L160 290 Z" />
			<path d="M90 240 L100 220 L110 240 Z" />
			<text x="220" y="135">V3</text>
			<text x="258" y="178">V2</text>
			<text x="158" y="282">V1</text>
			<text x="115" y="240">V4</text>
			<text x="115" y="205">(normalized)</text>
		</g>
		<g style="fill: #0000ff">
			<circle cx="100" cy="100" r="10" />
			<circle cx="300" cy="100" r="10" />
			<circle cx="100" cy="300" r="10" />
			<circle cx="300" cy="300" r="10" />
			<text x="18" y="87">start</text>
			<text x="311" y="87">outer</text>
			<text x="311" y="326">end</text>
			<text x="3" y="326">center</text>
		</g>
	</g>
</svg>
