<svg
   viewBox="0 0 76 68"
   xmlns="http://www.w3.org/2000/svg"
   font-family="sans-serif"
   font-size="3.175">
<g>
   <g fill="none">
      <path stroke="#44a53e" stroke-width="3"
          d="M 69,61 c -61,-10 -64,-62 -64,-62" />
      <path stroke="#6f6f6f" stroke-width="3"
          d="M 66,63 c -51,-9 -62,-59 -62,-59" />
   </g>
   <g>
      <text text-anchor="middle" fill="#2aac39" x="45" y ="24">
         Shadow/clip Spread Direction
      </text>
      <g transform="translate(45, 32)" fill="#45cf4d">
         <path d="M 0 0 m -2 -2 l 2 -4 l 2 4 h -4 z"/>
         <path d="M 0 0 m -2 -2 l 2 -4 l 2 4 h -4 z" transform="rotate(90)"/>
         <path d="M 0 0 m -2 -2 l 2 -4 l 2 4 h -4 z" transform="rotate(180)"/>
         <path d="M 0 0 m -2 -2 l 2 -4 l 2 4 h -4 z" transform="rotate(270)"/>
      </g>
   </g>
   <g transform="translate(16, 4)">
      <text fill="#c87ede" text-anchor="middle" x="0" y="0">
         <tspan x="0" dy="0">Border</tspan>
         <tspan x="0" dy="3">width</tspan>
         <tspan x="0" dy="3">direction</tspan>
      </text>
   </g>
   <g transform="translate(66, 51)">
      <text fill="#c87ede" text-anchor="middle" x="0" y="0">
         <tspan x="0" dy="0">Border</tspan>
         <tspan x="0" dy="3">width</tspan>
         <tspan x="0" dy="3">direction</tspan>
      </text>
   </g>
   <g fill="#c87ede">
      <path d="m 4.67503,10.661827 -1.69767,-5.861307 6.52678,1.067376 z"/>
      <path d="m 64.98171,64.13758 -6.67679,-1.318955 4.51766,-3.300271 z"/>
   </g>
</g>
</svg>
