<svg version="1.1" viewBox="0.0 0.0 1280.0 960.0" fill="none" stroke="none" stroke-linecap="square" stroke-miterlimit="10" xmlns:xlink="http://www.w3.org/1999/xlink" xmlns="http://www.w3.org/2000/svg"><clipPath id="p.0"><path d="m0 0l1280.0 0l0 960.0l-1280.0 0l0 -960.0z" clip-rule="nonzero"/></clipPath><g clip-path="url(#p.0)"><path fill="#000000" fill-opacity="0.0" d="m0 0l1280.0 0l0 960.0l-1280.0 0z" fill-rule="evenodd"/><path fill="#000000" fill-opacity="0.0" d="m910.88776 81.77308c90.303406 4.6807327 162.59796 75.12278 167.90582 163.60333l-177.28436 10.216766z" fill-rule="evenodd"/><path fill="#000000" fill-opacity="0.0" d="m910.88776 81.77308c90.303406 4.6807327 162.59796 75.12278 167.90582 163.60333" fill-rule="evenodd"/><path stroke="#000000" stroke-width="1.0" stroke-linejoin="round" stroke-linecap="butt" d="m910.88776 81.77308c90.303406 4.6807327 162.59796 75.12278 167.90582 163.60333" fill-rule="evenodd"/><path fill="#000000" fill-opacity="0.0" d="m1079.0823 244.9392l0 0c-88.527405 -5.0642242 -160.1106 -74.59993 -168.46106 -163.64258l178.61987 -17.043465z" fill-rule="evenodd"/><path fill="#000000" fill-opacity="0.0" d="m1079.0823 244.9392l0 0c-88.527405 -5.0642242 -160.1106 -74.59993 -168.46106 -163.64258" fill-rule="evenodd"/><path stroke="#38761d" stroke-width="1.0" stroke-linejoin="round" stroke-linecap="butt" d="m1079.0823 244.9392l0 0c-88.527405 -5.0642242 -160.1106 -74.59993 -168.46106 -163.64258" fill-rule="evenodd"/><path fill="#000000" fill-opacity="0.0" d="m910.6212 81.296616l168.47241 163.65355" fill-rule="evenodd"/><path stroke="#0000ff" stroke-width="1.0" stroke-linejoin="round" stroke-linecap="butt" d="m910.6212 81.296616l168.47241 163.65355" fill-rule="evenodd"/><path fill="#000000" fill-opacity="0.0" d="m968.126 181.58005l45.700806 0l0 32.314972l-45.700806 0z" fill-rule="evenodd"/><path fill="#274e13" d="m977.4541 199.1638l0.921875 -0.140625q0.078125 0.5625 0.4375 0.859375q0.359375 0.296875 1.0 0.296875q0.640625 0 0.953125 -0.265625q0.3125 -0.265625 0.3125 -0.625q0 -0.3125 -0.28125 -0.5q-0.1875 -0.125 -0.953125 -0.3125q-1.03125 -0.265625 -1.4375 -0.453125q-0.390625 -0.1875 -0.59375 -0.515625q-0.203125 -0.34375 -0.203125 -0.75q0 -0.359375 0.171875 -0.671875q0.171875 -0.328125 0.453125 -0.53125q0.21875 -0.15625 0.59375 -0.265625q0.390625 -0.125 0.8125 -0.125q0.65625 0 1.140625 0.1875q0.5 0.1875 0.734375 0.515625q0.234375 0.3125 0.3125 0.859375l-0.90625 0.125q-0.0625 -0.4375 -0.375 -0.671875q-0.296875 -0.234375 -0.828125 -0.234375q-0.65625 0 -0.9375 0.21875q-0.265625 0.203125 -0.265625 0.484375q0 0.1875 0.109375 0.328125q0.125 0.15625 0.359375 0.25q0.140625 0.0625 0.828125 0.25q1.0 0.265625 1.390625 0.4375q0.390625 0.15625 0.609375 0.484375q0.234375 0.3125 0.234375 0.796875q0 0.46875 -0.28125 0.890625q-0.265625 0.40625 -0.78125 0.640625q-0.515625 0.21875 -1.171875 0.21875q-1.078125 0 -1.640625 -0.4375q-0.5625 -0.453125 -0.71875 -1.34375zm10.625 -2.828125l-5.03125 0l0 -0.875l5.03125 0l0 0.875zm0 2.3125l-5.03125 0l0 -0.875l5.03125 0l0 0.875zm0.9418335 -0.125l0 -0.9375l2.875 0l0 0.9375l-2.875 0zm7.173645 2.296875l-0.9375 0l0 -5.96875q-0.34375 0.328125 -0.890625 0.65625q-0.546875 0.3125 -0.984375 0.46875l0 -0.90625q0.796875 -0.359375 1.375 -0.890625q0.59375 -0.53125 0.828125 -1.015625l0.609375 0l0 7.65625z" fill-rule="nonzero"/><path fill="#000000" fill-opacity="0.0" d="m910.6212 81.296616l-202.51971 1.8897629" fill-rule="evenodd"/><path stroke="#000000" stroke-width="3.0" stroke-linejoin="round" stroke-linecap="butt" d="m910.6212 81.296616l-202.51971 1.8897629" fill-rule="evenodd"/><path fill="#000000" fill-opacity="0.0" d="m1079.0823 244.9392l0 129.60631" fill-rule="evenodd"/><path stroke="#000000" stroke-width="3.0" stroke-linejoin="round" stroke-linecap="butt" d="m1079.0823 244.9392l0 129.60631" fill-rule="evenodd"/><path fill="#000000" fill-opacity="0.0" d="m910.6212 81.296616l0 164.53543" fill-rule="evenodd"/><path stroke="#000000" stroke-width="1.0" stroke-linejoin="round" stroke-linecap="butt" d="m910.6212 81.296616l0 164.53543" fill-rule="evenodd"/><path fill="#000000" fill-opacity="0.0" d="m910.70435 244.9392l168.37793 0" fill-rule="evenodd"/><path stroke="#000000" stroke-width="1.0" stroke-linejoin="round" stroke-linecap="butt" d="m910.70435 244.9392l168.37793 0" fill-rule="evenodd"/><path fill="#000000" fill-opacity="0.0" d="m910.6212 81.296616l168.34644 0" fill-rule="evenodd"/><path stroke="#000000" stroke-width="1.0" stroke-linejoin="round" stroke-linecap="butt" d="m910.6212 81.296616l168.34644 0" fill-rule="evenodd"/><path fill="#000000" fill-opacity="0.0" d="m1079.0823 244.9392l0 -162.48819" fill-rule="evenodd"/><path stroke="#000000" stroke-width="1.0" stroke-linejoin="round" stroke-linecap="butt" d="m1079.0823 244.9392l0 -162.48819" fill-rule="evenodd"/><path fill="#000000" fill-opacity="0.0" d="m708.10236 57.396324l73.543335 0l0 32.314964l-73.543335 0z" fill-rule="evenodd"/><path fill="#000000" d="m719.868 76.63632l0 -6.734375l-2.515625 0l0 -0.890625l6.046875 0l0 0.890625l-2.53125 0l0 6.734375l-1.0 0zm2.9207153 -2.765625q0 -1.53125 0.84375 -2.265625q0.71875 -0.625 1.734375 -0.625q1.140625 0 1.859375 0.75q0.734375 0.75 0.734375 2.0625q0 1.0625 -0.328125 1.6875q-0.3125 0.609375 -0.921875 0.953125q-0.609375 0.328125 -1.34375 0.328125q-1.15625 0 -1.875 -0.734375q-0.703125 -0.75 -0.703125 -2.15625zm0.953125 0q0 1.0625 0.46875 1.59375q0.46875 0.53125 1.15625 0.53125q0.703125 0 1.15625 -0.53125q0.46875 -0.53125 0.46875 -1.625q0 -1.015625 -0.46875 -1.546875q-0.453125 -0.53125 -1.15625 -0.53125q-0.6875 0 -1.15625 0.53125q-0.46875 0.515625 -0.46875 1.578125zm5.3171387 4.890625l0 -7.65625l0.859375 0l0 0.71875q0.296875 -0.421875 0.671875 -0.625q0.390625 -0.21875 0.921875 -0.21875q0.703125 0 1.25 0.375q0.546875 0.359375 0.8125 1.03125q0.28125 0.65625 0.28125 1.453125q0 0.84375 -0.3125 1.53125q-0.296875 0.671875 -0.875 1.03125q-0.578125 0.359375 -1.21875 0.359375q-0.46875 0 -0.84375 -0.1875q-0.375 -0.203125 -0.609375 -0.515625l0 2.703125l-0.9375 0zm0.84375 -4.859375q0 1.0625 0.4375 1.578125q0.4375 0.515625 1.046875 0.515625q0.625 0 1.0625 -0.53125q0.453125 -0.53125 0.453125 -1.640625q0 -1.046875 -0.4375 -1.578125q-0.4375 -0.53125 -1.046875 -0.53125q-0.59375 0 -1.0625 0.5625q-0.453125 0.5625 -0.453125 1.625zm8.902771 2.734375l-0.859375 0l0 -7.625l0.9375 0l0 2.71875q0.59375 -0.75 1.5 -0.75q0.515625 0 0.96875 0.21875q0.453125 0.203125 0.75 0.578125q0.296875 0.359375 0.453125 0.890625q0.171875 0.53125 0.171875 1.125q0 1.421875 -0.703125 2.203125q-0.703125 0.765625 -1.6875 0.765625q-0.96875 0 -1.53125 -0.8125l0 0.6875zm0 -2.796875q0 0.984375 0.265625 1.421875q0.4375 0.734375 1.1875 0.734375q0.625 0 1.0625 -0.53125q0.453125 -0.546875 0.453125 -1.59375q0 -1.078125 -0.4375 -1.59375q-0.421875 -0.515625 -1.03125 -0.515625q-0.609375 0 -1.0625 0.53125q-0.4375 0.53125 -0.4375 1.546875zm4.7233887 0.03125q0 -1.53125 0.84375 -2.265625q0.71875 -0.625 1.734375 -0.625q1.140625 0 1.859375 0.75q0.734375 0.75 0.734375 2.0625q0 1.0625 -0.328125 1.6875q-0.3125 0.609375 -0.921875 0.953125q-0.609375 0.328125 -1.34375 0.328125q-1.15625 0 -1.875 -0.734375q-0.703125 -0.75 -0.703125 -2.15625zm0.953125 0q0 1.0625 0.46875 1.59375q0.46875 0.53125 1.15625 0.53125q0.703125 0 1.15625 -0.53125q0.46875 -0.53125 0.46875 -1.625q0 -1.015625 -0.46875 -1.546875q-0.453125 -0.53125 -1.15625 -0.53125q-0.6875 0 -1.15625 0.53125q-0.46875 0.515625 -0.46875 1.578125zm5.3014526 2.765625l0 -5.53125l0.84375 0l0 0.84375q0.328125 -0.59375 0.59375 -0.78125q0.28125 -0.1875 0.609375 -0.1875q0.46875 0 0.953125 0.3125l-0.3125 0.859375q-0.34375 -0.203125 -0.6875 -0.203125q-0.3125 0 -0.5625 0.1875q-0.234375 0.1875 -0.34375 0.515625q-0.15625 0.5 -0.15625 1.09375l0 2.890625l-0.9375 0zm7.142395 0l0 -0.703125q-0.515625 0.828125 -1.546875 0.828125q-0.65625 0 -1.21875 -0.359375q-0.546875 -0.375 -0.859375 -1.015625q-0.296875 -0.65625 -0.296875 -1.5q0 -0.828125 0.28125 -1.5q0.28125 -0.6875 0.828125 -1.046875q0.546875 -0.359375 1.234375 -0.359375q0.5 0 0.890625 0.21875q0.390625 0.203125 0.625 0.546875l0 -2.734375l0.9375 0l0 7.625l-0.875 0zm-2.953125 -2.75q0 1.046875 0.4375 1.578125q0.453125 0.53125 1.0625 0.53125q0.609375 0 1.03125 -0.5q0.4375 -0.515625 0.4375 -1.53125q0 -1.140625 -0.4375 -1.671875q-0.4375 -0.53125 -1.078125 -0.53125q-0.609375 0 -1.03125 0.515625q-0.421875 0.5 -0.421875 1.609375zm9.082764 0.96875l0.96875 0.125q-0.234375 0.84375 -0.859375 1.3125q-0.609375 0.46875 -1.578125 0.46875q-1.203125 0 -1.921875 -0.75q-0.703125 -0.75 -0.703125 -2.09375q0 -1.390625 0.71875 -2.15625q0.71875 -0.78125 1.859375 -0.78125q1.109375 0 1.8125 0.765625q0.703125 0.75 0.703125 2.125q0 0.078125 0 0.234375l-4.125 0q0.046875 0.921875 0.515625 1.40625q0.46875 0.484375 1.15625 0.484375q0.515625 0 0.875 -0.265625q0.359375 -0.28125 0.578125 -0.875zm-3.078125 -1.515625l3.09375 0q-0.0625 -0.6875 -0.359375 -1.046875q-0.453125 -0.53125 -1.15625 -0.53125q-0.640625 0 -1.09375 0.4375q-0.4375 0.421875 -0.484375 1.140625zm5.2077026 3.296875l0 -5.53125l0.84375 0l0 0.84375q0.328125 -0.59375 0.59375 -0.78125q0.28125 -0.1875 0.609375 -0.1875q0.46875 0 0.953125 0.3125l-0.3125 0.859375q-0.34375 -0.203125 -0.6875 -0.203125q-0.3125 0 -0.5625 0.1875q-0.234375 0.1875 -0.34375 0.515625q-0.15625 0.5 -0.15625 1.09375l0 2.890625l-0.9375 0z" fill-rule="nonzero"/><path fill="#000000" fill-opacity="0.0" d="m1078.9685 276.36746l75.93701 0l0 45.259827l-75.93701 0z" fill-rule="evenodd"/><path fill="#000000" d="m1088.8123 295.60745l0 -7.625l3.375 0q1.015625 0 1.546875 0.203125q0.53125 0.203125 0.84375 0.734375q0.328125 0.515625 0.328125 1.140625q0 0.8125 -0.53125 1.375q-0.515625 0.546875 -1.625 0.703125q0.40625 0.1875 0.609375 0.375q0.453125 0.40625 0.84375 1.015625l1.328125 2.078125l-1.265625 0l-1.015625 -1.59375q-0.4375 -0.6875 -0.734375 -1.046875q-0.28125 -0.359375 -0.515625 -0.5q-0.21875 -0.15625 -0.453125 -0.203125q-0.171875 -0.046875 -0.5625 -0.046875l-1.171875 0l0 3.390625l-1.0 0zm1.0 -4.265625l2.171875 0q0.6875 0 1.078125 -0.140625q0.390625 -0.140625 0.59375 -0.453125q0.203125 -0.3125 0.203125 -0.6875q0 -0.546875 -0.390625 -0.890625q-0.390625 -0.34375 -1.234375 -0.34375l-2.421875 0l0 2.515625zm6.5549316 -2.28125l0 -1.078125l0.9375 0l0 1.078125l-0.9375 0zm0 6.546875l0 -5.53125l0.9375 0l0 5.53125l-0.9375 0zm2.1956787 0.453125l0.90625 0.140625q0.0625 0.421875 0.328125 0.609375q0.34375 0.265625 0.9375 0.265625q0.65625 0 1.0 -0.265625q0.359375 -0.25 0.484375 -0.71875q0.078125 -0.296875 0.078125 -1.203125q-0.625 0.71875 -1.53125 0.71875q-1.140625 0 -1.765625 -0.8125q-0.625 -0.828125 -0.625 -1.984375q0 -0.78125 0.28125 -1.453125q0.296875 -0.671875 0.828125 -1.03125q0.546875 -0.375 1.28125 -0.375q0.984375 0 1.609375 0.796875l0 -0.671875l0.875 0l0 4.78125q0 1.296875 -0.265625 1.828125q-0.265625 0.546875 -0.84375 0.859375q-0.5625 0.3125 -1.390625 0.3125q-0.984375 0 -1.59375 -0.453125q-0.609375 -0.4375 -0.59375 -1.34375zm0.78125 -3.3125q0 1.078125 0.421875 1.578125q0.4375 0.5 1.078125 0.5q0.65625 0 1.09375 -0.484375q0.4375 -0.5 0.4375 -1.5625q0 -1.015625 -0.453125 -1.53125q-0.453125 -0.515625 -1.09375 -0.515625q-0.609375 0 -1.046875 0.515625q-0.4375 0.5 -0.4375 1.5zm5.3171387 2.859375l0 -7.625l0.9375 0l0 2.734375q0.65625 -0.765625 1.65625 -0.765625q0.609375 0 1.0625 0.25q0.453125 0.234375 0.640625 0.671875q0.203125 0.421875 0.203125 1.234375l0 3.5l-0.9375 0l0 -3.5q0 -0.703125 -0.3125 -1.015625q-0.296875 -0.328125 -0.859375 -0.328125q-0.40625 0 -0.78125 0.21875q-0.359375 0.21875 -0.515625 0.59375q-0.15625 0.359375 -0.15625 1.015625l0 3.015625l-0.9375 0zm7.9732666 -0.84375l0.125 0.828125q-0.390625 0.09375 -0.703125 0.09375q-0.5 0 -0.78125 -0.15625q-0.28125 -0.171875 -0.40625 -0.4375q-0.109375 -0.265625 -0.109375 -1.109375l0 -3.171875l-0.6875 0l0 -0.734375l0.6875 0l0 -1.359375l0.9375 -0.5625l0 1.921875l0.9375 0l0 0.734375l-0.9375 0l0 3.234375q0 0.390625 0.046875 0.515625q0.046875 0.109375 0.15625 0.1875q0.109375 0.0625 0.328125 0.0625q0.15625 0 0.40625 -0.046875z" fill-rule="nonzero"/><path fill="#000000" d="m1089.531 308.40744l-0.859375 0l0 -7.625l0.9375 0l0 2.71875q0.59375 -0.75 1.5 -0.75q0.515625 0 0.96875 0.21875q0.453125 0.203125 0.75 0.578125q0.296875 0.359375 0.453125 0.890625q0.171875 0.53125 0.171875 1.125q0 1.421875 -0.703125 2.203125q-0.703125 0.765625 -1.6875 0.765625q-0.96875 0 -1.53125 -0.8125l0 0.6875zm0 -2.796875q0 0.984375 0.265625 1.421875q0.4375 0.734375 1.1875 0.734375q0.625 0 1.0625 -0.53125q0.453125 -0.546875 0.453125 -1.59375q0 -1.078125 -0.4375 -1.59375q-0.421875 -0.515625 -1.03125 -0.515625q-0.609375 0 -1.0625 0.53125q-0.4375 0.53125 -0.4375 1.546875zm4.7233887 0.03125q0 -1.53125 0.84375 -2.265625q0.71875 -0.625 1.734375 -0.625q1.140625 0 1.859375 0.75q0.734375 0.75 0.734375 2.0625q0 1.0625 -0.328125 1.6875q-0.3125 0.609375 -0.921875 0.953125q-0.609375 0.328125 -1.34375 0.328125q-1.15625 0 -1.875 -0.734375q-0.703125 -0.75 -0.703125 -2.15625zm0.953125 0q0 1.0625 0.46875 1.59375q0.46875 0.53125 1.15625 0.53125q0.703125 0 1.15625 -0.53125q0.46875 -0.53125 0.46875 -1.625q0 -1.015625 -0.46875 -1.546875q-0.453125 -0.53125 -1.15625 -0.53125q-0.6875 0 -1.15625 0.53125q-0.46875 0.515625 -0.46875 1.578125zm5.3015137 2.765625l0 -5.53125l0.84375 0l0 0.84375q0.328125 -0.59375 0.59375 -0.78125q0.28125 -0.1875 0.609375 -0.1875q0.46875 0 0.953125 0.3125l-0.3125 0.859375q-0.34375 -0.203125 -0.6875 -0.203125q-0.3125 0 -0.5625 0.1875q-0.234375 0.1875 -0.34375 0.515625q-0.15625 0.5 -0.15625 1.09375l0 2.890625l-0.9375 0zm7.142334 0l0 -0.703125q-0.515625 0.828125 -1.546875 0.828125q-0.65625 0 -1.21875 -0.359375q-0.546875 -0.375 -0.859375 -1.015625q-0.296875 -0.65625 -0.296875 -1.5q0 -0.828125 0.28125 -1.5q0.28125 -0.6875 0.828125 -1.046875q0.546875 -0.359375 1.234375 -0.359375q0.5 0 0.890625 0.21875q0.390625 0.203125 0.625 0.546875l0 -2.734375l0.9375 0l0 7.625l-0.875 0zm-2.953125 -2.75q0 1.046875 0.4375 1.578125q0.453125 0.53125 1.0625 0.53125q0.609375 0 1.03125 -0.5q0.4375 -0.515625 0.4375 -1.53125q0 -1.140625 -0.4375 -1.671875q-0.4375 -0.53125 -1.078125 -0.53125q-0.609375 0 -1.03125 0.515625q-0.421875 0.5 -0.421875 1.609375zm9.082764 0.96875l0.96875 0.125q-0.234375 0.84375 -0.859375 1.3125q-0.609375 0.46875 -1.578125 0.46875q-1.203125 0 -1.921875 -0.75q-0.703125 -0.75 -0.703125 -2.09375q0 -1.390625 0.71875 -2.15625q0.71875 -0.78125 1.859375 -0.78125q1.109375 0 1.8125 0.765625q0.703125 0.75 0.703125 2.125q0 0.078125 0 0.234375l-4.125 0q0.046875 0.921875 0.515625 1.40625q0.46875 0.484375 1.15625 0.484375q0.515625 0 0.875 -0.265625q0.359375 -0.28125 0.578125 -0.875zm-3.078125 -1.515625l3.09375 0q-0.0625 -0.6875 -0.359375 -1.046875q-0.453125 -0.53125 -1.15625 -0.53125q-0.640625 0 -1.09375 0.4375q-0.4375 0.421875 -0.484375 1.140625zm5.2077637 3.296875l0 -5.53125l0.84375 0l0 0.84375q0.328125 -0.59375 0.59375 -0.78125q0.28125 -0.1875 0.609375 -0.1875q0.46875 0 0.953125 0.3125l-0.3125 0.859375q-0.34375 -0.203125 -0.6875 -0.203125q-0.3125 0 -0.5625 0.1875q-0.234375 0.1875 -0.34375 0.515625q-0.15625 0.5 -0.15625 1.09375l0 2.890625l-0.9375 0z" fill-rule="nonzero"/><path fill="#000000" fill-opacity="0.0" d="m707.04724 82.12336l-1.0708618 292.40945" fill-rule="evenodd"/><path stroke="#000000" stroke-width="3.0" stroke-linejoin="round" stroke-linecap="butt" d="m707.04724 82.12336l-1.0708618 292.40945" fill-rule="evenodd"/><path fill="#000000" fill-opacity="0.0" d="m705.5722 374.54593l374.4251 0" fill-rule="evenodd"/><path stroke="#000000" stroke-width="3.0" stroke-linejoin="round" stroke-linecap="butt" d="m705.5722 374.54593l374.4251 0" fill-rule="evenodd"/><path fill="#000000" fill-opacity="0.0" d="m973.68634 130.31233l38.33069 0l0 32.314972l-38.33069 0z" fill-rule="evenodd"/><path fill="#0000ff" d="m983.01447 147.89609l0.921875 -0.140625q0.078125 0.5625 0.4375 0.859375q0.359375 0.296875 1.0 0.296875q0.640625 0 0.953125 -0.265625q0.3125 -0.265625 0.3125 -0.625q0 -0.3125 -0.28125 -0.5q-0.1875 -0.125 -0.953125 -0.3125q-1.03125 -0.265625 -1.4375 -0.453125q-0.390625 -0.1875 -0.59375 -0.515625q-0.203125 -0.34375 -0.203125 -0.75q0 -0.359375 0.171875 -0.671875q0.171875 -0.328125 0.453125 -0.53125q0.21875 -0.15625 0.59375 -0.265625q0.390625 -0.125 0.8125 -0.125q0.65625 0 1.140625 0.1875q0.5 0.1875 0.734375 0.515625q0.234375 0.3125 0.3125 0.859375l-0.90625 0.125q-0.0625 -0.4375 -0.375 -0.671875q-0.296875 -0.234375 -0.828125 -0.234375q-0.65625 0 -0.9375 0.21875q-0.265625 0.203125 -0.265625 0.484375q0 0.1875 0.109375 0.328125q0.125 0.15625 0.359375 0.25q0.140625 0.0625 0.828125 0.25q1.0 0.265625 1.390625 0.4375q0.390625 0.15625 0.609375 0.484375q0.234375 0.3125 0.234375 0.796875q0 0.46875 -0.28125 0.890625q-0.265625 0.40625 -0.78125 0.640625q-0.515625 0.21875 -1.171875 0.21875q-1.078125 0 -1.640625 -0.4375q-0.5625 -0.453125 -0.71875 -1.34375zm10.625 -2.828125l-5.03125 0l0 -0.875l5.03125 0l0 0.875zm0 2.3125l-5.03125 0l0 -0.875l5.03125 0l0 0.875zm1.0355835 -1.59375q0 -1.34375 0.28125 -2.171875q0.28125 -0.828125 0.828125 -1.265625q0.546875 -0.453125 1.375 -0.453125q0.625 0 1.078125 0.25q0.46875 0.234375 0.765625 0.703125q0.3125 0.46875 0.484375 1.140625q0.171875 0.671875 0.171875 1.796875q0 1.34375 -0.28125 2.171875q-0.28125 0.828125 -0.828125 1.28125q-0.546875 0.4375 -1.390625 0.4375q-1.09375 0 -1.71875 -0.78125q-0.765625 -0.953125 -0.765625 -3.109375zm0.96875 0q0 1.875 0.4375 2.5q0.4375 0.625 1.078125 0.625q0.65625 0 1.09375 -0.625q0.4375 -0.625 0.4375 -2.5q0 -1.875 -0.4375 -2.5q-0.4375 -0.625 -1.09375 -0.625q-0.640625 0 -1.03125 0.546875q-0.484375 0.703125 -0.484375 2.578125z" fill-rule="nonzero"/><path fill="#000000" fill-opacity="0.0" d="m975.2899 102.68241l38.33069 0l0 32.314964l-38.33069 0z" fill-rule="evenodd"/><path fill="#000000" d="m984.61804 120.26617l0.921875 -0.140625q0.078125 0.5625 0.4375 0.859375q0.359375 0.296875 1.0 0.296875q0.640625 0 0.953125 -0.265625q0.3125 -0.265625 0.3125 -0.625q0 -0.3125 -0.28125 -0.5q-0.1875 -0.125 -0.953125 -0.3125q-1.03125 -0.265625 -1.4375 -0.453125q-0.390625 -0.1875 -0.59375 -0.515625q-0.203125 -0.34375 -0.203125 -0.75q0 -0.359375 0.171875 -0.671875q0.171875 -0.328125 0.453125 -0.53125q0.21875 -0.15625 0.59375 -0.265625q0.390625 -0.125 0.8125 -0.125q0.65625 0 1.140625 0.1875q0.5 0.1875 0.734375 0.515625q0.234375 0.3125 0.3125 0.859375l-0.90625 0.125q-0.0625 -0.4375 -0.375 -0.671875q-0.296875 -0.234375 -0.828125 -0.234375q-0.65625 0 -0.9375 0.21875q-0.265625 0.203125 -0.265625 0.484375q0 0.1875 0.109375 0.328125q0.125 0.15625 0.359375 0.25q0.140625 0.0625 0.828125 0.25q1.0 0.265625 1.390625 0.4375q0.390625 0.15625 0.609375 0.484375q0.234375 0.3125 0.234375 0.796875q0 0.46875 -0.28125 0.890625q-0.265625 0.40625 -0.78125 0.640625q-0.515625 0.21875 -1.171875 0.21875q-1.078125 0 -1.640625 -0.4375q-0.5625 -0.453125 -0.71875 -1.34375zm10.625 -2.828125l-5.03125 0l0 -0.875l5.03125 0l0 0.875zm0 2.3125l-5.03125 0l0 -0.875l5.03125 0l0 0.875zm4.5668335 2.171875l-0.9375 0l0 -5.96875q-0.34375 0.328125 -0.890625 0.65625q-0.546875 0.3125 -0.984375 0.46875l0 -0.90625q0.796875 -0.359375 1.375 -0.890625q0.59375 -0.53125 0.828125 -1.015625l0.609375 0l0 7.65625z" fill-rule="nonzero"/><path fill="#000000" fill-opacity="0.0" d="m1046.0105 57.396324l43.02368 0l0 32.314964l-43.02368 0z" fill-rule="evenodd"/><path fill="#ffffff" d="m1066.5618 66.396324l7.5966797 0l0 12.800003l-7.5966797 0l0 -12.800003z" fill-rule="nonzero"/><path fill="#000000" d="m1055.3386 74.98007l0.921875 -0.140625q0.078125 0.5625 0.4375 0.859375q0.359375 0.296875 1.0 0.296875q0.640625 0 0.953125 -0.265625q0.3125 -0.265625 0.3125 -0.625q0 -0.3125 -0.28125 -0.5q-0.1875 -0.125 -0.953125 -0.3125q-1.03125 -0.265625 -1.4375 -0.453125q-0.390625 -0.1875 -0.59375 -0.515625q-0.203125 -0.34375 -0.203125 -0.75q0 -0.359375 0.171875 -0.671875q0.171875 -0.328125 0.453125 -0.53125q0.21875 -0.15625 0.59375 -0.265625q0.390625 -0.125 0.8125 -0.125q0.65625 0 1.140625 0.1875q0.5 0.1875 0.734375 0.515625q0.234375 0.3125 0.3125 0.859375l-0.90625 0.125q-0.0625 -0.4375 -0.375 -0.671875q-0.296875 -0.234375 -0.828125 -0.234375q-0.65625 0 -0.9375 0.21875q-0.265625 0.203125 -0.265625 0.484375q0 0.1875 0.109375 0.328125q0.125 0.15625 0.359375 0.25q0.140625 0.0625 0.828125 0.25q1.0 0.265625 1.390625 0.4375q0.390625 0.15625 0.609375 0.484375q0.234375 0.3125 0.234375 0.796875q0 0.46875 -0.28125 0.890625q-0.265625 0.40625 -0.78125 0.640625q-0.515625 0.21875 -1.171875 0.21875q-1.078125 0 -1.640625 -0.4375q-0.5625 -0.453125 -0.71875 -1.34375zm10.625 -2.828125l-5.03125 0l0 -0.875l5.03125 0l0 0.875zm0 2.3125l-5.03125 0l0 -0.875l5.03125 0l0 0.875z" fill-rule="nonzero"/><path fill="#010000" fill-opacity="0.0" d="m1066.5618 66.9895l7.5966797 0l0 12.253647l-7.5966797 0l0 -12.253647z" fill-rule="nonzero"/><path fill="#000000" d="m1070.1399 72.41757q0.546875 -0.6875 0.859375 -0.90625q0.421875 -0.3125 0.875 -0.3125q0.546875 0 1.015625 0.40625q0.484375 0.390625 0.484375 1.265625q0 0.625 -0.171875 0.96875q-0.171875 0.34375 -0.546875 0.5625q-0.375 0.21875 -0.78125 0.21875q-0.453125 0 -0.875 -0.296875q-0.3125 -0.234375 -0.859375 -0.90625q-0.703125 0.875 -1.5 0.875q-0.515625 0 -0.90625 -0.390625q-0.375 -0.390625 -0.375 -0.984375q0 -0.59375 0.375 -0.984375q0.390625 -0.40625 0.90625 -0.40625q0.796875 0 1.5 0.890625zm0.359375 0.484375q0.453125 0.703125 0.828125 0.96875q0.25 0.171875 0.546875 0.171875q0.390625 0 0.65625 -0.28125q0.265625 -0.296875 0.265625 -0.828125q0 -0.5625 -0.28125 -0.84375q-0.265625 -0.296875 -0.671875 -0.296875q-0.25 0 -0.46875 0.140625q-0.3125 0.203125 -0.875 0.96875zm-0.71875 0.015625q-0.40625 -0.53125 -0.65625 -0.671875q-0.25 -0.15625 -0.484375 -0.15625q-0.296875 0 -0.5 0.21875q-0.203125 0.21875 -0.203125 0.59375q0 0.359375 0.203125 0.59375q0.21875 0.21875 0.515625 0.21875q0.53125 0 1.125 -0.796875z" fill-rule="nonzero"/><path fill="#000000" fill-opacity="0.0" d="m902.98425 238.4042l54.204712 0l0 32.31494l-54.204712 0z" fill-rule="evenodd"/><path fill="#ffffff" d="m923.53546 247.4042l11.145325 0l0 12.799988l-11.145325 0l0 -12.799988z" fill-rule="nonzero"/><path fill="#000000" d="m912.3124 255.98795l0.921875 -0.140625q0.078125 0.5625 0.4375 0.859375q0.359375 0.296875 1.0 0.296875q0.640625 0 0.953125 -0.265625q0.3125 -0.265625 0.3125 -0.625q0 -0.3125 -0.28125 -0.5q-0.1875 -0.125 -0.953125 -0.3125q-1.03125 -0.265625 -1.4375 -0.453125q-0.390625 -0.1875 -0.59375 -0.515625q-0.203125 -0.34375 -0.203125 -0.75q0 -0.359375 0.171875 -0.671875q0.171875 -0.328125 0.453125 -0.53125q0.21875 -0.15625 0.59375 -0.265625q0.390625 -0.125 0.8125 -0.125q0.65625 0 1.140625 0.1875q0.5 0.1875 0.734375 0.515625q0.234375 0.3125 0.3125 0.859375l-0.90625 0.125q-0.0625 -0.4375 -0.375 -0.671875q-0.296875 -0.234375 -0.828125 -0.234375q-0.65625 0 -0.9375 0.21875q-0.265625 0.203125 -0.265625 0.484375q0 0.1875 0.109375 0.328125q0.125 0.15625 0.359375 0.25q0.140625 0.0625 0.828125 0.25q1.0 0.265625 1.390625 0.4375q0.390625 0.15625 0.609375 0.484375q0.234375 0.3125 0.234375 0.796875q0 0.46875 -0.28125 0.890625q-0.265625 0.40625 -0.78125 0.640625q-0.515625 0.21875 -1.171875 0.21875q-1.078125 0 -1.640625 -0.4375q-0.5625 -0.453125 -0.71875 -1.34375zm10.625 -2.828125l-5.03125 0l0 -0.875l5.03125 0l0 0.875zm0 2.3125l-5.03125 0l0 -0.875l5.03125 0l0 0.875z" fill-rule="nonzero"/><path fill="#010000" fill-opacity="0.0" d="m923.53546 247.99738l3.548584 0l0 12.253662l-3.548584 0l0 -12.253662z" fill-rule="nonzero"/><path fill="#000000" d="m923.8792 255.34732l0 -0.9375l2.875 0l0 0.9375l-2.875 0z" fill-rule="nonzero"/><path fill="#000000" fill-opacity="0.0" d="m927.08405 247.99738l7.5967407 0l0 12.253662l-7.5967407 0l0 -12.253662z" fill-rule="nonzero"/><path fill="#000000" d="m930.6622 253.42545q0.546875 -0.6875 0.859375 -0.90625q0.421875 -0.3125 0.875 -0.3125q0.546875 0 1.015625 0.40625q0.484375 0.390625 0.484375 1.265625q0 0.625 -0.171875 0.96875q-0.171875 0.34375 -0.546875 0.5625q-0.375 0.21875 -0.78125 0.21875q-0.453125 0 -0.875 -0.296875q-0.3125 -0.234375 -0.859375 -0.90625q-0.703125 0.875 -1.5 0.875q-0.515625 0 -0.90625 -0.390625q-0.375 -0.390625 -0.375 -0.984375q0 -0.59375 0.375 -0.984375q0.390625 -0.40625 0.90625 -0.40625q0.796875 0 1.5 0.890625zm0.359375 0.484375q0.453125 0.703125 0.828125 0.96875q0.25 0.171875 0.546875 0.171875q0.390625 0 0.65625 -0.28125q0.265625 -0.296875 0.265625 -0.828125q0 -0.5625 -0.28125 -0.84375q-0.265625 -0.296875 -0.671875 -0.296875q-0.25 0 -0.46875 0.140625q-0.3125 0.203125 -0.875 0.96875zm-0.71875 0.015625q-0.40625 -0.53125 -0.65625 -0.671875q-0.25 -0.15625 -0.484375 -0.15625q-0.296875 0 -0.5 0.21875q-0.203125 0.21875 -0.203125 0.59375q0 0.359375 0.203125 0.59375q0.21875 0.21875 0.515625 0.21875q0.53125 0 1.125 -0.796875z" fill-rule="nonzero"/><path fill="#000000" fill-opacity="0.0" d="m920.3233 216.96925l39.02362 -28.56694l19.08667 26.07875l-39.02362 28.566925z" fill-rule="evenodd"/><path fill="#000000" d="m938.2352 225.64868l0.66082764 -0.65802q0.39520264 0.40777588 0.86053467 0.4350586q0.46533203 0.027282715 0.98223877 -0.35112q0.51690674 -0.3784027 0.6121826 -0.77734375q0.09527588 -0.39894104 -0.11694336 -0.6889496q-0.18457031 -0.25216675 -0.5222168 -0.23735046q-0.22515869 0.009887695 -0.9536743 0.31082153q-0.9890137 0.3948059 -1.4275513 0.48345947q-0.42590332 0.079437256 -0.7836304 -0.06536865q-0.36688232 -0.15740967 -0.6068115 -0.48524475q-0.21228027 -0.2899933 -0.25811768 -0.643692q-0.055114746 -0.36631775 0.051818848 -0.6963501q0.084228516 -0.25531006 0.32226562 -0.56507874q0.24133301 -0.331604 0.5817871 -0.5807953q0.52948 -0.38763428 1.0310669 -0.5224457q0.5142212 -0.14404297 0.8970947 -0.017700195q0.37371826 0.11373901 0.7597046 0.5088959l-0.65740967 0.6361847q-0.3088379 -0.3161316 -0.69940186 -0.3206787q-0.37799072 -0.013763428 -0.8066406 0.30003357q-0.529541 0.38763428 -0.6272583 0.73028564q-0.09436035 0.32081604 0.07171631 0.54777527q0.11071777 0.15130615 0.28204346 0.20018005q0.19317627 0.052246094 0.43762207 -0.010543823q0.15039062 -0.03262329 0.81591797 -0.28741455q0.9637451 -0.37634277 1.3804321 -0.46836853q0.40753174 -0.104660034 0.77783203 0.030914307q0.37365723 0.11373901 0.659729 0.50460815q0.27685547 0.37826538 0.29907227 0.88482666q0.02557373 0.4847412 -0.2520752 0.97843933q-0.28686523 0.48109436 -0.8163452 0.86872864q-0.8699341 0.6368408 -1.5822144 0.61605835q-0.7214966 -0.03340149 -1.3735962 -0.6598053zm5.902527 -6.392868l-0.51678467 -0.70610046l2.8206787 -4.717743l0.55371094 0.7565155l-2.2712402 3.6959076l4.218384 -1.0354462l0.55371094 0.75653076l-5.3584595 1.2503357zm7.8303223 -4.4540863l-0.55371094 -0.75653076l2.3198242 -1.6982117l0.55371094 0.7565155l-2.3198242 1.6982269zm7.1449585 -2.3838654l-0.7564697 0.553772l-3.5252075 -4.816559q-0.08355713 0.46783447 -0.3310547 1.0556488q-0.25671387 0.5752106 -0.51745605 0.9597168l-0.5352173 -0.731308q0.4307251 -0.7606964 0.5834961 -1.5308838q0.16534424 -0.77941895 0.068359375 -1.3087311l0.49169922 -0.35995483l4.5218506 6.178299z" fill-rule="nonzero"/><path fill="#cfe2f3" d="m951.1233 197.6116l-0.4574585 0.35856628l-5.732239 -7.3228455l0.45739746 -0.35856628zm-0.91485596 0.71713257l-0.914917 0.7171173l-5.7323 -7.32283l0.914917 -0.71713257zm-1.3723755 1.0756836l-18.025146 14.1289215l2.86615 3.6614227l-13.104919 -1.5437927l1.6403809 -13.101883l2.86615 3.6614227l18.025146 -14.1289215z" fill-rule="evenodd"/><path stroke="#000000" stroke-width="1.0" stroke-linejoin="round" stroke-linecap="butt" d="m951.1233 197.6116l-0.4574585 0.35856628l-5.732239 -7.3228455l0.45739746 -0.35856628zm-0.91485596 0.71713257l-0.914917 0.7171173l-5.7323 -7.32283l0.914917 -0.71713257zm-1.3723755 1.0756836l-18.025146 14.1289215l2.86615 3.6614227l-13.104919 -1.5437927l1.6403809 -13.101883l2.86615 3.6614227l18.025146 -14.1289215z" fill-rule="evenodd"/><path fill="#000000" fill-opacity="0.0" d="m1023.88715 113.23304l39.02362 -28.566933l19.086548 26.078743l-39.02356 28.566933z" fill-rule="evenodd"/><path fill="#000000" d="m1041.7991 121.91247l0.6607666 -0.6580124q0.39526367 0.40776825 0.8605957 0.4350586q0.46533203 0.027282715 0.98217773 -0.35112q0.5169678 -0.37841034 0.6121826 -0.7773514q0.095336914 -0.3989334 -0.11694336 -0.68894196q-0.18457031 -0.25217438 -0.5222168 -0.23735046q-0.22509766 0.009887695 -0.9536133 0.31082153q-0.9890137 0.39479828 -1.4276123 0.48345947q-0.42590332 0.07942963 -0.78356934 -0.06536865q-0.36694336 -0.15740967 -0.6068115 -0.48523712q-0.21228027 -0.29000854 -0.2581787 -0.6437073q-0.05505371 -0.36631012 0.051879883 -0.6963501q0.084228516 -0.25530243 0.32226562 -0.5650711q0.24133301 -0.331604 0.58166504 -0.5808029q0.529541 -0.38763428 1.0311279 -0.5224457q0.5142822 -0.14403534 0.8970947 -0.017692566q0.3737793 0.113731384 0.7597656 0.5088959l-0.6574707 0.63617706q-0.3088379 -0.3161316 -0.6993408 -0.32067108q-0.37805176 -0.013771057 -0.8066406 0.30002594q-0.529541 0.3876419 -0.62731934 0.7302933q-0.09436035 0.32081604 0.071777344 0.54777527q0.11071777 0.15130615 0.28198242 0.20018005q0.1932373 0.052246094 0.43762207 -0.010536194q0.15039062 -0.03263092 0.81591797 -0.28742218q0.9637451 -0.37633514 1.3804932 -0.46837616q0.4074707 -0.104652405 0.77770996 0.030921936q0.3737793 0.113731384 0.65979004 0.50460815q0.27685547 0.37825775 0.29907227 0.88482666q0.025634766 0.48473358 -0.2520752 0.9784317q-0.28686523 0.481102 -0.8162842 0.86873627q-0.8699951 0.6368332 -1.5822754 0.6160507q-0.72143555 -0.03339386 -1.3735352 -0.6598053zm9.987427 -9.383217l-2.8114014 4.730362l-0.55371094 -0.75653076l2.2493896 -3.6992722l-4.196533 1.0388184l-0.55371094 -0.75652313l5.349243 -1.2629471l0.51672363 0.70609283zm8.026978 -1.7514725l-0.7564697 0.55376434l-3.5251465 -4.816559q-0.083618164 0.46783447 -0.33117676 1.0556488q-0.25671387 0.5752106 -0.517334 0.9597244l-0.5352783 -0.7313156q0.43078613 -0.76070404 0.5834961 -1.5308914q0.1652832 -0.77941895 0.068359375 -1.3087311l0.49169922 -0.3599472l4.5218506 6.1783066z" fill-rule="nonzero"/><path fill="#cfe2f3" d="m1021.0435 110.84734l0.44519043 -0.37384796l5.968445 7.1338577l-0.44519043 0.37384796zm0.8903198 -0.7476959l0.89038086 -0.74770355l5.968506 7.1338577l-0.89038086 0.74770355zm1.3355713 -1.1215515l17.528198 -14.719574l-2.984253 -3.566925l13.143555 1.1084976l-1.206543 13.159218l-2.984253 -3.5669327l-17.528198 14.719574z" fill-rule="evenodd"/><path stroke="#000000" stroke-width="1.0" stroke-linejoin="round" stroke-linecap="butt" d="m1021.0435 110.84734l0.44519043 -0.37384796l5.968445 7.1338577l-0.44519043 0.37384796zm0.8903198 -0.7476959l0.89038086 -0.74770355l5.968506 7.1338577l-0.89038086 0.74770355zm1.3355713 -1.1215515l17.528198 -14.719574l-2.984253 -3.566925l13.143555 1.1084976l-1.206543 13.159218l-2.984253 -3.5669327l-17.528198 14.719574z" fill-rule="evenodd"/></g></svg>