<svg version="1.1" id="Layer_1" xmlns="http://www.w3.org/2000/svg" xmlns:xlink="http://www.w3.org/1999/xlink" x="0px" y="0px"
	 width="100%" viewBox="0 0 1956 524" enable-background="new 0 0 1956 524" xml:space="preserve">
<path fill="#FFFFFF" opacity="0.000000" stroke="none"
	d="
M1265.000000,525.000000
	C843.333313,525.000000 422.166656,525.000000 1.000000,525.000000
	C1.000000,350.333344 1.000000,175.666672 1.000000,1.000000
	C653.000000,1.000000 1305.000000,1.000000 1957.000000,1.000000
	C1957.000000,175.666672 1957.000000,350.333344 1957.000000,525.000000
	C1726.500000,525.000000 1496.000000,525.000000 1265.000000,525.000000
M1318.913086,498.544006
	C1347.390991,500.765167 1375.399048,498.889954 1402.636475,489.450348
	C1434.903931,478.267426 1458.885254,457.209778 1475.862549,427.978455
	C1492.789673,398.833466 1498.556274,366.798615 1498.694702,333.592773
	C1498.826050,302.094727 1492.446533,271.806122 1479.766113,242.951172
	C1475.929077,234.219666 1471.348511,225.814972 1466.818848,216.676132
	C1538.085571,216.676132 1609.076172,216.676132 1679.991211,216.676132
	C1679.991211,201.337326 1679.991211,186.590469 1679.991211,171.486557
	C1678.362671,171.486557 1677.053467,171.486557 1675.744263,171.486557
	C1568.112915,171.487198 1460.481689,171.482285 1352.850342,171.492264
	C1324.750244,171.494858 1297.010254,174.146194 1270.157593,183.058487
	C1237.164673,194.008728 1211.552368,213.888062 1195.519775,245.184769
	C1185.770508,264.216278 1180.759033,284.586884 1178.703003,305.793030
	C1175.069580,343.270355 1177.605957,379.982422 1193.016846,414.870239
	C1205.329590,442.744171 1224.281982,464.920044 1251.294067,479.726746
	C1272.084961,491.123199 1294.572754,496.432922 1318.913086,498.544006
M49.870037,429.640472
	C62.953362,455.046936 83.119041,473.238068 108.718529,485.047241
	C147.265564,502.829132 187.396164,503.960175 227.592560,492.064117
	C273.029419,478.617157 302.078094,447.679626 315.852997,402.778290
	C328.077240,362.931519 327.788300,322.298492 319.873535,281.707581
	C314.348938,253.374435 302.939301,227.703995 281.063599,207.959061
	C245.855850,176.180649 203.722946,164.416534 157.150955,166.671204
	C135.941208,167.698029 115.350212,172.484085 95.089043,178.695007
	C89.169289,180.509659 83.254021,182.338974 76.715019,184.353058
	C76.715019,131.373016 76.715019,79.147697 76.715019,27.053253
	C60.975235,27.053253 45.698044,27.053253 30.029570,27.053253
	C30.029570,29.064714 30.029572,30.859459 30.029572,32.654205
	C30.029575,127.308388 29.933510,221.962753 30.118422,316.616577
	C30.151575,333.586670 30.731813,350.606171 32.157005,367.510345
	C33.970253,389.017242 39.373344,409.727386 49.870037,429.640472
M929.914856,80.282188
	C989.139832,70.050407 1048.986572,72.574455 1108.746582,72.107742
	C1108.746582,56.808212 1108.746582,42.047718 1108.746582,27.082039
	C1107.947510,26.985577 1107.323364,26.839458 1106.700562,26.845129
	C1056.738159,27.299786 1006.725708,25.249704 956.851013,30.034170
	C925.805664,33.012333 895.163025,38.024334 865.536377,48.056496
	C839.387939,56.910847 815.384888,69.431580 796.357117,90.061859
	C771.705872,116.789177 759.572205,149.309097 753.034058,184.337799
	C747.380188,214.628601 746.513306,245.223770 747.862976,275.922668
	C749.086853,303.760437 752.341614,331.307892 760.007812,358.195984
	C766.817993,382.081696 776.831482,404.394714 792.862122,423.624786
	C810.062439,444.258026 832.410645,457.439697 857.116821,466.900879
	C899.745667,483.225342 944.404846,489.198547 989.606445,490.789673
	C1028.054199,492.143097 1066.566284,491.671478 1105.050049,491.987152
	C1106.309448,491.997498 1107.570679,491.787994 1108.756348,491.687317
	C1108.756348,476.534515 1108.756348,461.754028 1108.756348,446.489197
	C1106.768188,446.489197 1104.970337,446.495026 1103.172485,446.488312
	C1075.846191,446.386322 1048.519775,446.313477 1021.193726,446.171967
	C983.129883,445.974884 945.344116,443.048218 908.260315,433.921844
	C887.316467,428.767517 867.036255,421.753876 849.930054,408.090179
	C826.215698,389.148315 814.192383,363.122620 807.096863,334.461609
	C799.551086,303.982147 798.095276,272.909149 799.301147,241.686951
	C800.326050,215.148819 803.769348,188.957474 813.085449,163.880692
	C823.851135,134.901825 841.398010,111.711380 870.070679,98.228821
	C888.859314,89.393959 908.716492,84.110847 929.914856,80.282188
M593.929321,210.371826
	C589.948242,215.699783 586.275085,221.293915 581.936401,226.312683
	C552.941772,259.851837 514.929688,276.000122 471.969635,280.769104
	C448.364655,283.389496 424.427917,283.024200 400.640106,283.988647
	C398.884094,284.059845 397.122681,283.998016 395.480103,283.998016
	C395.480103,353.715179 395.480103,422.774597 395.480103,491.804291
	C411.105164,491.804291 426.387329,491.804291 442.184235,491.804291
	C442.184235,436.897522 442.184235,382.185883 442.184235,327.091217
	C444.168915,327.091217 445.640198,327.105865 447.111115,327.089020
	C469.504547,326.832336 491.604279,324.177612 513.383911,318.936890
	C549.733643,310.190155 581.923218,293.759277 608.430481,267.043274
	C631.856995,243.432205 647.456848,215.057999 657.988098,183.779724
	C672.410645,140.944138 677.549622,96.578270 679.063721,51.668407
	C679.337158,43.557732 679.102722,35.429935 679.102722,27.201405
	C663.680847,27.201405 648.153381,27.201405 632.264954,27.201405
	C632.264954,29.880447 632.274719,32.191853 632.263489,34.503155
	C632.107849,66.546074 629.715576,98.395821 623.976868,129.953323
	C618.819946,158.311356 610.090576,185.344086 593.929321,210.371826
M1936.104858,257.432251
	C1936.104858,242.950348 1936.104858,228.468430 1936.104858,213.810059
	C1865.063354,213.810059 1794.333496,213.810059 1723.575562,213.810059
	C1723.575562,230.054672 1723.575562,245.970062 1723.575562,261.973236
	C1794.475586,261.973236 1865.073486,261.973236 1936.104858,261.973236
	C1936.104858,260.656677 1936.104858,259.536530 1936.104858,257.432251
M1723.277344,330.500427
	C1723.277344,339.782166 1723.277344,349.063934 1723.277344,358.554565
	C1794.456543,358.554565 1865.121582,358.554565 1935.815430,358.554565
	C1935.815430,342.536469 1935.815430,326.805389 1935.815430,311.205444
	C1864.868408,311.205444 1794.208496,311.205444 1723.277344,311.205444
	C1723.277344,317.552521 1723.277344,323.526611 1723.277344,330.500427
z"/>
<path fill="#000000" opacity="1.000000" stroke="none"
	d="
M1318.456055,498.473633
	C1294.572754,496.432922 1272.084961,491.123199 1251.294067,479.726746
	C1224.281982,464.920044 1205.329590,442.744171 1193.016846,414.870239
	C1177.605957,379.982422 1175.069580,343.270355 1178.703003,305.793030
	C1180.759033,284.586884 1185.770508,264.216278 1195.519775,245.184769
	C1211.552368,213.888062 1237.164673,194.008728 1270.157593,183.058487
	C1297.010254,174.146194 1324.750244,171.494858 1352.850342,171.492264
	C1460.481689,171.482285 1568.112915,171.487198 1675.744263,171.486557
	C1677.053467,171.486557 1678.362671,171.486557 1679.991211,171.486557
	C1679.991211,186.590469 1679.991211,201.337326 1679.991211,216.676132
	C1609.076172,216.676132 1538.085571,216.676132 1466.818848,216.676132
	C1471.348511,225.814972 1475.929077,234.219666 1479.766113,242.951172
	C1492.446533,271.806122 1498.826050,302.094727 1498.694702,333.592773
	C1498.556274,366.798615 1492.789673,398.833466 1475.862549,427.978455
	C1458.885254,457.209778 1434.903931,478.267426 1402.636475,489.450348
	C1375.399048,498.889954 1347.390991,500.765167 1318.456055,498.473633
M1430.913330,243.679916
	C1426.732544,235.935806 1422.461426,228.238342 1418.420532,220.421875
	C1417.029297,217.730881 1415.330566,216.740891 1412.226440,216.761383
	C1389.895142,216.908798 1367.537231,216.192841 1345.238770,217.060974
	C1329.349731,217.679581 1313.182251,218.804642 1297.768921,222.402206
	C1265.166992,230.011627 1243.089233,250.555481 1233.123657,282.674286
	C1222.346436,317.409210 1221.763794,352.654327 1233.086304,387.338654
	C1243.769775,420.065826 1266.401489,441.119019 1299.870361,449.970947
	C1322.096802,455.849426 1344.661987,456.525696 1367.254395,452.683716
	C1387.509766,449.239166 1405.826660,441.454712 1420.440674,426.392548
	C1434.052979,412.362946 1442.176636,395.380402 1446.045166,376.487030
	C1455.377808,330.907379 1450.420532,286.816101 1430.913330,243.679916
z"/>
<path fill="#000000" opacity="1.000000" stroke="none"
	d="
M49.673149,429.322998
	C39.373344,409.727386 33.970253,389.017242 32.157005,367.510345
	C30.731813,350.606171 30.151575,333.586670 30.118422,316.616577
	C29.933510,221.962753 30.029575,127.308388 30.029572,32.654205
	C30.029572,30.859459 30.029570,29.064714 30.029570,27.053253
	C45.698044,27.053253 60.975235,27.053253 76.715019,27.053253
	C76.715019,79.147697 76.715019,131.373016 76.715019,184.353058
	C83.254021,182.338974 89.169289,180.509659 95.089043,178.695007
	C115.350212,172.484085 135.941208,167.698029 157.150955,166.671204
	C203.722946,164.416534 245.855850,176.180649 281.063599,207.959061
	C302.939301,227.703995 314.348938,253.374435 319.873535,281.707581
	C327.788300,322.298492 328.077240,362.931519 315.852997,402.778290
	C302.078094,447.679626 273.029419,478.617157 227.592560,492.064117
	C187.396164,503.960175 147.265564,502.829132 108.718529,485.047241
	C83.119041,473.238068 62.953362,455.046936 49.673149,429.322998
M154.631165,210.134125
	C129.391037,211.027817 104.656113,214.802628 80.592461,222.718384
	C77.589401,223.706238 76.924591,225.075821 76.932686,227.975037
	C77.031845,263.469879 76.839447,298.966217 77.081825,334.459747
	C77.207039,352.795410 79.020905,370.994965 83.049721,388.963654
	C90.216148,420.926208 108.859085,441.850342 140.952988,450.091400
	C158.533920,454.605804 176.394424,456.479919 194.411835,453.927612
	C229.146469,449.007172 254.185486,430.482819 266.080627,397.428345
	C281.169617,355.498779 279.439850,312.878754 264.604248,271.203827
	C255.349655,245.206635 237.190247,226.666626 210.716202,217.283493
	C192.897873,210.968201 174.369644,209.464966 154.631165,210.134125
z"/>
<path fill="#000000" opacity="1.000000" stroke="none"
	d="
M929.493530,80.384323
	C908.716492,84.110847 888.859314,89.393959 870.070679,98.228821
	C841.398010,111.711380 823.851135,134.901825 813.085449,163.880692
	C803.769348,188.957474 800.326050,215.148819 799.301147,241.686951
	C798.095276,272.909149 799.551086,303.982147 807.096863,334.461609
	C814.192383,363.122620 826.215698,389.148315 849.930054,408.090179
	C867.036255,421.753876 887.316467,428.767517 908.260315,433.921844
	C945.344116,443.048218 983.129883,445.974884 1021.193726,446.171967
	C1048.519775,446.313477 1075.846191,446.386322 1103.172485,446.488312
	C1104.970337,446.495026 1106.768188,446.489197 1108.756348,446.489197
	C1108.756348,461.754028 1108.756348,476.534515 1108.756348,491.687317
	C1107.570679,491.787994 1106.309448,491.997498 1105.050049,491.987152
	C1066.566284,491.671478 1028.054199,492.143097 989.606445,490.789673
	C944.404846,489.198547 899.745667,483.225342 857.116821,466.900879
	C832.410645,457.439697 810.062439,444.258026 792.862122,423.624786
	C776.831482,404.394714 766.817993,382.081696 760.007812,358.195984
	C752.341614,331.307892 749.086853,303.760437 747.862976,275.922668
	C746.513306,245.223770 747.380188,214.628601 753.034058,184.337799
	C759.572205,149.309097 771.705872,116.789177 796.357117,90.061859
	C815.384888,69.431580 839.387939,56.910847 865.536377,48.056496
	C895.163025,38.024334 925.805664,33.012333 956.851013,30.034170
	C1006.725708,25.249704 1056.738159,27.299786 1106.700562,26.845129
	C1107.323364,26.839458 1107.947510,26.985577 1108.746582,27.082039
	C1108.746582,42.047718 1108.746582,56.808212 1108.746582,72.107742
	C1048.986572,72.574455 989.139832,70.050407 929.493530,80.384323
z"/>
<path fill="#000000" opacity="1.000000" stroke="none"
	d="
M594.112488,210.059296
	C610.090576,185.344086 618.819946,158.311356 623.976868,129.953323
	C629.715576,98.395821 632.107849,66.546074 632.263489,34.503155
	C632.274719,32.191853 632.264954,29.880447 632.264954,27.201405
	C648.153381,27.201405 663.680847,27.201405 679.102722,27.201405
	C679.102722,35.429935 679.337158,43.557732 679.063721,51.668407
	C677.549622,96.578270 672.410645,140.944138 657.988098,183.779724
	C647.456848,215.057999 631.856995,243.432205 608.430481,267.043274
	C581.923218,293.759277 549.733643,310.190155 513.383911,318.936890
	C491.604279,324.177612 469.504547,326.832336 447.111115,327.089020
	C445.640198,327.105865 444.168915,327.091217 442.184235,327.091217
	C442.184235,382.185883 442.184235,436.897522 442.184235,491.804291
	C426.387329,491.804291 411.105164,491.804291 395.480103,491.804291
	C395.480103,422.774597 395.480103,353.715179 395.480103,283.998016
	C397.122681,283.998016 398.884094,284.059845 400.640106,283.988647
	C424.427917,283.024200 448.364655,283.389496 471.969635,280.769104
	C514.929688,276.000122 552.941772,259.851837 581.936401,226.312683
	C586.275085,221.293915 589.948242,215.699783 594.112488,210.059296
z"/>
<path fill="#000000" opacity="1.000000" stroke="none"
	d="
M1936.104858,257.924316
	C1936.104858,259.536530 1936.104858,260.656677 1936.104858,261.973236
	C1865.073486,261.973236 1794.475586,261.973236 1723.575562,261.973236
	C1723.575562,245.970062 1723.575562,230.054672 1723.575562,213.810059
	C1794.333496,213.810059 1865.063354,213.810059 1936.104858,213.810059
	C1936.104858,228.468430 1936.104858,242.950348 1936.104858,257.924316
z"/>
<path fill="#000000" opacity="1.000000" stroke="none"
	d="
M1723.277344,330.000580
	C1723.277344,323.526611 1723.277344,317.552521 1723.277344,311.205444
	C1794.208496,311.205444 1864.868408,311.205444 1935.815430,311.205444
	C1935.815430,326.805389 1935.815430,342.536469 1935.815430,358.554565
	C1865.121582,358.554565 1794.456543,358.554565 1723.277344,358.554565
	C1723.277344,349.063934 1723.277344,339.782166 1723.277344,330.000580
z"/>
<path fill="#FFFFFF" opacity="0.000000" stroke="none"
	d="
M1431.019287,244.043625
	C1450.420532,286.816101 1455.377808,330.907379 1446.045166,376.487030
	C1442.176636,395.380402 1434.052979,412.362946 1420.440674,426.392548
	C1405.826660,441.454712 1387.509766,449.239166 1367.254395,452.683716
	C1344.661987,456.525696 1322.096802,455.849426 1299.870361,449.970947
	C1266.401489,441.119019 1243.769775,420.065826 1233.086304,387.338654
	C1221.763794,352.654327 1222.346436,317.409210 1233.123657,282.674286
	C1243.089233,250.555481 1265.166992,230.011627 1297.768921,222.402206
	C1313.182251,218.804642 1329.349731,217.679581 1345.238770,217.060974
	C1367.537231,216.192841 1389.895142,216.908798 1412.226440,216.761383
	C1415.330566,216.740891 1417.029297,217.730881 1418.420532,220.421875
	C1422.461426,228.238342 1426.732544,235.935806 1431.019287,244.043625
z"/>
<path fill="#FEFEFE" opacity="1.000000" stroke="none"
	d="
M155.116730,210.124603
	C174.369644,209.464966 192.897873,210.968201 210.716202,217.283493
	C237.190247,226.666626 255.349655,245.206635 264.604248,271.203827
	C279.439850,312.878754 281.169617,355.498779 266.080627,397.428345
	C254.185486,430.482819 229.146469,449.007172 194.411835,453.927612
	C176.394424,456.479919 158.533920,454.605804 140.952988,450.091400
	C108.859085,441.850342 90.216148,420.926208 83.049721,388.963654
	C79.020905,370.994965 77.207039,352.795410 77.081825,334.459747
	C76.839447,298.966217 77.031845,263.469879 76.932686,227.975037
	C76.924591,225.075821 77.589401,223.706238 80.592461,222.718384
	C104.656113,214.802628 129.391037,211.027817 155.116730,210.124603
z"/>
</svg>
