<svg version="1.1" id="Layer_1" xmlns="http://www.w3.org/2000/svg" xmlns:xlink="http://www.w3.org/1999/xlink" x="0px" y="0px"
	 width="100%" viewBox="0 0 1854 524" enable-background="new 0 0 1854 524" xml:space="preserve">
<path fill="#FFFFFF" opacity="0.000000" stroke="none"
	d="
M1215.000000,525.000000
	C810.000000,525.000000 405.500000,525.000000 1.000000,525.000000
	C1.000000,350.333344 1.000000,175.666672 1.000000,1.000000
	C619.000000,1.000000 1237.000000,1.000000 1855.000000,1.000000
	C1855.000000,175.666672 1855.000000,350.333344 1855.000000,525.000000
	C1641.833374,525.000000 1428.666626,525.000000 1215.000000,525.000000
M403.937897,31.543932
	C403.937897,28.745979 403.937897,25.948025 403.937897,21.844452
	C400.008087,23.095974 396.501617,23.527468 393.737122,25.191586
	C269.144196,100.191345 144.616028,175.298645 20.082083,250.396378
	C14.243432,253.917267 14.185288,262.309265 19.982252,265.839844
	C144.473145,341.659363 268.957642,417.489410 393.518188,493.194336
	C396.350281,494.915619 400.049744,495.209869 403.937897,496.342621
	C403.937897,340.743317 403.937897,186.639191 403.937897,31.543932
M738.908264,499.219543
	C751.623413,497.794586 764.550537,497.381561 777.016846,494.769073
	C830.381714,483.585815 865.528259,450.874359 882.439514,399.829224
	C899.519470,348.274902 895.883240,296.819000 875.366577,246.636658
	C871.259033,236.589844 866.071777,226.984451 861.153931,216.697906
	C932.186829,216.697906 1003.189148,216.697906 1074.224731,216.697906
	C1074.224731,201.384567 1074.224731,186.640396 1074.224731,171.485611
	C1071.952637,171.485611 1069.987671,171.485596 1068.022705,171.485596
	C975.874084,171.485596 883.725403,171.452835 791.576782,171.510284
	C770.416992,171.523483 749.248840,171.534576 728.100037,172.114044
	C706.386841,172.709000 685.029724,176.065460 664.376587,183.017212
	C634.189087,193.178207 609.582886,210.647003 593.204468,238.513062
	C580.485962,260.152344 574.523682,283.884918 572.468628,308.665070
	C569.186584,348.238525 572.516296,386.843445 590.952087,422.887878
	C604.468994,449.315155 624.294250,469.731293 651.110168,482.678955
	C678.501892,495.904633 707.816223,500.084320 738.908264,499.219543
M1259.989502,497.477661
	C1285.296265,500.574829 1310.504883,500.290955 1335.511475,494.938904
	C1375.956909,486.282532 1406.842163,464.202362 1427.628662,428.399689
	C1444.635742,399.106445 1450.548340,366.945068 1450.657471,333.554443
	C1450.761108,301.885468 1444.354004,271.443390 1431.498901,242.466843
	C1427.700073,233.903946 1423.234375,225.636932 1418.868042,216.817932
	C1489.969849,216.817932 1560.859375,216.817932 1631.930664,216.817932
	C1631.930664,201.542267 1631.930664,186.681198 1631.930664,171.486237
	C1630.283447,171.486237 1628.972290,171.486221 1627.661133,171.486221
	C1520.191162,171.486542 1412.721191,171.436630 1305.251221,171.523407
	C1279.209106,171.544434 1253.366333,173.616669 1228.223267,181.088943
	C1184.856201,193.977295 1153.759521,220.506485 1139.594727,264.050018
	C1125.153564,308.443176 1124.914551,353.590179 1138.801025,398.162018
	C1156.927002,456.342285 1200.068115,489.480103 1259.989502,497.477661
M1754.339600,219.198761
	C1765.737427,242.830597 1777.194458,266.434265 1788.454956,290.131378
	C1789.801880,292.965912 1791.291016,294.060913 1794.410645,293.908356
	C1799.729736,293.648254 1805.070679,293.836700 1810.402466,293.836700
	C1819.636108,293.836700 1828.869873,293.836700 1838.819214,293.836700
	C1837.723755,291.454010 1837.011475,289.825897 1836.235718,288.228516
	C1809.614624,233.407806 1782.987427,178.589966 1756.360962,123.771774
	C1741.269409,92.701645 1726.201172,61.620136 1711.014893,30.596340
	C1710.274048,29.082584 1708.517822,27.015694 1707.203857,26.993250
	C1692.265747,26.738081 1677.321533,26.831228 1661.773560,26.831228
	C1692.710327,91.101738 1723.373901,154.804840 1754.339600,219.198761
M471.383850,226.795624
	C454.630188,235.595291 447.823853,257.134155 456.481567,273.954346
	C465.613342,291.695557 486.620728,298.840027 504.035553,290.127167
	C520.967163,281.656036 528.549866,259.867371 520.329346,243.307480
	C510.952209,224.417847 490.786682,217.351913 471.383850,226.795624
z"/>
<path fill="#000000" opacity="1.000000" stroke="none"
	d="
M403.937897,32.039497
	C403.937897,186.639191 403.937897,340.743317 403.937897,496.342621
	C400.049744,495.209869 396.350281,494.915619 393.518188,493.194336
	C268.957642,417.489410 144.473145,341.659363 19.982252,265.839844
	C14.185288,262.309265 14.243432,253.917267 20.082083,250.396378
	C144.616028,175.298645 269.144196,100.191345 393.737122,25.191586
	C396.501617,23.527468 400.008087,23.095974 403.937897,21.844452
	C403.937897,25.948025 403.937897,28.745979 403.937897,32.039497
M278.343109,148.866623
	C219.048859,183.448700 159.752289,218.026794 100.464752,252.620377
	C95.715256,255.391647 95.676476,257.081848 100.287773,259.862213
	C183.287949,309.907074 266.289581,359.949585 349.336487,409.916809
	C351.408295,411.163361 353.998260,411.548737 356.755188,412.472687
	C356.755188,309.329010 356.755188,207.245895 356.755188,103.563400
	C329.950348,118.324890 304.599060,133.656128 278.343109,148.866623
z"/>
<path fill="#000000" opacity="1.000000" stroke="none"
	d="
M738.449280,499.237061
	C707.816223,500.084320 678.501892,495.904633 651.110168,482.678955
	C624.294250,469.731293 604.468994,449.315155 590.952087,422.887878
	C572.516296,386.843445 569.186584,348.238525 572.468628,308.665070
	C574.523682,283.884918 580.485962,260.152344 593.204468,238.513062
	C609.582886,210.647003 634.189087,193.178207 664.376587,183.017212
	C685.029724,176.065460 706.386841,172.709000 728.100037,172.114044
	C749.248840,171.534576 770.416992,171.523483 791.576782,171.510284
	C883.725403,171.452835 975.874084,171.485596 1068.022705,171.485596
	C1069.987671,171.485596 1071.952637,171.485611 1074.224731,171.485611
	C1074.224731,186.640396 1074.224731,201.384567 1074.224731,216.697906
	C1003.189148,216.697906 932.186829,216.697906 861.153931,216.697906
	C866.071777,226.984451 871.259033,236.589844 875.366577,246.636658
	C895.883240,296.819000 899.519470,348.274902 882.439514,399.829224
	C865.528259,450.874359 830.381714,483.585815 777.016846,494.769073
	C764.550537,497.381561 751.623413,497.794586 738.449280,499.237061
M623.892212,376.498779
	C624.600952,379.059479 625.227844,381.646179 626.031128,384.176880
	C635.013733,412.475220 652.148743,433.719940 680.039612,445.095886
	C704.350098,455.011475 729.758972,456.632965 755.600220,453.472137
	C772.846863,451.362579 789.050964,446.248566 803.301331,436.022858
	C824.636108,420.713501 836.076050,399.045654 840.782532,373.948883
	C851.021912,319.347565 841.387207,268.139404 812.712036,220.508255
	C811.054260,217.754517 809.308838,216.728226 806.043579,216.753143
	C784.049438,216.921097 762.053406,216.850632 740.057983,216.838821
	C722.675659,216.829483 705.478333,218.368698 688.689514,223.127869
	C659.456360,231.414703 639.225830,249.685989 628.852966,278.279572
	C617.288025,310.159332 617.115112,342.777344 623.892212,376.498779
z"/>
<path fill="#000000" opacity="1.000000" stroke="none"
	d="
M1259.551758,497.403595
	C1200.068115,489.480103 1156.927002,456.342285 1138.801025,398.162018
	C1124.914551,353.590179 1125.153564,308.443176 1139.594727,264.050018
	C1153.759521,220.506485 1184.856201,193.977295 1228.223267,181.088943
	C1253.366333,173.616669 1279.209106,171.544434 1305.251221,171.523407
	C1412.721191,171.436630 1520.191162,171.486542 1627.661133,171.486221
	C1628.972290,171.486221 1630.283447,171.486237 1631.930664,171.486237
	C1631.930664,186.681198 1631.930664,201.542267 1631.930664,216.817932
	C1560.859375,216.817932 1489.969849,216.817932 1418.868042,216.817932
	C1423.234375,225.636932 1427.700073,233.903946 1431.498901,242.466843
	C1444.354004,271.443390 1450.761108,301.885468 1450.657471,333.554443
	C1450.548340,366.945068 1444.635742,399.106445 1427.628662,428.399689
	C1406.842163,464.202362 1375.956909,486.282532 1335.511475,494.938904
	C1310.504883,500.290955 1285.296265,500.574829 1259.551758,497.403595
M1384.293579,247.211105
	C1379.607422,238.241180 1374.824463,229.319763 1370.292236,220.272705
	C1368.878174,217.450012 1366.997559,216.758636 1364.005615,216.774902
	C1341.844482,216.895447 1319.682495,216.839920 1297.520752,216.841339
	C1280.307251,216.842438 1263.283203,218.407791 1246.648560,223.095749
	C1217.393921,231.340302 1196.949829,249.512466 1186.779297,278.170471
	C1174.145508,313.769745 1173.645874,350.071045 1184.582520,386.074127
	C1192.868164,413.350098 1210.249756,433.754578 1236.965942,444.743347
	C1265.188232,456.351624 1294.531738,457.362427 1324.245361,451.415741
	C1346.193604,447.023224 1364.858032,437.058502 1378.750610,419.071808
	C1394.312866,398.923279 1400.141235,375.385559 1401.895508,350.655701
	C1404.420166,315.067444 1399.260742,280.647430 1384.293579,247.211105
z"/>
<path fill="#000000" opacity="1.000000" stroke="none"
	d="
M1754.188599,218.853348
	C1723.373901,154.804840 1692.710327,91.101738 1661.773560,26.831228
	C1677.321533,26.831228 1692.265747,26.738081 1707.203857,26.993250
	C1708.517822,27.015694 1710.274048,29.082584 1711.014893,30.596340
	C1726.201172,61.620136 1741.269409,92.701645 1756.360962,123.771774
	C1782.987427,178.589966 1809.614624,233.407806 1836.235718,288.228516
	C1837.011475,289.825897 1837.723755,291.454010 1838.819214,293.836700
	C1828.869873,293.836700 1819.636108,293.836700 1810.402466,293.836700
	C1805.070679,293.836700 1799.729736,293.648254 1794.410645,293.908356
	C1791.291016,294.060913 1789.801880,292.965912 1788.454956,290.131378
	C1777.194458,266.434265 1765.737427,242.830597 1754.188599,218.853348
z"/>
<path fill="#000000" opacity="1.000000" stroke="none"
	d="
M471.695496,226.585587
	C490.786682,217.351913 510.952209,224.417847 520.329346,243.307480
	C528.549866,259.867371 520.967163,281.656036 504.035553,290.127167
	C486.620728,298.840027 465.613342,291.695557 456.481567,273.954346
	C447.823853,257.134155 454.630188,235.595291 471.695496,226.585587
z"/>
<path fill="#FFFFFF" opacity="0.000000" stroke="none"
	d="
M278.646301,148.659775
	C304.599060,133.656128 329.950348,118.324890 356.755188,103.563400
	C356.755188,207.245895 356.755188,309.329010 356.755188,412.472687
	C353.998260,411.548737 351.408295,411.163361 349.336487,409.916809
	C266.289581,359.949585 183.287949,309.907074 100.287773,259.862213
	C95.676476,257.081848 95.715256,255.391647 100.464752,252.620377
	C159.752289,218.026794 219.048859,183.448700 278.646301,148.659775
z"/>
<path fill="#FFFFFF" opacity="0.000000" stroke="none"
	d="
M623.797363,376.092590
	C617.115112,342.777344 617.288025,310.159332 628.852966,278.279572
	C639.225830,249.685989 659.456360,231.414703 688.689514,223.127869
	C705.478333,218.368698 722.675659,216.829483 740.057983,216.838821
	C762.053406,216.850632 784.049438,216.921097 806.043579,216.753143
	C809.308838,216.728226 811.054260,217.754517 812.712036,220.508255
	C841.387207,268.139404 851.021912,319.347565 840.782532,373.948883
	C836.076050,399.045654 824.636108,420.713501 803.301331,436.022858
	C789.050964,446.248566 772.846863,451.362579 755.600220,453.472137
	C729.758972,456.632965 704.350098,455.011475 680.039612,445.095886
	C652.148743,433.719940 635.013733,412.475220 626.031128,384.176880
	C625.227844,381.646179 624.600952,379.059479 623.797363,376.092590
z"/>
<path fill="#FFFFFF" opacity="0.000000" stroke="none"
	d="
M1384.491455,247.536774
	C1399.260742,280.647430 1404.420166,315.067444 1401.895508,350.655701
	C1400.141235,375.385559 1394.312866,398.923279 1378.750610,419.071808
	C1364.858032,437.058502 1346.193604,447.023224 1324.245361,451.415741
	C1294.531738,457.362427 1265.188232,456.351624 1236.965942,444.743347
	C1210.249756,433.754578 1192.868164,413.350098 1184.582520,386.074127
	C1173.645874,350.071045 1174.145508,313.769745 1186.779297,278.170471
	C1196.949829,249.512466 1217.393921,231.340302 1246.648560,223.095749
	C1263.283203,218.407791 1280.307251,216.842438 1297.520752,216.841339
	C1319.682495,216.839920 1341.844482,216.895447 1364.005615,216.774902
	C1366.997559,216.758636 1368.878174,217.450012 1370.292236,220.272705
	C1374.824463,229.319763 1379.607422,238.241180 1384.491455,247.536774
z"/>
</svg>
