<svg version="1.1" id="Layer_1" xmlns="http://www.w3.org/2000/svg" xmlns:xlink="http://www.w3.org/1999/xlink" x="0px" y="0px"
	 width="100%" viewBox="0 0 3544 524" enable-background="new 0 0 3544 524" xml:space="preserve">
<path fill="#FFFFFF" opacity="0.000000" stroke="none"
	d="
M2703.000000,525.000000
	C1802.000000,525.000000 901.500000,525.000000 1.000000,525.000000
	C1.000000,350.333344 1.000000,175.666672 1.000000,1.000000
	C1182.333374,1.000000 2363.666748,1.000000 3545.000000,1.000000
	C3545.000000,175.666672 3545.000000,350.333344 3545.000000,525.000000
	C3264.500000,525.000000 2984.000000,525.000000 2703.000000,525.000000
M2098.169434,221.500076
	C2098.169434,155.389969 2098.169434,89.279869 2098.169434,21.840576
	C2094.236328,23.117365 2090.753662,23.578609 2087.993408,25.240034
	C1963.531250,100.155869 1839.132568,175.177383 1714.725952,250.185425
	C1708.624634,253.864075 1708.555054,262.309570 1714.610229,265.997345
	C1838.968140,341.735291 1963.318481,417.485718 2087.741699,493.116486
	C2090.584229,494.844269 2094.252197,495.214111 2098.169434,496.411163
	C2098.169434,404.100739 2098.169434,313.300415 2098.169434,221.500076
M2930.693848,492.914856
	C2964.915283,501.397217 2999.279541,501.596863 3033.580322,493.846710
	C3075.438721,484.389069 3105.679688,459.796692 3125.410400,421.894989
	C3135.362793,402.776123 3140.824463,382.393738 3143.303711,361.072815
	C3147.207275,327.505341 3144.669678,294.513977 3133.407471,262.598114
	C3127.923828,247.058472 3120.742188,232.117981 3114.304688,216.847763
	C3184.266357,216.847763 3255.279053,216.847763 3326.546143,216.847763
	C3326.546143,201.599655 3326.546143,186.849274 3326.546143,171.489731
	C3324.514160,171.489731 3322.562012,171.489716 3320.609863,171.489716
	C3225.639160,171.489716 3130.668701,171.461395 3035.697998,171.514191
	C3017.206543,171.524475 2998.702881,171.491409 2980.226562,172.118713
	C2955.488037,172.958649 2931.247803,176.932480 2908.104736,186.144577
	C2879.753174,197.430130 2857.539795,215.780533 2843.023438,242.973633
	C2833.426270,260.952148 2828.070312,280.191162 2825.661133,300.319580
	C2821.681885,333.567383 2822.835205,366.486694 2833.120605,398.607941
	C2842.271729,427.185913 2858.016602,451.345520 2882.164307,469.698364
	C2896.541992,480.625763 2912.739990,487.628174 2930.693848,492.914856
M2342.188965,189.710587
	C2315.692383,201.946442 2295.758545,220.940994 2282.887695,247.231476
	C2273.092529,267.239380 2268.437988,288.543915 2266.724365,310.614563
	C2264.104492,344.353058 2266.344727,377.542816 2279.070801,409.283813
	C2294.195801,447.008667 2320.181641,474.334930 2358.762695,488.202576
	C2397.395020,502.088623 2437.075684,503.052155 2476.795166,493.715088
	C2517.285889,484.196625 2547.129395,460.301697 2566.721680,423.612335
	C2576.949951,404.458832 2582.713623,383.973572 2585.292725,362.474731
	C2589.440918,327.897858 2586.940430,293.943420 2575.014893,261.104828
	C2569.557373,246.076797 2562.671631,231.567429 2556.421143,216.793091
	C2626.424561,216.793091 2697.465088,216.793091 2768.719482,216.793091
	C2768.719482,201.567245 2768.719482,186.802536 2768.719482,171.489975
	C2766.665283,171.489975 2764.705566,171.489990 2762.745605,171.489990
	C2661.757080,171.489990 2560.768799,171.471207 2459.780273,171.513962
	C2447.284424,171.519241 2434.776367,171.559845 2422.295410,172.092606
	C2394.845459,173.264389 2368.078125,177.836594 2342.188965,189.710587
M1312.470825,173.000580
	C1294.870239,174.775787 1277.622559,178.205521 1260.899292,184.062317
	C1228.732178,195.327820 1204.115967,215.447083 1188.658325,246.115067
	C1179.501465,264.282318 1174.572998,283.701172 1172.510010,303.872559
	C1168.628418,341.825073 1170.857178,379.116699 1186.485962,414.508789
	C1203.239136,452.447784 1231.103271,478.846680 1271.130737,490.736511
	C1313.552246,503.337402 1356.217041,503.140076 1398.299316,488.731018
	C1420.299805,481.197937 1438.714355,467.981567 1453.787354,450.221710
	C1474.997314,425.231140 1486.124878,396.022400 1490.259888,363.777435
	C1496.114014,318.124634 1489.021240,274.636444 1468.968262,233.255310
	C1466.321533,227.793365 1463.209595,222.556870 1460.023071,216.681335
	C1531.595703,216.681335 1602.653076,216.681335 1673.820557,216.681335
	C1673.820557,201.491272 1673.820557,186.718933 1673.820557,171.489990
	C1672.009888,171.489990 1670.378540,171.489990 1668.747192,171.489990
	C1561.773193,171.490250 1454.799072,171.446213 1347.825195,171.554947
	C1336.344116,171.566620 1324.863892,172.467392 1312.470825,173.000580
M236.915695,486.435699
	C237.826706,486.035431 238.750061,485.660950 239.646988,485.231293
	C281.443176,465.209961 304.550812,430.901154 313.756165,386.619232
	C321.202606,350.798401 320.655487,314.769653 312.947327,278.989807
	C307.309845,252.821579 296.749603,228.946640 277.000641,210.192200
	C243.682129,178.551605 203.119003,165.847778 157.970490,166.325211
	C135.702942,166.560684 114.038437,171.237076 92.721695,177.470078
	C85.495224,179.583084 78.323921,181.884811 70.588150,184.266296
	C70.588150,131.481659 70.588150,79.383110 70.588150,27.124783
	C54.806461,27.124783 39.418449,27.124783 23.776709,27.124783
	C23.776709,28.560825 23.776709,29.702999 23.776709,30.845175
	C23.776728,132.164764 23.754219,233.484375 23.793579,334.803955
	C23.802736,358.376160 26.201185,381.650146 33.028683,404.338898
	C44.377426,442.052429 67.864113,469.688965 103.659157,485.636505
	C147.387161,505.118317 191.902390,503.352264 236.915695,486.435699
M796.903442,434.601105
	C812.591248,449.245300 831.014648,459.383942 850.902893,466.962036
	C893.398926,483.154510 937.870972,489.223022 982.914551,490.791687
	C1021.535461,492.136719 1060.219604,491.670227 1098.875854,491.991974
	C1099.988037,492.001251 1101.101685,491.864502 1102.211182,491.796051
	C1102.211182,476.591522 1102.211182,461.704376 1102.211182,446.489777
	C1100.044922,446.489777 1098.232300,446.510040 1096.420166,446.486786
	C1057.434692,445.986481 1018.432068,446.028107 979.469055,444.807159
	C947.280029,443.798431 915.630554,438.599823 884.714844,429.076996
	C845.775635,417.082672 819.947876,391.897308 806.480164,353.595123
	C798.684998,331.425629 794.833923,308.529205 793.504028,285.193237
	C791.611938,251.994034 792.367554,218.919189 800.014038,186.333328
	C804.803040,165.924698 812.403381,146.744308 824.941528,129.723114
	C840.675476,108.363518 862.728394,96.697067 887.339966,89.032928
	C922.608032,78.050323 959.033264,74.280014 995.688049,73.144791
	C1029.324951,72.103035 1063.004517,72.439606 1096.665283,72.171791
	C1098.470093,72.157433 1100.275269,72.169952 1102.250244,72.169952
	C1102.250244,56.889263 1102.250244,41.999912 1102.250244,27.196537
	C1101.606934,27.023949 1101.286011,26.860008 1100.966675,26.863222
	C1045.517700,27.421314 989.989746,24.750486 934.710999,31.812119
	C905.080933,35.597237 875.950317,41.195599 848.036072,52.101044
	C819.006042,63.442368 794.372803,80.536430 776.672607,106.744514
	C755.497070,138.098297 746.832703,173.496964 742.991028,210.440292
	C740.434387,235.026627 740.441895,259.667694 741.954712,284.328369
	C743.589661,310.980774 747.169861,337.299164 755.056091,362.898560
	C763.347656,389.813538 775.765442,414.349396 796.903442,434.601105
M615.897583,251.388077
	C642.570435,217.231766 656.083374,177.613770 664.042664,135.660400
	C669.082947,109.092934 671.477783,82.243546 672.699951,55.280590
	C673.126099,45.879616 672.767822,36.443089 672.767822,27.119701
	C657.107178,27.119701 641.701355,27.119701 627.116577,27.119701
	C625.391724,51.855385 624.217285,76.294952 621.848633,100.618225
	C619.264954,127.149651 614.166016,153.247391 604.140442,178.149841
	C594.372742,202.411713 580.722473,223.999756 560.783752,241.274567
	C533.271790,265.110809 500.627319,277.155334 465.037659,280.778839
	C441.564178,283.168732 417.831787,283.018524 394.214661,283.989075
	C392.471710,284.060699 390.723236,283.998474 389.089844,283.998474
	C389.089844,353.666107 389.089844,422.610626 389.089844,491.758789
	C404.661133,491.758789 420.055573,491.758789 435.994019,491.758789
	C435.994019,436.818542 435.994019,382.118408 435.994019,327.045471
	C439.009613,327.045471 441.513947,327.292969 443.955566,327.006348
	C463.597778,324.700378 483.505188,323.634949 502.806641,319.648834
	C548.041260,310.307068 586.304626,288.492157 615.897583,251.388077
M3398.906250,115.626846
	C3406.963379,132.386475 3415.007568,149.152252 3423.079834,165.904495
	C3442.973633,207.188004 3462.865234,248.472702 3482.840088,289.716949
	C3483.606689,291.299957 3485.209229,293.630737 3486.457031,293.652710
	C3501.852539,293.923706 3517.254395,293.829437 3533.257324,293.829437
	C3532.058105,291.284943 3531.172607,289.356842 3530.246094,287.448792
	C3489.698975,203.954407 3449.016357,120.525368 3408.814941,36.864914
	C3405.022217,28.972214 3400.979980,25.930841 3392.226807,26.606518
	C3380.541992,27.508497 3368.734863,26.829475 3356.141113,26.829475
	C3370.527588,56.704220 3384.552979,85.828979 3398.906250,115.626846
M2166.136719,226.564651
	C2148.567383,235.798996 2141.959961,257.317047 2151.295410,274.898010
	C2160.446045,292.131042 2182.108643,298.793793 2199.332275,289.672699
	C2215.529297,281.095184 2222.768066,259.271545 2214.737061,243.229874
	C2205.406738,224.592697 2185.523926,217.515427 2166.136719,226.564651
z"/>
<path fill="#000000" opacity="1.000000" stroke="none"
	d="
M2098.169434,222.000092
	C2098.169434,313.300415 2098.169434,404.100739 2098.169434,496.411163
	C2094.252197,495.214111 2090.584229,494.844269 2087.741699,493.116486
	C1963.318481,417.485718 1838.968140,341.735291 1714.610229,265.997345
	C1708.555054,262.309570 1708.624634,253.864075 1714.725952,250.185425
	C1839.132568,175.177383 1963.531250,100.155869 2087.993408,25.240034
	C2090.753662,23.578609 2094.236328,23.117365 2098.169434,21.840576
	C2098.169434,89.279869 2098.169434,155.389969 2098.169434,222.000092
M2001.581665,132.050995
	C1932.951172,172.055695 1864.320068,212.059341 1795.691284,252.067047
	C1790.218872,255.257233 1789.987915,257.056702 1794.774292,259.942291
	C1877.914917,310.066986 1961.060425,360.184021 2044.247437,410.231750
	C2046.073120,411.330017 2048.400146,411.594940 2050.985107,412.402252
	C2050.985107,309.443665 2050.985107,207.366928 2050.985107,103.657562
	C2033.952026,112.855988 2018.215820,122.514046 2001.581665,132.050995
z"/>
<path fill="#000000" opacity="1.000000" stroke="none"
	d="
M2930.300293,492.802399
	C2912.739990,487.628174 2896.541992,480.625763 2882.164307,469.698364
	C2858.016602,451.345520 2842.271729,427.185913 2833.120605,398.607941
	C2822.835205,366.486694 2821.681885,333.567383 2825.661133,300.319580
	C2828.070312,280.191162 2833.426270,260.952148 2843.023438,242.973633
	C2857.539795,215.780533 2879.753174,197.430130 2908.104736,186.144577
	C2931.247803,176.932480 2955.488037,172.958649 2980.226562,172.118713
	C2998.702881,171.491409 3017.206543,171.524475 3035.697998,171.514191
	C3130.668701,171.461395 3225.639160,171.489716 3320.609863,171.489716
	C3322.562012,171.489716 3324.514160,171.489731 3326.546143,171.489731
	C3326.546143,186.849274 3326.546143,201.599655 3326.546143,216.847763
	C3255.279053,216.847763 3184.266357,216.847763 3114.304688,216.847763
	C3120.742188,232.117981 3127.923828,247.058472 3133.407471,262.598114
	C3144.669678,294.513977 3147.207275,327.505341 3143.303711,361.072815
	C3140.824463,382.393738 3135.362793,402.776123 3125.410400,421.894989
	C3105.679688,459.796692 3075.438721,484.389069 3033.580322,493.846710
	C2999.279541,501.596863 2964.915283,501.397217 2930.300293,492.802399
M2936.951416,224.296738
	C2935.874512,224.733154 2934.814941,225.220200 2933.718018,225.598618
	C2907.168457,234.757156 2889.693115,253.228531 2880.705811,279.341461
	C2868.421875,315.031219 2867.878418,351.426147 2879.377686,387.270355
	C2889.552490,418.986084 2911.367432,439.992584 2943.800781,449.155090
	C2966.424561,455.546265 2989.423340,456.548706 3012.575684,452.809937
	C3048.617920,446.989716 3074.359375,427.978607 3087.345459,393.225800
	C3098.553711,363.232300 3098.794189,332.199585 3094.497314,301.080994
	C3090.494385,272.092499 3079.906982,245.281601 3064.725098,220.263931
	C3063.149170,217.666565 3061.476074,216.740524 3058.429199,216.760483
	C3036.266602,216.905670 3014.102783,216.841995 2991.939209,216.839493
	C2973.541992,216.837402 2955.386963,218.647064 2936.951416,224.296738
z"/>
<path fill="#000000" opacity="1.000000" stroke="none"
	d="
M2342.512451,189.512360
	C2368.078125,177.836594 2394.845459,173.264389 2422.295410,172.092606
	C2434.776367,171.559845 2447.284424,171.519241 2459.780273,171.513962
	C2560.768799,171.471207 2661.757080,171.489990 2762.745605,171.489990
	C2764.705566,171.489990 2766.665283,171.489975 2768.719482,171.489975
	C2768.719482,186.802536 2768.719482,201.567245 2768.719482,216.793091
	C2697.465088,216.793091 2626.424561,216.793091 2556.421143,216.793091
	C2562.671631,231.567429 2569.557373,246.076797 2575.014893,261.104828
	C2586.940430,293.943420 2589.440918,327.897858 2585.292725,362.474731
	C2582.713623,383.973572 2576.949951,404.458832 2566.721680,423.612335
	C2547.129395,460.301697 2517.285889,484.196625 2476.795166,493.715088
	C2437.075684,503.052155 2397.395020,502.088623 2358.762695,488.202576
	C2320.181641,474.334930 2294.195801,447.008667 2279.070801,409.283813
	C2266.344727,377.542816 2264.104492,344.353058 2266.724365,310.614563
	C2268.437988,288.543915 2273.092529,267.239380 2282.887695,247.231476
	C2295.758545,220.940994 2315.692383,201.946442 2342.512451,189.512360
M2322.983398,391.474792
	C2333.030762,417.552155 2350.672119,436.421783 2376.985596,446.123688
	C2406.042480,456.837097 2435.957520,457.732483 2465.923828,450.450592
	C2486.735840,445.393188 2504.238525,434.613373 2516.958740,416.954102
	C2528.921143,400.346497 2534.704590,381.470062 2537.205811,361.373749
	C2543.499268,310.807800 2533.279785,263.833862 2506.891846,220.286102
	C2505.318359,217.689285 2503.671631,216.738678 2500.613037,216.759171
	C2478.616943,216.906540 2456.619629,216.846909 2434.622559,216.835678
	C2417.241699,216.826797 2400.050049,218.353470 2383.246582,223.081833
	C2357.696045,230.271774 2338.599854,245.295792 2326.956787,269.400391
	C2316.490967,291.067413 2313.772705,314.209656 2313.889404,337.883759
	C2313.978760,355.971649 2316.198486,373.717529 2322.983398,391.474792
z"/>
<path fill="#000000" opacity="1.000000" stroke="none"
	d="
M1312.927002,172.978149
	C1324.863892,172.467392 1336.344116,171.566620 1347.825195,171.554947
	C1454.799072,171.446213 1561.773193,171.490250 1668.747192,171.489990
	C1670.378540,171.489990 1672.009888,171.489990 1673.820557,171.489990
	C1673.820557,186.718933 1673.820557,201.491272 1673.820557,216.681335
	C1602.653076,216.681335 1531.595703,216.681335 1460.023071,216.681335
	C1463.209595,222.556870 1466.321533,227.793365 1468.968262,233.255310
	C1489.021240,274.636444 1496.114014,318.124634 1490.259888,363.777435
	C1486.124878,396.022400 1474.997314,425.231140 1453.787354,450.221710
	C1438.714355,467.981567 1420.299805,481.197937 1398.299316,488.731018
	C1356.217041,503.140076 1313.552246,503.337402 1271.130737,490.736511
	C1231.103271,478.846680 1203.239136,452.447784 1186.485962,414.508789
	C1170.857178,379.116699 1168.628418,341.825073 1172.510010,303.872559
	C1174.572998,283.701172 1179.501465,264.282318 1188.658325,246.115067
	C1204.115967,215.447083 1228.732178,195.327820 1260.899292,184.062317
	C1277.622559,178.205521 1294.870239,174.775787 1312.927002,172.978149
M1299.934326,451.725525
	C1321.604004,455.858215 1343.330078,456.332733 1364.971313,451.881165
	C1391.020996,446.522736 1412.202148,433.805756 1426.319702,410.490326
	C1437.755981,391.603058 1442.280151,370.786194 1443.696899,349.202911
	C1446.738770,302.857361 1436.228760,259.745392 1411.880005,220.071716
	C1410.380981,217.629105 1408.797852,216.758270 1405.960693,216.773193
	C1383.628540,216.890579 1361.295288,216.797318 1338.962646,216.852921
	C1321.761230,216.895737 1304.693481,218.243530 1288.081543,223.069016
	C1258.957642,231.528885 1238.558960,249.766022 1228.257080,278.345673
	C1216.890503,309.879578 1215.995239,342.343842 1223.111084,374.818726
	C1231.815186,414.541412 1257.581421,442.768005 1299.934326,451.725525
z"/>
<path fill="#000000" opacity="1.000000" stroke="none"
	d="
M236.585297,486.625183
	C191.902390,503.352264 147.387161,505.118317 103.659157,485.636505
	C67.864113,469.688965 44.377426,442.052429 33.028683,404.338898
	C26.201185,381.650146 23.802736,358.376160 23.793579,334.803955
	C23.754219,233.484375 23.776728,132.164764 23.776709,30.845175
	C23.776709,29.702999 23.776709,28.560825 23.776709,27.124783
	C39.418449,27.124783 54.806461,27.124783 70.588150,27.124783
	C70.588150,79.383110 70.588150,131.481659 70.588150,184.266296
	C78.323921,181.884811 85.495224,179.583084 92.721695,177.470078
	C114.038437,171.237076 135.702942,166.560684 157.970490,166.325211
	C203.119003,165.847778 243.682129,178.551605 277.000641,210.192200
	C296.749603,228.946640 307.309845,252.821579 312.947327,278.989807
	C320.655487,314.769653 321.202606,350.798401 313.756165,386.619232
	C304.550812,430.901154 281.443176,465.209961 239.646988,485.231293
	C238.750061,485.660950 237.826706,486.035431 236.585297,486.625183
M80.255806,401.072540
	C86.597160,419.899475 98.200478,434.152374 116.167824,443.136292
	C134.843613,452.474426 154.856293,455.098877 175.306702,454.886383
	C220.041595,454.421631 253.440369,427.944183 264.033386,384.527710
	C272.330017,350.523010 271.592621,316.423248 262.229584,282.796997
	C251.443100,244.058472 226.532654,219.246613 186.354172,212.567856
	C148.052872,206.201157 110.395195,211.289825 73.517288,222.929565
	C70.311897,223.941284 70.668030,226.015732 70.668877,228.330109
	C70.681320,262.330048 70.579369,296.330414 70.721962,330.329773
	C70.821388,354.036285 72.547104,377.568390 80.255806,401.072540
z"/>
<path fill="#000000" opacity="1.000000" stroke="none"
	d="
M796.641235,434.361816
	C775.765442,414.349396 763.347656,389.813538 755.056091,362.898560
	C747.169861,337.299164 743.589661,310.980774 741.954712,284.328369
	C740.441895,259.667694 740.434387,235.026627 742.991028,210.440292
	C746.832703,173.496964 755.497070,138.098297 776.672607,106.744514
	C794.372803,80.536430 819.006042,63.442368 848.036072,52.101044
	C875.950317,41.195599 905.080933,35.597237 934.710999,31.812119
	C989.989746,24.750486 1045.517700,27.421314 1100.966675,26.863222
	C1101.286011,26.860008 1101.606934,27.023949 1102.250244,27.196537
	C1102.250244,41.999912 1102.250244,56.889263 1102.250244,72.169952
	C1100.275269,72.169952 1098.470093,72.157433 1096.665283,72.171791
	C1063.004517,72.439606 1029.324951,72.103035 995.688049,73.144791
	C959.033264,74.280014 922.608032,78.050323 887.339966,89.032928
	C862.728394,96.697067 840.675476,108.363518 824.941528,129.723114
	C812.403381,146.744308 804.803040,165.924698 800.014038,186.333328
	C792.367554,218.919189 791.611938,251.994034 793.504028,285.193237
	C794.833923,308.529205 798.684998,331.425629 806.480164,353.595123
	C819.947876,391.897308 845.775635,417.082672 884.714844,429.076996
	C915.630554,438.599823 947.280029,443.798431 979.469055,444.807159
	C1018.432068,446.028107 1057.434692,445.986481 1096.420166,446.486786
	C1098.232300,446.510040 1100.044922,446.489777 1102.211182,446.489777
	C1102.211182,461.704376 1102.211182,476.591522 1102.211182,491.796051
	C1101.101685,491.864502 1099.988037,492.001251 1098.875854,491.991974
	C1060.219604,491.670227 1021.535461,492.136719 982.914551,490.791687
	C937.870972,489.223022 893.398926,483.154510 850.902893,466.962036
	C831.014648,459.383942 812.591248,449.245300 796.641235,434.361816
z"/>
<path fill="#000000" opacity="1.000000" stroke="none"
	d="
M615.666138,251.659546
	C586.304626,288.492157 548.041260,310.307068 502.806641,319.648834
	C483.505188,323.634949 463.597778,324.700378 443.955566,327.006348
	C441.513947,327.292969 439.009613,327.045471 435.994019,327.045471
	C435.994019,382.118408 435.994019,436.818542 435.994019,491.758789
	C420.055573,491.758789 404.661133,491.758789 389.089844,491.758789
	C389.089844,422.610626 389.089844,353.666107 389.089844,283.998474
	C390.723236,283.998474 392.471710,284.060699 394.214661,283.989075
	C417.831787,283.018524 441.564178,283.168732 465.037659,280.778839
	C500.627319,277.155334 533.271790,265.110809 560.783752,241.274567
	C580.722473,223.999756 594.372742,202.411713 604.140442,178.149841
	C614.166016,153.247391 619.264954,127.149651 621.848633,100.618225
	C624.217285,76.294952 625.391724,51.855385 627.116577,27.119701
	C641.701355,27.119701 657.107178,27.119701 672.767822,27.119701
	C672.767822,36.443089 673.126099,45.879616 672.699951,55.280590
	C671.477783,82.243546 669.082947,109.092934 664.042664,135.660400
	C656.083374,177.613770 642.570435,217.231766 615.666138,251.659546
z"/>
<path fill="#000000" opacity="1.000000" stroke="none"
	d="
M3398.742432,115.290291
	C3384.552979,85.828979 3370.527588,56.704220 3356.141113,26.829475
	C3368.734863,26.829475 3380.541992,27.508497 3392.226807,26.606518
	C3400.979980,25.930841 3405.022217,28.972214 3408.814941,36.864914
	C3449.016357,120.525368 3489.698975,203.954407 3530.246094,287.448792
	C3531.172607,289.356842 3532.058105,291.284943 3533.257324,293.829437
	C3517.254395,293.829437 3501.852539,293.923706 3486.457031,293.652710
	C3485.209229,293.630737 3483.606689,291.299957 3482.840088,289.716949
	C3462.865234,248.472702 3442.973633,207.188004 3423.079834,165.904495
	C3415.007568,149.152252 3406.963379,132.386475 3398.742432,115.290291
z"/>
<path fill="#000000" opacity="1.000000" stroke="none"
	d="
M2166.455322,226.361176
	C2185.523926,217.515427 2205.406738,224.592697 2214.737061,243.229874
	C2222.768066,259.271545 2215.529297,281.095184 2199.332275,289.672699
	C2182.108643,298.793793 2160.446045,292.131042 2151.295410,274.898010
	C2141.959961,257.317047 2148.567383,235.798996 2166.455322,226.361176
z"/>
<path fill="#FFFFFF" opacity="0.000000" stroke="none"
	d="
M2001.911255,131.892197
	C2018.215820,122.514046 2033.952026,112.855988 2050.985107,103.657562
	C2050.985107,207.366928 2050.985107,309.443665 2050.985107,412.402252
	C2048.400146,411.594940 2046.073120,411.330017 2044.247437,410.231750
	C1961.060425,360.184021 1877.914917,310.066986 1794.774292,259.942291
	C1789.987915,257.056702 1790.218872,255.257233 1795.691284,252.067047
	C1864.320068,212.059341 1932.951172,172.055695 2001.911255,131.892197
z"/>
<path fill="#FFFFFF" opacity="0.000000" stroke="none"
	d="
M2937.330566,224.175751
	C2955.386963,218.647064 2973.541992,216.837402 2991.939209,216.839493
	C3014.102783,216.841995 3036.266602,216.905670 3058.429199,216.760483
	C3061.476074,216.740524 3063.149170,217.666565 3064.725098,220.263931
	C3079.906982,245.281601 3090.494385,272.092499 3094.497314,301.080994
	C3098.794189,332.199585 3098.553711,363.232300 3087.345459,393.225800
	C3074.359375,427.978607 3048.617920,446.989716 3012.575684,452.809937
	C2989.423340,456.548706 2966.424561,455.546265 2943.800781,449.155090
	C2911.367432,439.992584 2889.552490,418.986084 2879.377686,387.270355
	C2867.878418,351.426147 2868.421875,315.031219 2880.705811,279.341461
	C2889.693115,253.228531 2907.168457,234.757156 2933.718018,225.598618
	C2934.814941,225.220200 2935.874512,224.733154 2937.330566,224.175751
z"/>
<path fill="#FFFFFF" opacity="0.000000" stroke="none"
	d="
M2322.862793,391.103088
	C2316.198486,373.717529 2313.978760,355.971649 2313.889404,337.883759
	C2313.772705,314.209656 2316.490967,291.067413 2326.956787,269.400391
	C2338.599854,245.295792 2357.696045,230.271774 2383.246582,223.081833
	C2400.050049,218.353470 2417.241699,216.826797 2434.622559,216.835678
	C2456.619629,216.846909 2478.616943,216.906540 2500.613037,216.759171
	C2503.671631,216.738678 2505.318359,217.689285 2506.891846,220.286102
	C2533.279785,263.833862 2543.499268,310.807800 2537.205811,361.373749
	C2534.704590,381.470062 2528.921143,400.346497 2516.958740,416.954102
	C2504.238525,434.613373 2486.735840,445.393188 2465.923828,450.450592
	C2435.957520,457.732483 2406.042480,456.837097 2376.985596,446.123688
	C2350.672119,436.421783 2333.030762,417.552155 2322.862793,391.103088
z"/>
<path fill="#FFFFFF" opacity="0.000000" stroke="none"
	d="
M1299.526123,451.610046
	C1257.581421,442.768005 1231.815186,414.541412 1223.111084,374.818726
	C1215.995239,342.343842 1216.890503,309.879578 1228.257080,278.345673
	C1238.558960,249.766022 1258.957642,231.528885 1288.081543,223.069016
	C1304.693481,218.243530 1321.761230,216.895737 1338.962646,216.852921
	C1361.295288,216.797318 1383.628540,216.890579 1405.960693,216.773193
	C1408.797852,216.758270 1410.380981,217.629105 1411.880005,220.071716
	C1436.228760,259.745392 1446.738770,302.857361 1443.696899,349.202911
	C1442.280151,370.786194 1437.755981,391.603058 1426.319702,410.490326
	C1412.202148,433.805756 1391.020996,446.522736 1364.971313,451.881165
	C1343.330078,456.332733 1321.604004,455.858215 1299.526123,451.610046
z"/>
<path fill="#FFFFFF" opacity="0.000000" stroke="none"
	d="
M80.148254,400.691406
	C72.547104,377.568390 70.821388,354.036285 70.721962,330.329773
	C70.579369,296.330414 70.681320,262.330048 70.668877,228.330109
	C70.668030,226.015732 70.311897,223.941284 73.517288,222.929565
	C110.395195,211.289825 148.052872,206.201157 186.354172,212.567856
	C226.532654,219.246613 251.443100,244.058472 262.229584,282.796997
	C271.592621,316.423248 272.330017,350.523010 264.033386,384.527710
	C253.440369,427.944183 220.041595,454.421631 175.306702,454.886383
	C154.856293,455.098877 134.843613,452.474426 116.167824,443.136292
	C98.200478,434.152374 86.597160,419.899475 80.148254,400.691406
z"/>
</svg>
