<svg version="1.1" id="Layer_1" xmlns="http://www.w3.org/2000/svg" xmlns:xlink="http://www.w3.org/1999/xlink" x="0px" y="0px"
	 width="100%" viewBox="0 0 448 304" enable-background="new 0 0 448 304" xml:space="preserve">
<path fill="#000000" opacity="1.000000" stroke="none" 
	d="
M68.398468,284.953857 
	C55.947052,282.367004 44.465397,278.558533 34.841694,270.549286 
	C17.755949,256.329803 12.712358,237.535309 16.393482,216.591736 
	C20.955898,190.634064 33.011810,167.540344 46.703739,145.302444 
	C47.765511,143.577957 48.797821,140.951920 51.624554,142.534866 
	C54.498066,144.143997 53.224087,146.588303 52.187313,148.649841 
	C46.194374,160.566467 40.622662,172.653519 36.558365,185.391327 
	C33.075684,196.306305 31.040316,207.368973 33.776459,218.748871 
	C37.628563,234.770172 48.617676,244.563934 63.248249,250.301041 
	C80.991302,257.258606 99.501701,258.170227 118.257118,255.229416 
	C144.955170,251.043228 170.195389,242.309341 194.516159,230.750931 
	C198.262146,228.970657 201.805222,226.741379 205.348846,224.567657 
	C206.873474,223.632416 208.690491,222.519455 208.423950,220.379547 
	C208.137344,218.078354 206.086151,217.184753 204.188217,216.594162 
	C196.856461,214.312637 189.183914,213.755020 181.679260,212.336914 
	C171.088531,210.335663 160.125916,210.292328 149.955322,206.070999 
	C140.432831,202.118637 133.349991,196.041855 132.065475,185.220963 
	C131.327423,179.003448 132.914963,172.961304 135.160263,167.193649 
	C142.906128,147.296417 155.982956,131.351288 171.988815,117.524437 
	C184.012833,107.137367 197.146454,98.865814 212.777344,95.212997 
	C218.791412,93.807549 224.909973,93.005203 230.890350,95.790115 
	C234.398575,97.423798 235.870377,99.595772 234.785843,103.708878 
	C233.007599,110.452980 231.764771,117.338585 230.310699,124.167618 
	C229.969604,125.769615 229.833969,127.447540 228.259109,128.761780 
	C211.260330,115.540100 195.532242,124.090515 180.062210,132.128220 
	C170.060959,137.324539 161.168213,144.410919 155.366623,154.224045 
	C144.064774,173.340485 148.773880,178.409180 165.542633,184.574814 
	C176.966324,188.775146 189.066177,190.443527 201.170151,191.660370 
	C206.146622,192.160675 211.083038,192.857834 215.803467,194.573105 
	C221.035202,196.474167 223.566040,200.333908 224.319717,205.820175 
	C226.774567,223.689514 219.022827,236.763931 205.267105,247.066223 
	C172.473679,271.626740 135.744995,285.011475 94.656067,286.492889 
	C85.933029,286.807404 77.396896,286.124420 68.398468,284.953857 
z"/>
<path fill="#000000" opacity="1.000000" stroke="none" 
	d="
M372.258423,200.580475 
	C370.869781,196.968689 369.634460,193.709106 368.259003,190.079834 
	C365.987946,191.341110 365.214905,193.414612 364.229797,195.188797 
	C351.372284,218.346405 330.903534,228.671478 305.246307,230.207016 
	C298.759155,230.595261 292.261993,230.545883 285.842194,229.263382 
	C280.008759,228.098022 274.780914,225.792160 270.473083,221.522079 
	C266.336578,217.421753 264.735748,212.442276 265.855408,206.916138 
	C267.444794,199.071609 270.256531,191.572861 273.601440,184.293121 
	C274.159149,183.079361 274.847687,181.948761 276.073395,181.420685 
	C278.153198,181.603897 278.658234,183.257416 278.901306,184.593506 
	C280.915375,195.662430 289.114929,199.495255 298.707886,200.432663 
	C311.301270,201.663269 324.049622,201.707764 336.494659,198.903320 
	C356.833038,194.320114 365.670654,180.236343 362.398682,159.625610 
	C359.710388,142.691605 355.997833,125.975098 351.973328,109.359070 
	C348.378815,94.518463 353.883850,82.301552 360.650116,70.077911 
	C360.959381,69.519203 361.526733,69.081177 362.038727,68.667038 
	C362.264587,68.484344 362.652771,68.502274 363.275299,68.357468 
	C366.414581,71.390518 365.599609,75.735977 366.183716,79.436073 
	C371.364594,112.254547 376.518829,145.070679 385.293060,177.180344 
	C386.518799,181.665909 387.916168,186.144073 389.707886,190.427490 
	C393.785706,200.176422 401.598846,204.858597 411.870605,205.675659 
	C415.849213,205.992142 419.886475,205.639053 423.851868,206.038788 
	C431.106384,206.770065 434.183014,209.911285 435.099976,217.104141 
	C435.502716,220.263184 435.239929,223.389206 434.411652,226.507614 
	C433.187561,231.116180 430.060760,233.865005 425.614227,234.150421 
	C418.654968,234.597122 411.655853,234.634262 404.664124,233.851379 
	C391.961395,232.429047 383.804321,225.058838 378.319733,214.152481 
	C376.153503,209.844894 374.369690,205.345001 372.258423,200.580475 
z"/>
</svg>