<?xml version="1.0" encoding="UTF-8" standalone="no"?>
<!-- Created with Inkscape (http://www.inkscape.org/) -->

<svg
   xmlns:dc="http://purl.org/dc/elements/1.1/"
   xmlns:cc="http://creativecommons.org/ns#"
   xmlns:rdf="http://www.w3.org/1999/02/22-rdf-syntax-ns#"
   xmlns:svg="http://www.w3.org/2000/svg"
   xmlns="http://www.w3.org/2000/svg"
   xmlns:sodipodi="http://sodipodi.sourceforge.net/DTD/sodipodi-0.dtd"
   xmlns:inkscape="http://www.inkscape.org/namespaces/inkscape"
   width="10.208507mm"
   height="22.401577mm"
   viewBox="0 0 36.171874 79.375666"
   id="svg2"
   version="1.1"
   inkscape:version="0.91 r13725"
   sodipodi:docname="vertical-upright-baseline.svg">
  <defs
     id="defs4">
    <marker
       inkscape:stockid="TriangleOutL"
       orient="auto"
       refY="0"
       refX="0"
       id="TriangleOutL"
       style="overflow:visible"
       inkscape:isstock="true">
      <path
         id="path4294"
         d="m 5.77,0 -8.65,5 0,-10 8.65,5 z"
         style="fill:#000000;fill-opacity:1;fill-rule:evenodd;stroke:#000000;stroke-width:1pt;stroke-opacity:1"
         transform="scale(0.8,0.8)"
         inkscape:connector-curvature="0" />
    </marker>
    <marker
       inkscape:stockid="Arrow1Lend"
       orient="auto"
       refY="0"
       refX="0"
       id="Arrow1Lend"
       style="overflow:visible"
       inkscape:isstock="true">
      <path
         id="path4155"
         d="M 0,0 5,-5 -12.5,0 5,5 0,0 Z"
         style="fill:#000000;fill-opacity:1;fill-rule:evenodd;stroke:#000000;stroke-width:1pt;stroke-opacity:1"
         transform="matrix(-0.8,0,0,-0.8,-10,0)"
         inkscape:connector-curvature="0" />
    </marker>
  </defs>
  <sodipodi:namedview
     id="base"
     pagecolor="#ffffff"
     bordercolor="#666666"
     borderopacity="1.0"
     inkscape:pageopacity="0.0"
     inkscape:pageshadow="2"
     inkscape:zoom="5.6568542"
     inkscape:cx="100.13005"
     inkscape:cy="5.554216"
     inkscape:document-units="px"
     inkscape:current-layer="layer1"
     showgrid="false"
     fit-margin-top="0"
     fit-margin-left="0"
     fit-margin-right="0"
     fit-margin-bottom="0"
     inkscape:window-width="2560"
     inkscape:window-height="1551"
     inkscape:window-x="0"
     inkscape:window-y="267"
     inkscape:window-maximized="1" />
  <metadata
     id="metadata7">
    <rdf:RDF>
      <cc:Work
         rdf:about="">
        <dc:format>image/svg+xml</dc:format>
        <dc:type
           rdf:resource="http://purl.org/dc/dcmitype/StillImage" />
        <dc:title />
      </cc:Work>
    </rdf:RDF>
  </metadata>
  <g
     inkscape:label="Layer 1"
     inkscape:groupmode="layer"
     id="layer1"
     transform="translate(-173.81055,-224.44368)">
    <g
       style="font-style:normal;font-weight:normal;font-size:40px;line-height:125%;font-family:sans-serif;letter-spacing:0px;word-spacing:0px;fill:#000000;fill-opacity:1;stroke:none;stroke-width:1px;stroke-linecap:butt;stroke-linejoin:miter;stroke-opacity:1"
       id="flowRoot3336">
      <path
         d="m 183.49805,259.66657 q -3.28125,-1.60157 -5.03907,-4.45313 -1.75781,-2.89062 -1.75781,-6.36719 0,-5.3125 3.98438,-9.14062 4.02343,-3.82813 10.27343,-3.82813 5.11719,0 8.86719,2.5 l 7.57813,0 q 1.67968,0 1.95312,0.11719 0.27344,0.0781 0.39063,0.3125 0.23437,0.35156 0.23437,1.25 0,1.01563 -0.19531,1.40625 -0.11719,0.19531 -0.42969,0.3125 -0.27344,0.11719 -1.95312,0.11719 l -4.64844,0 q 2.1875,2.8125 2.1875,7.1875 0,5 -3.82813,8.55469 -3.82812,3.55468 -10.27343,3.55468 -2.65625,0 -5.42969,-0.78125 -1.71875,1.48438 -2.34375,2.61719 -0.58594,1.09375 -0.58594,1.875 0,0.66406 0.625,1.28906 0.66406,0.625 2.53906,0.89844 1.09375,0.15625 5.46875,0.27344 8.04688,0.19531 10.42969,0.54687 3.63281,0.50782 5.78125,2.69532 2.1875,2.1875 2.1875,5.39062 0,4.41406 -4.14062,8.28125 -6.09375,5.70313 -15.89844,5.70313 -7.53906,0 -12.73438,-3.39844 -2.92968,-1.95313 -2.92968,-4.0625 0,-0.9375 0.42968,-1.875 0.66407,-1.44531 2.73438,-4.02344 0.27344,-0.35156 3.98437,-4.21875 -2.03125,-1.21094 -2.89062,-2.14844 -0.82031,-0.97656 -0.82031,-2.1875 0,-1.36718 1.09375,-3.20312 1.13281,-1.83594 5.15625,-5.19531 z m 6.79687,-21.91407 q -2.89062,0 -4.84375,2.30469 -1.95312,2.30469 -1.95312,7.07031 0,6.17188 2.65625,9.57032 2.03125,2.57812 5.15625,2.57812 2.96875,0 4.88281,-2.22656 1.91406,-2.22656 1.91406,-6.99219 0,-6.21094 -2.69531,-9.72656 -1.99219,-2.57813 -5.11719,-2.57813 z m -7.1875,34.96094 q -1.83594,1.99219 -2.77344,3.71094 -0.9375,1.71875 -0.9375,3.16406 0,1.875 2.26563,3.28125 3.90625,2.42188 11.28906,2.42188 7.03125,0 10.35156,-2.5 3.35938,-2.46094 3.35938,-5.27344 0,-2.03125 -1.99219,-2.89063 -2.03125,-0.85937 -8.04687,-1.01562 -8.78907,-0.23438 -13.51563,-0.89844 z"
         style="font-style:normal;font-variant:normal;font-weight:normal;font-stretch:normal;font-size:80px;font-family:'Times New Roman';-inkscape-font-specification:'Times New Roman, '"
         id="path4156" />
    </g>
    <ellipse
       id="path3344"
       cx="191.69974"
       cy="227.77946"
       rx="3.5125632"
       ry="3.3357863" />
    <path
       style="fill:none;fill-rule:evenodd;stroke:#000000;stroke-width:1.04232192px;stroke-linecap:butt;stroke-linejoin:miter;stroke-opacity:1;marker-end:url(#TriangleOutL)"
       d="m 191.70346,230.21999 0.62544,67.74685"
       id="path4428"
       inkscape:connector-curvature="0"
       sodipodi:nodetypes="cc" />
  </g>
</svg>
