<svg xmlns="http://www.w3.org/2000/svg" xmlns:xlink="http://www.w3.org/1999/xlink" width="655px" height="260px">
<style type="text/css">
<![CDATA[
	.text{font-family:'MyriadPro-Regular';font-size:14pt;}
]]>
</style>
<defs>
<polygon id="figure" fill="inherit" stroke="inherit" marker-end="inherit" points="15.647,99.281 30.036,87.77 65.647,99.64 85.432,55.396 122.842,57.554 184.353,73.381 
	198.381,105.396 199.101,150.719 145.144,159.353 155.216,139.928 126.439,120.504 112.05,138.849 80.755,128.417 39.029,126.259 
	24.64,104.676 "/>
<g id="tri">
	<polygon fill="#A44188" points="34.892,107.554 41.727,74.46 20.504,85.971"/>
	<polygon fill="#A44188" points="34.892,107.554 61.511,80.935 76.619,109.712"/>
	<polygon fill="#8F3A7B" points="34.892,107.554 61.511,80.935 41.007,73.741"/>
	<polygon fill="#8F3A7B" points="151.079,121.223 141.007,140.647 194.964,132.014"/>
	<polygon fill="#A44188" points="122.302,101.799 150.36,93.525 151.079,121.223"/>
	<polygon fill="#CF67A8" points="180.216,54.676 150.36,93.525 194.245,86.691"/>
	<polygon fill="#A44188" points="194.245,86.691 151.079,121.223 194.964,132.014"/>
	<polygon fill="#C0539F" points="194.245,86.691 151.079,121.223 149.64,92.806"/>
	<polygon fill="#C0539F" points="90.288,80.935 61.511,80.935 76.619,109.712"/>
	<polygon fill="#CF67A8" points="90.288,80.935 61.511,80.935 81.295,37.41"/>
	<polygon fill="#CF67A8" points="90.288,80.935 107.554,120.144 76.619,109.712"/>
	<polygon fill="#C0539F" points="90.288,80.935 107.554,120.144 121.942,101.439"/>
	<polygon fill="#A44188" points="90.288,80.935 122.302,75.18 121.942,101.439"/>
	<polygon fill="#C0539F" points="90.288,80.935 122.302,75.18 81.295,36.691"/>
	<polygon fill="#CF67A8" points="119.065,39.209 122.302,75.18 81.333,37"/>
	<polygon fill="#C0539F" points="119.065,39.209 122.302,75.18 151.799,47.122"/>
	<polygon fill="#A44188" points="150,93.525 122.302,75.18 151.799,47.122"/>
	<polygon fill="#8F3A7B" points="150,93.525 122.302,75.18 121.583,102.158"/>
	<polygon fill="#C0539F" points="150,93.525 180.216,54.676 151.799,47.122"/>
	<polygon fill="#CF67A8" points="121.748,101.288 107,120.353 151.079,121.223"/>
	<polygon fill="#C0539F" points="142.252,140.496 107,120.353 151.079,121.223"/>
	<polygon fill="#C0539F" points="25.705,68.554 41.532,74.309 20.504,85.971"/>
	<polygon fill="#8F3A7B" points="34.892,107.554 56.281,150.928 76.619,109.712"/>
	<polygon fill="#C0539F" points="34.892,107.554 5.201,109.201 20.504,85.971"/>
	<polygon fill="#A44188" points="12.036,79.345 5.201,109.201 20.504,85.971"/>
	<polygon fill="#C0539F" points="87.216,152.727 107.554,120.144 76.619,109.712"/>
	<polygon fill="#8F3A7B" points="87.216,152.727 107.554,120.144 113.5,159.5"/>
	<polygon fill="#A44188" points="142.252,140.496 107,120.353 113.475,159.561"/>
	<polygon fill="#A44188" points="50.525,49.489 61.511,80.935 41.007,73.741"/>
	<polygon fill="#C0539F" points="50.525,49.849 61.511,80.935 81.295,37.41"/>
	<polygon fill="#CF67A8" points="50.5,50 25.667,68.5 41.167,74.333"/>
	<polygon fill="#A44188" points="167.791,176.468 142.167,140.333 194.964,132.014"/>
	<polygon fill="#C0539F" points="167.791,176.468 142.167,140.333 113.333,159.5"/>
	<polygon fill="#CF67A8" points="167.791,176.468 126.333,200.333 113.333,159.5"/>
	<polygon fill="#A44188" points="87.216,152.727 56,150.75 76.619,109.712"/>
	<polygon fill="#8F3A7B" points="34.892,107.554 5.201,109.201 19.333,134"/>
	<polygon fill="#A44188" points="34.892,107.554 56.281,150.928 19.333,133.667"/>
	<polygon fill="#8F3A7B" points="167.791,176.468 214.333,174 194.964,132.014"/>
	<polygon fill="#A44188" points="167.791,176.468 214.333,174 190.667,205"/>
	<polygon fill="#C0539F" points="167.791,176.468 125.667,200.333 190.667,205"/>
	<polygon fill="#C0539F" points="23.667,174 56.281,150.928 19.333,133.667"/>
	<polygon fill="#A44188" points="23.667,174 56.281,150.928 63,195.333"/>
	<polygon fill="#8F3A7B" points="86.667,152.667 56.281,150.928 63,195.333"/>
	<polygon fill="#A44188" points="86.667,152.667 113.333,159.333 63,195.333"/>
	<polygon fill="#C0539F" points="62.667,195.333 126.333,200.333 113.333,159.5"/>
	<polygon fill="#8F3A7B" points="168,15.333 180.216,54.676 151.799,47.122"/>
	<polygon fill="#A44188" points="168,15.333 136,12.667 151.799,47.122"/>
	<polygon fill="#CF67A8" points="119.065,39.209 136.333,13 151.799,47.122"/>
	<polygon fill="#C0539F" points="119.065,39.209 136.333,13 98.333,11"/>
	<polygon fill="#C0539F" points="168,15.333 180.216,54.676 206,20"/>
	<polygon fill="#A44188" points="119.065,39.209 98,10 81.333,37"/>
	<polygon fill="#A44188" points="50.525,49.849 55.667,18 81.295,37.41"/>
	<polygon fill="#C0539F" points="50.5,50 25.667,68.5 26,31.333"/>
	<polygon fill="#8F3A7B" points="50.525,49.849 55.667,18 25.667,31.667"/>
	<polygon fill="#C0539F" points="55,18 98,10 81.333,37"/>
	<polygon fill="#A44188" points="4,50.333 25.667,68.5 26,31.333"/>
	<polygon fill="#C0539F" points="4,50.333 26.667,69.5 12.667,80"/>
	<polygon fill="#CF67A8" points="25.899,69.065 20.504,85.971 11.511,80.576"/>
</g>
<g id="triangles">
	<polygon fill="#CF67A8" points="30.036,87.77 24.64,104.676 15.647,99.281 "/>
	<polygon fill="#A44188" points="39.029,126.259 45.863,93.165 24.64,104.676 "/>
	<polygon fill="#A44188" points="39.029,126.259 65.647,99.64 80.755,128.417 "/>
	<polygon fill="#8F3A7B" points="39.029,126.259 65.647,99.64 45.144,92.446 "/>
	<polygon fill="#8F3A7B" points="155.216,139.928 145.144,159.353 199.101,150.719 "/>
	<polygon fill="#A44188" points="126.439,120.504 154.496,112.23 155.216,139.928 "/>
	<polygon fill="#CF67A8" points="184.353,73.381 154.496,112.23 198.381,105.396 "/>
	<polygon fill="#A44188" points="198.381,105.396 155.216,139.928 199.101,150.719 "/>
	<polygon fill="#C0539F" points="198.381,105.396 155.216,139.928 153.777,111.511 "/>
	<polygon fill="#C0539F" points="94.424,99.64 65.647,99.64 80.755,128.417 "/>
	<polygon fill="#CF67A8" points="94.424,99.64 65.647,99.64 85.432,56.115 "/>
	<polygon fill="#CF67A8" points="94.424,99.64 111.691,138.849 80.755,128.417 "/>
	<polygon fill="#C0539F" points="94.424,99.64 111.691,138.849 126.079,120.144 "/>
	<polygon fill="#A44188" points="94.424,99.64 126.439,93.885 126.079,120.144 "/>
	<polygon fill="#C0539F" points="94.424,99.64 126.439,93.885 85.432,55.396 "/>
	<polygon fill="#CF67A8" points="123.201,57.914 126.439,93.885 85.432,55.396 "/>
	<polygon fill="#C0539F" points="123.201,57.914 126.439,93.885 155.935,65.827 "/>
	<polygon fill="#A44188" points="154.137,112.23 126.439,93.885 155.935,65.827 "/>
	<polygon fill="#8F3A7B" points="154.137,112.23 126.439,93.885 125.719,120.863 "/>
	<polygon fill="#C0539F" points="154.137,112.23 184.353,73.381 155.935,65.827 "/>
</g>
</defs>
<svg x="20.5" y="11.5" width="189" height="189" viewBox="0 0 214 214">
	<rect fill="#44549A" width="214" height="214"/>
	<use xlink:href="#figure" fill="#C24C9C"/>
	<use xlink:href="#tri"/>
</svg>
<svg x="246.5" y="11.5" width="189" height="189" viewBox="0 0 214 214">
	<marker id="scissors" viewBox="0 0 30 30" refX="10.5" refY="15.5" markerWidth="25" markerHeight="25" orient="-40">
		<!-- MIT licensed http://raphaeljs.com/license.html from http://raphaeljs.com/icons/ -->
		<path d="M11.108,10.271c1.083-1.876,0.159-4.443-2.059-5.725C8.231,4.074,7.326,3.825,6.433,3.825c-1.461,0-2.721,0.673-3.373,1.801C2.515,6.57,2.452,7.703,2.884,8.814C3.287,9.85,4.081,10.751,5.12,11.35c0.817,0.473,1.722,0.723,2.616,0.723c0.673,0,1.301-0.149,1.849-0.414c0.669,0.387,1.566,0.904,2.4,1.386c1.583,0.914,0.561,3.861,5.919,6.955c5.357,3.094,11.496,1.535,11.496,1.535L10.75,10.767C10.882,10.611,11.005,10.449,11.108,10.271zM9.375,9.271c-0.506,0.878-2.033,1.055-3.255,0.347C5.474,9.245,4.986,8.702,4.749,8.09C4.541,7.555,4.556,7.035,4.792,6.626c0.293-0.509,0.892-0.801,1.64-0.801c0.543,0,1.102,0.157,1.616,0.454C9.291,6.996,9.898,8.366,9.375,9.271zM17.246,15.792c0,0.483-0.392,0.875-0.875,0.875c-0.037,0-0.068-0.017-0.104-0.021l0.667-1.511C17.121,15.296,17.246,15.526,17.246,15.792zM16.371,14.917c0.037,0,0.068,0.017,0.104,0.021l-0.666,1.51c-0.188-0.16-0.312-0.39-0.312-0.656C15.496,15.309,15.887,14.917,16.371,14.917zM29.4,10.467c0,0-6.139-1.559-11.496,1.535c-0.537,0.311-0.995,0.618-1.415,0.924l4.326,2.497L29.4,10.467zM13.171,17.097c-0.352,0.851-0.575,1.508-1.187,1.859c-0.833,0.481-1.73,0.999-2.399,1.386c-0.549-0.265-1.176-0.414-1.85-0.414c-0.894,0-1.798,0.249-2.616,0.721c-2.218,1.282-3.143,3.851-2.06,5.726c0.651,1.127,1.912,1.801,3.373,1.801c0.894,0,1.799-0.25,2.616-0.722c1.04-0.601,1.833-1.501,2.236-2.536c0.432-1.112,0.368-2.245-0.178-3.189c-0.103-0.178-0.226-0.34-0.356-0.494l3.982-2.3C14.044,18.295,13.546,17.676,13.171,17.097zM9.42,24.192c-0.238,0.612-0.725,1.155-1.371,1.528c-1.221,0.706-2.75,0.532-3.257-0.347C4.27,24.47,4.878,23.099,6.12,22.381c0.514-0.297,1.072-0.453,1.615-0.453c0.749,0,1.346,0.291,1.64,0.8C9.612,23.138,9.628,23.657,9.42,24.192z"/>
	</marker>
	<use xlink:href="#figure" fill="none" stroke="black" stroke-dasharray="5 5" marker-start="url(#scissors)"/>
</svg>
<svg x="472.5" y="11.5" width="189" height="189" viewBox="0 0 214 214">
	<use xlink:href="#figure" fill="#C24C9C"/>
	<use xlink:href="#triangles"/>
</svg>
<text x="76.397" y="230.9009" class="text">object</text>
<text x="283.7041" y="230.9009" class="text">clipping path</text>
<text x="491.9502" y="230.9009" class="text">“clipped out” object</text>
</svg>