<svg xmlns="http://www.w3.org/2000/svg" xmlns:xlink="http://www.w3.org/1999/xlink" width="580" height="305">
<style type="text/css">
<![CDATA[
	text{font-family:'MyriadPro-Regular';font-size:14pt;}
	line{stroke:black;stroke-width:2}
]]>
</style>
<defs>
    <marker id="Triangle" viewBox="0 0 10 10" refX="1" refY="5" markerWidth="4" markerHeight="4" orient="auto">
        <path d="M 0 0 L 10 5 L 0 10 z" fill="red" />
    </marker>
</defs>

<g id="element">
<rect x="55" y="65" width="200" height="220" stroke="black" stroke-width="2" fill="lightblue"/>
<text text-anchor="end" x="38" y="71">0</text>
<line x1="40" y1="65" x2="55" y2="65"/>
<line x1="40" y1="85" x2="55" y2="85"/>
<line x1="40" y1="105" x2="55" y2="105"/>
<line x1="40" y1="125" x2="55" y2="125"/>
<line x1="40" y1="145" x2="55" y2="145"/>
<line x1="40" y1="165" x2="55" y2="165"/>
<line x1="40" y1="185" x2="55" y2="185"/>
<line x1="40" y1="205" x2="55" y2="205"/>
<line x1="40" y1="225" x2="55" y2="225"/>
<line x1="40" y1="245" x2="55" y2="245"/>
<line x1="40" y1="265" x2="55" y2="265"/>
<text text-anchor="end" x="38" y="291">55</text>
<line x1="40" y1="285" x2="55" y2="285"/>
<text text-anchor="middle" x="55" y="48">0</text>
<line x1="55" y1="50" x2="55" y2="65"/>
<line x1="75" y1="50" x2="75" y2="65"/>
<line x1="95" y1="50" x2="95" y2="65"/>
<line x1="115" y1="50" x2="115" y2="65"/>
<line x1="135" y1="50" x2="135" y2="65"/>
<line x1="155" y1="50" x2="155" y2="65"/>
<line x1="175" y1="50" x2="175" y2="65"/>
<line x1="195" y1="50" x2="195" y2="65"/>
<line x1="215" y1="50" x2="215" y2="65"/>
<line x1="235" y1="50" x2="235" y2="65"/>
<text text-anchor="middle" x="255" y="48">50</text>
<line x1="255" y1="50" x2="255" y2="65"/>
<text text-anchor="end" x="52" y="161" fill="red">left</text>
<text text-anchor="end" x="52" y="181" fill="red">right</text>
<text transform="rotate(-90) translate(-63,169)" fill="red">top</text>
<text transform="rotate(-90) translate(-63,191)" fill="red">bottom</text>
</g>
<rect x="75" y="85" width="140" height="160" stroke="black" fill="lightgray" stroke-width="2" stroke-dasharray="3 3"/>
<text text-anchor="end" x="255" y="305">#one’s block box</text>
<line x1="55" y1="155" x2="65" y2="155" style="stroke:red; stroke-width:3" marker-end="url(#Triangle)"/>
<line x1="55" y1="175" x2="205" y2="175" style="stroke:red; stroke-width:3" marker-end="url(#Triangle)"/>
<line x1="165" y1="65" x2="165" y2="75" style="stroke:red; stroke-width:3" marker-end="url(#Triangle)"/>
<line x1="185" y1="65" x2="185" y2="235" style="stroke:red; stroke-width:3" marker-end="url(#Triangle)"/>

<use xlink:href="#element" transform="translate(300,0)"/>
<rect x="375" y="85" width="200" height="160" stroke="black" fill="lightgray" stroke-width="2" stroke-dasharray="3 3"/>
<text text-anchor="end" x="555" y="305">#two’s block box</text>
<line x1="355" y1="155" x2="365" y2="155" style="stroke:red; stroke-width:3" marker-end="url(#Triangle)"/>
<line x1="355" y1="175" x2="565" y2="175" style="stroke:red; stroke-width:3" marker-end="url(#Triangle)"/>
<line x1="465" y1="65" x2="465" y2="75" style="stroke:red; stroke-width:3" marker-end="url(#Triangle)"/>
<line x1="485" y1="65" x2="485" y2="235" style="stroke:red; stroke-width:3" marker-end="url(#Triangle)"/>
</svg>