<?xml version="1.0" encoding="utf-8"?>
<!-- Generator: Adobe Illustrator 16.0.0, SVG Export Plug-In . SVG Version: 6.00 Build 0)  -->
<!DOCTYPE svg PUBLIC "-//W3C//DTD SVG 1.1//EN" "http://www.w3.org/Graphics/SVG/1.1/DTD/svg11.dtd">
<svg version="1.1" id="Layer_1" xmlns="http://www.w3.org/2000/svg" xmlns:xlink="http://www.w3.org/1999/xlink" x="0px" y="0px"
	 width="655px" height="260px" viewBox="0 0 655 260" style="enable-background: new;"
	 xml:space="preserve">
<style type="text/css">
<![CDATA[
	.st0{fill:url(#SVGID_7_);stroke:#010101;stroke-miterlimit:10;}
	.st1{fill:none;stroke:#231F20;stroke-width:0.3;stroke-linecap:square;stroke-linejoin:bevel;}
	.st3{font-family:'MyriadPro-Regular';}
	.st4{fill:url(#SVGID_1_);}
	.st5{fill:url(#SVGID_2_);}
	.st6{fill:url(#SVGID_3_);}
	.st7{fill:url(#SVGID_4_);}
	.st8{fill:url(#SVGID_5_);}
	.st9{fill:url(#SVGID_6_);}
	.st10{fill:#010101;stroke:#FFFFFF;stroke-miterlimit:10;}
	.st11{fill:#FFFFFF;}
	.st12{fill:none;}
	.st13{font-size:14pt;}
]]>
</style>
<g>
	<linearGradient id="SVGID_1_" gradientUnits="userSpaceOnUse" x1="531.627" y1="172.188" x2="531.627" y2="22.442">
		<stop  offset="0" style="stop-color:#F27BAA"/>
		<stop  offset="0.1261" style="stop-color:#F386AB"/>
		<stop  offset="0.7199" style="stop-color:#F9B5AE"/>
		<stop  offset="1" style="stop-color:#FCC8AD"/>
	</linearGradient>
	<path class="st4" d="M569.745,136.78c0,4.381-2.912,7.618-4.195,11.572c-1.33,4.096,2.175,10.669-0.308,14.079
		c-2.506,3.444-6.25,7.084-9.695,9.59c-3.41,2.482-9.815-0.584-13.913,0.746c-3.952,1.283-7.312,3.079-11.692,3.079
		c-4.382,0-9.53,3.715-13.484,2.431c-4.097-1.33-4.759-9.207-8.169-11.688c-3.445-2.507-8.323-2.766-10.829-6.211
		c-2.481-3.41-3.202-7.474-4.532-11.571c-1.283-3.953-0.933-7.646-0.933-12.027s1.55-7.457,2.834-11.41
		c1.33-4.097-1.74-10.153,0.741-13.563c2.507-3.445,7.704-4.488,11.148-6.994c3.409-2.482,7.803-1.548,11.9-2.878
		c3.952-1.283,6.942-8.501,11.323-8.501s7.977,5.346,11.93,6.629c4.098,1.331,9.957-0.581,13.367,1.901
		c3.444,2.507,3.001,8.994,5.508,12.438c2.482,3.411,8.858,4.962,10.188,9.059C572.219,127.413,569.745,132.399,569.745,136.78z"/>
	<linearGradient id="SVGID_2_" gradientUnits="userSpaceOnUse" x1="602.6113" y1="172.189" x2="602.6113" y2="22.4424">
		<stop  offset="0" style="stop-color:#F27BAA"/>
		<stop  offset="0.1261" style="stop-color:#F386AB"/>
		<stop  offset="0.7199" style="stop-color:#F9B5AE"/>
		<stop  offset="1" style="stop-color:#FCC8AD"/>
	</linearGradient>
	<path class="st5" d="M611.758,42.998c4.604,4.368,14.63,4.304,14.785,10.183c0.153,5.88-6.06,31.253-10.427,35.857
		c-4.368,4.604-8.965-13.581-14.845-13.426c-5.879,0.154-16.466,4.22-21.069-0.148c-4.603-4.368,2.7-15.252,2.545-21.132
		c-0.153-5.879-2.553-11.181,1.815-15.785c4.368-4.603,9.558-11.277,15.437-11.432S607.154,38.63,611.758,42.998z"/>
	<linearGradient id="SVGID_3_" gradientUnits="userSpaceOnUse" x1="566.4619" y1="172.1914" x2="566.4619" y2="22.4418">
		<stop  offset="0" style="stop-color:#F27BAA"/>
		<stop  offset="0.1261" style="stop-color:#F386AB"/>
		<stop  offset="0.7199" style="stop-color:#F9B5AE"/>
		<stop  offset="1" style="stop-color:#FCC8AD"/>
	</linearGradient>
	<circle class="st6" cx="566.462" cy="43.108" r="5.103"/>
	<linearGradient id="SVGID_4_" gradientUnits="userSpaceOnUse" x1="515.8262" y1="172.187" x2="515.8262" y2="22.4436">
		<stop  offset="0" style="stop-color:#F27BAA"/>
		<stop  offset="0.1261" style="stop-color:#F386AB"/>
		<stop  offset="0.7199" style="stop-color:#F9B5AE"/>
		<stop  offset="1" style="stop-color:#FCC8AD"/>
	</linearGradient>
	<ellipse class="st7" cx="515.827" cy="90.613" rx="5.102" ry="3.954"/>
	<linearGradient id="SVGID_5_" gradientUnits="userSpaceOnUse" x1="574.8613" y1="172.1904" x2="574.8613" y2="22.4392">
		<stop  offset="0" style="stop-color:#F27BAA"/>
		<stop  offset="0.1261" style="stop-color:#F386AB"/>
		<stop  offset="0.7199" style="stop-color:#F9B5AE"/>
		<stop  offset="1" style="stop-color:#FCC8AD"/>
	</linearGradient>
	<circle class="st8" cx="574.861" cy="111.731" r="3.518"/>
	<linearGradient id="SVGID_6_" gradientUnits="userSpaceOnUse" x1="569.3145" y1="172.1899" x2="569.3145" y2="22.4419">
		<stop  offset="0" style="stop-color:#F27BAA"/>
		<stop  offset="0.1261" style="stop-color:#F386AB"/>
		<stop  offset="0.7199" style="stop-color:#F9B5AE"/>
		<stop  offset="1" style="stop-color:#FCC8AD"/>
	</linearGradient>
	<circle class="st9" cx="569.315" cy="59.511" r="2.05"/>
</g>
<g>
	
		<linearGradient id="SVGID_7_" gradientUnits="userSpaceOnUse" x1="603" y1="50.5" x2="792" y2="50.5" gradientTransform="matrix(0 -1 1 0 64.5 803.5)">
		<stop  offset="0" style="stop-color:#F27BAA"/>
		<stop  offset="0.1261" style="stop-color:#F386AB"/>
		<stop  offset="0.7199" style="stop-color:#F9B5AE"/>
		<stop  offset="1" style="stop-color:#FCC8AD"/>
	</linearGradient>
	<rect x="20.5" y="11.5" class="st0" width="189" height="189"/>
</g>
<g>
	<g>
		<rect x="246.5" y="11.5" class="st10" width="190" height="190"/>
	</g>
	<g>
		<path class="st11" d="M361.499,136.78c0,4.381-2.911,7.618-4.195,11.572c-1.33,4.096,2.175,10.669-0.308,14.079
			c-2.506,3.444-6.25,7.084-9.694,9.59c-3.41,2.482-9.816-0.584-13.913,0.746c-3.953,1.283-7.312,3.079-11.693,3.079
			c-4.382,0-9.529,3.715-13.483,2.431c-4.097-1.33-4.76-9.207-8.17-11.688c-3.444-2.507-8.322-2.766-10.829-6.211
			c-2.481-3.41-3.201-7.474-4.532-11.571c-1.282-3.953-0.933-7.646-0.933-12.027s1.55-7.457,2.834-11.41
			c1.33-4.097-1.74-10.153,0.742-13.563c2.506-3.445,7.703-4.488,11.147-6.994c3.41-2.482,7.804-1.547,11.9-2.877
			c3.954-1.283,6.942-8.501,11.323-8.501s7.977,5.346,11.931,6.629c4.097,1.331,9.957-0.581,13.367,1.901
			c3.444,2.507,3,8.994,5.508,12.438c2.481,3.411,8.858,4.962,10.188,9.059C363.973,127.413,361.499,132.399,361.499,136.78z"/>
		<path class="st11" d="M403.512,42.998c4.604,4.368,14.63,4.304,14.786,10.183c0.153,5.88-6.061,31.253-10.428,35.856
			c-4.368,4.604-8.965-13.58-14.844-13.425c-5.879,0.154-16.466,4.219-21.07-0.148c-4.603-4.368,2.7-15.252,2.546-21.132
			s-2.553-11.181,1.814-15.785c4.368-4.603,9.559-11.277,15.438-11.432C397.632,26.961,398.908,38.63,403.512,42.998z"/>
		<circle class="st11" cx="358.216" cy="43.108" r="5.102"/>
		<ellipse class="st11" cx="307.582" cy="90.613" rx="5.102" ry="3.954"/>
		<circle class="st11" cx="366.616" cy="111.731" r="3.518"/>
		<circle class="st11" cx="361.069" cy="59.511" r="2.051"/>
	</g>
</g>
<text transform="matrix(1 0 0 1 76.397 230.9009)" class="st3 st13">object</text>
<text transform="matrix(1 0 0 1 283.7041 230.9009)" class="st3 st13">luminance mask</text>
<text transform="matrix(1 0 0 1 491.9502 230.9009)" class="st3 st13">masked object</text>
</svg>
