<svg xmlns="http://www.w3.org/2000/svg" xmlns:xlink="http://www.w3.org/1999/xlink" width="665px" height="260px">
<style type="text/css">
<![CDATA[
	.text{font-family:'MyriadPro-Regular', sans-serif;font-size:14pt;}
]]>
</style>

<svg x="20.5" y="11.5" width="189" height="189" viewBox="0 0 214 214">
<rect stroke="black" fill="none" width="214" height="214"/>
<circle cx="107" cy="107" r="75"/>
</svg>

<svg x="246.5" y="11.5" width="189" height="189" viewBox="0 0 214 214">
<rect stroke="black" fill="none" width="214" height="214"/>
<rect x="40" y="40" width="130" height="130"/>
</svg>

<svg x="472.5" y="11.5" width="189" height="189" viewBox="0 0 214 214">
<rect stroke="black" fill="none" width="214" height="214"/>
<path d="M107,32c-12.1,0-23.6,2.9-33.7,8h67.4C130.6,34.9,119.1,32,107,32z"/>
<path d="M182,107c0-15-4.4-29-12-40.7v81.3C177.6,136,182,122,182,107z"/>
<path d="M32,107c0,12.1,2.9,23.6,8,33.7V73.3C34.9,83.4,32,94.9,32,107z"/>
<path d="M107,182c15,0,29-4.4,40.7-12H66.3C78,177.6,92,182,107,182z"/>
<path d="M170,66.3V40h-29.3C152.7,46,162.8,55.2,170,66.3z"/>
<path d="M170,147.7c-5.8,8.9-13.4,16.6-22.3,22.3H170V147.7z"/>
<path d="M40,140.7V170h26.3C55.2,162.8,46,152.7,40,140.7z"/>
<path d="M73.3,40H40v33.3C47.2,58.9,58.9,47.2,73.3,40z"/>
</svg>

<text x="76.397" y="230.9009" class="text">circle.svg</text>
<text x="283.7041" y="230.9009" class="text">rect.svg</text>
<text x="491.9502" y="230.9009" class="text">Final Mask</text>
</svg>