<?xml version="1.0" encoding="UTF-8" standalone="no"?>
<svg
   xmlns:dc="http://purl.org/dc/elements/1.1/"
   xmlns:cc="http://creativecommons.org/ns#"
   xmlns:rdf="http://www.w3.org/1999/02/22-rdf-syntax-ns#"
   xmlns:svg="http://www.w3.org/2000/svg"
   xmlns="http://www.w3.org/2000/svg"
   xmlns:sodipodi="http://sodipodi.sourceforge.net/DTD/sodipodi-0.dtd"
   xmlns:inkscape="http://www.inkscape.org/namespaces/inkscape"
   version="1.0"
   width="260.85999mm"
   height="143.99001mm"
   id="svg3336"
   inkscape:version="0.91 r13725"
   viewBox="0 0 260.85999 143.99001"
   sodipodi:docname="CSS-Tables-Repeating-Headers.svg">
  <metadata
     id="metadata3498">
    <rdf:RDF>
      <cc:Work
         rdf:about="">
        <dc:format>image/svg+xml</dc:format>
        <dc:type
           rdf:resource="http://purl.org/dc/dcmitype/StillImage" />
        <dc:title></dc:title>
      </cc:Work>
    </rdf:RDF>
  </metadata>
  <sodipodi:namedview
     pagecolor="#ffffff"
     bordercolor="#666666"
     borderopacity="1"
     objecttolerance="10"
     gridtolerance="10"
     guidetolerance="10"
     inkscape:pageopacity="0"
     inkscape:pageshadow="2"
     inkscape:window-width="1920"
     inkscape:window-height="1120"
     id="namedview3496"
     inkscape:document-units="mm"
     showgrid="false"
     inkscape:zoom="0.62159328"
     inkscape:cx="205.06966"
     inkscape:cy="115.28706"
     inkscape:window-x="1909"
     inkscape:window-y="35"
     inkscape:window-maximized="1"
     inkscape:current-layer="svg3336" />
  <defs
     id="defs3338">
    <clipPath
       clipPathUnits="userSpaceOnUse"
       id="clipEmfPath1">
      <path
         d="m 15.1408,17.0896 923.4402,0 0,510.7404 -923.4402,0 z"
         id="path3341"
         inkscape:connector-curvature="0" />
    </clipPath>
    <pattern
       id="EMFhbasepattern"
       patternUnits="userSpaceOnUse"
       width="6"
       height="6"
       x="0"
       y="0" />
  </defs>
  <path
     style="fill:#ffc000;fill-opacity:1;fill-rule:evenodd;stroke:none"
     d="m 0.15,0.0359491 0,137.3307309 75.984504,0 0,-137.3307309 -75.984504,0 z"
     id="path3344"
     inkscape:connector-curvature="0" />
  <path
     style="fill:#ffffff;fill-opacity:1;fill-rule:evenodd;stroke:none"
     d="m 4.1692385,3.5051939 0,130.0116861 67.9461395,0 0,-130.0116861 -67.9461395,0 z"
     id="path3346"
     inkscape:connector-curvature="0" />
  <path
     style="fill:none;stroke:#000000;stroke-width:7.49545717px;stroke-linecap:butt;stroke-linejoin:miter;stroke-miterlimit:8;stroke-dasharray:none;stroke-opacity:1"
     clip-path="url(#clipEmfPath1)"
     d="m 29.9069,29.9069 240.7541,0 0,460.6711 -240.7541,0 z"
     id="path3348"
     inkscape:connector-curvature="0"
     transform="matrix(0.28222213,0,0,0.28222222,-4.2711509,-4.935198)" />
  <path
     style="fill:#000000;fill-opacity:1;fill-rule:evenodd;stroke:none"
     d="m 8.400004,7.7359607 0,11.4653913 27.203732,0 0,-11.4653913 -27.203732,0 z"
     id="path3350"
     inkscape:connector-curvature="0" />
  <path
     style="fill:none;stroke:#000000;stroke-width:7.49545717px;stroke-linecap:butt;stroke-linejoin:miter;stroke-miterlimit:8;stroke-dasharray:none;stroke-opacity:1"
     clip-path="url(#clipEmfPath1)"
     d="m 44.8978,44.8978 96.3912,0 0,40.6254 -96.3912,0 z"
     id="path3352"
     inkscape:connector-curvature="0"
     transform="matrix(0.28222213,0,0,0.28222222,-4.2711509,-4.935198)" />
  <path
     style="fill:#ffffff;fill-opacity:1;fill-rule:evenodd;stroke:none"
     d="m 8.400004,23.432088 0,11.465278 27.203732,0 0,-11.465278 -27.203732,0 z"
     id="path3354"
     inkscape:connector-curvature="0" />
  <path
     style="fill:none;stroke:#000000;stroke-width:7.49545717px;stroke-linecap:butt;stroke-linejoin:miter;stroke-miterlimit:8;stroke-dasharray:none;stroke-opacity:1"
     clip-path="url(#clipEmfPath1)"
     d="m 44.8978,100.514 96.3912,0 0,40.625 -96.3912,0 z"
     id="path3356"
     inkscape:connector-curvature="0"
     transform="matrix(0.28222213,0,0,0.28222222,-4.2711509,-4.935198)" />
  <path
     style="fill:#ffffff;fill-opacity:1;fill-rule:evenodd;stroke:none"
     d="m 8.400004,39.12816 0,11.46556 27.203732,0 0,-11.46556 -27.203732,0 z"
     id="path3358"
     inkscape:connector-curvature="0" />
  <path
     style="fill:none;stroke:#000000;stroke-width:7.49545717px;stroke-linecap:butt;stroke-linejoin:miter;stroke-miterlimit:8;stroke-dasharray:none;stroke-opacity:1"
     clip-path="url(#clipEmfPath1)"
     d="m 44.8978,156.13 96.3912,0 0,40.626 -96.3912,0 z"
     id="path3360"
     inkscape:connector-curvature="0"
     transform="matrix(0.28222213,0,0,0.28222222,-4.2711509,-4.935198)" />
  <path
     style="fill:#ffffff;fill-opacity:1;fill-rule:evenodd;stroke:none"
     d="m 8.400004,54.824513 0,11.465278 27.203732,0 0,-11.465278 -27.203732,0 z"
     id="path3362"
     inkscape:connector-curvature="0" />
  <path
     style="fill:none;stroke:#000000;stroke-width:7.49545717px;stroke-linecap:butt;stroke-linejoin:miter;stroke-miterlimit:8;stroke-dasharray:none;stroke-opacity:1"
     clip-path="url(#clipEmfPath1)"
     d="m 44.8978,211.747 96.3912,0 0,40.625 -96.3912,0 z"
     id="path3364"
     inkscape:connector-curvature="0"
     transform="matrix(0.28222213,0,0,0.28222222,-4.2711509,-4.935198)" />
  <path
     style="fill:#ffffff;fill-opacity:1;fill-rule:evenodd;stroke:none"
     d="m 8.400004,70.520584 0,11.507611 27.203732,0 0,-11.507611 -27.203732,0 z"
     id="path3366"
     inkscape:connector-curvature="0" />
  <path
     style="fill:none;stroke:#000000;stroke-width:7.49545717px;stroke-linecap:butt;stroke-linejoin:miter;stroke-miterlimit:8;stroke-dasharray:none;stroke-opacity:1"
     clip-path="url(#clipEmfPath1)"
     d="m 44.8978,267.363 96.3912,0 0,40.775 -96.3912,0 z"
     id="path3368"
     inkscape:connector-curvature="0"
     transform="matrix(0.28222213,0,0,0.28222222,-4.2711509,-4.935198)" />
  <path
     style="fill:#ffffff;fill-opacity:1;fill-rule:evenodd;stroke:none"
     d="m 8.400004,86.258988 0,11.465572 27.203732,0 0,-11.465572 -27.203732,0 z"
     id="path3370"
     inkscape:connector-curvature="0" />
  <path
     style="fill:none;stroke:#000000;stroke-width:7.49545717px;stroke-linecap:butt;stroke-linejoin:miter;stroke-miterlimit:8;stroke-dasharray:none;stroke-opacity:1"
     clip-path="url(#clipEmfPath1)"
     d="m 44.8978,323.129 96.3912,0 0,40.626 -96.3912,0 z"
     id="path3372"
     inkscape:connector-curvature="0"
     transform="matrix(0.28222213,0,0,0.28222222,-4.2711509,-4.935198)" />
  <path
     style="fill:#ffffff;fill-opacity:1;fill-rule:evenodd;stroke:none"
     d="m 8.400004,101.95513 0,11.46556 27.203732,0 0,-11.46556 -27.203732,0 z"
     id="path3374"
     inkscape:connector-curvature="0" />
  <path
     style="fill:none;stroke:#000000;stroke-width:7.49545717px;stroke-linecap:butt;stroke-linejoin:miter;stroke-miterlimit:8;stroke-dasharray:none;stroke-opacity:1"
     clip-path="url(#clipEmfPath1)"
     d="m 44.8978,378.745 96.3912,0 0,40.626 -96.3912,0 z"
     id="path3376"
     inkscape:connector-curvature="0"
     transform="matrix(0.28222213,0,0,0.28222222,-4.2711509,-4.935198)" />
  <path
     style="fill:#000000;fill-opacity:1;fill-rule:evenodd;stroke:none"
     d="m 8.400004,117.65148 0,11.46528 59.019198,0 0,-11.46528 -59.019198,0 z"
     id="path3378"
     inkscape:connector-curvature="0" />
  <path
     style="fill:none;stroke:#000000;stroke-width:7.49545717px;stroke-linecap:butt;stroke-linejoin:miter;stroke-miterlimit:8;stroke-dasharray:none;stroke-opacity:1"
     clip-path="url(#clipEmfPath1)"
     d="m 44.8978,434.362 209.1232,0 0,40.625 -209.1232,0 z"
     id="path3380"
     inkscape:connector-curvature="0"
     transform="matrix(0.28222213,0,0,0.28222222,-4.2711509,-4.935198)" />
  <path
     style="fill:#ffc000;fill-opacity:1;fill-rule:evenodd;stroke:none"
     d="m 95.680644,0.0359491 0,95.8691189 75.942336,0 0,-95.8691189 -75.942336,0 z"
     id="path3382"
     inkscape:connector-curvature="0" />
  <path
     style="fill:#000000;fill-opacity:1;fill-rule:evenodd;stroke:none"
     d="m 40.257579,7.7359607 0,11.4653913 27.161623,0 0,-11.4653913 -27.161623,0 z"
     id="path3384"
     inkscape:connector-curvature="0" />
  <path
     style="fill:none;stroke:#000000;stroke-width:7.49545717px;stroke-linecap:butt;stroke-linejoin:miter;stroke-miterlimit:8;stroke-dasharray:none;stroke-opacity:1"
     clip-path="url(#clipEmfPath1)"
     d="m 157.779,44.8978 96.242,0 0,40.6254 -96.242,0 z"
     id="path3386"
     inkscape:connector-curvature="0"
     transform="matrix(0.28222213,0,0,0.28222222,-4.2711509,-4.935198)" />
  <path
     style="fill:#ffffff;fill-opacity:1;fill-rule:evenodd;stroke:none"
     d="m 40.257579,23.432088 0,11.465278 27.161623,0 0,-11.465278 -27.161623,0 z"
     id="path3388"
     inkscape:connector-curvature="0" />
  <path
     style="fill:none;stroke:#000000;stroke-width:2.11538458px;stroke-linecap:butt;stroke-linejoin:miter;stroke-miterlimit:8;stroke-dasharray:none;stroke-opacity:1"
     d="m 40.257579,23.432088 27.161623,0 0,11.465278 -27.161623,0 z"
     id="path3390"
     inkscape:connector-curvature="0" />
  <path
     style="fill:#ffffff;fill-opacity:1;fill-rule:evenodd;stroke:none"
     d="m 40.257579,39.12816 0,11.46556 27.161623,0 0,-11.46556 -27.161623,0 z"
     id="path3392"
     inkscape:connector-curvature="0" />
  <path
     style="fill:none;stroke:#000000;stroke-width:2.11538458px;stroke-linecap:butt;stroke-linejoin:miter;stroke-miterlimit:8;stroke-dasharray:none;stroke-opacity:1"
     d="m 40.257579,39.12816 27.161623,0 0,11.46556 -27.161623,0 z"
     id="path3394"
     inkscape:connector-curvature="0" />
  <path
     style="fill:#ffffff;fill-opacity:1;fill-rule:evenodd;stroke:none"
     d="m 40.257579,54.824513 0,11.465278 27.161623,0 0,-11.465278 -27.161623,0 z"
     id="path3396"
     inkscape:connector-curvature="0" />
  <path
     style="fill:none;stroke:#000000;stroke-width:2.11538458px;stroke-linecap:butt;stroke-linejoin:miter;stroke-miterlimit:8;stroke-dasharray:none;stroke-opacity:1"
     d="m 40.257579,54.824513 27.161623,0 0,11.465278 -27.161623,0 z"
     id="path3398"
     inkscape:connector-curvature="0" />
  <path
     style="fill:#ffffff;fill-opacity:1;fill-rule:evenodd;stroke:none"
     d="m 40.257579,70.520584 0,11.507611 27.161623,0 0,-11.507611 -27.161623,0 z"
     id="path3400"
     inkscape:connector-curvature="0" />
  <path
     style="fill:none;stroke:#000000;stroke-width:2.11538458px;stroke-linecap:butt;stroke-linejoin:miter;stroke-miterlimit:8;stroke-dasharray:none;stroke-opacity:1"
     d="m 40.257579,70.520584 27.161623,0 0,11.507611 -27.161623,0 z"
     id="path3402"
     inkscape:connector-curvature="0" />
  <path
     style="fill:#ffffff;fill-opacity:1;fill-rule:evenodd;stroke:none"
     d="m 40.257579,86.258988 0,11.465572 27.161623,0 0,-11.465572 -27.161623,0 z"
     id="path3404"
     inkscape:connector-curvature="0" />
  <path
     style="fill:none;stroke:#000000;stroke-width:2.11538458px;stroke-linecap:butt;stroke-linejoin:miter;stroke-miterlimit:8;stroke-dasharray:none;stroke-opacity:1"
     d="m 40.257579,86.258988 27.161623,0 0,11.465572 -27.161623,0 z"
     id="path3406"
     inkscape:connector-curvature="0" />
  <path
     style="fill:#ffffff;fill-opacity:1;fill-rule:evenodd;stroke:none"
     d="m 40.257579,101.95513 0,11.46556 27.161623,0 0,-11.46556 -27.161623,0 z"
     id="path3408"
     inkscape:connector-curvature="0" />
  <path
     style="fill:none;stroke:#000000;stroke-width:2.11538458px;stroke-linecap:butt;stroke-linejoin:miter;stroke-miterlimit:8;stroke-dasharray:none;stroke-opacity:1"
     d="m 40.257579,101.95513 27.161623,0 0,11.46556 -27.161623,0 z"
     id="path3410"
     inkscape:connector-curvature="0" />
  <path
     style="fill:#ffc000;fill-opacity:1;fill-rule:evenodd;stroke:none"
     d="m 183.87791,47.970464 0,95.869546 75.98465,0 0,-95.869546 -75.98465,0 z"
     id="path3412"
     inkscape:connector-curvature="0" />
  <path
     style="fill:#ffffff;fill-opacity:1;fill-rule:evenodd;stroke:none"
     d="m 99.700076,3.5051939 0,88.0000231 67.946114,0 0,-88.0000231 -67.946114,0 z"
     id="path3414"
     inkscape:connector-curvature="0" />
  <path
     style="fill:none;stroke:#000000;stroke-width:7.49545717px;stroke-linecap:butt;stroke-linejoin:miter;stroke-miterlimit:8;stroke-dasharray:none;stroke-opacity:1"
     clip-path="url(#clipEmfPath1)"
     d="m 368.402,29.9069 240.754,0 0,311.8111 -240.754,0 z"
     id="path3416"
     inkscape:connector-curvature="0"
     transform="matrix(0.28222213,0,0,0.28222222,-4.2711509,-4.935198)" />
  <path
     style="fill:#000000;fill-opacity:1;fill-rule:evenodd;stroke:none"
     d="m 103.93087,7.7359607 0,11.4653913 27.20368,0 0,-11.4653913 -27.20368,0 z"
     id="path3418"
     inkscape:connector-curvature="0" />
  <path
     style="fill:none;stroke:#000000;stroke-width:7.49545717px;stroke-linecap:butt;stroke-linejoin:miter;stroke-miterlimit:8;stroke-dasharray:none;stroke-opacity:1"
     clip-path="url(#clipEmfPath1)"
     d="m 383.393,44.8978 96.391,0 0,40.6254 -96.391,0 z"
     id="path3420"
     inkscape:connector-curvature="0"
     transform="matrix(0.28222213,0,0,0.28222222,-4.2711509,-4.935198)" />
  <path
     style="fill:#ffffff;fill-opacity:1;fill-rule:evenodd;stroke:none"
     d="m 103.93087,23.432088 0,11.507612 27.20368,0 0,-11.507612 -27.20368,0 z"
     id="path3422"
     inkscape:connector-curvature="0" />
  <path
     style="fill:none;stroke:#000000;stroke-width:2.11538458px;stroke-linecap:butt;stroke-linejoin:miter;stroke-miterlimit:8;stroke-dasharray:none;stroke-opacity:1"
     d="m 103.93087,23.432088 27.20368,0 0,11.507612 -27.20368,0 z"
     id="path3424"
     inkscape:connector-curvature="0" />
  <path
     style="fill:#ffffff;fill-opacity:1;fill-rule:evenodd;stroke:none"
     d="m 103.93087,39.170493 0,11.46556 27.20368,0 0,-11.46556 -27.20368,0 z"
     id="path3426"
     inkscape:connector-curvature="0" />
  <path
     style="fill:none;stroke:#000000;stroke-width:2.11538458px;stroke-linecap:butt;stroke-linejoin:miter;stroke-miterlimit:8;stroke-dasharray:none;stroke-opacity:1"
     d="m 103.93087,39.170493 27.20368,0 0,11.46556 -27.20368,0 z"
     id="path3428"
     inkscape:connector-curvature="0" />
  <path
     style="fill:#ffffff;fill-opacity:1;fill-rule:evenodd;stroke:none"
     d="m 103.93087,54.866846 0,11.465278 27.20368,0 0,-11.465278 -27.20368,0 z"
     id="path3430"
     inkscape:connector-curvature="0" />
  <path
     style="fill:none;stroke:#000000;stroke-width:2.11538458px;stroke-linecap:butt;stroke-linejoin:miter;stroke-miterlimit:8;stroke-dasharray:none;stroke-opacity:1"
     d="m 103.93087,54.866846 27.20368,0 0,11.465278 -27.20368,0 z"
     id="path3432"
     inkscape:connector-curvature="0" />
  <path
     style="fill:#000000;fill-opacity:1;fill-rule:evenodd;stroke:none"
     d="m 103.93087,70.562917 0,11.465278 59.06148,0 0,-11.465278 -59.06148,0 z"
     id="path3434"
     inkscape:connector-curvature="0" />
  <path
     style="fill:none;stroke:#000000;stroke-width:2.11538458px;stroke-linecap:butt;stroke-linejoin:miter;stroke-miterlimit:8;stroke-dasharray:none;stroke-opacity:1"
     d="m 103.93087,70.562917 59.06148,0 0,11.465278 -59.06148,0 z"
     id="path3436"
     inkscape:connector-curvature="0" />
  <path
     style="fill:#000000;fill-opacity:1;fill-rule:evenodd;stroke:none"
     d="m 135.78839,7.7359607 0,11.4653913 27.20396,0 0,-11.4653913 -27.20396,0 z"
     id="path3438"
     inkscape:connector-curvature="0" />
  <path
     style="fill:none;stroke:#000000;stroke-width:7.49545717px;stroke-linecap:butt;stroke-linejoin:miter;stroke-miterlimit:8;stroke-dasharray:none;stroke-opacity:1"
     clip-path="url(#clipEmfPath1)"
     d="m 496.274,44.8978 96.392,0 0,40.6254 -96.392,0 z"
     id="path3440"
     inkscape:connector-curvature="0"
     transform="matrix(0.28222213,0,0,0.28222222,-4.2711509,-4.935198)" />
  <path
     style="fill:#ffffff;fill-opacity:1;fill-rule:evenodd;stroke:none"
     d="m 135.78839,23.432088 0,11.507612 27.20396,0 0,-11.507612 -27.20396,0 z"
     id="path3442"
     inkscape:connector-curvature="0" />
  <path
     style="fill:none;stroke:#000000;stroke-width:2.11538458px;stroke-linecap:butt;stroke-linejoin:miter;stroke-miterlimit:8;stroke-dasharray:none;stroke-opacity:1"
     d="m 135.78839,23.432088 27.20396,0 0,11.507612 -27.20396,0 z"
     id="path3444"
     inkscape:connector-curvature="0" />
  <path
     style="fill:#ffffff;fill-opacity:1;fill-rule:evenodd;stroke:none"
     d="m 135.78839,39.170493 0,11.46556 27.20396,0 0,-11.46556 -27.20396,0 z"
     id="path3446"
     inkscape:connector-curvature="0" />
  <path
     style="fill:none;stroke:#000000;stroke-width:2.11538458px;stroke-linecap:butt;stroke-linejoin:miter;stroke-miterlimit:8;stroke-dasharray:none;stroke-opacity:1"
     d="m 135.78839,39.170493 27.20396,0 0,11.46556 -27.20396,0 z"
     id="path3448"
     inkscape:connector-curvature="0" />
  <path
     style="fill:#ffffff;fill-opacity:1;fill-rule:evenodd;stroke:none"
     d="m 135.78839,54.866846 0,11.465278 27.20396,0 0,-11.465278 -27.20396,0 z"
     id="path3450"
     inkscape:connector-curvature="0" />
  <path
     style="fill:none;stroke:#000000;stroke-width:2.11538458px;stroke-linecap:butt;stroke-linejoin:miter;stroke-miterlimit:8;stroke-dasharray:none;stroke-opacity:1"
     d="m 135.78839,54.866846 27.20396,0 0,11.465278 -27.20396,0 z"
     id="path3452"
     inkscape:connector-curvature="0" />
  <path
     style="fill:#ffffff;fill-opacity:1;fill-rule:evenodd;stroke:none"
     d="m 188.1231,51.439822 0,82.711498 67.9461,0 0,-82.711498 -67.9461,0 z"
     id="path3454"
     inkscape:connector-curvature="0" />
  <path
     style="fill:none;stroke:#000000;stroke-width:7.49545717px;stroke-linecap:butt;stroke-linejoin:miter;stroke-miterlimit:8;stroke-dasharray:none;stroke-opacity:1"
     clip-path="url(#clipEmfPath1)"
     d="m 681.712,199.754 240.754,0 0,293.072 -240.754,0 z"
     id="path3456"
     inkscape:connector-curvature="0"
     transform="matrix(0.28222213,0,0,0.28222222,-4.2711509,-4.935198)" />
  <path
     style="fill:#000000;fill-opacity:1;fill-rule:evenodd;stroke:none"
     d="m 192.35389,55.670615 0,11.507611 27.20367,0 0,-11.507611 -27.20367,0 z"
     id="path3458"
     inkscape:connector-curvature="0" />
  <path
     style="fill:none;stroke:#000000;stroke-width:2.11538458px;stroke-linecap:butt;stroke-linejoin:miter;stroke-miterlimit:8;stroke-dasharray:none;stroke-opacity:1"
     d="m 192.35389,55.670615 27.20367,0 0,11.507611 -27.20367,0 z"
     id="path3460"
     inkscape:connector-curvature="0" />
  <path
     style="fill:#ffffff;fill-opacity:1;fill-rule:evenodd;stroke:none"
     d="m 192.35389,71.40902 0,11.465277 27.20367,0 0,-11.465277 -27.20367,0 z"
     id="path3462"
     inkscape:connector-curvature="0" />
  <path
     style="fill:none;stroke:#000000;stroke-width:2.11538458px;stroke-linecap:butt;stroke-linejoin:miter;stroke-miterlimit:8;stroke-dasharray:none;stroke-opacity:1"
     d="m 192.35389,71.40902 27.20367,0 0,11.465277 -27.20367,0 z"
     id="path3464"
     inkscape:connector-curvature="0" />
  <path
     style="fill:#ffffff;fill-opacity:1;fill-rule:evenodd;stroke:none"
     d="m 192.35389,87.105091 0,11.465587 27.20367,0 0,-11.465587 -27.20367,0 z"
     id="path3466"
     inkscape:connector-curvature="0" />
  <path
     style="fill:none;stroke:#000000;stroke-width:2.11538458px;stroke-linecap:butt;stroke-linejoin:miter;stroke-miterlimit:8;stroke-dasharray:none;stroke-opacity:1"
     d="m 192.35389,87.105091 27.20367,0 0,11.465587 -27.20367,0 z"
     id="path3468"
     inkscape:connector-curvature="0" />
  <path
     style="fill:#ffffff;fill-opacity:1;fill-rule:evenodd;stroke:none"
     d="m 192.35389,102.80151 0,11.46528 27.20367,0 0,-11.46528 -27.20367,0 z"
     id="path3470"
     inkscape:connector-curvature="0" />
  <path
     style="fill:none;stroke:#000000;stroke-width:2.11538458px;stroke-linecap:butt;stroke-linejoin:miter;stroke-miterlimit:8;stroke-dasharray:none;stroke-opacity:1"
     d="m 192.35389,102.80151 27.20367,0 0,11.46528 -27.20367,0 z"
     id="path3472"
     inkscape:connector-curvature="0" />
  <path
     style="fill:#000000;fill-opacity:1;fill-rule:evenodd;stroke:none"
     d="m 192.35389,118.49758 0,11.46528 59.06147,0 0,-11.46528 -59.06147,0 z"
     id="path3474"
     inkscape:connector-curvature="0" />
  <path
     style="fill:none;stroke:#000000;stroke-width:2.11538458px;stroke-linecap:butt;stroke-linejoin:miter;stroke-miterlimit:8;stroke-dasharray:none;stroke-opacity:1"
     d="m 192.35389,118.49758 59.06147,0 0,11.46528 -59.06147,0 z"
     id="path3476"
     inkscape:connector-curvature="0" />
  <path
     style="fill:#000000;fill-opacity:1;fill-rule:evenodd;stroke:none"
     d="m 224.21141,55.670615 0,11.507611 27.20395,0 0,-11.507611 -27.20395,0 z"
     id="path3478"
     inkscape:connector-curvature="0" />
  <path
     style="fill:none;stroke:#000000;stroke-width:2.11538458px;stroke-linecap:butt;stroke-linejoin:miter;stroke-miterlimit:8;stroke-dasharray:none;stroke-opacity:1"
     d="m 224.21141,55.670615 27.20395,0 0,11.507611 -27.20395,0 z"
     id="path3480"
     inkscape:connector-curvature="0" />
  <path
     style="fill:#ffffff;fill-opacity:1;fill-rule:evenodd;stroke:none"
     d="m 224.21141,71.40902 0,11.465277 27.20395,0 0,-11.465277 -27.20395,0 z"
     id="path3482"
     inkscape:connector-curvature="0" />
  <path
     style="fill:none;stroke:#000000;stroke-width:2.11538458px;stroke-linecap:butt;stroke-linejoin:miter;stroke-miterlimit:8;stroke-dasharray:none;stroke-opacity:1"
     d="m 224.21141,71.40902 27.20395,0 0,11.465277 -27.20395,0 z"
     id="path3484"
     inkscape:connector-curvature="0" />
  <path
     style="fill:#ffffff;fill-opacity:1;fill-rule:evenodd;stroke:none"
     d="m 224.21141,87.105091 0,11.465587 27.20395,0 0,-11.465587 -27.20395,0 z"
     id="path3486"
     inkscape:connector-curvature="0" />
  <path
     style="fill:none;stroke:#000000;stroke-width:2.11538458px;stroke-linecap:butt;stroke-linejoin:miter;stroke-miterlimit:8;stroke-dasharray:none;stroke-opacity:1"
     d="m 224.21141,87.105091 27.20395,0 0,11.465587 -27.20395,0 z"
     id="path3488"
     inkscape:connector-curvature="0" />
  <path
     style="fill:#ffffff;fill-opacity:1;fill-rule:evenodd;stroke:none"
     d="m 224.21141,102.80151 0,11.46528 27.20395,0 0,-11.46528 -27.20395,0 z"
     id="path3490"
     inkscape:connector-curvature="0" />
  <path
     style="fill:none;stroke:#000000;stroke-width:2.11538458px;stroke-linecap:butt;stroke-linejoin:miter;stroke-miterlimit:8;stroke-dasharray:none;stroke-opacity:1"
     d="m 224.21141,102.80151 27.20395,0 0,11.46528 -27.20395,0 z"
     id="path3492"
     inkscape:connector-curvature="0" />
  <path
     style="fill:#ffc000;fill-opacity:1;fill-rule:nonzero;stroke:#ffc000;stroke-width:0.01057692px;stroke-linecap:butt;stroke-linejoin:round;stroke-miterlimit:10;stroke-dasharray:none;stroke-opacity:1"
     d="m 134.4769,95.915788 0,6.346112 -0.80376,-0.80377 44.40173,0 -0.80377,0.80377 0,-61.441254 45.99909,0 0,3.130691 -1.60782,0 0,-2.326922 0.80406,0.803769 -44.39156,0 0.80405,-0.803769 0,61.441535 -46.00984,0 0,-7.150162 1.60782,0 z m 90.40083,-52.76822 -2.4113,4.822896 -2.41159,-4.822896 4.82289,0 z"
     id="path3494"
     inkscape:connector-curvature="0" />
  <rect
     style="fill:#0000ff;fill-rule:evenodd;stroke:#0000ff;stroke-width:0.28222221px;stroke-linecap:butt;stroke-linejoin:miter;stroke-opacity:1"
     id="rect3500"
     width="3.1782126"
     height="144.38165"
     x="84.141113"
     y="0.062379889" />
</svg>
