<?xml version="1.0" encoding="UTF-8" standalone="no"?>
<svg
   xmlns:dc="http://purl.org/dc/elements/1.1/"
   xmlns:cc="http://creativecommons.org/ns#"
   xmlns:rdf="http://www.w3.org/1999/02/22-rdf-syntax-ns#"
   xmlns:svg="http://www.w3.org/2000/svg"
   xmlns="http://www.w3.org/2000/svg"
   xmlns:sodipodi="http://sodipodi.sourceforge.net/DTD/sodipodi-0.dtd"
   xmlns:inkscape="http://www.inkscape.org/namespaces/inkscape"
   version="1.0"
   width="260.85999mm"
   height="143.99001mm"
   id="svg4477"
   inkscape:version="0.91 r13725"
   viewBox="0 0 260.85999 143.99001"
   sodipodi:docname="CSS-Tables-Fragmentation-2.svg">
  <metadata
     id="metadata4549">
    <rdf:RDF>
      <cc:Work
         rdf:about="">
        <dc:format>image/svg+xml</dc:format>
        <dc:type
           rdf:resource="http://purl.org/dc/dcmitype/StillImage" />
        <dc:title></dc:title>
      </cc:Work>
    </rdf:RDF>
  </metadata>
  <sodipodi:namedview
     pagecolor="#ffffff"
     bordercolor="#666666"
     borderopacity="1"
     objecttolerance="10"
     gridtolerance="10"
     guidetolerance="10"
     inkscape:pageopacity="0"
     inkscape:pageshadow="2"
     inkscape:window-width="1920"
     inkscape:window-height="1120"
     id="namedview4547"
     inkscape:document-units="mm"
     showgrid="false"
     inkscape:zoom="0.848203"
     inkscape:cx="310.4716"
     inkscape:cy="180.66789"
     inkscape:window-x="-11"
     inkscape:window-y="35"
     inkscape:window-maximized="1"
     inkscape:current-layer="svg4477" />
  <defs
     id="defs4479">
    <clipPath
       clipPathUnits="userSpaceOnUse"
       id="clipEmfPath1">
      <path
         d="m 15.1408,17.0896 923.4402,0 0,510.7404 -923.4402,0 z"
         id="path4482"
         inkscape:connector-curvature="0" />
    </clipPath>
    <pattern
       id="EMFhbasepattern"
       patternUnits="userSpaceOnUse"
       width="6"
       height="6"
       x="0"
       y="0" />
  </defs>
  <path
     style="fill:#ffc000;fill-opacity:1;fill-rule:evenodd;stroke:none"
     d="m 95.43627,0.45559165 0,95.86912035 75.94236,0 0,-95.86912035 -75.94236,0 z"
     id="path4485"
     inkscape:connector-curvature="0" />
  <path
     style="fill:#ffc000;fill-opacity:1;fill-rule:evenodd;stroke:none"
     d="m 184.19801,78.598046 0,65.661574 75.98467,0 0,-65.661574 -75.98467,0 z"
     id="path4487"
     inkscape:connector-curvature="0" />
  <path
     style="fill:#ffffff;fill-opacity:1;fill-rule:evenodd;stroke:none"
     d="m 99.455706,3.9248366 0,88.0000244 67.946134,0 0,-88.0000244 -67.946134,0 z"
     id="path4489"
     inkscape:connector-curvature="0" />
  <path
     style="fill:none;stroke:#000000;stroke-width:7.49545717px;stroke-linecap:butt;stroke-linejoin:miter;stroke-miterlimit:8;stroke-dasharray:none;stroke-opacity:1"
     clip-path="url(#clipEmfPath1)"
     d="m 368.402,29.9069 240.754,0 0,311.8111 -240.754,0 z"
     id="path4491"
     inkscape:connector-curvature="0"
     transform="matrix(0.28222222,0,0,0.28222222,-4.5155553,-4.5155553)" />
  <path
     style="fill:#ffffff;fill-opacity:1;fill-rule:evenodd;stroke:none"
     d="m 103.94022,8.1556034 0,79.3691316 27.16163,0 0,-79.3691316 -27.16163,0 z"
     id="path4493"
     inkscape:connector-curvature="0" />
  <path
     style="fill:none;stroke:#000000;stroke-width:7.49545717px;stroke-linecap:butt;stroke-linejoin:miter;stroke-miterlimit:8;stroke-dasharray:none;stroke-opacity:1"
     clip-path="url(#clipEmfPath1)"
     d="m 384.292,44.8978 96.242,0 0,281.2292 -96.242,0 z"
     id="path4495"
     inkscape:connector-curvature="0"
     transform="matrix(0.28222222,0,0,0.28222222,-4.5155553,-4.5155553)" />
  <path
     style="fill:#ffffff;fill-opacity:1;fill-rule:evenodd;stroke:none"
     d="m 135.54403,8.1556034 0,79.3691316 27.20397,0 0,-79.3691316 -27.20397,0 z"
     id="path4497"
     inkscape:connector-curvature="0" />
  <path
     style="fill:none;stroke:#000000;stroke-width:7.49545717px;stroke-linecap:butt;stroke-linejoin:miter;stroke-miterlimit:8;stroke-dasharray:none;stroke-opacity:1"
     clip-path="url(#clipEmfPath1)"
     d="m 496.274,44.8978 96.392,0 0,281.2292 -96.392,0 z"
     id="path4499"
     inkscape:connector-curvature="0"
     transform="matrix(0.28222222,0,0,0.28222222,-4.5155553,-4.5155553)" />
  <path
     style="fill:#ffffff;fill-opacity:1;fill-rule:evenodd;stroke:none"
     d="m 187.87876,82.447839 0,52.123091 67.94612,0 0,-52.123091 -67.94612,0 z"
     id="path4501"
     inkscape:connector-curvature="0" />
  <path
     style="fill:none;stroke:#000000;stroke-width:7.49545717px;stroke-linecap:butt;stroke-linejoin:miter;stroke-miterlimit:8;stroke-dasharray:none;stroke-opacity:1"
     clip-path="url(#clipEmfPath1)"
     d="m 681.712,308.138 240.754,0 0,184.688 -240.754,0 z"
     id="path4503"
     inkscape:connector-curvature="0"
     transform="matrix(0.28222222,0,0,0.28222222,-4.5155553,-4.5155553)" />
  <path
     style="fill:#ffffff;fill-opacity:1;fill-rule:evenodd;stroke:none"
     d="m 192.10955,87.524735 0,42.223295 27.20368,0 0,-42.223295 -27.20368,0 z"
     id="path4505"
     inkscape:connector-curvature="0" />
  <path
     style="fill:none;stroke:#000000;stroke-width:2.11538458px;stroke-linecap:butt;stroke-linejoin:miter;stroke-miterlimit:8;stroke-dasharray:none;stroke-opacity:1"
     d="m 192.10955,87.524735 27.20368,0 0,42.223295 -27.20368,0 z"
     id="path4507"
     inkscape:connector-curvature="0" />
  <path
     style="fill:#ffffff;fill-opacity:1;fill-rule:evenodd;stroke:none"
     d="m 223.96708,87.524735 0,42.223295 27.20396,0 0,-42.223295 -27.20396,0 z"
     id="path4509"
     inkscape:connector-curvature="0" />
  <path
     style="fill:none;stroke:#000000;stroke-width:2.11538458px;stroke-linecap:butt;stroke-linejoin:miter;stroke-miterlimit:8;stroke-dasharray:none;stroke-opacity:1"
     d="m 223.96708,87.524735 27.20396,0 0,42.223295 -27.20396,0 z"
     id="path4511"
     inkscape:connector-curvature="0" />
  <path
     style="fill:#ffc000;fill-opacity:1;fill-rule:nonzero;stroke:#ffc000;stroke-width:0.01057692px;stroke-linecap:butt;stroke-linejoin:round;stroke-miterlimit:10;stroke-dasharray:none;stroke-opacity:1"
     d="m 134.23254,96.314272 0,6.346068 -0.80376,-0.80376 44.40174,0 -0.80377,0.80376 0,-31.212394 45.99911,0 0,3.130691 -1.60782,0 0,-2.326922 0.80406,0.803769 -44.39158,0 0.80405,-0.803769 0,31.212685 -46.00985,0 0,-7.150128 1.60782,0 z m 90.40086,-22.539404 -2.4113,4.823178 -2.41159,-4.823178 4.82289,0 z"
     id="path4513"
     inkscape:connector-curvature="0" />
  <path
     style="fill:#ffc000;fill-opacity:1;fill-rule:evenodd;stroke:none"
     d="m -0.0944031,0.45559165 0,137.33069835 75.9845271,0 0,-137.33069835 -75.9845271,0 z"
     id="path4515"
     inkscape:connector-curvature="0" />
  <path
     style="fill:#ffffff;fill-opacity:1;fill-rule:evenodd;stroke:none"
     d="m 3.9248366,3.9248366 0,130.0116534 67.9461604,0 0,-130.0116534 -67.9461604,0 z"
     id="path4517"
     inkscape:connector-curvature="0" />
  <path
     style="fill:none;stroke:#000000;stroke-width:7.49545717px;stroke-linecap:butt;stroke-linejoin:miter;stroke-miterlimit:8;stroke-dasharray:none;stroke-opacity:1"
     clip-path="url(#clipEmfPath1)"
     d="m 29.9069,29.9069 240.7541,0 0,460.6711 -240.7541,0 z"
     id="path4519"
     inkscape:connector-curvature="0"
     transform="matrix(0.28222222,0,0,0.28222222,-4.5155553,-4.5155553)" />
  <path
     style="fill:#ffffff;fill-opacity:1;fill-rule:evenodd;stroke:none"
     d="m 8.1556034,8.1556034 0,121.5924266 27.2037406,0 0,-121.5924266 -27.2037406,0 z"
     id="path4521"
     inkscape:connector-curvature="0" />
  <path
     style="fill:none;stroke:#000000;stroke-width:7.49545717px;stroke-linecap:butt;stroke-linejoin:miter;stroke-miterlimit:8;stroke-dasharray:none;stroke-opacity:1"
     clip-path="url(#clipEmfPath1)"
     d="m 44.8978,44.8978 96.3912,0 0,430.8392 -96.3912,0 z"
     id="path4523"
     inkscape:connector-curvature="0"
     transform="matrix(0.28222222,0,0,0.28222222,-4.5155553,-4.5155553)" />
  <path
     style="fill:#ffffff;fill-opacity:1;fill-rule:evenodd;stroke:none"
     d="m 40.013188,8.1556034 0,121.5924266 27.161631,0 0,-121.5924266 -27.161631,0 z"
     id="path4525"
     inkscape:connector-curvature="0" />
  <path
     style="fill:none;stroke:#000000;stroke-width:7.49545717px;stroke-linecap:butt;stroke-linejoin:miter;stroke-miterlimit:8;stroke-dasharray:none;stroke-opacity:1"
     clip-path="url(#clipEmfPath1)"
     d="m 157.779,44.8978 96.242,0 0,430.8392 -96.242,0 z"
     id="path4527"
     inkscape:connector-curvature="0"
     transform="matrix(0.28222222,0,0,0.28222222,-4.5155553,-4.5155553)" />
  <path
     style="fill:#d0cece;fill-opacity:1;fill-rule:evenodd;stroke:none"
     d="m 12.132511,12.259455 0,112.919115 19.54609,0 0,-112.919115 -19.54609,0 z"
     id="path4529"
     inkscape:connector-curvature="0" />
  <path
     style="fill:#d0cece;fill-opacity:1;fill-rule:evenodd;stroke:none"
     d="m 43.82093,12.259455 0,40.573113 19.546147,0 0,-40.573113 -19.546147,0 z"
     id="path4531"
     inkscape:connector-curvature="0" />
  <path
     style="fill:#ffffff;fill-opacity:1;fill-rule:evenodd;stroke:none"
     d="m 193.17088,85.028761 0,43.323119 25.06097,0 0,-43.323119 -25.06097,0 z"
     id="path4533"
     inkscape:connector-curvature="0" />
  <path
     style="fill:#d0cece;fill-opacity:1;fill-rule:evenodd;stroke:none"
     d="m 195.57862,86.382581 0,38.415279 19.50382,0 0,-38.415279 -19.50382,0 z"
     id="path4535"
     inkscape:connector-curvature="0" />
  <path
     style="fill:#ffffff;fill-opacity:1;fill-rule:evenodd;stroke:none"
     d="m 225.03197,85.028761 0,43.323119 25.03184,0 0,-43.323119 -25.03184,0 z"
     id="path4537"
     inkscape:connector-curvature="0" />
  <path
     style="fill:#ffffff;fill-opacity:1;fill-rule:evenodd;stroke:none"
     d="m 136.56659,47.247955 0,43.323086 25.14948,0 0,-43.323086 -25.14948,0 z"
     id="path4539"
     inkscape:connector-curvature="0" />
  <path
     style="fill:#ffffff;fill-opacity:1;fill-rule:evenodd;stroke:none"
     d="m 105.00512,45.471084 0,43.323086 24.97302,0 0,-43.323086 -24.97302,0 z"
     id="path4541"
     inkscape:connector-curvature="0" />
  <path
     style="fill:#d0cece;fill-opacity:1;fill-rule:evenodd;stroke:none"
     d="m 107.74796,12.259455 0,74.123126 19.54615,0 0,-74.123126 -19.54615,0 z"
     id="path4543"
     inkscape:connector-curvature="0" />
  <path
     style="fill:#d0cece;fill-opacity:1;fill-rule:evenodd;stroke:none"
     d="m 139.39411,12.259455 0,40.573113 19.50381,0 0,-40.573113 -19.50381,0 z"
     id="path4545"
     inkscape:connector-curvature="0" />
</svg>
