<?xml version="1.0" encoding="UTF-8" standalone="no"?>
<svg xmlns:rdf="http://www.w3.org/1999/02/22-rdf-syntax-ns#" xmlns="http://www.w3.org/2000/svg" height="1421.5mm" viewBox="0 0 330.00119 1421.5392" width="330mm" version="1.0" xmlns:cc="http://creativecommons.org/ns#" xmlns:xlink="http://www.w3.org/1999/xlink" xmlns:dc="http://purl.org/dc/elements/1.1/">
	<defs>
		<clipPath id="a" clipPathUnits="userSpaceOnUse">
			<path d="m9.2944 0h1169.3v5037h-1169.3z"/>
		</clipPath>
		<filter id="b" style="color-interpolation-filters:sRGB">
			<feColorMatrix values="1 0 0 0 0 0 1 0 0 0 0 0 1 0 0 0 0 0 5 -1 " result="colormatrix"/>
			<feComposite operator="arithmetic" k2="0.5" result="composite" in2="colormatrix"/>
		</filter>
	</defs>
	<g>
		<path d="m0 0v1421.5h330v-1421.5h-330z" fill-rule="evenodd" fill="#262626"/>
		<path d="m18.668 44.402v61.706h292.63v-61.706h-292.63z" fill-rule="evenodd" fill="#fff"/>
		<text style="word-spacing:0px;letter-spacing:0px" font-weight="700" xml:space="preserve" font-size="8.4667px" line-height="125%" y="57.282005" x="25.673161" font-family="&apos;Segoe UI&apos;" fill="#000000"><tspan x="25.673161" y="57.282005"><tspan font-weight="700" font-size="8.4667px" dx="0" dy="0" font-family="&apos;Segoe UI&apos;" fill="#000000">STEP 1: Compute the caption minimum width</tspan></tspan></text>
		<g fill-rule="evenodd">
			<path d="m76.582 64.524v24.136h29.229v-24.136h-29.229z" fill="#d0cece"/>
			<path d="m25.654 63.636v25.025h38.23v-25.025h-38.23z" fill="#d0cece"/>
			<path d="m31.294 69.213v13.803h27.18v-13.803h-27.18z" fill="#7f7f7f"/>
		</g>
	</g>
	<path d="m31.297 69.215h27.177v13.803h-27.177z" stroke="#000" stroke-miterlimit="8" stroke-width="2.1154px" fill="none"/>
	<path d="m34.682 71.476v8.9112h20.406v-8.9112h-20.406z" fill-rule="evenodd" fill="#fff"/>
	<path d="m35.917 73.909h17.804" stroke="#000" stroke-miterlimit="8" stroke-width="2.1154px" fill="none"/>
	<path d="m35.917 77.889 14.014 0.0025" stroke="#000" stroke-miterlimit="8" stroke-width="2.1154px" fill="none"/>
	<path d="m79.369 67.714v17.542h23.793v-17.542h-23.793z" fill-rule="evenodd" fill="#7f7f7f"/>
	<path d="m79.369 67.714h23.793v17.542h-23.793z" stroke="#000" stroke-miterlimit="8" stroke-width="2.1154px" fill="none"/>
	<path d="m82.759 69.977v12.809h16.881v-12.809h-16.881z" fill-rule="evenodd" fill="#fff"/>
	<g stroke="#000" stroke-miterlimit="8" stroke-width="2.1154px" fill="none">
		<path d="m83.991 72.404 9.4347-0.0054"/>
		<path d="m83.991 76.387h14.015"/>
		<path d="m83.991 80.369h7.2082"/>
		<path d="m92.046 80.369h5.1088"/>
	</g>
	<g stroke="#000">
		<path stroke-linejoin="round" d="m31.334 95.319 26.913-0.02117v-2.1153l-26.913 0.02117v2.1153zm1.0524-4.2308-6.341 3.1784 6.3463 3.1679-0.0054-6.3463zm24.803 6.3252 6.346-3.1784-6.3514-3.1679 0.0054 6.3463z" stroke-miterlimit="10" stroke-width=".0052885px"/>
		<path d="m26.516 90.771v6.9331" stroke-miterlimit="8" stroke-width="1.5865px" fill="none"/>
		<path d="m63.181 90.771v6.9331" stroke-miterlimit="8" stroke-width="1.5865px" fill="none"/>
	</g>
	<g stroke="#767171">
		<path stroke-linejoin="round" d="m82.326 95.288 17.653-0.02117v-2.1155l-17.658 0.02117 0.0054 2.1155zm1.0524-4.2308-6.341 3.1784 6.3463 3.1677-0.0054-6.346zm15.543 6.3249 6.346-3.1784-6.3514-3.1677 0.005 6.346z" stroke-miterlimit="10" stroke-width=".0052885px" fill="#767171"/>
		<path d="m77.386 90.734v6.9384" stroke-miterlimit="8" stroke-width="1.5865px" fill="none"/>
		<path d="m105 90.734v6.9384" stroke-miterlimit="8" stroke-width="1.5865px" fill="none"/>
	</g>
	<g>
		<path d="m18.668 117.74v114.23h292.63v-114.23h-292.63z" fill-rule="evenodd" fill="#fff"/>
		<text style="word-spacing:0px;letter-spacing:0px" font-weight="700" xml:space="preserve" font-size="8.4667px" line-height="125%" y="131.673" x="24.77096" font-family="&apos;Segoe UI&apos;" fill="#000000"><tspan x="24.77096" y="131.673"><tspan font-weight="700" font-size="8.4667px" dx="0" dy="0" font-family="&apos;Segoe UI&apos;" fill="#000000">STEP 2: Compute the row/column grid</tspan></tspan></text>
		<path d="m26.633 142.87v75.699h56.713v-75.699h-56.713z" fill-rule="evenodd" fill="#fff"/>
	</g>
	<path d="m26.633 142.87h56.713v75.699h-56.713z" stroke="#000" stroke-miterlimit="8" stroke-width="2.1154px" fill="none"/>
	<g>
		<path d="m30.863 147.1v33.741h47.903v-33.741h-47.903z" fill-rule="evenodd" fill="#fff"/>
		<path stroke-linejoin="round" d="m29.806 180.84v-6.3463h2.1155v6.3463h-2.1155zm0-8.4616v-6.3463h2.1155v6.3463h-2.1155zm0-8.4616v-6.346h2.1155v6.346h-2.1155zm0-8.4616v-6.346h2.1155v6.346h-2.1155zm1.1529-9.4135h6.3463v2.1155h-6.3463v-2.1155zm8.4616 0h6.3463v2.1155h-6.3463v-2.1155zm8.4616 0h6.346v2.1155h-6.346v-2.1155zm8.4616 0h6.346v2.1155h-6.346v-2.1155zm8.4616 0h6.346v2.1155h-6.346v-2.1155zm8.4616 0h6.547v1.9146h-2.1153v-0.85683l1.0575 1.0578h-5.4892v-2.1155zm6.547 4.0298v6.3463h-2.1153v-6.3463h2.1153zm0 8.4616v6.346h-2.1153v-6.346h2.1153zm0 8.4616v6.346h-2.1153v-6.346h2.1153zm0 8.4616v6.4412h-2.0097v-2.1153h0.95194l-1.0575 1.0578v-5.3837h2.1153zm-4.125 6.4412h-6.3463v-2.1153h6.3463v2.1153zm-8.4616 0h-6.346v-2.1153h6.346v2.1153zm-8.4616 0h-6.346v-2.1153h6.346v2.1153zm-8.4616 0h-6.346v-2.1153h6.346v2.1153zm-8.4613 0h-6.3463v-2.1153h6.3463v2.1153zm-8.4616 0h-2.5174v-2.1153h2.5174v2.1153z" stroke="#afabab" stroke-miterlimit="10" stroke-width=".010577px" fill="#afabab"/>
		<path d="m35.094 151.33v25.638h39.441v-25.638h-39.441z" fill-rule="evenodd" fill="#d0cece"/>
	</g>
	<path d="m35.094 151.33h39.441v25.638h-39.441z" stroke="#767171" stroke-miterlimit="8" stroke-width="2.1154px" fill="none"/>
	<g>
		<path d="m30.863 185.08v29.615h47.903v-29.615h-47.903z" fill-rule="evenodd" fill="#fff"/>
		<path stroke-linejoin="round" d="m29.806 214.69v-6.346h2.1155v6.346h-2.1155zm0-8.4616v-6.346h2.1155v6.346h-2.1155zm0-8.4616v-6.346h2.1155v6.346h-2.1155zm0-8.4616v-5.2883h3.1733v2.1152h-2.1155l1.0578-1.0575v4.2305h-2.1155zm5.2886-5.2883h6.346v2.1152h-6.346v-2.1152zm8.4616 0h6.346v2.1152h-6.346v-2.1152zm8.4616 0h6.346v2.1152h-6.346v-2.1152zm8.4613 0h6.3463v2.1152h-6.3463v-2.1152zm8.4616 0h6.3463v2.1152h-6.3463v-2.1152zm8.4616 0h2.4116v6.05h-2.1153v-4.9922l1.0575 1.0575h-1.3538v-2.1152zm2.4116 8.1652v6.3463h-2.1153v-6.3463h2.1153zm0 8.4616v6.346h-2.1153v-6.346h2.1153zm0 8.4616v6.6424h-1.8088v-2.1155h0.75099l-1.0575 1.0578v-5.5846h2.1153zm-3.924 6.6424h-6.346v-2.1155h6.346v2.1155zm-8.4616 0h-6.346v-2.1155h6.346v2.1155zm-8.4616 0h-6.346v-2.1155h6.346v2.1155zm-8.4616 0h-6.346v-2.1155h6.346v2.1155zm-8.4613 0h-6.3463v-2.1155h6.3463v2.1155zm-8.4616 0h-2.7184v-2.1155h2.7184v2.1155z" stroke="#afabab" stroke-miterlimit="10" stroke-width=".010577px" fill="#afabab"/>
		<path d="m35.274 189.47v9.0009h39.431v-9.0009h-39.431z" fill-rule="evenodd" fill="#d0cece"/>
	</g>
	<path d="m35.274 189.47h39.431v9.0009h-39.431z" stroke="#767171" stroke-miterlimit="8" stroke-width="2.1154px" fill="none"/>
	<path d="m35.274 201.89v9.0012h39.431v-9.0012h-39.431z" fill-rule="evenodd" fill="#d0cece"/>
	<path d="m35.274 201.89h39.431v9.0012h-39.431z" stroke="#767171" stroke-miterlimit="8" stroke-width="2.1154px" fill="none"/>
	<g>
		<path d="m113.11 175.37h5.9021l5.8595 5.8598-5.8595 5.8491h-5.9021l5.8598-5.8491z" fill-rule="evenodd" fill="#7f7f7f"/>
		<path d="m100.27 175.21h11.444l5.9337 5.9337-5.9337 5.9337h-11.444z" fill-rule="evenodd" fill="#7f7f7f"/>
		<path stroke-linejoin="round" d="m141.21 182.48h6.346v2.1153h-6.346v-2.1153zm8.4613 0h6.3463v2.1153h-6.3463v-2.1153zm8.4616 0h6.3463v2.1153h-6.3463v-2.1153zm8.4616 0h6.346v2.1153h-6.346v-2.1153zm8.4616 0h6.346v2.1153h-6.346v-2.1153zm8.4616 0h6.346v2.1153h-6.346v-2.1153zm8.4616 0h6.346v2.1153h-6.346v-2.1153zm8.4613 0h1.3645v2.1153h-1.3645v-2.1153z" stroke="#afabab" stroke-miterlimit="10" stroke-width=".010577px" fill="#afabab"/>
		<path stroke-linejoin="round" d="m172.57 224.21v-6.3463h-2.1155v6.3463h2.1155zm0-8.4616v-6.3463h-2.1155v6.3463h2.1155zm0-8.4616v-6.3463h-2.1155v6.3463h2.1155zm0-8.4616v-6.346h-2.1155v6.346h2.1155zm0-8.4616v-6.346h-2.1155v6.346h2.1155zm0-8.4616v-6.346h-2.1155v6.346h2.1155zm0-8.4613v-6.3463h-2.1155v6.3463h2.1155zm0-8.4616v-6.3463h-2.1155v6.3463h2.1155zm0-8.4616v-6.346h-2.1155v6.346h2.1155zm0-8.4616v-5.1827h-2.1155v5.1827h2.1155z" stroke="#afabab" stroke-miterlimit="10" stroke-width=".010577px" fill="#afabab"/>
	</g>
	<path d="m141.21 142.87h60.595v81.337h-60.595z" stroke="#000" stroke-miterlimit="8" stroke-width="2.1154px" fill="none"/>
	<path d="m149.85 150.99v25.628h44.55v-25.628h-44.55z" fill-rule="evenodd" fill="#d0cece"/>
	<path d="m149.85 150.99h44.55v25.628h-44.55z" stroke="#767171" stroke-miterlimit="8" stroke-width="2.1154px" fill="none"/>
	<path d="m149.7 190.88v25.638h14.416v-25.638h-14.416z" fill-rule="evenodd" fill="#d0cece"/>
	<path d="m149.7 190.88h14.416v25.638h-14.416z" stroke="#767171" stroke-miterlimit="8" stroke-width="2.1154px" fill="none"/>
	<path d="m180.45 190.88v25.638h13.951v-25.638h-13.951z" fill-rule="evenodd" fill="#d0cece"/>
	<path d="m180.45 190.88h13.951v25.638h-13.951z" stroke="#767171" stroke-miterlimit="8" stroke-width="2.1154px" fill="none"/>
	<g>
		<path d="m18.679 243.61v114.23h292.62v-114.23h-292.62z" fill-rule="evenodd" fill="#fff"/>
		<text style="word-spacing:0px;letter-spacing:0px" font-weight="700" xml:space="preserve" font-size="8.4667px" line-height="125%" y="257.53842" x="25.828651" font-family="&apos;Segoe UI&apos;" fill="#000000"><tspan x="25.828651" y="257.53842"><tspan font-weight="700" font-size="8.4667px" dx="0" dy="0" font-family="&apos;Segoe UI&apos;" fill="#000000">STEP 3A.1: Fill the grid gaps</tspan></tspan></text>
		<path d="m116.64 301.23h5.8914l5.8595 5.8618-5.8595 5.8476h-5.8914l5.8595-5.8476z" fill-rule="evenodd" fill="#7f7f7f"/>
		<path d="m103.79 301.07h11.444l5.9444 5.9351-5.9444 5.9323h-11.444z" fill-rule="evenodd" fill="#7f7f7f"/>
		<path stroke-linejoin="round" d="m144.75 308.35h6.346v2.1138h-6.346v-2.1138zm8.4616 0h6.346v2.1138h-6.346v-2.1138zm8.4616 0h6.346v2.1138h-6.346v-2.1138zm8.4616 0h6.346v2.1138h-6.346v-2.1138zm8.4613 0h6.3463v2.1138h-6.3463v-2.1138zm8.4616 0h6.3463v2.1138h-6.3463v-2.1138zm8.4616 0h6.346v2.1138h-6.346v-2.1138zm8.4616 0h1.3538v2.1138h-1.3538v-2.1138z" stroke="#afabab" stroke-width=".010577px" fill="#afabab"/>
		<path stroke-linejoin="round" d="m176.11 350.07v-6.3444h-2.1152v6.3444h2.1152zm0-8.461v-6.3444h-2.1152v6.3444h2.1152zm0-8.461v-6.3472h-2.1152v6.3472h2.1152zm0-8.461v-6.3472h-2.1152v6.3472h2.1152zm0-8.461v-6.3472h-2.1152v6.3472h2.1152zm0-8.4638v-6.3444h-2.1152v6.3444h2.1152zm0-8.461v-6.3444h-2.1152v6.3444h2.1152zm0-8.461v-6.3472h-2.1152v6.3472h2.1152zm0-8.461v-6.3466h-2.1152v6.3466h2.1152zm0-8.4619v-5.1827h-2.1152v5.1827h2.1152z" stroke="#afabab" stroke-width=".021154px" fill="#afabab"/>
	</g>
	<path d="m144.76 268.74h60.584v81.336h-60.584z" stroke="#000" stroke-miterlimit="8" stroke-width="2.1154px" fill="none"/>
	<path d="m153.38 276.85v25.629h44.55v-25.629h-44.55z" fill-rule="evenodd" fill="#d0cece"/>
	<path d="m153.38 276.85h44.55v25.629h-44.55z" stroke="#767171" stroke-miterlimit="8" stroke-width="2.1154px" fill="none"/>
	<path d="m153.22 316.75v25.64h14.416v-25.64h-14.416z" fill-rule="evenodd" fill="#d0cece"/>
	<g>
		<path d="m153.22 316.76h14.427v25.637h-14.427z" stroke="#767171" stroke-miterlimit="8" stroke-width="2.1154px" fill="none"/>
		<path stroke-linejoin="round" d="m26.728 308.35h6.3463v2.1138h-6.3463v-2.1138zm8.4616 0h6.3463v2.1138h-6.3463v-2.1138zm8.4616 0h6.3463v2.1138h-6.3463v-2.1138zm8.4616 0h6.346v2.1138h-6.346v-2.1138zm8.4616 0h6.346v2.1138h-6.346v-2.1138zm8.4616 0h6.346v2.1138h-6.346v-2.1138zm8.4613 0h6.3463v2.1138h-6.3463v-2.1138zm8.4616 0h1.3645v2.1138h-1.3645v-2.1138z" stroke="#afabab" stroke-miterlimit="10" stroke-width=".010577px" fill="#afabab"/>
		<path stroke-linejoin="round" d="m58.089 350.07v-6.3444h-2.1155v6.3444h2.1155zm0-8.461v-6.3444h-2.1155v6.3444h2.1155zm0-8.461v-6.3472h-2.1155v6.3472h2.1155zm0-8.461v-6.3472h-2.1155v6.3472h2.1155zm0-8.461v-6.3472h-2.1155v6.3472h2.1155zm0-8.4638v-6.3444h-2.1155v6.3444h2.1155zm0-8.461v-6.3444h-2.1155v6.3444h2.1155zm0-8.461v-6.3472h-2.1155v6.3472h2.1155zm0-8.461v-6.3466h-2.1155v6.3466h2.1155zm0-8.4619v-5.1827h-2.1155v5.1827h2.1155z" stroke="#afabab" stroke-miterlimit="10" stroke-width=".021154px" fill="#afabab"/>
		<path d="m26.738 268.74h60.585v81.336h-60.585z" stroke="#000" stroke-miterlimit="8" stroke-width="2.1154px" fill="none"/>
	</g>
	<path d="m35.369 276.85v25.629h44.55v-25.629h-44.55z" fill-rule="evenodd" fill="#d0cece"/>
	<path d="m35.369 276.85h44.55v25.629h-44.55z" stroke="#767171" stroke-miterlimit="8" stroke-width="2.1154px" fill="none"/>
	<path d="m35.211 316.75v25.64h14.416v-25.64h-14.416z" fill-rule="evenodd" fill="#d0cece"/>
	<path d="m35.221 316.76h14.406v25.637h-14.406z" stroke="#767171" stroke-miterlimit="8" stroke-width="2.1154px" fill="none"/>
	<g>
		<path d="m18.679 369.47v124.81h292.62v-124.81h-292.62z" fill-rule="evenodd" fill="#fff"/>
		<text style="word-spacing:0px;letter-spacing:0px" font-weight="700" xml:space="preserve" font-size="8.4667px" line-height="125%" y="382.15543" x="25.673161" font-family="&apos;Segoe UI&apos;" fill="#000000"><tspan x="25.673161" y="382.15543"><tspan font-weight="700" font-size="8.4667px" dx="0" dy="0" font-family="&apos;Segoe UI&apos;" fill="#000000">STEP 3A.2: Compute the row/column grid minimum &amp; preferred width</tspan></tspan></text>
		<path stroke-linejoin="round" d="m27.542 435.43h6.3463v2.1167h-6.3463v-2.1167zm8.4616 0h6.346v2.1167h-6.346v-2.1167zm8.4616 0h6.346v2.1167h-6.346v-2.1167zm8.4616 0h6.346v2.1167h-6.346v-2.1167zm8.4616 0h6.346v2.1167h-6.346v-2.1167zm8.4613 0h6.3463v2.1167h-6.3463v-2.1167zm8.4616 0h6.3463v2.1167h-6.3463v-2.1167zm8.4616 0h1.3538v2.1167h-1.3538v-2.1167z" stroke="#afabab" stroke-width=".021154px" fill="#afabab"/>
		<path stroke-linejoin="round" d="m58.892 477.17v-6.3472h-2.1155v6.3472h2.1155zm0-8.461v-6.3472h-2.1155v6.3472h2.1155zm0-8.461v-6.3472h-2.1155v6.3472h2.1155zm0-8.4638v-6.3444h-2.1155v6.3444h2.1155zm0-8.461v-6.3444h-2.1155v6.3444h2.1155zm0-8.461v-6.3472h-2.1155v6.3472h2.1155zm0-8.461v-6.3472h-2.1155v6.3472h2.1155zm0-8.461v-6.3472h-2.1155v6.3472h2.1155zm0-8.461v-6.3472h-2.1155v6.3472h2.1155zm0-8.4638v-5.1816h-2.1155v5.1816h2.1155z" stroke="#afabab" stroke-width=".021154px" fill="#afabab"/>
	</g>
	<path d="m27.542 395.83h60.585v81.336h-60.585z" stroke="#000" stroke-miterlimit="8" stroke-width="2.1154px" fill="none"/>
	<path d="m36.173 403.93v20.518h27.225v-20.518h-27.225z" fill-rule="evenodd" fill="#d0cece"/>
	<path d="m36.173 403.93h27.225v20.518h-27.225z" stroke="#767171" stroke-miterlimit="8" stroke-width="2.1154px" fill="none"/>
	<path d="m36.025 443.83v20.921h14.406v-20.921h-14.406z" fill-rule="evenodd" fill="#d0cece"/>
	<path d="m36.025 443.83h14.406v20.921h-14.406z" stroke="#767171" stroke-miterlimit="8" stroke-width="2.1154px" fill="none"/>
	<path d="m66.783 443.83v8.1647h13.94v-8.1647h-13.94z" fill-rule="evenodd" fill="#fff"/>
	<g>
		<path d="m66.783 443.83h13.94v8.1647h-13.94z" stroke="#767171" stroke-miterlimit="8" stroke-width="2.1154px" fill="none"/>
		<path stroke-linejoin="round" d="m104.29 423.4h6.3463v2.1138h-6.3463v-2.1138zm8.4616 0h6.3463v2.1138h-6.3463v-2.1138zm8.4616 0h6.346v2.1138h-6.346v-2.1138zm8.4616 0h6.346v2.1138h-6.346v-2.1138zm8.4616 0h6.346v2.1138h-6.346v-2.1138zm8.4616 0h6.346v2.1138h-6.346v-2.1138zm8.4613 0h6.3463v2.1138h-6.3463v-2.1138zm8.4616 0h6.3463v2.1138h-6.3463v-2.1138zm8.4616 0h6.346v2.1138h-6.346v-2.1138zm8.4616 0h6.346v2.1138h-6.346v-2.1138zm8.4616 0h2.7711v2.1138h-2.7711v-2.1138z" stroke="#afabab" stroke-miterlimit="10" stroke-width=".021154px" fill="#afabab"/>
		<path stroke-linejoin="round" d="m161.7 448.55 0.0212-6.3472-2.1153-0.0197-0.0212 6.3444 2.1152 0.0226zm0.0423-8.4638 0.0212-6.3444-2.1152-0.0226-0.0212 6.3472 2.1153 0.0197zm0.0423-8.461 0.0212-6.3444-2.1155-0.0226-0.0212 6.3472 2.1155 0.0198zm0.0423-8.461 0.0212-6.3472-2.1155-0.0198-0.0212 6.3472 2.1155 0.0198zm0.0423-8.461 0.0212-6.3472-2.1155-0.0198-0.0212 6.3444 2.1155 0.0226zm0.0423-8.461 0.0212-6.3472-2.1155-0.0198-0.0212 6.3444 2.1155 0.0226zm0.0423-8.461v-1.9473h-2.1155v1.9248l2.1155 0.0226z" stroke="#afabab" stroke-miterlimit="10" stroke-width=".021154px" fill="#afabab"/>
		<path d="m104.29 395.83h87.387v52.716h-87.387z" stroke="#000" stroke-miterlimit="8" stroke-width="2.1154px" fill="none"/>
	</g>
	<path d="m112.92 403.93v13.496h58.237v-13.496h-58.237z" fill-rule="evenodd" fill="#d0cece"/>
	<path d="m112.92 403.93h58.237v13.496h-58.237z" stroke="#767171" stroke-miterlimit="8" stroke-width="2.1154px" fill="none"/>
	<path d="m112.77 430.44v10.617h39.642v-10.617h-39.642z" fill-rule="evenodd" fill="#d0cece"/>
	<path d="m112.77 430.44h39.642v10.617h-39.642z" stroke="#767171" stroke-miterlimit="8" stroke-width="2.1154px" fill="none"/>
	<path d="m40.383 407.51v13.245h18.784v-13.245h-18.784z" fill-rule="evenodd" fill="#fff"/>
	<path d="m41.61 409.94 9.4347-0.0198" stroke="#000" stroke-miterlimit="8" stroke-width="2.1154px" fill="none"/>
	<path d="m38.479 446.2v15.632h9.223v-15.632h-9.223z" fill-rule="evenodd" fill="#fff"/>
	<g stroke="#000" stroke-miterlimit="8" stroke-width="2.1154px" fill="none">
		<path d="m41.61 413.79 15.21-0.0226"/>
		<path d="m41.588 417.45 15.21-0.0197"/>
		<path d="m39.473 448.55h6.8538"/>
		<path d="m39.473 452.06h6.8538"/>
		<path d="m39.473 455.7h6.8538"/>
		<path d="m39.473 459.21h6.8538"/>
		<path d="m69.046 448h9.4347"/>
	</g>
	<path d="m117.38 407.76v5.6501h49.31v-5.6501h-49.31z" fill-rule="evenodd" fill="#fff"/>
	<g stroke="#000" stroke-miterlimit="8" stroke-width="2.1154px" fill="none">
		<path d="m119.01 410.38h9.4347"/>
		<path d="m131.09 410.3h15.188"/>
		<path d="m148.92 410.3h15.21"/>
	</g>
	<path d="m114.93 432.75v5.8589h34.904v-5.8589h-34.904z" fill-rule="evenodd" fill="#fff"/>
	<g stroke="#000" stroke-miterlimit="8" stroke-width="2.1154px" fill="none">
		<path d="m116.35 435.66h6.8749"/>
		<path d="m124.64 435.66h6.8749"/>
		<path d="m132.93 435.68 6.8749-0.0198"/>
		<path d="m141.22 435.64h6.8538"/>
	</g>
	<path d="m168.36 430.52v8.1647h13.94v-8.1647h-13.94z" fill-rule="evenodd" fill="#fff"/>
	<path d="m168.36 430.52h13.94v8.1647h-13.94z" stroke="#767171" stroke-miterlimit="8" stroke-width="2.1154px" fill="none"/>
	<g stroke="#000">
		<path d="m170.61 434.69h9.4347" stroke-miterlimit="8" stroke-width="2.1154px" fill="none"/>
		<path stroke-linejoin="round" d="m34.312 486.37 17.198-0.0226v-2.1138l-17.198 0.0198v2.1167zm1.0575-4.2333-6.346 3.175 6.346 3.1722v-6.3472zm15.083 6.3274 6.346-3.1948-6.346-3.1524v6.3472z" stroke-miterlimit="10" stroke-width=".021154px"/>
		<path d="m29.361 481.82v6.9173" stroke-miterlimit="8" stroke-width="1.5865px" fill="none"/>
		<path d="m56.544 481.82v6.9173" stroke-miterlimit="8" stroke-width="1.5865px" fill="none"/>
		<path stroke-linejoin="round" d="m64.731 486.37 17.198-0.0226v-2.1138l-17.198 0.0198v2.1167zm1.0578-4.2333-6.346 3.175 6.346 3.1722v-6.3472zm15.083 6.3274 6.346-3.1948-6.346-3.1524v6.3472z" stroke-miterlimit="10" stroke-width=".021154px"/>
		<path d="m59.781 481.82v6.9173" stroke-miterlimit="8" stroke-width="1.5865px" fill="none"/>
		<path d="m86.964 481.82v6.9173" stroke-miterlimit="8" stroke-width="1.5865px" fill="none"/>
		<path stroke-linejoin="round" d="m110.42 457.2 43.175-0.0198v-2.1167l-43.175 0.0226v2.1138zm1.0578-4.2305-6.346 3.175 6.3672 3.1722-0.0212-6.3472zm41.06 6.3246 6.346-3.1722-6.3672-3.1722 0.0212 6.3444z" stroke-miterlimit="10" stroke-width=".021154px"/>
		<path d="m105.81 452.65v6.937" stroke-miterlimit="8" stroke-width="1.5865px" fill="none"/>
		<path d="m158.38 452.65v6.937" stroke-miterlimit="8" stroke-width="1.5865px" fill="none"/>
		<path stroke-linejoin="round" d="m167.35 457.2 17.452-0.0198v-2.1167l-17.452 0.0226v2.1138zm1.0366-4.2305-6.3252 3.175 6.3463 3.1722-0.0212-6.3472zm15.379 6.3246 6.3249-3.1722-6.346-3.1722 0.0212 6.3444z" stroke-miterlimit="10" stroke-width=".021154px"/>
		<path d="m162.4 452.65v6.937" stroke-miterlimit="8" stroke-width="1.5865px" fill="none"/>
		<path d="m189.83 452.65v6.937" stroke-miterlimit="8" stroke-width="1.5865px" fill="none"/>
	</g>
	<g fill-rule="evenodd">
		<path d="m17.79 507.31v84.974h292.64v-84.974h-292.64z" fill="#fff"/>
		<path d="m25.66 543.86v25.025h38.225v-25.025h-38.225z" fill="#d0cece"/>
		<path d="m31.308 549.45v13.792h27.183v-13.792h-27.183z" fill="#7f7f7f"/>
	</g>
	<path d="m31.308 549.45h27.183v13.792h-27.183z" stroke="#000" stroke-miterlimit="8" stroke-width="2.1154px" fill="none"/>
	<path d="m34.692 551.71v8.9069h20.392v-8.9069h-20.392z" fill-rule="evenodd" fill="#fff"/>
	<path d="m35.919 554.15h17.812" stroke="#000" stroke-miterlimit="8" stroke-width="2.1154px" fill="none"/>
	<path d="m35.919 558.12h14.025" stroke="#000" stroke-miterlimit="8" stroke-width="2.1154px" fill="none"/>
	<g>
		<text style="word-spacing:0px;letter-spacing:0px" font-weight="700" xml:space="preserve" font-size="8.4667px" line-height="125%" y="521.95129" x="25.673161" font-family="Arial" fill="#000000"><tspan x="25.673161" y="521.95129"><tspan font-weight="700" font-size="8.4667px" dx="0" dy="0" font-family="Arial" fill="#000000">STEP 3A.3: Compute the table width</tspan></tspan></text>
		<path d="m71.733 554.15h4.1461v-4.1261h3.8924v4.1261h4.125v3.8721h-4.125v4.1233h-3.8924v-4.1233h-4.1461z" fill-rule="evenodd" fill="#7f7f7f"/>
		<path d="m94.177 540.78v33.528h45.396v-33.528h-45.396z" fill-rule="evenodd" fill="#7f7f7f"/>
	</g>
	<path d="m94.177 540.78h45.396v33.528h-45.396z" stroke="#000" stroke-miterlimit="8" stroke-width="2.1154px" fill="none"/>
	<g>
		<g fill-rule="evenodd">
			<path d="m97.562 543.85v27.457h38.31v-27.457h-38.31z" fill="#fff"/>
			<path d="m169.17 550.49h5.8807l5.8598 5.8618-5.8598 5.8589h-5.8807l5.8386-5.8589z" fill="#7f7f7f"/>
			<path d="m156.31 550.34h11.444l5.9442 5.9238-5.9442 5.9436h-11.444z" fill="#7f7f7f"/>
		</g>
		<path stroke-linejoin="round" d="m99.042 582.53h36.067v-2.1167h-36.067v2.1167zm1.0575-4.2305-6.346 3.1722 6.346 3.1722v-6.3444zm33.952 6.3444 6.3463-3.1722-6.3463-3.1722v6.3444z" stroke="#000" stroke-miterlimit="10" stroke-width=".021154px"/>
	</g>
	<g stroke="#000">
		<path d="m94.473 577.97v6.937" stroke-miterlimit="8" stroke-width="1.5865px" fill="none"/>
		<path d="m139.68 577.97v6.937" stroke-miterlimit="8" stroke-width="1.5865px" fill="none"/>
		<path stroke-linejoin="round" d="m31.688 582.55 26.908-0.0198v-2.1167l-26.908 0.0226v2.1138zm1.0578-4.2305-6.346 3.175 6.346 3.1722v-6.3472zm24.792 6.3246 6.346-3.1722-6.346-3.1722v6.3444z" stroke-miterlimit="10" stroke-width=".021154px"/>
		<path d="m26.865 578.01v6.937" stroke-miterlimit="8" stroke-width="1.5865px" fill="none"/>
		<path d="m63.546 578.01v6.937" stroke-miterlimit="8" stroke-width="1.5865px" fill="none"/>
	</g>
	<g stroke-linejoin="round" stroke-miterlimit="10" stroke-width=".021154px">
		<path d="m117.76 571.3v-6.3472h-2.1152v6.3472h2.1152zm0-8.461v-6.3472h-2.1152v6.3472h2.1152zm0-8.4638v-6.3444h-2.1152v6.3444h2.1152zm0-8.461v-2.0715h-2.1152v2.0715h2.1152z" stroke="#afabab" fill="#afabab"/>
		<path d="m97.562 556.51h6.346v2.1167h-6.346v-2.1167zm8.4616 0h6.346v2.1167h-6.346v-2.1167zm8.4616 0h6.346v2.1167h-6.346v-2.1167zm8.4613 0h6.3463v2.1167h-6.3463v-2.1167zm8.4616 0h4.4636v2.1167h-4.4636v-2.1167z" stroke="#afabab" fill="#afabab"/>
		<path d="m102.85 535.26h7.1286v-2.1167h-7.1286v2.1167zm1.0575-4.2333-6.346 3.175 6.346 3.1722v-6.3472zm5.0134 6.3472 6.3463-3.1722-6.3463-3.175v6.3472z" stroke="#000"/>
	</g>
	<g stroke="#000">
		<path d="m97.836 530.37v7.572" stroke-miterlimit="8" stroke-width="1.5865px" fill="none"/>
		<path d="m115.01 530.37v7.572" stroke-miterlimit="8" stroke-width="1.5865px" fill="none"/>
		<path stroke-linejoin="round" d="m123.2 535.11h7.1498v-2.1138h-7.1498v2.1138zm1.0578-4.2305-6.3463 3.1722 6.3463 3.175v-6.3472zm5.0346 6.3472 6.346-3.175-6.346-3.1722v6.3472z" stroke-miterlimit="10" stroke-width=".021154px"/>
		<path d="m118.19 530.22v7.572" stroke-miterlimit="8" stroke-width="1.5865px" fill="none"/>
		<path d="m135.36 530.22v7.572" stroke-miterlimit="8" stroke-width="1.5865px" fill="none"/>
	</g>
	<path d="m199.59 535.66v25.025h38.225v-25.025h-38.225z" fill-rule="evenodd" fill="#d0cece"/>
	<path d="m205.21 541.24v13.792h27.183v-13.792h-27.183z" fill-rule="evenodd" fill="#7f7f7f"/>
	<path d="m205.21 541.24h27.183v13.792h-27.183z" stroke="#000" stroke-miterlimit="8" stroke-width="2.1154px" fill="none"/>
	<path d="m208.6 543.51v8.9041h20.414v-8.9041h-20.414z" fill-rule="evenodd" fill="#fff"/>
	<g stroke="#000">
		<path d="m209.85 545.94h17.79" stroke-miterlimit="8" stroke-width="2.1154px" fill="none"/>
		<path stroke-linejoin="round" d="m200.58 582.11 36.427-0.0226v-2.1138l-36.427 0.0198v2.1167zm1.0575-4.2305-6.346 3.1948 6.346 3.1524v-6.3472zm34.312 6.3246 6.346-3.1722-6.346-3.175v6.3472z" stroke-miterlimit="10" stroke-width=".021154px"/>
		<path d="m195.88 577.12v7.826" stroke-miterlimit="8" stroke-width="1.5865px" fill="none"/>
		<path d="m241.85 577.12v7.826" stroke-miterlimit="8" stroke-width="1.5865px" fill="none"/>
	</g>
	<path d="m196.18 549.45v23.65h45.417v-23.65h-45.417z" fill-rule="evenodd" fill="#7f7f7f"/>
	<path d="m196.18 549.45h45.417v23.65h-45.417z" stroke="#000" stroke-miterlimit="8" stroke-width="2.1154px" fill="none"/>
	<g>
		<path d="m199.59 553.38v16.713h38.289v-16.713h-38.289z" fill-rule="evenodd" fill="#fff"/>
		<path d="m18.679 607.86v84.974h292.62v-84.974h-292.62z" fill-rule="evenodd" fill="#fff"/>
		<text style="word-spacing:0px;letter-spacing:0px" font-weight="700" xml:space="preserve" font-size="8.4667px" line-height="125%" y="622.03271" x="25.673161" font-family="&apos;Segoe UI&apos;" fill="#000000"><tspan x="25.673161" y="622.03271"><tspan font-weight="700" font-size="8.4667px" dx="0" dy="0" font-family="&apos;Segoe UI&apos;" fill="#000000">STEP 3A.4: Distribute the table width to columns</tspan></tspan></text>
		<path d="m27.31 640.88v33.508h45.396v-33.508h-45.396z" fill-rule="evenodd" fill="#7f7f7f"/>
	</g>
	<path d="m27.31 640.88h45.396v33.508h-45.396z" stroke="#000" stroke-miterlimit="8" stroke-width="2.1154px" fill="none"/>
	<g>
		<g fill-rule="evenodd">
			<path d="m30.694 643.92v27.457h38.289v-27.457h-38.289z" fill="#fff"/>
			<path d="m132.59 650.56h5.8807l5.8595 5.8618-5.8595 5.8589h-5.8807l5.8383-5.8589z" fill="#7f7f7f"/>
			<path d="m119.73 650.42h11.444l5.9442 5.9238-5.9442 5.9436h-11.444z" fill="#7f7f7f"/>
		</g>
		<g stroke-linejoin="round" stroke-miterlimit="10" stroke-width=".021154px">
			<path d="m50.896 671.38v-6.3472h-2.1153v6.3472h2.1153zm0-8.461v-6.3472h-2.1153v6.3472h2.1153zm0-8.4638v-6.3444h-2.1153v6.3444h2.1153zm0-8.461v-2.0715h-2.1153v2.0715h2.1153z" stroke="#afabab" fill="#afabab"/>
			<path d="m30.694 656.59h6.3463v2.1167h-6.3463v-2.1167zm8.4616 0h6.3463v2.1167h-6.3463v-2.1167zm8.4616 0h6.346v2.1167h-6.346v-2.1167zm8.4616 0h6.346v2.1167h-6.346v-2.1167zm8.4616 0h4.4422v2.1167h-4.4422v-2.1167z" stroke="#afabab" fill="#afabab"/>
			<path d="m35.983 634.62h7.1289v-2.1167h-7.1289v2.1167zm1.0578-4.2305-6.3463 3.1722 6.3463 3.1722v-6.3444zm5.0134 6.3444 6.346-3.1722-6.346-3.1722v6.3444z" stroke="#000"/>
		</g>
	</g>
	<g stroke="#000">
		<path d="m30.969 629.75v7.572" stroke-miterlimit="8" stroke-width="1.5865px" fill="none"/>
		<path d="m48.125 629.75v7.572" stroke-miterlimit="8" stroke-width="1.5865px" fill="none"/>
		<path stroke-linejoin="round" d="m56.333 634.47h7.1289v-2.1138h-7.1289v2.1138zm1.0578-4.2305-6.346 3.1722 6.346 3.175v-6.3472zm5.0134 6.3472 6.3463-3.175-6.3463-3.1722v6.3472z" stroke-miterlimit="10" stroke-width=".021154px"/>
		<path d="m51.319 629.6v7.5748" stroke-miterlimit="8" stroke-width="1.5865px" fill="none"/>
		<path d="m68.496 629.6v7.5748" stroke-miterlimit="8" stroke-width="1.5865px" fill="none"/>
	</g>
	<path d="m161.62 640.88v33.508h73.15v-33.508h-73.15z" fill-rule="evenodd" fill="#7f7f7f"/>
	<path d="m161.62 640.88h73.15v33.508h-73.15z" stroke="#000" stroke-miterlimit="8" stroke-width="2.1154px" fill="none"/>
	<g>
		<path d="m165 643.92v27.457h66.275v-27.457h-66.275z" fill-rule="evenodd" fill="#fff"/>
		<g stroke-linejoin="round" stroke-miterlimit="10" stroke-width=".021154px">
			<path d="m185.31 671.38v-6.3472h-2.1153v6.3472h2.1153zm0-8.461v-6.3472h-2.1153v6.3472h2.1153zm0-8.4638v-6.3444h-2.1153v6.3444h2.1153zm0-8.461v-2.0715h-2.1153v2.0715h2.1153z" stroke="#afabab" fill="#afabab"/>
			<path d="m165 656.59h6.346v2.1167h-6.346v-2.1167zm8.4616 0h6.346v2.1167h-6.346v-2.1167zm8.4616 0h6.346v2.1167h-6.346v-2.1167zm8.4616 0h6.346v2.1167h-6.346v-2.1167zm8.4613 0h6.3463v2.1167h-6.3463v-2.1167zm8.4616 0h6.3463v2.1167h-6.3463v-2.1167zm8.4616 0h6.346v2.1167h-6.346v-2.1167zm8.4616 0h6.346v2.1167h-6.346v-2.1167z" stroke="#afabab" fill="#afabab"/>
			<path d="m170.29 634.62h7.1286v-2.1167h-7.1286v2.1167zm1.0575-4.2305-6.346 3.1722 6.346 3.1722v-6.3444zm5.0137 6.3444 6.346-3.1722-6.346-3.1722v6.3444z" stroke="#000"/>
		</g>
	</g>
	<g stroke="#000">
		<path d="m165.27 629.75v7.572" stroke-miterlimit="8" stroke-width="1.5865px" fill="none"/>
		<path d="m182.43 629.75v7.572" stroke-miterlimit="8" stroke-width="1.5865px" fill="none"/>
		<path stroke-linejoin="round" d="m190.64 634.47h35.348v-2.1138h-35.348v2.1138zm1.0578-4.2305-6.3463 3.1722 6.3463 3.175v-6.3472zm33.233 6.3472 6.3463-3.175-6.3463-3.1722v6.3472z" stroke-miterlimit="10" stroke-width=".021154px"/>
		<path d="m186.07 629.6v7.5748" stroke-miterlimit="8" stroke-width="1.5865px" fill="none"/>
		<path d="m230.58 629.6v7.5748" stroke-miterlimit="8" stroke-width="1.5865px" fill="none"/>
		<path stroke-linejoin="round" d="m166.9 685.53h62.573v-2.1138h-62.573v2.1138zm1.0578-4.2305-6.3463 3.175 6.3463 3.1722v-6.3472zm60.458 6.3472 6.346-3.1722-6.346-3.175v6.3472z" stroke-miterlimit="10" stroke-width=".021154px"/>
		<path d="m162.04 680.99v6.937" stroke-miterlimit="8" stroke-width="1.5865px" fill="none"/>
		<path d="m233.98 680.99v6.937" stroke-miterlimit="8" stroke-width="1.5865px" fill="none"/>
		<path stroke-linejoin="round" d="m31.879 685.53h62.573v-2.1138h-62.573v2.1138zm1.0578-4.2305-6.3463 3.175 6.3463 3.1722v-6.3472zm60.458 6.3472 6.346-3.1722-6.346-3.175v6.3472z" stroke-miterlimit="10" stroke-width=".021154px"/>
		<path d="m27.013 680.99v6.937" stroke-miterlimit="8" stroke-width="1.5865px" fill="none"/>
		<path d="m98.979 680.99v6.937" stroke-miterlimit="8" stroke-width="1.5865px" fill="none"/>
	</g>
	<g fill-rule="evenodd">
		<path d="m73.065 651.24h13.708v-6.683l13.348 13.346-13.348 13.349v-6.6858h-13.708z"/>
		<path d="m18.7 708.4v113.55h292.6v-113.55h-292.6z" fill="#fff"/>
		<path d="m25.681 742.79v25.005h38.204v-25.005h-38.204z" fill="#d0cece"/>
		<path d="m31.308 748.34v13.835h27.204v-13.835h-27.204z" fill="#7f7f7f"/>
	</g>
	<path d="m31.308 748.34h27.204v13.835h-27.204z" stroke="#000" stroke-miterlimit="8" stroke-width="2.1154px" fill="none"/>
	<path d="m34.692 750.62v8.8844h20.392v-8.8844h-20.392z" fill-rule="evenodd" fill="#fff"/>
	<path d="m35.919 753.03h17.812" stroke="#000" stroke-miterlimit="8" stroke-width="2.1154px" fill="none"/>
	<path d="m35.919 757.01h14.046" stroke="#000" stroke-miterlimit="8" stroke-width="2.1154px" fill="none"/>
	<g>
		<text style="word-spacing:0px;letter-spacing:0px" font-weight="700" xml:space="preserve" font-size="8.4667px" line-height="125%" y="722.49036" x="25.673161" font-family="Arial" fill="#000000"><tspan x="25.673161" y="722.49036"><tspan font-weight="700" font-size="8.4667px" dx="0" dy="0" font-family="Arial" fill="#000000">STEP 3A.5: Compute the table height</tspan></tspan></text>
		<path d="m78.565 766.95h4.1461v-4.1035h3.8921v4.1035h4.1461v3.8918h-4.1461v4.1487h-3.8921v-4.1487h-4.1461z" fill-rule="evenodd" fill="#7f7f7f"/>
		<path d="m107.97 753.63v33.508h29.404v-33.508h-29.404z" fill-rule="evenodd" fill="#7f7f7f"/>
	</g>
	<path d="m107.97 753.63h29.404v33.508h-29.404z" stroke="#000" stroke-miterlimit="8" stroke-width="2.1154px" fill="none"/>
	<g fill-rule="evenodd">
		<path d="m111.35 756.67v27.457h22.635v-27.457h-22.635z" fill="#fff"/>
		<path d="m168.22 763.32h5.923l5.8386 5.8392-5.8386 5.8815h-5.923l5.881-5.8815z" fill="#7f7f7f"/>
		<path d="m155.35 763.15h11.465l5.923 5.9662-5.923 5.9238h-11.465z" fill="#7f7f7f"/>
		<path d="m25.681 770v24.155h37.865v-24.155h-37.865z" fill="#d0cece"/>
		<path d="m28.473 773.22v17.515h32.027v-17.515h-32.027z" fill="#7f7f7f"/>
	</g>
	<path d="m28.473 773.22h32.027v17.515h-32.027z" stroke="#000" stroke-miterlimit="8" stroke-width="2.1154px" fill="none"/>
	<path d="m31.858 775.46v12.821h25.258v-12.821h-25.258z" fill-rule="evenodd" fill="#fff"/>
	<g stroke="#000" stroke-miterlimit="8" stroke-width="2.1154px" fill="none">
		<path d="m33.085 777.91 9.4347-0.0423"/>
		<path d="m33.085 781.89h14.004"/>
		<path d="m47.892 781.76h7.1922"/>
		<path d="m33.085 785.7h5.1192"/>
	</g>
	<path d="m192.63 730.23v25.047h38.077v-25.047h-38.077z" fill-rule="evenodd" fill="#d0cece"/>
	<path d="m198.13 735.82v13.792h27.162v-13.792h-27.162z" fill-rule="evenodd" fill="#7f7f7f"/>
	<path d="m198.13 735.82h27.162v13.792h-27.162z" stroke="#000" stroke-miterlimit="8" stroke-width="2.1154px" fill="none"/>
	<path d="m201.51 738.1v8.8872h20.392v-8.8872h-20.392z" fill-rule="evenodd" fill="#fff"/>
	<path d="m202.74 740.51h17.812" stroke="#000" stroke-miterlimit="8" stroke-width="2.1154px" fill="none"/>
	<path d="m202.74 744.49h14.004" stroke="#000" stroke-miterlimit="8" stroke-width="2.1154px" fill="none"/>
	<path d="m193.64 756.21v34.521h36.004v-34.521h-36.004z" fill-rule="evenodd" fill="#7f7f7f"/>
	<path d="m193.64 756.21h36.004v34.521h-36.004z" stroke="#000" stroke-miterlimit="8" stroke-width="2.1154px" fill="none"/>
	<g fill-rule="evenodd">
		<path d="m197.2 759.51v27.542h29.065v-27.542h-29.065z" fill="#fff"/>
		<path d="m192.63 791.79v24.158h38.077v-24.158h-38.077z" fill="#d0cece"/>
		<path d="m195.59 795v17.518h32.027v-17.518h-32.027z" fill="#7f7f7f"/>
	</g>
	<path d="m195.59 795h32.027v17.518h-32.027z" stroke="#000" stroke-miterlimit="8" stroke-width="2.1154px" fill="none"/>
	<path d="m198.97 797.25v12.819h25.258v-12.819h-25.258z" fill-rule="evenodd" fill="#fff"/>
	<g stroke="#000" stroke-miterlimit="8" stroke-width="2.1154px" fill="none">
		<path d="m200.2 799.7h9.4347"/>
		<path d="m200.2 803.68h14.004"/>
		<path d="m215.01 803.55h7.1922"/>
		<path d="m200.2 807.53h5.1192"/>
	</g>
	<g stroke-linejoin="round" stroke="#000" stroke-miterlimit="10" stroke-width=".042308px">
		<path d="m67.946 748v14.131h2.1155v-14.131h-2.1155zm4.2308 1.0583-3.173-6.3444-3.173 6.3444h6.346zm-6.346 12.017 3.173 6.3444 3.173-6.3444h-6.346z"/>
		<path d="m70.062 775.67v13.202h-2.1155v-13.202h2.1155zm-4.2308 1.0583 3.173-6.3444 3.173 6.3444h-6.346zm6.346 11.086-3.173 6.3444-3.173-6.3444h6.346z"/>
		<path d="m142.45 758.11-0.0844 24.412 2.1153 0.0423 0.0847-24.455h-2.1155zm4.2308 1.0583-3.173-6.3472-3.173 6.3472h6.346zm-6.3884 22.296 3.1307 6.3895 3.2154-6.3472-6.346-0.0423z"/>
	</g>
	<g stroke="#000" stroke-miterlimit="8" stroke-width="1.5654px" fill="none">
		<path d="m65.661 767.12h6.431"/>
		<path d="m65.661 770.89 6.431 0.0423"/>
		<path d="m65.661 793.35 6.431 0.0423"/>
		<path d="m65.661 743.47h6.431"/>
		<path d="m140.29 753.41h6.4307"/>
		<path d="m140.29 787.05 6.4307 0.0423"/>
	</g>
	<path stroke-linejoin="round" d="m237.39 735.65v14.131h2.1152v-14.131h-2.1152zm4.2305 1.0583-3.173-6.3472-3.173 6.3472h6.346zm-6.346 12.014 3.173 6.3472 3.173-6.3472h-6.346z" stroke="#000" stroke-miterlimit="10" stroke-width=".042308px"/>
	<path stroke-linejoin="round" d="m239.5 797.46v13.2h-2.1152v-13.2h2.1152zm-4.2308 1.0583 3.173-6.3472 3.173 6.3472h-6.346zm6.346 11.083-3.173 6.3472-3.173-6.3472h6.346z" stroke="#000" stroke-miterlimit="10" stroke-width=".042308px"/>
	<g stroke="#000" stroke-miterlimit="8" stroke-width="1.5654px" fill="none">
		<path d="m235.15 754.77h6.3887"/>
		<path d="m235.1 792.68 6.431 0.0423"/>
		<path d="m235.1 815.18h6.431"/>
		<path d="m235.15 731.12h6.3887"/>
	</g>
	<g stroke="#000">
		<path stroke-linejoin="round" d="m237.26 761.66-0.0423 24.412 2.1153 0.0423 0.0423-24.455h-2.1152zm4.2308 1.0583-3.173-6.3444-3.1733 6.3444h6.3463zm-6.3887 22.296 3.1733 6.3472 3.173-6.3048-6.3463-0.0423z" stroke-miterlimit="10" stroke-width=".042308px"/>
		<path d="m235.1 756.93 6.431 0.0423" stroke-miterlimit="8" stroke-width="1.5654px" fill="none"/>
		<path d="m235.1 790.6 6.431 0.0423" stroke-miterlimit="8" stroke-width="1.5654px" fill="none"/>
		<path stroke-linejoin="round" d="m102.3 776.22v3.8918h-2.1155v-3.8918h2.1155zm-4.2308 1.0583 3.173-6.3472 3.173 6.3472h-6.346zm6.346 1.778-3.173 6.3444-3.173-6.3444h6.346z" stroke-miterlimit="10" stroke-width=".042308px"/>
		<path d="m97.9 771.27h6.4307" stroke-miterlimit="8" stroke-width="1.5654px" fill="none"/>
		<path d="m97.9 784.93h6.4307" stroke-miterlimit="8" stroke-width="1.5654px" fill="none"/>
		<path stroke-linejoin="round" d="m102.3 760.99v3.3838h-2.1155v-3.3838h2.1155zm-4.2308 1.0555 3.173-6.3444 3.173 6.3444h-6.346zm6.346 1.27-3.173 6.3472-3.173-6.3472h6.346z" stroke-miterlimit="10" stroke-width=".042308px"/>
		<path d="m97.9 756h6.4307" stroke-miterlimit="8" stroke-width="1.5654px" fill="none"/>
		<path d="m97.9 769.2 6.4307 0.0423" stroke-miterlimit="8" stroke-width="1.5654px" fill="none"/>
	</g>
	<g>
		<path stroke-linejoin="round" d="m111.35 769.37h6.3463v2.1138h-6.3463v-2.1138zm8.4616 0h6.346v2.1138h-6.346v-2.1138zm8.4616 0h5.7116v2.1138h-5.7116v-2.1138z" stroke="#afabab" stroke-miterlimit="10" stroke-width=".042308px" fill="#afabab"/>
		<path d="m18.7 837.44v103.57h292.6v-103.57h-292.6z" fill-rule="evenodd" fill="#fff"/>
		<text style="word-spacing:0px;letter-spacing:0px" font-weight="700" xml:space="preserve" font-size="8.4667px" line-height="125%" y="851.11121" x="25.673161" font-family="&apos;Segoe UI&apos;" fill="#000000"><tspan x="25.673161" y="851.11121"><tspan font-weight="700" font-size="8.4667px" dx="0" dy="0" font-family="&apos;Segoe UI&apos;" fill="#000000">STEP 3A.6: Distribute the table height to rows</tspan></tspan></text>
	</g>
	<g fill="#7f7f7f" fill-rule="evenodd">
		<path d="m115.5 879.66h5.881l5.8807 5.8392-5.8807 5.8815h-5.881l5.8386-5.8815z"/>
		<path d="m102.64 879.49h11.465l5.9233 5.9238-5.9233 5.9662h-11.465z"/>
		<path d="m191.06 863.33v73.192h-33.508v-73.192z"/>
	</g>
	<path d="m191.06 863.33v73.192h-33.508v-73.192z" stroke="#000" stroke-miterlimit="8" stroke-width="2.1154px" fill="none"/>
	<g>
		<path d="m188.02 866.76v66.254h-27.458v-66.254z" fill-rule="evenodd" fill="#fff"/>
		<g stroke-linejoin="round" stroke-miterlimit="10" stroke-width=".042308px">
			<path d="m160.56 887.02h6.346v-2.1167h-6.346v2.1167zm8.4613 0h6.3463v-2.1167h-6.3463v2.1167zm8.4616 0h6.3463v-2.1167h-6.3463v2.1167zm8.4616 0h2.0732v-2.1167h-2.0732v2.1167z" stroke="#afabab" fill="#afabab"/>
			<path d="m175.37 866.76v6.3472h-2.1155v-6.3472h2.1155zm0 8.461v6.3472h-2.1155v-6.3472h2.1155zm0 8.461v6.3472h-2.1155v-6.3472h2.1155zm0 8.461v6.3472h-2.1155v-6.3472h2.1155zm0 8.4638v6.3444h-2.1155v-6.3444h2.1155zm0 8.461v6.3444h-2.1155v-6.3444h2.1155zm0 8.461v6.3472h-2.1155v-6.3472h2.1155zm0 8.461v6.3472h-2.1155v-6.3472h2.1155z" stroke="#afabab" fill="#afabab"/>
			<path d="m197.32 872.05v7.1064h2.1153v-7.1064h-2.1153zm4.2308 1.0583-3.1733-6.3472-3.173 6.3472h6.3463zm-6.3463 4.9897 3.173 6.3472 3.1733-6.3472h-6.3463z" stroke="#000"/>
		</g>
	</g>
	<g stroke="#000">
		<path d="m202.19 867.01h-7.5732" stroke-miterlimit="8" stroke-width="1.5654px" fill="none"/>
		<path d="m202.19 884.19h-7.5732" stroke-miterlimit="8" stroke-width="1.5654px" fill="none"/>
		<path stroke-linejoin="round" d="m197.45 892.4v35.329h2.1155v-35.329h-2.1155zm4.2308 1.0583-3.173-6.3472-3.173 6.3472h6.346zm-6.346 33.212 3.173 6.3472 3.173-6.3472h-6.346z" stroke-miterlimit="10" stroke-width=".042308px"/>
		<path d="m202.36 887.78h-7.5732" stroke-miterlimit="8" stroke-width="1.5654px" fill="none"/>
		<path d="m202.36 932.29h-7.5732" stroke-miterlimit="8" stroke-width="1.5654px" fill="none"/>
		<path stroke-linejoin="round" d="m146.43 868.62v62.617h2.1153v-62.617h-2.1153zm4.2308 1.0583-3.173-6.3444-3.1733 6.3444h6.3463zm-6.3463 60.5 3.1733 6.3472 3.173-6.3472h-6.3463z" stroke-miterlimit="10" stroke-width=".042308px"/>
		<path d="m150.95 863.8h-6.9384" stroke-miterlimit="8" stroke-width="1.5654px" fill="none"/>
		<path d="m150.95 935.72h-6.9384" stroke-miterlimit="8" stroke-width="1.5654px" fill="none"/>
	</g>
	<path d="m72.727 863.16v45.438h-33.508v-45.438z" fill-rule="evenodd" fill="#7f7f7f"/>
	<path d="m72.727 863.16v45.438h-33.508v-45.438z" stroke="#000" stroke-miterlimit="8" stroke-width="2.1154px" fill="none"/>
	<g>
		<path d="m69.681 866.59v38.289h-27.5v-38.289z" fill-rule="evenodd" fill="#fff"/>
		<g stroke-linejoin="round" stroke-miterlimit="10" stroke-width=".042308px">
			<path d="m42.181 886.77h6.346v-2.1167h-6.346v2.1167zm8.4616 0h6.346v-2.1167h-6.346v2.1167zm8.4613 0h6.3463v-2.1167h-6.3463v2.1167zm8.4616 0h2.1155v-2.1167h-2.1155v2.1167z" stroke="#afabab" fill="#afabab"/>
			<path d="m56.988 866.59v6.3472h-2.1153v-6.3472h2.1153zm0 8.461v6.3472h-2.1153v-6.3472h2.1153zm0 8.461v6.3472h-2.1153v-6.3472h2.1153zm0 8.461v6.3472h-2.1153v-6.3472h2.1153zm0 8.4638v4.4422h-2.1153v-4.4422h2.1153z" stroke="#afabab" fill="#afabab"/>
			<path d="m78.946 871.88v7.1064h2.1153v-7.1064h-2.1153zm4.2308 1.0583-3.173-6.3472-3.1733 6.3472h6.3463zm-6.3463 4.9897 3.1733 6.3472 3.173-6.3472h-6.3463z" stroke="#000"/>
		</g>
	</g>
	<g stroke="#000">
		<path d="m83.854 866.84h-7.5729" stroke-miterlimit="8" stroke-width="1.5654px" fill="none"/>
		<path d="m83.854 884.02h-7.5729" stroke-miterlimit="8" stroke-width="1.5654px" fill="none"/>
		<path stroke-linejoin="round" d="m79.115 892.23v7.1092h2.1155v-7.1092h-2.1155zm4.2308 1.0583-3.173-6.3444-3.173 6.3444h6.346zm-6.346 4.9925 3.173 6.3472 3.173-6.3472h-6.346z" stroke-miterlimit="10" stroke-width=".042308px"/>
		<path d="m83.981 887.19h-7.5732" stroke-miterlimit="8" stroke-width="1.5654px" fill="none"/>
		<path d="m83.981 904.37h-7.5732" stroke-miterlimit="8" stroke-width="1.5654px" fill="none"/>
		<path stroke-linejoin="round" d="m28.05 867.77v62.571h2.1155v-62.571h-2.1155zm4.2308 1.0555-3.173-6.3444-3.173 6.3444h6.346zm-6.346 60.458 3.173 6.3472 3.173-6.3472h-6.346z" stroke-miterlimit="10" stroke-width=".042308px"/>
		<path d="m32.619 862.91h-6.9384" stroke-miterlimit="8" stroke-width="1.5654px" fill="none"/>
		<path d="m32.619 934.87h-6.9384" stroke-miterlimit="8" stroke-width="1.5654px" fill="none"/>
	</g>
	<g>
		<path d="m62.361 908.94v13.708h6.6847l-13.369 13.369-13.327-13.369h6.6424v-13.708z" fill-rule="evenodd"/>
		<path d="m18.7 957.63v116.26h292.6v-116.26h-292.6z" fill-rule="evenodd" fill="#fff"/>
		<text style="word-spacing:0px;letter-spacing:0px" font-weight="700" xml:space="preserve" font-size="8.4667px" line-height="125%" y="970.54803" x="25.626413" font-family="&apos;Segoe UI&apos;" fill="#000000"><tspan x="25.626413" y="970.54803"><tspan font-weight="700" font-size="8.4667px" dx="0" dy="0" font-family="&apos;Segoe UI&apos;" fill="#000000">STEP 4: Position cells and captions</tspan></tspan></text>
		<path d="m36.892 980.99v25.005h38.204v-25.005h-38.204z" fill-rule="evenodd" fill="#d0cece"/>
		<path d="m42.519 986.57v13.792h27.162v-13.792h-27.162z" fill-rule="evenodd" fill="#7f7f7f"/>
	</g>
	<path d="m42.519 986.57h27.162v13.792h-27.162z" stroke="#000" stroke-miterlimit="8" stroke-width="2.1154px" fill="none"/>
	<path d="m45.904 988.82v8.9267h20.392v-8.9267h-20.392z" fill-rule="evenodd" fill="#fff"/>
	<path d="m47.131 991.27h17.812" stroke="#000" stroke-miterlimit="8" stroke-width="2.1154px" fill="none"/>
	<path d="m25.638 1007.1v43.406h61.05v-43.406h-61.05z" fill-rule="evenodd" fill="#7f7f7f"/>
	<path d="m25.638 1007.1h61.05v43.406h-61.05z" stroke="#000" stroke-miterlimit="8" stroke-width="2.1154px" fill="none"/>
	<path d="m30.377 1011v35.199h52.081v-35.199h-52.081z" fill-rule="evenodd" fill="#fff"/>
	<path d="m47.088 995.5h17.812" stroke="#000" stroke-miterlimit="8" stroke-width="2.1154px" fill="none"/>
	<path d="m29.065 1051.6v16.459h54.788v-16.459h-54.788z" fill-rule="evenodd" fill="#d0cece"/>
	<path d="m31.858 1054.8v9.858h48.823v-9.858h-48.823z" fill-rule="evenodd" fill="#7f7f7f"/>
	<path d="m31.858 1054.8h48.823v9.858h-48.823z" stroke="#000" stroke-miterlimit="8" stroke-width="2.1154px" fill="none"/>
	<path d="m35.242 1057.1v4.8232h42.096v-4.8232h-42.096z" fill-rule="evenodd" fill="#fff"/>
	<g stroke="#000" stroke-miterlimit="8" stroke-width="2.1154px" fill="none">
		<path d="m36.469 1059.5 9.4347-0.042"/>
		<path d="m47.3 1059.5h14.004"/>
		<path d="m62.108 1059.4h7.1924"/>
		<path d="m70.696 1059.4h5.1192"/>
	</g>
	<path d="m32.196 1012.7v17.176h48.189v-17.176h-48.189z" fill-rule="evenodd" fill="#d0cece"/>
	<path d="m32.196 1012.7h48.189v17.176h-48.189z" stroke="#767171" stroke-miterlimit="8" stroke-width="2.1154px" fill="none"/>
	<path d="m36.639 1016.5v9.7733h39.6v-9.7733h-39.6z" fill-rule="evenodd" fill="#fff"/>
	<g stroke="#000" stroke-miterlimit="8" stroke-width="2.1154px" fill="none">
		<path d="m38.288 1019.1h9.4347"/>
		<path d="m50.346 1019.1h15.231"/>
		<path d="m38.288 1023.1h15.189"/>
	</g>
	<path d="m31.985 1033.4v10.62h31.223v-10.62h-31.223z" fill-rule="evenodd" fill="#d0cece"/>
	<path d="m31.985 1033.4h31.223v10.62h-31.223z" stroke="#767171" stroke-miterlimit="8" stroke-width="2.1154px" fill="none"/>
	<path d="m34.142 1035.8v5.8364h26.654v-5.8364h-26.654z" fill-rule="evenodd" fill="#fff"/>
	<g stroke="#000" stroke-miterlimit="8" stroke-width="2.1154px" fill="none">
		<path d="m35.581 1038.7h6.8538"/>
		<path d="m43.873 1038.7h6.8538"/>
		<path d="m52.165 1038.7h6.854"/>
	</g>
	<path d="m66.465 1033.4v10.662h13.919v-10.662h-13.919z" fill-rule="evenodd" fill="#fff"/>
	<path d="m66.465 1033.4h13.919v10.662h-13.919z" stroke="#767171" stroke-miterlimit="8" stroke-width="2.1154px" fill="none"/>
	<path d="m68.708 1037.6 9.4347-0.042" stroke="#000" stroke-miterlimit="8" stroke-width="2.1154px" fill="none"/>
	<g>
		<path d="m18.7 1188.1v84.997h292.6v-84.997h-292.6z" fill-rule="evenodd" fill="#fff"/>
		<path d="m17.812 1288.6v114.23h292.64v-114.23h-292.64z" fill-rule="evenodd" fill="#fff"/>
		<text style="word-spacing:0px;letter-spacing:0px" font-weight="700" xml:space="preserve" font-size="14.093px" line-height="125%" y="27.88199" x="115.32674" font-family="&apos;Segoe UI&apos;" fill="#000000"><tspan x="115.32674" y="27.88199"><tspan font-weight="700" font-size="14.093px" dx="0" dy="0" font-family="&apos;Segoe UI&apos;" fill="#ffffff">CSS Table Layout</tspan></tspan></text>
		<text style="word-spacing:0px;letter-spacing:0px" font-weight="400" xml:space="preserve" font-size="14.093px" line-height="125%" y="1175.7483" x="61.607773" font-family="&apos;Segoe UI Light&apos;" font-style="italic" fill="#000000"><tspan x="61.607773" y="1175.7483"><tspan font-weight="400" font-size="14.093px" font-style="italic" dx="0" dy="0" font-family="&apos;Segoe UI Light&apos;" fill="#ffffff">Replacement steps for empty tables</tspan></tspan></text>
	</g>
	<g stroke-linejoin="round" stroke="#3b3838" fill="#3b3838">
		<path d="m311.3 76.313h6.3444l-1.0583-1.0578v36.67l1.0583-1.0578h-306.38v65.048h4.2308v-2.1152h-3.1731l1.0577 1.0578v-62.933l-1.0577 1.0575h306.38v-38.786h-7.4027v2.1155zm-296.86 101.72l4.2308-3.173-4.2308-3.1733v6.3463z" stroke-width=".010577px"/>
		<path d="m18.7 1231.7h-6.3462l1.0577-1.0555v50.219l-1.0577-1.0584h305.5v66.974h-4.2305v-2.1167h3.1722l-1.0555 1.0583v-64.857l1.0555 1.0583h-305.5v-52.335h7.4038v2.1138zm295.99 117.19-4.2305-3.1722 4.2305-3.1721v6.3443z" stroke-width=".042308px"/>
		<g stroke-width=".021154px">
			<path d="m311.3 301.78h6.3444l-1.0583-1.0583v62.933l1.0583-1.0555h-306.37v70.335h4.2308v-2.1167h-3.1731l1.0577 1.0583v-68.222l-1.0577 1.0583h306.37v-65.047h-7.4027v2.1138zm-296.85 133.27l4.2308-3.175-4.2308-3.1722v6.3472z"/>
			<path d="m311.3 432.93h6.3444l-1.0583-1.0583v68.919l1.0583-1.0555h-307.26v51.127h4.2308v-2.1138h-3.1731l1.0577 1.0555v-49.014l-1.0577 1.0583h307.26v-71.035h-7.4027v2.1167zm-297.74 120.05l4.2308-3.175-4.2308-3.1722v6.3472z"/>
			<path d="m310.43 550.87h6.3472l-1.0583-1.0583v50.264l1.0583-1.0583h-305.5v52.378h4.2308v-2.1167h-3.1731l1.0577 1.0583v-50.261l-1.0577 1.0555h305.5v-52.375h-7.4055v2.1138zm-295.98 102.64 4.2308-3.1722-4.2308-3.1722v6.3444z"/>
		</g>
		<g stroke-width=".042308px">
			<path d="m311.3 651.41h6.3444l-1.0583-1.0583v50.264l1.0583-1.0583h-306.35v66.675h4.2308v-2.1138h-3.1731l1.0577 1.0583v-64.561l-1.0577 1.0555h306.35v-52.375h-7.4027v2.1138zm-296.83 116.94l4.2308-3.1722-4.2308-3.175v6.3472z"/>
			<path d="m311.3 766.23h6.3444l-1.0583-1.0555v64.519l1.0583-1.0583h-306.35v61.643h4.2308v-2.1167h-3.1731l1.0577 1.0583v-59.526l-1.0577 1.0583h306.35v-66.635h-7.4027v2.1138zm-296.83 126.16 4.2308-3.1722-4.2308-3.1722v6.3444z"/>
			<path d="m311.3 890.28h6.3444l-1.0583-1.0583v60.077l1.0583-1.0583h-306.35v68.583h4.2308v-2.1167h-3.1731l1.0577 1.0584v-66.466l-1.0577 1.0583h306.35v-62.193h-7.4027v2.1167zm-296.83 128.66 4.2308-3.1721-4.2308-3.1722v6.3443z"/>
		</g>
	</g>
	<path d="m28.558 1222.3v25.044h38.204v-25.044h-38.204z" fill-rule="evenodd" fill="#d0cece"/>
	<path d="m34.185 1227.9v13.835h27.204v-13.835h-27.204z" fill-rule="evenodd" fill="#7f7f7f"/>
	<path d="m34.185 1227.9h27.204v13.835h-27.204z" stroke="#000" stroke-miterlimit="8" stroke-width="2.1154px" fill="none"/>
	<path d="m37.569 1230.1v8.8844h20.392v-8.8844h-20.392z" fill-rule="evenodd" fill="#fff"/>
	<path d="m38.796 1232.5h17.812" stroke="#000" stroke-miterlimit="8" stroke-width="2.1154px" fill="none"/>
	<path d="m38.796 1236.5h14.046" stroke="#000" stroke-miterlimit="8" stroke-width="2.1154px" fill="none"/>
	<g>
		<text style="word-spacing:0px;letter-spacing:0px" font-weight="700" xml:space="preserve" font-size="8.4667px" line-height="125%" y="1202.0029" x="28.550779" font-family="Arial" fill="#000000"><tspan x="28.550779" y="1202.0029"><tspan font-weight="700" font-size="8.4667px" dx="0" dy="0" font-family="Arial" fill="#000000">STEP 3B.1: Compute the table width</tspan></tspan></text>
		<path d="m74.631 1232.5h4.1461v-4.1035h3.8924v4.1035h4.1038v3.8919h-4.1038v4.1486h-3.8924v-4.1486h-4.1461z" fill-rule="evenodd" fill="#7f7f7f"/>
		<path d="m97.054 1219.2v33.508h29.446v-33.508h-29.446z" fill-rule="evenodd" fill="#7f7f7f"/>
	</g>
	<path d="m97.054 1219.2h29.446v33.508h-29.446z" stroke="#000" stroke-miterlimit="8" stroke-width="2.1154px" fill="none"/>
	<g fill-rule="evenodd">
		<path d="m100.44 1222.3v27.457h22.634v-27.457h-22.634z" fill="#fff"/>
		<path d="m172.87 1217.7v25.002h38.246v-25.002h-38.246z" fill="#d0cece"/>
		<path d="m178.5 1223.2v13.835h27.204v-13.835h-27.204z" fill="#7f7f7f"/>
	</g>
	<path d="m178.5 1223.2h27.204v13.835h-27.204z" stroke="#000" stroke-miterlimit="8" stroke-width="2.1154px" fill="none"/>
	<path d="m181.88 1225.5v8.8844h20.435v-8.8844h-20.435z" fill-rule="evenodd" fill="#fff"/>
	<path d="m183.11 1227.9h17.812" stroke="#000" stroke-miterlimit="8" stroke-width="2.1154px" fill="none"/>
	<path d="m183.11 1231.9h14.046" stroke="#000" stroke-miterlimit="8" stroke-width="2.1154px" fill="none"/>
	<path d="m173.93 1231.5v21.364h36.004v-21.364h-36.004z" fill-rule="evenodd" fill="#7f7f7f"/>
	<path d="m173.93 1231.5h36.004v21.364h-36.004z" stroke="#000" stroke-miterlimit="8" stroke-width="2.1154px" fill="none"/>
	<g>
		<g fill-rule="evenodd">
			<path d="m177.48 1234.8v14.724h29.023v-14.724h-29.023z" fill="#fff"/>
			<path d="m151.59 1228.9h5.923l5.8386 5.8391-5.8386 5.8816h-5.923l5.8807-5.8816z" fill="#7f7f7f"/>
			<path d="m138.77 1228.7h11.423l5.923 5.9662-5.923 5.9239h-11.423z" fill="#7f7f7f"/>
		</g>
		<path stroke-linejoin="round" d="m178.37 1261 26.95-0.042v-2.1138l-26.95 0.042v2.1139zm1.0578-4.2305-6.346 3.1721 6.346 3.175v-6.3471zm24.835 6.3048 6.346-3.175-6.3884-3.1722 0.0423 6.3472z" stroke="#000" stroke-miterlimit="10" stroke-width=".042308px"/>
	</g>
	<g stroke="#000">
		<path d="m173.59 1256.4v6.9398" stroke-miterlimit="8" stroke-width="1.5654px" fill="none"/>
		<path d="m210.23 1256.4v6.9398" stroke-miterlimit="8" stroke-width="1.5654px" fill="none"/>
		<path stroke-linejoin="round" d="m101.92 1260.9h19.885v-2.1138h-19.885v2.1138zm1.0578-4.2305-6.3461 3.1722 6.3461 3.175v-6.3472zm17.769 6.3472 6.346-3.175-6.346-3.1722v6.3472z" stroke-miterlimit="10" stroke-width=".042308px"/>
		<path d="m97.139 1256.4v6.8975" stroke-miterlimit="8" stroke-width="1.5654px" fill="none"/>
		<path d="m126.63 1256.4v6.8975" stroke-miterlimit="8" stroke-width="1.5654px" fill="none"/>
		<path stroke-linejoin="round" d="m34.565 1261 26.908-0.042v-2.1138l-26.908 0.042v2.1139zm1.0578-4.2305-6.3463 3.1721 6.3463 3.175v-6.3471zm24.792 6.3048 6.346-3.175-6.346-3.1722v6.3472z" stroke-miterlimit="10" stroke-width=".042308px"/>
		<path d="m29.742 1256.4v6.9398" stroke-miterlimit="8" stroke-width="1.5654px" fill="none"/>
		<path d="m66.423 1256.4v6.9398" stroke-miterlimit="8" stroke-width="1.5654px" fill="none"/>
	</g>
	<path d="m25.554 1322.4v25.005h38.246v-25.005h-38.246z" fill-rule="evenodd" fill="#d0cece"/>
	<path d="m31.223 1328v13.835h27.162v-13.835h-27.162z" fill-rule="evenodd" fill="#7f7f7f"/>
	<path d="m31.223 1328h27.162v13.835h-27.162z" stroke="#000" stroke-miterlimit="8" stroke-width="2.1154px" fill="none"/>
	<path d="m34.608 1330.2v8.9267h20.392v-8.9267h-20.392z" fill-rule="evenodd" fill="#fff"/>
	<path d="m35.834 1332.7h17.812" stroke="#000" stroke-miterlimit="8" stroke-width="2.1154px" fill="none"/>
	<path d="m35.834 1336.7h14.004" stroke="#000" stroke-miterlimit="8" stroke-width="2.1154px" fill="none"/>
	<g>
		<text style="word-spacing:0px;letter-spacing:0px" font-weight="700" xml:space="preserve" font-size="8.4667px" line-height="125%" y="1302.1125" x="25.569197" font-family="Arial" fill="#000000"><tspan x="25.569197" y="1302.1125"><tspan font-weight="700" font-size="8.4667px" dx="0" dy="0" font-family="Arial" fill="#000000">STEP 3B.2: Compute the table height</tspan></tspan></text>
		<path d="m78.481 1346.6h4.1461v-4.1458h3.8501v4.1458h4.1461v3.8496h-4.1461v4.1458h-3.8501v-4.1458h-4.1461z" fill-rule="evenodd" fill="#7f7f7f"/>
		<path d="m100.9 1333.2v33.505h29.404v-33.505h-29.404z" fill-rule="evenodd" fill="#7f7f7f"/>
	</g>
	<path d="m100.9 1333.2h29.404v33.505h-29.404z" stroke="#000" stroke-miterlimit="8" stroke-width="2.1154px" fill="none"/>
	<g fill-rule="evenodd">
		<path d="m104.29 1336.3v27.457h22.635v-27.457h-22.635z" fill="#fff"/>
		<path d="m161.19 1342.9h5.881l5.8383 5.8787-5.8383 5.8391h-5.881l5.8386-5.8391z" fill="#7f7f7f"/>
		<path d="m148.33 1342.8h11.423l5.9653 5.921-5.9653 5.9238h-11.423z" fill="#7f7f7f"/>
		<path d="m25.554 1349.6v24.158h37.908v-24.158h-37.908z" fill="#d0cece"/>
		<path d="m28.346 1352.8v17.518h32.069v-17.518h-32.069z" fill="#7f7f7f"/>
	</g>
	<path d="m28.346 1352.8h32.069v17.518h-32.069z" stroke="#000" stroke-miterlimit="8" stroke-width="2.1154px" fill="none"/>
	<path d="m31.731 1355.1v12.818h25.258v-12.818h-25.258z" fill-rule="evenodd" fill="#fff"/>
	<g stroke="#000" stroke-miterlimit="8" stroke-width="2.1154px" fill="none">
		<path d="m32.958 1357.5h9.4344"/>
		<path d="m32.958 1361.5h14.046"/>
		<path d="m47.808 1361.4h7.1922"/>
		<path d="m33 1365.4h5.1192"/>
	</g>
	<path d="m185.56 1309.8v25.044h38.077v-25.044h-38.077z" fill-rule="evenodd" fill="#d0cece"/>
	<path d="m191.06 1315.4v13.835h27.162v-13.835h-27.162z" fill-rule="evenodd" fill="#7f7f7f"/>
	<path d="m191.06 1315.4h27.162v13.835h-27.162z" stroke="#000" stroke-miterlimit="8" stroke-width="2.1154px" fill="none"/>
	<path d="m194.45 1317.7v8.8844h20.392v-8.8844h-20.392z" fill-rule="evenodd" fill="#fff"/>
	<path d="m195.67 1320.1h17.812" stroke="#000" stroke-miterlimit="8" stroke-width="2.1154px" fill="none"/>
	<path d="m195.67 1324.1h14.004" stroke="#000" stroke-miterlimit="8" stroke-width="2.1154px" fill="none"/>
	<path d="m186.58 1335.8v34.524h36.004v-34.524h-36.004z" fill-rule="evenodd" fill="#7f7f7f"/>
	<path d="m186.58 1335.8h36.004v34.524h-36.004z" stroke="#000" stroke-miterlimit="8" stroke-width="2.1154px" fill="none"/>
	<g fill-rule="evenodd">
		<path d="m190.17 1339.2v27.545h29.023v-27.545h-29.023z" fill="#fff"/>
		<path d="m185.56 1371.4v24.116h38.077v-24.116h-38.077z" fill="#d0cece"/>
		<path d="m188.52 1374.6v17.557h32.027v-17.557h-32.027z" fill="#7f7f7f"/>
	</g>
	<path d="m188.52 1374.6h32.027v17.557h-32.027z" stroke="#000" stroke-miterlimit="8" stroke-width="2.1154px" fill="none"/>
	<path d="m191.91 1376.9v12.821h25.258v-12.821h-25.258z" fill-rule="evenodd" fill="#fff"/>
	<g stroke="#000" stroke-miterlimit="8" stroke-width="2.1154px" fill="none">
		<path d="m193.13 1379.3h9.4344"/>
		<path d="m193.13 1383.3h14.004"/>
		<path d="m207.94 1383.2h7.2345"/>
		<path d="m193.13 1387.1h5.1192"/>
	</g>
	<g stroke-linejoin="round" stroke="#000" stroke-miterlimit="10" stroke-width=".042308px">
		<path d="m67.819 1327.6v14.131h2.1153v-14.131h-2.1153zm4.2308 1.0583-3.1733-6.3472-3.173 6.3472h6.3463zm-6.3463 12.014 3.173 6.3472 3.1733-6.3472h-6.3463z"/>
		<path d="m69.935 1355.3v13.2h-2.1153v-13.2h2.1153zm-4.2308 1.0584 3.173-6.3472 3.1733 6.3472h-6.3463zm6.3463 11.083-3.1733 6.3472-3.173-6.3472h6.3463z"/>
		<path d="m135.38 1337.7-0.0423 24.452h2.1153l0.0423-24.452h-2.1152zm4.2308 1.0978-3.1733-6.3867-3.173 6.3472 6.3463 0.039zm-6.3887 22.298 3.173 6.3444 3.1733-6.3444h-6.3463z"/>
	</g>
	<g stroke="#000" stroke-miterlimit="8" stroke-width="1.5654px" fill="none">
		<path d="m65.577 1346.7h6.4307"/>
		<path d="m65.577 1350.5 6.4307 0.042"/>
		<path d="m65.577 1373h6.4307"/>
		<path d="m65.577 1323.1h6.4307"/>
		<path d="m133.23 1333h6.4307"/>
		<path d="m133.23 1366.7h6.4307"/>
	</g>
	<path stroke-linejoin="round" d="m230.32 1315.3v14.131h2.1153v-14.131h-2.1153zm4.2308 1.0555-3.1733-6.3443-3.173 6.3443h6.3463zm-6.3463 12.017 3.173 6.3444 3.1733-6.3444h-6.3463z" stroke="#000" stroke-miterlimit="10" stroke-width=".042308px"/>
	<path stroke-linejoin="round" d="m232.44 1377.1v13.2h-2.1153v-13.2h2.1153zm-4.2308 1.0583 3.173-6.3472 3.1733 6.3472h-6.3463zm6.3463 11.086-3.1733 6.3444-3.173-6.3444h6.3463z" stroke="#000" stroke-miterlimit="10" stroke-width=".042308px"/>
	<g stroke="#000" stroke-miterlimit="8" stroke-width="1.5654px" fill="none">
		<path d="m228.08 1334.4h6.4307"/>
		<path d="m228.08 1372.3 6.4307 0.042"/>
		<path d="m228.08 1394.8h6.4307"/>
		<path d="m228.08 1310.7h6.4307"/>
	</g>
	<g stroke="#000">
		<path stroke-linejoin="round" d="m230.2 1341.3-0.0423 24.454h2.1155l0.0421-24.454h-2.1153zm4.2308 1.0583-3.1307-6.3472-3.2154 6.3472h6.346zm-6.3884 22.296 3.173 6.3895 3.173-6.3472-6.346-0.042z" stroke-miterlimit="10" stroke-width=".042308px"/>
		<path d="m228.08 1336.6h6.4307" stroke-miterlimit="8" stroke-width="1.5654px" fill="none"/>
		<path d="m228.08 1370.3h6.4307" stroke-miterlimit="8" stroke-width="1.5654px" fill="none"/>
	</g>
	<g>
		<g stroke-linejoin="round" stroke-miterlimit="10">
			<path d="m311.3 175.92h6.3444l-1.0583-1.0575v62.932l1.0583-1.0575h-306.38v65.047h4.2308v-2.1138h-3.1731l1.0577 1.0555v-62.932l-1.0577 1.0578h306.38v-65.048h-7.4027v2.1152zm-296.86 127.98 4.2308-3.175-4.2308-3.1722v6.3472z" stroke="#3b3838" stroke-width=".010577px" fill="#3b3838"/>
			<path d="m1112.3 615.83h50.07v3748.5h-37.48v-7.49h33.73l-3.75 3.75v-3741l3.75 3.747h-46.32v-7.495zm16.34 3756-14.99-11.24 14.99-11.25v22.49z" clip-path="url(#a)" transform="matrix(.28222 0 0 .28222 -2.6231 0)" stroke="#afabab" stroke-width=".14991px" fill="#afabab"/>
			<path d="m72.406 4764.6h-42.424l3.7478 3.75v-1169.1l-3.7478 3.75h34.329v-7.5h-38.077v1176.6h46.172v-7.5zm-11.843-1154.2 14.991-11.24-14.991-11.24v22.48z" clip-path="url(#a)" transform="matrix(.28222 0 0 .28222 -2.6231 0)" stroke="#afabab" stroke-width=".14991px" fill="#afabab"/>
		</g>
		<text style="word-spacing:0px;letter-spacing:0px" font-weight="400" xml:space="preserve" font-size="14.093px" line-height="125%" y="1063.9933" x="189.07487" font-family="&apos;Segoe UI Light&apos;" font-style="italic" fill="#000000"><tspan x="189.07487" y="1063.9933"><tspan font-weight="400" font-size="14.093px" font-style="italic" dx="0" dy="0" font-family="&apos;Segoe UI Light&apos;" fill="#70ad47">Ready for render</tspan></tspan></text>
		<text style="word-spacing:0px;letter-spacing:0px" font-weight="400" xml:space="preserve" font-size="14.093px" line-height="125%" y="1063.9933" x="289.34412" font-family="&apos;Times New Roman&apos;" fill="#000000"><tspan x="289.34412" y="1063.9933"><tspan font-weight="400" font-size="14.093px" dx="0" dy="0" font-family="&apos;Times New Roman&apos;" fill="#70ad47"></tspan></tspan></text>
		<path stroke-linejoin="round" d="m169.7 991.86h-37.992v36.638l1.0575-1.0583h-32.323v2.1167h33.381v-36.638l-1.0578 1.0583h36.935v-2.1167zm-68.2 33.466-4.2308 3.1722 4.2308 3.1722v-6.3444z" stroke="#afabab" stroke-width=".042308px" fill="#afabab"/>
		<text style="word-spacing:0px;letter-spacing:0px" font-weight="400" xml:space="preserve" font-size="8.4667px" line-height="125%" y="996.01324" x="172.02232" font-family="&apos;Segoe UI&apos;" font-style="italic" fill="#000000"><tspan x="172.02232" y="996.01324"><tspan font-weight="400" font-size="8.4667px" font-style="italic" dx="0" dy="0" font-family="&apos;Segoe UI&apos;" fill="#a6a6a6">Visibility: collapse</tspan></tspan></text>
		<text style="word-spacing:0px;letter-spacing:0px" font-weight="400" xml:space="preserve" font-size="8.4667px" line-height="125%" y="1013.0029" x="172.0723" font-family="&apos;Segoe UI&apos;" font-style="italic" fill="#000000"><tspan x="172.0723" y="1013.0029"><tspan font-weight="400" font-size="8.4667px" font-style="italic" dx="0" dy="0" font-family="&apos;Segoe UI&apos;" fill="#a6a6a6">Margins</tspan></tspan></text>
		<path stroke-linejoin="round" d="m169.74 1008.8h-19.588v36.218l1.0578-1.0583h-40.065v2.1138h41.123v-36.215l-1.0575 1.0584h18.531v-2.1167zm-57.539 33.043-4.2305 3.175 4.2305 3.1722v-6.3472z" stroke="#afabab" stroke-width=".042308px" fill="#afabab"/>
	</g>
	<g filter="url(#b)">
		<path d="m183.3 316.94v25.64h14.416v-25.64h-14.416z" fill-rule="evenodd" fill="#d0cece"/>
		<path d="m183.3 316.95h14.427v25.637h-14.427z" stroke="#767171" stroke-miterlimit="8" stroke-width="2.1154px" fill="none"/>
	</g>
</svg>
