<?xml version="1.0" encoding="UTF-8" standalone="no"?>
<svg
   xmlns:dc="http://purl.org/dc/elements/1.1/"
   xmlns:cc="http://creativecommons.org/ns#"
   xmlns:rdf="http://www.w3.org/1999/02/22-rdf-syntax-ns#"
   xmlns:svg="http://www.w3.org/2000/svg"
   xmlns="http://www.w3.org/2000/svg"
   xmlns:sodipodi="http://sodipodi.sourceforge.net/DTD/sodipodi-0.dtd"
   xmlns:inkscape="http://www.inkscape.org/namespaces/inkscape"
   version="1.0"
   width="303.06213mm"
   height="141.07674mm"
   id="svg5028"
   inkscape:version="0.91 r13725"
   viewBox="0 0 303.06214 141.07674"
   sodipodi:docname="css-tables-abspos.svg">
  <title
     id="title5109">Schema of absolute positioning relative to a table</title>
  <metadata
     id="metadata5107">
    <rdf:RDF>
      <cc:Work
         rdf:about="">
        <dc:format>image/svg+xml</dc:format>
        <dc:type
           rdf:resource="http://purl.org/dc/dcmitype/StillImage" />
        <dc:title>Schema of absolute positioning relative to a table</dc:title>
      </cc:Work>
    </rdf:RDF>
  </metadata>
  <sodipodi:namedview
     pagecolor="#ffffff"
     bordercolor="#666666"
     borderopacity="1"
     objecttolerance="10"
     gridtolerance="10"
     guidetolerance="10"
     inkscape:pageopacity="0"
     inkscape:pageshadow="2"
     inkscape:window-width="1707"
     inkscape:window-height="906"
     id="namedview5105"
     inkscape:document-units="mm"
     showgrid="false"
     inkscape:zoom="0.73158908"
     inkscape:cx="755.25458"
     inkscape:cy="96.78024"
     inkscape:window-x="-8"
     inkscape:window-y="23"
     inkscape:window-maximized="1"
     inkscape:current-layer="svg5028"
     fit-margin-top="10"
     fit-margin-left="10"
     fit-margin-right="10"
     fit-margin-bottom="10" />
  <defs
     id="defs5030">
    <pattern
       id="EMFhbasepattern"
       patternUnits="userSpaceOnUse"
       width="6"
       height="6"
       x="0"
       y="0" />
  </defs>
  <path
     style="fill:#ffd966;fill-opacity:1;fill-rule:evenodd;stroke:none"
     d="m 28.374747,24.32129 0,90.586 92.844333,0 0,-90.586 -92.844333,0 z"
     id="path5035"
     inkscape:connector-curvature="0" />
  <path
     style="fill:#70ad47;fill-opacity:1;fill-rule:evenodd;stroke:none"
     d="m 46.746849,31.915608 0,13.501229 56.100141,0 0,-13.501229 -56.100141,0 z"
     id="path5037"
     inkscape:connector-curvature="0" />
  <path
     style="fill:#4472c4;fill-opacity:1;fill-rule:evenodd;stroke:none"
     d="m 28.374747,52.603908 0,41.615077 92.844333,0 0,-41.615077 -92.844333,0 z"
     id="path5039"
     inkscape:connector-curvature="0" />
  <path
     style="fill:#5b9bd5;fill-opacity:1;fill-rule:evenodd;stroke:none"
     d="m 32.60554,56.834702 0,33.036933 84.44089,0 0,-33.036933 -84.44089,0 z"
     id="path5041"
     inkscape:connector-curvature="0" />
  <path
     style="fill:#70ad47;fill-opacity:1;fill-rule:evenodd;stroke:none"
     d="m 46.746849,97.809695 0,13.501515 56.100141,0 0,-13.501515 -56.100141,0 z"
     id="path5043"
     inkscape:connector-curvature="0" />
  <path
     style="fill:#70ad47;fill-opacity:1;fill-rule:nonzero;stroke:#70ad47;stroke-width:0.00528846px;stroke-linecap:butt;stroke-linejoin:round;stroke-miterlimit:4;stroke-dasharray:none;stroke-opacity:1"
     d="m 102.84699,37.870215 14.40574,0 0,1.586653 -14.40574,0 0,-1.586653 z m 13.61242,-1.586371 4.75967,2.379698 -4.75967,2.379697 0,-4.759395 z"
     id="path5045"
     inkscape:connector-curvature="0" />
  <path
     style="fill:#70ad47;fill-opacity:1;fill-rule:nonzero;stroke:#70ad47;stroke-width:0.00264423px;stroke-linecap:butt;stroke-linejoin:round;stroke-miterlimit:4;stroke-dasharray:none;stroke-opacity:1"
     d="m 46.731044,39.456868 -14.405751,-0.248638 0.02653,-1.586371 14.405751,0.251178 -0.02653,1.583831 z m -13.641493,1.35128 -4.717344,-2.461824 4.801729,-2.297854 -0.08439,4.759678 z"
     id="path5047"
     inkscape:connector-curvature="0" />
  <path
     style="fill:#70ad47;fill-opacity:1;fill-rule:nonzero;stroke:#70ad47;stroke-width:0.00528846px;stroke-linecap:butt;stroke-linejoin:round;stroke-miterlimit:4;stroke-dasharray:none;stroke-opacity:1"
     d="m 75.590242,31.915608 0,-3.627966 -1.586653,0 0,3.627966 1.586653,0 z m 1.586371,-2.83464 -2.379697,-4.759678 -2.37998,4.759678 4.759677,0 z"
     id="path5049"
     inkscape:connector-curvature="0" />
  <path
     style="fill:#70ad47;fill-opacity:1;fill-rule:nonzero;stroke:#70ad47;stroke-width:0.00528846px;stroke-linecap:butt;stroke-linejoin:round;stroke-miterlimit:4;stroke-dasharray:none;stroke-opacity:1"
     d="m 75.590242,45.416837 0,3.22072 -1.586653,0 0,-3.22072 1.586653,0 z m 1.586371,2.427393 -2.379697,4.759678 -2.37998,-4.759678 4.759677,0 z"
     id="path5051"
     inkscape:connector-curvature="0" />
  <path
     style="fill:#70ad47;fill-opacity:1;fill-rule:nonzero;stroke:#70ad47;stroke-width:0.00528846px;stroke-linecap:butt;stroke-linejoin:round;stroke-miterlimit:4;stroke-dasharray:none;stroke-opacity:1"
     d="m 102.84699,103.76995 14.40574,0 0,1.58638 -14.40574,0 0,-1.58638 z m 13.61242,-1.58665 4.75967,2.3797 -4.75967,2.37998 0,-4.75968 z"
     id="path5053"
     inkscape:connector-curvature="0" />
  <path
     style="fill:#70ad47;fill-opacity:1;fill-rule:nonzero;stroke:#70ad47;stroke-width:0.00528846px;stroke-linecap:butt;stroke-linejoin:round;stroke-miterlimit:4;stroke-dasharray:none;stroke-opacity:1"
     d="m 46.746849,103.76995 -14.405751,0 0,1.58638 14.405751,0 0,-1.58638 z m -13.612425,-1.58665 -4.759677,2.3797 4.759677,2.37998 0,-4.75968 z"
     id="path5055"
     inkscape:connector-curvature="0" />
  <path
     style="fill:#70ad47;fill-opacity:1;fill-rule:nonzero;stroke:#70ad47;stroke-width:0.00528846px;stroke-linecap:butt;stroke-linejoin:round;stroke-miterlimit:4;stroke-dasharray:none;stroke-opacity:1"
     d="m 77.176613,98.978385 -2.379697,-4.7594 -2.37998,4.7594 z"
     id="path5057"
     inkscape:connector-curvature="0" />
  <path
     style="fill:#70ad47;fill-opacity:1;fill-rule:nonzero;stroke:#70ad47;stroke-width:0.00528846px;stroke-linecap:butt;stroke-linejoin:round;stroke-miterlimit:4;stroke-dasharray:none;stroke-opacity:1"
     d="m 77.176613,110.14761 -2.379697,4.75968 -2.37998,-4.75968 z"
     id="path5059"
     inkscape:connector-curvature="0" />
  <path
     style="fill:#ffd966;fill-opacity:1;fill-rule:nonzero;stroke:#ffd966;stroke-width:0.00528846px;stroke-linecap:butt;stroke-linejoin:round;stroke-miterlimit:4;stroke-dasharray:none;stroke-opacity:1"
     d="m 75.590242,24.32129 0,-10.174958 -1.586653,0 0,10.174958 1.586653,0 z m 1.586371,-9.381632 -2.379697,-4.759677 -2.37998,4.759677 4.759677,0 z"
     id="path5061"
     inkscape:connector-curvature="0" />
  <path
     style="fill:#ffd966;fill-opacity:1;fill-rule:nonzero;stroke:#ffd966;stroke-width:0.00528846px;stroke-linecap:butt;stroke-linejoin:round;stroke-miterlimit:4;stroke-dasharray:none;stroke-opacity:1"
     d="m 121.21908,72.615439 14.40576,0 0,1.586654 -14.40576,0 0,-1.586654 z m 13.61243,-1.586371 4.75968,2.379698 -4.75968,2.379698 0,-4.759396 z"
     id="path5063"
     inkscape:connector-curvature="0" />
  <path
     style="fill:#ffd966;fill-opacity:1;fill-rule:nonzero;stroke:#ffd966;stroke-width:0.00528846px;stroke-linecap:butt;stroke-linejoin:round;stroke-miterlimit:4;stroke-dasharray:none;stroke-opacity:1"
     d="m 28.358942,74.202093 -14.405751,-0.248638 0.02625,-1.586653 14.406033,0.248637 -0.02653,1.586654 z m -13.638953,1.35382 -4.717345,-2.464365 4.802012,-2.295313 -0.08467,4.759678 z"
     id="path5065"
     inkscape:connector-curvature="0" />
  <path
     style="fill:#ffd966;fill-opacity:1;fill-rule:nonzero;stroke:#ffd966;stroke-width:0.00528846px;stroke-linecap:butt;stroke-linejoin:round;stroke-miterlimit:4;stroke-dasharray:none;stroke-opacity:1"
     d="m 75.590242,114.90729 0,12.20047 -1.586653,0 0,-12.20047 1.586653,0 z m 1.586371,11.40714 -2.379697,4.75968 -2.37998,-4.75968 4.759677,0 z"
     id="path5067"
     inkscape:connector-curvature="0" />
  <path
     style="fill:#000000;fill-opacity:0.49803922;fill-rule:evenodd;stroke:none"
     d="m 37.560798,34.755328 0,74.064992 72.356712,0 0,-74.064992 -72.356712,0 z"
     id="path5069"
     inkscape:connector-curvature="0" />
  <path
     style="fill:#000000;fill-opacity:0.49803922;fill-rule:nonzero;stroke:#000000;stroke-width:0.00264423px;stroke-linecap:butt;stroke-linejoin:round;stroke-miterlimit:4;stroke-dasharray:none;stroke-opacity:1"
     d="m 37.544993,36.11197 -5.2197,-0.09003 0.02653,-1.586372 5.2197,0.08975 -0.02653,1.586653 z m -4.455442,1.509889 -4.717344,-2.461824 4.801729,-2.297853 -0.08439,4.759677 z"
     id="path5071"
     inkscape:connector-curvature="0" />
  <path
     style="fill:#000000;fill-opacity:0.49803922;fill-rule:nonzero;stroke:#000000;stroke-width:0.00264423px;stroke-linecap:butt;stroke-linejoin:round;stroke-miterlimit:4;stroke-dasharray:none;stroke-opacity:1"
     d="m 38.872284,34.752788 0,-6.536549 -1.586371,0 0,6.536549 1.586371,0 z m 1.586654,-5.743222 -2.37998,-4.759678 -2.379698,4.759678 4.759678,0 z"
     id="path5073"
     inkscape:connector-curvature="0" />
  <path
     style="fill:#000000;fill-opacity:0.49803922;fill-rule:nonzero;stroke:#000000;stroke-width:0.00528846px;stroke-linecap:butt;stroke-linejoin:round;stroke-miterlimit:4;stroke-dasharray:none;stroke-opacity:1"
     d="m 109.74309,106.98531 7.50964,0 0,1.58637 -7.50964,0 0,-1.58637 z m 6.71632,-1.58665 4.75967,2.3797 -4.75967,2.37998 0,-4.75968 z"
     id="path5075"
     inkscape:connector-curvature="0" />
  <path
     style="fill:#000000;fill-opacity:0.49803922;fill-rule:nonzero;stroke:#000000;stroke-width:0.00528846px;stroke-linecap:butt;stroke-linejoin:round;stroke-miterlimit:4;stroke-dasharray:none;stroke-opacity:1"
     d="m 110.0445,108.64591 0,2.12062 -1.58665,0 0,-2.12062 1.58665,0 z m 1.58665,1.32729 -2.37997,4.75968 -2.3797,-4.75968 4.75967,0 z"
     id="path5077"
     inkscape:connector-curvature="0" />
  <path
     style="fill:#ffd966;fill-opacity:1;fill-rule:evenodd;stroke:none"
     d="m 181.8407,24.146877 0,90.591083 92.84349,0 0,-90.591083 -92.84349,0 z"
     id="path5079"
     inkscape:connector-curvature="0" />
  <path
     style="fill:#70ad47;fill-opacity:1;fill-rule:evenodd;stroke:none"
     d="m 181.8407,24.083377 0,28.494002 92.84349,0 0,-28.494002 -92.84349,0 z"
     id="path5081"
     inkscape:connector-curvature="0" />
  <path
     style="fill:#4472c4;fill-opacity:1;fill-rule:evenodd;stroke:none"
     d="m 181.8407,52.429495 0,62.128685 61.63169,0 0,-62.128685 -61.63169,0 z"
     id="path5083"
     inkscape:connector-curvature="0" />
  <path
     style="fill:#5b9bd5;fill-opacity:1;fill-rule:evenodd;stroke:none"
     d="m 186.07149,56.660288 0,53.540382 52.51422,0 0,-53.540382 -52.51422,0 z"
     id="path5085"
     inkscape:connector-curvature="0" />
  <path
     style="fill:#ffd966;fill-opacity:1;fill-rule:nonzero;stroke:#ffd966;stroke-width:0.01057692px;stroke-linecap:butt;stroke-linejoin:round;stroke-miterlimit:4;stroke-dasharray:none;stroke-opacity:1"
     d="m 229.05591,24.146877 0,-10.175241 -1.58637,0 0,10.175241 1.58637,0 z m 1.58666,-9.381914 -2.3797,-4.759678 -2.37998,4.759678 4.75968,0 z"
     id="path5087"
     inkscape:connector-curvature="0" />
  <path
     style="fill:#ffd966;fill-opacity:1;fill-rule:nonzero;stroke:#ffd966;stroke-width:0.01057692px;stroke-linecap:butt;stroke-linejoin:round;stroke-miterlimit:4;stroke-dasharray:none;stroke-opacity:1"
     d="m 274.70677,72.123526 14.40462,0.254 -0.031,1.586653 -14.40745,-0.254 0.0339,-1.586653 z m 13.63415,-1.343096 4.71594,2.453923 -4.8006,2.305755 0.0847,-4.759678 z"
     id="path5089"
     inkscape:connector-curvature="0" />
  <path
     style="fill:#ffd966;fill-opacity:1;fill-rule:nonzero;stroke:#ffd966;stroke-width:0.01057692px;stroke-linecap:butt;stroke-linejoin:round;stroke-miterlimit:4;stroke-dasharray:none;stroke-opacity:1"
     d="m 181.8407,72.123526 -14.40575,0 0,1.586653 14.40575,0 0,-1.586653 z m -13.61271,-1.586371 -4.75939,2.379698 4.75939,2.37998 0,-4.759678 z"
     id="path5091"
     inkscape:connector-curvature="0" />
  <path
     style="fill:#ffd966;fill-opacity:1;fill-rule:nonzero;stroke:#ffd966;stroke-width:0.01057692px;stroke-linecap:butt;stroke-linejoin:round;stroke-miterlimit:4;stroke-dasharray:none;stroke-opacity:1"
     d="m 229.05591,114.73796 0,12.20583 -1.58637,0 0,-12.20583 1.58637,0 z m 1.58666,11.4125 -2.3797,4.75968 -2.37998,-4.75968 4.75968,0 z"
     id="path5093"
     inkscape:connector-curvature="0" />
  <path
     style="fill:#000000;fill-opacity:0.49803922;fill-rule:nonzero;stroke:#000000;stroke-width:0.01057692px;stroke-linecap:butt;stroke-linejoin:round;stroke-miterlimit:4;stroke-dasharray:none;stroke-opacity:1"
     d="m 191.01095,35.940097 -5.21462,-0.08467 0.0212,-1.586653 5.22507,0.08467 -0.0316,1.586653 z m -4.45291,1.512429 -4.71734,-2.464364 4.80173,-2.295314 -0.0844,4.759678 z"
     id="path5095"
     inkscape:connector-curvature="0" />
  <path
     style="fill:#000000;fill-opacity:0.49803922;fill-rule:nonzero;stroke:#000000;stroke-width:0.01057692px;stroke-linecap:butt;stroke-linejoin:round;stroke-miterlimit:4;stroke-dasharray:none;stroke-opacity:1"
     d="m 192.3436,34.586277 0,-6.536549 -1.58665,0 0,6.536549 1.58665,0 z m 1.58637,-5.743504 -2.3797,-4.759396 -2.37969,4.759396 4.75939,0 z"
     id="path5097"
     inkscape:connector-curvature="0" />
  <path
     style="fill:#000000;fill-opacity:0.49803922;fill-rule:nonzero;stroke:#000000;stroke-width:0.01057692px;stroke-linecap:butt;stroke-linejoin:round;stroke-miterlimit:4;stroke-dasharray:none;stroke-opacity:1"
     d="m 263.20904,106.81598 7.50993,0 0,1.58665 -7.50993,0 0,-1.58665 z m 6.71688,-1.58665 4.75827,2.37998 -4.75827,2.37969 0,-4.75967 z"
     id="path5099"
     inkscape:connector-curvature="0" />
  <path
     style="fill:#000000;fill-opacity:0.49803922;fill-rule:nonzero;stroke:#000000;stroke-width:0.01057692px;stroke-linecap:butt;stroke-linejoin:round;stroke-miterlimit:4;stroke-dasharray:none;stroke-opacity:1"
     d="m 263.51666,108.47657 0,2.11526 -1.58891,0 0,-2.11526 1.58891,0 z m 1.58609,1.32222 -2.37914,4.75939 -2.38195,-4.75939 4.76109,0 z"
     id="path5101"
     inkscape:connector-curvature="0" />
  <path
     style="fill:#000000;fill-opacity:0.49803922;fill-rule:evenodd;stroke:none"
     d="m 191.03211,34.586277 0,74.059633 72.35755,0 0,-74.059633 -72.35755,0 z"
     id="path5103"
     inkscape:connector-curvature="0" />
</svg>
