<?xml version="1.0" encoding="UTF-8" standalone="no"?>
<svg id="svg4302" xmlns:rdf="http://www.w3.org/1999/02/22-rdf-syntax-ns#" xmlns="http://www.w3.org/2000/svg" height="143.99mm" viewBox="0 0 260.85999 143.99001" width="260.86mm" version="1.0" xmlns:cc="http://creativecommons.org/ns#" xmlns:dc="http://purl.org/dc/elements/1.1/">
 <defs id="defs4304">
  <clipPath id="clipEmfPath1" clipPathUnits="userSpaceOnUse">
   <path id="path4307" d="m15.141 17.09h923.44v510.74h-923.44z"/>
  </clipPath>
 </defs>
 <g fill-rule="evenodd">
  <path id="path4310" d="m96.001 1.02v95.869h75.942v-95.869h-75.942z" fill="#ffc000"/>
  <path id="path4312" d="m184.76 79.162v65.662h75.985v-65.662h-75.985z" fill="#ffc000"/>
  <path id="path4314" d="m100.02 4.4893v88h67.946v-88h-67.946z" fill="#fff"/>
 </g>
 <path id="path4316" d="m368.4 29.907h240.75v311.81h-240.75z" clip-path="url(#clipEmfPath1)" transform="matrix(.28222 0 0 .28222 -3.9511 -3.9511)" stroke="#000" stroke-miterlimit="8" stroke-width="7.4955px" fill="none"/>
 <path id="path4318" d="m104.25 8.72v11.465h27.204v-11.465h-27.204z" fill-rule="evenodd" fill="#fff"/>
 <path id="path4320" d="m383.39 44.898h96.391v40.625h-96.391z" clip-path="url(#clipEmfPath1)" transform="matrix(.28222 0 0 .28222 -3.9511 -3.9511)" stroke="#000" stroke-miterlimit="8" stroke-width="7.4955px" fill="none"/>
 <path id="path4322" d="m104.25 24.416v11.508h27.204v-11.508h-27.204z" fill-rule="evenodd" fill="#fff"/>
 <path id="path4324" d="m104.25 24.416h27.204v11.508h-27.204z" stroke="#000" stroke-miterlimit="8" stroke-width="2.1154px" fill="none"/>
 <path id="path4326" d="m104.25 40.155v11.466h27.204v-11.466h-27.204z" fill-rule="evenodd" fill="#fff"/>
 <path id="path4328" d="m104.25 40.155h27.204v11.466h-27.204z" stroke="#000" stroke-miterlimit="8" stroke-width="2.1154px" fill="none"/>
 <path id="path4330" d="m104.25 55.851v11.465h27.204v-11.465h-27.204z" fill-rule="evenodd" fill="#fff"/>
 <path id="path4332" d="m104.25 55.851h27.204v11.465h-27.204z" stroke="#000" stroke-miterlimit="8" stroke-width="2.1154px" fill="none"/>
 <path id="path4334" d="m136.11 8.72v11.465h27.204v-11.465h-27.204z" fill-rule="evenodd" fill="#fff"/>
 <path id="path4336" d="m496.27 44.898h96.392v40.625h-96.392z" clip-path="url(#clipEmfPath1)" transform="matrix(.28222 0 0 .28222 -3.9511 -3.9511)" stroke="#000" stroke-miterlimit="8" stroke-width="7.4955px" fill="none"/>
 <path id="path4338" d="m136.11 24.416v11.508h27.204v-11.508h-27.204z" fill-rule="evenodd" fill="#fff"/>
 <path id="path4340" d="m136.11 24.416h27.204v11.508h-27.204z" stroke="#000" stroke-miterlimit="8" stroke-width="2.1154px" fill="none"/>
 <path id="path4342" d="m136.11 40.155v11.466h27.204v-11.466h-27.204z" fill-rule="evenodd" fill="#fff"/>
 <path id="path4344" d="m136.11 40.155h27.204v11.466h-27.204z" stroke="#000" stroke-miterlimit="8" stroke-width="2.1154px" fill="none"/>
 <path id="path4346" d="m136.11 55.851v11.465h27.204v-11.465h-27.204z" fill-rule="evenodd" fill="#fff"/>
 <path id="path4348" d="m136.11 55.851h27.204v11.465h-27.204z" stroke="#000" stroke-miterlimit="8" stroke-width="2.1154px" fill="none"/>
 <path id="path4350" d="m188.44 83.012v52.123h67.946v-52.123h-67.946z" fill-rule="evenodd" fill="#fff"/>
 <path id="path4352" d="m681.71 308.14h240.75v184.69h-240.75z" clip-path="url(#clipEmfPath1)" transform="matrix(.28222 0 0 .28222 -3.9511 -3.9511)" stroke="#000" stroke-miterlimit="8" stroke-width="7.4955px" fill="none"/>
 <path id="path4354" d="m192.67 88.089v11.466h27.204v-11.466h-27.204z" fill-rule="evenodd" fill="#fff"/>
 <path id="path4356" d="m192.67 88.089h27.204v11.466h-27.204z" stroke="#000" stroke-miterlimit="8" stroke-width="2.1154px" fill="none"/>
 <path id="path4358" d="m192.67 103.79v11.465h27.204v-11.465h-27.204z" fill-rule="evenodd" fill="#fff"/>
 <path id="path4360" d="m192.67 103.79h27.204v11.465h-27.204z" stroke="#000" stroke-miterlimit="8" stroke-width="2.1154px" fill="none"/>
 <path id="path4362" d="m192.67 119.48v11.465h27.204v-11.465h-27.204z" fill-rule="evenodd" fill="#fff"/>
 <path id="path4364" d="m192.67 119.48h27.204v11.465h-27.204z" stroke="#000" stroke-miterlimit="8" stroke-width="2.1154px" fill="none"/>
 <path id="path4366" d="m224.53 88.089v11.466h27.204v-11.466h-27.204z" fill-rule="evenodd" fill="#fff"/>
 <path id="path4368" d="m224.53 88.089h27.204v11.466h-27.204z" stroke="#000" stroke-miterlimit="8" stroke-width="2.1154px" fill="none"/>
 <path id="path4370" d="m224.53 103.79v11.465h27.204v-11.465h-27.204z" fill-rule="evenodd" fill="#fff"/>
 <path id="path4372" d="m224.53 103.79h27.204v11.465h-27.204z" stroke="#000" stroke-miterlimit="8" stroke-width="2.1154px" fill="none"/>
 <path id="path4374" d="m224.53 119.48v11.465h27.204v-11.465h-27.204z" fill-rule="evenodd" fill="#fff"/>
 <path id="path4376" d="m224.53 119.48h27.204v11.465h-27.204z" stroke="#000" stroke-miterlimit="8" stroke-width="2.1154px" fill="none"/>
 <g>
  <path id="path4378" stroke-linejoin="round" d="m134.8 96.879v6.3461l-0.80376-0.80376h44.402l-0.80377 0.80376v-31.212h45.999v3.1307h-1.6078v-2.3269l0.80406 0.80377h-44.392l0.80405-0.80377v31.213h-46.01v-7.1501h1.6078zm90.401-22.539-2.4113 4.8232-2.4116-4.8232h4.8229z" stroke="#ffc000" stroke-miterlimit="10" stroke-width=".010577px" fill="#ffc000"/>
  <path id="path4380" d="m0.47004 1.02v137.33h75.985v-137.33h-75.985z" fill-rule="evenodd" fill="#ffc000"/>
  <path id="path4382" d="m4.4893 4.4893v130.01h67.946v-130.01h-67.946z" fill-rule="evenodd" fill="#fff"/>
 </g>
 <path id="path4384" d="m29.907 29.907h240.75v460.67h-240.75z" clip-path="url(#clipEmfPath1)" transform="matrix(.28222 0 0 .28222 -3.9511 -3.9511)" stroke="#000" stroke-miterlimit="8" stroke-width="7.4955px" fill="none"/>
 <path id="path4386" d="m8.72 8.72v11.465h27.204v-11.465h-27.204z" fill-rule="evenodd" fill="#fff"/>
 <path id="path4388" d="m44.898 44.898h96.391v40.625h-96.391z" clip-path="url(#clipEmfPath1)" transform="matrix(.28222 0 0 .28222 -3.9511 -3.9511)" stroke="#000" stroke-miterlimit="8" stroke-width="7.4955px" fill="none"/>
 <path id="path4390" d="m8.72 24.416v11.465h27.204v-11.465h-27.204z" fill-rule="evenodd" fill="#fff"/>
 <path id="path4392" d="m44.898 100.51h96.391v40.625h-96.391z" clip-path="url(#clipEmfPath1)" transform="matrix(.28222 0 0 .28222 -3.9511 -3.9511)" stroke="#000" stroke-miterlimit="8" stroke-width="7.4955px" fill="none"/>
 <path id="path4394" d="m8.72 40.112v11.466h27.204v-11.466h-27.204z" fill-rule="evenodd" fill="#fff"/>
 <path id="path4396" d="m44.898 156.13h96.391v40.626h-96.391z" clip-path="url(#clipEmfPath1)" transform="matrix(.28222 0 0 .28222 -3.9511 -3.9511)" stroke="#000" stroke-miterlimit="8" stroke-width="7.4955px" fill="none"/>
 <path id="path4398" d="m8.72 55.809v11.465h27.204v-11.465h-27.204z" fill-rule="evenodd" fill="#fff"/>
 <path id="path4400" d="m44.898 211.75h96.391v40.625h-96.391z" clip-path="url(#clipEmfPath1)" transform="matrix(.28222 0 0 .28222 -3.9511 -3.9511)" stroke="#000" stroke-miterlimit="8" stroke-width="7.4955px" fill="none"/>
 <path id="path4402" d="m8.72 71.505v11.508h27.204v-11.508h-27.204z" fill-rule="evenodd" fill="#fff"/>
 <path id="path4404" d="m44.898 267.36h96.391v40.775h-96.391z" clip-path="url(#clipEmfPath1)" transform="matrix(.28222 0 0 .28222 -3.9511 -3.9511)" stroke="#000" stroke-miterlimit="8" stroke-width="7.4955px" fill="none"/>
 <path id="path4406" d="m8.72 87.243v11.466h27.204v-11.466h-27.204z" fill-rule="evenodd" fill="#fff"/>
 <path id="path4408" d="m44.898 323.13h96.391v40.626h-96.391z" clip-path="url(#clipEmfPath1)" transform="matrix(.28222 0 0 .28222 -3.9511 -3.9511)" stroke="#000" stroke-miterlimit="8" stroke-width="7.4955px" fill="none"/>
 <path id="path4410" d="m8.72 102.94v11.466h27.204v-11.466h-27.204z" fill-rule="evenodd" fill="#fff"/>
 <path id="path4412" d="m44.898 378.74h96.391v40.626h-96.391z" clip-path="url(#clipEmfPath1)" transform="matrix(.28222 0 0 .28222 -3.9511 -3.9511)" stroke="#000" stroke-miterlimit="8" stroke-width="7.4955px" fill="none"/>
 <path id="path4414" d="m40.578 8.72v11.465h27.162v-11.465h-27.162z" fill-rule="evenodd" fill="#fff"/>
 <path id="path4416" d="m157.78 44.898h96.242v40.625h-96.242z" clip-path="url(#clipEmfPath1)" transform="matrix(.28222 0 0 .28222 -3.9511 -3.9511)" stroke="#000" stroke-miterlimit="8" stroke-width="7.4955px" fill="none"/>
 <path id="path4418" d="m40.578 24.416v11.465h27.162v-11.465h-27.162z" fill-rule="evenodd" fill="#fff"/>
 <path id="path4420" d="m40.578 24.416h27.162v11.465h-27.162z" stroke="#000" stroke-miterlimit="8" stroke-width="2.1154px" fill="none"/>
 <path id="path4422" d="m40.578 40.112v11.466h27.162v-11.466h-27.162z" fill-rule="evenodd" fill="#fff"/>
 <path id="path4424" d="m40.578 40.112h27.162v11.466h-27.162z" stroke="#000" stroke-miterlimit="8" stroke-width="2.1154px" fill="none"/>
 <path id="path4426" d="m40.578 55.809v11.465h27.162v-11.465h-27.162z" fill-rule="evenodd" fill="#fff"/>
 <path id="path4428" d="m40.578 55.809h27.162v11.465h-27.162z" stroke="#000" stroke-miterlimit="8" stroke-width="2.1154px" fill="none"/>
 <path id="path4430" d="m40.578 71.505v11.508h27.162v-11.508h-27.162z" fill-rule="evenodd" fill="#fff"/>
 <path id="path4432" d="m40.578 71.505h27.162v11.508h-27.162z" stroke="#000" stroke-miterlimit="8" stroke-width="2.1154px" fill="none"/>
 <path id="path4434" d="m40.578 87.243v11.466h27.162v-11.466h-27.162z" fill-rule="evenodd" fill="#fff"/>
 <path id="path4436" d="m40.578 87.243h27.162v11.466h-27.162z" stroke="#000" stroke-miterlimit="8" stroke-width="2.1154px" fill="none"/>
 <path id="path4438" d="m40.578 102.94v11.466h27.162v-11.466h-27.162z" fill-rule="evenodd" fill="#fff"/>
 <path id="path4440" d="m40.578 102.94h27.162v11.466h-27.162z" stroke="#000" stroke-miterlimit="8" stroke-width="2.1154px" fill="none"/>
 <path id="path4442" d="m8.72 118.76v11.508h27.204v-11.508h-27.204z" fill-rule="evenodd" fill="#fff"/>
 <path id="path4444" d="m44.898 434.81h96.391v40.776h-96.391z" clip-path="url(#clipEmfPath1)" transform="matrix(.28222 0 0 .28222 -3.9511 -3.9511)" stroke="#000" stroke-miterlimit="8" stroke-width="7.4955px" fill="none"/>
 <path id="path4446" d="m40.578 118.76v11.508h27.162v-11.508h-27.162z" fill-rule="evenodd" fill="#fff"/>
 <path id="path4448" d="m40.578 118.76h27.162v11.508h-27.162z" stroke="#000" stroke-miterlimit="8" stroke-width="2.1154px" fill="none"/>
 <path id="path4450" d="m104.25 71.632v11.508h27.204v-11.508h-27.204z" fill-rule="evenodd" fill="#fff"/>
 <path id="path4452" d="m104.25 71.632h27.204v11.508h-27.204z" stroke="#000" stroke-miterlimit="8" stroke-width="2.1154px" fill="none"/>
 <path id="path4454" d="m136.11 71.632v11.508h27.204v-11.508h-27.204z" fill-rule="evenodd" fill="#fff"/>
 <path id="path4456" d="m136.11 71.632h27.204v11.508h-27.204z" stroke="#000" stroke-miterlimit="8" stroke-width="2.1154px" fill="none"/>
 <rect id="rect3500" fill-rule="evenodd" height="144.38" width="3.1782" stroke="#00f" y="1.2605" x="84.141" stroke-width=".28222px" fill="#00f"/>
</svg>
