<svg xmlns="http://www.w3.org/2000/svg"
     width="600" height="200" viewBox="0 0 600 200">

  <!-- dash array "4 4 16 4 4 16" -->
  <g fill="deeppink" fill-opacity="0.25" stroke="black" stroke-width="2px">
    <!-- length = 376.991118, scale factor 1.170985383 -->
    <circle cx="100" cy="100" r="60"
      stroke-dasharray="4.68394 4.68394 18.735766 4.68394 4.68394 18.735766"/>

    <!-- length = 400, scale factor 1.041666667 -->
    <rect x="250" y="50" width="100" height="100"
      stroke-dasharray="4.166666667 4.166666667 16.666666667 4.166666667 4.166666667 16.666666667"
      stroke-dashoffset="-2"/>

    <!-- length = 701.63525390625, scale factor 1.04410008 -->
    <path d="M 436,20 c 2.408549,9.42613 -12.983686,14.71063 -7.730043,25.24988 4.536116,6.77556 14.333519,7.63607 21.760859,9.16241 9.517786,-1.24524 15.711878,6.35061 14.294792,15.3982 0.27166,10.93797 2.042351,23.3104 -5.747338,32.30758 -4.994998,8.56148 -13.327083,15.03017 -17.14287,24.17533 -1.289945,7.54888 -2.835406,15.46803 -2.039063,23.07663 3.976511,10.1708 16.132713,11.837 25.390356,14.2603 10.362691,4.042 18.905303,-4.4596 19.235058,-14.6539 2.782791,-9.6512 -0.610768,-19.93933 2.709299,-29.39752 4.815776,-10.28115 13.556443,1.4717 15.445363,7.76852 8.13915,13.202 17.30453,26.1912 29.28373,36.2665 8.45148,5.9843 17.55039,-1.0727 24.08191,-6.4036 10.20252,-6.5615 20.95367,-15.9684 21.26163,-29.0514 -0.58,-9.23056 -10.63156,-12.97712 -17.98478,-15.90328 -8.38326,-3.32978 -18.00259,-8.25057 -19.54451,-18.16091 -1.97295,-7.55348 -0.6407,-18.23459 7.99701,-20.82977 8.37765,-3.46227 19.5001,-0.58741 25.78554,-8.38877 5.8282,-10.31759 3.00896,-23.49721 -2.59629,-33.33595 -3.06268,-8.63819 -11.41908,-13.44316 -20.40706,-12.3559 -9.12649,-1.62859 -17.67912,2.69742 -24.93493,7.78488 -10.94153,7.0203 -20.83063,16.48061 -33.972689,19.20183 -7.50619,3.92219 -16.793117,2.61806 -18.268954,-7.05962 -3.336794,-8.075 -5.305736,-16.84134 -9.673804,-24.38533 -7.062387,-5.20866 -18.393771,-3.45871 -25.695367,0.82991 -1.906924,0.80664 -1.728902,2.79273 -1.507849,4.44398 z"
          stroke-dasharray="4.176400321 4.176400321 16.705601283 4.176400321 4.176400321 16.705601283"/>
  </g>
</svg>
