<?xml version="1.0" standalone="no"?>
<svg xmlns="http://www.w3.org/2000/svg" xmlns:xlink="http://www.w3.org/1999/xlink"
     width="600" height="600" viewBox="0 0 600 600">
  <desc>Example stroke miter limit - demonstrates effect of miter limit.</desc>
  <style type="text/css"><![CDATA[
    .thick { stroke: gray; stroke-width: 32px; fill: none}
    .thin { stroke: #ccc; stroke-width: 2px; fill: none }
  ]]></style>

  <defs>
    <path id="path1" d="m 150,75 c 50,-50 100,-50 150,0 50,50 100,50 150,0"/>
    <clipPath id="clip1">
      <use xlink:href="#path1"/>
    </clipPath>
    <path id="path2" d="m 300,75 c 50,50 100,50 150,0 l -11.31445,-11.31445 c -23.11439,23.11438 -44.01888,32.81445 -63.68555,32.81445 -19.66667,0 -40.57116,-9.70007 -63.68555,-32.81445 l -22.6289,22.6289 c -23.11439,-23.11438 -44.01888,-32.81445 -63.68555,-32.81445 -19.66667,0 -40.57116,9.70007 -63.68555,32.81445 l -11.31445,-11.31445 c 50,-50 100,-50 150,0 z"/>
    <path id="path3" d="m 150,75 c 50,-50 100,-50 150,0 50,50 100,50 150,0 l 11.31445,11.31445 c -26.88561,26.88562 -55.98112,42.18555 -86.31445,42.18555 -30.33333,0 -59.42884,-15.29993 -86.31445,-42.18555 l 22.6289,-22.6289 c -26.88561,-26.88562 -55.98112,-42.18555 -86.31445,-42.18555 -30.33333,0 -59.42884,15.29993 -86.31445,42.18555 z"/>
    <path id="path4" d="m 144.34375,69.34375 c 25.94281,-25.94281 52.98958,-39.84375 80.65625,-39.84375 27.66667,0 54.71344,13.90094 80.65625,39.84375 24.05719,24.05719 47.01042,35.15625 69.34375,35.15625 22.33333,0 45.28656,-11.09906 69.34375,-35.15625"/>
  </defs>

  <g transform="translate(0,0)">
    <use class="thick" xlink:href="#path1" style="stroke-width:16px"/>
    <use class="thin"  xlink:href="#path1"/>
  </g>

  <g transform="translate(0,75)">
    <use class="thick" xlink:href="#path1" style="fill:gray;stroke:none"/>
    <use class="thin"  xlink:href="#path1"/>
  </g>

  <g transform="translate(0,150)">
    <use class="thick" xlink:href="#path1" style="clip-path:url(#clip1)"/>"
    <use class="thin"  xlink:href="#path1"/>
  </g>

  <g transform="translate(0,225)">
    <use class="thick" xlink:href="#path1"/>"
    <use class="thick" xlink:href="#path1" style="fill:white;stroke:none"/>
    <use class="thin"  xlink:href="#path1"/>
  </g>

  <g transform="translate(0,300)">
    <use class="thick" xlink:href="#path2" style="fill:gray;stroke:none"/>"
    <use class="thin"  xlink:href="#path1"/>
  </g>

  <g transform="translate(0,375)">
    <use class="thick" xlink:href="#path3" style="fill:gray;stroke:none"/>"
    <use class="thin"  xlink:href="#path1"/>
  </g>

  <g transform="translate(0,450)">
    <use class="thick" xlink:href="#path4" style="fill:none;stroke:pink;stroke-width:16px;stroke-linecap:round"/>"
    <use class="thick" xlink:href="#path4" style="fill:none;stroke:gray;stroke-width:16px"/>"
    <use class="thin"  xlink:href="#path1"/>
  </g>

</svg>
