<?xml version="1.0" encoding="UTF-8" standalone="no"?>
<svg xmlns="http://www.w3.org/2000/svg" xmlns:xlink="http://www.w3.org/1999/xlink" width="600" height="600" viewBox="0 0 1200 1200">
  <title>Stroking a looped path.</title>
  <!-- Created by Tavmjong Bah -->

  <defs>
    <path id="original" d="m 200,50 c -200,0 29.9,398.2 129.9,225 100,-173.2 -359.8,-173.2 -259.8,0 100,173.2 329.9,-225 129.9,-225 z"/>
  </defs>

  <!-- Stroke -->
  <g transform="translate(0,0)">
    <use xlink:href="#original" style="fill:none;stroke:gray;stroke-width:25"/>
    <use xlink:href="#original" style="fill:none;stroke:#ccc;stroke-width:4"/>
  </g>

  <!-- Stroke: left -->
  <g transform="translate(400,0)">
    <path d="m 163.7,42.5 c -10.7,3.3 -20,8.3 -27.6,14.7 -7.7,6.4 -13.7,14.2 -18.1,22.8 -4.4,8.5 -7.1,17.9 -8.5,27.7 -2.8,19.6 -0.5,40.9 5.3,62.4 5.8,21.5 15.1,43.3 26.8,63.6 11.8,20.3 25.9,39.3 41.7,55 15.7,15.8 33,28.5 51.4,35.8 9.1,3.7 18.6,6 28.3,6.5 9.6,0.6 19.3,-0.8 28.7,-4.2 9.4,-3.5 18.3,-9 26.6,-16.6 8.2,-7.6 15.7,-17.2 22.4,-28.9 6.8,-11.8 11.4,-23.1 13.9,-34 2.4,-10.9 2.8,-21.4 1.1,-31.3 -1.7,-9.8 -5.5,-18.9 -10.7,-27 -5.3,-8.1 -12.1,-15.1 -19.8,-21.2 -15.6,-12.3 -35.2,-20.9 -56.7,-26.7 -21.5,-5.7 -45,-8.5 -68.5,-8.5 -23.5,0 -47,2.8 -68.5,8.5 -21.5,5.8 -41.1,14.4 -56.7,26.7 -7.7,6.1 -14.5,13.1 -19.8,21.2 -5.2,8.1 -9,17.2 -10.7,27 -1.7,9.9 -1.3,20.4 1.1,31.3 2.5,10.9 7.1,22.2 13.9,34 6.7,11.7 14.2,21.3 22.4,28.9 8.3,7.6 17.2,13.1 26.6,16.6 9.4,3.4 19.1,4.8 28.7,4.2 9.7,-0.5 19.2,-2.8 28.3,-6.5 18.4,-7.3 35.7,-20 51.4,-35.8 15.8,-15.7 29.9,-34.7 41.7,-55 11.7,-20.3 21,-42.1 26.8,-63.6 5.8,-21.5 8.1,-42.8 5.3,-62.4 -1.4,-9.8 -4.1,-19.2 -8.5,-27.7 -4.4,-8.6 -10.4,-16.4 -18.1,-22.8 -7.6,-6.4 -16.9,-11.4 -27.6,-14.7 -10.7,-3.3 -22.8,-5 -36.3,-5 -13.5,0 -25.6,1.7 -36.3,5 z"
      style="fill:none;stroke:gray;stroke-width:25"/>
    <use xlink:href="#original" style="fill:none;stroke:#ccc;stroke-width:4"/>
  </g>

  <!-- Stroke: right -->
  <g transform="translate(800,0)">
    <path d="m 228.9,66.4 c 7.9,2.4 14.1,5.8 19,10 5,4.1 8.9,9.1 11.8,14.9 2.9,5.8 5,12.5 6.1,20 2.1,15 0.4,33.2 -4.7,52.3 -5.1,19.1 -13.6,39 -24.4,57.6 -10.7,18.6 -23.7,35.9 -37.7,49.9 -13.9,14 -28.8,24.6 -42.9,30.2 -7.1,2.8 -13.9,4.4 -20.4,4.8 -6.5,0.3 -12.7,-0.5 -18.8,-2.8 -6.1,-2.2 -12.1,-5.9 -18.2,-11.5 -6,-5.6 -12,-13.1 -17.8,-23.1 -5.7,-9.9 -9.2,-18.9 -11.1,-26.9 -1.8,-8 -1.9,-15.1 -0.8,-21.5 1.1,-6.4 3.4,-12.2 7,-17.6 3.5,-5.5 8.3,-10.6 14.3,-15.3 11.9,-9.4 28.6,-17 47.6,-22.1 19.1,-5.1 40.6,-7.7 62.1,-7.7 21.5,0 43,2.6 62.1,7.7 19,5.1 35.7,12.7 47.6,22.1 6,4.7 10.8,9.8 14.3,15.3 3.6,5.4 5.9,11.2 7,17.6 1.1,6.4 1,13.5 -0.8,21.5 -1.9,8 -5.4,17 -11.1,26.9 -5.8,10 -11.8,17.5 -17.8,23.1 -6.1,5.6 -12.1,9.3 -18.2,11.5 -6.1,2.3 -12.3,3.1 -18.8,2.8 -6.5,-0.4 -13.3,-2 -20.4,-4.8 -14.1,-5.6 -29,-16.2 -42.9,-30.2 -14,-14 -27,-31.3 -37.7,-49.9 -10.8,-18.6 -19.3,-38.5 -24.4,-57.6 -5.1,-19.1 -6.8,-37.3 -4.7,-52.3 1.1,-7.5 3.2,-14.2 6.1,-20 2.9,-5.8 6.8,-10.8 11.8,-14.9 4.9,-4.2 11.1,-7.6 19,-10 7.9,-2.5 17.4,-3.9 28.9,-3.9 11.5,0 21,1.4 28.9,3.9 z"
	  style="fill:none;stroke:gray;stroke-width:25"/>
    <use xlink:href="#original" style="fill:none;stroke:#ccc;stroke-width:4"/>
  </g>

  <!-- Fill: nonzero -->
  <g transform="translate(0,400)">
    <use xlink:href="#original" style="fill:gray"/>
    <use xlink:href="#original" style="fill:none;stroke:#ccc;stroke-width:4"/>
  </g>

  <!-- Fill nonzero, stroke outside -->
  <g transform="translate(400,400)">
    <path d="m 200,25 c -41.2,0 -74.1,16.8 -90.3,44.2 -12.6,21.4 -15.5,46.1 -12.9,71.2 -23,10.3 -43,25.1 -55.2,46.8 -15.6,27.8 -13.7,64.6 6.8,100.3 20.6,35.7 51.6,55.7 83.5,56.1 24.8,0.2 47.7,-9.6 68.1,-24.4 20.4,14.8 43.3,24.6 68.1,24.4 31.9,-0.4 62.9,-20.4 83.5,-56.1 20.5,-35.7 22.4,-72.5 6.8,-100.3 -12.2,-21.7 -32.2,-36.5 -55.2,-46.8 2.6,-25.1 -0.3,-49.8 -12.9,-71.2 -16.2,-27.4 -49.1,-44.2 -90.3,-44.2 z m 0,25 c 70.6,0 87.6,49.7 75.7,106.3 55,18 89.5,57.5 54.2,118.7 -35.3,61.2 -86.8,51.1 -129.9,12.4 -43.1,38.7 -94.6,48.8 -129.9,-12.4 -35.3,-61.2 -0.8,-100.7 54.2,-118.7 -11.9,-56.6 5.1,-106.3 75.7,-106.3 z"
	  style="fill:gray"/>
    <use xlink:href="#original" style="fill:none;stroke:#ccc;stroke-width:4"/>
  </g>

  <g transform="translate(800,400)">
    <path d="m 200,50 c -70.7,0 -87.7,49.8 -75.7,106.4 -55,18 -89.5,57.5 -54.2,118.6 35.3,61.1 86.8,51 129.9,12.3 43.1,38.7 94.6,48.8 129.9,-12.3 35.3,-61.1 0.8,-100.6 -54.2,-118.6 12,-56.6 -5,-106.4 -75.7,-106.4 z m 0,25 c 10.4,0 18.7,1.3 25.2,3.3 6.5,2 11.1,4.6 14.7,7.7 3.7,3 6.4,6.5 8.7,10.9 2.2,4.4 3.9,9.8 4.8,16.2 1.8,12.7 0.4,29.4 -4.4,47.3 -1.2,4.5 -2.7,9.1 -4.3,13.8 4.9,0.9 9.6,2 14.1,3.2 17.9,4.7 33,11.8 43.2,19.8 5,4 8.8,8.1 11.5,12.3 2.7,4.1 4.4,8.3 5.2,12.9 0.8,4.7 0.8,10 -0.7,16.6 -1.5,6.6 -4.5,14.5 -9.8,23.5 -5.2,9 -10.5,15.6 -15.4,20.2 -5,4.6 -9.6,7.3 -14,8.9 -4.5,1.6 -8.9,2.3 -13.8,2 -5,-0.3 -10.5,-1.5 -16.4,-3.9 -12,-4.8 -25.7,-14.3 -38.8,-27.4 -3.3,-3.3 -6.6,-6.9 -9.8,-10.6 -3.2,3.7 -6.5,7.3 -9.8,10.6 -13.1,13.1 -26.8,22.6 -38.8,27.4 -5.9,2.4 -11.4,3.6 -16.4,3.9 -4.9,0.3 -9.3,-0.4 -13.8,-2 -4.4,-1.6 -9,-4.3 -14,-8.9 -4.9,-4.6 -10.2,-11.2 -15.4,-20.2 -5.3,-9 -8.3,-16.9 -9.8,-23.5 -1.5,-6.6 -1.5,-11.9 -0.7,-16.6 0.8,-4.6 2.5,-8.8 5.2,-12.9 2.7,-4.2 6.5,-8.3 11.5,-12.3 10.2,-8 25.3,-15.1 43.2,-19.8 4.5,-1.2 9.2,-2.3 14.1,-3.2 -1.6,-4.7 -3.1,-9.3 -4.3,-13.8 -4.8,-17.9 -6.2,-34.6 -4.4,-47.3 0.9,-6.4 2.6,-11.8 4.8,-16.2 2.3,-4.4 5,-7.9 8.7,-10.9 3.6,-3.1 8.2,-5.7 14.7,-7.7 6.5,-2 14.8,-3.3 25.2,-3.3 z"
	  style="fill:gray"/>
    <use xlink:href="#original" style="fill:none;stroke:#ccc;stroke-width:4"/>
    <circle cx="262.5" cy="162.5" r="25" style="fill:none;stroke:red;stroke-width:4"/>
  </g>

  <!-- Fill: evenodd -->
  <g transform="translate(0,800)">
    <use xlink:href="#original" style="fill:gray;fill-rule:evenodd"/>
    <use xlink:href="#original" style="fill:none;stroke:#ccc;stroke-width:4"/>
  </g>

  <!-- Fill: evenodd, stroke outside -->
  <g transform="translate(400,800)">
    <path d="m 200,25 c -41.2,0 -74.1,16.8 -90.3,44 -12.6,22 -15.5,46 -12.9,71 -23,11 -43,25 -55.2,47 -15.6,28 -13.7,65 6.8,101 20.6,35 51.6,55 83.5,56 24.8,0 47.7,-10 68.1,-25 20.4,15 43.3,25 68.1,25 31.9,-1 62.9,-21 83.5,-56 20.5,-36 22.4,-73 6.8,-101 -12.2,-22 -32.2,-36 -55.2,-47 2.6,-25 -0.3,-49 -12.9,-71 -16.2,-27.2 -49.1,-44 -90.3,-44 z m 0,25 c 70.7,0 87.7,50 75.7,106 55,18 89.5,58 54.2,119 -35.3,61 -86.8,51 -129.9,12 -43.1,39 -94.6,49 -129.9,-12 -35.3,-61 -0.8,-101 54.2,-119 -12,-56 5,-106 75.7,-106 z m -75.7,106 c 10,47 39.9,99 75.7,131 35.8,-32 65.7,-84 75.7,-131 -45.8,-14 -105.6,-14 -151.4,0 z m 75.7,14 c 15.1,0 30.1,2 44.2,4 -9.6,27 -25.7,55 -44.2,77 -18.5,-22 -34.6,-50 -44.2,-77 14.1,-2 29.1,-4 44.2,-4 z"
	  style="fill:gray"/>
    <use xlink:href="#original" style="fill:none;stroke:#ccc;stroke-width:2;fill-rule:evenodd"/>
  </g>

  <!-- Fill: evenodd, stroke inside -->
  <g transform="translate(800,800)">
    <path d="m 200,50 c -70.7,0 -87.7,50 -75.7,106 45.8,-14 105.6,-14 151.4,0 12,-56 -5,-106 -75.7,-106 z m 75.7,106 c -10,47 -39.9,99 -75.7,131 43.1,39 94.6,49 129.9,-12 35.3,-61 0.8,-101 -54.2,-119 z m -75.7,131 c -35.8,-32 -65.7,-84 -75.7,-131 -55,18 -89.5,58 -54.2,119 35.3,61 86.8,51 129.9,12 z m 0,-212 c 29.5,0 40.4,8 47.2,20 4.3,7 6.7,17 6.7,30 -35,-6 -72.8,-6 -107.8,0 0,-13 2.4,-23 6.7,-30 6.8,-12 17.7,-20 47.2,-20 z m -91.7,116 c 11.6,33 30.5,66 53.9,93 -11.1,6 -21.5,10 -29.8,10 -13.5,-1 -25.9,-6 -40.6,-32 -14.8,-25 -13.2,-39 -6.6,-50 4.1,-8 12,-15 23.1,-21 z m 183.4,0 c 11.1,6 19,13 23.1,21 6.6,11 8.2,25 -6.6,50 -14.7,26 -27.1,31 -40.6,32 -8.3,0 -18.7,-4 -29.8,-10 23.4,-27 42.3,-60 53.9,-93 z"
	  style="fill:gray"/>
    <use xlink:href="#original" style="fill:none;stroke:#ccc;stroke-width:4"/>
  </g>
</svg>
