<svg xmlns="http://www.w3.org/2000/svg" xmlns:xlink="http://www.w3.org/1999/xlink" width='400' height='140'>
	<svg x='80' y='0' width='240' height='60'>
		<rect width='100%' height='100%' rx='10' ry='10' fill='#ddd' />
		<g id='compose' transform='translate(-360 -290)'>
			<path xmlns="http://www.w3.org/2000/svg" fill="#333333" d="M389.352,328.205c-0.547,0.138-0.854-0.188-0.68-0.725l1.619-4.997c0.174-0.538,0.645-1.304,1.043-1.703    l16.438-16.438c0.398-0.399,1.053-0.399,1.451,0l3.633,3.632c0.398,0.399,0.398,1.053,0,1.452l-16.438,16.438    c-0.4,0.399-1.176,0.84-1.723,0.979L389.352,328.205z"/>
			<path xmlns="http://www.w3.org/2000/svg" fill="#333333" d="M397.869,327.317c-0.664,0.664-1.762,1.288-2.668,1.519l-5.346,1.361    c-0.248,0.062-0.498,0.094-0.742,0.094c-0.838,0-1.592-0.373-2.064-1.024c-0.488-0.674-0.609-1.556-0.33-2.42l1.619-4.996    c0.275-0.852,0.91-1.89,1.545-2.523l13.197-13.197v-6.905c0-0.564-0.465-1.027-1.027-1.027h-19.518l-14.381,14.38v26.707    c0,0.564,0.463,1.027,1.027,1.027h32.869c0.564,0,1.027-0.462,1.027-1.027v-17.177L397.869,327.317z M382.535,312.579h-12.326    l12.326-12.326V312.579z"/>
		</g>
		<g transform="translate(60 0)">
			<g id='upload' transform='translate(-360 -350)'>
				<path xmlns="http://www.w3.org/2000/svg" fill="#333333" d="M406.154,357.213h-18l-14,14v27c0,0.55,0.449,1,1,1h11v-11h-4c-1.1,0-1.418-0.688-0.709-1.526l8.416-9.947   c0.711-0.84,1.875-0.84,2.584,0l8.416,9.947c0.711,0.839,0.393,1.526-0.707,1.526h-4v11h10c0.549,0,1-0.45,1-1v-40   C407.154,357.662,406.703,357.213,406.154,357.213z M388.154,371.213h-12l12-12V371.213z"/>
			</g>
		</g>
		<g transform="translate(120 0)">
			<g id='save' transform='translate(-360 -410)'>
				<rect x="386.369" y="419.135" fill="#333333" width="8.572" height="10.714"/>
				<path fill="#333333" d="M403.435,416.992h-3.139v16.071h-25.713v-16.071h-5.893c-0.295,0-0.537,0.241-0.537,0.535v43.929     c0,0.295,0.242,0.535,0.537,0.535h43.928c0.295,0,0.535-0.24,0.535-0.535V426.71L403.435,416.992z M406.726,458.776h-32.143     v-21.428h32.143V458.776z"/>
				<polygon fill="#333333" points="403.511,445.921 377.798,445.921 377.798,442.706 403.511,442.706 403.511,445.921"/>
				<polygon fill="#333333" points="403.511,453.421 377.798,453.421 377.798,450.206 403.511,450.206 403.511,453.421"/>
			</g>
		</g>
		<g transform="translate(180 0)">
			<g id='trash' transform='translate(-360 -590)'>
				<path xmlns="http://www.w3.org/2000/svg" fill="#333333" d="M408.302,604.218h-7.95c0.002-0.055,0.009-0.109,0.009-0.166v-1.6c0-2.91-2.384-5.293-5.294-5.293h-8.824    c-2.912,0-5.294,2.383-5.294,5.293v1.6c0,0.057,0.007,0.111,0.009,0.166h-7.95c-1.456,0-2.646,1.191-2.646,2.646v2.646    c0,1.457,1.19,2.648,2.646,2.648h0.883v-1.766h33.529v1.766h0.883c1.455,0,2.646-1.191,2.646-2.648v-2.646    C410.948,605.409,409.757,604.218,408.302,604.218z M385.333,601.571h10.588v2.646h-10.588V601.571z"/>
				<path xmlns="http://www.w3.org/2000/svg" fill="#333333" d="M375.654,613.042v26.469c0,1.457,1.19,2.648,2.647,2.648h24.705c1.456,0,2.647-1.191,2.647-2.648v-26.469    H375.654z M384.478,636.423c0,0.486-0.397,0.883-0.882,0.883h-1.765c-0.486,0-0.883-0.396-0.883-0.883v-17.646    c0-0.484,0.396-0.883,0.883-0.883h1.765c0.484,0,0.882,0.398,0.882,0.883V636.423z M392.419,636.423    c0,0.486-0.398,0.883-0.882,0.883h-1.766c-0.485,0-0.882-0.396-0.882-0.883v-17.646c0-0.484,0.396-0.883,0.882-0.883h1.766    c0.483,0,0.882,0.398,0.882,0.883V636.423z M400.36,636.423c0,0.486-0.398,0.883-0.883,0.883h-1.765    c-0.485,0-0.882-0.396-0.882-0.883v-17.646c0-0.484,0.396-0.883,0.882-0.883h1.765c0.484,0,0.883,0.398,0.883,0.883V636.423z"/>
			</g>
		</g>
	</svg>
	<svg x='0' y='80' width='400' height='60'>
		<rect width='100%' height='100%' rx='10' ry='10' fill='#ddd'/>
		<use x='20' y='0' xlink:href='#compose' />
		<use x='120' y='0' xlink:href='#upload' />
		<use x='220' y='0' xlink:href='#save' />
		<use x='320' y='0' xlink:href='#trash' />
	</svg>
</svg>
