<!-- vim: set expandtab ts=2 sw=2 tw=80: -->
<svg xmlns="http://www.w3.org/2000/svg"
  xmlns:xlink="http://www.w3.org/1999/xlink"
  width="100%" height="100%" viewBox="-10 0 485 112">
  <defs>
    <style type="text/css">
    svg {
      font-size: 19px;
      font-family: sans-serif;
    }

    /*
     * Line work
     */
    .bracket {
      stroke: black;
      stroke-width: 1.5;
      fill: none;
    }
    .activeSpan  {
      fill: paleturquoise;
      stroke: black;
    }
    .repeatBoundary {
      stroke: navy;
      stroke-width: 2;
      stroke-dasharray: 4 4;
    }

    /* Text labels */
    .inputLabel {
      font-size: 24px;
      fill: navy;
      text-anchor: middle;
    }
    .opLabel {
      font-size: 35px;
      font-weight: bold;
      fill: black;
      text-anchor: middle;
    }
    .regionLabel {
      text-anchor: middle;
    }
    </style>
  </defs>
  <g transform="translate(3 1)">
    <g>
      <rect width="60" height="50" class="activeSpan"/>
      <path d="M2 55s0 7 7 7h14s7 0 7 7c0 0 0-7 7-7h14s7 0 7-7"
        class="bracket"/>
      <text x="30" y="90" class="regionLabel">iteration<tspan x="30"
      dy="1em">duration</tspan></text>
    </g>
    <text x="95" y="40" class="opLabel">&#xd7;</text>
    <g transform="translate(180)">
      <text y="25" class="inputLabel">iteration<tspan
        x="0" dy="1em">count (2.5)</tspan></text>
    </g>
    <text x="270" y="40" class="opLabel">=</text>
    <g transform="translate(320)">
      <rect width="150" height="50" class="activeSpan"/>
      <path d="M60 0v50m60-50v50" class="repeatBoundary"/>
      <path d="M2 55s0 7 7 7h59s7 0 7 7c0 0 0-7 7-7h59s7 0 7-7"
        class="bracket"/>
      <text x="75" y="90" class="regionLabel">active duration</text>
    </g>
  </g>
</svg>
