<!-- vim: set expandtab ts=2 sw=2 tw=80: -->
<svg xmlns="http://www.w3.org/2000/svg" width="100%" height="100%"
  viewBox="0 0 600 230">
  <defs>
    <style type="text/css">
    svg {
      font-size: 19px;
      font-family: sans-serif;
    }

    /*
     * Line work
     */
    .line, .arrowLine, .dottedArrow, .doubleArrowLine {
      stroke: black;
      stroke-width: 1.5;
      fill: none;
    }
    .arrowLine, .dottedArrow {
      marker-end: url(#arrow);
    }
    .dottedArrow {
      stroke-dasharray: 4 4;
      stroke-width: 2;
    }
    .doubleArrowLine {
      marker-start: url(#reverseArrow);
      marker-end: url(#arrow);
    }
    .bracket {
      stroke: black;
      stroke-width: 1.5;
      fill: none;
    }

    /*
     * Animation spans
     */
    .activeSpan  {
      fill: paleturquoise;
      stroke: black;
    }
    .repeatBoundary {
      stroke: navy;
      stroke-width: 2;
      stroke-dasharray: 4 4;
    }

    /*
     * Text labels
     */
    .durationLabel {
      text-anchor: middle;
    }
    </style>

    <!-- Arrows -->
    <style type="text/css">
      .blackArrowHead {
        fill: black;
        stroke: none;
      }
    </style>
    <marker id="arrow" viewBox="0 -5 10 10" orient="auto" markerWidth="5"
      markerHeight="5">
      <path d="M0-5l10 5l-10 5z" class="blackArrowHead"/>
    </marker>
  </defs>
  <!-- Timeline -->
  <g>
    <text x="1em" y="1.1em">Time</text>
    <line x1="4em" x2="97%" y1="0.8em" y2="0.8em" class="arrowLine"/>
  </g>
  <!-- A single timed item -->
  <g transform="translate(80 20)">
    <!-- Animation duration label -->
    <g transform="translate(0 60)">
      <path d="M0 0s0-10 10-10h180s10 0 10-10c0 0 0 10 10 10h180s10 0 10 10"
        class="bracket"/>
      <g transform="translate(200 0)">
        <text y="-25" class="durationLabel">active duration</text>
      </g>
    </g>
    <!-- Animation shaded areas -->
    <g transform="translate(0 70)">
      <rect width="400" height="80" class="activeSpan"/>
      <path d="M160 0v80m160-80v80" class="repeatBoundary"/>
    </g>
    <!-- Iteration duration label -->
    <g transform="translate(0 160)">
      <path d="M2 0s0 10 10 10h58s10 0 10 10c0 0 0-10 10-10h58s10 0 10-10"
        class="bracket"/>
      <path d="M162 0s0 10 10 10h58s10 0 10 10c0 0 0-10 10-10h58s10 0 10-10"
        class="bracket"/>
      <path d="M322 0s0 10 10 10h58s10 0 10 10c0 0 0-10 10-10h58s10 0 10-10"
        class="bracket"/>
      <g transform="translate(0 38)">
        <text x="80" class="durationLabel">iteration duration</text>
        <text x="240" class="durationLabel">iteration duration</text>
        <text x="400" class="durationLabel">iteration duration</text>
      </g>
    </g>
  </g>
</svg>
