<!-- vim: set expandtab ts=2 sw=2 tw=80: -->
<svg xmlns="http://www.w3.org/2000/svg" width="100%" height="100%"
  xmlns:xlink="http://www.w3.org/1999/xlink"
  viewBox="0 0 267 222">
  <defs>
    <style type="text/css">
    svg {
      font-size: 19px;
      font-family: sans-serif;
    }

    /*
     * Line work
     */
    .line, .arrowLine, .doubleArrowLine {
      stroke: black;
      stroke-width: 1.5;
      fill: none;
    }
    .arrowLine {
      marker-end: url(#arrow);
    }
    .doubleArrowLine {
      marker-start: url(#reverseArrow);
      marker-end: url(#arrow);
    }
    .currentTime {
      stroke: orange;
      stroke-width: 2.5;
      stroke-linecap: round;
      stroke-linejoin: round;
      fill: none;
      marker-start: url(#orangeReverseArrow);
      marker-end: url(#orangeArrow);
    }

    /*
     * Text labels
     */
    .axisLabel {
      font-size: 0.7em;
    }
    .tickLabel {
      font-size: 0.6em;
      text-anchor: middle;
    }
    .currentTimeLabel {
      fill: orange;
      font-size: 0.8em;
    }
    .startTimeLabel {
      text-anchor: start;
      font-size: 14px;
      font-style: italic;
      fill: red;
    }
    </style>

    <!-- Arrows -->
    <style type="text/css">
      .arrowHead {
        fill: currentColor;
        stroke: none;
      }
    </style>
    <marker id="arrow" viewBox="0 -5 10 10" orient="auto" markerWidth="5"
      markerHeight="5">
      <path d="M0-5l10 5l-10 5z" color="black" class="arrowHead"/>
    </marker>
    <marker id="reverseArrow" viewBox="-10 -5 10 10" orient="auto"
      markerWidth="5" markerHeight="5">
      <path d="M0-5l-10 5l10 5z" color="black" class="arrowHead"/>
    </marker>
    <marker id="orangeArrow" viewBox="0 -5 10 10" orient="auto" markerWidth="5"
      markerHeight="5">
      <path d="M0-5l10 5l-10 5z" color="orange" class="arrowHead"/>
    </marker>
    <marker id="orangeReverseArrow" viewBox="-10 -5 10 10" orient="auto"
      markerWidth="5" markerHeight="5">
      <path d="M0-5l-10 5l10 5z" color="orange" class="arrowHead"/>
    </marker>

    <!-- Star -->
    <style type="text/css">
      .startTimeStar {
        stroke: red;
        stroke-linecap: round;
        stroke-width: 2;
        fill: none;
      }
    </style>
    <path d="M-3.5-3.5l7 7M3.5-3.5l-7 7M0-5v10M-5 0h10"
      class="startTimeStar" id="star"/>
  </defs>

  <!-- Graph -->
  <g transform="translate(32 150)">
    <!-- Y axis -->
    <path d="M0 60v-200" class="doubleArrowLine"/>
    <path d="M-2 40h4M-2 0h4M-2-40h4M-2-80h4M-2-120h4" class="line"/>
    <text x="-40" y="1em" transform="rotate(-90)" class="tickLabel">
      -1<tspan
        x="40">1</tspan><tspan
        x="80">2</tspan><tspan
        x="120">3</tspan>
    </text>
    <text y="-0.8em" transform="rotate(-90)" class="axisLabel">
      Player time</text>
    <!-- X axis -->
    <path d="M0 0h220" class="arrowLine"/>
    <path d="M40-2v4M80-2v4M120-2v4M160-2v4" class="line"/>
    <text x="40" y="1.3em" class="tickLabel">
      1<tspan
        x="80">2</tspan><tspan
        x="120">3</tspan><tspan
        x="160">4</tspan>
    </text>
    <text x="140" y="-0.5em" class="axisLabel">Timeline time</text>
    <!-- Origin -->
    <text x="0.6em" y="1.1em" class="tickLabel">0</text>
    <!-- Line -->
    <path d="M-20 60L160-120h60" class="currentTime" id="currentTime"/>
    <text class="currentTimeLabel" transform="translate(0 -8)"><textPath
      xlink:href="#currentTime"
      startOffset="100">Player current time</textPath></text>
    <!-- Start time -->
    <use xlink:href="#star" x="40"/>
    <text transform="translate(43 20)" class="startTimeLabel">start<tspan x="0"
      dy="0.9em">time</tspan></text>
  </g>
</svg>
