<!-- vim: set expandtab ts=2 sw=2 tw=80: -->
<svg xmlns="http://www.w3.org/2000/svg"
  xmlns:xlink="http://www.w3.org/1999/xlink"
  width="100%" height="100%" viewBox="148 -2 315 325">
  <defs>
    <style type="text/css">
    svg {
      font-size: 18px;
      font-family: sans-serif;
    }

    /*
     * Line work
     */
    .arrowLine {
      stroke: black;
      stroke-width: 1.5;
      fill: none;
      marker-end: url(#arrow);
    }
    </style>

    <!-- Arrows -->
    <style type="text/css">
      .blackArrowHead {
        fill: black;
        stroke: none;
      }
    </style>
    <marker id="arrow" viewBox="0 -5 10 10" orient="auto" markerWidth="5"
      markerHeight="5">
      <path d="M0-5l10 5l-10 5z" class="blackArrowHead"/>
    </marker>
    <marker id="reverseArrow" viewBox="-10 -5 10 10" orient="auto"
      markerWidth="5" markerHeight="5">
      <path d="M0-5l-10 5l10 5z" class="blackArrowHead"/>
    </marker>

    <!-- Star -->
    <style type="text/css">
      .startTimeStar {
        stroke: blue;
        stroke-linecap: round;
        stroke-width: 2;
        fill: none;
      }
    </style>
    <path d="M-3.5-3.5l7 7M3.5-3.5l-7 7M0-5v10M-5 0h10"
      class="startTimeStar" id="star"/>

    <!-- Document -->
    <style type="text/css">
      .document {
        fill: lightgreen;
        stroke: black;
        stroke-width: 2;
      }
    </style>
    <g id="document">
      <path d="M0 0h100v70c-20-8-30-8-50 0s-30 8-50 0z" class="document"/>
      <g transform="translate(50 40)">
        <text text-anchor="middle">Timeline</text>
      </g>
    </g>

    <!-- Animation -->
    <style type="text/css">
      .animation {
        fill: plum;
        stroke: black;
        stroke-width: 2;
      }
    </style>
    <g id="animation">
      <path d="M-40-45v90l100-45z" class="animation"/>
      <text y="0.3em" text-anchor="middle" font-size="0.8em">Animation</text>
    </g>

    <!-- Effect -->
    <style type="text/css">
      .effect {
        fill: paleturquoise;
        stroke: black;
        stroke-width: 2;
      }
    </style>
    <g id="effect">
      <ellipse rx="60" ry="40" class="effect"/>
      <text y="0.3em" text-anchor="middle">Effect</text>
    </g>
  </defs>
  <!-- Document timeline -->
  <use x="250" xlink:href="#document"/>

  <!-- Animation and effect -->
  <use x="200" y="150" xlink:href="#animation"/>
  <line x1="230" y1="137" x2="280" y2="85" class="arrowLine"/>
  <use x="210" y="280" xlink:href="#effect"/>
  <line x1="210" y1="240" x2="210" y2="190" class="arrowLine"/>

  <!-- Another animation and effect -->
  <use x="400" y="150" xlink:href="#animation"/>
  <line x1="360" y1="150" x2="320" y2="85" class="arrowLine"/>
  <use x="400" y="280" xlink:href="#effect"/>
  <line x1="400" y1="240" x2="400" y2="190" class="arrowLine"/>
</svg>
