<svg xmlns="http://www.w3.org/2000/svg" width="480" height="360" viewBox="0 0 480 360">
<defs>
<marker id="Triangle" viewBox="0 0 10 10" refX="10" refY="5" markerWidth="6" markerHeight="6" orient="auto">
<path d="M 0 0 L 10 5 L 0 10 z" />
</marker>
<marker id="Triangle2" viewBox="0 0 10 10" refX="5" refY="5" markerWidth="10" markerHeight="10" orient="auto">
<path d="M 0 0 L 10 5 L 0 10 z" />
</marker>
</defs>

<line x1="160" y1="220" x2="320" y2="220" stroke="black" stroke-width="1.5" marker-end="url(#Triangle2)"/>
<line x1="160" y1="220" x2="60" y2="310" stroke="black" stroke-width="1.5" marker-end="url(#Triangle2)"/>
<line x1="160" y1="220" x2="160" y2="60" stroke="black" stroke-width="1.5" marker-end="url(#Triangle2)"/>
<line x1="160" y1="220" x2="280" y2="285" stroke="black" stroke-width="0.5" stroke-dasharray="10 10" marker-end="url(#Triangle2)"/>
<text x="335" y="230" font-size="20" font-family="sans-serif">X</text>
<text x="155" y="45" font-size="20" font-family="sans-serif">Y</text>
<text x="50" y="340" font-size="20" font-family="sans-serif">Z</text>


<line x1="160" y1="220" x2="280" y2="155" stroke="black" stroke-width="1.5" stroke-dasharray="2 2"/>
<line x1="240" y1="40" x2="265" y2="40" stroke="black" stroke-width="1.5" stroke-dasharray="2 2"/>
<text x="275" y="45" font-size="20" font-family="sans-serif">feDistantLight source</text>
<circle cx="280" cy="155" r="3"/>

<path d="M300,220 C300,240 244,267.5 244,267.5 L243.85,267.6" stroke="black" stroke-width="1.5" stroke-dasharray="8 3 2 3 2 3" fill="none" marker-end="url(#Triangle)"/>
<line x1="240" y1="70" x2="265" y2="70" stroke="black" stroke-width="1.5" stroke-dasharray="13 3 2 3 2 3"/>
<text x="275" y="75" font-size="20" font-family="sans-serif">Azimuth</text>

<path d="M232,261 C232,261 232,210 220,187.5" stroke="black" stroke-width="1.5" stroke-dasharray="10 3" fill="none" marker-end="url(#Triangle)"/>
<line x1="240" y1="100" x2="265" y2="100" stroke="black" stroke-width="1.5" stroke-dasharray="10 3"/>
<text x="275" y="105" font-size="20" font-family="sans-serif">Elevation</text>
</svg>