<?xml version="1.0" encoding="UTF-8"?>
<svg xmlns="http://www.w3.org/2000/svg" xmlns:xlink="http://www.w3.org/1999/xlink" viewBox="0 0 480 360">
  <defs>
    <filter id="motionblur" filterUnits="userSpaceOnUse">
      <feGaussianBlur stdDeviation="5 0"/>
    </filter>
    <symbol id="crow" viewBox="0 0 197 190">
      <path d="M 72.566789,186.38448 C 71.202549,184.36785 66.167569,175.06788 61.377949,165.71788 C 56.588329,156.36788 52.650829,149.03965 52.627949,149.43293 C 52.605069,149.82621 53.231819,152.07621 54.020719,154.43293 C 56.134749,160.74826 59.591199,174.77158 59.554549,176.88449 C 59.524869,178.59503 59.416409,178.58387 57.935879,176.71788 C 55.201299,173.27137 45.853349,153.1995 41.635529,141.71788 C 37.663679,130.90581 37.605079,130.81611 38.205719,136.46788 C 38.959899,143.56439 37.583169,143.96813 34.795769,137.46788 C 30.104179,126.52701 28.892829,118.89987 27.609109,92.21788 C 26.579279,70.81278 27.181269,61.74079 30.007419,56.07564 C 31.906109,52.26963 32.139109,52.60152 20.824699,42.99574 C 13.205099,36.52681 11.734279,35.68694 7.1852392,35.20738 L 2.0863492,34.66985 L 7.5863492,32.82094 C 10.611349,31.80405 13.481709,30.60949 13.964929,30.16638 C 15.394959,28.85504 9.7899892,24.44625 4.4291292,22.66566 C 1.6943392,21.75731 -0.28374076,20.75464 0.033389242,20.43751 C 0.35051924,20.12038 7.2421692,19.78442 15.348169,19.69093 C 30.881569,19.51179 34.937409,20.13958 47.086349,24.60361 C 50.936349,26.01826 55.713159,27.18519 57.701489,27.19679 C 65.982349,27.2451 71.556499,17.90344 69.368439,7.6442896 C 67.940739,0.95023961 69.214399,0.010319613 79.726899,2.961339e-05 C 85.523249,-0.0056403866 91.246029,0.80265961 98.391539,2.6362896 C 104.0594,4.0907296 112.29453,5.9632196 116.69184,6.7973796 C 134.01279,10.0831 145.35739,15.11226 132.4653,13.78988 C 123.72653,12.89352 125.97985,14.08978 145.54774,20.73521 C 161.35384,26.10311 174.7538,32.06177 176.16916,34.35187 C 176.71697,35.23824 175.39586,35.37836 170.91088,34.90959 C 167.61644,34.56525 164.05819,34.00702 163.00367,33.66907 C 159.44558,32.52878 164.45052,35.98642 172.8528,40.47328 C 181.01437,44.83161 187.58635,49.6841 187.58635,51.35196 C 187.58635,51.95969 185.75677,52.07923 182.83635,51.6623 C 177.61881,50.91742 177.61253,50.9017 184.83635,56.66751 C 189.29595,60.22701 191.15689,64.23449 188.33635,64.20466 C 187.64885,64.19739 183.75408,62.28489 179.6813,59.95466 C 175.60852,57.62443 170.43352,54.66077 168.1813,53.36875 C 160.24766,48.81749 155.25808,48.53915 153.96805,52.57585 C 153.59155,53.75397 153.17397,57.05515 153.04009,59.91181 C 152.72526,66.62933 148.47286,73.16418 144.39537,73.19653 C 141.27521,73.22129 140.06261,74.55103 141.84736,75.99069 C 143.5779,77.38662 163.91595,85.24612 177.08635,89.60855 C 183.13635,91.61249 189.88635,94.27223 192.08634,95.51908 C 196.03044,97.75438 196.08764,97.86951 196.17774,103.75198 C 196.32804,113.55263 191.83044,119.99235 183.2058,122.3255 C 179.71567,123.26966 178.08026,123.11668 172.50059,121.32412 C 165.62068,119.11384 161.59126,116.76556 147.7546,106.9026 C 143.17214,103.63615 137.09714,100.07812 134.2546,98.99585 L 129.08635,97.0281 L 124.58635,102.12335 C 122.11135,104.92574 119.27183,107.21844 118.2763,107.21824 C 117.28078,107.21804 114.25803,108.66351 111.55908,110.4304 C 108.02382,112.74478 106.47184,114.49211 106.00784,116.6804 C 105.6536,118.35101 104.7976,120.39288 104.10563,121.21788 C 102.12794,123.57575 99.866059,134.66955 99.008439,146.21788 C 98.702099,150.34288 97.981489,154.68231 97.407089,155.86106 C 96.606229,157.50454 96.855109,159.32029 98.474539,163.64858 C 99.636029,166.75296 100.58635,170.19015 100.58635,171.28678 C 100.58635,174.34075 97.802589,174.76966 95.009829,172.14599 L 92.535069,169.82107 L 94.060709,174.1452 C 97.730759,184.54723 95.140999,185.2202 87.992199,175.72216 C 84.864209,171.56625 82.136779,168.33411 81.931259,168.53964 C 81.725729,168.74517 82.756989,171.5332 84.222939,174.73527 C 87.061249,180.93494 87.859979,187.23913 85.894459,187.92805 C 85.215209,188.16613 81.485349,182.83448 77.222469,175.53184 C 73.108409,168.48416 69.042179,161.81788 68.186409,160.71788 C 66.764029,158.88956 66.749579,159.06125 68.018079,162.71788 C 68.781269,164.91788 70.803819,170.06041 72.512649,174.14572 C 77.734689,186.63018 77.767619,194.07236 72.566789,186.38448 z"/>
    </symbol>
  </defs>
  
  <image xlink:href="forest-small.jpg" width="100%" height="100%" filter="url(#motionblur)"/>
  <use xlink:href="#crow" width="25%" height="25%" x="20%" y="40%" transform="rotate(-12)"/>
   
</svg>
