<?xml version="1.0" standalone="no"?>
<!DOCTYPE svg PUBLIC "-//W3C//DTD SVG 1.1//EN" "http://www.w3.org/Graphics/SVG/1.1/DTD/svg11.dtd" >
<svg xmlns="http://www.w3.org/2000/svg">
<defs>
<desc>
Free font by Tup Wanders, http://www.tupwanders.nl, Licensed with a Creative Commons attribution license.
</desc>
<font id="FORQUE" horiz-adv-x="815" >
<font-face  font-family="FORQUE" font-weight="400" font-stretch="normal" units-per-em="2048" panose-1="2 0 5 0 0 0 0 0 0 0" ascent="1638" descent="-410" x-height="1233" cap-height="1434" bbox="-80 -418 1521 1579" underline-thickness="150" underline-position="-142" unicode-range="U+0020-U+20AC"/>
<missing-glyph horiz-adv-x="389" />
<glyph glyph-name=".notdef" horiz-adv-x="389" />
<glyph glyph-name=".null" horiz-adv-x="0" />
<glyph glyph-name="nonmarkingreturn" horiz-adv-x="682" />
<glyph glyph-name="space" unicode=" "  horiz-adv-x="389" />
<glyph glyph-bame="tab" unicode="&#x09;" horiz-adv-x="389" />
<glyph glyph-bame="uni00A0" unicode="&#xa0;" horiz-adv-x="389" />
<glyph glyph-name="exclam" unicode="!" horiz-adv-x="417" d="M298 392h-287v1042h287v-1042zM258 242q-42 42 -102 42q-59 0 -101 -42q-43 -42 -43 -101q0 -60 43 -102q42 -42 101 -42q60 0 102 42t42 102q0 59 -42 101z" />
<glyph glyph-name="quotedbl" unicode="&#x22;" horiz-adv-x="706" d="M257 1392q-42 42 -101 42q-60 0 -102 -42t-42 -101q0 -51 32 -91q32 -39 81 -50q-38 -77 -112 -121q39 1 76 12q77 22 132 80q54 57 73 132q5 19 5 38q0 59 -42 101zM597 1392q-42 42 -101 42q-60 0 -102 -42t-42 -101q0 -51 32 -91q32 -39 81 -50q-38 -77 -112 -121 q39 1 76 12q77 22 132 80q54 57 73 132q5 19 5 38q0 59 -42 101z" />
<glyph glyph-name="numbersign" unicode="#" horiz-adv-x="1336" d="M596 859l-85 -290h242l86 290h-243zM673 1434h93l-141 -477h242l142 477h92l-141 -477h259l-29 -97h-259l-83 -290h279l-30 -98h-280l-140 -472h-92l139 472h-240l-142 -472h-92l140 472h-273l30 98h271l86 290h-295l29 97h295z" />
<glyph glyph-name="dollar" unicode="$" horiz-adv-x="1014" d="M577 1552v-102q68 -8 141 -35q10 -6 19 -6q25 0 41 45h50l103 -282h-49q-60 134 -168 179q-74 30 -137 39v-540q241 -93 322.5 -183t81.5 -264q0 -197 -119.5 -300t-284.5 -120v-239h-73v237q-188 3 -266 38q-10 6 -19 6q-25 0 -41 -45h-50v331h49q50 -183 152.5 -226 t174.5 -43v635q-214 67 -299 153q-92 91 -92 249q0 166 125 271q105 88 266 102v100h73zM577 655v-610q125 17 211.5 96t86.5 219q0 116 -69 183q-62 59 -229 112zM504 873v520q-119 -5 -199 -72q-86 -73 -86 -182q0 -98 55 -153q52 -54 230 -113z" />
<glyph glyph-name="percent" unicode="%" horiz-adv-x="1610" d="M1026 230q-54 53 -54 128q0 76 54 129q53 53 129 53q75 0 128 -53q54 -53 54 -129q0 -75 -54 -128q-53 -54 -128 -54q-76 0 -129 54zM901 612q-106 -105 -106 -254q0 -148 106 -254q105 -105 254 -105q148 0 253 105q106 106 106 254q0 149 -106 254q-105 105 -253 105 q-149 0 -254 -105zM235 939q-53 53 -53 129q0 75 53 128q54 54 129 54q76 0 129 -54q53 -53 53 -128q0 -76 -53 -129t-129 -53q-75 0 -129 53zM110 1322q-105 -106 -105 -254q0 -149 105 -254t254 -105t254 105t105 254q0 148 -105 254q-105 105 -254 105t-254 -105zM320 0 h-304l1200 1434h305z" />
<glyph glyph-name="ampersand" unicode="&#x26;" horiz-adv-x="1138" d="M672 375h-1v-13q0 -30 -21 -51t-51 -21h-237q-30 0 -51 21t-21 51t21 51q21 22 51 22h310v-60zM1041 430v287h-90v214h-286v-214h-307q-29 0 -50 21t-21 51v286q0 30 21 51t50 21q26 0 46 -16l5 -5v0v0l5 -5q-2 2 0 -1q2 -2 4 -5q-1 2 0 0q2 -3 4 -5q-2 2 0 -1q1 -3 3 -6 q-1 0 1 -3l1 -3q0 -1 1 -4q1 -4 1 -3v-5q1 -3 1 -2v-8v-14v-16h287v32q-1 147 -105 252q-104 104 -252 105h-14v0q-145 -6 -245 -109q-101 -105 -101 -250v-288q1 -119 72 -213q-72 -96 -72 -216q0 -148 105 -253t253 -105h236q119 1 214 72q95 -71 214 -72h14v287h-13 q-30 0 -51 21t-21 50v72h90z" />
<glyph glyph-name="asterisk" unicode="*" horiz-adv-x="1024" d="M498 1294q-4 71 -37 130q-37 66 -37 84q0 32 23.5 51.5t62.5 19.5q37 0 61.5 -18t24.5 -47q0 -21 -36 -89q-33 -61 -37 -130q66 25 113 75q51 55 69 61q11 3 21 3q18 0 35 -10q26 -17 38 -53q6 -19 6 -36q0 -15 -4 -28q-10 -30 -38 -38q-6 -2 -19 -2q-25 0 -76 9 q-28 5 -55 5q-41 0 -81 -11q44 -55 105 -83q68 -32 79 -47q13 -18 13 -38q0 -9 -2 -17q-8 -30 -39 -53q-29 -22 -59 -22q-1 0 -1 1q-31 0 -48 23q-12 17 -22 94q-10 67 -47 125q-38 -58 -46 -124q-9 -75 -20 -90q-19 -25 -49 -27h-5q-28 0 -57 21q-30 21 -39 51q-4 10 -4 20 q0 17 11 32q13 17 83 51q61 29 105 82q-41 11 -80 11q-27 0 -53 -5q-54 -11 -78 -11q-9 0 -14 2q-30 9 -41 38q-6 13 -6 29q0 17 6 36q11 35 36 53q17 12 34 12q9 0 18 -3q20 -6 74 -62q47 -49 112 -75z" />
<glyph glyph-name="plus" unicode="+" horiz-adv-x="836" d="M731 573h-215v213h-288v-213h-215v-287h215v-218h288v218h215v287z" />
<glyph glyph-name="comma" unicode="," horiz-adv-x="420" d="M267 242q-42 42 -101 42q-60 0 -102 -42t-42 -101q0 -51 32 -91q32 -39 81 -50q-38 -77 -112 -121q39 1 76 12q77 22 132 80q54 57 73 132q5 19 5 38q0 59 -42 101z" />
<glyph glyph-name="uni00AD" unicode="-" horiz-adv-x="824" d="M10 573h718v-287h-718v287z" />
<glyph glyph-name="uni00AD" unicode="&#xad;" horiz-adv-x="824" d="M10 573h718v-287h-718v287z" />
<glyph glyph-name="period" unicode="." horiz-adv-x="414" d="M251 242q-42 42 -101 42q-60 0 -102 -42t-42 -101q0 -60 42 -102t102 -42q59 0 101 42t42 102q0 59 -42 101z" />
<glyph glyph-name="slash" unicode="/" horiz-adv-x="569" d="M93 -50h-80l541 1484h80z" />
<glyph glyph-name="zero" unicode="0" horiz-adv-x="821" d="M440 329q0 -30 -21 -51t-51 -21q-29 0 -50 21t-21 50v778q0 29 21 50t50 21q30 0 51 -21t21 -50v-777zM727 1107q-1 148 -106 253q-105 104 -253 104q-147 0 -252 -104t-106 -251v-784q1 -147 106 -251t252 -104q148 0 253 104q105 105 106 253v0v780v0z" />
<glyph glyph-name="one" unicode="1" horiz-adv-x="476" d="M385 1107q0 148 -105 252q-104 104 -252 105h-14v-287h13q30 0 51 -21t21 -50v-1106h286v1107z" />
<glyph glyph-name="two" unicode="2" horiz-adv-x="818" d="M108 1359q-105 -105 -105 -253v-146h287v146q0 29 21 50t50 21q30 0 51 -21t21 -50v-317q0 -30 -21 -51t-50 -21h-13v0q-144 -5 -245 -109q-100 -104 -101 -248v-360h717v287h-430v72q0 29 21 50t50 21h13v1q144 5 245 108q100 104 101 248v319q0 148 -105 253t-254 105 q-148 0 -253 -105z" />
<glyph glyph-name="three" unicode="3" horiz-adv-x="818" d="M375 1464h-14q-148 -1 -252 -105t-105 -252v0v-8v-140h287v132v0v15v7q0 -1 1 2v5q0 -1 1 3q1 3 1 4l1 3q2 4 1 3q2 3 3 6q1 1 0 1q2 2 4 5q1 2 0 1q1 2 4 4q1 2 0 1q2 3 5 5v0q2 3 5 5v0q20 16 45 16h1q29 0 50 -21t21 -50v-317q0 -30 -21 -51t-50 -21h-172v-287h172 q29 0 50 -21t21 -50q0 -30 -21 -51t-50 -21h-359v-287h359q148 0 253 105t105 254q0 119 -72 215q72 94 72 213v319q0 145 -101 249q-100 104 -245 109v0z" />
<glyph glyph-name="four" unicode="4" horiz-adv-x="877" d="M323 575l113 244v-244h-113zM836 575h-113v859h-287l-430 -859v0v-286h430v-289h287v289h113v286z" />
<glyph glyph-name="five" unicode="5" horiz-adv-x="818" d="M727 1147v287h-717v-717h358q30 0 51 -21t21 -51v-316q0 -30 -21 -51t-51 -21q-29 0 -50 21t-21 51v151h-287v-151q0 -149 105 -254t253 -105q149 0 254 105t105 254v318q-1 147 -105 252q-104 104 -252 105h-73v143h430z" />
<glyph glyph-name="six" unicode="6" d="M369 717q30 0 51 -21t21 -51v-316q0 -30 -21 -51t-51 -21q-29 0 -50 21t-21 51v388h71zM298 1076q0 29 21 50t50 21h359v287h-360q-148 -1 -252 -105t-105 -252v-748q0 -149 105 -254t253 -105q149 0 254 105t105 254v318q-1 147 -105 252q-104 104 -252 105h-73v72z" />
<glyph glyph-name="seven" unicode="7" horiz-adv-x="762" d="M23 1434v-287h335l-351 -1147h297l438 1434h-719z" />
<glyph glyph-name="eight" unicode="8" d="M298 1106q0 29 21 50t50 21q30 0 51 -21t21 -50v-317q0 -30 -21 -51t-50 -21h-1q-29 0 -50 21t-21 51v317zM319 278q-21 21 -21 80q0 30 21 51t50 21h1q29 0 50 -21t21 -50q0 -60 -21 -81t-51 -21q-29 0 -50 21zM11 314q6 -144 110 -244t248 -100q145 0 249 100t110 244 v0v59v0q-5 112 -72 201q72 95 72 215v317q0 148 -105 253t-254 105q-148 0 -253 -105t-105 -253v-317q0 -120 72 -215q-67 -89 -72 -201v0v-59v0z" />
<glyph glyph-name="nine" unicode="9" d="M366 717q-30 0 -51 21t-21 51v317q0 29 21 50t50 21q30 0 51 -21t21 -50v-389h-71zM437 359q0 -30 -21 -51t-50 -21h-359v-287h360q148 1 252 105t105 252v749q0 148 -105 253t-254 105q-148 0 -253 -105t-105 -253v-319q1 -147 105 -252q104 -104 252 -105h73v-71z" />
<glyph glyph-name="colon" unicode=":" horiz-adv-x="407" d="M251 881q-42 42 -101 42q-60 0 -102 -42t-42 -102q0 -59 42 -101t102 -42q59 0 101 42t42 101q0 60 -42 102zM251 242q-42 42 -101 42q-60 0 -102 -42t-42 -101q0 -60 42 -102t102 -42q59 0 101 42t42 102q0 59 -42 101z" />
<glyph glyph-name="uni037E" unicode=";" horiz-adv-x="404" d="M257 242q42 -42 42 -101q0 -19 -5 -38q-20 -76 -73 -132q-55 -58 -132 -80q-37 -11 -76 -12q74 44 112 121q-49 11 -81 50q-32 40 -32 91q0 59 42 101t102 42q59 0 101 -42zM257 881q42 -42 42 -102q0 -59 -42 -101t-101 -42q-60 0 -102 42t-42 101q0 60 42 102t102 42 q59 0 101 -42z" />
<glyph glyph-name="equal" unicode="=" horiz-adv-x="833" d="M10 353h718v-287h-718v287zM10 763h718v-287h-718v287z" />
<glyph glyph-name="question" unicode="?" horiz-adv-x="748" d="M264 242q-42 -42 -42 -101q0 -60 42 -102t102 -42q59 0 101 42t42 102q0 59 -42 101t-101 42q-60 0 -102 -42zM377 1464l-14 -1q-148 0 -253 -105q-104 -104 -105 -252v-148h287v146q0 4 1 8q0 -1 0 2q1 4 1 5q0 -1 0 3q1 3 1 4l2 3l1 3q1 3 3 6q1 2 0 1q1 2 3 5v0l1 1 q1 2 3 4q1 2 1 1q2 3 4 5v0l5 5q20 16 46 16v0q30 0 51 -21t21 -51v-221q0 -29 -21 -50t-51 -21h-144v-420h288v162q96 42 155 130q60 90 60 198v222q0 146 -101 250t-245 109v1z" />
<glyph glyph-name="A" unicode="A" d="M287 574v531q0 30 21 51t51 21q29 0 50 -21t21 -51v-531h-143zM105 1359q-105 -105 -105 -254v-1105h287v287h143v-287h287v1105q0 149 -105 254t-253 105q-149 0 -254 -105z" />
<glyph glyph-name="B" unicode="B" d="M409 308q-21 -21 -50 -21h-72v143h72q29 0 50 -21t21 -50q0 -30 -21 -51zM287 1147h71h2q29 0 50 -21q20 -21 20 -50v-287q0 -30 -21 -51t-50 -21h-72v430zM717 784v9v0v285q-1 148 -106 252t-252 104h-359v-1434h361q146 1 250 104q104 104 106 250v0v9v0 q-2 117 -72 211q70 93 72 210v0z" />
<glyph glyph-name="C" unicode="C" horiz-adv-x="796" d="M430 472v-143q0 -30 -21 -51t-50 -21q-30 0 -51 21t-21 51v777q0 29 21 50t51 21q29 0 50 -21t21 -50v-144h287v145q-1 148 -106 253q-105 104 -252 104q-148 0 -253 -104t-106 -251v0v-784v0q1 -147 106 -251t253 -104q147 0 252 104q105 105 106 253v145h-287z" />
<glyph glyph-name="D" unicode="D" d="M430 359q0 -30 -21 -51t-50 -21h-72v860h72q29 0 50 -21t21 -50v-717zM717 1077q-1 148 -105 252t-252 105h-360v-1434h360q148 1 252 105t105 252v720z" />
<glyph glyph-name="E" unicode="E" horiz-adv-x="721" d="M632 1147v287h-631v-1435h631v287h-344v144h287v287h-287v430h344z" />
<glyph glyph-name="F" unicode="F" horiz-adv-x="712" d="M634 1147v287h-631v-1435h287v431h287v287h-287v430h344z" />
<glyph glyph-name="G" unicode="G" horiz-adv-x="818" d="M376 1464h-15q-148 -1 -252 -105q-104 -105 -105 -252v-770q1 -148 105 -253q104 -104 252 -105h15l345 16v702h-355v-287h68v-144h-71q-30 0 -51 21t-21 51v767v8q0 -1 1 2v5q0 -1 1 3q1 3 1 4l1 3q2 4 2 3l2 6l1 1q1 2 3 4v1l4 6l3.5 3.5l1.5 1.5q2 3 5 5q20 16 46 16 q29 0 50 -21t21 -51v-146h287v146q0 145 -101 250q-100 104 -244 109v0z" />
<glyph glyph-name="H" unicode="H" horiz-adv-x="818" d="M428 1434v-869h-143v869h-287v-1435h287v279h143v-279h287v1435h-287z" />
<glyph glyph-name="I" unicode="I" horiz-adv-x="389" d="M285 -1h-287v1435h287v-1435z" />
<glyph glyph-name="J" unicode="J" horiz-adv-x="398" d="M5 1434v-1440q0 -30 -21 -51t-51 -21h-13v-287h14q148 1 252 105q105 105 106 252v1442h-287z" />
<glyph glyph-name="K" unicode="K" horiz-adv-x="855" d="M717 359v0q-18 127 -112 226q76 91 92 202l91 647h-287l-91 -646q-4 -29 -28 -50t-54 -21h-41v717h-287v-1435h287v431h62q29 0 53 -21t28 -51l2 -13l49 -346h287l-50 353z" />
<glyph glyph-name="L" unicode="L" horiz-adv-x="700" d="M294 286v1148h-287v-1435h631v287h-344z" />
<glyph glyph-name="M" unicode="M" horiz-adv-x="1253" d="M1152 1105q0 148 -105 253t-253 105q-120 0 -215 -72q-90 68 -202 72v0h-14q-148 -1 -252 -105t-105 -252v-1105h286v1104q0 4 1 7v3q1 3 1 4l1 3q0 4 1 4l1 4l1 3q1 2 3 5q0 2 0 1q1 2 3 5q3 4 1 1q1 2 3 5h1v1l4 4v1q3 2 5 4q20 17 46 17v0q30 0 51 -21t21 -51v-1104 h286v1104q0 30 21 51t51 21q29 0 50 -21t21 -51v-1104h287v1104z" />
<glyph glyph-name="N" unicode="N" horiz-adv-x="818" d="M438 1433v-343l-144 336v7h-286v-1432h286v841l144 -336v-505h286v1432h-286z" />
<glyph glyph-name="O" unicode="O" d="M442 329q0 -30 -21 -51t-51 -21t-51 21t-21 51v776q0 30 21 51t51 21t51 -21q20 -21 21 -51v-776zM728 1107q-1 148 -106 252q-104 104 -252 104q-147 0 -252 -104q-105 -103 -106 -251v-783q1 -147 106 -250q105 -104 252 -104q148 0 252 104q105 104 106 252v780z" />
<glyph glyph-name="P" unicode="P" horiz-adv-x="805" d="M440 789q0 -30 -21 -51t-51 -21h-72v430h72q30 0 51 -21t21 -51v-286zM726 1076q-1 148 -105 252t-252 105h-359v-1432h286v430h73q148 0 252 104q104 105 105 252v289z" />
<glyph glyph-name="Q" unicode="Q" horiz-adv-x="812" d="M289 1105q0 30 21 51t51 21t51 -21t21 -51v-776q0 -30 -21 -51t-51 -21t-51 21t-21 51v776zM719 1107q-1 148 -105 252q-105 104 -253 104q-147 0 -252 -104q-105 -103 -106 -251v0v-783v0q1 -108 62 -198q60 -87 157 -128q8 -142 111 -240q103 -99 245 -99h15v286h-13 q-26 0 -46 17q-19 16 -24 40q93 43 150 129q58 89 59 195v780z" />
<glyph glyph-name="R" unicode="R" horiz-adv-x="812" d="M291 716v430h71q30 0 51 -21t21 -50v-287q0 -30 -21 -51q-21 -20 -51 -21h-71zM720 352l-1 8q-15 106 -86 194q87 100 87 233v289q0 148 -104 252q-105 104 -252 105h-360v-1433h287v430h60q29 0 53 -21t29 -51l1 -13l49 -345h286z" />
<glyph glyph-name="S" unicode="S" horiz-adv-x="799" d="M379 1463h-14q-148 -1 -252 -105t-105 -252v-319q1 -144 101 -248q100 -103 243 -109v0h14q30 0 51 -21t21 -51q0 -29 -21 -50t-51 -21h-358v-287h358q149 0 254 105q104 105 104 253q0 145 -100 249q-101 104 -245 109v0l-13 1q-29 0 -50 20q-21 21 -21 51v317v7v3 q1 3 1 4l1 3l1 4l1 4l1 3q1 2 3 5q1 2 0 1q1 2 3 5h1v1q1 2 3 5h1v0q2 3 4 5h1q2 3 5 5q19 16 45 16v0q30 0 51 -21t21 -50v-147h286v147q0 145 -100 249q-101 104 -245 109v0z" />
<glyph glyph-name="T" unicode="T" horiz-adv-x="724" d="M693 1433h-716v-287h213v-1146h286v1146h217v287z" />
<glyph glyph-name="U" unicode="U" horiz-adv-x="821" d="M436 1433v-1105q0 -29 -21 -50t-51 -21q-29 0 -50 21t-21 50v1105h-287v-1105q0 -148 105 -253t253 -105q149 0 254 105q104 105 104 253v1105h-286z" />
<glyph glyph-name="V" unicode="V" horiz-adv-x="939" d="M575 1433l-125 -944l-164 944h-287l276 -1433h333l279 1433h-312z" />
<glyph glyph-name="W" unicode="W" horiz-adv-x="1256" d="M9 328q0 -148 105 -253t253 -105q120 0 215 72q90 -68 202 -72v0h15q147 1 251 105q105 104 105 252v1106h-286v-1105q0 -3 -1 -7q1 1 0 -3q0 -3 -1 -4q1 1 0 -3l-1 -4l-2 -4l-1 -3q-1 -2 -3 -5q0 -2 0 -1q-1 -2 -3 -5q-1 -2 0 -1q-2 -2 -4 -5q-2 -2 -1 0q-2 -3 -4 -5v0 l-5 -5q-20 -16 -46 -16v0q-30 0 -51 21q-20 21 -21 50v1105h-286v-1105q0 -29 -21 -50t-51 -21q-29 0 -50 21t-21 50v1105h-287v-1105z" />
<glyph glyph-name="X" unicode="X" horiz-adv-x="958" d="M818 360q-18 126 -112 224q76 92 92 203l91 646h-286l-91 -645q-8 -55 -63 -69q-56 14 -64 69l-90 645h-287l91 -646v0q16 -111 92 -203q-94 -98 -112 -224v0l-1 -8l-50 -352h287l48 345l2 13q4 30 28 51t54 21h3q30 0 54 -21t28 -51l2 -13l48 -345h287l-50 352z" />
<glyph glyph-name="Y" unicode="Y" horiz-adv-x="812" d="M443 1433v-645q0 -30 -21 -51t-51 -21q-29 0 -50 21t-21 51v645h-287v-645q0 -109 61 -200q59 -88 157 -129v-459h286v461q96 43 153 130q59 89 59 197v645h-286z" />
<glyph glyph-name="Z" unicode="Z" horiz-adv-x="793" d="M735 1433h-728v-287h354l-350 -1146h716v287h-342z" />
<glyph glyph-name="a" unicode="a" d="M287 574v331q0 30 21 51t51 21q29 0 50 -21t21 -51v-331h-143zM105 1159q-105 -105 -105 -254v-905h287v287h143v-287h287v905q0 149 -105 254t-253 105q-149 0 -254 -105z" />
<glyph glyph-name="b" unicode="b" d="M409 308q-21 -21 -50 -21h-72v143h72q29 0 50 -21t21 -50q0 -30 -21 -51zM287 947h71h2q29 0 50 -21q20 -21 20 -50v-87q0 -30 -21 -51t-50 -21h-72v230zM717 784v9v0v85q-1 148 -106 252t-252 104h-359v-1234h361q146 1 250 104q104 104 106 250v0v9v0q-2 117 -72 211 q70 93 72 210v0z" />
<glyph glyph-name="c" unicode="c" horiz-adv-x="796" d="M430 462v-143q0 -30 -21 -51t-50 -21q-30 0 -51 21t-21 51v597q0 29 21 50t51 21q29 0 50 -21t21 -50v-144h287v145q-1 148 -106 253q-105 104 -252 104q-148 0 -253 -104t-106 -251v0v-604v0q1 -147 106 -251t253 -104q147 0 252 104q105 105 106 253v145h-287z" />
<glyph glyph-name="d" unicode="d" d="M430 359q0 -30 -21 -51t-50 -21h-72v660h72q29 0 50 -21t21 -50v-517zM717 877q-1 148 -105 252t-252 105h-360v-1234h360q148 1 252 105t105 252v520z" />
<glyph glyph-name="e" unicode="e" horiz-adv-x="721" d="M632 947v287h-631v-1235h631v287h-344v144h287v287h-287v230h344z" />
<glyph glyph-name="f" unicode="f" horiz-adv-x="712" d="M634 947v287h-631v-1235h287v431h287v287h-287v230h344z" />
<glyph glyph-name="g" unicode="g" horiz-adv-x="818" d="M376 1264h-15q-148 -1 -252 -105q-104 -105 -105 -252v-580q1 -148 105 -253q104 -104 252 -105h15l345 16v672h-355v-287h68v-114h-71q-30 0 -51 21t-21 51v577v8q0 -1 1 2v5q0 -1 1 3q1 3 1 4l1 3q2 4 2 3l2 6l1 1q1 2 3 4v1l4 6l3.5 3.5l1.5 1.5q2 3 5 5q20 16 46 16 q29 0 50 -21t21 -51v-146h287v146q0 145 -101 250q-100 104 -244 109v0z" />
<glyph glyph-name="h" unicode="h" horiz-adv-x="818" d="M428 1234v-669h-143v669h-287v-1235h287v279h143v-279h287v1235h-287z" />
<glyph glyph-name="i" unicode="i" horiz-adv-x="389" d="M285 -1h-287v1235h287v-1235z" />
<glyph glyph-name="j" unicode="j" horiz-adv-x="398" d="M5 1234v-1240q0 -30 -21 -51t-51 -21h-13v-287h14q148 1 252 105q105 105 106 252v1242h-287z" />
<glyph glyph-name="k" unicode="k" horiz-adv-x="855" d="M717 359v0q-18 127 -112 226q76 91 92 202l91 447h-287l-91 -446q-4 -29 -28 -50t-54 -21h-41v517h-287v-1235h287v431h62q29 0 53 -21t28 -51l2 -13l49 -346h287l-50 353z" />
<glyph glyph-name="l" unicode="l" horiz-adv-x="700" d="M294 286v948h-287v-1235h631v287h-344z" />
<glyph glyph-name="m" unicode="m" horiz-adv-x="1253" d="M1152 905q0 148 -105 253t-253 105q-120 0 -215 -72q-90 68 -202 72v0h-14q-148 -1 -252 -105t-105 -252v-905h286v904q0 4 1 7v3q1 3 1 4l1 3q0 4 1 4l1 4l1 3q1 2 3 5q0 2 0 1q1 2 3 5q3 4 1 1q1 2 3 5h1v1l4 4v1q3 2 5 4q20 17 46 17v0q30 0 51 -21t21 -51v-904h286 v904q0 30 21 51t51 21q29 0 50 -21t21 -51v-904h287v904z" />
<glyph glyph-name="n" unicode="n" horiz-adv-x="818" d="M438 1233v-343l-144 336v7h-286v-1232h286v641l144 -336v-305h286v1232h-286z" />
<glyph glyph-name="o" unicode="o" d="M442 329q0 -30 -21 -51t-51 -21t-51 21t-21 51v576q0 30 21 51t51 21t51 -21q20 -21 21 -51v-576zM728 907q-1 148 -106 252q-104 104 -252 104q-147 0 -252 -104q-105 -103 -106 -251v-583q1 -147 106 -250q105 -104 252 -104q148 0 252 104q105 104 106 252v580z" />
<glyph glyph-name="p" unicode="p" horiz-adv-x="805" d="M440 789q0 -30 -21 -51t-51 -21h-72v230h72q30 0 51 -21t21 -51v-86zM726 876q-1 148 -105 252t-252 105h-359v-1232h286v430h73q148 0 252 104q104 105 105 252v89z" />
<glyph glyph-name="q" unicode="q" horiz-adv-x="812" d="M289 905q0 30 21 51t51 21t51 -21t21 -51v-576q0 -30 -21 -51t-51 -21t-51 21t-21 51v576zM719 907q-1 148 -105 252q-105 104 -253 104q-147 0 -252 -104q-105 -103 -106 -251v0v-583v0q1 -108 62 -198q60 -87 157 -128q8 -142 111 -240q103 -99 245 -99h15v286h-13 q-26 0 -46 17q-19 16 -24 40q93 43 150 129q58 89 59 195v580z" />
<glyph glyph-name="r" unicode="r" horiz-adv-x="812" d="M291 716v230h71q30 0 51 -21t21 -50v-87q0 -30 -21 -51q-21 -20 -51 -21h-71zM720 352l-1 8q-15 106 -86 194q87 100 87 233v89q0 148 -104 252q-105 104 -252 105h-360v-1233h287v430h60q29 0 53 -21t29 -51l1 -13l49 -345h286z" />
<glyph glyph-name="s" unicode="s" horiz-adv-x="799" d="M379 1263h-14q-148 -1 -252 -105t-105 -252v-119q1 -144 101 -248q100 -103 243 -109v0h14q30 0 51 -21t21 -51q0 -29 -21 -50t-51 -21h-358v-287h358q149 0 254 105q104 105 104 253q0 145 -100 249q-101 104 -245 109v0l-13 1q-29 0 -50 20q-21 21 -21 51v117v7v3 q1 3 1 4l1 3l1 4l1 4l1 3q1 2 3 5q1 2 0 1q1 2 3 5h1v1q1 2 3 5h1v0q2 3 4 5h1q2 3 5 5q19 16 45 16v0q30 0 51 -21t21 -50v-147h286v147q0 145 -100 249q-101 104 -245 109v0z" />
<glyph glyph-name="t" unicode="t" horiz-adv-x="724" d="M693 1233h-716v-287h213v-946h286v946h217v287z" />
<glyph glyph-name="u" unicode="u" horiz-adv-x="821" d="M436 1233v-905q0 -29 -21 -50t-51 -21q-29 0 -50 21t-21 50v905h-287v-905q0 -148 105 -253t253 -105q149 0 254 105q104 105 104 253v905h-286z" />
<glyph glyph-name="v" unicode="v" horiz-adv-x="939" d="M575 1233l-125 -744l-164 744h-287l276 -1233h333l279 1233h-312z" />
<glyph glyph-name="w" unicode="w" horiz-adv-x="1256" d="M9 328q0 -148 105 -253t253 -105q120 0 215 72q90 -68 202 -72v0h15q147 1 251 105q105 104 105 252v906h-286v-905q0 -3 -1 -7q1 1 0 -3q0 -3 -1 -4q1 1 0 -3l-1 -4l-2 -4l-1 -3q-1 -2 -3 -5q0 -2 0 -1q-1 -2 -3 -5q-1 -2 0 -1q-2 -2 -4 -5q-2 -2 -1 0q-2 -3 -4 -5v0 l-5 -5q-20 -16 -46 -16v0q-30 0 -51 21q-20 21 -21 50v905h-286v-905q0 -29 -21 -50t-51 -21q-29 0 -50 21t-21 50v905h-287v-905z" />
<glyph glyph-name="x" unicode="x" horiz-adv-x="958" d="M818 360q-18 126 -112 224q76 92 92 203l91 446h-286l-91 -445q-8 -55 -63 -69q-56 14 -64 69l-90 445h-287l91 -446v0q16 -111 92 -203q-94 -98 -112 -224v0l-1 -8l-50 -352h287l48 345l2 13q4 30 28 51t54 21h3q30 0 54 -21t28 -51l2 -13l48 -345h287l-50 352z" />
<glyph glyph-name="y" unicode="y" horiz-adv-x="812" d="M443 1233v-445q0 -30 -21 -51t-51 -21q-29 0 -50 21t-21 51v445h-287v-445q0 -109 61 -200q59 -88 157 -129v-459h286v461q96 43 153 130q59 89 59 197v445h-286z" />
<glyph glyph-name="z" unicode="z" horiz-adv-x="793" d="M735 1233h-728v-287h314l-310 -946h716v287h-302z" />
<glyph glyph-name="bar" unicode="|" horiz-adv-x="1014" d="M427 1577h160v-1995h-160v1995z" />
<glyph glyph-name="brokenbar" unicode="&#xa6;" horiz-adv-x="1014" d="M427 371h160v-789h-160v789zM427 1578h160v-789h-160v789z" />
<glyph glyph-name="multiply" unicode="&#xd7;" horiz-adv-x="908" d="M810 324l-167 167l165 165l-222 222l-165 -165l-167 167l-222 -222l167 -167l-169 -169l222 -222l169 169l167 -167z" />
<glyph glyph-name="quoteleft" unicode="&#x2018;" horiz-adv-x="401" d="M52 1198q42 -42 102 -42q59 0 101 42t42 101q0 51 -32 91q-32 39 -81 50q39 77 112 121q-39 -1 -76 -12q-77 -22 -132 -80q-54 -57 -73 -132q-5 -19 -5 -38q0 -59 42 -101z" />
<glyph glyph-name="quoteright" unicode="&#x2019;" horiz-adv-x="404" d="M257 1392q-42 42 -101 42q-60 0 -102 -42t-42 -101q0 -51 32 -91q32 -39 81 -50q-38 -77 -112 -121q39 1 76 12q77 22 132 80q54 57 73 132q5 19 5 38q0 59 -42 101z" />
<glyph glyph-name="quotesinglbase" unicode="&#x201a;" horiz-adv-x="420" d="M267 242q-42 42 -101 42q-60 0 -102 -42t-42 -101q0 -51 32 -91q32 -39 81 -50q-38 -77 -112 -121q39 1 76 12q77 22 132 80q54 57 73 132q5 19 5 38q0 59 -42 101z" />
<glyph glyph-name="quotedblleft" unicode="&#x201c;" horiz-adv-x="734" d="M392 1198q42 -42 101 -42q60 0 102 42t42 101q0 51 -32 91q-32 39 -81 50q38 77 112 121q-39 -1 -76 -12q-77 -22 -132 -80q-54 -57 -73 -132q-5 -19 -5 -38q0 -59 42 -101zM52 1198q42 -42 101 -42q60 0 102 42t42 101q0 51 -32 91q-32 39 -81 50q38 77 112 121 q-39 -1 -76 -12q-77 -22 -132 -80q-54 -57 -73 -132q-5 -19 -5 -38q0 -59 42 -101z" />
<glyph glyph-name="quotedblright" unicode="&#x201d;" horiz-adv-x="706" d="M257 1392q-42 42 -101 42q-60 0 -102 -42t-42 -101q0 -51 32 -91q32 -39 81 -50q-38 -77 -112 -121q39 1 76 12q77 22 132 80q54 57 73 132q5 19 5 38q0 59 -42 101zM597 1392q-42 42 -101 42q-60 0 -102 -42t-42 -101q0 -51 32 -91q32 -39 81 -50q-38 -77 -112 -121 q39 1 76 12q77 22 132 80q54 57 73 132q5 19 5 38q0 59 -42 101z" />
<glyph glyph-name="quotedblbase" unicode="&#x201e;" horiz-adv-x="737" d="M267 242q-42 42 -101 42q-60 0 -102 -42t-42 -101q0 -51 32 -91q32 -39 81 -50q-38 -77 -112 -121q39 1 76 12q77 22 132 80q54 57 73 132q5 19 5 38q0 59 -42 101zM597 242q-42 42 -101 42q-60 0 -102 -42t-42 -101q0 -51 32 -91q32 -39 81 -50q-38 -77 -112 -121 q39 1 76 12q77 22 132 80q54 57 73 132q5 19 5 38q0 59 -42 101z" />
<glyph glyph-name="bullet" unicode="&#x2022;" horiz-adv-x="1024" d="M216 718q0 123 87 209t210 86q122 0 208.5 -86.5t86.5 -208.5t-87.5 -209.5t-209.5 -87.5q-123 0 -209 87t-86 210z" />
<glyph glyph-name="ellipsis" unicode="&#x2026;" horiz-adv-x="1213" d="M251 242q-42 42 -101 42q-60 0 -102 -42t-42 -101q0 -60 42 -102t102 -42q59 0 101 42t42 102q0 59 -42 101zM651 242q-42 42 -101 42q-60 0 -102 -42t-42 -101q0 -60 42 -102t102 -42q59 0 101 42t42 102q0 59 -42 101zM1051 242q-42 42 -101 42q-60 0 -102 -42 t-42 -101q0 -60 42 -102t102 -42q59 0 101 42t42 102q0 59 -42 101z" />
<glyph glyph-name="Euro" unicode="&#x20ac;" horiz-adv-x="939" d="M833 574v287h-445v214q0 30 21 51t51 21q29 0 50 -21t21 -51v-143h287v145q-1 148 -106 252q-105 105 -252 105q-148 0 -253 -104q-104 -104 -106 -251v-218h-101v-287h101v-219q2 -147 106 -251q105 -104 253 -104q147 0 252 104q105 105 106 252v146h-287v-144 q0 -29 -21 -50t-50 -21q-30 0 -51 21t-21 50v216h445z" />
</font>
</defs>
</svg>
