<!-- vim: set expandtab ts=2 sw=2 tw=80: -->
<svg xmlns="http://www.w3.org/2000/svg"
  xmlns:xlink="http://www.w3.org/1999/xlink"
  width="100%" height="100%" viewBox="35 148 425 455">
  <defs>
    <style type="text/css">
    svg {
      font-size: 18px;
      font-family: sans-serif;
    }

    /*
     * Line work
     */
    .arrowLine {
      stroke: black;
      stroke-width: 1.5;
      fill: none;
      marker-end: url(#arrow);
    }
    </style>

    <!-- Arrows -->
    <style type="text/css">
      .blackArrowHead {
        fill: black;
        stroke: none;
      }
    </style>
    <marker id="arrow" viewBox="0 -5 10 10" orient="auto" markerWidth="5"
      markerHeight="5">
      <path d="M0-5l10 5l-10 5z" class="blackArrowHead"/>
    </marker>
    <marker id="reverseArrow" viewBox="-10 -5 10 10" orient="auto"
      markerWidth="5" markerHeight="5">
      <path d="M0-5l-10 5l10 5z" class="blackArrowHead"/>
    </marker>

    <!-- Star -->
    <style type="text/css">
      .startTimeStar {
        stroke: blue;
        stroke-linecap: round;
        stroke-width: 2;
        fill: none;
      }
    </style>
    <path d="M-3.5-3.5l7 7M3.5-3.5l-7 7M0-5v10M-5 0h10"
      class="startTimeStar" id="star"/>

    <!-- Document -->
    <style type="text/css">
      .document {
        fill: lightgreen;
        stroke: black;
        stroke-width: 2;
      }
    </style>
    <g id="document">
      <path d="M0 0h100v70c-20-8-30-8-50 0s-30 8-50 0z" class="document"/>
      <g transform="translate(50 40)">
        <text text-anchor="middle">Timeline</text>
      </g>
    </g>

    <!-- Animation -->
    <style type="text/css">
      .animation {
        fill: plum;
        stroke: black;
        stroke-width: 2;
      }
    </style>
    <g id="animation">
      <path d="M-40-45v90l100-45z" class="animation"/>
      <text y="0.3em" text-anchor="middle" font-size="0.8em">Animation</text>
    </g>

    <!-- Effect -->
    <style type="text/css">
      .effect {
        fill: paleturquoise;
        stroke: black;
        stroke-width: 2;
      }
    </style>
    <g id="effect">
      <ellipse rx="60" ry="40" class="effect"/>
      <text y="0.3em" text-anchor="middle">Effect</text>
    </g>

    <!-- Group -->
    <style type="text/css">
      .group {
        fill: navajowhite;
        stroke: black;
        stroke-width: 2;
      }
    </style>
    <g id="group">
      <rect x="-60" y="-35" width="120" height="70" rx="10" ry="10"
        class="group"/>
      <text y="-0.2em" text-anchor="middle">Group<tspan x="0"
        dy="1em">effect</tspan></text>
    </g>
  </defs>
  <!-- Document timelines -->
  <use x="150" y="150" xlink:href="#document"/>

  <!-- Animation and effect -->
  <use x="100" y="300" xlink:href="#animation"/>
  <line x1="130" y1="288" x2="180" y2="235" class="arrowLine"/>
  <use x="100" y="430" xlink:href="#effect"/>
  <line x1="100" y1="390" x2="100" y2="340" class="arrowLine"/>

  <!-- Group and animation -->
  <use x="310" y="300" xlink:href="#animation"/>
  <line x1="270" y1="300" x2="220" y2="235" class="arrowLine"/>
  <use x="305" y="430" xlink:href="#group"/>
  <line x1="305" y1="395" x2="305" y2="340" class="arrowLine"/>

  <!-- Animation children -->
  <use x="225" y="560" xlink:href="#effect"/>
  <line x1="225" y1="520" x2="255" y2="475" class="arrowLine"/>
  <use x="395" y="560" xlink:href="#effect"/>
  <line x1="395" y1="520" x2="355" y2="475" class="arrowLine"/>
</svg>
