<svg xmlns="http://www.w3.org/2000/svg" xmlns:xlink="http://www.w3.org/1999/xlink" xmlns:lucid="lucid" width="720" height="460"><g transform="translate(-480 -140)" lucid:page-tab-id="0_0"><path d="M680 160h160v60H680z" stroke="#0c7cba" stroke-width="2" fill="#fff"/><use xlink:href="#a" transform="matrix(1,0,0,1,685,165) translate(27.200000000000003 28.6)"/><path d="M500 280h160v60H500z" stroke="#5abaa7" stroke-width="2" fill="#fff"/><use xlink:href="#b" transform="matrix(1,0,0,1,505,285) translate(13.724999999999994 28.6)"/><path d="M815.2 280h160v60h-160z" stroke="#0c7cba" stroke-width="2" fill="#fff"/><use xlink:href="#a" transform="matrix(1,0,0,1,820.1999999999999,285) translate(27.200000000000003 28.6)"/><path d="M580 400h160v60H580z" stroke="#0c7cba" stroke-width="2" fill="#fff"/><use xlink:href="#a" transform="matrix(1,0,0,1,585,405) translate(27.200000000000003 28.6)"/><path d="M815.2 400h160v60h-160z" stroke="#5abaa7" stroke-width="2" fill="#fff"/><use xlink:href="#b" transform="matrix(1,0,0,1,820.1999999999999,405) translate(13.724999999999994 28.6)"/><path d="M580 520h160v60H580z" stroke="#5abaa7" stroke-width="2" fill="#fff"/><use xlink:href="#b" transform="matrix(1,0,0,1,585,525) translate(13.724999999999994 28.6)"/><path d="M1020 400h160v60h-160z" stroke="#5abaa7" stroke-width="2" fill="#fff"/><use xlink:href="#b" transform="matrix(1,0,0,1,1025,405) translate(13.724999999999994 28.6)"/><path d="M729.8 221.5l-84.4 48.3" stroke="#000" stroke-width="2" fill="none"/><path d="M730.27 222.38l-.8-1.38h3.2z"/><path d="M632.14 277.4l10.08-11.12 4.6 8.05z" stroke="#000" stroke-width="2"/><path d="M859.07 341.36l-132.47 51" stroke="#000" stroke-width="2" fill="none"/><path d="M859.4 342.3l-.5-1.3h3.88zM727.33 397.04l-14.98.8L724 388.4z"/><path d="M728.76 397.96L709.33 399l15.1-12.26zm-13.4-1.3l10.54-.55-2.34-6.07z"/><path d="M660 462v38.5" stroke="#000" stroke-width="2" fill="none"/><path d="M661 462.03h-2V461h2z"/><path d="M660 515.76l-4.64-14.26h9.28z" stroke="#000" stroke-width="2"/><path d="M946.27 341.35l136.4 51.15" stroke="#000" stroke-width="2" fill="none"/><path d="M945.94 342.3l-3.45-1.3h3.93zM1096.97 397.86l-15-.67 3.27-8.7z"/><path d="M1100 399l-19.43-.87 4.22-11.26zm-16.6-2.74l10.54.47-8.25-6.58z"/><path d="M796.86 221.5l82.37 48.16" stroke="#000" stroke-width="2" fill="none"/><path d="M796.38 222.38l-2.36-1.38h3.17z"/><path d="M892.4 277.37l-14.65-3.2 4.68-8z" stroke="#000" stroke-width="2"/><path d="M895.2 342v38.5" stroke="#000" stroke-width="2" fill="none"/><path d="M896.2 342.03h-2V341h2z"/><path d="M895.2 395.76l-4.64-14.26h9.28z" stroke="#000" stroke-width="2"/><defs><path d="M143 4C61 4 22-44 18-125c-5-107 100-154 193-111 17 8 29 25 37 43l-32 9c-13-25-37-40-76-40-61 0-88 39-88 99 0 61 29 100 91 101 35 0 62-11 79-27v-45h-74v-28h105v86C228-13 192 4 143 4" id="c"/><path d="M114-163C36-179 61-72 57 0H25l-1-190h30c1 12-1 29 2 39 6-27 23-49 58-41v29" id="d"/><path d="M100-194c62-1 85 37 85 99 1 63-27 99-86 99S16-35 15-95c0-66 28-99 85-99zM99-20c44 1 53-31 53-75 0-43-8-75-51-75s-53 32-53 75 10 74 51 75" id="e"/><path d="M84 4C-5 8 30-112 23-190h32v120c0 31 7 50 39 49 72-2 45-101 50-169h31l1 190h-30c-1-10 1-25-2-33-11 22-28 36-60 37" id="f"/><path d="M115-194c55 1 70 41 70 98S169 2 115 4C84 4 66-9 55-30l1 105H24l-1-265h31l2 30c10-21 28-34 59-34zm-8 174c40 0 45-34 45-75s-6-73-45-74c-42 0-51 32-51 76 0 43 10 73 51 73" id="g"/><path d="M30 0v-248h187v28H63v79h144v27H63v87h162V0H30" id="h"/><path d="M101-234c-31-9-42 10-38 44h38v23H63V0H32v-167H5v-23h27c-7-52 17-82 69-68v24" id="i"/><path d="M100-194c63 0 86 42 84 106H49c0 40 14 67 53 68 26 1 43-12 49-29l28 8c-11 28-37 45-77 45C44 4 14-33 15-96c1-61 26-98 85-98zm52 81c6-60-76-77-97-28-3 7-6 17-6 28h103" id="j"/><path d="M96-169c-40 0-48 33-48 73s9 75 48 75c24 0 41-14 43-38l32 2c-6 37-31 61-74 61-59 0-76-41-82-99-10-93 101-131 147-64 4 7 5 14 7 22l-32 3c-4-21-16-35-41-35" id="k"/><path d="M59-47c-2 24 18 29 38 22v24C64 9 27 4 27-40v-127H5v-23h24l9-43h21v43h35v23H59v120" id="l"/><g id="a"><use transform="matrix(0.05,0,0,0.05,0,0)" xlink:href="#c"/><use transform="matrix(0.05,0,0,0.05,14,0)" xlink:href="#d"/><use transform="matrix(0.05,0,0,0.05,19.95,0)" xlink:href="#e"/><use transform="matrix(0.05,0,0,0.05,29.950000000000003,0)" xlink:href="#f"/><use transform="matrix(0.05,0,0,0.05,39.95,0)" xlink:href="#g"/><use transform="matrix(0.05,0,0,0.05,49.95,0)" xlink:href="#h"/><use transform="matrix(0.05,0,0,0.05,61.95,0)" xlink:href="#i"/><use transform="matrix(0.05,0,0,0.05,66.6,0)" xlink:href="#i"/><use transform="matrix(0.05,0,0,0.05,71.6,0)" xlink:href="#j"/><use transform="matrix(0.05,0,0,0.05,81.6,0)" xlink:href="#k"/><use transform="matrix(0.05,0,0,0.05,90.6,0)" xlink:href="#l"/></g><path d="M194 0L95-120 63-95V0H30v-248h33v124l119-124h40L117-140 236 0h-42" id="m"/><path d="M179-190L93 31C79 59 56 82 12 73V49c39 6 53-20 64-50L1-190h34L92-34l54-156h33" id="n"/><path d="M141-36C126-15 110 5 73 4 37 3 15-17 15-53c-1-64 63-63 125-63 3-35-9-54-41-54-24 1-41 7-42 31l-33-3c5-37 33-52 76-52 45 0 72 20 72 64v82c-1 20 7 32 28 27v20c-31 9-61-2-59-35zM48-53c0 20 12 33 32 33 41-3 63-29 60-74-43 2-92-5-92 41" id="o"/><path d="M210-169c-67 3-38 105-44 169h-31v-121c0-29-5-50-35-48C34-165 62-65 56 0H25l-1-190h30c1 10-1 24 2 32 10-44 99-50 107 0 11-21 27-35 58-36 85-2 47 119 55 194h-31v-121c0-29-5-49-35-48" id="p"/><g id="b"><use transform="matrix(0.05,0,0,0.05,0,0)" xlink:href="#m"/><use transform="matrix(0.05,0,0,0.05,12,0)" xlink:href="#j"/><use transform="matrix(0.05,0,0,0.05,22,0)" xlink:href="#n"/><use transform="matrix(0.05,0,0,0.05,31,0)" xlink:href="#i"/><use transform="matrix(0.05,0,0,0.05,36,0)" xlink:href="#d"/><use transform="matrix(0.05,0,0,0.05,41.95,0)" xlink:href="#o"/><use transform="matrix(0.05,0,0,0.05,51.95,0)" xlink:href="#p"/><use transform="matrix(0.05,0,0,0.05,66.9,0)" xlink:href="#j"/><use transform="matrix(0.05,0,0,0.05,76.9,0)" xlink:href="#h"/><use transform="matrix(0.05,0,0,0.05,88.9,0)" xlink:href="#i"/><use transform="matrix(0.05,0,0,0.05,93.55000000000001,0)" xlink:href="#i"/><use transform="matrix(0.05,0,0,0.05,98.55000000000001,0)" xlink:href="#j"/><use transform="matrix(0.05,0,0,0.05,108.55000000000001,0)" xlink:href="#k"/><use transform="matrix(0.05,0,0,0.05,117.55000000000001,0)" xlink:href="#l"/></g></defs></g></svg>