<?xml version="1.0" encoding="utf-8"?>
<!DOCTYPE svg PUBLIC "-//W3C//DTD SVG 1.1//EN" "http://www.w3.org/Graphics/SVG/1.1/DTD/svg11.dtd">
<svg version="1.1"
	 xmlns="http://www.w3.org/2000/svg"
	 x="0px" y="0px" width="153px" height="121px" viewBox="-5.925 -0.774 301 242"
	 overflow="visible" enable-background="new -0.925 -0.774 296 242" xml:space="preserve">
<text transform="matrix(1 0 0 1 111.9727 30.9111)" font-family="'Helvetica'" font-size="36">head</text>
<text transform="matrix(1 0 0 1 121.9922 223.1807)" font-family="'Helvetica'" font-size="36">foot</text>
<text transform="matrix(1 0 0 1 0 127.0459)" font-family="'Helvetica'" font-size="36">start </text>
<text transform="matrix(1 0 0 1 224.0166 127.0459)" font-family="'Helvetica'" font-size="36"> end</text>
<g>
  <g>
    <line fill="none" stroke="#000000" stroke-width="2" stroke-miterlimit="10" x1="80.075" y1="120.226" x2="212.075" y2="120.226"/>
    <g>
      <path d="M224.016,120.226c-5.68,2.107-12.727,5.703-17.095,9.512l3.44-9.512l-3.44-9.51
	       C211.289,114.524,218.336,118.12,224.016,120.226z"/>
    </g>
  </g>
</g>
<g>
  <g>
    <line fill="none" stroke="#FF0000" stroke-width="8" stroke-miterlimit="10" x1="152.075" y1="48.226" x2="152.075" y2="178.226"/>
    <g>
      <path fill="#FF0000" d="M152.016,192.226c-2.529-6.815-6.844-15.271-11.414-20.514l11.414,4.129l11.412-4.129
			      C158.857,176.954,154.542,185.41,152.016,192.226z"/>
    </g>
  </g>
</g>
</svg>
