<svg xmlns="http://www.w3.org/2000/svg" xmlns:xlink="http://www.w3.org/1999/xlink" width="500" height="200">
  <defs>
    <g id="dot">
      <rect x="-3" y="-3" width="6" height="6" fill="white"/>
      <rect x="-2" y="-2" width="4" height="4" fill="black"/>
    </g>
  </defs>
  <g transform="translate(100,0)">
    <g stroke-width="40" stroke="#444">
      <path d="M 50,150 L 150,50"/>
      <path d="M 150,50 L 250,150"/>
    </g>
    <path fill="deeppink" d="M 135.86,35.86 L 150,50 164.14,35.86 A 20,20 0 0 0 135.86,35.86"/>
    <g stroke="#6a9100" stroke-dasharray="4" fill="none">
      <path transform="translate(-14.14, -14.14)" d="M -50,250 L 200,0"/>
      <path transform="translate(14.14, 14.14)" d="M -50,250 L 250,-50"/>
      <path transform="translate(-14.14, 14.14)" d="M 50,-50 350,250"/>
      <path transform="translate(14.14, -14.14)" d="M 50,-50 350,250"/>
    </g>
    <path d="M 50,150 L 150,50 250,150" stroke-width="2" stroke="#ccc" fill="none"/>
    <use xlink:href="#dot" x="150" y="50"/>
    <use xlink:href="#dot" x="135.86" y="35.86"/>
    <use xlink:href="#dot" x="164.14" y="35.86"/>
    <use xlink:href="#dot" x="150" y="21.72"/>
    <g font-family="sans-serif" font-size="12px">
      <text x="150" y="67" text-anchor="middle" fill="#ccc">P</text>
      <text x="130" y="37" text-anchor="end" fill="#444">P1</text>
      <text x="170" y="37" fill="#444">P2</text>
      <text x="150" y="13" text-anchor="middle" fill="#444">P3</text>

      <text x="-30" y="193" text-anchor="end">A<tspan dy="2" font-size="10px">left</tspan></text>
      <text x="52" y="193">A<tspan dy="2" font-size="10px">right</tspan></text>
      <text x="223" y="193">B<tspan dy="2" font-size="10px">right</tspan></text>
      <text x="352" y="193" text-anchor="end">B<tspan dy="2" font-size="10px">left</tspan></text>
    </g>
  </g>
</svg>
