<svg xmlns="http://www.w3.org/2000/svg" viewBox="0 0 600 350" width="600" height="350">
  <g text-anchor="middle" font-family="sans-serif" font-size="16px" transform="translate(0,-10)">
    <g transform="translate(-30,0)">
      <path fill="none" stroke="#444" stroke-width="20" d="M 100,100 C 200,100 100,200 200,150"/>
      <path fill="none" stroke="#ccc" stroke-width="2" d="M 100,100 C 200,100 100,200 200,150"/>
      <g stroke="#ccc" stroke-width="1">
        <g stroke="#6a9100">
          <path d="M 60,100 h 80" transform="rotate(90,100,100)"/>
          <path d="M -40,0 h 80" transform="translate(200,150) rotate(65)"/>
        </g>
      </g>
      <text x="150" y="40">‘butt’ cap</text>
    </g>

    <g transform="translate(150,0)">
      <path fill="none" stroke="#444" stroke-width="20" d="M 100,100 C 200,100 100,200 200,150"/>
      <path fill="none" stroke="#ccc" stroke-width="2" d="M 100,100 C 200,100 100,200 200,150"/>
      <path fill="deeppink" d="M 100,90 A 10,10 0 0 0 100,110"/>
      <path fill="deeppink" d="M 100,90 A 10,10 0 0 0 100,110" transform="translate(100,50) rotate(155,100,100)"/>
      <g stroke="#ccc" stroke-width="1">
        <g stroke="#6a9100">
          <path d="M 60,100 h 80" transform="rotate(90,100,100)"/>
          <path d="M -40,0 h 80" transform="translate(200,150) rotate(65)"/>
        </g>
      </g>
      <text x="150" y="40">‘round’ cap</text>
    </g>

    <g transform="translate(330,0)">
      <path fill="none" stroke="#444" stroke-width="20" d="M 100,100 C 200,100 100,200 200,150"/>
      <path fill="none" stroke="#ccc" stroke-width="2" d="M 100,100 C 200,100 100,200 200,150"/>
      <path fill="deeppink" d="M 100,90 v 20 h -10 v -20 z"/>
      <path fill="deeppink" d="M 100,90 v 20 h -10 v -20 z" transform="translate(100,50) rotate(155,100,100)"/>
      <g stroke="#ccc" stroke-width="1">
        <g stroke="#6a9100">
          <path d="M 60,100 h 80" transform="rotate(90,100,100)"/>
          <path d="M -40,0 h 80" transform="translate(200,150) rotate(65)"/>
        </g>
      </g>
      <text x="150" y="40">‘square’ cap</text>
    </g>

    <g transform="translate(-30,130)">
      <g transform="translate(0,-10)">
        <path d="M 80,150 h 142" stroke="#aaa" stroke-width="140" stroke-dasharray="1 9"/>
        <path d="M 150,80 v 142" stroke="#aaa" stroke-width="140" stroke-dasharray="1 9"/>
      </g>
      <path fill="none" stroke="#444" stroke-width="20" d="M 100,100 C 200,100 100,200 200,150"/>
      <!--
      <path fill="none" stroke="#ccc" stroke-width="2" d="M 100,100 C 200,100 100,200 200,150"/>
      -->
    </g>

    <g transform="translate(150,130)">
      <g transform="translate(0,-10)">
        <path d="M 80,150 h 142" stroke="#aaa" stroke-width="140" stroke-dasharray="1 9"/>
        <path d="M 150,80 v 142" stroke="#aaa" stroke-width="140" stroke-dasharray="1 9"/>
      </g>
      <path fill="none" stroke="#444" stroke-width="20" stroke-linecap="round" d="M 100,100 C 200,100 100,200 200,150"/>
      <!--
      <path fill="none" stroke="#ccc" stroke-width="2" d="M 100,100 C 200,100 100,200 200,150"/>
      -->
    </g>

    <g transform="translate(330,130)">
      <g transform="translate(0,-10)">
        <path d="M 80,150 h 142" stroke="#aaa" stroke-width="140" stroke-dasharray="1 9"/>
        <path d="M 150,80 v 142" stroke="#aaa" stroke-width="140" stroke-dasharray="1 9"/>
      </g>
      <path fill="none" stroke="#444" stroke-width="20" stroke-linecap="square" d="M 100,100 C 200,100 100,200 200,150"/>
      <!--
      <path fill="none" stroke="#ccc" stroke-width="2" d="M 100,100 C 200,100 100,200 200,150"/>
      -->
    </g>
  </g>
</svg>
