<svg xmlns="http://www.w3.org/2000/svg" xml:space="preserve" viewBox="0 0 202 297.6"><path fill="#FFF" d="M1 1h200v295.6H1z"/><text fill="#FFF" font-family="'ArialMT'" font-size="12" transform="translate(11.5 58.3)">position: fixed element</text><path fill="#CCFFE7" d="M1 1h200v295.6H1z"/><text font-family="'ArialMT'" font-size="12" transform="translate(11.5 58.3)">Page content</text><path fill="#C1C1C1" d="M1 2.1h200v36.5H1zm192.4 39.4a4 4 0 0 1 4 4v19a4 4 0 0 1-8.2 0v-19a4 4 0 0 1 4.2-4z"/><path d="M12.9 27h3.4v-5.7h5V27h3.4v-9l-6-4.4L13 18v9zm0 1.3c-.4 0-.7-.1-1-.4-.3-.2-.4-.6-.4-1v-8.8a1.4 1.4 0 0 1 .5-1l6-4.5a1.4 1.4 0 0 1 1.6 0l5.9 4.4.4.5.1.6V27c0 .3-.1.7-.4 1-.2.2-.6.3-1 .3H20v-5.7h-2.3v5.7H13z"/><path fill="#FFF" d="M45.2 8.4h137.2a12 12 0 1 1 0 24H45.2a12 12 0 0 1 0-24z"/><text font-family="'ArialMT'" font-size="12" transform="translate(41.6 23.7)">example.com</text><path fill="none" stroke="#000" stroke-width="2" d="M1 1h200v295.6H1z"/></svg>
