<svg xmlns="http://www.w3.org/2000/svg" xml:space="preserve" viewBox="0 0 202 297.57"><path fill="#FFF" d="M1 1h200v295.57H1z"/><path fill="#CCFFE7" d="M1 38.56h200v258.01H1z"/><text font-family="'ArialMT'" font-size="12" transform="translate(11.5 57.57)">Page content</text><path fill="#C1C1C1" d="M1 2.08h200v36.48H1zm192.36 39.17a4.08 4.08 0 0 1 4.09 4.09v19.04a4.08 4.08 0 0 1-8.17 0V45.34a4.08 4.08 0 0 1 4.08-4.09z"/><path d="M12.86 26.96h3.4V21.3h5v5.67h3.4v-8.85l-5.9-4.43-5.9 4.43v8.85zm0 1.36c-.38 0-.7-.13-.97-.4-.26-.26-.4-.58-.4-.96v-8.85a1.35 1.35 0 0 1 .55-1.1l5.9-4.42a1.36 1.36 0 0 1 1.64 0l5.9 4.43a1.35 1.35 0 0 1 .54 1.09v8.85c0 .38-.13.7-.4.97-.26.26-.58.4-.96.4H19.9v-5.68h-2.27v5.67h-4.76z"/><path fill="#FFF" d="M45.2 8.37h137.17a11.96 11.96 0 1 1 0 23.91H45.21a11.96 11.96 0 1 1 0-23.91z"/><text font-family="'ArialMT'" font-size="12" transform="translate(41.55 23.67)">example.com</text><path fill="none" stroke="#000" stroke-width="2" d="M1 1h200v295.57H1z"/></svg>
