<?xml version="1.0" encoding="utf-8"?>
<!-- Generator: Adobe Illustrator 16.0.0, SVG Export Plug-In . SVG Version: 6.00 Build 0)  -->
<!DOCTYPE svg PUBLIC "-//W3C//DTD SVG 1.1//EN" "http://www.w3.org/Graphics/SVG/1.1/DTD/svg11.dtd">
<svg version="1.1" id="Layer_1" xmlns="http://www.w3.org/2000/svg" xmlns:xlink="http://www.w3.org/1999/xlink" x="0px" y="0px"
	 width="300px" height="300px" viewBox="0 0 300 300" enable-background="new 0 0 300 300" xml:space="preserve">
<g>
	<polyline fill="#00FF00" points="194.5,92.5 6,92.5 6,12.5 194.5,12.5 194.5,92.5 	"/>
	<g>
		<path d="M206.411,44.524c0.528-0.108,1.283-0.168,2.003-0.168c1.115,0,1.835,0.204,2.339,0.66c0.408,0.36,0.636,0.912,0.636,1.535
			c0,1.067-0.672,1.775-1.523,2.063v0.036c0.624,0.216,0.996,0.792,1.188,1.631c0.264,1.127,0.456,1.907,0.624,2.219h-1.079
			c-0.133-0.228-0.313-0.923-0.54-1.931c-0.24-1.115-0.672-1.535-1.619-1.571h-0.983V52.5h-1.044V44.524z M207.455,48.207h1.067
			c1.115,0,1.823-0.612,1.823-1.535c0-1.043-0.756-1.5-1.859-1.511c-0.504,0-0.863,0.048-1.031,0.096V48.207z"/>
		<path d="M219.057,52.14c-0.468,0.168-1.392,0.444-2.483,0.444c-1.223,0-2.23-0.312-3.021-1.067
			c-0.696-0.672-1.128-1.751-1.128-3.01c0.012-2.411,1.667-4.174,4.378-4.174c0.936,0,1.667,0.204,2.015,0.372l-0.252,0.852
			c-0.432-0.192-0.972-0.348-1.787-0.348c-1.967,0-3.25,1.223-3.25,3.25c0,2.051,1.235,3.262,3.118,3.262
			c0.684,0,1.151-0.096,1.392-0.216v-2.411h-1.644v-0.839h2.663V52.14z"/>
		<path d="M220.655,44.524c0.456-0.096,1.176-0.168,1.907-0.168c1.044,0,1.715,0.18,2.219,0.588c0.42,0.312,0.672,0.792,0.672,1.427
			c0,0.779-0.516,1.463-1.367,1.775v0.024c0.768,0.192,1.667,0.828,1.667,2.027c0,0.696-0.276,1.223-0.684,1.619
			c-0.563,0.516-1.476,0.755-2.795,0.755c-0.72,0-1.271-0.048-1.619-0.096V44.524z M221.699,47.834h0.947
			c1.104,0,1.751-0.576,1.751-1.355c0-0.948-0.72-1.319-1.774-1.319c-0.48,0-0.756,0.036-0.924,0.072V47.834z M221.699,51.708
			c0.204,0.036,0.504,0.048,0.875,0.048c1.08,0,2.075-0.396,2.075-1.571c0-1.103-0.947-1.559-2.087-1.559h-0.863V51.708z"/>
		<path d="M229.414,44.177c-0.875,1.175-1.511,2.734-1.511,4.905c0,2.135,0.659,3.67,1.511,4.869h-0.827
			c-0.756-0.996-1.571-2.531-1.571-4.869c0.012-2.363,0.815-3.898,1.571-4.905H229.414z"/>
		<path d="M235.376,48.518c0,2.651-0.983,4.114-2.71,4.114c-1.523,0-2.555-1.427-2.579-4.006c0-2.614,1.128-4.054,2.711-4.054
			C234.44,44.572,235.376,46.036,235.376,48.518z M231.143,48.638c0,2.027,0.623,3.178,1.583,3.178c1.079,0,1.595-1.259,1.595-3.25
			c0-1.919-0.491-3.179-1.583-3.179C231.814,45.388,231.143,46.515,231.143,48.638z"/>
		<path d="M236.004,53.975c0.264-0.708,0.587-1.991,0.719-2.866l1.176-0.12c-0.276,1.02-0.804,2.351-1.14,2.915L236.004,53.975z"/>
		<path d="M243.669,45.688h-0.023l-1.355,0.732l-0.204-0.804l1.703-0.912h0.899V52.5h-1.02V45.688z"/>
		<path d="M247.188,53.975c0.264-0.708,0.587-1.991,0.719-2.866l1.176-0.12c-0.276,1.02-0.804,2.351-1.14,2.915L247.188,53.975z"/>
		<path d="M257.743,48.518c0,2.651-0.983,4.114-2.71,4.114c-1.523,0-2.555-1.427-2.579-4.006c0-2.614,1.128-4.054,2.711-4.054
			C256.808,44.572,257.743,46.036,257.743,48.518z M253.51,48.638c0,2.027,0.623,3.178,1.583,3.178c1.079,0,1.595-1.259,1.595-3.25
			c0-1.919-0.491-3.179-1.583-3.179C254.182,45.388,253.51,46.515,253.51,48.638z"/>
		<path d="M258.371,53.975c0.264-0.708,0.587-1.991,0.719-2.866l1.176-0.12c-0.276,1.02-0.804,2.351-1.14,2.915L258.371,53.975z"/>
		<path d="M266.036,45.688h-0.023l-1.355,0.732l-0.204-0.804l1.703-0.912h0.899V52.5h-1.02V45.688z"/>
		<path d="M269.603,53.951c0.852-1.188,1.511-2.747,1.511-4.905c0-2.147-0.647-3.682-1.511-4.869h0.815
			c0.768,0.983,1.571,2.519,1.571,4.881c0,2.351-0.804,3.874-1.571,4.893H269.603z"/>
	</g>
	<path fill="#7FFF7F" d="M34.5,96.5H6v80h28.5V96.5 M194.5,96.5H155v80h39.5V96.5"/>
	<g>
		<path d="M206.411,128.524c0.528-0.108,1.283-0.168,2.003-0.168c1.115,0,1.835,0.204,2.339,0.66
			c0.408,0.36,0.636,0.912,0.636,1.535c0,1.067-0.672,1.775-1.523,2.063v0.036c0.624,0.216,0.996,0.792,1.188,1.631
			c0.264,1.127,0.456,1.907,0.624,2.219h-1.079c-0.133-0.228-0.313-0.923-0.54-1.931c-0.24-1.115-0.672-1.535-1.619-1.571h-0.983
			v3.502h-1.044V128.524z M207.455,132.207h1.067c1.115,0,1.823-0.612,1.823-1.535c0-1.043-0.756-1.5-1.859-1.511
			c-0.504,0-0.863,0.048-1.031,0.096V132.207z"/>
		<path d="M219.057,136.14c-0.468,0.168-1.392,0.444-2.483,0.444c-1.223,0-2.23-0.312-3.021-1.067
			c-0.696-0.672-1.128-1.751-1.128-3.01c0.012-2.411,1.667-4.174,4.378-4.174c0.936,0,1.667,0.204,2.015,0.372l-0.252,0.852
			c-0.432-0.192-0.972-0.348-1.787-0.348c-1.967,0-3.25,1.223-3.25,3.25c0,2.051,1.235,3.262,3.118,3.262
			c0.684,0,1.151-0.096,1.392-0.216v-2.411h-1.644v-0.839h2.663V136.14z"/>
		<path d="M220.655,128.524c0.456-0.096,1.176-0.168,1.907-0.168c1.044,0,1.715,0.18,2.219,0.588
			c0.42,0.312,0.672,0.792,0.672,1.427c0,0.779-0.516,1.463-1.367,1.775v0.024c0.768,0.192,1.667,0.828,1.667,2.027
			c0,0.696-0.276,1.223-0.684,1.619c-0.563,0.516-1.476,0.755-2.795,0.755c-0.72,0-1.271-0.048-1.619-0.096V128.524z
			 M221.699,131.834h0.947c1.104,0,1.751-0.576,1.751-1.355c0-0.948-0.72-1.319-1.774-1.319c-0.48,0-0.756,0.036-0.924,0.072
			V131.834z M221.699,135.708c0.204,0.036,0.504,0.048,0.875,0.048c1.08,0,2.075-0.396,2.075-1.571c0-1.103-0.947-1.559-2.087-1.559
			h-0.863V135.708z"/>
		<path d="M229.414,128.177c-0.875,1.175-1.511,2.734-1.511,4.905c0,2.135,0.659,3.67,1.511,4.869h-0.827
			c-0.756-0.996-1.571-2.531-1.571-4.869c0.012-2.363,0.815-3.898,1.571-4.905H229.414z"/>
		<path d="M235.376,132.518c0,2.651-0.983,4.114-2.71,4.114c-1.523,0-2.555-1.427-2.579-4.006c0-2.614,1.128-4.054,2.711-4.054
			C234.44,128.572,235.376,130.036,235.376,132.518z M231.143,132.638c0,2.027,0.623,3.178,1.583,3.178
			c1.079,0,1.595-1.259,1.595-3.25c0-1.919-0.491-3.179-1.583-3.179C231.814,129.388,231.143,130.515,231.143,132.638z"/>
		<path d="M236.004,137.975c0.264-0.708,0.587-1.991,0.719-2.866l1.176-0.12c-0.276,1.02-0.804,2.351-1.14,2.915L236.004,137.975z"
			/>
		<path d="M243.669,129.688h-0.023l-1.355,0.732l-0.204-0.804l1.703-0.912h0.899v7.796h-1.02V129.688z"/>
		<path d="M247.188,137.975c0.264-0.708,0.587-1.991,0.719-2.866l1.176-0.12c-0.276,1.02-0.804,2.351-1.14,2.915L247.188,137.975z"
			/>
		<path d="M257.743,132.518c0,2.651-0.983,4.114-2.71,4.114c-1.523,0-2.555-1.427-2.579-4.006c0-2.614,1.128-4.054,2.711-4.054
			C256.808,128.572,257.743,130.036,257.743,132.518z M253.51,132.638c0,2.027,0.623,3.178,1.583,3.178
			c1.079,0,1.595-1.259,1.595-3.25c0-1.919-0.491-3.179-1.583-3.179C254.182,129.388,253.51,130.515,253.51,132.638z"/>
		<path d="M258.371,137.975c0.264-0.708,0.587-1.991,0.719-2.866l1.176-0.12c-0.276,1.02-0.804,2.351-1.14,2.915L258.371,137.975z"
			/>
		<path d="M263.83,135.876c0-0.444,0.3-0.756,0.719-0.756c0.42,0,0.708,0.312,0.708,0.756c0,0.432-0.275,0.755-0.72,0.755
			C264.117,136.632,263.83,136.308,263.83,135.876z"/>
		<path d="M270.884,129.592h-2.975l-0.3,2.003c0.18-0.024,0.348-0.048,0.636-0.048c0.6,0,1.199,0.132,1.679,0.419
			c0.612,0.348,1.115,1.02,1.115,2.003c0,1.523-1.211,2.663-2.902,2.663c-0.852,0-1.57-0.24-1.942-0.479l0.264-0.804
			c0.324,0.192,0.96,0.432,1.667,0.432c0.995,0,1.847-0.647,1.847-1.691c-0.012-1.007-0.684-1.727-2.242-1.727
			c-0.444,0-0.792,0.048-1.079,0.084l0.503-3.742h3.73V129.592z"/>
		<path d="M272.086,137.951c0.852-1.188,1.511-2.747,1.511-4.905c0-2.147-0.647-3.682-1.511-4.869h0.815
			c0.768,0.983,1.571,2.519,1.571,4.881c0,2.351-0.804,3.874-1.571,4.893H272.086z"/>
	</g>
	<path fill="#E5FFE5" d="M34.5,179.5H6v80h28.5V179.5 M194.5,179.5H155v80h39.5V179.5"/>
	<g>
		<path d="M206.411,211.524c0.528-0.108,1.283-0.168,2.003-0.168c1.115,0,1.835,0.204,2.339,0.659
			c0.408,0.36,0.636,0.912,0.636,1.535c0,1.068-0.672,1.775-1.523,2.063v0.036c0.624,0.216,0.996,0.791,1.188,1.631
			c0.264,1.127,0.456,1.907,0.624,2.219h-1.079c-0.133-0.228-0.313-0.924-0.54-1.931c-0.24-1.115-0.672-1.535-1.619-1.571h-0.983
			v3.502h-1.044V211.524z M207.455,215.206h1.067c1.115,0,1.823-0.611,1.823-1.535c0-1.043-0.756-1.499-1.859-1.511
			c-0.504,0-0.863,0.048-1.031,0.096V215.206z"/>
		<path d="M219.057,219.141c-0.468,0.168-1.392,0.443-2.483,0.443c-1.223,0-2.23-0.312-3.021-1.067
			c-0.696-0.672-1.128-1.751-1.128-3.011c0.012-2.41,1.667-4.174,4.378-4.174c0.936,0,1.667,0.204,2.015,0.372l-0.252,0.852
			c-0.432-0.191-0.972-0.348-1.787-0.348c-1.967,0-3.25,1.224-3.25,3.25c0,2.051,1.235,3.263,3.118,3.263
			c0.684,0,1.151-0.097,1.392-0.216v-2.411h-1.644v-0.84h2.663V219.141z"/>
		<path d="M220.655,211.524c0.456-0.096,1.176-0.168,1.907-0.168c1.044,0,1.715,0.18,2.219,0.588
			c0.42,0.312,0.672,0.791,0.672,1.427c0,0.78-0.516,1.464-1.367,1.775v0.023c0.768,0.192,1.667,0.828,1.667,2.027
			c0,0.695-0.276,1.224-0.684,1.619c-0.563,0.516-1.476,0.756-2.795,0.756c-0.72,0-1.271-0.048-1.619-0.097V211.524z
			 M221.699,214.835h0.947c1.104,0,1.751-0.576,1.751-1.355c0-0.947-0.72-1.319-1.774-1.319c-0.48,0-0.756,0.036-0.924,0.072
			V214.835z M221.699,218.708c0.204,0.036,0.504,0.049,0.875,0.049c1.08,0,2.075-0.396,2.075-1.571c0-1.104-0.947-1.56-2.087-1.56
			h-0.863V218.708z"/>
		<path d="M229.414,211.177c-0.875,1.175-1.511,2.734-1.511,4.905c0,2.135,0.659,3.67,1.511,4.869h-0.827
			c-0.756-0.995-1.571-2.53-1.571-4.869c0.012-2.363,0.815-3.898,1.571-4.905H229.414z"/>
		<path d="M235.376,215.519c0,2.65-0.983,4.113-2.71,4.113c-1.523,0-2.555-1.427-2.579-4.006c0-2.614,1.128-4.054,2.711-4.054
			C234.44,211.572,235.376,213.035,235.376,215.519z M231.143,215.638c0,2.027,0.623,3.179,1.583,3.179
			c1.079,0,1.595-1.26,1.595-3.25c0-1.919-0.491-3.179-1.583-3.179C231.814,212.388,231.143,213.516,231.143,215.638z"/>
		<path d="M236.004,220.976c0.264-0.708,0.587-1.991,0.719-2.867l1.176-0.119c-0.276,1.019-0.804,2.351-1.14,2.914L236.004,220.976z
			"/>
		<path d="M243.669,212.688h-0.023l-1.355,0.731l-0.204-0.803l1.703-0.912h0.899v7.796h-1.02V212.688z"/>
		<path d="M247.188,220.976c0.264-0.708,0.587-1.991,0.719-2.867l1.176-0.119c-0.276,1.019-0.804,2.351-1.14,2.914L247.188,220.976z
			"/>
		<path d="M257.743,215.519c0,2.65-0.983,4.113-2.71,4.113c-1.523,0-2.555-1.427-2.579-4.006c0-2.614,1.128-4.054,2.711-4.054
			C256.808,211.572,257.743,213.035,257.743,215.519z M253.51,215.638c0,2.027,0.623,3.179,1.583,3.179
			c1.079,0,1.595-1.26,1.595-3.25c0-1.919-0.491-3.179-1.583-3.179C254.182,212.388,253.51,213.516,253.51,215.638z"/>
		<path d="M258.371,220.976c0.264-0.708,0.587-1.991,0.719-2.867l1.176-0.119c-0.276,1.019-0.804,2.351-1.14,2.914L258.371,220.976z
			"/>
		<path d="M263.83,218.876c0-0.443,0.3-0.755,0.719-0.755c0.42,0,0.708,0.312,0.708,0.755c0,0.433-0.275,0.756-0.72,0.756
			C264.117,219.632,263.83,219.309,263.83,218.876z"/>
		<path d="M268.521,212.688h-0.023l-1.355,0.731l-0.204-0.803l1.703-0.912h0.899v7.796h-1.02V212.688z"/>
		<path d="M272.086,220.951c0.852-1.188,1.511-2.746,1.511-4.905c0-2.146-0.647-3.682-1.511-4.869h0.815
			c0.768,0.983,1.571,2.519,1.571,4.881c0,2.351-0.804,3.874-1.571,4.894H272.086z"/>
	</g>
	<path fill="#FF0000" d="M155,176.5H34.5v3H155V176.5 M155,92.5H34.5v4H155V92.5 M155,3.5H34.5v9H155V3.5"/>
	<polyline fill="#FFFF00" points="155,12.5 34.5,12.5 34.5,92.5 155,92.5 155,12.5 	"/>
	<polyline fill="#FF8000" points="155,96.5 34.5,96.5 34.5,176.5 155,176.5 155,96.5 	"/>
	<polyline fill="#FF0000" points="155,259.5 34.5,259.5 34.5,276.5 155,276.5 155,259.5 	"/>
	<polyline fill="#FF1A00" points="155,179.5 34.5,179.5 34.5,259.5 155,259.5 155,179.5 	"/>
</g>
<g>
</g>
<g>
</g>
</svg>
