<?xml version="1.0" encoding="utf-8"?>
<!-- Generator: Adobe Illustrator 16.0.0, SVG Export Plug-In . SVG Version: 6.00 Build 0)  -->
<!DOCTYPE svg PUBLIC "-//W3C//DTD SVG 1.1//EN" "http://www.w3.org/Graphics/SVG/1.1/DTD/svg11.dtd">
<svg version="1.1" xmlns="http://www.w3.org/2000/svg" xmlns:xlink="http://www.w3.org/1999/xlink" x="0px" y="0px"
	 width="278.714px" height="251.784px" viewBox="0 0 278.714 251.784" enable-background="new 0 0 278.714 251.784"
	 xml:space="preserve">
<pattern  x="-23.976" y="-16.899" width="18.474" height="18.175" patternUnits="userSpaceOnUse" id="New_Pattern_Swatch_3" viewBox="0 -18.175 18.474 18.175" overflow="visible">
	<g>
		<polygon fill="none" points="0,0 18.474,0 18.474,-18.175 0,-18.175 		"/>
		<polygon fill="#E0E0E0" points="9.438,-8.938 0,-8.938 0,-18.175 9.438,-18.175 		"/>
		<polygon fill="#E0E0E0" points="18.474,0 9.036,0 9.036,-9.237 18.474,-9.237 		"/>
	</g>
</pattern>
<g id="Layer_2">
	<rect y="2.805" fill="url(#New_Pattern_Swatch_3)" width="278.714" height="248.979"/>
</g>
<g id="Layer_1">
	<rect x="99.004" y="2.001" fill="#FF0000" stroke="#000000" stroke-miterlimit="10" width="176.305" height="74.027"/>
	<g>
		<g>
			<line fill="none" stroke="#000000" stroke-miterlimit="10" x1="173.703" y1="108.025" x2="173.703" y2="118.456"/>
			<g>
				<path d="M173.703,124.491c-1.054-2.84-2.852-6.363-4.756-8.547l4.756,1.72l4.754-1.72
					C176.554,118.127,174.756,121.651,173.703,124.491z"/>
			</g>
		</g>
	</g>
	<g>
		<rect x="64.221" y="129.311" fill="none" width="169.879" height="12.45"/>
		<path d="M65.286,129.936c0.532-0.112,1.373-0.196,2.228-0.196c1.218,0,2.003,0.21,2.591,0.687c0.49,0.364,0.784,0.924,0.784,1.667
			c0,0.911-0.602,1.708-1.597,2.073v0.028c0.896,0.224,1.947,0.967,1.947,2.367c0,0.813-0.322,1.429-0.798,1.891
			c-0.658,0.603-1.723,0.883-3.264,0.883c-0.84,0-1.485-0.056-1.891-0.112V129.936z M66.504,133.801h1.106
			c1.289,0,2.045-0.672,2.045-1.583c0-1.106-0.841-1.541-2.073-1.541c-0.561,0-0.882,0.042-1.079,0.084V133.801z M66.504,138.326
			c0.238,0.042,0.588,0.057,1.022,0.057c1.261,0,2.423-0.463,2.423-1.835c0-1.289-1.106-1.821-2.437-1.821h-1.009V138.326z"/>
		<path d="M76.585,139.25l-0.098-0.854h-0.042c-0.378,0.532-1.107,1.009-2.073,1.009c-1.373,0-2.073-0.967-2.073-1.947
			c0-1.639,1.457-2.535,4.076-2.521v-0.14c0-0.561-0.154-1.569-1.541-1.569c-0.63,0-1.289,0.196-1.765,0.505l-0.28-0.813
			c0.561-0.364,1.373-0.603,2.227-0.603c2.073,0,2.578,1.415,2.578,2.773v2.535c0,0.589,0.028,1.163,0.112,1.625H76.585z
			 M76.403,135.791c-1.345-0.028-2.871,0.21-2.871,1.527c0,0.798,0.532,1.176,1.163,1.176c0.882,0,1.442-0.56,1.639-1.134
			c0.042-0.127,0.07-0.267,0.07-0.393V135.791z"/>
		<path d="M84.412,138.999c-0.322,0.168-1.036,0.392-1.947,0.392c-2.045,0-3.376-1.387-3.376-3.459c0-2.088,1.429-3.601,3.642-3.601
			c0.729,0,1.373,0.183,1.709,0.351l-0.28,0.952c-0.294-0.168-0.756-0.322-1.429-0.322c-1.555,0-2.396,1.148-2.396,2.563
			c0,1.569,1.009,2.535,2.354,2.535c0.7,0,1.163-0.182,1.513-0.336L84.412,138.999z"/>
		<path d="M87.07,135.581h0.028c0.168-0.238,0.406-0.532,0.603-0.771l1.989-2.339h1.484l-2.619,2.787l2.983,3.992H90.04L87.701,136
			l-0.63,0.7v2.55h-1.219v-9.945h1.219V135.581z"/>
		<path d="M98.273,129.305v8.194c0,0.603,0.014,1.289,0.056,1.751h-1.106l-0.056-1.177h-0.028c-0.378,0.757-1.205,1.331-2.312,1.331
			c-1.639,0-2.899-1.387-2.899-3.446c-0.014-2.255,1.387-3.642,3.04-3.642c1.037,0,1.737,0.49,2.045,1.036h0.028v-4.048H98.273z
			 M97.04,135.23c0-0.153-0.014-0.364-0.056-0.518c-0.182-0.785-0.854-1.429-1.779-1.429c-1.275,0-2.031,1.12-2.031,2.619
			c0,1.373,0.672,2.507,2.003,2.507c0.826,0,1.583-0.546,1.807-1.471c0.042-0.168,0.056-0.336,0.056-0.532V135.23z"/>
		<path d="M100.313,134.586c0-0.799-0.014-1.485-0.056-2.115h1.079l0.042,1.33h0.056c0.308-0.91,1.051-1.484,1.877-1.484
			c0.14,0,0.238,0.014,0.35,0.042v1.162c-0.126-0.027-0.252-0.042-0.42-0.042c-0.869,0-1.485,0.659-1.653,1.583
			c-0.028,0.168-0.056,0.364-0.056,0.574v3.614h-1.219V134.586z"/>
		<path d="M110.887,135.804c0,2.508-1.737,3.601-3.375,3.601c-1.835,0-3.25-1.345-3.25-3.488c0-2.27,1.485-3.6,3.362-3.6
			C109.57,132.317,110.887,133.732,110.887,135.804z M105.508,135.875c0,1.485,0.854,2.605,2.059,2.605
			c1.177,0,2.059-1.106,2.059-2.634c0-1.148-0.574-2.604-2.031-2.604C106.138,133.242,105.508,134.586,105.508,135.875z"/>
		<path d="M112.438,134.684c0-0.868-0.028-1.569-0.056-2.213h1.107l0.056,1.162h0.028c0.504-0.826,1.303-1.316,2.409-1.316
			c1.639,0,2.872,1.387,2.872,3.445c0,2.438-1.485,3.643-3.082,3.643c-0.896,0-1.681-0.393-2.087-1.064h-0.028v3.684h-1.219V134.684
			z M113.656,136.491c0,0.183,0.028,0.351,0.056,0.505c0.224,0.854,0.966,1.442,1.849,1.442c1.302,0,2.059-1.064,2.059-2.619
			c0-1.359-0.714-2.521-2.017-2.521c-0.841,0-1.625,0.603-1.863,1.526c-0.042,0.154-0.084,0.337-0.084,0.505V136.491z"/>
		<path d="M123.497,139.25v-5.841h-0.952v-0.938h0.952v-0.322c0-0.953,0.21-1.821,0.785-2.368c0.462-0.448,1.079-0.63,1.653-0.63
			c0.434,0,0.813,0.098,1.051,0.196l-0.168,0.953c-0.182-0.084-0.434-0.154-0.784-0.154c-1.051,0-1.317,0.924-1.317,1.961v0.365
			h1.639v0.938h-1.639v5.841H123.497z"/>
		<path d="M133.413,135.804c0,2.508-1.737,3.601-3.375,3.601c-1.835,0-3.25-1.345-3.25-3.488c0-2.27,1.485-3.6,3.362-3.6
			C132.096,132.317,133.413,133.732,133.413,135.804z M128.034,135.875c0,1.485,0.854,2.605,2.059,2.605
			c1.177,0,2.059-1.106,2.059-2.634c0-1.148-0.574-2.604-2.031-2.604C128.664,133.242,128.034,134.586,128.034,135.875z"/>
		<path d="M134.963,134.586c0-0.799-0.014-1.485-0.056-2.115h1.079l0.042,1.33h0.056c0.308-0.91,1.051-1.484,1.877-1.484
			c0.14,0,0.238,0.014,0.351,0.042v1.162c-0.126-0.027-0.252-0.042-0.42-0.042c-0.869,0-1.485,0.659-1.653,1.583
			c-0.028,0.168-0.056,0.364-0.056,0.574v3.614h-1.219V134.586z"/>
		<path d="M142.453,139.25c0.028-0.462,0.056-1.148,0.056-1.751v-8.194h1.219v4.258h0.028c0.435-0.756,1.219-1.246,2.312-1.246
			c1.681,0,2.872,1.4,2.857,3.46c0,2.423-1.527,3.628-3.04,3.628c-0.98,0-1.765-0.379-2.269-1.275h-0.042l-0.056,1.121H142.453z
			 M143.728,136.533c0,0.154,0.028,0.309,0.056,0.448c0.238,0.854,0.952,1.443,1.849,1.443c1.289,0,2.06-1.051,2.06-2.605
			c0-1.359-0.701-2.521-2.017-2.521c-0.841,0-1.625,0.574-1.877,1.513c-0.028,0.14-0.07,0.309-0.07,0.504V136.533z"/>
		<path d="M150.475,129.305h1.233v9.945h-1.233V129.305z"/>
		<path d="M159.452,137.402c0,0.7,0.014,1.316,0.056,1.849h-1.092l-0.07-1.106h-0.028c-0.322,0.546-1.037,1.261-2.241,1.261
			c-1.064,0-2.339-0.589-2.339-2.97v-3.964h1.233v3.754c0,1.288,0.392,2.157,1.513,2.157c0.826,0,1.401-0.574,1.625-1.121
			c0.07-0.182,0.112-0.406,0.112-0.63v-4.16h1.233V137.402z"/>
		<path d="M162.179,136.084c0.028,1.667,1.092,2.354,2.325,2.354c0.882,0,1.415-0.154,1.877-0.351l0.21,0.883
			c-0.434,0.196-1.176,0.42-2.255,0.42c-2.087,0-3.334-1.372-3.334-3.417c0-2.046,1.205-3.656,3.18-3.656
			c2.213,0,2.802,1.947,2.802,3.193c0,0.252-0.028,0.448-0.042,0.574H162.179z M165.793,135.203
			c0.014-0.785-0.322-2.003-1.709-2.003c-1.247,0-1.793,1.148-1.891,2.003H165.793z"/>
		<path d="M171.474,134.586c0-0.799-0.014-1.485-0.056-2.115h1.079l0.042,1.33h0.056c0.308-0.91,1.051-1.484,1.877-1.484
			c0.14,0,0.238,0.014,0.351,0.042v1.162c-0.126-0.027-0.252-0.042-0.42-0.042c-0.869,0-1.485,0.659-1.653,1.583
			c-0.028,0.168-0.056,0.364-0.056,0.574v3.614h-1.219V134.586z"/>
		<path d="M176.599,136.084c0.028,1.667,1.093,2.354,2.326,2.354c0.883,0,1.414-0.154,1.877-0.351l0.211,0.883
			c-0.436,0.196-1.178,0.42-2.256,0.42c-2.087,0-3.333-1.372-3.333-3.417c0-2.046,1.204-3.656,3.179-3.656
			c2.213,0,2.801,1.947,2.801,3.193c0,0.252-0.027,0.448-0.041,0.574H176.599z M180.213,135.203
			c0.014-0.785-0.322-2.003-1.709-2.003c-1.246,0-1.793,1.148-1.891,2.003H180.213z"/>
		<path d="M187.758,138.999c-0.322,0.168-1.037,0.392-1.947,0.392c-2.045,0-3.375-1.387-3.375-3.459
			c0-2.088,1.428-3.601,3.641-3.601c0.729,0,1.373,0.183,1.709,0.351l-0.279,0.952c-0.295-0.168-0.756-0.322-1.43-0.322
			c-1.555,0-2.395,1.148-2.395,2.563c0,1.569,1.008,2.535,2.354,2.535c0.701,0,1.162-0.182,1.514-0.336L187.758,138.999z"/>
		<path d="M190.864,130.524v1.947h1.766v0.938h-1.766v3.655c0,0.841,0.238,1.317,0.924,1.317c0.322,0,0.561-0.042,0.715-0.084
			l0.057,0.924c-0.238,0.099-0.617,0.168-1.094,0.168c-0.574,0-1.035-0.182-1.33-0.518c-0.35-0.364-0.477-0.967-0.477-1.766v-3.697
			h-1.051v-0.938h1.051v-1.625L190.864,130.524z"/>
		<path d="M197.766,139.25l-0.098-0.854h-0.041c-0.379,0.532-1.107,1.009-2.074,1.009c-1.373,0-2.072-0.967-2.072-1.947
			c0-1.639,1.457-2.535,4.076-2.521v-0.14c0-0.561-0.154-1.569-1.541-1.569c-0.631,0-1.289,0.196-1.766,0.505l-0.279-0.813
			c0.561-0.364,1.373-0.603,2.227-0.603c2.074,0,2.578,1.415,2.578,2.773v2.535c0,0.589,0.027,1.163,0.111,1.625H197.766z
			 M197.584,135.791c-1.344-0.028-2.871,0.21-2.871,1.527c0,0.798,0.531,1.176,1.162,1.176c0.883,0,1.443-0.56,1.639-1.134
			c0.043-0.127,0.07-0.267,0.07-0.393V135.791z"/>
		<path d="M200.76,134.306c0-0.701-0.014-1.275-0.055-1.835h1.092l0.07,1.12h0.027c0.336-0.645,1.121-1.274,2.242-1.274
			c0.938,0,2.395,0.561,2.395,2.886v4.048h-1.232v-3.908c0-1.093-0.406-2.003-1.568-2.003c-0.813,0-1.443,0.574-1.654,1.261
			c-0.055,0.154-0.084,0.364-0.084,0.574v4.076h-1.232V134.306z"/>
		<path d="M214.372,132.471c-0.027,0.49-0.057,1.036-0.057,1.862v3.937c0,1.555-0.307,2.507-0.967,3.096
			c-0.658,0.616-1.609,0.813-2.465,0.813c-0.813,0-1.709-0.196-2.254-0.561l0.307-0.938c0.449,0.28,1.148,0.532,1.99,0.532
			c1.26,0,2.186-0.658,2.186-2.367v-0.757h-0.029c-0.377,0.631-1.105,1.135-2.156,1.135c-1.682,0-2.887-1.429-2.887-3.306
			c0-2.297,1.5-3.6,3.055-3.6c1.176,0,1.82,0.616,2.115,1.177h0.027l0.057-1.022H214.372z M213.096,135.146
			c0-0.21-0.014-0.392-0.07-0.56c-0.223-0.715-0.826-1.303-1.723-1.303c-1.176,0-2.016,0.994-2.016,2.563
			c0,1.331,0.672,2.438,2.002,2.438c0.756,0,1.443-0.476,1.709-1.261c0.07-0.21,0.098-0.448,0.098-0.658V135.146z"/>
		<path d="M216.356,129.305h1.232v9.945h-1.232V129.305z"/>
		<path d="M220.346,136.084c0.029,1.667,1.094,2.354,2.326,2.354c0.883,0,1.414-0.154,1.877-0.351l0.209,0.883
			c-0.434,0.196-1.176,0.42-2.254,0.42c-2.088,0-3.334-1.372-3.334-3.417c0-2.046,1.205-3.656,3.18-3.656
			c2.213,0,2.801,1.947,2.801,3.193c0,0.252-0.027,0.448-0.041,0.574H220.346z M223.961,135.203
			c0.014-0.785-0.322-2.003-1.709-2.003c-1.248,0-1.793,1.148-1.893,2.003H223.961z"/>
	</g>
	<g opacity="0.51">
		<rect x="114.278" y="11.909" fill="#00FF00" stroke="#000000" stroke-miterlimit="10" width="101.392" height="74.027"/>
		<rect x="157.462" y="27.572" fill="#0000FF" stroke="#000000" stroke-miterlimit="10" width="101.392" height="74.027"/>
	</g>
	<g>
		<g>
			<polyline fill="none" stroke="#000000" stroke-miterlimit="10" points="108.241,10.328 108.241,8.828 109.741,8.828 			"/>
			
				<line fill="none" stroke="#000000" stroke-miterlimit="10" stroke-dasharray="2.9572,2.9572" x1="112.698" y1="8.828" x2="259.078" y2="8.828"/>
			<polyline fill="none" stroke="#000000" stroke-miterlimit="10" points="260.556,8.828 262.056,8.828 262.056,10.328 			"/>
			
				<line fill="none" stroke="#000000" stroke-miterlimit="10" stroke-dasharray="2.9606,2.9606" x1="262.056" y1="13.288" x2="262.056" y2="100.626"/>
			<polyline fill="none" stroke="#000000" stroke-miterlimit="10" points="262.056,102.107 262.056,103.607 260.556,103.607 			"/>
			
				<line fill="none" stroke="#000000" stroke-miterlimit="10" stroke-dasharray="2.9572,2.9572" x1="257.599" y1="103.607" x2="111.22" y2="103.607"/>
			<polyline fill="none" stroke="#000000" stroke-miterlimit="10" points="109.741,103.607 108.241,103.607 108.241,102.107 			"/>
			
				<line fill="none" stroke="#000000" stroke-miterlimit="10" stroke-dasharray="2.9606,2.9606" x1="108.241" y1="99.146" x2="108.241" y2="11.808"/>
		</g>
	</g>
	<g>
		<path d="M197.569,107.826c-0.024,0.419-0.048,0.887-0.048,1.595v3.37c0,1.331-0.264,2.146-0.828,2.65
			c-0.563,0.528-1.379,0.696-2.11,0.696c-0.696,0-1.464-0.168-1.931-0.48l0.264-0.804c0.384,0.24,0.983,0.456,1.703,0.456
			c1.079,0,1.871-0.564,1.871-2.027v-0.648h-0.024c-0.324,0.54-0.947,0.972-1.847,0.972c-1.439,0-2.471-1.224-2.471-2.831
			c0-1.967,1.283-3.082,2.614-3.082c1.008,0,1.56,0.527,1.811,1.007h0.024l0.048-0.875H197.569z M196.477,110.116
			c0-0.18-0.012-0.336-0.06-0.479c-0.192-0.612-0.708-1.116-1.476-1.116c-1.007,0-1.727,0.852-1.727,2.195
			c0,1.14,0.575,2.087,1.715,2.087c0.647,0,1.235-0.408,1.463-1.079c0.061-0.18,0.084-0.384,0.084-0.564V110.116z"/>
		<path d="M199.204,109.637c0-0.684-0.013-1.271-0.049-1.811h0.924l0.036,1.139h0.048c0.264-0.779,0.899-1.271,1.607-1.271
			c0.12,0,0.204,0.012,0.3,0.036v0.996c-0.108-0.024-0.216-0.036-0.36-0.036c-0.743,0-1.271,0.564-1.415,1.355
			c-0.023,0.144-0.048,0.312-0.048,0.492v3.094h-1.043V109.637z"/>
		<path d="M208.261,110.68c0,2.146-1.487,3.082-2.891,3.082c-1.571,0-2.782-1.151-2.782-2.986c0-1.943,1.271-3.082,2.878-3.082
			C207.133,107.694,208.261,108.905,208.261,110.68z M203.656,110.74c0,1.271,0.731,2.231,1.763,2.231
			c1.008,0,1.763-0.947,1.763-2.255c0-0.983-0.491-2.23-1.738-2.23C204.195,108.485,203.656,109.637,203.656,110.74z"/>
		<path d="M214.453,112.047c0,0.6,0.013,1.127,0.049,1.583h-0.936l-0.061-0.947h-0.023c-0.276,0.467-0.888,1.079-1.919,1.079
			c-0.912,0-2.003-0.503-2.003-2.542v-3.394h1.055v3.214c0,1.103,0.336,1.847,1.296,1.847c0.707,0,1.199-0.492,1.391-0.959
			c0.061-0.156,0.097-0.348,0.097-0.54v-3.562h1.055V112.047z"/>
		<path d="M216.208,109.721c0-0.744-0.024-1.343-0.049-1.895h0.948l0.048,0.995h0.023c0.432-0.708,1.115-1.127,2.063-1.127
			c1.403,0,2.458,1.187,2.458,2.95c0,2.087-1.271,3.118-2.639,3.118c-0.768,0-1.438-0.336-1.786-0.912h-0.024v3.154h-1.043V109.721z
			 M217.25,111.268c0,0.156,0.024,0.3,0.048,0.432c0.192,0.732,0.828,1.235,1.583,1.235c1.115,0,1.764-0.911,1.764-2.243
			c0-1.163-0.612-2.159-1.728-2.159c-0.72,0-1.392,0.516-1.595,1.307c-0.036,0.132-0.072,0.288-0.072,0.432V111.268z"/>
		<path d="M228.794,113.63l-0.084-0.731h-0.036c-0.323,0.456-0.947,0.863-1.775,0.863c-1.175,0-1.774-0.828-1.774-1.667
			c0-1.403,1.247-2.171,3.49-2.159v-0.12c0-0.479-0.132-1.343-1.319-1.343c-0.54,0-1.104,0.168-1.512,0.432l-0.239-0.695
			c0.479-0.312,1.175-0.516,1.906-0.516c1.775,0,2.207,1.211,2.207,2.375v2.171c0,0.503,0.024,0.995,0.096,1.391H228.794z
			 M228.638,110.668c-1.151-0.024-2.458,0.18-2.458,1.307c0,0.684,0.455,1.008,0.995,1.008c0.756,0,1.235-0.48,1.403-0.972
			c0.036-0.108,0.06-0.228,0.06-0.336V110.668z"/>
		<path d="M231.364,105.115h1.055v8.515h-1.055V105.115z"/>
		<path d="M234.196,109.721c0-0.744-0.024-1.343-0.049-1.895h0.948l0.048,0.995h0.023c0.432-0.708,1.115-1.127,2.063-1.127
			c1.403,0,2.458,1.187,2.458,2.95c0,2.087-1.271,3.118-2.639,3.118c-0.768,0-1.438-0.336-1.786-0.912h-0.024v3.154h-1.043V109.721z
			 M235.239,111.268c0,0.156,0.024,0.3,0.048,0.432c0.192,0.732,0.828,1.235,1.583,1.235c1.115,0,1.764-0.911,1.764-2.243
			c0-1.163-0.612-2.159-1.728-2.159c-0.72,0-1.392,0.516-1.595,1.307c-0.036,0.132-0.072,0.288-0.072,0.432V111.268z"/>
		<path d="M241.024,105.115h1.055v3.622h0.024c0.168-0.3,0.432-0.564,0.756-0.744c0.312-0.18,0.684-0.3,1.079-0.3
			c0.779,0,2.026,0.479,2.026,2.482v3.454h-1.055v-3.334c0-0.936-0.348-1.727-1.344-1.727c-0.684,0-1.224,0.479-1.415,1.055
			c-0.06,0.144-0.072,0.3-0.072,0.504v3.502h-1.055V105.115z"/>
		<path d="M250.898,113.63l-0.084-0.731h-0.036c-0.323,0.456-0.947,0.863-1.775,0.863c-1.175,0-1.774-0.828-1.774-1.667
			c0-1.403,1.247-2.171,3.49-2.159v-0.12c0-0.479-0.132-1.343-1.319-1.343c-0.54,0-1.104,0.168-1.512,0.432l-0.239-0.695
			c0.479-0.312,1.175-0.516,1.906-0.516c1.775,0,2.207,1.211,2.207,2.375v2.171c0,0.503,0.024,0.995,0.096,1.391H250.898z
			 M250.742,110.668c-1.151-0.024-2.458,0.18-2.458,1.307c0,0.684,0.455,1.008,0.995,1.008c0.756,0,1.235-0.48,1.403-0.972
			c0.036-0.108,0.06-0.228,0.06-0.336V110.668z"/>
		<path d="M255.616,109.588v-0.719h6.188v0.719H255.616z M255.616,111.939v-0.72h6.188v0.72H255.616z"/>
		<path d="M265.458,113.007c0-0.444,0.3-0.756,0.72-0.756c0.419,0,0.707,0.312,0.707,0.756c0,0.432-0.275,0.755-0.72,0.755
			C265.745,113.762,265.458,113.438,265.458,113.007z"/>
		<path d="M272.509,106.722h-2.975l-0.3,2.003c0.18-0.024,0.348-0.048,0.636-0.048c0.6,0,1.199,0.132,1.679,0.419
			c0.612,0.348,1.115,1.02,1.115,2.003c0,1.523-1.211,2.663-2.902,2.663c-0.852,0-1.57-0.24-1.942-0.479l0.264-0.804
			c0.324,0.192,0.959,0.432,1.667,0.432c0.995,0,1.847-0.647,1.847-1.691c-0.012-1.007-0.684-1.727-2.242-1.727
			c-0.444,0-0.792,0.048-1.08,0.084l0.504-3.742h3.73V106.722z"/>
	</g>
	<g>
		<rect x="3.814" y="2.805" fill="none" width="96.059" height="10.046"/>
		<path d="M4.879,3.43c0.617-0.126,1.499-0.196,2.339-0.196c1.303,0,2.143,0.238,2.731,0.771c0.477,0.42,0.743,1.064,0.743,1.793
			c0,1.247-0.785,2.073-1.779,2.409v0.042C9.642,8.5,10.076,9.173,10.3,10.153c0.308,1.316,0.532,2.227,0.729,2.591H9.768
			c-0.154-0.266-0.364-1.079-0.63-2.255c-0.28-1.303-0.784-1.793-1.891-1.835H6.098v4.09H4.879V3.43z M6.098,7.73h1.247
			c1.303,0,2.129-0.714,2.129-1.793c0-1.219-0.883-1.751-2.171-1.765c-0.588,0-1.008,0.056-1.205,0.112V7.73z"/>
		<path d="M19.639,12.324c-0.546,0.196-1.625,0.519-2.899,0.519c-1.429,0-2.605-0.364-3.53-1.247
			c-0.812-0.785-1.316-2.045-1.316-3.516c0.014-2.815,1.947-4.875,5.113-4.875c1.092,0,1.947,0.238,2.353,0.434l-0.294,0.995
			c-0.504-0.224-1.135-0.406-2.087-0.406c-2.297,0-3.796,1.429-3.796,3.796c0,2.396,1.443,3.81,3.642,3.81
			c0.798,0,1.345-0.112,1.625-0.252V8.767h-1.919v-0.98h3.11V12.324z"/>
		<path d="M21.497,3.43c0.532-0.112,1.373-0.196,2.228-0.196c1.218,0,2.003,0.21,2.591,0.687c0.49,0.364,0.784,0.924,0.784,1.667
			c0,0.91-0.602,1.709-1.597,2.073v0.028c0.896,0.224,1.947,0.966,1.947,2.367c0,0.813-0.322,1.429-0.798,1.891
			c-0.658,0.602-1.723,0.882-3.264,0.882c-0.84,0-1.485-0.056-1.891-0.112V3.43z M22.716,7.296h1.106
			c1.289,0,2.045-0.672,2.045-1.583c0-1.106-0.84-1.541-2.073-1.541c-0.56,0-0.882,0.042-1.079,0.084V7.296z M22.716,11.82
			c0.238,0.042,0.588,0.056,1.022,0.056c1.261,0,2.423-0.462,2.423-1.835c0-1.289-1.106-1.821-2.437-1.821h-1.009V11.82z"/>
		<path d="M31.719,3.023c-1.023,1.373-1.765,3.194-1.765,5.729c0,2.493,0.771,4.286,1.765,5.687h-0.967
			c-0.882-1.163-1.835-2.956-1.835-5.687c0.014-2.759,0.953-4.552,1.835-5.729H31.719z"/>
		<path d="M35.302,4.789h-0.028l-1.583,0.854l-0.238-0.938l1.989-1.064h1.051v9.105h-1.191V4.789z"/>
		<path d="M39.402,14.468c0.308-0.827,0.687-2.326,0.84-3.348l1.373-0.14c-0.322,1.191-0.938,2.746-1.331,3.404L39.402,14.468z"/>
		<path d="M51.726,8.094c0,3.096-1.148,4.805-3.166,4.805c-1.779,0-2.984-1.667-3.012-4.679c0-3.054,1.316-4.734,3.166-4.734
			C50.633,3.486,51.726,5.194,51.726,8.094z M46.781,8.234c0,2.367,0.729,3.712,1.849,3.712c1.261,0,1.863-1.471,1.863-3.796
			c0-2.241-0.574-3.712-1.849-3.712C47.565,4.438,46.781,5.755,46.781,8.234z"/>
		<path d="M52.45,14.468c0.308-0.827,0.687-2.326,0.84-3.348l1.373-0.14c-0.322,1.191-0.938,2.746-1.331,3.404L52.45,14.468z"/>
		<path d="M64.773,8.094c0,3.096-1.148,4.805-3.166,4.805c-1.779,0-2.984-1.667-3.012-4.679c0-3.054,1.316-4.734,3.166-4.734
			C63.68,3.486,64.773,5.194,64.773,8.094z M59.828,8.234c0,2.367,0.729,3.712,1.849,3.712c1.261,0,1.863-1.471,1.863-3.796
			c0-2.241-0.574-3.712-1.849-3.712C60.613,4.438,59.828,5.755,59.828,8.234z"/>
		<path d="M65.553,14.439c0.995-1.387,1.765-3.208,1.765-5.729c0-2.507-0.756-4.3-1.765-5.687h0.953
			c0.896,1.148,1.835,2.941,1.835,5.701c0,2.745-0.938,4.524-1.835,5.715H65.553z"/>
	</g>
	<g>
		<g>
			<path fill="none" stroke="#000000" stroke-miterlimit="10" d="M57.795,15.296c0,8.309,15.264,15.175,35.175,16.343"/>
			<g>
				<path d="M99.004,31.815c-2.88,0.938-6.473,2.593-8.732,4.407l1.91-4.683l-1.527-4.82C92.761,28.71,96.209,30.648,99.004,31.815z
					"/>
			</g>
		</g>
	</g>
	<g>
		<rect x="3.815" y="34.922" fill="none" width="96.059" height="10.046"/>
		<path d="M4.879,35.547c0.617-0.126,1.499-0.196,2.339-0.196c1.303,0,2.143,0.238,2.731,0.771c0.477,0.42,0.743,1.064,0.743,1.793
			c0,1.247-0.785,2.073-1.779,2.409v0.042c0.729,0.252,1.163,0.925,1.387,1.905c0.308,1.316,0.532,2.227,0.729,2.591H9.768
			c-0.154-0.266-0.364-1.079-0.63-2.255c-0.28-1.303-0.784-1.793-1.891-1.835H6.098v4.09H4.879V35.547z M6.098,39.848h1.247
			c1.303,0,2.129-0.714,2.129-1.793c0-1.219-0.883-1.751-2.171-1.765c-0.588,0-1.008,0.056-1.205,0.112V39.848z"/>
		<path d="M19.639,44.442c-0.546,0.196-1.625,0.519-2.899,0.519c-1.429,0-2.605-0.364-3.53-1.247
			c-0.812-0.785-1.316-2.045-1.316-3.516c0.014-2.815,1.947-4.875,5.113-4.875c1.092,0,1.947,0.238,2.353,0.434l-0.294,0.995
			c-0.504-0.224-1.135-0.406-2.087-0.406c-2.297,0-3.796,1.429-3.796,3.796c0,2.396,1.443,3.81,3.642,3.81
			c0.798,0,1.345-0.112,1.625-0.252v-2.815h-1.919v-0.98h3.11V44.442z"/>
		<path d="M21.497,35.547c0.532-0.112,1.373-0.196,2.228-0.196c1.218,0,2.003,0.21,2.591,0.687c0.49,0.364,0.784,0.924,0.784,1.667
			c0,0.91-0.602,1.709-1.597,2.073v0.028c0.896,0.224,1.947,0.966,1.947,2.367c0,0.813-0.322,1.429-0.798,1.891
			c-0.658,0.602-1.723,0.882-3.264,0.882c-0.84,0-1.485-0.056-1.891-0.112V35.547z M22.716,39.414h1.106
			c1.289,0,2.045-0.672,2.045-1.583c0-1.106-0.84-1.541-2.073-1.541c-0.56,0-0.882,0.042-1.079,0.084V39.414z M22.716,43.938
			c0.238,0.042,0.588,0.056,1.022,0.056c1.261,0,2.423-0.462,2.423-1.835c0-1.289-1.106-1.821-2.437-1.821h-1.009V43.938z"/>
		<path d="M31.719,35.141c-1.023,1.373-1.765,3.194-1.765,5.729c0,2.493,0.771,4.286,1.765,5.687h-0.967
			c-0.882-1.163-1.835-2.956-1.835-5.687c0.014-2.759,0.953-4.552,1.835-5.729H31.719z"/>
		<path d="M38.678,40.212c0,3.096-1.148,4.805-3.166,4.805c-1.779,0-2.984-1.667-3.012-4.679c0-3.054,1.316-4.734,3.166-4.734
			C37.585,35.604,38.678,37.312,38.678,40.212z M33.733,40.352c0,2.367,0.729,3.712,1.849,3.712c1.261,0,1.863-1.471,1.863-3.796
			c0-2.241-0.574-3.712-1.849-3.712C34.518,36.556,33.733,37.873,33.733,40.352z"/>
		<path d="M39.402,46.585c0.308-0.827,0.687-2.326,0.84-3.348l1.373-0.14c-0.322,1.191-0.938,2.746-1.331,3.404L39.402,46.585z"/>
		<path d="M48.35,36.906h-0.028l-1.583,0.854l-0.238-0.938l1.989-1.064h1.051v9.105H48.35V36.906z"/>
		<path d="M52.45,46.585c0.308-0.827,0.687-2.326,0.84-3.348l1.373-0.14c-0.322,1.191-0.938,2.746-1.331,3.404L52.45,46.585z"/>
		<path d="M64.773,40.212c0,3.096-1.148,4.805-3.166,4.805c-1.779,0-2.984-1.667-3.012-4.679c0-3.054,1.316-4.734,3.166-4.734
			C63.68,35.604,64.773,37.312,64.773,40.212z M59.828,40.352c0,2.367,0.729,3.712,1.849,3.712c1.261,0,1.863-1.471,1.863-3.796
			c0-2.241-0.574-3.712-1.849-3.712C60.613,36.556,59.828,37.873,59.828,40.352z"/>
		<path d="M65.553,46.557c0.995-1.387,1.765-3.208,1.765-5.729c0-2.507-0.756-4.3-1.765-5.687h0.953
			c0.896,1.148,1.835,2.941,1.835,5.701c0,2.745-0.938,4.524-1.835,5.715H65.553z"/>
	</g>
	<g>
		<rect x="3.815" y="68.028" fill="none" width="96.059" height="10.046"/>
		<path d="M4.879,68.653c0.617-0.126,1.499-0.196,2.339-0.196c1.303,0,2.143,0.238,2.731,0.771c0.477,0.42,0.743,1.064,0.743,1.793
			c0,1.247-0.785,2.073-1.779,2.409v0.042c0.729,0.252,1.163,0.925,1.387,1.905c0.308,1.316,0.532,2.227,0.729,2.591H9.768
			c-0.154-0.266-0.364-1.079-0.63-2.255c-0.28-1.303-0.784-1.793-1.891-1.835H6.098v4.09H4.879V68.653z M6.098,72.953h1.247
			c1.303,0,2.129-0.714,2.129-1.793c0-1.219-0.883-1.751-2.171-1.765c-0.588,0-1.008,0.056-1.205,0.112V72.953z"/>
		<path d="M19.639,77.547c-0.546,0.196-1.625,0.519-2.899,0.519c-1.429,0-2.605-0.364-3.53-1.247
			c-0.812-0.785-1.316-2.045-1.316-3.516c0.014-2.815,1.947-4.875,5.113-4.875c1.092,0,1.947,0.238,2.353,0.434l-0.294,0.995
			c-0.504-0.224-1.135-0.406-2.087-0.406c-2.297,0-3.796,1.429-3.796,3.796c0,2.396,1.443,3.81,3.642,3.81
			c0.798,0,1.345-0.112,1.625-0.252V73.99h-1.919v-0.98h3.11V77.547z"/>
		<path d="M21.497,68.653c0.532-0.112,1.373-0.196,2.228-0.196c1.218,0,2.003,0.21,2.591,0.687c0.49,0.364,0.784,0.924,0.784,1.667
			c0,0.91-0.602,1.709-1.597,2.073v0.028c0.896,0.224,1.947,0.966,1.947,2.367c0,0.813-0.322,1.429-0.798,1.891
			c-0.658,0.602-1.723,0.882-3.264,0.882c-0.84,0-1.485-0.056-1.891-0.112V68.653z M22.716,72.519h1.106
			c1.289,0,2.045-0.672,2.045-1.583c0-1.106-0.84-1.541-2.073-1.541c-0.56,0-0.882,0.042-1.079,0.084V72.519z M22.716,77.043
			c0.238,0.042,0.588,0.056,1.022,0.056c1.261,0,2.423-0.462,2.423-1.835c0-1.289-1.106-1.821-2.437-1.821h-1.009V77.043z"/>
		<path d="M31.719,68.247c-1.023,1.373-1.765,3.194-1.765,5.729c0,2.493,0.771,4.286,1.765,5.687h-0.967
			c-0.882-1.163-1.835-2.956-1.835-5.687c0.014-2.759,0.953-4.552,1.835-5.729H31.719z"/>
		<path d="M38.678,73.317c0,3.096-1.148,4.805-3.166,4.805c-1.779,0-2.984-1.667-3.012-4.679c0-3.054,1.316-4.734,3.166-4.734
			C37.585,68.709,38.678,70.417,38.678,73.317z M33.733,73.458c0,2.367,0.729,3.712,1.849,3.712c1.261,0,1.863-1.471,1.863-3.796
			c0-2.241-0.574-3.712-1.849-3.712C34.518,69.661,33.733,70.978,33.733,73.458z"/>
		<path d="M39.402,79.691c0.308-0.827,0.687-2.326,0.84-3.348l1.373-0.14c-0.322,1.191-0.938,2.746-1.331,3.404L39.402,79.691z"/>
		<path d="M51.726,73.317c0,3.096-1.148,4.805-3.166,4.805c-1.779,0-2.984-1.667-3.012-4.679c0-3.054,1.316-4.734,3.166-4.734
			C50.633,68.709,51.726,70.417,51.726,73.317z M46.781,73.458c0,2.367,0.729,3.712,1.849,3.712c1.261,0,1.863-1.471,1.863-3.796
			c0-2.241-0.574-3.712-1.849-3.712C47.565,69.661,46.781,70.978,46.781,73.458z"/>
		<path d="M52.45,79.691c0.308-0.827,0.687-2.326,0.84-3.348l1.373-0.14c-0.322,1.191-0.938,2.746-1.331,3.404L52.45,79.691z"/>
		<path d="M61.397,70.012h-0.028l-1.583,0.854l-0.238-0.938l1.989-1.064h1.051v9.105h-1.191V70.012z"/>
		<path d="M65.553,79.663c0.995-1.387,1.765-3.208,1.765-5.729c0-2.507-0.756-4.3-1.765-5.687h0.953
			c0.896,1.148,1.835,2.941,1.835,5.701c0,2.745-0.938,4.524-1.835,5.715H65.553z"/>
	</g>
	<g>
		<g>
			<path fill="none" stroke="#000000" stroke-miterlimit="10" d="M57.795,81.52c0,8.794,41.288,15.972,93.473,16.489"/>
			<g>
				<path d="M157.303,98.039c-2.857,1.006-6.41,2.745-8.625,4.612l1.799-4.727l-1.641-4.783
					C150.988,95.082,154.481,96.938,157.303,98.039z"/>
			</g>
		</g>
	</g>
	<g>
		<g>
			<path fill="none" stroke="#000000" stroke-miterlimit="10" d="M57.795,48.922c0,8.534,22.071,15.546,50.448,16.426"/>
			<g>
				<path d="M114.278,65.441c-2.87,0.97-6.444,2.663-8.684,4.502l1.859-4.703l-1.58-4.804
					C108.001,62.404,111.47,64.305,114.278,65.441z"/>
			</g>
		</g>
	</g>
	<rect x="57.795" y="146.062" fill="#FF0000" stroke="#000000" stroke-miterlimit="10" width="176.305" height="74.026"/>
	<g>
		<rect x="73.068" y="155.969" fill="#00FF00" stroke="#000000" stroke-miterlimit="10" width="101.392" height="74.027"/>
	</g>
	<g>
	</g>
	<g>
	</g>
	<g>
	</g>
</g>
</svg>
