<?xml version="1.0" encoding="utf-8"?>
<!-- Generator: Adobe Illustrator 15.1.0, SVG Export Plug-In . SVG Version: 6.00 Build 0)  -->
<!DOCTYPE svg PUBLIC "-//W3C//DTD SVG 1.1//EN" "http://www.w3.org/Graphics/SVG/1.1/DTD/svg11.dtd">
<svg version="1.1" id="Layer_1" xmlns="http://www.w3.org/2000/svg" xmlns:xlink="http://www.w3.org/1999/xlink" x="0px" y="0px"
	 width="300px" height="300px" viewBox="0 0 300 300" enable-background="new 0 0 300 300" xml:space="preserve">
<g>
	<polyline fill="#0000FF" points="255.072,125.747 40.621,125.747 40.621,7.563 255.072,7.563 255.072,125.747 	"/>
	<polygon points="255.072,125.747 255.072,125.247 41.121,125.247 41.121,8.063 254.572,8.063 254.572,125.747 255.072,125.747 
		255.072,125.247 255.072,125.747 255.572,125.747 255.572,7.063 40.121,7.063 40.121,126.247 255.572,126.247 255.572,125.747 	"/>
	<polyline fill="#FF0000" points="170.409,114.711 60.39,114.711 60.39,16.726 170.409,16.726 170.409,114.711 	"/>
	<polyline fill="#00FFFF" points="225.419,16.726 115.399,16.726 170.409,16.726 170.409,114.711 225.419,114.711 225.419,16.726 	
		"/>
	<polyline fill="#FFFF00" points="170.409,16.726 115.399,16.726 115.399,114.711 170.409,114.711 170.409,16.726 	"/>
	<polygon points="52.365,18.719 52.365,13.719 57.365,13.719 57.365,11.719 50.365,11.719 50.365,18.719 	"/>
	<path d="M204.889,13.719h11.349v-2h-11.349V13.719z M182.193,13.719h11.348v-2h-11.348V13.719z M159.497,13.719h11.348v-2h-11.348
		V13.719z M136.801,13.719h11.348v-2h-11.348V13.719z M114.105,13.719h11.348v-2h-11.348V13.719z M91.409,13.719h11.348v-2H91.409
		V13.719z M68.713,13.719h11.348v-2H68.713V13.719z"/>
	<polygon points="227.585,13.719 232.585,13.719 232.585,18.719 234.585,18.719 234.585,11.719 227.585,11.719 	"/>
	<path d="M232.585,93.62v10.7h2v-10.7H232.585z M232.585,72.22v10.7h2v-10.7H232.585z M232.585,50.82v10.7h2v-10.7H232.585z
		 M232.585,29.419v10.7h2v-10.7H232.585z"/>
	<polygon points="232.585,115.02 232.585,120.02 227.585,120.02 227.585,122.02 234.585,122.02 234.585,115.02 	"/>
	<path d="M80.062,120.02H68.713v2h11.348V120.02z M102.757,120.02H91.41v2h11.348V120.02z M125.454,120.02h-11.348v2h11.348V120.02z
		 M148.149,120.02h-11.348v2h11.348V120.02z M170.846,120.02h-11.349v2h11.349V120.02z M193.541,120.02h-11.348v2h11.348V120.02z
		 M216.237,120.02H204.89v2h11.348V120.02z"/>
	<polygon points="57.365,120.02 52.365,120.02 52.365,115.02 50.365,115.02 50.365,122.02 57.365,122.02 	"/>
	<path d="M52.365,40.119v-10.7h-2v10.7H52.365z M52.365,61.52v-10.7h-2v10.7H52.365z M52.365,82.919v-10.7h-2v10.7H52.365z
		 M52.365,104.32v-10.7h-2v10.7H52.365z"/>
	<g>
		<path d="M80.55,136.444c0,1.432-0.295,2.289-0.883,2.838c-0.613,0.55-1.483,0.742-2.263,0.742c-0.742,0-1.561-0.179-2.06-0.511
			l0.282-0.87c0.409,0.269,1.048,0.499,1.815,0.499c1.15,0,1.994-0.601,1.994-2.174v-0.678h-0.025
			c-0.332,0.576-1.01,1.036-1.969,1.036c-1.534,0-2.634-1.305-2.634-3.018c0-2.097,1.368-3.273,2.8-3.273
			c1.074,0,1.649,0.55,1.931,1.062h0.025l0.039-0.934h0.997c-0.038,0.435-0.051,0.946-0.051,1.688V136.444z M79.424,133.605
			c0-0.192-0.013-0.358-0.063-0.499c-0.205-0.665-0.742-1.202-1.573-1.202c-1.073,0-1.841,0.908-1.841,2.34
			c0,1.215,0.627,2.225,1.828,2.225c0.703,0,1.33-0.435,1.561-1.151c0.063-0.192,0.089-0.409,0.089-0.601V133.605z"/>
		<path d="M82.341,133.094c0-0.729-0.013-1.355-0.052-1.931h0.985l0.051,1.228h0.038c0.281-0.831,0.972-1.355,1.727-1.355
			c0.115,0,0.204,0.013,0.307,0.026v1.061c-0.115-0.025-0.229-0.025-0.384-0.025c-0.792,0-1.355,0.588-1.509,1.432
			c-0.025,0.153-0.038,0.345-0.038,0.524v3.299h-1.125V133.094z"/>
		<path d="M91.996,134.206c0,2.289-1.599,3.286-3.082,3.286c-1.662,0-2.966-1.228-2.966-3.184c0-2.059,1.368-3.273,3.068-3.273
			C90.794,131.035,91.996,132.326,91.996,134.206z M87.099,134.27c0,1.355,0.768,2.378,1.867,2.378c1.074,0,1.879-1.01,1.879-2.404
			c0-1.048-0.523-2.365-1.854-2.365C87.674,131.879,87.099,133.106,87.099,134.27z"/>
		<path d="M98.596,135.651c0,0.652,0.013,1.215,0.051,1.701h-0.997l-0.064-1.01H97.56c-0.281,0.499-0.946,1.151-2.046,1.151
			c-0.972,0-2.135-0.55-2.135-2.711v-3.619h1.125v3.414c0,1.177,0.371,1.982,1.381,1.982c0.754,0,1.278-0.524,1.483-1.036
			c0.063-0.153,0.103-0.358,0.103-0.575v-3.785h1.125V135.651z"/>
		<path d="M100.464,133.183c0-0.793-0.025-1.432-0.052-2.021h0.998l0.063,1.062h0.025c0.448-0.754,1.189-1.189,2.2-1.189
			c1.509,0,2.634,1.266,2.634,3.133c0,2.225-1.368,3.325-2.826,3.325c-0.818,0-1.534-0.358-1.905-0.972h-0.025v3.363h-1.112V133.183
			z M101.576,134.833c0,0.167,0.013,0.32,0.051,0.46c0.205,0.78,0.883,1.317,1.688,1.317c1.188,0,1.88-0.972,1.88-2.391
			c0-1.228-0.652-2.289-1.842-2.289c-0.768,0-1.496,0.537-1.7,1.381c-0.039,0.141-0.077,0.307-0.077,0.447V134.833z"/>
		<path d="M111.564,134.001h0.025c0.153-0.217,0.358-0.486,0.537-0.703l1.829-2.136h1.342l-2.378,2.545l2.724,3.644h-1.381
			l-2.123-2.967l-0.575,0.64v2.327h-1.112v-9.079h1.112V134.001z"/>
		<path d="M116.668,132.838c0-0.652-0.013-1.164-0.052-1.675h0.998l0.063,1.023h0.025c0.308-0.575,1.023-1.151,2.046-1.151
			c0.857,0,2.187,0.512,2.187,2.634v3.683h-1.125v-3.567c0-0.998-0.37-1.829-1.432-1.829c-0.729,0-1.305,0.524-1.509,1.151
			c-0.052,0.141-0.077,0.333-0.077,0.524v3.721h-1.125V132.838z"/>
		<path d="M129.367,134.206c0,2.289-1.599,3.286-3.082,3.286c-1.662,0-2.966-1.228-2.966-3.184c0-2.059,1.368-3.273,3.068-3.273
			C128.165,131.035,129.367,132.326,129.367,134.206z M124.47,134.27c0,1.355,0.768,2.378,1.867,2.378
			c1.074,0,1.879-1.01,1.879-2.404c0-1.048-0.523-2.365-1.854-2.365C125.045,131.879,124.47,133.106,124.47,134.27z"/>
		<path d="M135.199,137.134c-0.294,0.141-0.946,0.358-1.777,0.358c-1.867,0-3.081-1.266-3.081-3.158
			c0-1.905,1.304-3.299,3.324-3.299c0.665,0,1.253,0.167,1.56,0.333l-0.255,0.857c-0.269-0.141-0.691-0.294-1.305-0.294
			c-1.419,0-2.187,1.062-2.187,2.34c0,1.432,0.921,2.314,2.148,2.314c0.639,0,1.061-0.154,1.381-0.294L135.199,137.134z"/>
		<path d="M137.63,134.001h0.025c0.153-0.217,0.358-0.486,0.537-0.703l1.829-2.136h1.342l-2.378,2.545l2.724,3.644h-1.381
			l-2.123-2.967l-0.575,0.64v2.327h-1.112v-9.079h1.112V134.001z"/>
		<path d="M148.116,134.206c0,2.289-1.599,3.286-3.082,3.286c-1.662,0-2.966-1.228-2.966-3.184c0-2.059,1.368-3.273,3.068-3.273
			C146.914,131.035,148.116,132.326,148.116,134.206z M143.219,134.27c0,1.355,0.768,2.378,1.867,2.378
			c1.074,0,1.879-1.01,1.879-2.404c0-1.048-0.523-2.365-1.854-2.365C143.794,131.879,143.219,133.106,143.219,134.27z"/>
		<path d="M154.716,135.651c0,0.652,0.013,1.215,0.051,1.701h-0.997l-0.064-1.01h-0.025c-0.281,0.499-0.946,1.151-2.046,1.151
			c-0.972,0-2.135-0.55-2.135-2.711v-3.619h1.125v3.414c0,1.177,0.371,1.982,1.381,1.982c0.754,0,1.278-0.524,1.483-1.036
			c0.063-0.153,0.103-0.358,0.103-0.575v-3.785h1.125V135.651z"/>
		<path d="M157.94,129.68v1.483h1.611v0.857h-1.611v3.337c0,0.767,0.217,1.202,0.844,1.202c0.307,0,0.486-0.025,0.652-0.077
			l0.051,0.857c-0.217,0.077-0.563,0.153-0.997,0.153c-0.524,0-0.946-0.179-1.215-0.473c-0.307-0.345-0.435-0.895-0.435-1.624
			v-3.375h-0.959v-0.857h0.959v-1.151L157.94,129.68z"/>
		<path d="M160.563,132.186c0-0.473,0.319-0.806,0.755-0.806c0.46,0,0.754,0.333,0.754,0.806c0,0.448-0.294,0.793-0.768,0.793
			C160.869,132.979,160.563,132.633,160.563,132.186z M160.563,136.699c0-0.473,0.319-0.805,0.755-0.805
			c0.46,0,0.754,0.333,0.754,0.805c0,0.448-0.294,0.793-0.768,0.793C160.869,137.492,160.563,137.147,160.563,136.699z"/>
		<path d="M166.177,133.183c0-0.793-0.025-1.432-0.052-2.021h0.998l0.063,1.062h0.025c0.448-0.754,1.189-1.189,2.2-1.189
			c1.509,0,2.634,1.266,2.634,3.133c0,2.225-1.368,3.325-2.826,3.325c-0.818,0-1.534-0.358-1.905-0.972h-0.025v3.363h-1.112V133.183
			z M167.289,134.833c0,0.167,0.013,0.32,0.051,0.46c0.205,0.78,0.883,1.317,1.688,1.317c1.188,0,1.88-0.972,1.88-2.391
			c0-1.228-0.652-2.289-1.842-2.289c-0.768,0-1.496,0.537-1.7,1.381c-0.039,0.141-0.077,0.307-0.077,0.447V134.833z"/>
		<path d="M173.454,133.094c0-0.729-0.013-1.355-0.052-1.931h0.985l0.051,1.228h0.038c0.281-0.831,0.972-1.355,1.727-1.355
			c0.115,0,0.204,0.013,0.307,0.026v1.061c-0.115-0.025-0.229-0.025-0.384-0.025c-0.792,0-1.355,0.588-1.509,1.432
			c-0.025,0.153-0.038,0.345-0.038,0.524v3.299h-1.125V133.094z"/>
		<path d="M178.134,134.462c0.026,1.521,0.985,2.148,2.123,2.148c0.806,0,1.305-0.141,1.714-0.32l0.204,0.806
			c-0.396,0.179-1.087,0.396-2.071,0.396c-1.905,0-3.043-1.266-3.043-3.133c0-1.867,1.1-3.325,2.902-3.325
			c2.033,0,2.558,1.765,2.558,2.903c0,0.23-0.014,0.396-0.039,0.524H178.134z M181.434,133.656c0.013-0.703-0.295-1.816-1.561-1.816
			c-1.15,0-1.637,1.036-1.726,1.816H181.434z"/>
		<path d="M183.762,136.213c0.345,0.205,0.934,0.435,1.496,0.435c0.806,0,1.188-0.396,1.188-0.921c0-0.537-0.319-0.818-1.138-1.125
			c-1.125-0.409-1.649-1.01-1.649-1.752c0-0.998,0.818-1.816,2.136-1.816c0.626,0,1.176,0.167,1.509,0.384l-0.269,0.818
			c-0.243-0.153-0.69-0.371-1.267-0.371c-0.664,0-1.022,0.383-1.022,0.844c0,0.511,0.358,0.742,1.163,1.062
			c1.062,0.396,1.624,0.933,1.624,1.854c0,1.1-0.856,1.867-2.302,1.867c-0.677,0-1.304-0.179-1.738-0.435L183.762,136.213z"/>
		<path d="M189.606,134.462c0.026,1.521,0.985,2.148,2.123,2.148c0.806,0,1.305-0.141,1.714-0.32l0.204,0.806
			c-0.396,0.179-1.087,0.396-2.071,0.396c-1.905,0-3.043-1.266-3.043-3.133c0-1.867,1.1-3.325,2.902-3.325
			c2.033,0,2.558,1.765,2.558,2.903c0,0.23-0.014,0.396-0.039,0.524H189.606z M192.906,133.656c0.013-0.703-0.295-1.816-1.561-1.816
			c-1.15,0-1.637,1.036-1.726,1.816H192.906z"/>
		<path d="M195.388,133.094c0-0.729-0.013-1.355-0.052-1.931h0.985l0.051,1.228h0.038c0.281-0.831,0.972-1.355,1.727-1.355
			c0.115,0,0.204,0.013,0.307,0.026v1.061c-0.115-0.025-0.229-0.025-0.384-0.025c-0.792,0-1.355,0.588-1.509,1.432
			c-0.025,0.153-0.038,0.345-0.038,0.524v3.299h-1.125V133.094z"/>
		<path d="M200.312,131.163l1.215,3.465c0.204,0.575,0.371,1.087,0.499,1.599h0.038c0.141-0.512,0.319-1.023,0.524-1.599
			l1.202-3.465h1.176l-2.43,6.189h-1.074l-2.353-6.189H200.312z"/>
		<path d="M206.526,134.462c0.026,1.521,0.985,2.148,2.123,2.148c0.806,0,1.305-0.141,1.714-0.32l0.204,0.806
			c-0.396,0.179-1.087,0.396-2.071,0.396c-1.905,0-3.043-1.266-3.043-3.133c0-1.867,1.1-3.325,2.902-3.325
			c2.033,0,2.558,1.765,2.558,2.903c0,0.23-0.014,0.396-0.039,0.524H206.526z M209.826,133.656c0.013-0.703-0.295-1.816-1.561-1.816
			c-1.15,0-1.637,1.036-1.726,1.816H209.826z"/>
	</g>
	<polyline fill="#0000FF" points="255.072,278.811 40.621,278.811 40.621,160.627 255.072,160.627 255.072,278.811 	"/>
	<polygon points="255.072,278.811 255.072,278.311 41.121,278.311 41.121,161.127 254.572,161.127 254.572,278.811 255.072,278.811 
		255.072,278.311 255.072,278.811 255.572,278.811 255.572,160.127 40.121,160.127 40.121,279.311 255.572,279.311 255.572,278.811 
			"/>
	<polyline fill="#FF0000" points="170.409,267.775 60.39,267.775 60.39,169.79 170.409,169.79 170.409,267.775 	"/>
	<polyline fill="#00FFFF" points="225.419,169.79 115.399,169.79 115.399,267.775 170.409,267.775 225.419,267.775 225.419,169.79 	
		"/>
	<polygon points="52.365,171.783 52.365,166.783 57.365,166.783 57.365,164.783 50.365,164.783 50.365,171.783 	"/>
	<path d="M204.889,166.783h11.349v-2h-11.349V166.783z M182.193,166.783h11.348v-2h-11.348V166.783z M159.497,166.783h11.348v-2
		h-11.348V166.783z M136.801,166.783h11.348v-2h-11.348V166.783z M114.105,166.783h11.348v-2h-11.348V166.783z M91.409,166.783
		h11.348v-2H91.409V166.783z M68.713,166.783h11.348v-2H68.713V166.783z"/>
	<polygon points="227.585,166.783 232.585,166.783 232.585,171.783 234.585,171.783 234.585,164.783 227.585,164.783 	"/>
	<path d="M232.585,246.684v10.7h2v-10.7H232.585z M232.585,225.283v10.7h2v-10.7H232.585z M232.585,203.884v10.699h2v-10.699
		H232.585z M232.585,182.483v10.7h2v-10.7H232.585z"/>
	<polygon points="232.585,268.084 232.585,273.084 227.585,273.084 227.585,275.084 234.585,275.084 234.585,268.084 	"/>
	<path d="M80.062,273.084H68.713v2h11.348V273.084z M102.757,273.084H91.41v2h11.348V273.084z M125.454,273.084h-11.348v2h11.348
		V273.084z M148.149,273.084h-11.348v2h11.348V273.084z M170.846,273.084h-11.349v2h11.349V273.084z M193.541,273.084h-11.348v2
		h11.348V273.084z M216.237,273.084H204.89v2h11.348V273.084z"/>
	<polygon points="57.365,273.084 52.365,273.084 52.365,268.084 50.365,268.084 50.365,275.084 57.365,275.084 	"/>
	<path d="M52.365,193.184v-10.7h-2v10.7H52.365z M52.365,214.584v-10.7h-2v10.7H52.365z M52.365,235.983v-10.7h-2v10.7H52.365z
		 M52.365,257.384v-10.7h-2v10.7H52.365z"/>
	<g>
		<path d="M80.55,289.507c0,1.433-0.295,2.289-0.883,2.839c-0.613,0.55-1.483,0.742-2.263,0.742c-0.742,0-1.561-0.18-2.06-0.512
			l0.282-0.87c0.409,0.269,1.048,0.499,1.815,0.499c1.15,0,1.994-0.601,1.994-2.174v-0.678h-0.025
			c-0.332,0.575-1.01,1.036-1.969,1.036c-1.534,0-2.634-1.305-2.634-3.018c0-2.098,1.368-3.273,2.8-3.273
			c1.074,0,1.649,0.55,1.931,1.061h0.025l0.039-0.933h0.997c-0.038,0.435-0.051,0.946-0.051,1.688V289.507z M79.424,286.669
			c0-0.192-0.013-0.358-0.063-0.499c-0.205-0.665-0.742-1.202-1.573-1.202c-1.073,0-1.841,0.908-1.841,2.34
			c0,1.215,0.627,2.226,1.828,2.226c0.703,0,1.33-0.436,1.561-1.151c0.063-0.191,0.089-0.409,0.089-0.601V286.669z"/>
		<path d="M82.341,286.157c0-0.729-0.013-1.355-0.052-1.931h0.985l0.051,1.228h0.038c0.281-0.831,0.972-1.355,1.727-1.355
			c0.115,0,0.204,0.013,0.307,0.025v1.062c-0.115-0.026-0.229-0.026-0.384-0.026c-0.792,0-1.355,0.589-1.509,1.433
			c-0.025,0.153-0.038,0.346-0.038,0.524v3.299h-1.125V286.157z"/>
		<path d="M91.996,287.27c0,2.289-1.599,3.286-3.082,3.286c-1.662,0-2.966-1.228-2.966-3.184c0-2.059,1.368-3.273,3.068-3.273
			C90.794,284.099,91.996,285.39,91.996,287.27z M87.099,287.333c0,1.355,0.768,2.379,1.867,2.379c1.074,0,1.879-1.011,1.879-2.404
			c0-1.048-0.523-2.365-1.854-2.365C87.674,284.942,87.099,286.17,87.099,287.333z"/>
		<path d="M98.596,288.715c0,0.651,0.013,1.214,0.051,1.7h-0.997l-0.064-1.01H97.56c-0.281,0.498-0.946,1.15-2.046,1.15
			c-0.972,0-2.135-0.55-2.135-2.711v-3.618h1.125v3.414c0,1.176,0.371,1.981,1.381,1.981c0.754,0,1.278-0.524,1.483-1.035
			c0.063-0.154,0.103-0.358,0.103-0.576v-3.784h1.125V288.715z"/>
		<path d="M100.464,286.246c0-0.792-0.025-1.432-0.052-2.02h0.998l0.063,1.061h0.025c0.448-0.754,1.189-1.188,2.2-1.188
			c1.509,0,2.634,1.266,2.634,3.133c0,2.225-1.368,3.324-2.826,3.324c-0.818,0-1.534-0.358-1.905-0.972h-0.025v3.363h-1.112V286.246
			z M101.576,287.896c0,0.166,0.013,0.319,0.051,0.46c0.205,0.78,0.883,1.317,1.688,1.317c1.188,0,1.88-0.973,1.88-2.392
			c0-1.228-0.652-2.289-1.842-2.289c-0.768,0-1.496,0.537-1.7,1.381c-0.039,0.141-0.077,0.308-0.077,0.448V287.896z"/>
		<path d="M111.564,287.064h0.025c0.153-0.217,0.358-0.485,0.537-0.703l1.829-2.135h1.342l-2.378,2.544l2.724,3.645h-1.381
			l-2.123-2.967l-0.575,0.64v2.327h-1.112v-9.079h1.112V287.064z"/>
		<path d="M116.668,285.901c0-0.652-0.013-1.164-0.052-1.675h0.998l0.063,1.022h0.025c0.308-0.575,1.023-1.15,2.046-1.15
			c0.857,0,2.187,0.511,2.187,2.634v3.683h-1.125v-3.567c0-0.997-0.37-1.829-1.432-1.829c-0.729,0-1.305,0.524-1.509,1.151
			c-0.052,0.141-0.077,0.332-0.077,0.524v3.721h-1.125V285.901z"/>
		<path d="M129.367,287.27c0,2.289-1.599,3.286-3.082,3.286c-1.662,0-2.966-1.228-2.966-3.184c0-2.059,1.368-3.273,3.068-3.273
			C128.165,284.099,129.367,285.39,129.367,287.27z M124.47,287.333c0,1.355,0.768,2.379,1.867,2.379
			c1.074,0,1.879-1.011,1.879-2.404c0-1.048-0.523-2.365-1.854-2.365C125.045,284.942,124.47,286.17,124.47,287.333z"/>
		<path d="M135.199,290.197c-0.294,0.141-0.946,0.358-1.777,0.358c-1.867,0-3.081-1.266-3.081-3.158
			c0-1.905,1.304-3.299,3.324-3.299c0.665,0,1.253,0.166,1.56,0.332l-0.255,0.856c-0.269-0.141-0.691-0.294-1.305-0.294
			c-1.419,0-2.187,1.062-2.187,2.34c0,1.433,0.921,2.314,2.148,2.314c0.639,0,1.061-0.153,1.381-0.294L135.199,290.197z"/>
		<path d="M137.63,287.064h0.025c0.153-0.217,0.358-0.485,0.537-0.703l1.829-2.135h1.342l-2.378,2.544l2.724,3.645h-1.381
			l-2.123-2.967l-0.575,0.64v2.327h-1.112v-9.079h1.112V287.064z"/>
		<path d="M148.116,287.27c0,2.289-1.599,3.286-3.082,3.286c-1.662,0-2.966-1.228-2.966-3.184c0-2.059,1.368-3.273,3.068-3.273
			C146.914,284.099,148.116,285.39,148.116,287.27z M143.219,287.333c0,1.355,0.768,2.379,1.867,2.379
			c1.074,0,1.879-1.011,1.879-2.404c0-1.048-0.523-2.365-1.854-2.365C143.794,284.942,143.219,286.17,143.219,287.333z"/>
		<path d="M154.716,288.715c0,0.651,0.013,1.214,0.051,1.7h-0.997l-0.064-1.01h-0.025c-0.281,0.498-0.946,1.15-2.046,1.15
			c-0.972,0-2.135-0.55-2.135-2.711v-3.618h1.125v3.414c0,1.176,0.371,1.981,1.381,1.981c0.754,0,1.278-0.524,1.483-1.035
			c0.063-0.154,0.103-0.358,0.103-0.576v-3.784h1.125V288.715z"/>
		<path d="M157.94,282.743v1.483h1.611v0.856h-1.611v3.337c0,0.768,0.217,1.202,0.844,1.202c0.307,0,0.486-0.025,0.652-0.076
			l0.051,0.856c-0.217,0.076-0.563,0.153-0.997,0.153c-0.524,0-0.946-0.179-1.215-0.473c-0.307-0.346-0.435-0.896-0.435-1.624
			v-3.376h-0.959v-0.856h0.959v-1.151L157.94,282.743z"/>
		<path d="M160.563,285.249c0-0.473,0.319-0.806,0.755-0.806c0.46,0,0.754,0.333,0.754,0.806c0,0.447-0.294,0.793-0.768,0.793
			C160.869,286.042,160.563,285.696,160.563,285.249z M160.563,289.763c0-0.473,0.319-0.806,0.755-0.806
			c0.46,0,0.754,0.333,0.754,0.806c0,0.448-0.294,0.793-0.768,0.793C160.869,290.556,160.563,290.211,160.563,289.763z"/>
		<path d="M167.289,287.064h0.025c0.153-0.217,0.358-0.485,0.537-0.703l1.829-2.135h1.342l-2.378,2.544l2.724,3.645h-1.381
			l-2.123-2.967l-0.575,0.64v2.327h-1.112v-9.079h1.112V287.064z"/>
		<path d="M172.393,285.901c0-0.652-0.013-1.164-0.052-1.675h0.998l0.063,1.022h0.025c0.308-0.575,1.023-1.15,2.046-1.15
			c0.857,0,2.187,0.511,2.187,2.634v3.683h-1.125v-3.567c0-0.997-0.37-1.829-1.432-1.829c-0.729,0-1.305,0.524-1.509,1.151
			c-0.052,0.141-0.077,0.332-0.077,0.524v3.721h-1.125V285.901z"/>
		<path d="M185.091,287.27c0,2.289-1.599,3.286-3.082,3.286c-1.662,0-2.966-1.228-2.966-3.184c0-2.059,1.368-3.273,3.068-3.273
			C183.889,284.099,185.091,285.39,185.091,287.27z M180.193,287.333c0,1.355,0.768,2.379,1.867,2.379
			c1.074,0,1.879-1.011,1.879-2.404c0-1.048-0.523-2.365-1.854-2.365C180.769,284.942,180.193,286.17,180.193,287.333z"/>
		<path d="M190.923,290.197c-0.294,0.141-0.946,0.358-1.777,0.358c-1.867,0-3.081-1.266-3.081-3.158
			c0-1.905,1.304-3.299,3.324-3.299c0.665,0,1.253,0.166,1.56,0.332l-0.256,0.856c-0.268-0.141-0.69-0.294-1.304-0.294
			c-1.419,0-2.187,1.062-2.187,2.34c0,1.433,0.921,2.314,2.148,2.314c0.639,0,1.061-0.153,1.381-0.294L190.923,290.197z"/>
		<path d="M193.354,287.064h0.025c0.153-0.217,0.358-0.485,0.537-0.703l1.829-2.135h1.342l-2.378,2.544l2.724,3.645h-1.381
			l-2.123-2.967l-0.575,0.64v2.327h-1.112v-9.079h1.112V287.064z"/>
		<path d="M203.841,287.27c0,2.289-1.599,3.286-3.082,3.286c-1.662,0-2.966-1.228-2.966-3.184c0-2.059,1.368-3.273,3.068-3.273
			C202.639,284.099,203.841,285.39,203.841,287.27z M198.943,287.333c0,1.355,0.768,2.379,1.867,2.379
			c1.074,0,1.879-1.011,1.879-2.404c0-1.048-0.523-2.365-1.854-2.365C199.519,284.942,198.943,286.17,198.943,287.333z"/>
		<path d="M210.44,288.715c0,0.651,0.013,1.214,0.051,1.7h-0.997l-0.064-1.01h-0.025c-0.281,0.498-0.946,1.15-2.046,1.15
			c-0.972,0-2.135-0.55-2.135-2.711v-3.618h1.125v3.414c0,1.176,0.371,1.981,1.381,1.981c0.754,0,1.278-0.524,1.483-1.035
			c0.063-0.154,0.103-0.358,0.103-0.576v-3.784h1.125V288.715z"/>
		<path d="M213.664,282.743v1.483h1.611v0.856h-1.611v3.337c0,0.768,0.217,1.202,0.844,1.202c0.307,0,0.486-0.025,0.652-0.076
			l0.051,0.856c-0.217,0.076-0.563,0.153-0.997,0.153c-0.524,0-0.946-0.179-1.215-0.473c-0.307-0.346-0.435-0.896-0.435-1.624
			v-3.376h-0.959v-0.856h0.959v-1.151L213.664,282.743z"/>
	</g>
</g>
</svg>
