<?xml version="1.0" encoding="utf-8"?>
<!-- Generator: Adobe Illustrator 16.0.0, SVG Export Plug-In . SVG Version: 6.00 Build 0)  -->
<!DOCTYPE svg PUBLIC "-//W3C//DTD SVG 1.1//EN" "http://www.w3.org/Graphics/SVG/1.1/DTD/svg11.dtd">
<svg version="1.1" xmlns="http://www.w3.org/2000/svg" xmlns:xlink="http://www.w3.org/1999/xlink" x="0px" y="0px"
	 width="278.714px" height="232.931px" viewBox="0 0 278.714 232.931" enable-background="new 0 0 278.714 232.931"
	 xml:space="preserve">
<pattern  x="-23.976" y="-16.899" width="18.474" height="18.175" patternUnits="userSpaceOnUse" id="New_Pattern_Swatch_3" viewBox="0 -18.175 18.474 18.175" overflow="visible">
	<g>
		<polygon fill="none" points="0,0 18.474,0 18.474,-18.175 0,-18.175 		"/>
		<polygon fill="#E0E0E0" points="9.438,-8.938 0,-8.938 0,-18.175 9.438,-18.175 		"/>
		<polygon fill="#E0E0E0" points="18.474,0 9.036,0 9.036,-9.237 18.474,-9.237 		"/>
	</g>
</pattern>
<g id="Layer_2">
	<rect y="-0.076" fill="url(#New_Pattern_Swatch_3)" width="278.714" height="233.007"/>
</g>
<g id="Layer_1">
	
		<rect x="56.626" y="16.488" opacity="0.45" fill="#FF0000" stroke="#000000" stroke-miterlimit="10" width="101.392" height="74.027"/>
	<rect x="102.824" y="42.059" fill="#0000FF" stroke="#000000" stroke-miterlimit="10" width="101.392" height="74.027"/>
	<g>
		<g>
			<line fill="none" stroke="#000000" stroke-miterlimit="10" x1="131.325" y1="122.512" x2="131.325" y2="132.943"/>
			<g>
				<path d="M131.325,138.978c-1.054-2.84-2.852-6.363-4.756-8.547l4.756,1.72l4.755-1.72
					C134.176,132.615,132.378,136.138,131.325,138.978z"/>
			</g>
		</g>
	</g>
	
		<rect x="56.625" y="156.905" opacity="0.21" fill="#FF0000" stroke="#000000" stroke-miterlimit="10" width="101.393" height="74.026"/>
	<g>
		<rect x="80.004" y="142.797" fill="none" width="60.643" height="12.45"/>
		<path d="M81.068,143.423c0.532-0.113,1.373-0.197,2.228-0.197c1.218,0,2.003,0.211,2.591,0.688
			c0.49,0.363,0.784,0.924,0.784,1.666c0,0.911-0.602,1.709-1.597,2.073v0.028c0.896,0.224,1.947,0.967,1.947,2.367
			c0,0.813-0.322,1.429-0.798,1.891c-0.658,0.603-1.723,0.883-3.264,0.883c-0.84,0-1.485-0.056-1.891-0.112V143.423z
			 M82.287,147.289h1.106c1.289,0,2.045-0.672,2.045-1.583c0-1.106-0.841-1.54-2.073-1.54c-0.561,0-0.882,0.041-1.079,0.084V147.289
			z M82.287,151.813c0.238,0.042,0.588,0.057,1.022,0.057c1.261,0,2.423-0.463,2.423-1.835c0-1.289-1.106-1.821-2.437-1.821h-1.009
			V151.813z"/>
		<path d="M92.368,152.738l-0.098-0.854h-0.042c-0.378,0.532-1.107,1.009-2.073,1.009c-1.373,0-2.073-0.967-2.073-1.947
			c0-1.639,1.457-2.535,4.076-2.521v-0.14c0-0.561-0.154-1.569-1.541-1.569c-0.63,0-1.289,0.196-1.765,0.505l-0.28-0.813
			c0.561-0.364,1.373-0.603,2.227-0.603c2.073,0,2.578,1.415,2.578,2.773v2.535c0,0.589,0.028,1.163,0.112,1.625H92.368z
			 M92.186,149.278c-1.345-0.028-2.871,0.21-2.871,1.527c0,0.798,0.532,1.176,1.163,1.176c0.882,0,1.442-0.56,1.639-1.134
			c0.042-0.127,0.07-0.267,0.07-0.393V149.278z"/>
		<path d="M100.195,152.486c-0.322,0.168-1.036,0.392-1.947,0.392c-2.045,0-3.376-1.387-3.376-3.459
			c0-2.088,1.429-3.601,3.642-3.601c0.729,0,1.373,0.183,1.709,0.351l-0.28,0.952c-0.294-0.168-0.756-0.322-1.429-0.322
			c-1.555,0-2.396,1.148-2.396,2.563c0,1.569,1.009,2.535,2.354,2.535c0.7,0,1.163-0.182,1.513-0.336L100.195,152.486z"/>
		<path d="M102.853,149.068h0.028c0.168-0.238,0.406-0.532,0.603-0.771l1.989-2.339h1.484l-2.619,2.787l2.983,3.992h-1.499
			l-2.339-3.25l-0.63,0.7v2.55h-1.219v-9.945h1.219V149.068z"/>
		<path d="M114.056,142.792v8.194c0,0.603,0.014,1.289,0.056,1.751h-1.106l-0.056-1.177h-0.028
			c-0.378,0.757-1.205,1.331-2.312,1.331c-1.639,0-2.899-1.387-2.899-3.446c-0.014-2.255,1.387-3.642,3.04-3.642
			c1.037,0,1.737,0.49,2.045,1.036h0.028v-4.048H114.056z M112.823,148.717c0-0.153-0.014-0.364-0.056-0.518
			c-0.182-0.785-0.854-1.429-1.779-1.429c-1.275,0-2.031,1.12-2.031,2.619c0,1.373,0.672,2.507,2.003,2.507
			c0.826,0,1.583-0.546,1.807-1.471c0.042-0.168,0.056-0.336,0.056-0.532V148.717z"/>
		<path d="M116.096,148.074c0-0.799-0.014-1.485-0.056-2.115h1.079l0.042,1.33h0.056c0.308-0.91,1.051-1.484,1.877-1.484
			c0.14,0,0.238,0.014,0.35,0.042v1.162c-0.126-0.027-0.252-0.042-0.42-0.042c-0.869,0-1.485,0.659-1.653,1.583
			c-0.028,0.168-0.056,0.364-0.056,0.574v3.614h-1.219V148.074z"/>
		<path d="M126.669,149.292c0,2.508-1.737,3.601-3.375,3.601c-1.835,0-3.25-1.345-3.25-3.488c0-2.27,1.485-3.6,3.362-3.6
			C125.353,145.804,126.669,147.219,126.669,149.292z M121.291,149.362c0,1.485,0.854,2.605,2.059,2.605
			c1.177,0,2.059-1.106,2.059-2.634c0-1.148-0.574-2.604-2.031-2.604C121.921,146.729,121.291,148.074,121.291,149.362z"/>
		<path d="M128.22,148.171c0-0.868-0.028-1.569-0.056-2.213h1.107l0.056,1.162h0.028c0.504-0.826,1.303-1.316,2.409-1.316
			c1.639,0,2.872,1.387,2.872,3.445c0,2.438-1.485,3.643-3.082,3.643c-0.896,0-1.681-0.393-2.087-1.064h-0.028v3.684h-1.219V148.171
			z M129.439,149.978c0,0.183,0.028,0.351,0.056,0.505c0.224,0.854,0.966,1.442,1.849,1.442c1.302,0,2.059-1.064,2.059-2.619
			c0-1.359-0.714-2.521-2.017-2.521c-0.841,0-1.625,0.603-1.863,1.526c-0.042,0.154-0.084,0.337-0.084,0.505V149.978z"/>
	</g>
	<g opacity="0.5">
		<rect x="102.824" y="182.475" fill="#FF0000" width="55.195" height="48.456"/>
		<g>
			<polyline fill="none" stroke="#000000" stroke-miterlimit="10" points="158.019,229.431 158.019,230.931 156.519,230.931 			"/>
			
				<line fill="none" stroke="#000000" stroke-miterlimit="10" stroke-dasharray="3.0703,3.0703" x1="153.448" y1="230.931" x2="105.859" y2="230.931"/>
			<polyline fill="none" stroke="#000000" stroke-miterlimit="10" points="104.324,230.931 102.824,230.931 102.824,229.431 			"/>
			
				<line fill="none" stroke="#000000" stroke-miterlimit="10" stroke-dasharray="3.0304,3.0304" x1="102.824" y1="226.401" x2="102.824" y2="185.491"/>
			<polyline fill="none" stroke="#000000" stroke-miterlimit="10" points="102.824,183.975 102.824,182.475 104.324,182.475 			"/>
			
				<line fill="none" stroke="#000000" stroke-miterlimit="10" stroke-dasharray="3.0703,3.0703" x1="107.394" y1="182.475" x2="154.983" y2="182.475"/>
			<polyline fill="none" stroke="#000000" stroke-miterlimit="10" points="156.519,182.475 158.019,182.475 158.019,183.975 			"/>
			
				<line fill="none" stroke="#000000" stroke-miterlimit="10" stroke-dasharray="3.0304,3.0304" x1="158.019" y1="187.005" x2="158.019" y2="227.916"/>
		</g>
	</g>
	<g>
		<rect x="66.959" y="2" fill="none" width="96.059" height="10.046"/>
		<path d="M68.024,2.625c0.617-0.126,1.499-0.196,2.339-0.196c1.303,0,2.143,0.238,2.731,0.771c0.477,0.42,0.743,1.064,0.743,1.793
			c0,1.247-0.785,2.073-1.779,2.409v0.042c0.729,0.252,1.163,0.925,1.387,1.905c0.308,1.316,0.532,2.227,0.729,2.591h-1.261
			c-0.154-0.266-0.364-1.079-0.63-2.255c-0.28-1.303-0.784-1.793-1.891-1.835h-1.148v4.09h-1.219V2.625z M69.243,6.925h1.247
			c1.303,0,2.129-0.714,2.129-1.793c0-1.219-0.883-1.751-2.171-1.765c-0.588,0-1.008,0.056-1.205,0.112V6.925z"/>
		<path d="M82.784,11.52c-0.546,0.196-1.625,0.519-2.899,0.519c-1.429,0-2.605-0.364-3.53-1.247
			c-0.812-0.785-1.316-2.045-1.316-3.516c0.014-2.815,1.947-4.875,5.113-4.875c1.092,0,1.947,0.238,2.353,0.434L82.21,3.83
			c-0.504-0.224-1.135-0.406-2.087-0.406c-2.297,0-3.796,1.429-3.796,3.796c0,2.396,1.443,3.81,3.642,3.81
			c0.798,0,1.345-0.112,1.625-0.252V7.962h-1.919v-0.98h3.11V11.52z"/>
		<path d="M84.642,2.625c0.532-0.112,1.373-0.196,2.228-0.196c1.218,0,2.003,0.21,2.591,0.687c0.49,0.364,0.784,0.924,0.784,1.667
			c0,0.91-0.602,1.709-1.597,2.073v0.028c0.896,0.224,1.947,0.966,1.947,2.367c0,0.813-0.322,1.429-0.798,1.891
			c-0.658,0.602-1.723,0.882-3.264,0.882c-0.84,0-1.485-0.056-1.891-0.112V2.625z M85.861,6.491h1.106
			c1.289,0,2.045-0.672,2.045-1.583c0-1.106-0.84-1.541-2.073-1.541c-0.56,0-0.882,0.042-1.079,0.084V6.491z M85.861,11.016
			c0.238,0.042,0.588,0.056,1.022,0.056c1.261,0,2.423-0.462,2.423-1.835c0-1.289-1.106-1.821-2.437-1.821h-1.009V11.016z"/>
		<path d="M94.864,2.219c-1.023,1.373-1.765,3.194-1.765,5.729c0,2.493,0.771,4.286,1.765,5.687h-0.967
			c-0.882-1.163-1.835-2.956-1.835-5.687c0.014-2.759,0.953-4.552,1.835-5.729H94.864z"/>
		<path d="M98.447,3.984h-0.028l-1.583,0.854l-0.238-0.938l1.989-1.064h1.051v9.105h-1.191V3.984z"/>
		<path d="M102.547,13.663c0.308-0.827,0.687-2.326,0.84-3.348l1.373-0.14c-0.322,1.191-0.938,2.746-1.331,3.404L102.547,13.663z"/>
		<path d="M114.871,7.29c0,3.096-1.148,4.805-3.166,4.805c-1.779,0-2.984-1.667-3.012-4.679c0-3.054,1.316-4.734,3.166-4.734
			C113.778,2.681,114.871,4.39,114.871,7.29z M109.926,7.43c0,2.367,0.729,3.712,1.849,3.712c1.261,0,1.863-1.471,1.863-3.796
			c0-2.241-0.574-3.712-1.849-3.712C110.71,3.633,109.926,4.95,109.926,7.43z"/>
		<path d="M115.595,13.663c0.308-0.827,0.687-2.326,0.84-3.348l1.373-0.14c-0.322,1.191-0.938,2.746-1.331,3.404L115.595,13.663z"/>
		<path d="M127.918,7.29c0,3.096-1.148,4.805-3.166,4.805c-1.779,0-2.984-1.667-3.012-4.679c0-3.054,1.316-4.734,3.166-4.734
			C126.825,2.681,127.918,4.39,127.918,7.29z M122.973,7.43c0,2.367,0.729,3.712,1.849,3.712c1.261,0,1.863-1.471,1.863-3.796
			c0-2.241-0.574-3.712-1.849-3.712C123.758,3.633,122.973,4.95,122.973,7.43z"/>
		<path d="M128.642,13.663c0.308-0.827,0.687-2.326,0.84-3.348l1.373-0.14c-0.322,1.191-0.938,2.746-1.331,3.404L128.642,13.663z"/>
		<path d="M135.012,11.211c0-0.518,0.35-0.882,0.84-0.882s0.827,0.364,0.827,0.882c0,0.504-0.322,0.883-0.841,0.883
			C135.348,12.094,135.012,11.716,135.012,11.211z"/>
		<path d="M143.247,3.872h-3.474l-0.35,2.339c0.21-0.028,0.406-0.056,0.742-0.056c0.701,0,1.401,0.154,1.961,0.49
			c0.714,0.406,1.303,1.191,1.303,2.339c0,1.779-1.415,3.11-3.39,3.11c-0.995,0-1.835-0.28-2.269-0.561l0.308-0.938
			c0.378,0.224,1.121,0.504,1.947,0.504c1.163,0,2.157-0.756,2.157-1.975c-0.014-1.177-0.798-2.017-2.619-2.017
			c-0.519,0-0.925,0.056-1.261,0.098l0.588-4.371h4.356V3.872z"/>
		<path d="M144.644,13.635c0.995-1.387,1.765-3.208,1.765-5.729c0-2.507-0.756-4.3-1.765-5.687h0.953
			c0.896,1.148,1.835,2.941,1.835,5.701c0,2.745-0.938,4.524-1.835,5.715H144.644z"/>
	</g>
	<g>
		<g>
			<path fill="none" stroke="#000000" stroke-miterlimit="10" d="M201.757,187.91c0,12.35-15.264,22.555-35.177,24.291"/>
			<g>
				<path d="M160.548,212.46c2.781-1.199,6.207-3.176,8.29-5.191l-1.472,4.838l1.964,4.66
					C167.05,214.978,163.439,213.365,160.548,212.46z"/>
			</g>
		</g>
	</g>
	<g>
		<rect x="172.931" y="170.365" fill="none" width="96.059" height="10.047"/>
		<path d="M173.996,170.99c0.617-0.125,1.499-0.195,2.339-0.195c1.303,0,2.144,0.238,2.731,0.77
			c0.477,0.421,0.742,1.064,0.742,1.793c0,1.247-0.784,2.074-1.779,2.41v0.041c0.729,0.253,1.163,0.926,1.387,1.906
			c0.309,1.316,0.533,2.227,0.729,2.591h-1.26c-0.154-0.267-0.365-1.079-0.631-2.255c-0.28-1.303-0.784-1.793-1.891-1.836h-1.148
			v4.091h-1.219V170.99z M175.215,175.291h1.247c1.303,0,2.129-0.715,2.129-1.793c0-1.219-0.883-1.751-2.171-1.766
			c-0.588,0-1.008,0.057-1.205,0.113V175.291z"/>
		<path d="M188.756,179.884c-0.547,0.197-1.625,0.52-2.9,0.52c-1.429,0-2.605-0.365-3.529-1.247
			c-0.813-0.784-1.316-2.046-1.316-3.517c0.014-2.814,1.946-4.874,5.112-4.874c1.093,0,1.946,0.238,2.353,0.435l-0.293,0.994
			c-0.505-0.225-1.135-0.406-2.088-0.406c-2.297,0-3.796,1.429-3.796,3.796c0,2.396,1.442,3.81,3.642,3.81
			c0.799,0,1.346-0.111,1.625-0.252v-2.814h-1.919v-0.98h3.11V179.884z"/>
		<path d="M190.614,170.99c0.532-0.111,1.373-0.195,2.228-0.195c1.218,0,2.003,0.21,2.591,0.686c0.49,0.365,0.785,0.925,0.785,1.668
			c0,0.91-0.603,1.709-1.598,2.072v0.028c0.896,0.224,1.947,0.966,1.947,2.367c0,0.813-0.322,1.429-0.799,1.892
			c-0.658,0.602-1.723,0.882-3.264,0.882c-0.84,0-1.484-0.056-1.891-0.112V170.99z M191.833,174.857h1.106
			c1.289,0,2.046-0.673,2.046-1.584c0-1.105-0.841-1.541-2.074-1.541c-0.56,0-0.882,0.043-1.078,0.084V174.857z M191.833,179.38
			c0.238,0.043,0.588,0.057,1.022,0.057c1.261,0,2.423-0.463,2.423-1.836c0-1.288-1.105-1.82-2.437-1.82h-1.009V179.38z"/>
		<path d="M200.835,170.583c-1.022,1.373-1.765,3.194-1.765,5.729c0,2.493,0.77,4.286,1.765,5.687h-0.967
			c-0.882-1.162-1.835-2.955-1.835-5.687c0.014-2.759,0.953-4.552,1.835-5.729H200.835z"/>
		<path d="M204.418,172.349h-0.027l-1.583,0.854l-0.238-0.938l1.989-1.064h1.051v9.104h-1.191V172.349z"/>
		<path d="M208.519,182.029c0.308-0.827,0.687-2.326,0.841-3.349l1.373-0.14c-0.322,1.19-0.939,2.745-1.332,3.403L208.519,182.029z"
			/>
		<path d="M220.842,175.655c0,3.096-1.148,4.805-3.166,4.805c-1.779,0-2.983-1.667-3.012-4.679c0-3.054,1.316-4.734,3.166-4.734
			C219.75,171.046,220.842,172.755,220.842,175.655z M215.897,175.794c0,2.367,0.729,3.713,1.85,3.713
			c1.261,0,1.863-1.471,1.863-3.797c0-2.241-0.574-3.712-1.85-3.712C216.682,171.999,215.897,173.316,215.897,175.794z"/>
		<path d="M221.567,182.029c0.308-0.827,0.686-2.326,0.84-3.349l1.373-0.14c-0.322,1.19-0.938,2.745-1.331,3.403L221.567,182.029z"
			/>
		<path d="M233.889,175.655c0,3.096-1.148,4.805-3.165,4.805c-1.779,0-2.983-1.667-3.012-4.679c0-3.054,1.316-4.734,3.165-4.734
			C232.797,171.046,233.889,172.755,233.889,175.655z M228.945,175.794c0,2.367,0.729,3.713,1.849,3.713
			c1.262,0,1.863-1.471,1.863-3.797c0-2.241-0.574-3.712-1.849-3.712C229.729,171.999,228.945,173.316,228.945,175.794z"/>
		<path d="M234.614,182.029c0.309-0.827,0.687-2.326,0.84-3.349l1.373-0.14c-0.322,1.19-0.938,2.745-1.33,3.403L234.614,182.029z"/>
		<path d="M240.984,179.577c0-0.519,0.351-0.882,0.841-0.882s0.826,0.363,0.826,0.882c0,0.505-0.322,0.883-0.841,0.883
			C241.32,180.459,240.984,180.082,240.984,179.577z"/>
		<path d="M249.219,172.237h-3.475l-0.35,2.339c0.209-0.027,0.406-0.056,0.742-0.056c0.7,0,1.4,0.154,1.961,0.49
			c0.715,0.406,1.303,1.19,1.303,2.339c0,1.779-1.415,3.11-3.391,3.11c-0.994,0-1.834-0.28-2.269-0.561l0.308-0.938
			c0.379,0.225,1.121,0.504,1.947,0.504c1.163,0,2.157-0.756,2.157-1.975c-0.014-1.177-0.798-2.018-2.619-2.018
			c-0.519,0-0.925,0.057-1.261,0.099l0.588-4.37h4.357V172.237z"/>
		<path d="M250.616,182c0.994-1.387,1.764-3.207,1.764-5.729c0-2.508-0.756-4.301-1.764-5.688h0.952
			c0.896,1.148,1.835,2.941,1.835,5.701c0,2.746-0.938,4.525-1.835,5.715H250.616z"/>
	</g>
	<g>
	</g>
	<g>
	</g>
	<g>
	</g>
</g>
</svg>
