<?xml version="1.0" encoding="utf-8"?>
<!-- Generator: Adobe Illustrator 16.0.0, SVG Export Plug-In . SVG Version: 6.00 Build 0)  -->
<!DOCTYPE svg PUBLIC "-//W3C//DTD SVG 1.1//EN" "http://www.w3.org/Graphics/SVG/1.1/DTD/svg11.dtd">
<svg version="1.1" xmlns="http://www.w3.org/2000/svg" xmlns:xlink="http://www.w3.org/1999/xlink" x="0px" y="0px"
	 width="266.667px" height="136.546px" viewBox="0 0 266.667 136.546" enable-background="new 0 0 266.667 136.546"
	 xml:space="preserve">
<pattern  x="-72.972" y="-6.859" width="18.474" height="18.175" patternUnits="userSpaceOnUse" id="New_Pattern_Swatch_3" viewBox="0 -18.175 18.474 18.175" overflow="visible">
	<g>
		<polygon fill="none" points="0,0 18.474,0 18.474,-18.175 0,-18.175 		"/>
		<polygon fill="#E0E0E0" points="9.438,-8.938 0,-8.938 0,-18.175 9.438,-18.175 		"/>
		<polygon fill="#E0E0E0" points="18.474,0 9.036,0 9.036,-9.237 18.474,-9.237 		"/>
	</g>
</pattern>
<g id="Layer_2">
	<rect fill="url(#New_Pattern_Swatch_3)" width="266.667" height="136.546"/>
</g>
<g id="Layer_1">
	<rect x="69.962" y="43.264" fill="#FF0000" width="112.805" height="59.609"/>
	<g>
		<rect x="96.646" y="28.892" fill="none" width="59.437" height="17.269"/>
		<path d="M97.558,29.436c0.527-0.108,1.283-0.168,2.003-0.168c1.115,0,1.835,0.204,2.338,0.66c0.408,0.36,0.636,0.912,0.636,1.535
			c0,1.067-0.671,1.775-1.523,2.063v0.036c0.624,0.216,0.995,0.792,1.187,1.631c0.264,1.127,0.456,1.907,0.624,2.219h-1.08
			c-0.132-0.228-0.312-0.923-0.54-1.931c-0.24-1.115-0.672-1.535-1.619-1.571h-0.983v3.502h-1.043V29.436z M98.602,33.118h1.067
			c1.115,0,1.823-0.612,1.823-1.535c0-1.043-0.755-1.5-1.859-1.511c-0.504,0-0.863,0.048-1.031,0.096V33.118z"/>
		<path d="M110.202,37.052c-0.468,0.168-1.391,0.444-2.482,0.444c-1.223,0-2.231-0.312-3.022-1.067
			c-0.696-0.672-1.127-1.751-1.127-3.01c0.012-2.411,1.667-4.174,4.378-4.174c0.935,0,1.667,0.204,2.015,0.372l-0.252,0.852
			c-0.432-0.192-0.971-0.348-1.787-0.348c-1.967,0-3.25,1.223-3.25,3.25c0,2.051,1.235,3.262,3.118,3.262
			c0.684,0,1.151-0.096,1.392-0.216v-2.411h-1.644v-0.839h2.663V37.052z"/>
		<path d="M111.802,29.436c0.456-0.096,1.175-0.168,1.907-0.168c1.043,0,1.715,0.18,2.219,0.588c0.42,0.312,0.672,0.792,0.672,1.427
			c0,0.779-0.516,1.463-1.367,1.775v0.024c0.768,0.192,1.667,0.828,1.667,2.027c0,0.696-0.276,1.223-0.684,1.619
			c-0.564,0.516-1.475,0.755-2.794,0.755c-0.72,0-1.271-0.048-1.619-0.096V29.436z M112.845,32.746h0.947
			c1.104,0,1.751-0.576,1.751-1.355c0-0.948-0.72-1.319-1.775-1.319c-0.48,0-0.755,0.036-0.923,0.072V32.746z M112.845,36.62
			c0.204,0.036,0.503,0.048,0.875,0.048c1.079,0,2.075-0.396,2.075-1.571c0-1.103-0.947-1.559-2.087-1.559h-0.863V36.62z"/>
		<path d="M120.56,29.088c-0.875,1.175-1.511,2.734-1.511,4.905c0,2.135,0.66,3.67,1.511,4.869h-0.827
			c-0.756-0.996-1.571-2.531-1.571-4.869c0.012-2.363,0.815-3.898,1.571-4.905H120.56z"/>
		<path d="M123.633,30.6h-0.024l-1.355,0.731l-0.204-0.804l1.703-0.912h0.9v7.796h-1.02V30.6z"/>
		<path d="M127.149,38.887c0.264-0.708,0.588-1.991,0.72-2.866l1.175-0.12c-0.275,1.02-0.803,2.351-1.139,2.915L127.149,38.887z"/>
		<path d="M137.706,33.43c0,2.651-0.982,4.114-2.71,4.114c-1.522,0-2.555-1.427-2.579-4.006c0-2.614,1.128-4.054,2.711-4.054
			C136.771,29.484,137.706,30.947,137.706,33.43z M133.474,33.55c0,2.027,0.623,3.178,1.582,3.178c1.08,0,1.596-1.259,1.596-3.25
			c0-1.919-0.492-3.178-1.583-3.178C134.145,30.299,133.474,31.427,133.474,33.55z"/>
		<path d="M138.333,38.887c0.264-0.708,0.588-1.991,0.72-2.866l1.175-0.12c-0.275,1.02-0.803,2.351-1.139,2.915L138.333,38.887z"/>
		<path d="M148.89,33.43c0,2.651-0.982,4.114-2.71,4.114c-1.522,0-2.555-1.427-2.579-4.006c0-2.614,1.128-4.054,2.711-4.054
			C147.954,29.484,148.89,30.947,148.89,33.43z M144.657,33.55c0,2.027,0.623,3.178,1.582,3.178c1.08,0,1.596-1.259,1.596-3.25
			c0-1.919-0.492-3.178-1.583-3.178C145.328,30.299,144.657,31.427,144.657,33.55z"/>
		<path d="M149.564,38.863c0.852-1.188,1.511-2.747,1.511-4.905c0-2.147-0.646-3.682-1.511-4.869h0.815
			c0.768,0.983,1.571,2.519,1.571,4.881c0,2.351-0.804,3.874-1.571,4.893H149.564z"/>
	</g>
	<g>
	</g>
	<g>
	</g>
</g>
</svg>
