<?xml version="1.0" encoding="utf-8"?>
<!-- Generator: Adobe Illustrator 16.0.0, SVG Export Plug-In . SVG Version: 6.00 Build 0)  -->
<!DOCTYPE svg PUBLIC "-//W3C//DTD SVG 1.1//EN" "http://www.w3.org/Graphics/SVG/1.1/DTD/svg11.dtd">
<svg version="1.1" xmlns="http://www.w3.org/2000/svg" xmlns:xlink="http://www.w3.org/1999/xlink" x="0px" y="0px"
	 width="295.181px" height="243.373px" viewBox="0 0 295.181 243.373" enable-background="new 0 0 295.181 243.373"
	 xml:space="preserve">
<pattern  x="-18.755" y="-14.064" width="18.474" height="18.175" patternUnits="userSpaceOnUse" id="New_Pattern_Swatch_3" viewBox="0 -18.175 18.474 18.175" overflow="visible">
	<g>
		<polygon fill="none" points="0,0 18.474,0 18.474,-18.175 0,-18.175 		"/>
		<polygon fill="#E0E0E0" points="9.438,-8.938 0,-8.938 0,-18.175 9.438,-18.175 		"/>
		<polygon fill="#E0E0E0" points="18.474,0 9.036,0 9.036,-9.237 18.474,-9.237 		"/>
	</g>
</pattern>
<g id="Layer_2">
	<rect fill="url(#New_Pattern_Swatch_3)" width="295.181" height="243.373"/>
</g>
<g id="Layer_1">
	<rect x="16.339" y="15.307" fill="#FF0000" width="107.456" height="67.382"/>
	<g>
		<rect x="35.759" y="2.946" fill="none" width="82.616" height="10.047"/>
		<path d="M36.824,3.571c0.617-0.126,1.499-0.196,2.339-0.196c1.303,0,2.143,0.238,2.731,0.771c0.477,0.42,0.743,1.064,0.743,1.793
			c0,1.247-0.785,2.073-1.779,2.409v0.042c0.729,0.252,1.163,0.925,1.387,1.905c0.308,1.316,0.532,2.227,0.729,2.591h-1.261
			c-0.154-0.266-0.364-1.079-0.63-2.255c-0.28-1.303-0.784-1.793-1.891-1.835h-1.148v4.09h-1.219V3.571z M38.042,7.871h1.247
			c1.303,0,2.129-0.714,2.129-1.793c0-1.219-0.883-1.751-2.171-1.765c-0.588,0-1.008,0.056-1.205,0.112V7.871z"/>
		<path d="M51.583,12.465c-0.546,0.196-1.625,0.519-2.899,0.519c-1.429,0-2.605-0.364-3.53-1.247
			c-0.812-0.785-1.316-2.045-1.316-3.516c0.014-2.815,1.947-4.875,5.113-4.875c1.092,0,1.947,0.238,2.353,0.434l-0.294,0.995
			c-0.504-0.224-1.135-0.406-2.087-0.406c-2.297,0-3.796,1.429-3.796,3.796c0,2.396,1.443,3.81,3.642,3.81
			c0.798,0,1.345-0.112,1.625-0.252V8.908h-1.919v-0.98h3.11V12.465z"/>
		<path d="M53.441,3.571c0.532-0.112,1.373-0.196,2.228-0.196c1.218,0,2.003,0.21,2.591,0.687c0.49,0.364,0.784,0.924,0.784,1.667
			c0,0.91-0.602,1.709-1.597,2.073v0.028c0.896,0.224,1.947,0.966,1.947,2.367c0,0.813-0.322,1.429-0.798,1.891
			c-0.658,0.602-1.723,0.882-3.264,0.882c-0.84,0-1.485-0.056-1.891-0.112V3.571z M54.66,7.437h1.106
			c1.289,0,2.045-0.672,2.045-1.583c0-1.106-0.84-1.541-2.073-1.541c-0.56,0-0.882,0.042-1.079,0.084V7.437z M54.66,11.961
			c0.238,0.042,0.588,0.056,1.022,0.056c1.261,0,2.423-0.462,2.423-1.835c0-1.289-1.106-1.821-2.437-1.821H54.66V11.961z"/>
		<path d="M63.663,3.165c-1.023,1.373-1.765,3.194-1.765,5.729c0,2.493,0.771,4.286,1.765,5.687h-0.967
			c-0.882-1.163-1.835-2.956-1.835-5.687c0.014-2.759,0.953-4.552,1.835-5.729H63.663z"/>
		<path d="M67.247,4.93h-0.028l-1.583,0.854l-0.238-0.938l1.989-1.064h1.051v9.105h-1.191V4.93z"/>
		<path d="M71.347,14.609c0.308-0.827,0.687-2.326,0.84-3.348l1.373-0.14c-0.322,1.191-0.938,2.746-1.331,3.404L71.347,14.609z"/>
		<path d="M83.67,8.235c0,3.096-1.148,4.805-3.166,4.805c-1.779,0-2.984-1.667-3.012-4.679c0-3.054,1.316-4.734,3.166-4.734
			C82.577,3.627,83.67,5.335,83.67,8.235z M78.725,8.375c0,2.367,0.729,3.712,1.849,3.712c1.261,0,1.863-1.471,1.863-3.796
			c0-2.241-0.574-3.712-1.849-3.712C79.51,4.579,78.725,5.896,78.725,8.375z"/>
		<path d="M84.394,14.609c0.308-0.827,0.687-2.326,0.84-3.348l1.373-0.14c-0.322,1.191-0.938,2.746-1.331,3.404L84.394,14.609z"/>
		<path d="M96.717,8.235c0,3.096-1.148,4.805-3.166,4.805c-1.779,0-2.984-1.667-3.012-4.679c0-3.054,1.316-4.734,3.166-4.734
			C95.625,3.627,96.717,5.335,96.717,8.235z M91.772,8.375c0,2.367,0.729,3.712,1.849,3.712c1.261,0,1.863-1.471,1.863-3.796
			c0-2.241-0.574-3.712-1.849-3.712C92.557,4.579,91.772,5.896,91.772,8.375z"/>
		<path d="M97.498,14.581c0.995-1.387,1.765-3.208,1.765-5.729c0-2.507-0.756-4.3-1.765-5.687h0.953
			c0.896,1.148,1.835,2.941,1.835,5.701c0,2.745-0.938,4.524-1.835,5.715H97.498z"/>
	</g>
	<rect x="186.919" y="24.228" fill="#0000FF" width="78.529" height="41.446"/>
	<g>
		<rect x="195.628" y="10.55" fill="none" width="87.111" height="10.046"/>
		<path d="M196.692,11.175c0.615-0.126,1.498-0.196,2.34-0.196c1.303,0,2.143,0.238,2.73,0.771c0.477,0.42,0.742,1.064,0.742,1.793
			c0,1.247-0.783,2.073-1.779,2.409v0.042c0.729,0.252,1.164,0.925,1.387,1.905c0.309,1.316,0.533,2.227,0.729,2.591h-1.26
			c-0.154-0.266-0.365-1.079-0.631-2.255c-0.279-1.303-0.785-1.793-1.891-1.835h-1.148v4.09h-1.219V11.175z M197.911,15.475h1.246
			c1.303,0,2.129-0.714,2.129-1.793c0-1.219-0.883-1.751-2.17-1.765c-0.59,0-1.01,0.056-1.205,0.112V15.475z"/>
		<path d="M211.452,20.069c-0.547,0.196-1.625,0.519-2.9,0.519c-1.428,0-2.605-0.364-3.529-1.247
			c-0.813-0.785-1.316-2.045-1.316-3.516c0.014-2.815,1.947-4.875,5.113-4.875c1.092,0,1.947,0.238,2.354,0.434l-0.295,0.995
			c-0.504-0.224-1.135-0.406-2.088-0.406c-2.297,0-3.795,1.429-3.795,3.796c0,2.396,1.441,3.81,3.641,3.81
			c0.799,0,1.346-0.112,1.625-0.252v-2.815h-1.918v-0.98h3.109V20.069z"/>
		<path d="M213.31,11.175c0.533-0.112,1.373-0.196,2.229-0.196c1.219,0,2.002,0.21,2.59,0.687c0.49,0.364,0.785,0.924,0.785,1.667
			c0,0.91-0.602,1.709-1.598,2.073v0.028c0.896,0.224,1.947,0.966,1.947,2.367c0,0.813-0.322,1.429-0.797,1.891
			c-0.66,0.602-1.725,0.882-3.264,0.882c-0.842,0-1.486-0.056-1.893-0.112V11.175z M214.528,15.041h1.107
			c1.289,0,2.045-0.672,2.045-1.583c0-1.106-0.84-1.541-2.072-1.541c-0.561,0-0.883,0.042-1.08,0.084V15.041z M214.528,19.565
			c0.238,0.042,0.588,0.056,1.023,0.056c1.26,0,2.424-0.462,2.424-1.835c0-1.289-1.107-1.821-2.438-1.821h-1.01V19.565z"/>
		<path d="M223.532,10.769c-1.023,1.373-1.766,3.194-1.766,5.729c0,2.493,0.77,4.286,1.766,5.687h-0.967
			c-0.883-1.163-1.836-2.956-1.836-5.687c0.014-2.759,0.953-4.552,1.836-5.729H223.532z"/>
		<path d="M230.491,15.839c0,3.096-1.148,4.805-3.166,4.805c-1.779,0-2.984-1.667-3.012-4.679c0-3.054,1.316-4.734,3.166-4.734
			C229.397,11.231,230.491,12.939,230.491,15.839z M225.546,15.979c0,2.367,0.729,3.712,1.85,3.712c1.26,0,1.863-1.471,1.863-3.796
			c0-2.241-0.574-3.712-1.85-3.712C226.331,12.183,225.546,13.5,225.546,15.979z"/>
		<path d="M231.216,22.213c0.307-0.827,0.686-2.326,0.84-3.348l1.373-0.14c-0.322,1.191-0.939,2.746-1.332,3.404L231.216,22.213z"/>
		<path d="M243.538,15.839c0,3.096-1.148,4.805-3.166,4.805c-1.779,0-2.984-1.667-3.012-4.679c0-3.054,1.316-4.734,3.166-4.734
			C242.444,11.231,243.538,12.939,243.538,15.839z M238.593,15.979c0,2.367,0.729,3.712,1.85,3.712c1.26,0,1.863-1.471,1.863-3.796
			c0-2.241-0.574-3.712-1.85-3.712C239.378,12.183,238.593,13.5,238.593,15.979z"/>
		<path d="M244.263,22.213c0.307-0.827,0.686-2.326,0.84-3.348l1.373-0.14c-0.322,1.191-0.939,2.746-1.332,3.404L244.263,22.213z"/>
		<path d="M253.208,12.533h-0.027l-1.582,0.854l-0.238-0.938l1.988-1.064h1.051v9.105h-1.191V12.533z"/>
		<path d="M257.364,22.185c0.994-1.387,1.766-3.208,1.766-5.729c0-2.507-0.756-4.3-1.766-5.687h0.953
			c0.896,1.148,1.834,2.941,1.834,5.701c0,2.745-0.938,4.524-1.834,5.715H257.364z"/>
	</g>
	<g>
		<path d="M153.238,43.696v3.063h2.945v0.782h-2.945v3.088h-0.834V47.54h-2.945v-0.782h2.945v-3.063H153.238z"/>
	</g>
	<g>
		<g>
			<line fill="none" stroke="#000000" stroke-miterlimit="10" x1="152.652" y1="84.449" x2="152.652" y2="136.876"/>
			<g>
				<path d="M152.652,142.911c-1.054-2.84-2.852-6.363-4.756-8.548l4.756,1.721l4.755-1.721
					C155.503,136.548,153.705,140.071,152.652,142.911z"/>
			</g>
		</g>
	</g>
	<rect x="99.767" y="155.379" fill="#FF0000" width="107.457" height="67.383"/>
	<g>
		<rect x="121.28" y="144.019" fill="none" width="84.432" height="10.046"/>
		<path d="M122.344,144.643c0.616-0.126,1.499-0.195,2.339-0.195c1.303,0,2.143,0.237,2.731,0.77
			c0.476,0.421,0.743,1.065,0.743,1.793c0,1.247-0.785,2.073-1.779,2.41v0.042c0.729,0.252,1.163,0.924,1.387,1.904
			c0.308,1.317,0.532,2.228,0.729,2.592h-1.261c-0.154-0.267-0.364-1.078-0.63-2.255c-0.28-1.303-0.784-1.793-1.891-1.835h-1.148
			v4.09h-1.219V144.643z M123.563,148.943h1.247c1.303,0,2.129-0.715,2.129-1.793c0-1.219-0.883-1.751-2.171-1.765
			c-0.588,0-1.008,0.056-1.205,0.111V148.943z"/>
		<path d="M137.104,153.538c-0.546,0.196-1.625,0.518-2.899,0.518c-1.429,0-2.605-0.364-3.53-1.246
			c-0.813-0.784-1.316-2.045-1.316-3.516c0.014-2.816,1.947-4.875,5.113-4.875c1.092,0,1.947,0.238,2.353,0.435l-0.294,0.994
			c-0.504-0.225-1.135-0.406-2.087-0.406c-2.297,0-3.796,1.429-3.796,3.796c0,2.396,1.443,3.811,3.642,3.811
			c0.798,0,1.345-0.112,1.625-0.253v-2.815h-1.919v-0.98h3.11V153.538z"/>
		<path d="M138.962,144.643c0.532-0.111,1.373-0.195,2.228-0.195c1.218,0,2.003,0.21,2.591,0.686
			c0.49,0.364,0.784,0.925,0.784,1.667c0,0.911-0.602,1.709-1.597,2.073v0.028c0.896,0.224,1.947,0.967,1.947,2.367
			c0,0.813-0.322,1.429-0.798,1.891c-0.658,0.603-1.723,0.883-3.264,0.883c-0.84,0-1.485-0.056-1.891-0.112V144.643z
			 M140.181,148.509h1.106c1.289,0,2.045-0.672,2.045-1.583c0-1.106-0.841-1.54-2.073-1.54c-0.561,0-0.882,0.042-1.079,0.084
			V148.509z M140.181,153.033c0.238,0.042,0.588,0.057,1.022,0.057c1.261,0,2.423-0.463,2.423-1.835
			c0-1.289-1.106-1.821-2.437-1.821h-1.009V153.033z"/>
		<path d="M149.183,144.236c-1.022,1.373-1.765,3.194-1.765,5.729c0,2.493,0.771,4.286,1.765,5.688h-0.966
			c-0.882-1.163-1.835-2.956-1.835-5.688c0.014-2.76,0.953-4.553,1.835-5.729H149.183z"/>
		<path d="M152.767,146.002h-0.028l-1.583,0.854l-0.238-0.938l1.989-1.064h1.051v9.104h-1.191V146.002z"/>
		<path d="M156.867,155.681c0.308-0.826,0.687-2.325,0.84-3.348l1.373-0.14c-0.322,1.19-0.938,2.745-1.331,3.403L156.867,155.681z"
			/>
		<path d="M169.19,149.308c0,3.096-1.148,4.805-3.166,4.805c-1.779,0-2.984-1.667-3.012-4.679c0-3.054,1.316-4.734,3.166-4.734
			C168.098,144.699,169.19,146.408,169.19,149.308z M164.246,149.447c0,2.367,0.729,3.712,1.849,3.712
			c1.261,0,1.863-1.471,1.863-3.796c0-2.241-0.574-3.712-1.849-3.712C165.03,145.651,164.246,146.968,164.246,149.447z"/>
		<path d="M169.915,155.681c0.308-0.826,0.687-2.325,0.84-3.348l1.373-0.14c-0.322,1.19-0.938,2.745-1.331,3.403L169.915,155.681z"
			/>
		<path d="M182.238,149.308c0,3.096-1.148,4.805-3.166,4.805c-1.778,0-2.983-1.667-3.012-4.679c0-3.054,1.317-4.734,3.166-4.734
			C181.145,144.699,182.238,146.408,182.238,149.308z M177.293,149.447c0,2.367,0.729,3.712,1.849,3.712
			c1.261,0,1.863-1.471,1.863-3.796c0-2.241-0.574-3.712-1.85-3.712C178.078,145.651,177.293,146.968,177.293,149.447z"/>
		<path d="M183.019,155.653c0.994-1.387,1.764-3.208,1.764-5.729c0-2.508-0.756-4.301-1.764-5.688h0.951
			c0.896,1.149,1.836,2.942,1.836,5.701c0,2.746-0.939,4.524-1.836,5.716H183.019z"/>
	</g>
	<rect x="114.23" y="168.347" fill="#0000FF" width="78.53" height="41.446"/>
	<g>
		<g>
			<path fill="none" stroke="#000000" stroke-miterlimit="10" d="M232.944,168.347c0,12.35-15.264,22.554-35.177,24.29"/>
			<g>
				<path d="M191.735,192.897c2.781-1.199,6.207-3.177,8.29-5.191l-1.472,4.838l1.964,4.66
					C198.237,195.415,194.626,193.802,191.735,192.897z"/>
			</g>
		</g>
	</g>
	<g>
		<rect x="214.678" y="156.811" fill="none" width="84.969" height="10.047"/>
		<path d="M215.742,157.435c0.616-0.126,1.499-0.195,2.34-0.195c1.302,0,2.143,0.237,2.731,0.771
			c0.476,0.42,0.742,1.064,0.742,1.793c0,1.246-0.784,2.072-1.779,2.409v0.042c0.729,0.252,1.163,0.924,1.387,1.904
			c0.309,1.317,0.532,2.228,0.729,2.592h-1.261c-0.154-0.267-0.364-1.078-0.63-2.255c-0.28-1.303-0.785-1.793-1.892-1.835h-1.148
			v4.09h-1.219V157.435z M216.961,161.735h1.247c1.303,0,2.129-0.715,2.129-1.793c0-1.219-0.883-1.751-2.171-1.765
			c-0.589,0-1.009,0.056-1.205,0.111V161.735z"/>
		<path d="M230.502,166.33c-0.546,0.195-1.624,0.518-2.899,0.518c-1.429,0-2.605-0.364-3.529-1.246
			c-0.813-0.784-1.317-2.045-1.317-3.516c0.015-2.816,1.947-4.875,5.113-4.875c1.093,0,1.947,0.238,2.354,0.435l-0.295,0.994
			c-0.504-0.225-1.134-0.406-2.087-0.406c-2.297,0-3.796,1.429-3.796,3.796c0,2.396,1.442,3.811,3.642,3.811
			c0.799,0,1.345-0.112,1.625-0.253v-2.815h-1.919v-0.98h3.109V166.33z"/>
		<path d="M232.36,157.435c0.532-0.111,1.373-0.195,2.228-0.195c1.219,0,2.003,0.21,2.591,0.686c0.49,0.364,0.785,0.925,0.785,1.667
			c0,0.911-0.603,1.709-1.598,2.073v0.028c0.896,0.224,1.947,0.967,1.947,2.367c0,0.813-0.322,1.429-0.798,1.891
			c-0.659,0.603-1.724,0.883-3.264,0.883c-0.841,0-1.485-0.056-1.892-0.112V157.435z M233.579,161.301h1.106
			c1.289,0,2.045-0.672,2.045-1.583c0-1.106-0.84-1.54-2.073-1.54c-0.56,0-0.882,0.042-1.078,0.084V161.301z M233.579,165.825
			c0.238,0.042,0.588,0.057,1.022,0.057c1.261,0,2.424-0.463,2.424-1.835c0-1.289-1.107-1.821-2.438-1.821h-1.009V165.825z"/>
		<path d="M242.582,157.028c-1.022,1.373-1.766,3.194-1.766,5.729c0,2.493,0.771,4.286,1.766,5.688h-0.967
			c-0.883-1.163-1.835-2.956-1.835-5.688c0.014-2.76,0.952-4.553,1.835-5.729H242.582z"/>
		<path d="M249.541,162.1c0,3.096-1.148,4.805-3.166,4.805c-1.778,0-2.983-1.667-3.012-4.679c0-3.054,1.317-4.734,3.166-4.734
			C248.448,157.491,249.541,159.2,249.541,162.1z M244.597,162.239c0,2.367,0.729,3.712,1.849,3.712
			c1.261,0,1.863-1.471,1.863-3.796c0-2.241-0.574-3.712-1.85-3.712C245.381,158.443,244.597,159.76,244.597,162.239z"/>
		<path d="M250.265,168.473c0.309-0.826,0.687-2.325,0.841-3.348l1.373-0.14c-0.322,1.19-0.938,2.745-1.331,3.403L250.265,168.473z"
			/>
		<path d="M262.588,162.1c0,3.096-1.148,4.805-3.166,4.805c-1.778,0-2.983-1.667-3.012-4.679c0-3.054,1.317-4.734,3.166-4.734
			C261.495,157.491,262.588,159.2,262.588,162.1z M257.644,162.239c0,2.367,0.729,3.712,1.849,3.712
			c1.261,0,1.863-1.471,1.863-3.796c0-2.241-0.574-3.712-1.85-3.712C258.428,158.443,257.644,159.76,257.644,162.239z"/>
		<path d="M263.312,168.473c0.309-0.826,0.687-2.325,0.841-3.348l1.373-0.14c-0.322,1.19-0.938,2.745-1.331,3.403L263.312,168.473z"
			/>
		<path d="M272.259,158.794h-0.028l-1.582,0.854l-0.238-0.938l1.989-1.064h1.05v9.104h-1.19V158.794z"/>
		<path d="M276.415,168.445c0.994-1.387,1.765-3.208,1.765-5.729c0-2.508-0.756-4.301-1.765-5.688h0.952
			c0.896,1.149,1.835,2.942,1.835,5.701c0,2.746-0.938,4.524-1.835,5.716H276.415z"/>
	</g>
	<g>
	</g>
	<g>
	</g>
	<g>
	</g>
</g>
</svg>
