<svg version="1.1" id="Layer_1" xmlns="http://www.w3.org/2000/svg" xmlns:xlink="http://www.w3.org/1999/xlink" xml:space="preserve" height="1000">
	<defs>
		<style type="text/css">
			svg {
				font-size: 19px;
				font-family: sans-serif;
			}

			.line, .arrowLine, .ballLine {
				stroke: black;
				stroke-width: 1.5;
				fill: none;
			}
			.arrowLine {
		    	marker-end: url(#arrow);
				stroke-width: 3px;
			}
			.ballLine {
				marker-end: url(#ball);
				stroke-dasharray: 5 2;
			}
			.classTitle {
				font-size: 14px;
				font-weight: 800;
			}
			.classProps {
				font-size: 12px;
			}
		</style>
		<marker id="arrow" viewBox="0 0 10 10" orient="auto" markerWidth="5" markerHeight="5" refX="10" refY="5">
			<path d="M0,0l10 5-10 5z" class="blackArrowHead"/>
		</marker>
		<marker id="ball" viewBox="0 0 10 10" orient="auto" markerWidth="5" markerHeight="5" refX="5" refY="5">
			<circle cx="5" cy="5" r="5"/>
		</marker>
		<symbol id="normal" viewBox="0 0 5 10">
			<circle cx="0" cy="7" r="4" stroke="#000"/>
		</symbol>
		<symbol id="readonly" viewBox="0 0 5 10">
			<circle cx="0" cy="7" r="4" fill="none" stroke="#000"/>
		</symbol>
	</defs>
	<g class="ballLine">
		<path d="M327,135v97h-60"/>
		<path d="M363,135v97h60"/>
		<path d="M70,510h50v-30h210v52h33"/>
		<path d="M270,510h40v-25a5,5,0,0,1,0-10v-5h220v86h43"/>
		<path d="M155,660h-35v-127h-43"/>
		<path d="M285,660h45v-116h33"/>
		<path d="M800,779h-50v32h-43"/>
		<path d="M1020,779h-93"/>
	</g>
	<g class="arrowLine">
		<path d="M162,290,55.26,500"/>
		<path d="M190.12,290,214,500"/>
		<path d="M457,425,435,500"/>
		<path d="M550,409,606,500"/>
		<path d="M550,343,856,500"/>
		<path d="M178.5,719,118.5,769"/>
		<path d="M251,719,296,769"/>
		<path d="M285,703.83,510,770.75"/>
	</g>
	<g transform="translate(291, 20)">
		<rect x="0" y="0" class="line" width="108" height="115" rx="3"/>
		<text x="9" y="17.5" class="classTitle">Timing</text>
		<use xlink:href="#normal" x="0" y="24" width="5" height="12"/>
		<use xlink:href="#normal" x="0" y="36" width="5" height="12"/>
		<use xlink:href="#normal" x="0" y="48" width="5" height="12"/>
		<use xlink:href="#normal" x="0" y="60" width="5" height="12"/>
		<use xlink:href="#normal" x="0" y="72" width="5" height="12"/>
		<use xlink:href="#normal" x="0" y="84" width="5" height="12"/>
		<use xlink:href="#normal" x="0" y="96" width="5" height="12"/>
		<text x="9" y="24" class="classProps">
			<tspan x="9" dy="12">startDelay</tspan>
			<tspan x="9" dy="12">iterationDuration</tspan>
			<tspan x="9" dy="12">iterationCount</tspan>
			<tspan x="9" dy="12">speed</tspan>
			<tspan x="9" dy="12">direction</tspan>
			<tspan x="9" dy="12">timingFunction</tspan>
			<tspan x="9" dy="12">fill</tspan>
		</text>
	</g>
	<g transform="translate(110, 200)">
		<rect x="0" y="0" class="line" width="150" height="90" rx="3"/>
		<text x="9" y="17.5" class="classTitle">TimedTemplate</text>
		<use xlink:href="#normal" x="0" y="24" width="5" height="12"/>
		<use xlink:href="#normal" x="0" y="36" width="5" height="12"/>
		<use xlink:href="#normal" x="0" y="48" width="5" height="12"/>
		<use xlink:href="#normal" x="0" y="60" width="5" height="12"/>
		<use xlink:href="#normal" x="0" y="72" width="5" height="12"/>
		<text x="9" y="24" class="classProps">
			<tspan x="9" dy="12">timing</tspan>
			<tspan x="9" dy="12">animate()</tspan>
			<tspan x="9" dy="12">animateWithParent()</tspan>
			<tspan x="9" dy="12">animateLive()</tspan>
			<tspan x="9" dy="12">animateLiveWithParent()</tspan>
		</text>
	</g>
	<g transform="translate(430, 200)">
		<rect x="0" y="0" class="line" width="120" height="225" rx="3"/>
		<text x="9" y="17.5" class="classTitle">TimedItem</text>
		<use xlink:href="#readonly" x="0" y="24" width="5" height="12"/>
		<use xlink:href="#readonly" x="0" y="36" width="5" height="12"/>
		<use xlink:href="#readonly" x="0" y="48" width="5" height="12"/>
		<use xlink:href="#readonly" x="0" y="60" width="5" height="12"/>
		<use xlink:href="#readonly" x="0" y="72" width="5" height="12"/>
		<use xlink:href="#readonly" x="0" y="84" width="5" height="12"/>
		<use xlink:href="#readonly" x="0" y="96" width="5" height="12"/>
		<use xlink:href="#readonly" x="0" y="108" width="5" height="12"/>
		<use xlink:href="#readonly" x="0" y="120" width="5" height="12"/>
		<use xlink:href="#readonly" x="0" y="132" width="5" height="12"/>
		<use xlink:href="#normal" x="0" y="144" width="5" height="12"/>
		<use xlink:href="#normal" x="0" y="156" width="5" height="12"/>
		<use xlink:href="#normal" x="0" y="168" width="5" height="12"/>
		<use xlink:href="#normal" x="0" y="180" width="5" height="12"/>
		<use xlink:href="#normal" x="0" y="192" width="5" height="12"/>
		<use xlink:href="#normal" x="0" y="204" width="5" height="12"/>
		<text x="9" y="24" class="classProps">
			<tspan x="9" dy="12">timing</tspan>
			<tspan x="9" dy="12">iterationDuration</tspan>
			<tspan x="9" dy="12">animationDuration</tspan>
			<tspan x="9" dy="12">currentIteration</tspan>
			<tspan x="9" dy="12">startTime</tspan>
			<tspan x="9" dy="12">endTime</tspan>
			<tspan x="9" dy="12">iterationTime</tspan>
			<tspan x="9" dy="12">animationTime</tspan>
			<tspan x="9" dy="12">parentGroup</tspan>
			<tspan x="9" dy="12">startOffset</tspan>
			<tspan x="9" dy="12">setPauseState()</tspan>
			<tspan x="9" dy="12">getPauseState()</tspan>
			<tspan x="9" dy="12">isPaused()</tspan>
			<tspan x="9" dy="12">seek()</tspan>
			<tspan x="9" dy="12">changeSpeed()</tspan>
			<tspan x="9" dy="12">cancel()</tspan>
		</text>
	</g>
	<g transform="translate(10, 500)">
		<rect x="0" y="0" class="line" width="60" height="60" rx="3"/>
		<text x="9" y="17.5" class="classTitle">Anim</text>
		<use xlink:href="#normal" x="0" y="24" width="5" height="12"/>
		<text x="9" y="24" class="classProps">
			<tspan x="9" dy="12">function</tspan>
		</text>
	</g>
	<g transform="translate(170, 500)">
		<rect x="0" y="0" class="line" width="100" height="105" rx="3"/>
		<text x="9" y="17.5" class="classTitle">AnimGroup</text>
		<use xlink:href="#normal" x="0" y="24" width="5" height="12"/>
		<use xlink:href="#normal" x="0" y="36" width="5" height="12"/>
		<use xlink:href="#normal" x="0" y="48" width="5" height="12"/>
		<use xlink:href="#normal" x="0" y="60" width="5" height="12"/>
		<use xlink:href="#normal" x="0" y="72" width="5" height="12"/>
		<use xlink:href="#normal" x="0" y="84" width="5" height="12"/>
		<text x="9" y="24" class="classProps">
			<tspan x="9" dy="12">type</tspan>
			<tspan x="9" dy="12">clear()</tspan>
			<tspan x="9" dy="12">append()</tspan>
			<tspan x="9" dy="12">insertBefore()</tspan>
			<tspan x="9" dy="12">item()</tspan>
			<tspan x="9" dy="12">remove()</tspan>
		</text>
	</g>
	<g transform="translate(370, 500)">
		<rect x="0" y="0" class="line" width="110" height="69" rx="3"/>
		<text x="9" y="17.5" class="classTitle">AnimInstance</text>
		<use xlink:href="#normal" x="0" y="24" width="5" height="12"/>
		<use xlink:href="#readonly" x="0" y="36" width="5" height="12"/>
		<use xlink:href="#readonly" x="0" y="48" width="5" height="12"/>
		<text x="9" y="24" class="classProps">
			<tspan x="9" dy="12">template</tspan>
			<tspan x="9" dy="12">function</tspan>
			<tspan x="9" dy="12">targetElement</tspan>
		</text>
	</g>
	<g transform="translate(580, 500)">
		<rect x="0" y="0" class="line" width="170" height="189" rx="3"/>
		<text x="9" y="17.5" class="classTitle">AnimGroupInstance</text>
		<use xlink:href="#readonly" x="0" y="24" width="5" height="12"/>
		<use xlink:href="#readonly" x="0" y="36" width="5" height="12"/>
		<use xlink:href="#readonly" x="0" y="48" width="5" height="12"/>
		<use xlink:href="#readonly" x="0" y="60" width="5" height="12"/>
		<use xlink:href="#readonly" x="0" y="72" width="5" height="12"/>
		<use xlink:href="#readonly" x="0" y="84" width="5" height="12"/>
		<use xlink:href="#readonly" x="0" y="96" width="5" height="12"/>
		<use xlink:href="#readonly" x="0" y="108" width="5" height="12"/>
		<use xlink:href="#readonly" x="0" y="120" width="5" height="12"/>
		<use xlink:href="#readonly" x="0" y="132" width="5" height="12"/>
		<use xlink:href="#normal" x="0" y="144" width="5" height="12"/>
		<use xlink:href="#normal" x="0" y="156" width="5" height="12"/>
		<use xlink:href="#normal" x="0" y="168" width="5" height="12"/>
		<text x="9" y="24" class="classProps">
			<tspan x="9" dy="12">length</tspan>
			<tspan x="9" dy="12">type</tspan>
			<tspan x="9" dy="12">template</tspan>
			<tspan x="9" dy="12">clear()</tspan>
			<tspan x="9" dy="12">append()</tspan>
			<tspan x="9" dy="12">insertBefore()</tspan>
			<tspan x="9" dy="12">item()</tspan>
			<tspan x="9" dy="12">indexOf()</tspan>
			<tspan x="9" dy="12">splice()</tspan>
			<tspan x="9" dy="12">remove()</tspan>
			<tspan x="9" dy="12">makeIndependent()</tspan>
			<tspan x="9" dy="12">getActiveAnimations()</tspan>
			<tspan x="9" dy="12">getAnimationsForElement()</tspan>
		</text>
	</g>
	<g transform="translate(850, 500)">
		<rect x="0" y="0" class="line" width="130" height="60" rx="3"/>
		<text x="9" y="17.5" class="classTitle">MediaItem</text>
		<use xlink:href="#readonly" x="0" y="24" width="5" height="12"/>
		<text x="9" y="24" class="classProps">
			<tspan x="9" dy="12">HTMLMediaElement</tspan>
		</text>
	</g>
	<g transform="translate(155, 650)">
		<rect x="0" y="0" class="line" width="130" height="69" rx="3"/>
		<text x="9" y="17.5" class="classTitle">AnimFunction</text>
		<use xlink:href="#normal" x="0" y="24" width="5" height="12"/>
		<use xlink:href="#normal" x="0" y="36" width="5" height="12"/>
		<use xlink:href="#normal" x="0" y="48" width="5" height="12"/>
		<text x="9" y="24" class="classProps">
			<tspan x="9" dy="12">operation</tspan>
			<tspan x="9" dy="12">accumulateOperation</tspan>
			<tspan x="9" dy="12">pace</tspan>
		</text>
	</g>
	<g transform="translate(10, 769)">
		<rect x="0" y="0" class="line" width="145" height="60" rx="3"/>
		<text x="9" y="17.5" class="classTitle">PathAnimFunction</text>
		<use xlink:href="#normal" x="0" y="24" width="5" height="12"/>
		<use xlink:href="#normal" x="0" y="36" width="5" height="12"/>
		<text x="9" y="24" class="classProps">
			<tspan x="9" dy="12">segments</tspan>
			<tspan x="9" dy="12">rotate</tspan>
		</text>
	</g>
	<g transform="translate(255, 769)">
		<rect x="0" y="0" class="line" width="155" height="81" rx="3"/>
		<text x="9" y="17.5" class="classTitle">GroupAnimFunction</text>
		<use xlink:href="#normal" x="0" y="24" width="5" height="12"/>
		<use xlink:href="#normal" x="0" y="36" width="5" height="12"/>
		<use xlink:href="#normal" x="0" y="48" width="5" height="12"/>
		<use xlink:href="#normal" x="0" y="60" width="5" height="12"/>
		<text x="9" y="24" class="classProps">
			<tspan x="9" dy="12">length</tspan>
			<tspan x="9" dy="12">item()</tspan>
			<tspan x="9" dy="12">add()</tspan>
			<tspan x="9" dy="12">remove()</tspan>
		</text>
	</g>
	<g transform="translate(510, 769)">
		<rect x="0" y="0" class="line" width="190" height="60" rx="3"/>
		<text x="9" y="17.5" class="classTitle">KeyFramesAnimFunction</text>
		<use xlink:href="#normal" x="0" y="24" width="5" height="12"/>
		<use xlink:href="#normal" x="0" y="36" width="5" height="12"/>
		<text x="9" y="24" class="classProps">
			<tspan x="9" dy="12">property</tspan>
			<tspan x="9" dy="12">frames</tspan>
		</text>
	</g>
	<g transform="translate(800, 769)">
		<rect x="0" y="0" class="line" width="120" height="81" rx="3"/>
		<text x="9" y="17.5" class="classTitle">AnimFrameList</text>
		<use xlink:href="#normal" x="0" y="24" width="5" height="12"/>
		<use xlink:href="#normal" x="0" y="36" width="5" height="12"/>
		<use xlink:href="#normal" x="0" y="48" width="5" height="12"/>
		<use xlink:href="#normal" x="0" y="60" width="5" height="12"/>
		<text x="9" y="24" class="classProps">
			<tspan x="9" dy="12">length</tspan>
			<tspan x="9" dy="12">item()</tspan>
			<tspan x="9" dy="12">add()</tspan>
			<tspan x="9" dy="12">remove()</tspan>
		</text>
	</g>
	<g transform="translate(1020, 769)">
		<rect x="0" y="0" class="line" width="120" height="69" rx="3"/>
		<text x="9" y="17.5" class="classTitle">AnimFrame</text>
		<use xlink:href="#normal" x="0" y="24" width="5" height="12"/>
		<use xlink:href="#normal" x="0" y="36" width="5" height="12"/>
		<use xlink:href="#normal" x="0" y="48" width="5" height="12"/>
		<text x="9" y="24" class="classProps">
			<tspan x="9" dy="12">value</tspan>
			<tspan x="9" dy="12">offset</tspan>
			<tspan x="9" dy="12">timingFunction</tspan>
		</text>
	</g>
</svg>
