<svg xmlns='http://www.w3.org/2000/svg'>
	<style>
	path, line { 
		stroke-width: 4; 
		stroke: black;
		fill: transparent;
	}
	text {
		font: bold 14px monospace;
		text-anchor: middle;
	}
	rect {
		stroke-width: 4;
		stroke: black;
		fill: hsl(120, 100%, 90%);
	}
	</style>
	<g transform="translate(20 40)">
		<text x='0' y='-20' style="text-anchor: start;">Ident token</text>
		
		<path d='M 0 -10 v 20 M 10 -10 v 20 M 0 0 h 20' />

		<g transform="translate(20 0)">
			<path d="M 0 0 h 64" />
			<rect x="20" y="-11" width="24" height="22" rx="10" ry="10" />
			<text x="32" y="6">-</text>
			<path d="M 0 0 a 10 10 0 0 1 10 10 v 0 a 10 10 0 0 0 10 10 h 24 a 10 10 0 0 0 10 -10 a 10 10 0 0 1 10 -10" />

			<g transform="translate(64 0)">
				<path d="M 0 0 h 200" />
				<g transform="translate(0 0)">
					<rect x="20" y="-11" width="160" height="22" />
					<text x="100" y="5">name-start char</text>
				</g>
				<path d="M 0 0 a 10 10 0 0 1 10 10 v 10 a 10 10 0 0 0 10 10 h 160 a 10 10 0 0 0 10 -10 v -10 a 10 10 0 0 1 10 -10" />
				<g transform="translate(0 30)">
					<rect x="65" y="-11" width="70" height="22" />
					<text x="100" y="5">escape</text>
				</g>

				<g transform="translate(200 0)">
					<path d="M 0 0 h 200" />
					<path d="M 20 0 a 10 10 0 0 1 -10 -10 a 10 10 0 0 1 10 -10 h 140 a 10 10 0 0 1 10 10 a 10 10 0 0 1 -10 10" />
					<g transform="translate(20 0)">
						<rect x="20" y="-11" width="100" height="22" />
						<text x="70" y="5">name char</text>
					</g>
					<path d="M 10 0 h 10 a 10 10 0 0 1 10 10 v 10 a 10 10 0 0 0 10 10 h 100 a 10 10 0 0 0 10 -10 v -10 a 10 10 0 0 1 10 -10" />
					<g transform="translate(10 30)">
						<rect x="45" y="-11" width="70" height="22" />
						<text x="80" y="5">escape</text>
					</g>
					<path d="M 0 0 a 10 10 0 0 1 10 10 v 30 a 10 10 0 0 0 10 10 h 140 a 10 10 0 0 0 10 -10 v -30 a 10 10 0 0 1 10 -10" />

					<g transform="translate(180 0)">
						<path d="M 0 0 h 20 M 10 -10 v 20 M 20 -10 v 20" />
					</g>
				</g>
			</g>
		</g>
	</g>

</svg>