<?xml version="1.0" encoding="UTF-8" standalone="no"?>
<!-- Creator: CorelDRAW -->

<svg
   xmlns:dc="http://purl.org/dc/elements/1.1/"
   xmlns:cc="http://creativecommons.org/ns#"
   xmlns:rdf="http://www.w3.org/1999/02/22-rdf-syntax-ns#"
   xmlns:svg="http://www.w3.org/2000/svg"
   xmlns="http://www.w3.org/2000/svg"
   xmlns:sodipodi="http://sodipodi.sourceforge.net/DTD/sodipodi-0.dtd"
   xmlns:inkscape="http://www.inkscape.org/namespaces/inkscape"
   xml:space="preserve"
   shape-rendering="geometricPrecision"
   text-rendering="geometricPrecision"
   image-rendering="optimizeQuality"
   clip-rule="evenodd"
   viewBox="0 0 210.50074 201.84674"
   id="svg3543"
   version="1.1"
   inkscape:version="0.48.0 r9654"
   width="100%"
   height="100%"
   sodipodi:docname="glyph-right.svg"
   style="fill-rule:evenodd"><metadata
   id="metadata3601"><rdf:RDF><cc:Work
       rdf:about=""><dc:format>image/svg+xml</dc:format><dc:type
         rdf:resource="http://purl.org/dc/dcmitype/StillImage" /></cc:Work></rdf:RDF></metadata><sodipodi:namedview
   pagecolor="#ffffff"
   bordercolor="#666666"
   borderopacity="1"
   objecttolerance="10"
   gridtolerance="10"
   guidetolerance="10"
   inkscape:pageopacity="0"
   inkscape:pageshadow="2"
   inkscape:window-width="1173"
   inkscape:window-height="1029"
   id="namedview3599"
   showgrid="false"
   fit-margin-top="10"
   fit-margin-left="10"
   fit-margin-right="10"
   fit-margin-bottom="10"
   inkscape:zoom="1.6562604"
   inkscape:cx="162.57066"
   inkscape:cy="81.344262"
   inkscape:window-x="505"
   inkscape:window-y="0"
   inkscape:window-maximized="0"
   inkscape:current-layer="svg3543" />
 <defs
   id="defs3545">
   <linearGradient
   id="id0"
   gradientUnits="userSpaceOnUse"
   x1="19.999701"
   y1="51.805199"
   x2="19.999701"
   y2="8.1970301">
    <stop
   offset="0"
   stop-color="white"
   id="stop3548" />
    <stop
   offset="1"
   stop-color="dodgerblue"
   id="stop3550" />
   </linearGradient>
   <linearGradient
   id="id1"
   gradientUnits="userSpaceOnUse"
   x1="49.999298"
   y1="51.805199"
   x2="49.999298"
   y2="8.1970301">
    <stop
   offset="0"
   stop-color="white"
   id="stop3553" />
    <stop
   offset="1"
   stop-color="dodgerblue"
   id="stop3555" />
   </linearGradient>
   <linearGradient
   id="id2"
   gradientUnits="userSpaceOnUse"
   x1="79.998901"
   y1="51.805199"
   x2="79.998901"
   y2="8.1970301">
    <stop
   offset="0"
   stop-color="white"
   id="stop3558" />
    <stop
   offset="1"
   stop-color="dodgerblue"
   id="stop3560" />
   </linearGradient>
   <linearGradient
   id="id3"
   gradientUnits="userSpaceOnUse"
   x1="108.194"
   y1="80.000397"
   x2="151.802"
   y2="80.000397">
    <stop
   offset="0"
   stop-color="white"
   id="stop3563" />
    <stop
   offset="1"
   stop-color="dodgerblue"
   id="stop3565" />
   </linearGradient>
   <linearGradient
   id="id4"
   gradientUnits="userSpaceOnUse"
   x1="108.194"
   y1="110"
   x2="151.802"
   y2="110">
    <stop
   offset="0"
   stop-color="white"
   id="stop3568" />
    <stop
   offset="1"
   stop-color="dodgerblue"
   id="stop3570" />
   </linearGradient>
   <linearGradient
   id="id5"
   gradientUnits="userSpaceOnUse"
   x1="108.194"
   y1="140"
   x2="151.802"
   y2="140">
    <stop
   offset="0"
   stop-color="white"
   id="stop3573" />
    <stop
   offset="1"
   stop-color="dodgerblue"
   id="stop3575" />
   </linearGradient>
 </defs>
 <g
   id="Layer_x0020_1"
   transform="translate(1.3437504,40.502996)">
  <metadata
   id="CorelCorpID_0Corel-Layer" />
  <path
   d="m 76.5716,110 3.42727,0 c 0,-16.5641 -13.4354,-29.9996 -29.9996,-29.9996 l 0,1.04239 0,2.38488 c 14.6714,0 26.5723,11.901 26.5723,26.5723 z"
   id="path3579"
   inkscape:connector-curvature="0"
   style="fill:#1e90ff" />
  <polyline
   points="49.285,-30.503 49.2797,109.273 199.157,109.273 "
   id="polyline3581"
   style="fill:none;stroke:#000000;stroke-width:2.00011992" />
  <path
   d="M 8.96427,51.8052 8.9589787,21.8033 19.994479,8.197 l 11.0407,13.5912 0.0053,30.0019 -22.0762,0.01512 z M 8.9612464,36.8035 M 14.476326,15.0002 m 11.0385,-0.0076 m 5.5234,21.7958 m -11.0362,15.0092"
   id="path3583"
   inkscape:connector-curvature="0"
   style="fill:url(#id0);fill-rule:nonzero;stroke:#87cefa;stroke-width:0.57599902" />
  <path
   d="M 38.9639,51.8052 38.9586,21.8033 49.9941,8.197 61.0348,21.7882 61.0401,51.7901 38.9639,51.80522 z m -0.003,-15.0017 m 5.51508,-21.8033 m 11.0385,-0.0076 m 5.5234,21.7958 m -11.0362,15.0092"
   id="path3585"
   inkscape:connector-curvature="0"
   style="fill:url(#id1);fill-rule:nonzero;stroke:#87cefa;stroke-width:0.57599902" />
  <path
   d="M 68.9634,51.8052 68.9581,21.8033 79.9936,8.197 91.0343,21.7882 91.0396,51.7901 68.9634,51.80522 z m -0.003,-15.0017 m 5.51508,-21.8033 m 11.0385,-0.0076 m 5.5234,21.7958 m -11.0362,15.0092"
   id="path3587"
   inkscape:connector-curvature="0"
   style="fill:url(#id2);fill-rule:nonzero;stroke:#87cefa;stroke-width:0.57599902" />
  <path
   d="m 108.194,68.965 30.0019,-0.0053 13.6063,11.0355 -13.5912,11.0407 -30.0019,0.0053 -0.0151,-22.0762 z m 15.0017,-0.003 m 21.8033,5.51508 m 0.008,11.0385 m -21.7958,5.5234 M 108.202,80.00278"
   id="path3589"
   inkscape:connector-curvature="0"
   style="fill:url(#id3);fill-rule:nonzero;stroke:#87cefa;stroke-width:0.57599902" />
  <path
   d="m 108.194,98.9645 30.0019,-0.0053 13.6063,11.0355 -13.5912,11.0407 -30.0019,0.005 -0.0151,-22.076199 z m 15.0017,-0.003 m 21.8033,5.51508 m 0.008,11.0385 m -21.7958,5.5234 m -15.0092,-11.0362"
   id="path3591"
   inkscape:connector-curvature="0"
   style="fill:url(#id4);fill-rule:nonzero;stroke:#87cefa;stroke-width:0.57599902" />
  <path
   d="m 108.194,128.964 30.0019,-0.005 13.6063,11.0355 -13.5912,11.0407 -30.0019,0.005 -0.0151,-22.0762 z m 15.0017,-0.003 m 21.8033,5.51508 m 0.008,11.0385 m -21.7958,5.5234 m -15.0092,-11.0362"
   id="path3593"
   inkscape:connector-curvature="0"
   style="fill:url(#id5);fill-rule:nonzero;stroke:#87cefa;stroke-width:0.57599902" />
  <path
   d="m 103.94,25.3273 c 12.5132,0 22.3581,10.6137 22.3581,23.9614 l -3.75609,0 6.76157,11.2721 6.75325,-11.2721 -3.74853,0 c 0,-16.5982 -12.808,-29.8477 -28.3683,-29.8477 l 0,5.88623 z"
   id="path3595"
   inkscape:connector-curvature="0"
   style="fill:#ff6347;stroke:#ff0000;stroke-width:2.66683006" />
  <text
   x="68.684502"
   y="86.170097"
   font-weight="normal"
   font-size="16.0002"
   id="text3597"
   style="font-size:16.00020027px;font-weight:normal;fill:#000000;font-family:Arial">90°</text>

 </g>
</svg>