<svg xmlns="http://www.w3.org/2000/svg" width="700" height="790">
    <style>
        .boundary {
            fill-opacity: 0;
            stroke: #ccc;
            stroke-width: 2;
            stroke-dasharray: 5,3;
        }
        .label {
            font-family: Verdana;
            font-size: 25px;
            fill: black;
            stroke: black;
        }
        .crosshairs {
            stroke: navy;
            stroke-width: 2;
        }
        .placed {
          fill: mediumpurple;
        }
    </style>
    <text class="label" x="96" y="36" id="label">containing block</text>
    <line class="label" x1="132" y1="45" x2="150" y2="86" />
    <rect class="boundary" x="99" y="59" width="502" height="502" />
        <g transform="translate(550, 160)">
            <polygon class="placed"
                     points="-150,-50
                             150,-50
                             150,50
                             -150,50"
                     transform="translate(0, 0)"/>
                <line class="crosshairs" x1="-5" y1="0"
                                         x2="5" y2="0" />
                <line class="crosshairs" x1="0" y1="-5"
                                         x2="0" y2="5" />
        </g>
        <g transform="translate(600, 560)">
            <polygon class="placed"
                     points="-75,-25
                             75,-25
                             75,25
                             -75,25"
                     transform="translate(0, 0)"/>
                <line class="crosshairs" x1="-5" y1="0"
                                         x2="5" y2="0" />
                <line class="crosshairs" x1="0" y1="-5"
                                         x2="0" y2="5" />
        </g>
        <g transform="translate(350, 560)">
            <polygon class="placed"
                     points="-50,-150
                             50,-150
                             50,150
                             -50,150"
                     transform="translate(0, 0)"/>
                <line class="crosshairs" x1="-5" y1="0"
                                         x2="5" y2="0" />
                <line class="crosshairs" x1="0" y1="-5"
                                         x2="0" y2="5" />
        </g>
        <g transform="translate(100, 560)">
            <polygon class="placed"
                     points="-75,-225
                             75,-225
                             75,225
                             -75,225"
                     transform="translate(0, 0)"/>
                <line class="crosshairs" x1="-5" y1="0"
                                         x2="5" y2="0" />
                <line class="crosshairs" x1="0" y1="-5"
                                         x2="0" y2="5" />
        </g>
</svg>
