<svg xmlns="http://www.w3.org/2000/svg" xmlns:xlink="http://www.w3.org/1999/xlink" width="470" height="120">
<style type="text/css">
.path{fill:none;stroke:#00AEEF;stroke-width:3;stroke-linecap:round;stroke-miterlimit:10;stroke-dasharray:0.4997,4.9973;}
.text{font-family:'MyriadPro-Regular';font-size:12;}
</style>
<defs>
<path id="plane" d="M15.1-6.2H3.4l-6.3-9.9c1.8-0.3,5.4-1.5,5.4-3.6s-4.8-3.6-6.3-3.6h-3.9l-4.5-6.9h-8.4l2.4,6.9h-0.3v7.2h3l3.6,9.9h-15.9l-6.6-6.6h-4.8l5.7,9.6v7.8l-5.7,9.6h4.8l6.6-6.6h15.9l-3.6,9.6h-3v7.2h0.3l-2.4,6.9h8.7l4.5-6.9h3.9c1.5,0,6.3-1.5,6.3-3.6c0-1.8-3.6-3.3-5.4-3.6l6.3-9.9h11.7c3.9,0,18-2.7,18-6.9C33.1-3.5,19-6.2,15.1-6.2z"/>
<circle id="dot" r="3" fill="red"/>


</defs>
<use xlink:href="#plane" transform="translate(57.8,45)"/>
<use xlink:href="#dot" transform="translate(57.8,45)"/>
<path class="path" d="M421.2,50C343.5,175.5,142.1-86,57.8,45"/>
</svg>