<svg xmlns="http://www.w3.org/2000/svg" viewBox="-70 -70 140 140" overflow="visible">
<desc>Show the L=50 plane of the CIE Lab color space.
      Two colors to be mixed are visualized on this plane,
      with an arc to show where the intermediate colors lie.
      teal (#008080) is lch(47.9855% 31.6903 196.4524) lab(47.9855% -30.3927 -8.9753)
      olive (#808000) is lch(52.1496% 56.8124 99.5746) lab(52.1496% -9.4497 56.0210)
      mix is lch(49.4429% 40.4830 162.5452) which is rgb(7.7377% 52.5730% 37.3213%) lab(49.4429% -38.6189 12.1430)

</desc>
<g fill="none" stroke="black" stroke-width="0.5">

<!-- mix curve
for (i=0; i<100; i+=5) { h=196.4524 *i/100 + 99.5746 *(100-i)/100; c=31.6903 * i/100 + 56.8124 *(100-i)/100; lab=LCH_to_Lab([50, c, h]); console.log(lab[1]); console.log(-1*lab[2])}
-->
<polyline stroke="#777" stroke-width="0.7" stroke-dasharray="2"
points="-9.449698804240317,-56.02099594142484
-13.833653402205362,-53.80643035618212
-17.913341009843528,-51.26034381372367
-21.664814272923504,-48.41808315089472
-25.06790075079225,-45.31661091066751
-28.106299689649568,-41.99412231219065
-30.767641260271752,-38.489657836516585
-33.04350824562605,-34.84271501380839
-34.929420499694515,-31.092862966107194
-36.42478282900496,-27.279363197055208
-37.532797270032745,-23.440800027070804
-38.26034104605828,-19.614723950372923
-38.617811783626045,-15.837311040199754
-38.618941848963466,-12.14304135205028
-38.28058392625162,-8.564399073496384
-37.62247020033304,-5.131596944975052
-36.66694772432252,-1.8723272310682786
-35.43869274589105,1.1884587416286438
-33.964406933172626,4.028740743452682
-32.27249858098426,6.629588053898483"/>


<!-- axes -->
<polyline points="0 -60 0 60"/>
<polyline points="-60 0 60 0"/>

<!-- tic marks -->
<g stroke="#888">
<path d="M-3,-60 h6 M-3,-50 h6 M-3,-40 h6 M-3,-30 h6 M-3,-20 h6 M-3,-10 h6 M-3,10 h6 M-3,20 h6 M-3,30 h6 M-3,40 h6 M-3,50 h6 M-3,60 h6"/>
<path d="M60,-3 v6 M50,-3 v6 M40,-3 v6 M30,-3 v6 M20,-3 v6 M10,-3 v6 M-10,-3 v6 M-20,-3 v6 M-30,-3 v6 M-40,-3 v6 M-50,-3 v6 M-60,-3 v6"/>
</g>

<!-- radial lines for hue angle and chroma -->
<polyline stroke="teal" points ="0,0 -30.3927,8.9753"/>
<polyline stroke="olive" points ="0,0 -9.4497,-56.0210" />
<polyline stroke="rgb(7.7377% 52.5730% 37.3213%)" points ="0,0 -38.6189,-12.1430"/>
</g>

<!-- -->
<g stroke="none" stroke-width="0.5">
  <circle r="3" cx="-30.3927" cy="8.9753" fill="teal"/>
  <circle r="3" cx="-9.4497" cy="-56.0210" fill="olive"/>
  <circle r="3" cx="-38.6189" cy="-12.1430" fill="rgb(7.7377% 52.5730% 37.3213%)"/>

</g>

<circle r="4"/>
<circle r="3" fill="#777"/>
<circle r="2" fill="#fff"/>
<g font-family="sans-serif" font-size="6pt">
<!-- haha not really 6pt but a unit is required per CSS -->
  <text x="60" y="-4" text-anchor="middle">+a</text>
  <text x="-60" y="-4" text-anchor="middle">-a</text>
  <text x="4" y="62">-b</text>
  <text x="4" y="-58">+b</text>
</g>
</svg>
