<svg xmlns="http://www.w3.org/2000/svg" viewBox="-110 -110 220 220" overflow="visible">
<desc>Show the L=50 plane of the CIE Lab colorspace.
      Two colors to be mixed are visualized on this plane,
      with an arc to show where the intermediate colors lie.
      red (#F00) is lch(54.2917% 106.8390 40.8526) lab(54.2917, 80.81247134537588, 69.88502268764606)
      sRGB yellow (#FF0) is lch(97.6071% 94.7077 99.5746) lab(97.6071, -15.75288562782686, 93.38840952541491)
      mix is lch(69.4521% 102.5872 61.4053) which is rgb(75.3600% 65.6304% 16.9796%) lab(69.4521, 49.09932548023713, 90.07435729010635)

</desc>
<g fill="none" stroke="black" stroke-width="0.5">

<!-- mix curve
for (i=0; i<100; i+=5) { h=40.8526 *i/100 + 99.5746 *(100-i)/100; c=106.8390 * i/100 + 94.7077 *(100-i)/100; lab=LCH_to_Lab([50, c, h]); console.log(lab[1]); console.log(-1*lab[2])}
-->
<polyline stroke="#777" stroke-width="0.7" stroke-dasharray="2"
points="-15.75288562782686,-93.38840952541491
-11.018769678963091,-94.67521231691106
-6.194002111455448,-95.72063500485247
-1.2909631079949897,-96.51876190534058
3.6775988502020254,-97.06431605888228
8.698600127810662,-97.35268143760642
13.758656388020011,-97.37992342297512
18.844118262641885,-97.14280747828215
23.941108144661804,-96.63881594501254
29.035558004124816,-95.86616289716267
34.11324812444546,-94.82380699287768
39.15984665271328,-93.51146226823323
44.16094985433497,-91.92960682366324
49.102122959429764,-90.07948935939338
53.968941485782196,-87.96313352226784
58.7470329208687,-85.58334003253785
63.42211864351783,-82.94368656549544
67.98005596414671,-80.04852536926903
72.406880161248,-76.90297860662858
76.68884639088274,-73.51293141526064"/>


<!-- axes -->
​<polyline points="0 -100 0 100"/>
<polyline points="-100 0 100 0"/>

<!-- tic marks -->
<g stroke="#888">
<path d="M-3,-90 h6 M-3,-80 h6 M-3,-70 h6 M-3,-60 h6 M-3,-50 h6 M-3,-40 h6 M-3,-30 h6 M-3,-20 h6 M-3,-10 h6 M-3,10 h6 M-3,20 h6 M-3,30 h6 M-3,40 h6 M-3,50 h6 M-3,60 h6 M-3,70 h6 M-3,80 h6 M-3,90 h6"/>
<path d="M90,-3 v6 M80,-3 v6 M70,-3 v6 M60,-3 v6 M50,-3 v6 M40,-3 v6 M30,-3 v6 M20,-3 v6 M10,-3 v6 M-10,-3 v6 M-20,-3 v6 M-30,-3 v6 M-40,-3 v6 M-50,-3 v6 M-60,-3 v6 M-70,-3 v6 M-80,-3 v6 M-90,-3 v6"/>
</g>

<!-- radial lines for hue angle and chroma -->
<polyline stroke="red" points ="0,0 80.82,-69.89"/>
<polyline stroke="yellow" points ="0,0 -15.7,-93.39"/>
<polyline stroke="rgb(75.3600% 65.6304% 16.9796%)" points ="0,0 49.1,-90.0"/>
</g>

<!-- -->
<g stroke="none" stroke-width="0.5">
  <circle r="3" cx="80.81247134537588" cy="-69.88502268764606" fill="red"/>
  <circle r="3" cx="-15.75288562782686" cy="-93.38840952541491" fill="yellow"/>
  <circle r="3" cx="49.09932548023713" cy="-90.07435729010635" fill="rgb(75.3600% 65.6304% 16.9796%)"/>

</g>

<circle r="4"/>
<circle r="3" fill="#777"/>
<circle r="2" fill="#fff"/>
<g font-family="sans-serif" font-size="6pt">
<!-- haha not really 6pt but a unit is required per CSS -->
  <text x="90" y="-3">+a</text>
  <text x="-90.5" y="-3" text-anchor="end">-a</text>
  <text x="4" y="92">-b</text>
  <text x="4" y="-88">+b</text>
</g>
</svg>