<svg xmlns="http://www.w3.org/2000/svg" viewBox="-70 -70 140 140" overflow="visible">
<desc>Show the L=50 plane of the CIE Lab color space.
      Two colors to be mixed are visualized on this plane,
      with an arc to show where the intermediate colors lie.
      Only hue is interpolated, not chroma.
      rgb(82.02% 30.21% 35.02%) is lch(52% 58.1 22.7) lab(52% 53.59946299740792 22.42114105904291)
      rgb(5.64% 55.94% 85.31%) is lch(56% 49.1 257.1) lab(56% -10.961580696137688 -47.860774634788996)
      hue(75.23%));
      mix is lch(52% 58.1 351.59) which is rgb(80.672% 28.822% 55.255%) lab(52% 57.475 -8.497)

</desc>
<g fill="none" stroke="black" stroke-width="0.5">

<!-- constant-chroma interpolation curve -->
  <circle r="58.1" stroke="#777" stroke-width="0.7" stroke-dasharray="2"/>

<!-- axes -->
​<polyline points="0 -60 0 60"/>
<polyline points="-60 0 60 0"/>

<!-- tic marks -->
<g stroke="#888">
<path d="M-3,-50 h6 M-3,-40 h6 M-3,-30 h6 M-3,-20 h6 M-3,-10 h6 M-3,10 h6 M-3,20 h6 M-3,30 h6 M-3,40 h6 M-3,50 h6"/>
<path d="M50,-3 v6 M40,-3 v6 M30,-3 v6 M20,-3 v6 M10,-3 v6 M-10,-3 v6 M-20,-3 v6 M-30,-3 v6 M-40,-3 v6 M-50,-3 v6"/>
</g>

<!-- radial lines for hue angle and chroma -->
<polyline stroke="rgb(82.02% 30.21% 35.02%)" points ="0,0 53.6, -22.42"/>
<polyline stroke="rgb(5.64% 55.94% 85.31%)" points ="0,0 -10.96, 47.86"/>
<polyline stroke="rgb(61.11% 45.85% 0.41%)" points ="0,0 57.475,8.497"/>
</g>

<!-- -->
<g stroke="none" stroke-width="0.5">
  <circle r="3" cx="53.59946299740792" cy="-22.42114105904291" fill="rgb(82.02% 30.21% 35.02%)"/>
  <circle r="3" cx="-10.961580696137688" cy="47.860774634788996" fill="rgb(5.64% 55.94% 85.31%)"/>
  <circle r="3" cx="57.475" cy="8.497" fill="rgb(80.672% 28.822% 55.255%)"/>

</g>

<circle r="4"/>
<circle r="3" fill="#777"/>
<circle r="2" fill="#fff"/>
<g font-family="sans-serif" font-size="6pt">
<!-- haha not really 6pt but a unit is required per CSS -->
  <text x="60" y="-2">+a</text>
  <text x="-60" y="-2" text-anchor="end">-a</text>
  <text x="4" y="62">-b</text>
  <text x="-4" y="-58" text-anchor="end">+b</text>
</g>
</svg>