<svg xmlns="http://www.w3.org/2000/svg" viewBox="-60 -60 120 120" overflow="visible">
<desc>Show the L=50 plane of the CIE Lab color space.
      Two colors to be mixed are visualized on this plane,
      with an arc to show where the intermediate colors lie.
      peru lch(62.253% 54.011 63.677) rgb(80.39% 52.16% 24.71%) lab(62.253, 23.95015324432121, 48.41051828449609)
      lightgoldenrod lch(91.374% 31.415 98.821) rgb(93.33% 90.98% 66.67%) lab(91.374, -4.8174283819125385, 31.043431008590908)
      40% mix is lch(79.7256% 40.4534 84.7634) rgb(87.41% 76.03% 47.64%) lab(79.7256, 3.69213016556943, 40.28455965255785)

</desc>
<g fill="none" stroke="black" stroke-width="0.5">

<!-- mix curve
  for (i=0; i<100; i+=5) { h=63.677 *i/100 + 98.821 *(100-i)/100; c=54.011 * i/100 + 31.415 *(100-i)/100; lab=LCH_to_Lab([50, c, h]); console.log(lab[1]); console.log(-1*lab[2])}
-->
  <polyline stroke="#777" stroke-width="0.7" stroke-dasharray="2"
  points="-4.8174283819125385, -31.043431008590908
-4.002180106494985, -32.29777951245528
-3.114405014787345, -33.53027239024264
-2.154709122661937,  -34.737637915619956
-1.1238309754799702,  -35.91662196780972
-0.02264110778045535,  -37.06399308466694
1.1478586823401669,  -38.17654749824001
2.3865362435629676,  -39.251114146201765
3.69213016556943,  -40.28455965255785
5.063251056096029,  -41.273793271069025
6.498382999533563,  -42.215771784859896
7.995885195557093,  -43.107504355732196
9.553993776044777,  -43.94605731675252
11.170823798319374,  -44.72855890174533
12.844371412523529,  -45.45220390538998
14.572516200719035,  -46.11425826769614
16.35302368508285,  -46.7120635767156
18.183548002357725,  -47.24304148343915
20.061634741502687,  -47.704698022925726
21.984723941281516,  -48.094627835815956"  />

<!-- axes -->
​<polyline points="0 -50 0 50"/>
<polyline points="-50 0 50 0"/>

<!-- tic marks -->
<g stroke="#888">
<path d="M-3,-40 h6 M-3,-30 h6 M-3,-20 h6 M-3,-10 h6 M-3,10 h6 M-3,20 h6 M-3,30 h6 M-3,40 h6"/>
<path d="M40,-3 v6 M30,-3 v6 M20,-3 v6 M10,-3 v6 M-10,-3 v6 M-20,-3 v6 M-30,-3 v6 M-40,-3 v6"/>
</g>

<!-- radial lines for hue angle and chroma -->
<polyline stroke="rgb(80.39% 52.16% 24.71%)" points ="0,0 23.95, -48.41"/>
<polyline stroke="rgb(93.33% 90.98% 66.67%)" points ="0,0 -4.81, -31.04"/>
<polyline stroke="rgb(87.41% 76.03% 47.64%)" points ="0,0 3.692, -40.28"/>
</g>

<!-- -->
<g stroke="none" stroke-width="0.5">
  <circle r="3" cx="23.95015324432121" cy="-48.41051828449609" fill="rgb(80.39% 52.16% 24.71%)"/>
  <circle r="3" cx="-4.8174283819125385" cy="-31.043431008590908" fill="rgb(93.33% 90.98% 66.67%)"/>
  <circle r="3" cx="3.69213016556943" cy="-40.28455965255785" fill="rgb(87.41% 76.03% 47.64%)"/>

</g>

<circle r="4"/>
<circle r="3" fill="#777"/>
<circle r="2" fill="#fff"/>
<g font-family="sans-serif" font-size="6pt">
<!-- haha not really 6pt but a unit is required per CSS -->
  <text x="50" y="-2">+a</text>
  <text x="-50" y="-2" text-anchor="end">-a</text>
  <text x="4" y="52">-b</text>
  <text x="4" y="-48">+b</text>
</g>
</svg>