<!-- vim: set expandtab ts=2 sw=2 tw=80: -->
<svg xmlns="http://www.w3.org/2000/svg"
  xmlns:xlink="http://www.w3.org/1999/xlink"
  width="100%" height="100%" viewBox="0 0 565 430">
  <defs>
    <style type="text/css">
    svg {
      font-size: 19px;
      font-family: sans-serif;
    }

    /*
     * Line work
     */
    .tick {
      stroke: black;
      stroke-width: 1;
      fill: none;
    }
    .arrowLine {
      stroke: black;
      stroke-width: 1.5;
      marker-end: url(#arrow);
      fill: none;
    }
		.dashLine {
		  stroke: red;
      fill: none;
      stroke-dasharray: 2 6;
      stroke-width: 2.5;
      stroke-linecap: round;
		}
    .bracket {
      stroke: black;
      stroke-width: 1.5;
      fill: none;
    }
    .activeSpan  {
      fill: paleturquoise;
      stroke: black;
    }
    .otherAnim  {
      fill: #eee;
      stroke: #aaa;
    }
    .tLine {
      stroke: blue;
      stroke-width: 4;
      stroke-dasharray: 3 10;
      stroke-linecap: round;
    }
    .tLineLabel {
      fill: blue;
      font-size: 35px;
      font-style: italic;
    }
    .tLineNum {
      fill: blue;
      font-size: 15px;
      font-style: italic;
    }

    /* Text labels */
    .exampleLabel {
      font-size: 1.5em;
    }
    .tickLabel {
      font-size: 0.8em;
      text-anchor: middle;
    }
    .timeLabel {
      text-anchor: middle;
    }
    .regionLabel {
      text-anchor: middle;
    }
    .startTimeLabel {
      text-anchor: start;
      font-style: italic;
      fill: red;
    }
    </style>

    <!-- Arrows -->
    <style type="text/css">
      .blackArrowHead {
        fill: black;
        stroke: none;
      }
    </style>
    <marker id="arrow" viewBox="0 -5 10 10" orient="auto" markerWidth="5"
      markerHeight="5">
      <path d="M0-5l10 5l-10 5z" class="blackArrowHead"/>
    </marker>

    <!-- Star -->
    <style type="text/css">
      .startTimeStar {
        stroke: red;
        stroke-linecap: round;
        stroke-width: 2;
        fill: none;
      }
    </style>
    <path d="M-3.5-3.5l7 7M3.5-3.5l-7 7M0-5v10M-5 0h10"
      class="startTimeStar" id="star"/>
  </defs>
  <!-- Timeline -->
  <g transform="translate(70 15)">
    <text y="0.1em">Inherited time</text>
    <g transform="translate(0 20)">
      <line x2="480" class="arrowLine"/>
      <path d="M0-5v10m120-10v10m120-10v10m120-10v10" class="tick"/>
      <g class="tickLabel">
        <text x="0" y="1.3em">0</text>
        <text x="120" y="1.3em">1</text>
        <text x="240" y="1.3em">2</text>
        <text x="360" y="1.3em">3</text>
      </g>
    </g>
  </g>
  <!-- A -->
  <g transform="translate(70 165)">
    <text x="-40" y="35" class="exampleLabel">(a)</text>
    <g transform="translate(120)">
      <rect width="240" height="50" class="activeSpan"/>
      <path d="M0-30h360" class="arrowLine"/>
      <path d="M0-35v10m120-10v10m120-10v10" class="tick"/>
      <text y="-45">Local time</text>
      <g transform="translate(0 -10)" class="tickLabel">
        <text x="0">0</text>
        <text x="120">1</text>
        <text x="240">2</text>
      </g>
      <text x="10" y="-5" class="startTimeLabel">start time</text>
      <use xlink:href="#star"/>
    </g>
  </g>
  <!-- B -->
  <g transform="translate(70 330)">
    <text x="-40" y="35" class="exampleLabel">(b)</text>
    <g transform="translate(120)">
      <rect x="120" width="240" height="50" class="activeSpan"/>
      <path d="M0-30h360" class="arrowLine"/>
      <path d="M0-35v10m120-10v10m120-10v10" class="tick"/>
      <text y="-45">Local time</text>
      <g transform="translate(0 -10)" class="tickLabel">
        <text x="0">0</text>
        <text x="120">1</text>
        <text x="240">2</text>
      </g>
      <line y2="50" class="dashLine"/>
      <text x="10" y="-5" class="startTimeLabel">start time</text>
      <use xlink:href="#star"/>
      <path d="M2 55s0 7 7 7h44s7 0 7 7c0 0 0-7 7-7h44s7 0 7-7"
        class="bracket"/>
      <text x="60" y="90" class="regionLabel">start delay</text>
    </g>
  </g>
  <!-- Dotted 't' line -->
  <g transform="translate(370 20)">
    <path d="M0 0v400" class="tLine"/>
    <text x="13" y="395" class="tLineLabel">t</text>
    <text x="5" y="30" class="tLineNum">2.5</text>
    <text x="5" y="130" class="tLineNum">1.5</text>
    <text x="5" y="295" class="tLineNum">1.5</text>
  </g>
</svg>
