<svg xmlns="http://www.w3.org/2000/svg" viewBox="0 0 200 335"><style>text{font-family:sans-serif}</style><path fill="#fff" d="M0 0h200v335H0z"/><path fill="#c1c1c1" d="M0 16.2h200v36.5H0z"/><rect width="8.2" height="27.2" x="188.3" y="55.3" fill="#c1c1c1" ry="4.1"/><path d="M11.9 41.1h3.4v-5.7h5v5.7h3.4v-8.9l-6-4.4-5.8 4.4zm0 1.4q-.6 0-1-.4t-.4-1v-8.9l.1-.6.4-.4 6-4.5.3-.2h.9l.4.2 5.9 4.5.4.4.1.6v8.9q0 .6-.4 1t-1 .4H19v-5.7h-2.3v5.7zm5.9-8z"/><rect width="161.1" height="23.9" x="32.3" y="22.5" fill="#fff" ry="12"/><text x="40.6" y="37.8" stroke-width="2" font-size="12">example.com</text><path fill="#c1c1c1" d="M0 161.5h200v148.3H0z"/><g fill="#fff" font-size="12"><g transform="translate(1 -22.6)"><rect width="15.6" height="26.1" x="7.4" y="194.1" ry="4.1"/><text x="15.2" y="210.4" fill="#000" style="text-align:center" text-anchor="middle">Q</text></g><g transform="translate(19.7 -22.6)"><rect width="15.6" height="26.1" x="7.4" y="194.1" ry="4.1"/><text x="15.2" y="210.4" fill="#000" style="text-align:center" text-anchor="middle">W</text></g><g transform="translate(38.3 -22.6)"><rect width="15.6" height="26.1" x="7.4" y="194.1" ry="4.1"/><text x="15.2" y="210.4" fill="#000" style="text-align:center" text-anchor="middle">E</text></g><g transform="translate(56.9 -22.6)"><rect width="15.6" height="26.1" x="7.4" y="194.1" ry="4.1"/><text x="15.2" y="210.4" fill="#000" style="text-align:center" text-anchor="middle">R</text></g><g transform="translate(75.5 -22.6)"><rect width="15.6" height="26.1" x="7.4" y="194.1" ry="4.1"/><text x="15.2" y="210.4" fill="#000" style="text-align:center" text-anchor="middle">T</text></g><g transform="translate(94 -22.6)"><rect width="15.6" height="26.1" x="7.4" y="194.1" ry="4.1"/><text x="15.2" y="210.4" fill="#000" style="text-align:center" text-anchor="middle">Y</text></g><g transform="translate(112.7 -22.6)"><rect width="15.6" height="26.1" x="7.4" y="194.1" ry="4.1"/><text x="15.2" y="210.4" fill="#000" style="text-align:center" text-anchor="middle">U</text></g><g transform="translate(131.3 -22.6)"><rect width="15.6" height="26.1" x="7.4" y="194.1" ry="4.1"/><text x="15.2" y="210.4" fill="#000" style="text-align:center" text-anchor="middle">I</text></g><g transform="translate(168.5 -22.6)"><rect width="15.6" height="26.1" x="7.4" y="194.1" ry="4.1"/><text x="15.2" y="210.4" fill="#000" style="text-align:center" text-anchor="middle">P</text></g><g transform="translate(149.9 -22.6)"><rect width="15.6" height="26.1" x="7.4" y="194.1" ry="4.1"/><text x="15.2" y="210.4" fill="#000" style="text-align:center" text-anchor="middle">O</text></g><g transform="translate(10.4 11.5)"><rect width="15.6" height="26.1" x="7.4" y="194.1" ry="4.1"/><text x="15.2" y="210.4" fill="#000" style="text-align:center" text-anchor="middle">A</text></g><g transform="translate(29 11.5)"><rect width="15.6" height="26.1" x="7.4" y="194.1" ry="4.1"/><text x="15.2" y="210.4" fill="#000" style="text-align:center" text-anchor="middle">S</text></g><g transform="translate(47.6 11.5)"><rect width="15.6" height="26.1" x="7.4" y="194.1" ry="4.1"/><text x="15.2" y="210.4" fill="#000" style="text-align:center" text-anchor="middle">D</text></g><g transform="translate(66.2 11.5)"><rect width="15.6" height="26.1" x="7.4" y="194.1" ry="4.1"/><text x="15.2" y="210.4" fill="#000" style="text-align:center" text-anchor="middle">F</text></g><g transform="translate(84.8 11.5)"><rect width="15.6" height="26.1" x="7.4" y="194.1" ry="4.1"/><text x="15.2" y="210.4" fill="#000" style="text-align:center" text-anchor="middle">G</text></g><g transform="translate(103.4 11.5)"><rect width="15.6" height="26.1" x="7.4" y="194.1" ry="4.1"/><text x="15.2" y="210.4" fill="#000" style="text-align:center" text-anchor="middle">H</text></g><g transform="translate(122 11.5)"><rect width="15.6" height="26.1" x="7.4" y="194.1" ry="4.1"/><text x="15.2" y="210.4" fill="#000" style="text-align:center" text-anchor="middle">J</text></g><g transform="translate(140.6 11.5)"><rect width="15.6" height="26.1" x="7.4" y="194.1" ry="4.1"/><text x="15.2" y="210.4" fill="#000" style="text-align:center" text-anchor="middle">K</text></g><g transform="translate(159.2 11.5)"><rect width="15.6" height="26.1" x="7.4" y="194.1" ry="4.1"/><text x="15.2" y="210.4" fill="#000" style="text-align:center" text-anchor="middle">L</text></g><g transform="translate(29 45.5)"><rect width="15.6" height="26.1" x="7.4" y="194.1" ry="4.1"/><text x="15.2" y="210.4" fill="#000" style="text-align:center" text-anchor="middle">Z</text></g><g transform="translate(47.6 45.5)"><rect width="15.6" height="26.1" x="7.4" y="194.1" ry="4.1"/><text x="15.2" y="210.4" fill="#000" style="text-align:center" text-anchor="middle">X</text></g><g transform="translate(66.2 45.5)"><rect width="15.6" height="26.1" x="7.4" y="194.1" ry="4.1"/><text x="15.2" y="210.4" fill="#000" style="text-align:center" text-anchor="middle">C</text></g><g transform="translate(84.8 45.5)"><rect width="15.6" height="26.1" x="7.4" y="194.1" ry="4.1"/><text x="15.2" y="210.4" fill="#000" style="text-align:center" text-anchor="middle">V</text></g><g transform="translate(103.4 45.5)"><rect width="15.6" height="26.1" x="7.4" y="194.1" ry="4.1"/><text x="15.2" y="210.4" fill="#000" style="text-align:center" text-anchor="middle">B</text></g><g transform="translate(122 45.5)"><rect width="15.6" height="26.1" x="7.4" y="194.1" ry="4.1"/><text x="15.2" y="210.4" fill="#000" style="text-align:center" text-anchor="middle">N</text></g><g transform="translate(140.6 45.5)"><rect width="15.6" height="26.1" x="7.4" y="194.1" ry="4.1"/><text x="15.2" y="210.4" fill="#000" style="text-align:center" text-anchor="middle">M</text></g><g transform="translate(22.8 79.6)"><rect width="139.6" height="26.1" x="7.4" y="194.1" ry="4.1"/><text x="77.1" y="210.4" fill="#000" style="text-align:center" text-anchor="middle">space</text></g></g><rect width="200" height="16.2" ry="0"/><text x="4.3" y="10.3" fill="#fff" font-size="8" style="text-align:start">12:42</text><path fill="#fff" d="M180.7 11.8q-.3 0-.5-.2l-.2-.4V9h-1.4V5.5h1.4V3.4q0-.3.2-.5t.5-.2h15.4q.3 0 .5.2t.2.5v7.8l-.2.4q-.2.2-.5.2zm.7-1.3h4V4h-4z"/><path d="M0 309.8h200V335H0z"/><path fill="#fff" d="m12.2 329.2-6.8-6.8 6.8-6.8.9.9-5.3 5.2H19v1.3H7.8l5.3 5.3z"/><path fill="#ffdc19" d="M0 16.2h7v27.4H0z"/><path fill="#ffdc19" d="M0 23.2v-7h27.4v7zM200 16.2v7h-27.4v-7z"/><path fill="#ffdc19" d="M193 16.2h7v27.4h-7zM0 309.8v-7h27.4v7z"/><path fill="#ffdc19" d="M7 309.8H0v-27.4h7zM200 309.8h-7v-27.4h7z"/><path fill="#ffdc19" d="M200 302.8v7h-27.4v-7z"/><path fill="#ffdc19" fill-opacity=".4" d="M0 16.2h200v293.5H0z"/><g transform="translate(-4.6 3.6)"><rect width="165.1" height="83.3" x="21.1" y="122.3" fill="#fff" ry="8.4"/><text font-size="20"><tspan x="104" y="153.8" style="text-align:center" text-anchor="middle">Snapshot</tspan><tspan x="104" y="190.4" style="text-align:center" text-anchor="middle">Containing Block</tspan></text></g><path fill="none" stroke="#000" stroke-width="2" d="M0 0h200v335H0z"/></svg>
