<svg xmlns="http://www.w3.org/2000/svg" xmlns:xlink="http://www.w3.org/1999/xlink"
  width="100%" height="100%" viewBox="0 0 340 520">
  <title>Variable-Size Fragmentainers</title>

  <style type="text/css">
    .page {
      stroke: gray;
      stroke-width: 1px;
      fill: ghostwhite;
    }

    .float {
      stroke-width: 2px;
    }

    .float text {
      text-anchor: middle;
      stroke: none;
      }

    .left {
      stroke: crimson;
      fill: pink;
    }

    .left text {
      fill: crimson;
    }

    .right {
      stroke: navy;
      fill: powderblue;
    }

    .right text {
      fill: navy;
      stroke: none;
    }

    text {
      font-family: Verdana, sans-serif;
      font-size: 1em;
    }

    .lorem > rect {
      fill: #777;
      stroke: none;
    }

    text.caption {
      text-transform: lowercase;
    }
  </style>

  <g transform="translate(10,15)">
    <text class="caption" x="0" y="10">First Page</text>
    <g transform="translate(0,20)">
      <path d="M0,0 H320 V190 H0 Z" class="page"/>
      <g class="float left" transform="translate(5,5)">
        <path d="M0,180 V0 H100 V180"/>
        <text x="50" y="50">left <tspan x="50" dy="20">float </tspan></text>
      </g>
      <g class="lorem" transform="translate(110,5)">
        <rect x="0" y="0" width="100.8" height="12.8" />
        <rect x="0" y="16.8" width="40" height="12.8" /> <rect x="44.8" y="16.8" width="35.2" height="12.8" />
        <rect x="0" y="33.6" width="24" height="12.8" /> <rect x="28.8" y="33.6" width="70.4" height="12.8" />
        <rect x="0" y="50.4" width="64" height="12.8" /> <rect x="68.8" y="50.4" width="24.48" height="12.8" />
        <rect x="0" y="67.2" width="96" height="12.8" />
        <rect x="0" y="84" width="100.8" height="12.8" />
        <rect x="0" y="100.8" width="84.8" height="12.8" />
        <rect x="0" y="117.6" width="100.8" height="12.8" />
        <rect x="0" y="134.4" width="48" height="12.8" /> <rect x="52.8" y="134.4" width="48" height="12.8" />
        <rect x="0" y="151.2" width="68.8" height="12.8" />
        <rect x="0" y="168" width="100.8" height="12.8" />
      </g>
      <g class="float right" transform="translate(215,5)">
        <path d="M0,180 V0 H100 V180"/>
        <text x="50" y="50">right <tspan x="50" dy="20">float </tspan></text>
      </g>
    </g>
  </g>

  <g transform="translate(10,245)">
    <text class="caption" x="0" y="10">Second Page</text>
    <g transform="translate(0,20)">
      <path d="M0,245 V0 H180 V245" class="page"/>
      <g class="float left" transform="translate(5,5)">
        <path d="M0,0 V100 H100 V0"/>
        <text x="50" y="40">left <tspan x="50" dy="20">float </tspan><tspan x="50" dy="20">cont. </tspan></text>
      </g>
      <g class="float right" transform="translate(75,110)">
        <path d="M0,0 V100 H100 V0"/>
        <text x="50" y="40">right <tspan x="50" dy="20">float </tspan><tspan x="50" dy="20">cont. </tspan></text>
      </g>

      <g class="lorem" transform="translate(110,5)">
        <rect x="0" y="0" width="64" height="12.8" />
        <rect x="0" y="16.8" width="56" height="12.8" />
        <rect x="0" y="33.6" width="64" height="12.8" />
        <rect x="0" y="50.4" width="64" height="12.8" />
        <rect x="0" y="67.2" width="48" height="12.8" />
        <rect x="0" y="84" width="64" height="12.8" />
      </g>
      <g class="lorem" transform="translate(5,111)">
        <rect x="0" y="0" width="60.8" height="12.8" />
        <rect x="0" y="16.8" width="48" height="12.8" />
        <rect x="0" y="33.6" width="24" height="12.8" /> <rect x="28.8" y="33.6" width="32" height="12.8" />
        <rect x="0" y="50.4" width="60.8" height="12.8" />
        <rect x="0" y="67.2" width="56" height="12.8" />
        <rect x="0" y="84" width="60.8" height="12.8" />
        <rect x="0" y="101.6" width="24" height="12.8" /> <rect x="28.8" y="101.6" width="70.4" height="12.8" /> <rect x="104" y="101.6" width="67.2" height="12.8" />
        <rect x="0" y="118.4" width="64" height="12.8" /> <rect x="68.8" y="118.4" width="24.48" height="12.8" />
      </g>
    </g>
  </g>
</svg>
