<svg xmlns="http://www.w3.org/2000/svg" viewBox="-170 -140 320 280" overflow="visible" width="640" height="560">
<desc>Show a top-down view of the CIE Lab color space.
      The a98-rgb primaries and secondaries are shown,
      with an annotation indicating the L value.
      For comparison, the sRGB primaries and secondaries are also shown.
</desc>
<rect x="-170" y="-140" width="100%" height="100%" fill="white" />
<g fill="none" stroke="black" stroke-width="0.5">

<!-- axes -->
​<polyline points="0 -120 0 120"/>
<polyline points="-140 0 120 0"/>

<!-- tic marks -->
<g stroke="#888">
<path d="M-3,-110 h6 M-3,-100 h6 M-3,-90 h6 M-3,-80 h6 M-3,-70 h6 M-3,-60 h6 M-3,-50 h6 M-3,-40 h6 M-3,-30 h6 M-3,-20 h6 M-3,-10 h6 M-3,10 h6 M-3,20 h6 M-3,30 h6 M-3,40 h6 M-3,50 h6 M-3,60 h6 M-3,70 h6 M-3,80 h6 M-3,90 h6 M-3,100 h6 M-3,110 h6"/>
<path d="M110,-3 v6 M100,-3 v6 M90,-3 v6 M80,-3 v6 M70,-3 v6 M60,-3 v6 M50,-3 v6 M40,-3 v6 M30,-3 v6 M20,-3 v6 M10,-3 v6 M-10,-3 v6 M-20,-3 v6 M-30,-3 v6 M-40,-3 v6 M-50,-3 v6 M-60,-3 v6 M-70,-3 v6 M-80,-3 v6 M-90,-3 v6 M-100,-3 v6 M-110,-3 v6 M-120,-3 v6 M-130,-3 v6"/>



<g stroke-dasharray="1 2" stroke="#bbb">
<!-- radial lines for sRGB  hue angle and chroma -->
<polyline points="0,0 80.81,-69.88"/>
<polyline points="0,0 -79.28,-80.99"/>
<polyline points="0,0 68.29,112.02"/>
<polyline points="0,0 -50.66,14.96"/>
<polyline points="0,0 93.54,60.49"/>
<polyline points="0,0 -15.75,-93.38"/>
</g>
<!-- radial lines for hue angle and chroma -->
<polyline points="0,0 90.363,-78.14"/>
<polyline points="0,0 -129.107,-87.172"/>
<polyline points="0,0 69.268,113.619"/>

<polyline points="0,0 -83.400,21.790"/>
<polyline points="0,0 101.307,50.831"/>
<polyline points="0,0 -16.494,-103.674"/>
</g>
</g>

<!-- sRGB primaries and secondaries -->
<g stroke-dasharray="1 2" stroke="#bbb" stroke-width="0.5" fill="white">
  <circle r="3" cx="80.81247134537588" cy="-69.88502268764606" fill="#FF000040"/>
  <circle r="3" cx="-79.2872863932051" cy="-80.99026038511582" fill="#00FF0040"/>
  <circle r="3" cx="68.29859917400466" cy="112.02941005918544" fill="#0000FF40"/>
  <circle r="3" cx="-50.665438698900886" cy="14.962023848069572" fill="#00FFFF40"/>
  <circle r="3" cx="93.54998546820059" cy="60.49854210467602" fill="#FF00FF40"/>
  <circle r="3" cx="-15.75288562782686" cy="-93.38840952541491" fill="#FFFF0040"/>
</g>

<!-- a98 primaries and secondaries -->
<!-- the fill colors are *not the P3 colors* -->
<g stroke="none" stroke-width="0.5">
  <circle r="3" cx="90.36381055028275" cy="-78.14489221087388" fill="red"/>
  <circle r="3" cx="-129.10715390592787" cy="-87.17179565230677" fill="green"/>
  <circle r="3" cx="69.26780571149821" cy="113.61919485115837" fill="blue"/>
  <circle r="3" cx="-83.40012967009037" cy="21.790291423357" fill="cyan"/>
  <circle r="3" cx="101.30681679749325" cy="50.830676140461975" fill="magenta"/>
  <circle r="3" cx="-16.49354907034223" cy="-103.67364739374065" fill="yellow"/>
</g>

<circle r="4"/>
<circle r="3" fill="#777"/>
<circle r="2" fill="#fff"/>
<g font-family="sans-serif" font-size="6pt">
<!-- haha not really 6pt but a unit is required per CSS -->
  <text x="120" y="-3">+a</text>
  <text x="-140.5" y="-3" text-anchor="end">-a</text>
  <text x="4" y="122">-b</text>
  <text x="4" y="-118">+b</text>
</g>

<g font-family="sans-serif" font-size="5pt">
  <text x="95" y="-83">L: 62.5996%<tspan x="95" dy="10">C: 119.4665<tspan x="95" dy="10">H: 40.8526</tspan></tspan></text>
  <text x="-154" y="-112">L: 83.2141%<tspan x="-154" dy="10">C: 155.7805<tspan x="-154" dy="10">H: 145.9732</tspan></tspan></text>
  <text x="75" y="97">L: 30.2142%<tspan x="75" dy="10">C: 133.0690<tspan x="75" dy="10">H: 301.3685</tspan></tspan></text>

  <text x="-126" y="12">L: 86.4498%<tspan x="-126" dy="10">C: 86.1998<tspan x="-126" dy="10">H: 194.6426</tspan></tspan></text>
  <text x="105" y="35">L: 67.6003%<tspan x="105" dy="10">C: 113.3439<tspan x="105" dy="10">H: 333.3548</tspan></tspan></text>
  <text x="-63" y="-120">L: 97.5013%<tspan x="-63" dy="10">C: 104.9774<tspan x="-63" dy="10">H: 99.0395</tspan></tspan></text>

</g>
</svg>