<svg xmlns="http://www.w3.org/2000/svg" viewBox="-80 -80 160 160" overflow="visible" width="500" height="500">
<desc>Show the L=50 plane of the CIE Lab color space.
      20 degree increments in CIE LCH are converted to Lab,
      then displayed as circles with the cx coordinate = CIE a and
      the cy coordinate = CIE (-b) to give a Y-up coordinate system.
      Three levels of Chroma are displayed: 20, 40 and 60.
      All the C=20 fit inside sRGB gamut, some of C=40 and C=60 are outside.
      The colors are converted to sRGB which is used to fill the circles
      The out of gamut circles are visualized as grey with a red warning outer stroke.
</desc>
<rect x="-80" y="-80" width="100%" height="100%" fill="white" />
<g fill="none" stroke="black" stroke-width="0.3">
  <polyline points="0 -70 0 70"/>
  <polyline points="-70 0 70 0"/>
</g>
<!-- tic marks -->
<g stroke="#888" stroke-width="0.5">
<path d="M-3,-70 h6 M-3,-60 h6 M-3,-50 h6 M-3,-40 h6 M-3,-30 h6 M-3,-20 h6 M-3,-10 h6 M-3,10 h6 M-3,20 h6 M-3,30 h6 M-3,40 h6 M-3,50 h6 M-3,60 h6 M-3,70 h6"/>
<path d="M70,-3 v6 M60,-3 v6 M50,-3 v6 M40,-3 v6 M30,-3 v6 M20,-3 v6 M10,-3 v6 M-10,-3 v6 M-20,-3 v6 M-30,-3 v6 M-40,-3 v6 M-50,-3 v6 M-60,-3 v6 M-70,-3 v6"/>
</g>
<g class="c20" stroke="none" stroke-width="0.5">
  <circle r="3" cx="20" cy="0" fill="rgb(59.26% 41.67% 46.97%)"/>
  <circle r="3" cx="18.79385241571817" cy="-6.840402866513374" fill="rgb(59.66% 41.9% 42.44%)"/>
  <circle r="3" cx="15.32088886237956" cy="-12.855752193730785" fill="rgb(58.52% 42.76% 38.39%)"/>
  <circle r="3" cx="10" cy="-17.32050807568877" fill="rgb(56.02% 44.07% 35.28%)"/>
  <circle r="3" cx="3.4729635533386083" cy="-19.69615506024416" fill="rgb(52.43% 45.6% 33.51%)"/>
  <circle r="3" cx="-3.472963553338606" cy="-19.69615506024416" fill="rgb(48.05% 47.11% 33.34%)"/>
  <circle r="3" cx="-9.999999999999996" cy="-17.320508075688775" fill="rgb(43.23% 48.44% 34.83%)"/>
  <circle r="3" cx="-15.320888862379558" cy="-12.85575219373079" fill="rgb(38.34% 49.48% 37.76%)"/>
  <circle r="3" cx="-18.793852415718167" cy="-6.840402866513378" fill="rgb(33.83% 50.16% 41.76%)"/>
  <circle r="3" cx="-20" cy="0" fill="rgb(30.33% 50.46% 46.34%)"/>
  <circle r="3" cx="-18.79385241571817" cy="6.840402866513373" fill="rgb(28.65% 50.36% 50.92%)"/>
  <circle r="3" cx="-15.32088886237956" cy="12.855752193730785" fill="rgb(29.5% 49.86% 54.98%)"/>
  <circle r="3" cx="-10" cy="17.32050807568877" fill="rgb(32.83% 48.96% 58.03%)"/>
  <circle r="3" cx="-3.4729635533386065" cy="19.69615506024416" fill="rgb(37.84% 47.73% 59.69%)"/>
  <circle r="3" cx="3.4729635533385994" cy="19.696155060244163" fill="rgb(43.54% 46.24% 59.77%)"/>
  <circle r="3" cx="10" cy="17.32050807568877" fill="rgb(49.06% 44.66% 58.27%)"/>
  <circle r="3" cx="15.320888862379556" cy="12.855752193730792" fill="rgb(53.79% 43.21% 55.38%)"/>
  <circle r="3" cx="18.79385241571817" cy="6.840402866513372" fill="rgb(57.28% 42.14% 51.46%)"/>
</g>
<g class="c40" stroke="none" stroke-width="0.5">
  <circle r="3" cx="40" cy="0" fill="rgb(70.39% 34.93% 47.35%)"/>
  <circle r="3" cx="37.58770483143634" cy="-13.680805733026748" fill="rgb(70.77% 35.61% 38.38%"/>
  <circle r="3" cx="30.64177772475912" cy="-25.71150438746157" fill="rgb(68.29% 37.96% 30.2%)"/>
  <circle r="3" cx="20" cy="-34.64101615137754" fill="rgb(63.38% 41.21% 23.58%)"/>
  <circle r="3" cx="6.945927106677217" cy="-39.39231012048832" fill="rgb(56.54% 44.61% 19.4%)"/>
  <circle r="3" cx="-6.945927106677212" cy="-39.39231012048832" fill="rgb(48.24% 47.65% 18.76%)"/>
  <circle r="3" cx="-20" cy="-34.64101615137755" fill="rgb(38.76% 50.1% 22.08%)"/>
  <circle r="3" cx="-30.641777724759116" cy="-25.71150438746158" fill="rgb(27.84% 51.87% 28.48%)"/>
  <circle r="3" cx="-37.587704831436334" cy="-13.680805733026755" fill="rgb(12.95% 52.99% 36.81%)"/>
  <circle r="3" cx="-40" cy="0" fill="#DDD" stroke="#C00"/>
  <circle r="3" cx="-37.58770483143634" cy="13.680805733026746" fill="#DDD" stroke="#C00"/>
  <circle r="3" cx="-30.64177772475912" cy="25.71150438746157" fill="#DDD" stroke="#C00"/>
  <circle r="3" cx="-20.000000000000018" cy="34.64101615137754" fill="#DDD" stroke="#C00"/>
  <circle r="3" cx="-6.945927106677213" cy="39.39231012048832" fill="rgb(21.23% 48.89% 72.92%)"/>
  <circle r="3" cx="6.945927106677199" cy="39.392310120488325" fill="rgb(37.9% 45.95% 73.05%)"/>
  <circle r="3" cx="20" cy="34.64101615137754" fill="rgb(50.54% 42.5% 69.97%)"/>
  <circle r="3" cx="30.641777724759113" cy="25.711504387461584" fill="rgb(60.23% 39.01% 64.12%)"/>
  <circle r="3" cx="37.58770483143634" cy="13.680805733026745" fill="rgb(66.89% 36.21% 56.26%)"/>
</g>
<g class="c60" stroke="none" stroke-width="0.5">
  <circle r="3" cx="60" cy="0" fill="rgb(80.704% 24.6213% 47.783%)"/>
  <circle r="3" cx="56.381557247154504" cy="-20.521208599540124" fill="rgb(80.861% 26.412% 34.481%)"/>
  <circle r="3" cx="45.96266658713868" cy="-38.56725658119235" fill="rgb(76.918% 31.706% 21.963%)"/>
  <circle r="3" cx="30" cy="-51.96152422706631" fill="rgb(69.584% 37.946% 9.557%)"/>
  <circle r="3" cx="10.418890660015824" cy="-59.088465180732484" fill="#DDD" stroke="#C00"/>
  <circle r="3" cx="-10.418890660015824" cy="-59.088465180732484" fill="#DDD" stroke="#C00"/>
  <circle r="3" cx="-29.999999999999986" cy="-51.96152422706632" fill="rgb(32.937% 51.617% 1.595%)"/>
  <circle r="3" cx="-45.96266658713867" cy="-38.56725658119237" fill="rgb(9.103% 53.901% 17.945%)"/>
  <circle r="3" cx="-56.3815572471545" cy="-20.52120859954013" fill="#DDD" stroke="#C00"/>
  <circle r="3" cx="-60" cy="0" fill="#DDD" stroke="#C00"/>
  <circle r="3" cx="-56.381557247154504" cy="20.52120859954012" fill="#DDD" stroke="#C00"/>
  <circle r="3" cx="-45.96266658713868" cy="38.56725658119235" fill="#DDD" stroke="#C00"/>
  <circle r="3" cx="-30" cy="51.961524227066306" fill="#DDD" stroke="#C00"/>
  <circle r="3" cx="-10.418890660015819" cy="59.088465180732484" fill="#DDD" stroke="#C00"/>
  <circle r="3" cx="10.418890660015798" cy="59.088465180732484" fill="rgb(27.324% 45.790% 86.559%)"/>
  <circle r="3" cx="30" cy="51.96152422706631" fill="rgb(51.018% 40.1356% 81.824%)"/>
  <circle r="3" cx="45.96266658713867" cy="38.567256581192375" fill="rgb(66.177% 33.664% 72.908%)"/>
  <circle r="3" cx="56.381557247154504" cy="20.521208599540117" fill="rgb(75.919% 27.681% 61.058%)"/>
</g>

<circle r="4"/>
<circle r="3" fill="#777"/>
<circle r="2" fill="#fff"/>
<g font-family="sans-serif" font-size="6pt">
<!-- haha not really 6pt but a unit is required per CSS -->
  <text x="70" y="-2">+a</text>
  <text x="-70.2" y="-2" text-anchor="end">-a</text>
  <text x="4" y="72">-b</text>
  <text x="4" y="-68">+b</text>
</g>
</svg>