<svg width="713px" height="156px" viewBox="0 0 713 156" xmlns="http://www.w3.org/2000/svg">
    <title>joining-and-transparency</title>
    <g id="Page-1" stroke="none" stroke-width="1" fill="none" fill-rule="evenodd">
        <g id="Transparency" fill="#000000">
            <g id="Group-2">
                <path d="M44.2984104,76.064 L46.432,76.064 C47.584,76.064 49.024,75.488 50.752,74.192 C52.48,72.896 54.496,71.024 56.8,68.576 C59.68,65.408 62.128,62.816 64.144,60.944 C66.16,59.072 67.6,57.776 68.608,57.2 C69.616,56.624 70.624,56.192 71.632,55.904 C72.64,55.616 73.792,55.472 74.944,55.472 C76.096,55.472 77.104,55.616 77.824,55.76 C78.544,55.904 79.12,56.192 79.408,56.48 C80.992,58.352 82.576,60.224 84.16,62.096 C85.744,63.968 87.328,65.984 88.912,68 C91.072,70.736 93.232,72.752 95.248,74.048 C97.264,75.344 99.136,76.064 101.008,76.064 L101.728,76.064 L102.448,76.064 C103.456,76.064 104.608,75.92 105.76,75.632 C106.912,75.344 108.064,75.056 109.36,74.624 C110.944,74.192 112.24,73.616 113.104,72.896 C113.968,72.176 114.4,71.456 114.256,70.736 L111.664,26.672 C111.52,23.936 111.376,21.344 111.088,18.896 C110.8,16.448 110.512,14.144 110.224,11.984 C110.224,11.84 110.512,11.408 110.944,10.688 C111.376,9.968 112.096,8.96 112.96,7.664 C113.392,6.944 113.968,6.08 114.544,5.072 C115.12,4.064 115.84,2.912 116.704,1.616 C116.848,1.472 116.992,1.328 117.136,1.184 C117.28,1.04 117.424,0.896 117.568,0.752 C117.712,0.896 117.856,1.04 117.856,1.328 L117.856,2.48 C118.576,22.208 119.152,37.472 119.728,48.128 C120.304,58.784 120.736,64.832 120.88,66.128 C121.456,69.44 122.32,71.888 123.472,73.616 C124.624,75.344 126.064,76.208 127.936,76.208 L131.248,76.208 L131.239403,76.496 L131.392,76.496 C135.856,76.496 139.888,76.064 143.488,75.2 C147.088,74.336 150.256,73.04 152.992,71.456 C154.432,70.592 155.584,69.728 156.304,69.008 C157.024,68.288 157.456,67.568 157.456,66.848 C157.456,64.4 156.592,61.952 154.864,59.36 C153.136,56.768 150.4,54.176 146.8,51.584 C145.792,50.864 144.496,50 142.912,48.992 C141.328,47.984 139.456,46.832 137.296,45.536 C135.712,44.528 134.56,43.808 133.84,43.232 C133.12,42.656 132.688,42.224 132.688,41.936 C132.688,41.216 132.688,40.352 132.832,39.2 C132.976,38.048 133.12,36.752 133.264,35.168 C133.408,33.296 133.552,31.856 133.696,30.848 C133.84,29.84 133.984,29.264 134.128,29.12 C140.608,24.368 147.664,19.616 155.44,15.008 C163.216,10.4 171.712,5.936 180.784,1.472 C181.36,1.184 181.792,1.04 182.224,0.896 C182.656,0.752 182.944,0.752 183.088,0.752 L183.376,0.752 L183.376,1.04 C183.376,1.184 183.232,1.472 183.088,1.76 C182.944,2.048 182.8,2.48 182.656,2.912 L182.368,3.2 C181.936,4.064 181.36,5.36 180.496,7.088 C179.632,8.816 178.624,10.832 177.328,13.28 C168.976,17.456 161.488,21.344 154.864,25.088 C148.24,28.832 142.48,32.432 137.728,35.888 C138.448,36.32 139.456,36.896 140.752,37.616 C142.048,38.336 143.488,39.344 145.216,40.496 C147.376,41.792 149.392,43.232 151.264,44.672 C153.136,46.112 154.864,47.696 156.448,49.424 C158.32,51.584 159.76,53.744 160.624,55.904 C161.488,58.064 161.92,60.08 161.92,62.096 C161.92,65.408 161.776,68 161.632,70.016 C161.488,72.032 161.2,73.472 160.768,74.192 C158.464,78.224 154.864,81.248 149.824,83.264 C144.784,85.28 138.448,86.288 130.816,86.288 L127.648,86.288 L127.648,85.856 C125.2,85.856 123.04,85.136 121.312,83.696 C119.584,82.256 118.144,80.096 117.136,77.36 C115.264,80.096 113.104,82.256 110.512,83.696 C107.92,85.136 105.04,85.856 101.872,85.856 L99.136,85.856 L99.136,85.4187155 C97.4885138,85.3585321 95.7125138,84.7842936 93.808,83.696 C91.792,82.544 89.632,80.816 87.328,78.512 C87.184,78.944 86.752,79.664 86.176,80.672 C85.6,81.68 84.88,82.976 84.016,84.56 C83.008,86.144 82.144,87.44 81.568,88.304 C80.992,89.168 80.56,89.6 80.416,89.6 C78.544,89.6 76.528,89.312 74.368,88.736 C72.208,88.16 69.904,87.152 67.6,85.856 C65.44,84.56 63.424,83.264 61.696,81.824 C59.968,80.384 58.384,78.944 57.088,77.36 C55.216,80.096 53.488,82.256 51.904,83.696 C50.4311858,85.034922 48.9583715,85.7513745 47.6013126,85.8453575 L47.584,86.144 L45.28,86.144 C43.12,86.144 41.248,85.712 39.664,84.992 C38.08,84.272 36.64,83.12 35.488,81.68 C34.624,80.672 33.76,79.376 33.04,77.648 C32.32,75.92 31.6,73.904 30.88,71.456 C29.872,72.608 28.864,73.76 27.856,74.912 C26.848,76.064 25.696,77.216 24.4,78.368 C22.528,78.512 20.512,78.512 18.352,78.368 C16.192,78.224 13.744,77.792 11.152,77.216 C7.84,76.64 5.248,75.92 3.52,74.912 C1.792,73.904 0.928,72.752 0.928,71.456 C0.928,71.024 1.648,68.864 2.944,64.832 C4.24,60.8 4.96,58.784 5.104,58.64 C6.688,57.056 9.136,55.328 12.592,53.6 C16.048,51.872 20.368,50 25.696,48.128 L24.112,38.768 C24.256,38.336 24.688,37.328 25.408,35.888 C26.128,34.448 27.136,32.432 28.288,29.84 C28.72,28.832 29.008,28.832 29.152,29.696 C29.296,30.56 30.88,38.48 33.76,53.456 C34.48,56.768 35.056,59.504 35.632,61.664 C36.208,63.824 36.64,65.552 37.072,66.848 C38.08,69.872 39.376,72.176 40.816,73.76 C41.9143294,74.9681623 43.0964315,75.7574609 44.2984104,76.064 Z M70.768,76.784 C69.76,76.208 68.608,75.344 67.312,74.336 C66.016,73.328 64.576,72.176 62.992,70.88 C63.28,70.448 63.712,70.016 64.288,69.44 C64.864,68.864 65.584,68.288 66.448,67.568 C67.456,66.704 68.464,65.984 69.328,65.552 C70.192,65.12 71.056,64.832 71.776,64.832 C73.504,64.832 75.088,65.264 76.384,66.128 C77.68,66.992 78.832,68.288 79.696,70.016 C80.416,71.312 80.992,72.896 81.28,74.624 C81.568,76.352 81.712,78.08 81.568,79.952 C79.264,79.52 77.248,79.088 75.52,78.512 C73.792,77.936 72.208,77.36 70.912,76.64 L70.768,76.784 Z M9.568,65.84 C9.424,65.696 9.28,65.552 9.136,65.408 C8.992,65.264 8.992,65.12 8.992,64.976 C8.992,63.968 9.856,62.816 11.44,61.664 C13.024,60.512 15.472,59.216 18.64,57.92 L26.992,54.608 C27.712,58.208 28.432,61.232 29.008,63.68 C29.584,66.128 30.016,67.856 30.304,68.864 C24.976,68.72 20.512,68.432 17.056,68 C13.6,67.568 11.152,66.848 9.712,65.84 L9.568,65.84 Z" id="کلمه"/>
                <path d="M51.16,150 L53.056,150 L53.056,141.768 C53.056,140.112 52.912,138.432 52.792,136.848 L52.888,136.848 L54.592,140.088 L60.304,150 L62.368,150 L62.368,134.256 L60.472,134.256 L60.472,142.392 C60.472,144.048 60.616,145.824 60.712,147.408 L60.616,147.408 L58.912,144.144 L53.224,134.256 L51.16,134.256 L51.16,150 Z M71.032,150.288 C73.888,150.288 76.432,148.056 76.432,144.192 C76.432,140.28 73.888,138.048 71.032,138.048 C68.176,138.048 65.632,140.28 65.632,144.192 C65.632,148.056 68.176,150.288 71.032,150.288 L71.032,150.288 Z M71.032,148.656 C69.04,148.656 67.672,146.856 67.672,144.192 C67.672,141.504 69.04,139.68 71.032,139.68 C73.048,139.68 74.392,141.504 74.392,144.192 C74.392,146.856 73.048,148.656 71.032,148.656 L71.032,148.656 Z M79.504,150 L81.472,150 L81.472,142.512 C82.264,140.544 83.44,139.824 84.424,139.824 C84.904,139.824 85.168,139.896 85.552,140.016 L85.936,138.288 C85.552,138.12 85.192,138.048 84.688,138.048 C83.368,138.048 82.168,138.984 81.376,140.448 L81.304,140.448 L81.136,138.336 L79.504,138.336 L79.504,150 Z M87.832,150 L89.8,150 L89.8,141.552 C90.88,140.352 91.864,139.752 92.728,139.752 C94.216,139.752 94.912,140.688 94.912,142.872 L94.912,150 L96.88,150 L96.88,141.552 C97.96,140.352 98.896,139.752 99.808,139.752 C101.272,139.752 101.968,140.688 101.968,142.872 L101.968,150 L103.936,150 L103.936,142.608 C103.936,139.632 102.784,138.048 100.384,138.048 C98.968,138.048 97.768,138.96 96.544,140.28 C96.064,138.888 95.104,138.048 93.328,138.048 C91.936,138.048 90.712,138.912 89.704,140.016 L89.632,140.016 L89.464,138.336 L87.832,138.336 L87.832,150 Z M110.416,150.288 C111.88,150.288 113.176,149.52 114.28,148.608 L114.352,148.608 L114.52,150 L116.152,150 L116.152,142.848 C116.152,139.944 114.952,138.048 112.096,138.048 C110.224,138.048 108.592,138.864 107.512,139.56 L108.28,140.928 C109.192,140.304 110.416,139.68 111.76,139.68 C113.68,139.68 114.16,141.12 114.16,142.608 C109.192,143.16 107.008,144.432 107.008,146.976 C107.008,149.064 108.472,150.288 110.416,150.288 L110.416,150.288 Z M110.992,148.704 C109.84,148.704 108.928,148.152 108.928,146.832 C108.928,145.344 110.272,144.384 114.16,143.904 L114.16,147.144 C113.032,148.152 112.12,148.704 110.992,148.704 L110.992,148.704 Z M121.912,150.288 C122.44,150.288 122.776,150.216 123.04,150.096 L122.776,148.608 C122.56,148.656 122.464,148.656 122.344,148.656 C122.056,148.656 121.792,148.416 121.792,147.792 L121.792,132.912 L119.824,132.912 L119.824,147.648 C119.824,149.352 120.424,150.288 121.912,150.288 L121.912,150.288 Z" id="Normal"/>
            </g>
            <g id="Group-3" transform="translate(239.500000, 1.000000)">
                <path d="M60.8704104,75.312 L63.004,75.312 C64.156,75.312 65.596,74.736 67.324,73.44 C69.052,72.144 71.068,70.272 73.372,67.824 C76.252,64.656 78.7,62.064 80.716,60.192 C82.732,58.32 84.172,57.024 85.18,56.448 C86.188,55.872 87.196,55.44 88.204,55.152 C89.212,54.864 90.364,54.72 91.516,54.72 C92.668,54.72 93.676,54.864 94.396,55.008 C95.116,55.152 95.692,55.44 95.98,55.728 C97.564,57.6 99.148,59.472 100.732,61.344 C102.316,63.216 103.9,65.232 105.484,67.248 C107.644,69.984 109.804,72 111.82,73.296 C113.836,74.592 115.708,75.312 117.58,75.312 L118.3,75.312 L119.02,75.312 C120.028,75.312 121.18,75.168 122.332,74.88 C123.484,74.592 124.636,74.304 125.932,73.872 C127.516,73.44 128.812,72.864 129.676,72.144 C130.54,71.424 130.972,70.704 130.828,69.984 L128.236,25.92 C128.092,23.184 127.948,20.592 127.66,18.144 C127.372,15.696 127.084,13.392 126.796,11.232 C126.796,11.088 127.084,10.656 127.516,9.936 C127.948,9.216 128.668,8.208 129.532,6.912 C129.964,6.192 130.54,5.328 131.116,4.32 C131.692,3.312 132.412,2.16 133.276,0.864 L133.708,0.432 C133.852,0.288 133.996,0.144 134.14,5.68434189e-14 C134.284,0.144 134.428,0.288 134.428,0.576 L134.428,1.728 C135.148,21.456 135.724,36.72 136.3,47.376 C136.876,58.032 137.308,64.08 137.452,65.376 C138.028,68.688 138.892,71.136 140.044,72.864 C141.196,74.592 142.636,75.456 144.508,75.456 L147.82,75.456 L147.811403,75.744 L147.964,75.744 C152.428,75.744 156.46,75.312 160.06,74.448 C163.66,73.584 166.828,72.288 169.564,70.704 C171.004,69.84 172.156,68.976 172.876,68.256 C173.596,67.536 174.028,66.816 174.028,66.096 C174.028,63.648 173.164,61.2 171.436,58.608 C169.708,56.016 166.972,53.424 163.372,50.832 C162.364,50.112 161.068,49.248 159.484,48.24 C157.9,47.232 156.028,46.08 153.868,44.784 C152.284,43.776 151.132,43.056 150.412,42.48 C149.692,41.904 149.26,41.472 149.26,41.184 C149.26,40.464 149.26,39.6 149.404,38.448 C149.548,37.296 149.692,36 149.836,34.416 C149.98,32.544 150.124,31.104 150.268,30.096 C150.412,29.088 150.556,28.512 150.7,28.368 C157.18,23.616 164.236,18.864 172.012,14.256 C179.788,9.648 188.284,5.184 197.356,0.72 C197.932,0.432 198.364,0.288 198.796,0.144 C199.228,5.68434189e-14 199.516,5.68434189e-14 199.66,5.68434189e-14 L199.948,5.68434189e-14 L199.948,0.288 C199.948,0.432 199.804,0.72 199.66,1.008 C199.516,1.296 199.372,1.728 199.228,2.16 L198.94,2.448 C198.508,3.312 197.932,4.608 197.068,6.336 C196.204,8.064 195.196,10.08 193.9,12.528 C185.548,16.704 178.06,20.592 171.436,24.336 C164.812,28.08 159.052,31.68 154.3,35.136 C155.02,35.568 156.028,36.144 157.324,36.864 C158.62,37.584 160.06,38.592 161.788,39.744 C163.948,41.04 165.964,42.48 167.836,43.92 C169.708,45.36 171.436,46.944 173.02,48.672 C174.892,50.832 176.332,52.992 177.196,55.152 C178.06,57.312 178.492,59.328 178.492,61.344 C178.492,64.656 178.348,67.248 178.204,69.264 C178.06,71.28 177.772,72.72 177.34,73.44 C175.036,77.472 171.436,80.496 166.396,82.512 C161.356,84.528 155.02,85.536 147.388,85.536 L144.22,85.536 L144.22,85.104 C141.772,85.104 139.612,84.384 137.884,82.944 C136.156,81.504 134.716,79.344 133.708,76.608 C131.836,79.344 129.676,81.504 127.084,82.944 C124.492,84.384 121.612,85.104 118.444,85.104 L115.708,85.104 L115.708,84.6667155 C114.060514,84.6065321 112.284514,84.0322936 110.38,82.944 C108.364,81.792 106.204,80.064 103.9,77.76 C103.756,78.192 103.324,78.912 102.748,79.92 C102.172,80.928 101.452,82.224 100.588,83.808 C99.58,85.392 98.716,86.688 98.14,87.552 C97.564,88.416 97.132,88.848 96.988,88.848 C95.116,88.848 93.1,88.56 90.94,87.984 C88.78,87.408 86.476,86.4 84.172,85.104 C82.012,83.808 79.996,82.512 78.268,81.072 C76.54,79.632 74.956,78.192 73.66,76.608 C71.788,79.344 70.06,81.504 68.476,82.944 C67.0031858,84.282922 65.5303715,84.9993745 64.1733126,85.0933575 L64.156,85.392 L61.852,85.392 C59.692,85.392 57.82,84.96 56.236,84.24 C54.652,83.52 53.212,82.368 52.06,80.928 C51.196,79.92 50.332,78.624 49.612,76.896 C48.892,75.168 48.172,73.152 47.452,70.704 C46.444,71.856 45.436,73.008 44.428,74.16 C43.42,75.312 42.268,76.464 40.972,77.616 C39.1,77.76 37.084,77.76 34.924,77.616 C32.764,77.472 30.316,77.04 27.724,76.464 C24.412,75.888 21.82,75.168 20.092,74.16 C18.364,73.152 17.5,72 17.5,70.704 C17.5,70.272 18.22,68.112 19.516,64.08 C20.812,60.048 21.532,58.032 21.676,57.888 C23.26,56.304 25.708,54.576 29.164,52.848 C32.62,51.12 36.94,49.248 42.268,47.376 L40.684,38.016 C40.828,37.584 41.26,36.576 41.98,35.136 C42.7,33.696 43.708,31.68 44.86,29.088 C45.292,28.08 45.58,28.08 45.724,28.944 C45.868,29.808 47.452,37.728 50.332,52.704 C51.052,56.016 51.628,58.752 52.204,60.912 C52.78,63.072 53.212,64.8 53.644,66.096 C54.652,69.12 55.948,71.424 57.388,73.008 C58.4863294,74.2161623 59.6684315,75.0054609 60.8704104,75.312 Z M87.34,76.032 C86.332,75.456 85.18,74.592 83.884,73.584 C82.588,72.576 81.148,71.424 79.564,70.128 C79.852,69.696 80.284,69.264 80.86,68.688 C81.436,68.112 82.156,67.536 83.02,66.816 C84.028,65.952 85.036,65.232 85.9,64.8 C86.764,64.368 87.628,64.08 88.348,64.08 C90.076,64.08 91.66,64.512 92.956,65.376 C94.252,66.24 95.404,67.536 96.268,69.264 C96.988,70.56 97.564,72.144 97.852,73.872 C98.14,75.6 98.284,77.328 98.14,79.2 C95.836,78.768 93.82,78.336 92.092,77.76 C90.364,77.184 88.78,76.608 87.484,75.888 L87.34,76.032 Z M26.14,65.088 C25.996,64.944 25.852,64.8 25.708,64.656 C25.564,64.512 25.564,64.368 25.564,64.224 C25.564,63.216 26.428,62.064 28.012,60.912 C29.596,59.76 32.044,58.464 35.212,57.168 L43.564,53.856 C44.284,57.456 45.004,60.48 45.58,62.928 C46.156,65.376 46.588,67.104 46.876,68.112 C41.548,67.968 37.084,67.68 33.628,67.248 C30.172,66.816 27.724,66.096 26.284,65.088 L26.14,65.088 Z" id="کلمه-copy-7" opacity="0.5"/>
                <g id="Group-5-Copy" transform="translate(60.000000, 75.000000)" opacity="0.5">
                    <path d="M0.298410441,0.064 C0.672324611,0.159358825 1.04816231,0.208 1.424,0.208 L4.16,0.208 L3.60131261,9.84535755 C3.49886544,9.85245252 3.39707797,9.856 3.296,9.856 L0.128,9.856 L0.128,0.064 L0.298410441,0.064 Z" id="Combined-Shape"/>
                    <path d="M57.728,0.064 L59.456,0.064 L59.312,9.424 L55.424,9.424 C55.3284404,9.424 55.2324404,9.4222385 55.136,9.41871549 L55.136,0.064 L57.728,0.064 Z" id="Combined-Shape-Copy-2"/>
                    <path d="M83.648,9.856 L86.96,9.856 L87.239403,0.496 L83.648,0.496 L83.648,9.856 Z" id="Combined-Shape-Copy"/>
                </g>
                <path d="M5.424,149 L7.44,149 L7.44,134.936 L12.192,134.936 L12.192,133.256 L0.672,133.256 L0.672,134.936 L5.424,134.936 L5.424,149 Z M13.728,149 L15.696,149 L15.696,141.512 C16.488,139.544 17.664,138.824 18.648,138.824 C19.128,138.824 19.392,138.896 19.776,139.016 L20.16,137.288 C19.776,137.12 19.416,137.048 18.912,137.048 C17.592,137.048 16.392,137.984 15.6,139.448 L15.528,139.448 L15.36,137.336 L13.728,137.336 L13.728,149 Z M24.168,149.288 C25.632,149.288 26.928,148.52 28.032,147.608 L28.104,147.608 L28.272,149 L29.904,149 L29.904,141.848 C29.904,138.944 28.704,137.048 25.848,137.048 C23.976,137.048 22.344,137.864 21.264,138.56 L22.032,139.928 C22.944,139.304 24.168,138.68 25.512,138.68 C27.432,138.68 27.912,140.12 27.912,141.608 C22.944,142.16 20.76,143.432 20.76,145.976 C20.76,148.064 22.224,149.288 24.168,149.288 L24.168,149.288 Z M24.744,147.704 C23.592,147.704 22.68,147.152 22.68,145.832 C22.68,144.344 24.024,143.384 27.912,142.904 L27.912,146.144 C26.784,147.152 25.872,147.704 24.744,147.704 L24.744,147.704 Z M33.576,149 L35.544,149 L35.544,140.552 C36.72,139.376 37.536,138.752 38.736,138.752 C40.272,138.752 40.944,139.688 40.944,141.872 L40.944,149 L42.912,149 L42.912,141.608 C42.912,138.632 41.808,137.048 39.36,137.048 C37.752,137.048 36.552,137.912 35.448,139.016 L35.376,139.016 L35.208,137.336 L33.576,137.336 L33.576,149 Z M49.752,149.288 C52.512,149.288 54.024,147.704 54.024,145.808 C54.024,143.6 52.152,142.904 50.472,142.28 C49.152,141.776 47.88,141.368 47.88,140.264 C47.88,139.376 48.552,138.584 50.016,138.584 C51.048,138.584 51.888,139.016 52.68,139.616 L53.616,138.368 C52.728,137.648 51.456,137.048 49.992,137.048 C47.472,137.048 45.984,138.488 45.984,140.36 C45.984,142.328 47.808,143.12 49.464,143.72 C50.736,144.2 52.128,144.728 52.128,145.928 C52.128,146.936 51.36,147.752 49.824,147.752 C48.432,147.752 47.4,147.176 46.392,146.36 L45.408,147.68 C46.512,148.592 48.096,149.288 49.752,149.288 L49.752,149.288 Z M56.76,153.92 L58.728,153.92 L58.728,149.984 L58.68,147.944 C59.76,148.784 60.84,149.288 61.92,149.288 C64.584,149.288 66.96,146.96 66.96,143 C66.96,139.376 65.352,137.048 62.352,137.048 C60.984,137.048 59.688,137.792 58.632,138.68 L58.56,138.68 L58.392,137.336 L56.76,137.336 L56.76,153.92 Z M61.584,147.632 C60.816,147.632 59.784,147.296 58.728,146.408 L58.728,140.288 C59.88,139.256 60.864,138.704 61.848,138.704 C64.056,138.704 64.92,140.432 64.92,143 C64.92,145.88 63.504,147.632 61.584,147.632 L61.584,147.632 Z M72.432,149.288 C73.896,149.288 75.192,148.52 76.296,147.608 L76.368,147.608 L76.536,149 L78.168,149 L78.168,141.848 C78.168,138.944 76.968,137.048 74.112,137.048 C72.24,137.048 70.608,137.864 69.528,138.56 L70.296,139.928 C71.208,139.304 72.432,138.68 73.776,138.68 C75.696,138.68 76.176,140.12 76.176,141.608 C71.208,142.16 69.024,143.432 69.024,145.976 C69.024,148.064 70.488,149.288 72.432,149.288 L72.432,149.288 Z M73.008,147.704 C71.856,147.704 70.944,147.152 70.944,145.832 C70.944,144.344 72.288,143.384 76.176,142.904 L76.176,146.144 C75.048,147.152 74.136,147.704 73.008,147.704 L73.008,147.704 Z M81.84,149 L83.808,149 L83.808,141.512 C84.6,139.544 85.776,138.824 86.76,138.824 C87.24,138.824 87.504,138.896 87.888,139.016 L88.272,137.288 C87.888,137.12 87.528,137.048 87.024,137.048 C85.704,137.048 84.504,137.984 83.712,139.448 L83.64,139.448 L83.472,137.336 L81.84,137.336 L81.84,149 Z M94.656,149.288 C96.24,149.288 97.488,148.736 98.496,148.088 L97.8,146.792 C96.936,147.344 96,147.704 94.896,147.704 C92.664,147.704 91.152,146.12 91.008,143.648 L98.88,143.648 C98.928,143.36 98.952,142.928 98.952,142.52 C98.952,139.184 97.272,137.048 94.296,137.048 C91.632,137.048 89.064,139.376 89.064,143.192 C89.064,147.008 91.536,149.288 94.656,149.288 L94.656,149.288 Z M90.984,142.232 C91.224,139.928 92.712,138.608 94.344,138.608 C96.168,138.608 97.224,139.88 97.224,142.232 L90.984,142.232 Z M101.832,149 L103.8,149 L103.8,140.552 C104.976,139.376 105.792,138.752 106.992,138.752 C108.528,138.752 109.2,139.688 109.2,141.872 L109.2,149 L111.168,149 L111.168,141.608 C111.168,138.632 110.064,137.048 107.616,137.048 C106.008,137.048 104.808,137.912 103.704,139.016 L103.632,139.016 L103.464,137.336 L101.832,137.336 L101.832,149 Z M118.632,149.288 C119.352,149.288 120.144,149.072 120.792,148.856 L120.408,147.368 C120.024,147.512 119.496,147.68 119.088,147.68 C117.744,147.68 117.288,146.864 117.288,145.424 L117.288,138.944 L120.432,138.944 L120.432,137.336 L117.288,137.336 L117.288,134.072 L115.632,134.072 L115.392,137.336 L113.568,137.456 L113.568,138.944 L115.296,138.944 L115.296,145.4 C115.296,147.704 116.136,149.288 118.632,149.288 L118.632,149.288 Z M131.04,153.224 L132.264,152.648 C130.416,149.6 129.504,145.976 129.504,142.328 C129.504,138.68 130.416,135.056 132.264,132.008 L131.04,131.432 C129.048,134.648 127.872,138.104 127.872,142.328 C127.872,146.552 129.048,150.008 131.04,153.224 L131.04,153.224 Z M136.992,149 L139.296,149 L140.928,142.76 C141.24,141.656 141.48,140.552 141.744,139.376 L141.84,139.376 C142.128,140.552 142.344,141.632 142.632,142.736 L144.312,149 L146.712,149 L149.832,137.336 L147.96,137.336 L146.256,144.08 C146.016,145.184 145.8,146.24 145.536,147.32 L145.44,147.32 C145.176,146.24 144.912,145.184 144.624,144.08 L142.8,137.336 L140.88,137.336 L139.08,144.08 C138.792,145.16 138.552,146.24 138.288,147.32 L138.192,147.32 C137.976,146.24 137.76,145.184 137.496,144.08 L135.768,137.336 L133.752,137.336 L136.992,149 Z M152.376,149 L154.344,149 L154.344,141.512 C155.136,139.544 156.312,138.824 157.296,138.824 C157.776,138.824 158.04,138.896 158.424,139.016 L158.808,137.288 C158.424,137.12 158.064,137.048 157.56,137.048 C156.24,137.048 155.04,137.984 154.248,139.448 L154.176,139.448 L154.008,137.336 L152.376,137.336 L152.376,149 Z M165,149.288 C167.856,149.288 170.4,147.056 170.4,143.192 C170.4,139.28 167.856,137.048 165,137.048 C162.144,137.048 159.6,139.28 159.6,143.192 C159.6,147.056 162.144,149.288 165,149.288 L165,149.288 Z M165,147.656 C163.008,147.656 161.64,145.856 161.64,143.192 C161.64,140.504 163.008,138.68 165,138.68 C167.016,138.68 168.36,140.504 168.36,143.192 C168.36,145.856 167.016,147.656 165,147.656 L165,147.656 Z M173.472,149 L175.44,149 L175.44,140.552 C176.616,139.376 177.432,138.752 178.632,138.752 C180.168,138.752 180.84,139.688 180.84,141.872 L180.84,149 L182.808,149 L182.808,141.608 C182.808,138.632 181.704,137.048 179.256,137.048 C177.648,137.048 176.448,137.912 175.344,139.016 L175.272,139.016 L175.104,137.336 L173.472,137.336 L173.472,149 Z M190.536,154.376 C194.16,154.376 196.44,152.504 196.44,150.344 C196.44,148.4 195.072,147.56 192.36,147.56 L190.104,147.56 C188.52,147.56 188.04,147.032 188.04,146.288 C188.04,145.64 188.376,145.256 188.784,144.896 C189.312,145.16 189.96,145.304 190.536,145.304 C192.912,145.304 194.808,143.744 194.808,141.248 C194.808,140.264 194.4,139.376 193.848,138.848 L196.248,138.848 L196.248,137.336 L192.192,137.336 C191.76,137.168 191.184,137.048 190.536,137.048 C188.16,137.048 186.144,138.656 186.144,141.2 C186.144,142.592 186.888,143.72 187.656,144.344 L187.656,144.44 C187.056,144.848 186.384,145.616 186.384,146.6 C186.384,147.512 186.84,148.136 187.416,148.496 L187.416,148.592 C186.36,149.312 185.712,150.248 185.712,151.232 C185.712,153.248 187.68,154.376 190.536,154.376 L190.536,154.376 Z M190.536,143.984 C189.192,143.984 188.064,142.904 188.064,141.2 C188.064,139.496 189.168,138.488 190.536,138.488 C191.904,138.488 193.008,139.496 193.008,141.2 C193.008,142.904 191.88,143.984 190.536,143.984 L190.536,143.984 Z M190.824,153.008 C188.712,153.008 187.44,152.216 187.44,150.968 C187.44,150.296 187.8,149.6 188.64,149 C189.144,149.144 189.696,149.192 190.152,149.192 L192.168,149.192 C193.68,149.192 194.52,149.552 194.52,150.632 C194.52,151.856 193.056,153.008 190.824,153.008 L190.824,153.008 Z M199.2,153.224 C201.192,150.008 202.368,146.552 202.368,142.328 C202.368,138.104 201.192,134.648 199.2,131.432 L197.976,132.008 C199.824,135.056 200.736,138.68 200.736,142.328 C200.736,145.976 199.824,149.6 197.976,152.648 L199.2,153.224 Z" id="Transparent-(wrong)"/>
            </g>
            <g id="Group-4" transform="translate(503.000000, 1.000000)">
                <path d="M5.424,149 L7.44,149 L7.44,134.936 L12.192,134.936 L12.192,133.256 L0.672,133.256 L0.672,134.936 L5.424,134.936 L5.424,149 Z M13.728,149 L15.696,149 L15.696,141.512 C16.488,139.544 17.664,138.824 18.648,138.824 C19.128,138.824 19.392,138.896 19.776,139.016 L20.16,137.288 C19.776,137.12 19.416,137.048 18.912,137.048 C17.592,137.048 16.392,137.984 15.6,139.448 L15.528,139.448 L15.36,137.336 L13.728,137.336 L13.728,149 Z M24.168,149.288 C25.632,149.288 26.928,148.52 28.032,147.608 L28.104,147.608 L28.272,149 L29.904,149 L29.904,141.848 C29.904,138.944 28.704,137.048 25.848,137.048 C23.976,137.048 22.344,137.864 21.264,138.56 L22.032,139.928 C22.944,139.304 24.168,138.68 25.512,138.68 C27.432,138.68 27.912,140.12 27.912,141.608 C22.944,142.16 20.76,143.432 20.76,145.976 C20.76,148.064 22.224,149.288 24.168,149.288 L24.168,149.288 Z M24.744,147.704 C23.592,147.704 22.68,147.152 22.68,145.832 C22.68,144.344 24.024,143.384 27.912,142.904 L27.912,146.144 C26.784,147.152 25.872,147.704 24.744,147.704 L24.744,147.704 Z M33.576,149 L35.544,149 L35.544,140.552 C36.72,139.376 37.536,138.752 38.736,138.752 C40.272,138.752 40.944,139.688 40.944,141.872 L40.944,149 L42.912,149 L42.912,141.608 C42.912,138.632 41.808,137.048 39.36,137.048 C37.752,137.048 36.552,137.912 35.448,139.016 L35.376,139.016 L35.208,137.336 L33.576,137.336 L33.576,149 Z M49.752,149.288 C52.512,149.288 54.024,147.704 54.024,145.808 C54.024,143.6 52.152,142.904 50.472,142.28 C49.152,141.776 47.88,141.368 47.88,140.264 C47.88,139.376 48.552,138.584 50.016,138.584 C51.048,138.584 51.888,139.016 52.68,139.616 L53.616,138.368 C52.728,137.648 51.456,137.048 49.992,137.048 C47.472,137.048 45.984,138.488 45.984,140.36 C45.984,142.328 47.808,143.12 49.464,143.72 C50.736,144.2 52.128,144.728 52.128,145.928 C52.128,146.936 51.36,147.752 49.824,147.752 C48.432,147.752 47.4,147.176 46.392,146.36 L45.408,147.68 C46.512,148.592 48.096,149.288 49.752,149.288 L49.752,149.288 Z M56.76,153.92 L58.728,153.92 L58.728,149.984 L58.68,147.944 C59.76,148.784 60.84,149.288 61.92,149.288 C64.584,149.288 66.96,146.96 66.96,143 C66.96,139.376 65.352,137.048 62.352,137.048 C60.984,137.048 59.688,137.792 58.632,138.68 L58.56,138.68 L58.392,137.336 L56.76,137.336 L56.76,153.92 Z M61.584,147.632 C60.816,147.632 59.784,147.296 58.728,146.408 L58.728,140.288 C59.88,139.256 60.864,138.704 61.848,138.704 C64.056,138.704 64.92,140.432 64.92,143 C64.92,145.88 63.504,147.632 61.584,147.632 L61.584,147.632 Z M72.432,149.288 C73.896,149.288 75.192,148.52 76.296,147.608 L76.368,147.608 L76.536,149 L78.168,149 L78.168,141.848 C78.168,138.944 76.968,137.048 74.112,137.048 C72.24,137.048 70.608,137.864 69.528,138.56 L70.296,139.928 C71.208,139.304 72.432,138.68 73.776,138.68 C75.696,138.68 76.176,140.12 76.176,141.608 C71.208,142.16 69.024,143.432 69.024,145.976 C69.024,148.064 70.488,149.288 72.432,149.288 L72.432,149.288 Z M73.008,147.704 C71.856,147.704 70.944,147.152 70.944,145.832 C70.944,144.344 72.288,143.384 76.176,142.904 L76.176,146.144 C75.048,147.152 74.136,147.704 73.008,147.704 L73.008,147.704 Z M81.84,149 L83.808,149 L83.808,141.512 C84.6,139.544 85.776,138.824 86.76,138.824 C87.24,138.824 87.504,138.896 87.888,139.016 L88.272,137.288 C87.888,137.12 87.528,137.048 87.024,137.048 C85.704,137.048 84.504,137.984 83.712,139.448 L83.64,139.448 L83.472,137.336 L81.84,137.336 L81.84,149 Z M94.656,149.288 C96.24,149.288 97.488,148.736 98.496,148.088 L97.8,146.792 C96.936,147.344 96,147.704 94.896,147.704 C92.664,147.704 91.152,146.12 91.008,143.648 L98.88,143.648 C98.928,143.36 98.952,142.928 98.952,142.52 C98.952,139.184 97.272,137.048 94.296,137.048 C91.632,137.048 89.064,139.376 89.064,143.192 C89.064,147.008 91.536,149.288 94.656,149.288 L94.656,149.288 Z M90.984,142.232 C91.224,139.928 92.712,138.608 94.344,138.608 C96.168,138.608 97.224,139.88 97.224,142.232 L90.984,142.232 Z M101.832,149 L103.8,149 L103.8,140.552 C104.976,139.376 105.792,138.752 106.992,138.752 C108.528,138.752 109.2,139.688 109.2,141.872 L109.2,149 L111.168,149 L111.168,141.608 C111.168,138.632 110.064,137.048 107.616,137.048 C106.008,137.048 104.808,137.912 103.704,139.016 L103.632,139.016 L103.464,137.336 L101.832,137.336 L101.832,149 Z M118.632,149.288 C119.352,149.288 120.144,149.072 120.792,148.856 L120.408,147.368 C120.024,147.512 119.496,147.68 119.088,147.68 C117.744,147.68 117.288,146.864 117.288,145.424 L117.288,138.944 L120.432,138.944 L120.432,137.336 L117.288,137.336 L117.288,134.072 L115.632,134.072 L115.392,137.336 L113.568,137.456 L113.568,138.944 L115.296,138.944 L115.296,145.4 C115.296,147.704 116.136,149.288 118.632,149.288 L118.632,149.288 Z M131.04,153.224 L132.264,152.648 C130.416,149.6 129.504,145.976 129.504,142.328 C129.504,138.68 130.416,135.056 132.264,132.008 L131.04,131.432 C129.048,134.648 127.872,138.104 127.872,142.328 C127.872,146.552 129.048,150.008 131.04,153.224 L131.04,153.224 Z M139.752,149.288 C141.144,149.288 142.464,148.736 143.52,147.8 L142.656,146.48 C141.936,147.128 141,147.656 139.92,147.656 C137.784,147.656 136.32,145.856 136.32,143.192 C136.32,140.504 137.856,138.68 139.968,138.68 C140.904,138.68 141.624,139.112 142.296,139.712 L143.304,138.416 C142.488,137.672 141.432,137.048 139.896,137.048 C136.896,137.048 134.28,139.28 134.28,143.192 C134.28,147.056 136.656,149.288 139.752,149.288 L139.752,149.288 Z M150.12,149.288 C152.976,149.288 155.52,147.056 155.52,143.192 C155.52,139.28 152.976,137.048 150.12,137.048 C147.264,137.048 144.72,139.28 144.72,143.192 C144.72,147.056 147.264,149.288 150.12,149.288 L150.12,149.288 Z M150.12,147.656 C148.128,147.656 146.76,145.856 146.76,143.192 C146.76,140.504 148.128,138.68 150.12,138.68 C152.136,138.68 153.48,140.504 153.48,143.192 C153.48,145.856 152.136,147.656 150.12,147.656 L150.12,147.656 Z M158.592,149 L160.56,149 L160.56,141.512 C161.352,139.544 162.528,138.824 163.512,138.824 C163.992,138.824 164.256,138.896 164.64,139.016 L165.024,137.288 C164.64,137.12 164.28,137.048 163.776,137.048 C162.456,137.048 161.256,137.984 160.464,139.448 L160.392,139.448 L160.224,137.336 L158.592,137.336 L158.592,149 Z M166.92,149 L168.888,149 L168.888,141.512 C169.68,139.544 170.856,138.824 171.84,138.824 C172.32,138.824 172.584,138.896 172.968,139.016 L173.352,137.288 C172.968,137.12 172.608,137.048 172.104,137.048 C170.784,137.048 169.584,137.984 168.792,139.448 L168.72,139.448 L168.552,137.336 L166.92,137.336 L166.92,149 Z M179.736,149.288 C181.32,149.288 182.568,148.736 183.576,148.088 L182.88,146.792 C182.016,147.344 181.08,147.704 179.976,147.704 C177.744,147.704 176.232,146.12 176.088,143.648 L183.96,143.648 C184.008,143.36 184.032,142.928 184.032,142.52 C184.032,139.184 182.352,137.048 179.376,137.048 C176.712,137.048 174.144,139.376 174.144,143.192 C174.144,147.008 176.616,149.288 179.736,149.288 L179.736,149.288 Z M176.064,142.232 C176.304,139.928 177.792,138.608 179.424,138.608 C181.248,138.608 182.304,139.88 182.304,142.232 L176.064,142.232 Z M191.52,149.288 C192.912,149.288 194.232,148.736 195.288,147.8 L194.424,146.48 C193.704,147.128 192.768,147.656 191.688,147.656 C189.552,147.656 188.088,145.856 188.088,143.192 C188.088,140.504 189.624,138.68 191.736,138.68 C192.672,138.68 193.392,139.112 194.064,139.712 L195.072,138.416 C194.256,137.672 193.2,137.048 191.664,137.048 C188.664,137.048 186.048,139.28 186.048,143.192 C186.048,147.056 188.424,149.288 191.52,149.288 L191.52,149.288 Z M201.288,149.288 C202.008,149.288 202.8,149.072 203.448,148.856 L203.064,147.368 C202.68,147.512 202.152,147.68 201.744,147.68 C200.4,147.68 199.944,146.864 199.944,145.424 L199.944,138.944 L203.088,138.944 L203.088,137.336 L199.944,137.336 L199.944,134.072 L198.288,134.072 L198.048,137.336 L196.224,137.456 L196.224,138.944 L197.952,138.944 L197.952,145.4 C197.952,147.704 198.792,149.288 201.288,149.288 L201.288,149.288 Z M205.896,153.224 C207.888,150.008 209.064,146.552 209.064,142.328 C209.064,138.104 207.888,134.648 205.896,131.432 L204.672,132.008 C206.52,135.056 207.432,138.68 207.432,142.328 C207.432,145.976 206.52,149.6 204.672,152.648 L205.896,153.224 Z" id="Transparent-(correct"/>
                <path d="M58.3704104,75.312 L60.504,75.312 C61.656,75.312 63.096,74.736 64.824,73.44 C66.552,72.144 68.568,70.272 70.872,67.824 C73.752,64.656 76.2,62.064 78.216,60.192 C80.232,58.32 81.672,57.024 82.68,56.448 C83.688,55.872 84.696,55.44 85.704,55.152 C86.712,54.864 87.864,54.72 89.016,54.72 C90.168,54.72 91.176,54.864 91.896,55.008 C92.616,55.152 93.192,55.44 93.48,55.728 C95.064,57.6 96.648,59.472 98.232,61.344 C99.816,63.216 101.4,65.232 102.984,67.248 C105.144,69.984 107.304,72 109.32,73.296 C111.336,74.592 113.208,75.312 115.08,75.312 L115.8,75.312 L116.52,75.312 C117.528,75.312 118.68,75.168 119.832,74.88 C120.984,74.592 122.136,74.304 123.432,73.872 C125.016,73.44 126.312,72.864 127.176,72.144 C128.04,71.424 128.472,70.704 128.328,69.984 L125.736,25.92 C125.592,23.184 125.448,20.592 125.16,18.144 C124.872,15.696 124.584,13.392 124.296,11.232 C124.296,11.088 124.584,10.656 125.016,9.936 C125.448,9.216 126.168,8.208 127.032,6.912 C127.464,6.192 128.04,5.328 128.616,4.32 C129.192,3.312 129.912,2.16 130.776,0.864 L131.208,0.432 C131.352,0.288 131.496,0.144 131.64,5.68434189e-14 C131.784,0.144 131.928,0.288 131.928,0.576 L131.928,1.728 C132.648,21.456 133.224,36.72 133.8,47.376 C134.376,58.032 134.808,64.08 134.952,65.376 C135.528,68.688 136.392,71.136 137.544,72.864 C138.696,74.592 140.136,75.456 142.008,75.456 L145.32,75.456 L145.311403,75.744 L145.464,75.744 C149.928,75.744 153.96,75.312 157.56,74.448 C161.16,73.584 164.328,72.288 167.064,70.704 C168.504,69.84 169.656,68.976 170.376,68.256 C171.096,67.536 171.528,66.816 171.528,66.096 C171.528,63.648 170.664,61.2 168.936,58.608 C167.208,56.016 164.472,53.424 160.872,50.832 C159.864,50.112 158.568,49.248 156.984,48.24 C155.4,47.232 153.528,46.08 151.368,44.784 C149.784,43.776 148.632,43.056 147.912,42.48 C147.192,41.904 146.76,41.472 146.76,41.184 C146.76,40.464 146.76,39.6 146.904,38.448 C147.048,37.296 147.192,36 147.336,34.416 C147.48,32.544 147.624,31.104 147.768,30.096 C147.912,29.088 148.056,28.512 148.2,28.368 C154.68,23.616 161.736,18.864 169.512,14.256 C177.288,9.648 185.784,5.184 194.856,0.72 C195.432,0.432 195.864,0.288 196.296,0.144 C196.728,5.68434189e-14 197.016,5.68434189e-14 197.16,5.68434189e-14 L197.448,5.68434189e-14 L197.448,0.288 C197.448,0.432 197.304,0.72 197.16,1.008 C197.016,1.296 196.872,1.728 196.728,2.16 L196.44,2.448 C196.008,3.312 195.432,4.608 194.568,6.336 C193.704,8.064 192.696,10.08 191.4,12.528 C183.048,16.704 175.56,20.592 168.936,24.336 C162.312,28.08 156.552,31.68 151.8,35.136 C152.52,35.568 153.528,36.144 154.824,36.864 C156.12,37.584 157.56,38.592 159.288,39.744 C161.448,41.04 163.464,42.48 165.336,43.92 C167.208,45.36 168.936,46.944 170.52,48.672 C172.392,50.832 173.832,52.992 174.696,55.152 C175.56,57.312 175.992,59.328 175.992,61.344 C175.992,64.656 175.848,67.248 175.704,69.264 C175.56,71.28 175.272,72.72 174.84,73.44 C172.536,77.472 168.936,80.496 163.896,82.512 C158.856,84.528 152.52,85.536 144.888,85.536 L141.72,85.536 L141.72,85.104 C139.272,85.104 137.112,84.384 135.384,82.944 C133.656,81.504 132.216,79.344 131.208,76.608 C129.336,79.344 127.176,81.504 124.584,82.944 C121.992,84.384 119.112,85.104 115.944,85.104 L113.208,85.104 L113.208,84.6667155 C111.560514,84.6065321 109.784514,84.0322936 107.88,82.944 C105.864,81.792 103.704,80.064 101.4,77.76 C101.256,78.192 100.824,78.912 100.248,79.92 C99.672,80.928 98.952,82.224 98.088,83.808 C97.08,85.392 96.216,86.688 95.64,87.552 C95.064,88.416 94.632,88.848 94.488,88.848 C92.616,88.848 90.6,88.56 88.44,87.984 C86.28,87.408 83.976,86.4 81.672,85.104 C79.512,83.808 77.496,82.512 75.768,81.072 C74.04,79.632 72.456,78.192 71.16,76.608 C69.288,79.344 67.56,81.504 65.976,82.944 C64.5031858,84.282922 63.0303715,84.9993745 61.6733126,85.0933575 L61.656,85.392 L59.352,85.392 C57.192,85.392 55.32,84.96 53.736,84.24 C52.152,83.52 50.712,82.368 49.56,80.928 C48.696,79.92 47.832,78.624 47.112,76.896 C46.392,75.168 45.672,73.152 44.952,70.704 C43.944,71.856 42.936,73.008 41.928,74.16 C40.92,75.312 39.768,76.464 38.472,77.616 C36.6,77.76 34.584,77.76 32.424,77.616 C30.264,77.472 27.816,77.04 25.224,76.464 C21.912,75.888 19.32,75.168 17.592,74.16 C15.864,73.152 15,72 15,70.704 C15,70.272 15.72,68.112 17.016,64.08 C18.312,60.048 19.032,58.032 19.176,57.888 C20.76,56.304 23.208,54.576 26.664,52.848 C30.12,51.12 34.44,49.248 39.768,47.376 L38.184,38.016 C38.328,37.584 38.76,36.576 39.48,35.136 C40.2,33.696 41.208,31.68 42.36,29.088 C42.792,28.08 43.08,28.08 43.224,28.944 C43.368,29.808 44.952,37.728 47.832,52.704 C48.552,56.016 49.128,58.752 49.704,60.912 C50.28,63.072 50.712,64.8 51.144,66.096 C52.152,69.12 53.448,71.424 54.888,73.008 C55.9863294,74.2161623 57.1684315,75.0054609 58.3704104,75.312 Z M84.84,76.032 C83.832,75.456 82.68,74.592 81.384,73.584 C80.088,72.576 78.648,71.424 77.064,70.128 C77.352,69.696 77.784,69.264 78.36,68.688 C78.936,68.112 79.656,67.536 80.52,66.816 C81.528,65.952 82.536,65.232 83.4,64.8 C84.264,64.368 85.128,64.08 85.848,64.08 C87.576,64.08 89.16,64.512 90.456,65.376 C91.752,66.24 92.904,67.536 93.768,69.264 C94.488,70.56 95.064,72.144 95.352,73.872 C95.64,75.6 95.784,77.328 95.64,79.2 C93.336,78.768 91.32,78.336 89.592,77.76 C87.864,77.184 86.28,76.608 84.984,75.888 L84.84,76.032 Z M23.64,65.088 C23.496,64.944 23.352,64.8 23.208,64.656 C23.064,64.512 23.064,64.368 23.064,64.224 C23.064,63.216 23.928,62.064 25.512,60.912 C27.096,59.76 29.544,58.464 32.712,57.168 L41.064,53.856 C41.784,57.456 42.504,60.48 43.08,62.928 C43.656,65.376 44.088,67.104 44.376,68.112 C39.048,67.968 34.584,67.68 31.128,67.248 C27.672,66.816 25.224,66.096 23.784,65.088 L23.64,65.088 Z" id="کلمه-copy-4" opacity="0.5"/>
            </g>
        </g>
    </g>
</svg>