<svg xmlns="http://www.w3.org/2000/svg" viewBox="-4 -4 140 30">
    <desc>Show a gradient from sRGB blue,
in JzCzHz,
as Chroma is reduced from the max value (0.156) to near-zero
demonstrating less purpling mid-way compared to LCH.
1.1 is an egregious hack to avoid limited subpixel precision compositing artifacts
</desc>
<rect width="1.1" height="10" x="131.38422382518738" fill="rgb(0% 0% 100%)" />
<rect width="1.1" height="10" x="130.38422382518738" fill="rgb(0% 0% 100%)" />
<rect width="1.1" height="10" x="129.38422382518738" fill="rgb(0.063% 2.514% 99.529%)" />
<rect width="1.1" height="10" x="128.38422382518738" fill="rgb(0.142% 4.926% 99.058%)" />
<rect width="1.1" height="10" x="127.38422382518738" fill="rgb(0.237% 6.816% 98.588%)" />
<rect width="1.1" height="10" x="126.38422382518738" fill="rgb(0.348% 8.352% 98.119%)" />
<rect width="1.1" height="10" x="125.38422382518738" fill="rgb(0.475% 9.665% 97.65%)" />
<rect width="1.1" height="10" x="124.38422382518738" fill="rgb(0.617% 10.823% 97.183%)" />
<rect width="1.1" height="10" x="123.38422382518738" fill="rgb(0.775% 11.865% 96.715%)" />
<rect width="1.1" height="10" x="122.38422382518738" fill="rgb(0.948% 12.814% 96.249%)" />
<rect width="1.1" height="10" x="121.38422382518738" fill="rgb(1.137% 13.69% 95.783%)" />
<rect width="1.1" height="10" x="120.38422382518738" fill="rgb(1.34% 14.503% 95.318%)" />
<rect width="1.1" height="10" x="119.38422382518738" fill="rgb(1.559% 15.264% 94.854%)" />
<rect width="1.1" height="10" x="118.38422382518738" fill="rgb(1.793% 15.979% 94.39%)" />
<rect width="1.1" height="10" x="117.38422382518738" fill="rgb(2.042% 16.654% 93.927%)" />
<rect width="1.1" height="10" x="116.38422382518738" fill="rgb(2.306% 17.294% 93.465%)" />
<rect width="1.1" height="10" x="115.38422382518738" fill="rgb(2.584% 17.902% 93.003%)" />
<rect width="1.1" height="10" x="114.38422382518738" fill="rgb(2.877% 18.482% 92.542%)" />
<rect width="1.1" height="10" x="113.38422382518738" fill="rgb(3.185% 19.036% 92.081%)" />
<rect width="1.1" height="10" x="112.38422382518738" fill="rgb(3.507% 19.566% 91.621%)" />
<rect width="1.1" height="10" x="111.38422382518738" fill="rgb(3.844% 20.075% 91.162%)" />
<rect width="1.1" height="10" x="110.38422382518738" fill="rgb(4.191% 20.564% 90.704%)" />
<rect width="1.1" height="10" x="109.38422382518738" fill="rgb(4.534% 21.035% 90.246%)" />
<rect width="1.1" height="10" x="108.38422382518738" fill="rgb(4.874% 21.488% 89.788%)" />
<rect width="1.1" height="10" x="107.38422382518738" fill="rgb(5.21% 21.926% 89.332%)" />
<rect width="1.1" height="10" x="106.38422382518738" fill="rgb(5.544% 22.348% 88.876%)" />
<rect width="1.1" height="10" x="105.38422382518738" fill="rgb(5.875% 22.756% 88.42%)" />
<rect width="1.1" height="10" x="104.38422382518738" fill="rgb(6.203% 23.151% 87.965%)" />
<rect width="1.1" height="10" x="103.38422382518738" fill="rgb(6.528% 23.534% 87.511%)" />
<rect width="1.1" height="10" x="102.38422382518738" fill="rgb(6.851% 23.905% 87.057%)" />
<rect width="1.1" height="10" x="101.38422382518738" fill="rgb(7.172% 24.264% 86.604%)" />
<rect width="1.1" height="10" x="100.38422382518738" fill="rgb(7.49% 24.613% 86.152%)" />
<rect width="1.1" height="10" x="99.38422382518738" fill="rgb(7.806% 24.952% 85.7%)" />
<rect width="1.1" height="10" x="98.38422382518738" fill="rgb(8.119% 25.281% 85.249%)" />
<rect width="1.1" height="10" x="97.38422382518738" fill="rgb(8.431% 25.6% 84.798%)" />
<rect width="1.1" height="10" x="96.38422382518738" fill="rgb(8.74% 25.911% 84.348%)" />
<rect width="1.1" height="10" x="95.38422382518738" fill="rgb(9.048% 26.213% 83.898%)" />
<rect width="1.1" height="10" x="94.38422382518738" fill="rgb(9.353% 26.508% 83.449%)" />
<rect width="1.1" height="10" x="93.38422382518738" fill="rgb(9.657% 26.794% 83.001%)" />
<rect width="1.1" height="10" x="92.38422382518738" fill="rgb(9.959% 27.073% 82.553%)" />
<rect width="1.1" height="10" x="91.38422382518738" fill="rgb(10.258% 27.345% 82.106%)" />
<rect width="1.1" height="10" x="90.38422382518738" fill="rgb(10.557% 27.609% 81.659%)" />
<rect width="1.1" height="10" x="89.38422382518738" fill="rgb(10.853% 27.867% 81.212%)" />
<rect width="1.1" height="10" x="88.38422382518738" fill="rgb(11.148% 28.119% 80.767%)" />
<rect width="1.1" height="10" x="87.38422382518738" fill="rgb(11.441% 28.364% 80.321%)" />
<rect width="1.1" height="10" x="86.38422382518738" fill="rgb(11.732% 28.603% 79.877%)" />
<rect width="1.1" height="10" x="85.38422382518738" fill="rgb(12.022% 28.836% 79.432%)" />
<rect width="1.1" height="10" x="84.38422382518738" fill="rgb(12.31% 29.064% 78.989%)" />
<rect width="1.1" height="10" x="83.38422382518738" fill="rgb(12.597% 29.286% 78.545%)" />
<rect width="1.1" height="10" x="82.38422382518738" fill="rgb(12.883% 29.503% 78.103%)" />
<rect width="1.1" height="10" x="81.38422382518738" fill="rgb(13.166% 29.714% 77.66%)" />
<rect width="1.1" height="10" x="80.38422382518738" fill="rgb(13.449% 29.921% 77.218%)" />
<rect width="1.1" height="10" x="79.38422382518738" fill="rgb(13.73% 30.122% 76.777%)" />
<rect width="1.1" height="10" x="78.38422382518738" fill="rgb(14.009% 30.319% 76.336%)" />
<rect width="1.1" height="10" x="77.38422382518738" fill="rgb(14.288% 30.511% 75.896%)" />
<rect width="1.1" height="10" x="76.38422382518738" fill="rgb(14.565% 30.699% 75.456%)" />
<rect width="1.1" height="10" x="75.38422382518738" fill="rgb(14.84% 30.882% 75.016%)" />
<rect width="1.1" height="10" x="74.38422382518738" fill="rgb(15.115% 31.06% 74.577%)" />
<rect width="1.1" height="10" x="73.38422382518738" fill="rgb(15.388% 31.235% 74.139%)" />
<rect width="1.1" height="10" x="72.38422382518738" fill="rgb(15.659% 31.405% 73.7%)" />
<rect width="1.1" height="10" x="71.38422382518738" fill="rgb(15.93% 31.572% 73.263%)" />
<rect width="1.1" height="10" x="70.38422382518738" fill="rgb(16.199% 31.735% 72.825%)" />
<rect width="1.1" height="10" x="69.38422382518738" fill="rgb(16.467% 31.893% 72.388%)" />
<rect width="1.1" height="10" x="68.38422382518738" fill="rgb(16.734% 32.048% 71.952%)" />
<rect width="1.1" height="10" x="67.38422382518738" fill="rgb(17% 32.2% 71.515%)" />
<rect width="1.1" height="10" x="66.38422382518738" fill="rgb(17.265% 32.347% 71.08%)" />
<rect width="1.1" height="10" x="65.38422382518738" fill="rgb(17.528% 32.491% 70.644%)" />
<rect width="1.1" height="10" x="64.38422382518738" fill="rgb(17.791% 32.632% 70.209%)" />
<rect width="1.1" height="10" x="63.38422382518738" fill="rgb(18.052% 32.77% 69.774%)" />
<rect width="1.1" height="10" x="62.38422382518738" fill="rgb(18.312% 32.904% 69.34%)" />
<rect width="1.1" height="10" x="61.38422382518738" fill="rgb(18.571% 33.035% 68.906%)" />
<rect width="1.1" height="10" x="60.38422382518738" fill="rgb(18.829% 33.162% 68.472%)" />
<rect width="1.1" height="10" x="59.38422382518738" fill="rgb(19.086% 33.287% 68.039%)" />
<rect width="1.1" height="10" x="58.38422382518738" fill="rgb(19.342% 33.408% 67.606%)" />
<rect width="1.1" height="10" x="57.38422382518738" fill="rgb(19.597% 33.527% 67.173%)" />
<rect width="1.1" height="10" x="56.38422382518738" fill="rgb(19.851% 33.642% 66.74%)" />
<rect width="1.1" height="10" x="55.38422382518738" fill="rgb(20.104% 33.755% 66.308%)" />
<rect width="1.1" height="10" x="54.38422382518738" fill="rgb(20.356% 33.865% 65.876%)" />
<rect width="1.1" height="10" x="53.38422382518738" fill="rgb(20.607% 33.972% 65.444%)" />
<rect width="1.1" height="10" x="52.38422382518738" fill="rgb(20.857% 34.076% 65.013%)" />
<rect width="1.1" height="10" x="51.38422382518738" fill="rgb(21.106% 34.178% 64.582%)" />
<rect width="1.1" height="10" x="50.38422382518738" fill="rgb(21.354% 34.277% 64.151%)" />
<rect width="1.1" height="10" x="49.38422382518738" fill="rgb(21.602% 34.373% 63.72%)" />
<rect width="1.1" height="10" x="48.38422382518738" fill="rgb(21.848% 34.467% 63.289%)" />
<rect width="1.1" height="10" x="47.38422382518738" fill="rgb(22.093% 34.558% 62.859%)" />
<rect width="1.1" height="10" x="46.38422382518738" fill="rgb(22.338% 34.646% 62.429%)" />
<rect width="1.1" height="10" x="45.38422382518738" fill="rgb(22.581% 34.733% 61.999%)" />
<rect width="1.1" height="10" x="44.38422382518738" fill="rgb(22.824% 34.816% 61.569%)" />
<rect width="1.1" height="10" x="43.38422382518738" fill="rgb(23.066% 34.898% 61.139%)" />
<rect width="1.1" height="10" x="42.38422382518738" fill="rgb(23.306% 34.977% 60.71%)" />
<rect width="1.1" height="10" x="41.38422382518738" fill="rgb(23.546% 35.053% 60.28%)" />
<rect width="1.1" height="10" x="40.38422382518738" fill="rgb(23.786% 35.128% 59.851%)" />
<rect width="1.1" height="10" x="39.38422382518738" fill="rgb(24.024% 35.2% 59.422%)" />
<rect width="1.1" height="10" x="38.38422382518738" fill="rgb(24.261% 35.27% 58.993%)" />
<rect width="1.1" height="10" x="37.38422382518738" fill="rgb(24.498% 35.337% 58.564%)" />
<rect width="1.1" height="10" x="36.38422382518738" fill="rgb(24.734% 35.403% 58.135%)" />
<rect width="1.1" height="10" x="35.38422382518738" fill="rgb(24.969% 35.466% 57.706%)" />
<rect width="1.1" height="10" x="34.38422382518738" fill="rgb(25.203% 35.528% 57.277%)" />
<rect width="1.1" height="10" x="33.38422382518738" fill="rgb(25.437% 35.587% 56.848%)" />
<rect width="1.1" height="10" x="32.38422382518738" fill="rgb(25.669% 35.644% 56.419%)" />
<rect width="1.1" height="10" x="31.384223825187377" fill="rgb(25.901% 35.699% 55.99%)" />
<rect width="1.1" height="10" x="30.384223825187377" fill="rgb(26.132% 35.752% 55.561%)" />
<rect width="1.1" height="10" x="29.384223825187377" fill="rgb(26.362% 35.803% 55.131%)" />
<rect width="1.1" height="10" x="28.384223825187377" fill="rgb(26.592% 35.852% 54.702%)" />
<rect width="1.1" height="10" x="27.384223825187377" fill="rgb(26.821% 35.899% 54.273%)" />
<rect width="1.1" height="10" x="26.384223825187377" fill="rgb(27.049% 35.945% 53.844%)" />
<rect width="1.1" height="10" x="25.384223825187377" fill="rgb(27.276% 35.988% 53.414%)" />
<rect width="1.1" height="10" x="24.384223825187377" fill="rgb(27.502% 36.029% 52.984%)" />
<rect width="1.1" height="10" x="23.384223825187377" fill="rgb(27.728% 36.069% 52.554%)" />
<rect width="1.1" height="10" x="22.384223825187377" fill="rgb(27.953% 36.107% 52.124%)" />
<rect width="1.1" height="10" x="21.384223825187377" fill="rgb(28.178% 36.143% 51.694%)" />
<rect width="1.1" height="10" x="20.384223825187377" fill="rgb(28.401% 36.177% 51.263%)" />
<rect width="1.1" height="10" x="19.384223825187377" fill="rgb(28.624% 36.209% 50.833%)" />
<rect width="1.1" height="10" x="18.384223825187377" fill="rgb(28.846% 36.24% 50.401%)" />
<rect width="1.1" height="10" x="17.384223825187377" fill="rgb(29.068% 36.268% 49.97%)" />
<rect width="1.1" height="10" x="16.384223825187377" fill="rgb(29.288% 36.295% 49.538%)" />
<rect width="1.1" height="10" x="15.384223825187377" fill="rgb(29.509% 36.321% 49.106%)" />
<rect width="1.1" height="10" x="14.384223825187377" fill="rgb(29.728% 36.345% 48.673%)" />
<rect width="1.1" height="10" x="13.384223825187377" fill="rgb(29.947% 36.367% 48.24%)" />
<rect width="1.1" height="10" x="12.384223825187377" fill="rgb(30.165% 36.387% 47.807%)" />
<rect width="1.1" height="10" x="11.384223825187377" fill="rgb(30.382% 36.406% 47.373%)" />
<rect width="1.1" height="10" x="10.384223825187377" fill="rgb(30.599% 36.423% 46.938%)" />
<rect width="1.1" height="10" x="9.384223825187377" fill="rgb(30.815% 36.438% 46.503%)" />
<rect width="1.1" height="10" x="8.384223825187377" fill="rgb(31.03% 36.452% 46.068%)" />
<rect width="1.1" height="10" x="7.384223825187377" fill="rgb(31.245% 36.464% 45.631%)" />
<rect width="1.1" height="10" x="6.384223825187377" fill="rgb(31.459% 36.475% 45.195%)" />
<rect width="1.1" height="10" x="5.384223825187377" fill="rgb(31.672% 36.484% 44.757%)" />
<rect width="1.1" height="10" x="4.384223825187377" fill="rgb(31.885% 36.491% 44.318%)" />
<rect width="1.1" height="10" x="3.3842238251873766" fill="rgb(32.097% 36.497% 43.879%)" />
<rect width="1.1" height="10" x="2.3842238251873766" fill="rgb(32.309% 36.501% 43.439%)" />
<rect width="1.1" height="10" x="1.3842238251873766" fill="rgb(32.52% 36.504% 42.998%)" />
<rect width="1.1" height="10" x="0.38422382518737663" fill="rgb(32.73% 36.506% 42.557%)" />
<rect width="1.1" height="10" x="-0.6157761748126234" fill="rgb(32.94% 36.505% 42.114%)" />
<rect width="132" height="25" y="15" fill="none" stroke="grey" stroke-width="0.2"/>
<polyline fill="none" stroke-width="0.2" stroke="red" points="131.38422382518738,40 130.38422382518738,40.00000365503555 129.38422382518738,39.99877979260304 128.38422382518738,39.99724659592563 127.38422382518738,39.99540592791004 126.38422382518738,39.993259641436104 125.38422382518738,39.99080957941052 124.38422382518738,39.98805757481111 123.38422382518738,39.98500545074147 122.38422382518738,39.98165502048042 121.38422382518738,39.97800808752883 120.38422382518738,39.9740664456586 119.38422382518738,39.96983187896416 118.38422382518738,39.96530616190946 117.38422382518738,39.960491059374306 116.38422382518738,39.95538832670686 115.38422382518738,39.949999709767965 114.38422382518738,39.944326944978044 113.38422382518738,39.938371759367584 112.38422382518738,39.9321358706239 111.38422382518738,39.92562098713568 110.38422382518738,39.918828808039216 109.38422382518738,39.9117610232681 108.38422382518738,39.90441931359908 107.38422382518738,39.89680535069288 106.38422382518738,39.88892079714552 105.38422382518738,39.880767306531745 104.38422382518738,39.872346523450304 103.38422382518738,39.86366008356825 102.38422382518738,39.854709613666294 101.38422382518738,39.84549673168386 100.38422382518738,39.836023046762705 99.38422382518738,39.82629015929113 98.38422382518738,39.816299660947664 97.38422382518738,39.806053134745945 96.38422382518738,39.79555215507599 95.38422382518738,39.78479828774969 94.38422382518738,39.773793090041146 93.38422382518738,39.76253811073123 92.38422382518738,39.751034890149434 91.38422382518738,39.739284960219244 90.38422382518738,39.72728984449475 89.38422382518738,39.71505105820481 88.38422382518738,39.70257010829701 87.38422382518738,39.68984849347686 86.38422382518738,39.676887704250085 85.38422382518738,39.663689222958496 84.38422382518738,39.6502545238313 83.38422382518738,39.636585073018104 82.38422382518738,39.622682328627945 81.38422382518738,39.608547740775684 80.38422382518738,39.59418275161533 79.38422382518738,39.57958879538817 78.38422382518738,39.5647672984509 77.38422382518738,39.549719679327566 76.38422382518738,39.534447348739114 75.38422382518738,39.518951709644604 74.38422382518738,39.50323415728385 73.38422382518738,39.48729607920969 72.38422382518738,39.47113885533417 71.38422382518738,39.45476385795643 70.38422382518738,39.43817245181078 69.38422382518738,39.42136599409707 68.38422382518738,39.404345834521955 67.38422382518738,39.387113315334965 66.38422382518738,39.36966977136596 65.38422382518738,39.352016530060624 64.38422382518738,39.33415491151832 63.38422382518738,39.31608622852858 62.38422382518738,39.29781178660825 61.38422382518738,39.27933288403204 60.38422382518738,39.26065081187815 59.38422382518738,39.2417668540553 58.38422382518738,39.22268228734011 57.38422382518738,39.203398381413834 56.38422382518738,39.18391639889607 55.38422382518738,39.1642375953796 54.38422382518738,39.14436321946771 53.38422382518738,39.12429451280429 52.38422382518738,39.104032710107184 51.38422382518738,39.08357903920709 50.38422382518738,39.06293472107498 49.38422382518738,39.0421009698632 48.38422382518738,39.02107899292986 47.38422382518738,38.99986999087523 46.38422382518738,38.97847515757684 45.38422382518738,38.95689568021781 44.38422382518738,38.93513273932168 43.38422382518738,38.91318750878146 42.38422382518738,38.89106115589195 41.38422382518738,38.86875484138162 40.38422382518738,38.846269719442006 39.38422382518738,38.82360693776041 38.38422382518738,38.80076763754344 37.38422382518738,38.77775295355283 36.38422382518738,38.75456401413481 35.38422382518738,38.73120194124263 34.38422382518738,38.70766785046962 33.38422382518738,38.68396285107719 32.38422382518738,38.660088046013286 31.384223825187377,38.636044531952095 30.384223825187377,38.611833399306434 29.384223825187377,38.58745573225793 28.384223825187377,38.56291260878197 27.384223825187377,38.53820510066655 26.384223825187377,38.51333427353183 25.384223825187377,38.488301186855104 24.384223825187377,38.46310689398139 23.384223825187377,38.4377524421432 22.384223825187377,38.41223887247407 21.384223825187377,38.38656722001346 20.384223825187377,38.36073851371436 19.384223825187377,38.33475377644853 18.384223825187377,38.308614024996324 17.384223825187377,38.28232027004017 16.384223825187377,38.25587351614314 15.384223825187377,38.22927476171342 14.384223825187377,38.2025249989636 13.384223825187377,38.17562521383908 12.384223825187377,38.148576385931335 11.384223825187377,38.12137948834536 10.384223825187377,38.0940354875203 9.384223825187377,38.06654534297536 8.384223825187377,38.03891000695315 7.384223825187377,38.01113042389297 6.384223825187377,37.98320752963256 5.384223825187377,37.95514225018576 4.384223825187377,37.926935499710524 3.3842238251873766,37.89858817696553 2.3842238251873766,37.87010115849682 1.3842238251873766,37.841475283753645 0.38422382518737663,37.81271131517067 -0.6157761748126234,37.7838097828474" />
<polyline fill="none" stroke-width="0.2" stroke="green" points="131.38422382518738,40 130.38422382518738,39.999997614696355 129.38422382518738,39.95135046053837 128.38422382518738,39.90325305067797 127.38422382518738,39.85570200737833 126.38422382518738,39.80869397088848 125.38422382518738,39.7622255993468 124.38422382518738,39.71629356869952 123.38422382518738,39.670894572606464 122.38422382518738,39.626025322350564 121.38422382518738,39.58168254675312 120.38422382518738,39.53786299208578 119.38422382518738,39.49456342197923 118.38422382518738,39.45178061733932 117.38422382518738,39.409511376260156 116.38422382518738,39.367752513935464 115.38422382518738,39.326500862574825 114.38422382518738,39.28575327131926 113.38422382518738,39.245506606153675 112.38422382518738,39.205757749821856 111.38422382518738,39.166503601745575 110.38422382518738,39.12774107794018 109.38422382518738,39.08946711092777 108.38422382518738,39.0516786496577 107.38422382518738,39.014372659424524 106.38422382518738,38.977546121783604 105.38422382518738,38.94119603447052 104.38422382518738,38.90531941132034 103.38422382518738,38.86991328218638 102.38422382518738,38.8349746928601 101.38422382518738,38.80050070499043 100.38422382518738,38.766488396004135 99.38422382518738,38.732934859028575 98.38422382518738,38.69983720281032 97.38422382518738,38.667192551637825 96.38422382518738,38.63499804526452 95.38422382518738,38.60325083882852 94.38422382518738,38.57194810277901 93.38422382518738,38.541087022796596 92.38422382518738,38.510664799718406 91.38422382518738,38.480678649459726 90.38422382518738,38.45112580294153 89.38422382518738,38.42200350601447 88.38422382518738,38.39330901938155 87.38422382518738,38.36503961852589 86.38422382518738,38.33719259363616 85.38422382518738,38.30976524953478 84.38422382518738,38.28275490559852 83.38422382518738,38.2561588956911 82.38422382518738,38.2299745680909 81.38422382518738,38.204199285413814 80.38422382518738,38.17883042454663 79.38422382518738,38.15386537657057 78.38422382518738,38.129301546695835 77.38422382518738,38.10513635418418 76.38422382518738,38.08136723228411 75.38422382518738,38.05799162815881 74.38422382518738,38.035007002815206 73.38422382518738,38.012410831037094 72.38422382518738,37.99020060131243 71.38422382518738,37.96837381577019 70.38422382518738,37.94692799010582 69.38422382518738,37.92586065351882 68.38422382518738,37.905169348641465 67.38422382518738,37.88485163147312 66.38422382518738,37.86490507131315 65.38422382518738,37.84532725069477 64.38422382518738,37.826115765318356 63.38422382518738,37.80726822398613 62.38422382518738,37.78878224853455 61.38422382518738,37.77065547377498 60.38422382518738,37.75288554742011 59.38422382518738,37.735470130027295 58.38422382518738,37.718406894931384 57.38422382518738,37.70169352818085 56.38422382518738,37.685327728475094 55.38422382518738,37.66930720710142 54.38422382518738,37.653629687870186 53.38422382518738,37.638292907055686 52.38422382518738,37.623294613333464 51.38422382518738,37.60863256771707 50.38422382518738,37.59430454349921 49.38422382518738,37.58030832618633 48.38422382518738,37.56664171344455 47.38422382518738,37.55330251503535 46.38422382518738,37.54028855275548 45.38422382518738,37.527597660379314 44.38422382518738,37.51522768359849 43.38422382518738,37.503176479964274 42.38422382518738,37.491441918828876 41.38422382518738,37.480021881287264 40.38422382518738,37.468914260119604 39.38422382518738,37.458116959733985 38.38422382518738,37.447627896112316 37.38422382518738,37.43744499675087 36.38422382518738,37.427566200604886 35.38422382518738,37.41798945803535 34.38422382518738,37.40871273075307 33.38422382518738,37.399733991762616 32.38422382518738,37.39105122531431 31.384223825187377,37.382662426843304 30.384223825187377,37.37456560292376 29.384223825187377,37.36675877121497 28.384223825187377,37.35923996040829 27.384223825187377,37.35200721018016 26.384223825187377,37.345058571143035 25.384223825187377,37.338392104794345 24.384223825187377,37.332005883473926 23.384223825187377,37.3258979903148 22.384223825187377,37.32006651920051 21.384223825187377,37.31450957472544 20.384223825187377,37.30922527215419 19.384223825187377,37.304211737382865 18.384223825187377,37.299467106909 17.384223825187377,37.29498952779982 16.384223825187377,37.290777157668906 15.384223825187377,37.28682816466074 14.384223825187377,37.2831407274394 13.384223825187377,37.27971303519375 12.384223825187377,37.27654328765225 11.384223825187377,37.273629695123006 10.384223825187377,37.270970478561736 9.384223825187377,37.268563869681095 8.384223825187377,37.26640811111849 7.384223825187377,37.264501456700735 6.384223825187377,37.26284217186276 5.384223825187377,37.26142853430656 4.384223825187377,37.26025883511887 3.3842238251873766,37.25933138074594 2.3842238251873766,37.258644496823436 1.3842238251873766,37.258196536582055 0.38422382518737663,37.25798590345516 -0.6157761748126234,37.25801113916584" />
<polyline fill="none" stroke-width="0.2" stroke="blue" points="131.38422382518738,15 130.38422382518738,15.000001154515076 129.38422382518738,15.267212730016979 128.38422382518738,15.53235344926842 127.38422382518738,15.795435922851716 126.38422382518738,16.05647269450852 125.38422382518738,16.315476241490313 124.38422382518738,16.572458974873296 123.38422382518738,16.82743323989868 122.38422382518738,17.080411316308453 121.38422382518738,17.331405418666694 120.38422382518738,17.58042769668568 119.38422382518738,17.82749023556127 118.38422382518738,18.072605056286264 117.38422382518738,18.31578411597754 116.38422382518738,18.557039308196902 115.38422382518738,18.7963824632721 114.38422382518738,19.03382534860634 113.38422382518738,19.26937966900265 112.38422382518738,19.503057066978155 111.38422382518738,19.73486912306811 110.38422382518738,19.964827356144184 109.38422382518738,20.192943223726257 108.38422382518738,20.41922812228306 107.38422382518738,20.643693387544563 106.38422382518738,20.86635029480227 105.38422382518738,21.087210059219966 104.38422382518738,21.30628383612502 103.38422382518738,21.523582721317943 102.38422382518738,21.73911775136844 101.38422382518738,21.952899903910257 100.38422382518738,22.1649400979436 99.38422382518738,22.37524919411753 98.38422382518738,22.583837995036347 97.38422382518738,22.790717245545427 96.38422382518738,22.99589763301547 95.38422382518738,23.19938978764302 94.38422382518738,23.401204282726397 93.38422382518738,23.60135163495906 92.38422382518738,23.799842304707635 91.38422382518738,23.996686696300095 90.38422382518738,24.191895158303645 89.38422382518738,24.385477983805856 88.38422382518738,24.577445410693926 87.38422382518738,24.767807621930213 86.38422382518738,24.956574745826785 85.38422382518738,25.143756856325176 84.38422382518738,25.329363973264392 83.38422382518738,25.513406062653722 82.38422382518738,25.695893036940568 81.38422382518738,25.876834755286787 80.38422382518738,26.056241023827297 79.38422382518738,26.23412159594153 78.38422382518738,26.410486172516286 77.38422382518738,26.585344402210676 76.38422382518738,26.758705881715567 75.38422382518738,26.93058015601722 74.38422382518738,27.100976718654167 73.38422382518738,27.269905011979503 72.38422382518738,27.43737442741181 71.38422382518738,27.603394305694334 70.38422382518738,27.767973937151435 69.38422382518738,27.931122561934668 68.38422382518738,28.092849370281996 67.38422382518738,28.25316350276352 66.38422382518738,28.4120740505307 65.38422382518738,28.569590055566913 64.38422382518738,28.725720510932334 63.38422382518738,28.880474361007348 62.38422382518738,29.033860501742282 61.38422382518738,29.18588778089152 60.38422382518738,29.33656499826673 59.38422382518738,29.485900905963145 58.38422382518738,29.63390420861203 57.38422382518738,29.780583563610676 56.38422382518738,29.92594758135978 55.38422382518738,30.070004825500998 54.38422382518738,30.21276381315164 53.38422382518738,30.354233015134334 52.38422382518738,30.49442085621306 51.38422382518738,30.633335715319237 50.38422382518738,30.770985925785297 49.38422382518738,30.90737977557125 48.38422382518738,31.042525507489835 47.38422382518738,31.17643131943619 46.38422382518738,31.309105364609042 45.38422382518738,31.440555751736788 44.38422382518738,31.570790545299467 43.38422382518738,31.69981776574636 42.38422382518738,31.827645389721233 41.38422382518738,31.95428135027806 40.38422382518738,32.07973353709996 39.38422382518738,32.204009796714836 38.38422382518738,32.3271179327104 37.38422382518738,32.44906570594985 36.38422382518738,32.56986083478336 35.38422382518738,32.6895109952624 34.38422382518738,32.808023821345586 33.38422382518738,32.92540690511406 32.38422382518738,33.04166779697559 31.384223825187377,33.15681400587447 30.384223825187377,33.27085299949489 29.384223825187377,33.38379220446778 28.384223825187377,33.49563900657418 27.384223825187377,33.60640075094632 26.384223825187377,33.71608474226973 25.384223825187377,33.824698244984134 24.384223825187377,33.93224848347887 23.384223825187377,34.03874264229424 22.384223825187377,34.14418786631335 21.384223825187377,34.24859126095944 20.384223825187377,34.351959892386745 19.384223825187377,34.4543007876728 18.384223825187377,34.555620935007056 17.384223825187377,34.65592728387968 16.384223825187377,34.75522674526416 15.384223825187377,34.853526191802715 14.384223825187377,34.950832457983516 13.384223825187377,35.047152340317695 12.384223825187377,35.14249259750995 11.384223825187377,35.23685995062543 10.384223825187377,35.3302610832452 9.384223825187377,35.42270264161286 8.384223825187377,35.51419123476645 7.384223825187377,35.60473343464538 6.384223825187377,35.69433577615755 5.384223825187377,35.78300475719137 4.384223825187377,35.87074683851088 3.3842238251873766,35.95756844344427 2.3842238251873766,36.04347595711954 1.3842238251873766,36.128475724579616 0.38422382518737663,36.21257404542371 -0.6157761748126234,36.295777152390365" />
</svg>