<svg xmlns="http://www.w3.org/2000/svg" viewBox="-5 -105 48 115" overflow="visible" width="240" height="575">
<desc>Show the L axis of CIE Lab color space.
</desc>

<rect x="-5" y="-105" width="100%" height="100%" fill="white" />

<g class="swatches">
    <!-- 20 swatches from L=0 to L=100-->
    <!-- for(i=0; i<=100; i+=5){console.log(100*LCH_to_sRGB([i,0,0])[1])} -->
    <rect x="0" y="0" width="30" height="5" fill="black"/>
    <rect x="0" y="-5" width="30" height="5" fill="rgb(6.603028246690135% 6.603028246690135% 6.603028246690135%)"/>
    <rect x="0" y="-10" width="30" height="5" fill="rgb(10.770341649057297% 10.770341649057297% 10.770341649057297%)"/>
    <rect x="0" y="-15" width="30" height="5" fill="rgb(14.771323518917873% 14.771323518917873% 14.771323518917873%)"/>
    <rect x="0" y="-20" width="30" height="5" fill="rgb(18.937575329222533% 18.937575329222533% 18.937575329222533%)"/>
    <rect x="0" y="-25" width="30" height="5" fill="rgb(23.251453732589205% 23.251453732589205% 23.251453732589205%)"/>
    <rect x="0" y="-30" width="30" height="5" fill="rgb(27.69917389087182% 27.69917389087182% 27.69917389087182%)"/>
    <rect x="0" y="-35" width="30" height="5" fill="rgb(32.26962801935871% 32.26962801935871% 32.26962801935871%)"/>
    <rect x="0" y="-40" width="30" height="5" fill="rgb(36.95364864336668% 36.95364864336668% 36.95364864336668%)"/>
    <rect x="0" y="-45" width="30" height="5" fill="rgb(41.74352357800692% 41.74352357800692% 41.74352357800692%)"/>
    <rect x="0" y="-50" width="30" height="5" fill="rgb(46.63266265724279% 46.63266265724279% 46.63266265724279%)"/> <!-- 50 -->
    <rect x="0" y="-55" width="30" height="5" fill="rgb(51.615360643077636% 51.615360643077636% 51.615360643077636%)"/>
    <rect x="0" y="-60" width="30" height="5" fill="rgb(56.686623637259444% 56.686623637259444% 56.686623637259444%)"/>
    <rect x="0" y="-65" width="30" height="5" fill="rgb(61.84203887084956% 61.84203887084956% 61.84203887084956%)"/>
    <rect x="0" y="-70" width="30" height="5" fill="rgb(67.07767498980651% 67.07767498980651% 67.07767498980651%)"/>
    <rect x="0" y="-75" width="30" height="5" fill="rgb(72.3900043159342% 72.3900043159342% 72.3900043159342%)"/>
    <rect x="0" y="-80" width="30" height="5" fill="rgb(77.77584128589636% 77.77584128589636% 77.77584128589636%)"/>
    <rect x="0" y="-85" width="30" height="5" fill="rgb(83.23229302584745% 83.23229302584745% 83.23229302584745%)"/>
    <rect x="0" y="-90" width="30" height="5" fill="rgb(88.75671918141313% 88.75671918141313% 88.75671918141313%)"/>
    <rect x="0" y="-95" width="30" height="5" fill="rgb(94.3466989112247% 94.3466989112247% 94.3466989112247%)"/>
    <rect x="0" y="-100" width="30" height="5" fill="white"/>
    <rect x="0" y="-100" width="30" height="105" fill="none" stroke="black" stroke-width="0.3"/>
</g>

<g font-family="sans-serif" font-size="2pt">
<!-- pt, lol but CSS requires a unit -->
<text x="33" y="3">0%</text>
<text x="33" y="-7">10%</text>
<text x="33" y="-17">20%</text>
<text x="33" y="-27">30%</text>
<text x="33" y="-37">40%</text>
<text x="33" y="-47">50%</text>
<text x="33" y="-57">60%</text>
<text x="33" y="-67">70%</text>
<text x="33" y="-77">80%</text>
<text x="33" y="-87">90%</text>
<text x="33" y="-97">100%</text>
</g>



</svg>