<svg xmlns="http://www.w3.org/2000/svg" viewBox="-4 -4 140 60">
<rect width="1.1" height="10" x="123.27189762543868" fill="salmon" />
<rect width="1.1" height="10" x="122.27189762543868" fill="red" />
<rect width="1.1" height="10" x="121.27189762543868" fill="red" />
<rect width="1.1" height="10" x="120.27189762543868" fill="red" />
<rect width="1.1" height="10" x="119.27189762543868" fill="red" />
<rect width="1.1" height="10" x="118.27189762543868" fill="red" />
<rect width="1.1" height="10" x="117.27189762543868" fill="red" />
<rect width="1.1" height="10" x="116.27189762543868" fill="red" />
<rect width="1.1" height="10" x="115.27189762543868" fill="red" />
<rect width="1.1" height="10" x="114.27189762543868" fill="red" />
<rect width="1.1" height="10" x="113.27189762543868" fill="red" />
<rect width="1.1" height="10" x="112.27189762543868" fill="red" />
<rect width="1.1" height="10" x="111.27189762543868" fill="red" />
<rect width="1.1" height="10" x="110.27189762543868" fill="red" />
<rect width="1.1" height="10" x="109.27189762543868" fill="red" />
<rect width="1.1" height="10" x="108.27189762543868" fill="red" />
<rect width="1.1" height="10" x="107.27189762543868" fill="red" />
<rect width="1.1" height="10" x="106.27189762543868" fill="red" />
<rect width="1.1" height="10" x="105.27189762543868" fill="red" />
<rect width="1.1" height="10" x="104.27189762543868" fill="red" />
<rect width="1.1" height="10" x="103.27189762543868" fill="red" />
<rect width="1.1" height="10" x="102.27189762543868" fill="red" />
<rect width="1.1" height="10" x="101.27189762543868" fill="red" />
<rect width="1.1" height="10" x="100.27189762543868" fill="red" />
<rect width="1.1" height="10" x="99.27189762543868" fill="red" />
<rect width="1.1" height="10" x="98.27189762543868" fill="red" />
<rect width="1.1" height="10" x="97.27189762543868" fill="red" />
<rect width="1.1" height="10" x="96.27189762543868" fill="red" />
<rect width="1.1" height="10" x="95.27189762543868" fill="red" />
<rect width="1.1" height="10" x="94.27189762543868" fill="red" />
<rect width="1.1" height="10" x="93.27189762543868" fill="red" />
<rect width="1.1" height="10" x="92.27189762543868" fill="red" />
<rect width="1.1" height="10" x="91.27189762543868" fill="red" />
<rect width="1.1" height="10" x="90.27189762543868" fill="red" />
<rect width="1.1" height="10" x="89.27189762543868" fill="red" />
<rect width="1.1" height="10" x="88.27189762543868" fill="red" />
<rect width="1.1" height="10" x="87.27189762543868" fill="red" />
<rect width="1.1" height="10" x="86.27189762543868" fill="red" />
<rect width="1.1" height="10" x="85.27189762543868" fill="red" />
<rect width="1.1" height="10" x="84.27189762543868" fill="red" />
<rect width="1.1" height="10" x="83.27189762543868" fill="red" />
<rect width="1.1" height="10" x="82.27189762543868" fill="red" />
<rect width="1.1" height="10" x="81.27189762543868" fill="red" />
<rect width="1.1" height="10" x="80.27189762543868" fill="red" />
<rect width="1.1" height="10" x="79.27189762543868" fill="red" />
<rect width="1.1" height="10" x="78.27189762543868" fill="red" />
<rect width="1.1" height="10" x="77.27189762543868" fill="red" />
<rect width="1.1" height="10" x="76.27189762543868" fill="red" />
<rect width="1.1" height="10" x="75.27189762543868" fill="red" />
<rect width="1.1" height="10" x="74.27189762543868" fill="red" />
<rect width="1.1" height="10" x="73.27189762543868" fill="red" />
<rect width="1.1" height="10" x="72.27189762543868" fill="red" />
<rect width="1.1" height="10" x="71.27189762543868" fill="red" />
<rect width="1.1" height="10" x="70.27189762543868" fill="red" />
<rect width="1.1" height="10" x="69.27189762543868" fill="red" />
<rect width="1.1" height="10" x="68.27189762543868" fill="red" />
<rect width="1.1" height="10" x="67.27189762543868" fill="red" />
<rect width="1.1" height="10" x="66.27189762543868" fill="red" />
<rect width="1.1" height="10" x="65.27189762543868" fill="red" />
<rect width="1.1" height="10" x="64.27189762543868" fill="red" />
<rect width="1.1" height="10" x="63.27189762543868" fill="red" />
<rect width="1.1" height="10" x="62.27189762543868" fill="red" />
<rect width="1.1" height="10" x="61.27189762543868" fill="red" />
<rect width="1.1" height="10" x="60.27189762543868" fill="red" />
<rect width="1.1" height="10" x="59.27189762543868" fill="red" />
<rect width="1.1" height="10" x="58.27189762543868" fill="red" />
<rect width="1.1" height="10" x="57.27189762543868" fill="red" />
<rect width="1.1" height="10" x="56.27189762543868" fill="red" />
<rect width="1.1" height="10" x="55.27189762543868" fill="red" />
<rect width="1.1" height="10" x="54.27189762543868" fill="red" />
<rect width="1.1" height="10" x="53.27189762543868" fill="red" />
<rect width="1.1" height="10" x="52.27189762543868" fill="red" />
<rect width="1.1" height="10" x="51.27189762543868" fill="red" />
<rect width="1.1" height="10" x="50.27189762543868" fill="red" />
<rect width="1.1" height="10" x="49.27189762543868" fill="red" />
<rect width="1.1" height="10" x="48.27189762543868" fill="red" />
<rect width="1.1" height="10" x="47.27189762543868" fill="red" />
<rect width="1.1" height="10" x="46.27189762543868" fill="red" />
<rect width="1.1" height="10" x="45.27189762543868" fill="red" />
<rect width="1.1" height="10" x="44.27189762543868" fill="red" />
<rect width="1.1" height="10" x="43.27189762543868" fill="red" />
<rect width="1.1" height="10" x="42.27189762543868" fill="red" />
<rect width="1.1" height="10" x="41.27189762543868" fill="red" />
<rect width="1.1" height="10" x="40.27189762543868" fill="red" />
<rect width="1.1" height="10" x="39.27189762543868" fill="red" />
<rect width="1.1" height="10" x="38.27189762543868" fill="red" />
<rect width="1.1" height="10" x="37.27189762543868" fill="red" />
<rect width="1.1" height="10" x="36.27189762543868" fill="red" />
<rect width="1.1" height="10" x="35.27189762543868" fill="red" />
<rect width="1.1" height="10" x="34.27189762543868" fill="red" />
<rect width="1.1" height="10" x="33.27189762543868" fill="red" />
<rect width="1.1" height="10" x="32.27189762543868" fill="red" />
<rect width="1.1" height="10" x="31.271897625438683" fill="salmon" />
<rect width="1.1" height="10" x="30.271897625438683" fill="salmon" />
<rect width="1.1" height="10" x="29.271897625438683" fill="salmon" />
<rect width="1.1" height="10" x="28.271897625438683" fill="salmon" />
<rect width="1.1" height="10" x="27.271897625438683" fill="salmon" />
<rect width="1.1" height="10" x="26.271897625438683" fill="salmon" />
<rect width="1.1" height="10" x="25.271897625438683" fill="rgb(99.967% 97.494% 77.806%)" />
<rect width="1.1" height="10" x="24.271897625438683" fill="rgb(99.88% 97.473% 78.574%)" />
<rect width="1.1" height="10" x="23.271897625438683" fill="rgb(99.791% 97.452% 79.341%)" />
<rect width="1.1" height="10" x="22.271897625438683" fill="rgb(99.699% 97.432% 80.107%)" />
<rect width="1.1" height="10" x="21.271897625438683" fill="rgb(99.605% 97.412% 80.872%)" />
<rect width="1.1" height="10" x="20.271897625438683" fill="rgb(99.509% 97.392% 81.637%)" />
<rect width="1.1" height="10" x="19.271897625438683" fill="rgb(99.411% 97.372% 82.4%)" />
<rect width="1.1" height="10" x="18.271897625438683" fill="rgb(99.31% 97.352% 83.163%)" />
<rect width="1.1" height="10" x="17.271897625438683" fill="rgb(99.206% 97.332% 83.925%)" />
<rect width="1.1" height="10" x="16.271897625438683" fill="rgb(99.1% 97.312% 84.687%)" />
<rect width="1.1" height="10" x="15.271897625438683" fill="rgb(98.992% 97.293% 85.448%)" />
<rect width="1.1" height="10" x="14.271897625438683" fill="rgb(98.881% 97.274% 86.208%)" />
<rect width="1.1" height="10" x="13.271897625438683" fill="rgb(98.768% 97.254% 86.968%)" />
<rect width="1.1" height="10" x="12.271897625438683" fill="rgb(98.652% 97.235% 87.727%)" />
<rect width="1.1" height="10" x="11.271897625438683" fill="rgb(98.534% 97.216% 88.486%)" />
<rect width="1.1" height="10" x="10.271897625438683" fill="rgb(98.413% 97.198% 89.244%)" />
<rect width="1.1" height="10" x="9.271897625438683" fill="rgb(98.289% 97.179% 90.002%)" />
<rect width="1.1" height="10" x="8.271897625438683" fill="rgb(98.163% 97.161% 90.759%)" />
<rect width="1.1" height="10" x="7.271897625438683" fill="rgb(98.034% 97.142% 91.517%)" />
<rect width="1.1" height="10" x="6.271897625438683" fill="rgb(97.902% 97.124% 92.273%)" />
<rect width="1.1" height="10" x="5.271897625438683" fill="rgb(97.768% 97.106% 93.03%)" />
<rect width="1.1" height="10" x="4.271897625438683" fill="rgb(97.631% 97.088% 93.786%)" />
<rect width="1.1" height="10" x="3.271897625438683" fill="rgb(97.491% 97.071% 94.542%)" />
<rect width="1.1" height="10" x="2.271897625438683" fill="rgb(97.348% 97.053% 95.298%)" />
<rect width="1.1" height="10" x="1.2718976254386831" fill="rgb(97.203% 97.036% 96.053%)" />
<rect width="1.1" height="10" x="0.2718976254386831" fill="rgb(97.055% 97.019% 96.809%)" />
<rect width="123.27189762543868" height="25" y="15" fill="none" stroke="grey" stroke-width="0.2"/>
<polyline fill="none" stroke-width="0.2" stroke="red" points="123.27189762543868,15.000001115347953 122.27189762543868,14.972927709657128 121.27189762543868,14.94627671287149 120.27189762543868,14.920054086200487 119.27189762543868,14.894265790829166 118.27189762543868,14.868917787919099 117.27189762543868,14.844016038609634 116.27189762543868,14.81956650401882 115.27189762543868,14.795575145244314 114.27189762543868,14.772047923364159 113.27189762543868,14.748990799437543 112.27189762543868,14.726409734505367 111.27189762543868,14.704310689591054 110.27189762543868,14.682699625700806 109.27189762543868,14.661582503824146 108.27189762543868,14.640965284934442 107.27189762543868,14.6208539299891 106.27189762543868,14.601254399929996 105.27189762543868,14.582172655683575 104.27189762543868,14.563614658161242 103.27189762543868,14.545586368259436 102.27189762543868,14.528093746859607 101.27189762543868,14.511142754828647 100.27189762543868,14.494739353018552 99.27189762543868,14.47888950226669 98.27189762543868,14.463599163395727 97.27189762543868,14.44887429721339 96.27189762543868,14.4347208645125 95.27189762543868,14.421144826070933 94.27189762543868,14.4081521426512 93.27189762543868,14.395748775000332 92.27189762543868,14.383940683849776 91.27189762543868,14.372733829914871 90.27189762543868,14.362134173894734 89.27189762543868,14.352147676471798 88.27189762543868,14.34278029831141 87.27189762543868,14.334038000061494 86.27189762543868,14.325926742352038 85.27189762543868,14.318452485794445 84.27189762543868,14.311621190981242 83.27189762543868,14.305438818485314 82.27189762543868,14.29991132885927 81.27189762543868,14.295044682634881 80.27189762543868,14.290844840322173 79.27189762543868,14.287317762408822 78.27189762543868,14.284469409359232 77.27189762543868,14.282305741613651 76.27189762543868,14.280832719587263 75.27189762543868,14.280056303669124 74.27189762543868,14.279982454221173 73.27189762543868,14.28061713157701 72.27189762543868,14.281966296040753 71.27189762543868,14.284035907885702 70.27189762543868,14.286831927353024 69.27189762543868,14.290360314650233 68.27189762543868,14.294627029949723 67.27189762543868,14.299638033387051 66.27189762543868,14.305399285059178 65.27189762543868,14.311916745022739 64.27189762543868,14.319196373291813 63.27189762543868,14.327244129836085 62.27189762543868,14.336065974578418 61.27189762543868,14.345667867392429 60.27189762543868,14.356055768100031 59.27189762543868,14.36723563646855 58.27189762543868,14.37921343220789 57.27189762543868,14.39199511496734 56.27189762543868,14.405586644332267 55.27189762543868,14.419993979820354 54.27189762543868,14.435223080877812 53.27189762543868,14.451279906875296 52.27189762543868,14.468170417103153 51.27189762543868,14.485900570766876 50.27189762543868,14.504476326981667 49.27189762543868,14.523903644766914 48.27189762543868,14.544188483040081 47.27189762543868,14.565336800610005 46.27189762543868,14.587354556169867 45.27189762543868,14.610247708289311 44.27189762543868,14.634022215405981 43.27189762543868,14.658684035816286 42.27189762543868,14.684239127665347 41.27189762543868,14.710693448935757 40.27189762543868,14.738052957435741 39.27189762543868,14.76632361078562 38.27189762543868,14.795511366403154 37.27189762543868,14.825622181487404 36.27189762543868,14.856662013000768 35.27189762543868,14.88863681764898 34.27189762543868,14.921552551859072 33.27189762543868,14.955415171754531 32.27189762543868,14.990230633127602 31.271897625438683,15.026004891408256 30.271897625438683,15.062743901628945 29.271897625438683,15.100453618384982 28.271897625438683,15.13913999578946 27.271897625438683,15.178808987421732 26.271897625438683,15.219466546268379 25.271897625438683,15.261118624655502 24.271897625438683,15.303771174169825 23.271897625438683,15.347430145567362 22.271897625438683,15.392101488666164 21.271897625438683,15.437791152219987 20.271897625438683,15.484505083768262 19.271897625438683,15.532249229456582 18.271897625438683,15.581029533820114 17.271897625438683,15.630851939519783 16.271897625438683,15.681722387017516 15.271897625438683,15.733646814171827 14.271897625438683,15.786631155728248 13.271897625438683,15.840681342666958 12.271897625438683,15.895803301354483 11.271897625438683,15.952002952419864 10.271897625438683,16.009286209232943 9.271897625438683,16.067658975791634 8.271897625438683,16.127127143699795 7.271897625438683,16.18769658768691 6.271897625438683,16.24937315866832 5.271897625438683,16.312162672387355 4.271897625438683,16.376070889454216 3.271897625438683,16.44110347672115 2.271897625438683,16.507265921498135 1.2718976254386831,16.574563294900013 0.2718976254386831,16.642999271633247" />
<polyline fill="none" stroke-width="0.2" stroke="green" points="123.27189762543868,14.999998960198688 122.27189762543868,15.014640478968118 121.27189762543868,15.029273082640906 120.27189762543868,15.043896532777186 119.27189762543868,15.058510590944959 118.27189762543868,15.073115018719776 117.27189762543868,15.087709577684294 116.27189762543868,15.102294029428027 115.27189762543868,15.116868135546895 114.27189762543868,15.131431657643088 113.27189762543868,15.145984357324696 112.27189762543868,15.160525996205578 111.27189762543868,15.175056335905076 110.27189762543868,15.1895751380479 109.27189762543868,15.204082164263951 108.27189762543868,15.218577176188159 107.27189762543868,15.233059935460382 106.27189762543868,15.247530203725262 105.27189762543868,15.261987742632236 104.27189762543868,15.276432313835343 103.27189762543868,15.290863678993219 102.27189762543868,15.305281599769117 101.27189762543868,15.31968583783075 100.27189762543868,15.3340761548504 99.27189762543868,15.34845231250485 98.27189762543868,15.362814072475373 97.27189762543868,15.377161196447855 96.27189762543868,15.391493446112726 95.27189762543868,15.405810583165021 94.27189762543868,15.420112369304508 93.27189762543868,15.434398566235732 92.27189762543868,15.448668935668064 91.27189762543868,15.462923239315845 90.27189762543868,15.477161238898425 89.27189762543868,15.491382696140391 88.27189762543868,15.50558737277158 87.27189762543868,15.519775030527285 86.27189762543868,15.533945431148453 85.27189762543868,15.548098336381802 84.27189762543868,15.562233507980004 83.27189762543868,15.57635070770192 82.27189762543868,15.590449697312778 81.27189762543868,15.604530238584417 80.27189762543868,15.61859209329559 79.27189762543868,15.632635023232105 78.27189762543868,15.646658790187217 77.27189762543868,15.660663155961846 76.27189762543868,15.67464788236498 75.27189762543868,15.68861273121394 74.27189762543868,15.702557464334742 73.27189762543868,15.716481843562544 72.27189762543868,15.730385630741985 71.27189762543868,15.744268587727628 70.27189762543868,15.758130476384462 69.27189762543868,15.77197105858832 68.27189762543868,15.785790096226446 67.27189762543868,15.799587351198046 66.27189762543868,15.813362585414861 65.27189762543868,15.827115560801762 64.27189762543868,15.840846039297475 63.27189762543868,15.85455378285522 62.27189762543868,15.86823855344349 61.27189762543868,15.881900113046907 60.27189762543868,15.895538223667003 59.27189762543868,15.909152647323165 58.27189762543868,15.922743146053627 57.27189762543868,15.936309481916492 56.27189762543868,15.949851416990874 55.27189762543868,15.963368713378117 54.27189762543868,15.976861133203037 53.27189762543868,15.990328438615357 52.27189762543868,16.003770391791182 51.27189762543868,16.01718675493461 50.27189762543868,16.030577290279485 49.27189762543868,16.043941760091236 48.27189762543868,16.05727992666889 47.27189762543868,16.07059155234736 46.27189762543868,16.083876399499772 45.27189762543868,16.09713423053996 44.27189762543868,16.110364807925436 43.27189762543868,16.1235678941604 42.27189762543868,16.136743251799036 41.27189762543868,16.149890643449318 40.27189762543868,16.163009831776883 39.27189762543868,16.17610057950957 38.27189762543868,16.189162649442263 37.27189762543868,16.202195804442262 36.27189762543868,16.215199807455253 35.27189762543868,16.22817442151197 34.27189762543868,16.24111940973549 33.27189762543868,16.254034535349486 32.27189762543868,16.266919561687498 31.271897625438683,16.279774252203158 30.271897625438683,16.292598370482 29.271897625438683,16.30539168025459 28.271897625438683,16.318153945411506 27.271897625438683,16.33088493002055 26.271897625438683,16.34358439834632 25.271897625438683,16.356252114872785 24.271897625438683,16.36888784432959 23.271897625438683,16.38149135172237 22.271897625438683,16.39406240236861 21.271897625438683,16.406600761939643 20.271897625438683,16.41910619651067 19.271897625438683,16.431578472620664 18.271897625438683,16.444017357344517 17.271897625438683,16.456422618381122 16.271897625438683,16.468794024161607 15.271897625438683,16.48113134398441 14.271897625438683,16.493434348185353 13.271897625438683,16.505702808355462 12.271897625438683,16.517936497624316 11.271897625438683,16.530135191035527 10.271897625438683,16.54229866605535 9.271897625438683,16.554426703278835 8.271897625438683,16.56651908744053 7.271897625438683,16.578575608912974 6.271897625438683,16.59059606602863 5.271897625438683,16.602580268881013 4.271897625438683,16.614528046007013 3.271897625438683,16.626439257320705 2.271897625438683,16.63831382284699 1.2718976254386831,16.650151802010523 0.2718976254386831,16.661953722139426" />
<polyline fill="none" stroke-width="0.2" stroke="blue" points="123.27189762543868,39.999999643461685 122.27189762543868,39.94583895656091 121.27189762543868,39.89024106260538 120.27189762543868,39.833186849795716 119.27189762543868,39.774657206330446 118.27189762543868,39.714633020405955 117.27189762543868,39.653095180216475 116.27189762543868,39.590024573954096 115.27189762543868,39.52540208980874 114.27189762543868,39.45920861596819 113.27189762543868,39.39142504061802 112.27189762543868,39.322032251941636 111.27189762543868,39.25101113812026 110.27189762543868,39.1783425873329 109.27189762543868,39.104007487756355 108.27189762543868,39.02798672756521 107.27189762543868,38.95026119493179 106.27189762543868,38.87081177802623 105.27189762543868,38.78961936501638 104.27189762543868,38.706664844067866 103.27189762543868,38.621929103344044 102.27189762543868,38.53539303100603 101.27189762543868,38.44703751521266 100.27189762543868,38.35684344412052 99.27189762543868,38.26479170588395 98.27189762543868,38.17086318865502 97.27189762543868,38.075038780583554 96.27189762543868,37.977299369817146 95.27189762543868,37.87762584450117 94.27189762543868,37.77599909277876 93.27189762543868,37.67240000279087 92.27189762543868,37.566809462676304 91.27189762543868,37.459208360571665 90.27189762543868,37.349577584611474 89.27189762543868,37.23789802292814 88.27189762543868,37.12415056365203 87.27189762543868,37.00831609491148 86.27189762543868,36.890375504832875 85.27189762543868,36.77030968154069 84.27189762543868,36.64809951315751 83.27189762543868,36.52372588780417 82.27189762543868,36.39716969359974 81.27189762543868,36.268411818661654 80.27189762543868,36.13743315110578 79.27189762543868,36.00421457904653 78.27189762543868,35.86873699059691 77.27189762543868,35.73098127386867 76.27189762543868,35.59092831697244 75.27189762543868,35.44855900801779 74.27189762543868,35.303854235113455 73.27189762543868,35.1567948863674 72.27189762543868,35.00736184988706 71.27189762543868,34.85553601377946 70.27189762543868,34.70129826615144 69.27189762543868,34.54462949510984 68.27189762543868,34.38551058876173 67.27189762543868,34.22392243521467 66.27189762543868,34.059845922576926 65.27189762543868,33.89326193895777 64.27189762543868,33.724151372467816 63.27189762543868,33.55249511121925 62.27189762543868,33.378274043326286 61.27189762543868,33.201469056905445 60.27189762543868,33.02206104007606 59.27189762543868,32.840030880960605 58.27189762543868,32.65535946768522 57.27189762543868,32.468027688380246 56.27189762543868,32.278016431180696 55.27189762543868,32.08530658422689 54.27189762543868,31.889879035665107 53.27189762543868,31.691714673648185 52.27189762543868,31.49079438633641 51.27189762543868,31.287099061898147 50.27189762543868,31.080609588510864 49.27189762543868,30.871306854361954 48.27189762543868,30.65917174764982 47.27189762543868,30.44418515658495 46.27189762543868,30.226327969391185 45.27189762543868,30.005581074306928 44.27189762543868,29.781925359586648 43.27189762543868,29.55534171350242 42.27189762543868,29.32581102434561 41.27189762543868,29.093314180428752 40.27189762543868,28.85783207008759 39.27189762543868,28.619345581683294 38.27189762543868,28.37783560360499 37.27189762543868,28.1332830242724 36.27189762543868,27.885668732138885 35.27189762543868,27.634973615694804 34.27189762543868,27.381178563471153 33.27189762543868,27.124264464043684 32.27189762543868,26.864212206037536 31.271897625438683,26.601002678132367 30.271897625438683,26.334616769068077 29.271897625438683,26.06503536765139 28.271897625438683,25.79223936276317 27.271897625438683,25.51620964336681 26.271897625438683,25.23692709851779 25.271897625438683,24.954372617374577 24.271897625438683,24.66852708921129 23.271897625438683,24.379371403432252 22.271897625438683,24.08688644958904 21.271897625438683,23.791053117400423 20.271897625438683,23.491852296775846 19.271897625438683,23.18926487784358 18.271897625438683,22.88327175098423 17.271897625438683,22.57385380687145 16.271897625438683,22.26099193652179 15.271897625438683,21.944667031356254 14.271897625438683,21.624859983277513 13.271897625438683,21.301551684768057 12.271897625438683,20.974723029017014 11.271897625438683,20.644354910087003 10.271897625438683,20.310428223138807 9.271897625438683,19.972923864740864 8.271897625438683,19.631822733309324 7.271897625438683,19.28710572975594 6.271897625438683,18.938753758484705 5.271897625438683,18.586747729012018 4.271897625438683,18.23106855879464 3.271897625438683,17.871697178664107 2.271897625438683,17.508614544813824 1.2718976254386831,17.141801671640952 0.2718976254386831,16.77123976684664" />
</svg>