<svg xmlns="http://www.w3.org/2000/svg" viewBox="-4 -4 140 60">
<rect width="1.1" height="10" x="123.27189762543868" fill="salmon" />
<rect width="1.1" height="10" x="122.27189762543868" fill="red" />
<rect width="1.1" height="10" x="121.27189762543868" fill="red" />
<rect width="1.1" height="10" x="120.27189762543868" fill="red" />
<rect width="1.1" height="10" x="119.27189762543868" fill="red" />
<rect width="1.1" height="10" x="118.27189762543868" fill="red" />
<rect width="1.1" height="10" x="117.27189762543868" fill="red" />
<rect width="1.1" height="10" x="116.27189762543868" fill="red" />
<rect width="1.1" height="10" x="115.27189762543868" fill="red" />
<rect width="1.1" height="10" x="114.27189762543868" fill="red" />
<rect width="1.1" height="10" x="113.27189762543868" fill="red" />
<rect width="1.1" height="10" x="112.27189762543868" fill="red" />
<rect width="1.1" height="10" x="111.27189762543868" fill="red" />
<rect width="1.1" height="10" x="110.27189762543868" fill="red" />
<rect width="1.1" height="10" x="109.27189762543868" fill="red" />
<rect width="1.1" height="10" x="108.27189762543868" fill="red" />
<rect width="1.1" height="10" x="107.27189762543868" fill="red" />
<rect width="1.1" height="10" x="106.27189762543868" fill="red" />
<rect width="1.1" height="10" x="105.27189762543868" fill="red" />
<rect width="1.1" height="10" x="104.27189762543868" fill="red" />
<rect width="1.1" height="10" x="103.27189762543868" fill="rgb(100% 99.432% 0%)" />
<rect width="1.1" height="10" x="102.27189762543868" fill="rgb(100% 99.404% 0%)" />
<rect width="1.1" height="10" x="101.27189762543868" fill="rgb(100% 99.377% 0%)" />
<rect width="1.1" height="10" x="100.27189762543868" fill="rgb(100% 99.349% 0%)" />
<rect width="1.1" height="10" x="99.27189762543868" fill="rgb(100% 99.321% 0%)" />
<rect width="1.1" height="10" x="98.27189762543868" fill="rgb(100% 99.293% 0%)" />
<rect width="1.1" height="10" x="97.27189762543868" fill="rgb(100% 99.266% 0%)" />
<rect width="1.1" height="10" x="96.27189762543868" fill="rgb(100% 99.238% 0%)" />
<rect width="1.1" height="10" x="95.27189762543868" fill="rgb(100% 99.21% 0%)" />
<rect width="1.1" height="10" x="94.27189762543868" fill="rgb(100% 99.183% 0.369%)" />
<rect width="1.1" height="10" x="93.27189762543868" fill="rgb(100% 99.156% 5.977%)" />
<rect width="1.1" height="10" x="92.27189762543868" fill="rgb(100% 99.128% 9.69%)" />
<rect width="1.1" height="10" x="91.27189762543868" fill="rgb(100% 99.101% 12.48%)" />
<rect width="1.1" height="10" x="90.27189762543868" fill="rgb(100% 99.074% 14.807%)" />
<rect width="1.1" height="10" x="89.27189762543868" fill="rgb(100% 99.047% 16.845%)" />
<rect width="1.1" height="10" x="88.27189762543868" fill="rgb(100% 99.02% 18.682%)" />
<rect width="1.1" height="10" x="87.27189762543868" fill="rgb(100% 98.993% 20.371%)" />
<rect width="1.1" height="10" x="86.27189762543868" fill="rgb(100% 98.966% 21.946%)" />
<rect width="1.1" height="10" x="85.27189762543868" fill="rgb(100% 98.939% 23.428%)" />
<rect width="1.1" height="10" x="84.27189762543868" fill="rgb(100% 98.912% 24.835%)" />
<rect width="1.1" height="10" x="83.27189762543868" fill="rgb(100% 98.885% 26.179%)" />
<rect width="1.1" height="10" x="82.27189762543868" fill="rgb(100% 98.859% 27.468%)" />
<rect width="1.1" height="10" x="81.27189762543868" fill="rgb(100% 98.832% 28.712%)" />
<rect width="1.1" height="10" x="80.27189762543868" fill="rgb(100% 98.806% 29.915%)" />
<rect width="1.1" height="10" x="79.27189762543868" fill="rgb(100% 98.779% 31.083%)" />
<rect width="1.1" height="10" x="78.27189762543868" fill="rgb(100% 98.753% 32.219%)" />
<rect width="1.1" height="10" x="77.27189762543868" fill="rgb(100% 98.727% 33.327%)" />
<rect width="1.1" height="10" x="76.27189762543868" fill="rgb(100% 98.7% 34.41%)" />
<rect width="1.1" height="10" x="75.27189762543868" fill="rgb(100% 98.674% 35.47%)" />
<rect width="1.1" height="10" x="74.27189762543868" fill="rgb(100% 98.648% 36.509%)" />
<rect width="1.1" height="10" x="73.27189762543868" fill="rgb(100% 98.622% 37.53%)" />
<rect width="1.1" height="10" x="72.27189762543868" fill="rgb(100% 98.597% 38.533%)" />
<rect width="1.1" height="10" x="71.27189762543868" fill="rgb(100% 98.571% 39.521%)" />
<rect width="1.1" height="10" x="70.27189762543868" fill="rgb(100% 98.545% 40.495%)" />
<rect width="1.1" height="10" x="69.27189762543868" fill="rgb(100% 98.52% 41.454%)" />
<rect width="1.1" height="10" x="68.27189762543868" fill="rgb(100% 98.494% 42.402%)" />
<rect width="1.1" height="10" x="67.27189762543868" fill="rgb(100% 98.469% 43.338%)" />
<rect width="1.1" height="10" x="66.27189762543868" fill="rgb(100% 98.443% 44.264%)" />
<rect width="1.1" height="10" x="65.27189762543868" fill="rgb(100% 98.418% 45.179%)" />
<rect width="1.1" height="10" x="64.27189762543868" fill="rgb(100% 98.393% 46.086%)" />
<rect width="1.1" height="10" x="63.27189762543868" fill="rgb(100% 98.368% 46.984%)" />
<rect width="1.1" height="10" x="62.27189762543868" fill="rgb(100% 98.343% 47.873%)" />
<rect width="1.1" height="10" x="61.27189762543868" fill="rgb(100% 98.318% 48.755%)" />
<rect width="1.1" height="10" x="60.27189762543868" fill="rgb(100% 98.293% 49.63%)" />
<rect width="1.1" height="10" x="59.27189762543868" fill="rgb(100% 98.269% 50.499%)" />
<rect width="1.1" height="10" x="58.27189762543868" fill="rgb(100% 98.244% 51.361%)" />
<rect width="1.1" height="10" x="57.27189762543868" fill="rgb(100% 98.219% 52.217%)" />
<rect width="1.1" height="10" x="56.27189762543868" fill="rgb(100% 98.195% 53.067%)" />
<rect width="1.1" height="10" x="55.27189762543868" fill="rgb(100% 98.171% 53.913%)" />
<rect width="1.1" height="10" x="54.27189762543868" fill="rgb(100% 98.147% 54.753%)" />
<rect width="1.1" height="10" x="53.27189762543868" fill="rgb(100% 98.122% 55.589%)" />
<rect width="1.1" height="10" x="52.27189762543868" fill="rgb(100% 98.099% 56.42%)" />
<rect width="1.1" height="10" x="51.27189762543868" fill="rgb(100% 98.075% 57.247%)" />
<rect width="1.1" height="10" x="50.27189762543868" fill="rgb(100% 98.051% 58.07%)" />
<rect width="1.1" height="10" x="49.27189762543868" fill="rgb(100% 98.027% 58.89%)" />
<rect width="1.1" height="10" x="48.27189762543868" fill="rgb(100% 98.004% 59.706%)" />
<rect width="1.1" height="10" x="47.27189762543868" fill="rgb(100% 97.98% 60.518%)" />
<rect width="1.1" height="10" x="46.27189762543868" fill="rgb(100% 97.957% 61.327%)" />
<rect width="1.1" height="10" x="45.27189762543868" fill="rgb(100% 97.934% 62.133%)" />
<rect width="1.1" height="10" x="44.27189762543868" fill="rgb(100% 97.911% 62.937%)" />
<rect width="1.1" height="10" x="43.27189762543868" fill="rgb(100% 97.888% 63.737%)" />
<rect width="1.1" height="10" x="42.27189762543868" fill="rgb(100% 97.865% 64.535%)" />
<rect width="1.1" height="10" x="41.27189762543868" fill="rgb(100% 97.842% 65.331%)" />
<rect width="1.1" height="10" x="40.27189762543868" fill="rgb(100% 97.819% 66.124%)" />
<rect width="1.1" height="10" x="39.27189762543868" fill="rgb(100% 97.797% 66.915%)" />
<rect width="1.1" height="10" x="38.27189762543868" fill="rgb(100% 97.774% 67.704%)" />
<rect width="1.1" height="10" x="37.27189762543868" fill="rgb(100% 97.752% 68.49%)" />
<rect width="1.1" height="10" x="36.27189762543868" fill="rgb(100% 97.73% 69.275%)" />
<rect width="1.1" height="10" x="35.27189762543868" fill="rgb(100% 97.708% 70.058%)" />
<rect width="1.1" height="10" x="34.27189762543868" fill="rgb(100% 97.686% 70.839%)" />
<rect width="1.1" height="10" x="33.27189762543868" fill="rgb(100% 97.664% 71.619%)" />
<rect width="1.1" height="10" x="32.27189762543868" fill="rgb(100% 97.642% 72.397%)" />
<rect width="1.1" height="10" x="31.271897625438683" fill="rgb(100% 97.621% 73.174%)" />
<rect width="1.1" height="10" x="30.271897625438683" fill="rgb(100% 97.599% 73.949%)" />
<rect width="1.1" height="10" x="29.271897625438683" fill="rgb(100% 97.578% 74.723%)" />
<rect width="1.1" height="10" x="28.271897625438683" fill="rgb(100% 97.557% 75.495%)" />
<rect width="1.1" height="10" x="27.271897625438683" fill="rgb(100% 97.535% 76.267%)" />
<rect width="1.1" height="10" x="26.271897625438683" fill="rgb(100% 97.514% 77.037%)" />
<rect width="1.1" height="10" x="25.271897625438683" fill="rgb(99.967% 97.494% 77.806%)" />
<rect width="1.1" height="10" x="24.271897625438683" fill="rgb(99.88% 97.473% 78.574%)" />
<rect width="1.1" height="10" x="23.271897625438683" fill="rgb(99.791% 97.452% 79.341%)" />
<rect width="1.1" height="10" x="22.271897625438683" fill="rgb(99.699% 97.432% 80.107%)" />
<rect width="1.1" height="10" x="21.271897625438683" fill="rgb(99.605% 97.412% 80.872%)" />
<rect width="1.1" height="10" x="20.271897625438683" fill="rgb(99.509% 97.392% 81.637%)" />
<rect width="1.1" height="10" x="19.271897625438683" fill="rgb(99.411% 97.372% 82.4%)" />
<rect width="1.1" height="10" x="18.271897625438683" fill="rgb(99.31% 97.352% 83.163%)" />
<rect width="1.1" height="10" x="17.271897625438683" fill="rgb(99.206% 97.332% 83.925%)" />
<rect width="1.1" height="10" x="16.271897625438683" fill="rgb(99.1% 97.312% 84.687%)" />
<rect width="1.1" height="10" x="15.271897625438683" fill="rgb(98.992% 97.293% 85.448%)" />
<rect width="1.1" height="10" x="14.271897625438683" fill="rgb(98.881% 97.274% 86.208%)" />
<rect width="1.1" height="10" x="13.271897625438683" fill="rgb(98.768% 97.254% 86.968%)" />
<rect width="1.1" height="10" x="12.271897625438683" fill="rgb(98.652% 97.235% 87.727%)" />
<rect width="1.1" height="10" x="11.271897625438683" fill="rgb(98.534% 97.216% 88.486%)" />
<rect width="1.1" height="10" x="10.271897625438683" fill="rgb(98.413% 97.198% 89.244%)" />
<rect width="1.1" height="10" x="9.271897625438683" fill="rgb(98.289% 97.179% 90.002%)" />
<rect width="1.1" height="10" x="8.271897625438683" fill="rgb(98.163% 97.161% 90.759%)" />
<rect width="1.1" height="10" x="7.271897625438683" fill="rgb(98.034% 97.142% 91.517%)" />
<rect width="1.1" height="10" x="6.271897625438683" fill="rgb(97.902% 97.124% 92.273%)" />
<rect width="1.1" height="10" x="5.271897625438683" fill="rgb(97.768% 97.106% 93.03%)" />
<rect width="1.1" height="10" x="4.271897625438683" fill="rgb(97.631% 97.088% 93.786%)" />
<rect width="1.1" height="10" x="3.271897625438683" fill="rgb(97.491% 97.071% 94.542%)" />
<rect width="1.1" height="10" x="2.271897625438683" fill="rgb(97.348% 97.053% 95.298%)" />
<rect width="1.1" height="10" x="1.2718976254386831" fill="rgb(97.203% 97.036% 96.053%)" />
<rect width="1.1" height="10" x="0.2718976254386831" fill="rgb(97.055% 97.019% 96.809%)" />
<rect width="123.27189762543868" height="25" y="15" fill="none" stroke="grey" stroke-width="0.2"/>
<polyline fill="none" stroke-width="0.2" stroke="red" points="123.27189762543868,15.003979173322229 122.27189762543868,15 121.27189762543868,15 120.27189762543868,15 119.27189762543868,15 118.27189762543868,15 117.27189762543868,15 116.27189762543868,15 115.27189762543868,15 114.27189762543868,15 113.27189762543868,15 112.27189762543868,15 111.27189762543868,15 110.27189762543868,15 109.27189762543868,15 108.27189762543868,15 107.27189762543868,15 106.27189762543868,15 105.27189762543868,15 104.27189762543868,15 103.27189762543868,15 102.27189762543868,15 101.27189762543868,15 100.27189762543868,15 99.27189762543868,15 98.27189762543868,15 97.27189762543868,15 96.27189762543868,15 95.27189762543868,15 94.27189762543868,15 93.27189762543868,15 92.27189762543868,15 91.27189762543868,15 90.27189762543868,15 89.27189762543868,15 88.27189762543868,15 87.27189762543868,15 86.27189762543868,15 85.27189762543868,15 84.27189762543868,15 83.27189762543868,15 82.27189762543868,15 81.27189762543868,15 80.27189762543868,15 79.27189762543868,15 78.27189762543868,15 77.27189762543868,15 76.27189762543868,15 75.27189762543868,15 74.27189762543868,15 73.27189762543868,15 72.27189762543868,15 71.27189762543868,15 70.27189762543868,15 69.27189762543868,15 68.27189762543868,15 67.27189762543868,15 66.27189762543868,15 65.27189762543868,15 64.27189762543868,15 63.27189762543868,15 62.27189762543868,15 61.27189762543868,15 60.27189762543868,15 59.27189762543868,15 58.27189762543868,15 57.27189762543868,15 56.27189762543868,15 55.27189762543868,15 54.27189762543868,15 53.27189762543868,15 52.27189762543868,15 51.27189762543868,15 50.27189762543868,15 49.27189762543868,15 48.27189762543868,15 47.27189762543868,15 46.27189762543868,15 45.27189762543868,15 44.27189762543868,15 43.27189762543868,15 42.27189762543868,15 41.27189762543868,15 40.27189762543868,15 39.27189762543868,15 38.27189762543868,15 37.27189762543868,15 36.27189762543868,15 35.27189762543868,15 34.27189762543868,15 33.27189762543868,15 32.27189762543868,15 31.271897625438683,15 30.271897625438683,15 29.271897625438683,15 28.271897625438683,15 27.271897625438683,15 26.271897625438683,15 25.271897625438683,15.018754079236171 24.271897625438683,15.068150750994526 23.271897625438683,15.118787280001467 22.271897625438683,15.170671006049233 21.271897625438683,15.223809267546972 20.271897625438683,15.278209401325682 19.271897625438683,15.333878742405037 18.271897625438683,15.390824623711843 17.271897625438683,15.449054375737003 16.271897625438683,15.50857532611364 15.271897625438683,15.569394799091167 14.271897625438683,15.63152011487319 13.271897625438683,15.694958588769317 12.271897625438683,15.759717530092693 11.271897625438683,15.825804240698893 10.271897625438683,15.893226013008132 9.271897625438683,15.961990127258542 8.271897625438683,16.032103847577837 7.271897625438683,16.10357441615883 6.271897625438683,16.17640904423786 5.271897625438683,16.25061489732949 4.271897625438683,16.326199069276125 3.271897625438683,16.403168532033813 2.271897625438683,16.481530024145773 1.2718976254386831,16.56128974307062 0.2718976254386831,16.64245207078899" />
<polyline fill="none" stroke-width="0.2" stroke="green" points="123.27189762543868,15 122.27189762543868,15.015818041245137 121.27189762543868,15.032187286043182 120.27189762543868,15.048528975780897 119.27189762543868,15.064842611278092 118.27189762543868,15.081127693363417 117.27189762543868,15.097383722873843 116.27189762543868,15.113610200654389 115.27189762543868,15.129806627557631 114.27189762543868,15.145972504443474 113.27189762543868,15.162107332178802 112.27189762543868,15.178210611637223 111.27189762543868,15.194281843698832 110.27189762543868,15.210320529250044 109.27189762543868,15.226326169183373 108.27189762543868,15.242298264397267 107.27189762543868,15.258236315795955 106.27189762543868,15.274139824289339 105.27189762543868,15.290008290792922 104.27189762543868,15.305841216227694 103.27189762543868,15.321638101519994 102.27189762543868,15.337398447601675 101.27189762543868,15.353121755409799 100.27189762543868,15.36880752588683 99.27189762543868,15.384455259980548 98.27189762543868,15.400064458644028 97.27189762543868,15.415634622835746 96.27189762543868,15.431165253519598 95.27189762543868,15.446655851664861 94.27189762543868,15.462105918246415 93.27189762543868,15.477514954244779 92.27189762543868,15.492882460646122 91.27189762543868,15.508207938442478 90.27189762543868,15.523490888631802 89.27189762543868,15.538730812218187 88.27189762543868,15.553927210211942 87.27189762543868,15.569079583629776 86.27189762543868,15.584187433495043 85.27189762543868,15.599250260837898 84.27189762543868,15.614267566695492 83.27189762543868,15.629238852112255 82.27189762543868,15.644163618140105 81.27189762543868,15.65904136583871 80.27189762543868,15.673871596275884 79.27189762543868,15.688653810527711 78.27189762543868,15.703387509679011 77.27189762543868,15.718072194823662 76.27189762543868,15.732707367064915 75.27189762543868,15.747292527515874 74.27189762543868,15.761827177299793 73.27189762543868,15.776310817550698 72.27189762543868,15.790742949413723 71.27189762543868,15.805123074045575 70.27189762543868,15.819450692615263 69.27189762543868,15.833725306304459 68.27189762543868,15.847946416308236 67.27189762543868,15.862113523835646 66.27189762543868,15.87622613011045 65.27189762543868,15.890283736371806 64.27189762543868,15.904285843875048 63.27189762543868,15.918231953892544 62.27189762543868,15.932121567714471 61.27189762543868,15.94595418664997 60.27189762543868,15.959729312027907 59.27189762543868,15.973446445198093 58.27189762543868,15.987105087532374 57.27189762543868,16.00070474042586 56.27189762543868,16.014244905298217 55.27189762543868,16.02772508359521 54.27189762543868,16.04114477678994 53.27189762543868,16.054503486384725 52.27189762543868,16.067800713912764 51.27189762543868,16.08103596093994 50.27189762543868,16.09420872906697 49.27189762543868,16.10731851993148 48.27189762543868,16.120364835210466 47.27189762543868,16.133347176622802 46.27189762543868,16.146265045932072 45.27189762543868,16.15911794494955 44.27189762543868,16.171905375537463 43.27189762543868,16.184626839612697 42.27189762543868,16.197281839150612 41.27189762543868,16.20986987618937 40.27189762543868,16.22239045283466 39.27189762543868,16.234843071264788 38.27189762543868,16.24722723373655 37.27189762543868,16.259542442591325 36.27189762543868,16.271788200262172 35.27189762543868,16.283964009281533 34.27189762543868,16.29606937228984 33.27189762543868,16.308103792045127 32.27189762543868,16.320066771433805 31.271897625438683,16.33195781348268 30.271897625438683,16.343776421372763 29.271897625438683,16.355522098454546 28.271897625438683,16.367194348265574 27.271897625438683,16.378792674550507 26.271897625438683,16.390316581284026 25.271897625438683,16.401765572697173 24.271897625438683,16.413139153308126 23.271897625438683,16.424436827957575 22.271897625438683,16.435658101850652 21.271897625438683,16.44680248060598 20.271897625438683,16.457869470314144 19.271897625438683,16.468858577607612 18.271897625438683,16.479769309745045 17.271897625438683,16.490601174714197 16.271897625438683,16.5013536813584 15.271897625438683,16.51202633953422 14.271897625438683,16.52261866031021 13.271897625438683,16.53313015622136 12.271897625438683,16.54356034159992 11.271897625438683,16.553908733014065 10.271897625438683,16.56417484986187 9.271897625438683,16.57435821519601 8.271897625438683,16.584458356904147 7.271897625438683,16.594474809458863 6.271897625438683,16.60440711662923 5.271897625438683,16.614254835919485 4.271897625438683,16.62401754637223 3.271897625438683,16.63369486367085 2.271897625438683,16.643286473690235 1.2718976254386831,16.652792225075487 0.2718976254386831,16.662212512794937" />
<polyline fill="none" stroke-width="0.2" stroke="blue" points="123.27189762543868,40 122.27189762543868,40 121.27189762543868,40 120.27189762543868,40 119.27189762543868,40 118.27189762543868,40 117.27189762543868,40 116.27189762543868,40 115.27189762543868,40 114.27189762543868,40 113.27189762543868,40 112.27189762543868,40 111.27189762543868,40 110.27189762543868,40 109.27189762543868,40 108.27189762543868,40 107.27189762543868,40 106.27189762543868,40 105.27189762543868,40 104.27189762543868,40 103.27189762543868,40 102.27189762543868,40 101.27189762543868,40 100.27189762543868,40 99.27189762543868,40 98.27189762543868,40 97.27189762543868,40 96.27189762543868,40 95.27189762543868,40 94.27189762543868,39.99286352673322 93.27189762543868,39.878176023916055 92.27189762543868,39.761290391388115 91.27189762543868,39.64218553571694 90.27189762543868,39.52084036346767 89.27189762543868,39.39723378120305 88.27189762543868,39.27134469548351 87.27189762543868,39.143152012867176 86.27189762543868,39.0126346399099 85.27189762543868,38.87977148316537 84.27189762543868,38.74454144918512 83.27189762543868,38.60692344451862 82.27189762543868,38.46689637571334 81.27189762543868,38.324439149314784 80.27189762543868,38.179530671866694 79.27189762543868,38.03214984991104 78.27189762543868,37.88227558998813 77.27189762543868,37.7298867986368 76.27189762543868,37.57496238239445 75.27189762543868,37.417481247797234 74.27189762543868,37.257422301380196 73.27189762543868,37.094764449677385 72.27189762543868,36.929486599222116 71.27189762543868,36.76156765654705 70.27189762543868,36.59098652818449 69.27189762543868,36.41772212066651 68.27189762543868,36.241753340525264 67.27189762543868,36.06305909429319 66.27189762543868,35.88161828850331 65.27189762543868,35.6974098296895 64.27189762543868,35.51041262438683 63.27189762543868,35.320605579131865 62.27189762543868,35.12796760046309 61.27189762543868,34.932477594921245 60.27189762543868,34.73411446904983 59.27189762543868,34.53285712939546 58.27189762543868,34.32868448250845 57.27189762543868,34.12157543494331 56.27189762543868,33.911508893259324 55.27189762543868,33.69846376402119 54.27189762543868,33.48241895379968 53.27189762543868,33.263353369172314 52.27189762543868,33.04124591672429 51.27189762543868,32.81607550304916 50.27189762543868,32.58782103474989 49.27189762543868,32.356461418439764 48.27189762543868,32.12197556074351 47.27189762543868,31.884342368298455 46.27189762543868,31.643540747755836 45.27189762543868,31.399549605782134 44.27189762543868,31.15234784906063 43.27189762543868,30.901914384293047 42.27189762543868,30.648228118201345 41.27189762543868,30.39126795752969 40.27189762543868,30.131012809046638 39.27189762543868,29.86744157954748 38.27189762543868,29.60053317585692 37.27189762543868,29.33026650483187 36.27189762543868,29.056620473364674 35.27189762543868,28.779573988386687 34.27189762543868,28.499105956872114 33.27189762543868,28.21519528584235 32.27189762543868,27.927820882370952 31.271897625438683,27.63696165358899 30.271897625438683,27.342596506691187 29.271897625438683,27.044704348942844 28.271897625438683,26.74326408768756 27.271897625438683,26.438254630356184 26.271897625438683,26.129654884476864 25.271897625438683,25.81744375768662 24.271897625438683,25.50160015774469 23.271897625438683,25.18210299254801 22.271897625438683,24.8589311701491 21.271897625438683,24.532063598777288 20.271897625438683,24.201479186863402 19.271897625438683,23.867156843069598 18.271897625438683,23.52907547632468 17.271897625438683,23.187213995867133 16.271897625438683,22.841551311297717 15.271897625438683,22.49206633264441 14.271897625438683,22.13873797044388 13.271897625438683,21.78154513584498 12.271897625438683,21.42046674074243 11.271897625438683,21.055481697952683 10.271897625438683,20.686568921450565 9.271897625438683,20.313707326695297 8.271897625438683,19.936875831093683 7.271897625438683,19.556053354682092 6.271897625438683,19.171218821174904 5.271897625438683,18.782351159668444 4.271897625438683,18.389429307614094 3.271897625438683,17.99243221652962 2.271897625438683,17.591338864592306 1.2718976254386831,17.186128291128988 0.2718976254386831,16.776779738443864" />
</svg>