<svg xmlns="http://www.w3.org/2000/svg" viewBox="-4 -4 140 30">
    <desc>Show a gradient from sRGB blue,
in LCH,
as Chroma is reduced from the max value (131) to near-zero
demonstrating a purpling mid-way.
1.1 is an egregious hack to avoid limited subpixel precision compositing artifacts
</desc>
<rect width="1.1" height="10" x="131.2" fill="rgb(0.019% 0.005% 99.996%)" />
<rect width="1.1" height="10" x="130.2" fill="rgb(2.664% 0.657% 99.401%)" />
<rect width="1.1" height="10" x="129.2" fill="rgb(5.156% 1.309% 98.806%)" />
<rect width="1.1" height="10" x="128.2" fill="rgb(7.07% 1.96% 98.212%)" />
<rect width="1.1" height="10" x="127.19999999999999" fill="rgb(8.622% 2.611% 97.619%)" />
<rect width="1.1" height="10" x="126.19999999999999" fill="rgb(9.945% 3.262% 97.026%)" />
<rect width="1.1" height="10" x="125.19999999999999" fill="rgb(11.108% 3.912% 96.434%)" />
<rect width="1.1" height="10" x="124.19999999999999" fill="rgb(12.15% 4.534% 95.842%)" />
<rect width="1.1" height="10" x="123.19999999999999" fill="rgb(13.097% 5.106% 95.251%)" />
<rect width="1.1" height="10" x="122.19999999999999" fill="rgb(13.967% 5.637% 94.661%)" />
<rect width="1.1" height="10" x="121.19999999999999" fill="rgb(14.772% 6.135% 94.071%)" />
<rect width="1.1" height="10" x="120.19999999999999" fill="rgb(15.522% 6.604% 93.482%)" />
<rect width="1.1" height="10" x="119.19999999999999" fill="rgb(16.224% 7.048% 92.894%)" />
<rect width="1.1" height="10" x="118.19999999999999" fill="rgb(16.884% 7.471% 92.306%)" />
<rect width="1.1" height="10" x="117.19999999999999" fill="rgb(17.508% 7.875% 91.719%)" />
<rect width="1.1" height="10" x="116.19999999999999" fill="rgb(18.098% 8.263% 91.133%)" />
<rect width="1.1" height="10" x="115.19999999999999" fill="rgb(18.657% 8.635% 90.547%)" />
<rect width="1.1" height="10" x="114.19999999999999" fill="rgb(19.19% 8.994% 89.962%)" />
<rect width="1.1" height="10" x="113.19999999999999" fill="rgb(19.697% 9.34% 89.377%)" />
<rect width="1.1" height="10" x="112.19999999999999" fill="rgb(20.182% 9.675% 88.793%)" />
<rect width="1.1" height="10" x="111.19999999999999" fill="rgb(20.645% 10% 88.21%)" />
<rect width="1.1" height="10" x="110.19999999999999" fill="rgb(21.088% 10.315% 87.627%)" />
<rect width="1.1" height="10" x="109.19999999999999" fill="rgb(21.513% 10.622% 87.045%)" />
<rect width="1.1" height="10" x="108.19999999999999" fill="rgb(21.92% 10.92% 86.464%)" />
<rect width="1.1" height="10" x="107.19999999999999" fill="rgb(22.312% 11.21% 85.883%)" />
<rect width="1.1" height="10" x="106.19999999999999" fill="rgb(22.688% 11.493% 85.303%)" />
<rect width="1.1" height="10" x="105.19999999999999" fill="rgb(23.049% 11.77% 84.724%)" />
<rect width="1.1" height="10" x="104.19999999999999" fill="rgb(23.397% 12.04% 84.145%)" />
<rect width="1.1" height="10" x="103.19999999999999" fill="rgb(23.732% 12.304% 83.567%)" />
<rect width="1.1" height="10" x="102.19999999999999" fill="rgb(24.054% 12.562% 82.99%)" />
<rect width="1.1" height="10" x="101.19999999999999" fill="rgb(24.365% 12.815% 82.413%)" />
<rect width="1.1" height="10" x="100.19999999999999" fill="rgb(24.665% 13.063% 81.837%)" />
<rect width="1.1" height="10" x="99.19999999999999" fill="rgb(24.953% 13.306% 81.261%)" />
<rect width="1.1" height="10" x="98.19999999999999" fill="rgb(25.232% 13.545% 80.686%)" />
<rect width="1.1" height="10" x="97.19999999999999" fill="rgb(25.5% 13.779% 80.112%)" />
<rect width="1.1" height="10" x="96.19999999999999" fill="rgb(25.759% 14.009% 79.539%)" />
<rect width="1.1" height="10" x="95.19999999999999" fill="rgb(26.009% 14.235% 78.966%)" />
<rect width="1.1" height="10" x="94.19999999999999" fill="rgb(26.25% 14.457% 78.394%)" />
<rect width="1.1" height="10" x="93.19999999999999" fill="rgb(26.483% 14.675% 77.822%)" />
<rect width="1.1" height="10" x="92.19999999999999" fill="rgb(26.707% 14.89% 77.251%)" />
<rect width="1.1" height="10" x="91.19999999999999" fill="rgb(26.924% 15.102% 76.681%)" />
<rect width="1.1" height="10" x="90.19999999999999" fill="rgb(27.133% 15.31% 76.112%)" />
<rect width="1.1" height="10" x="89.19999999999999" fill="rgb(27.334% 15.515% 75.543%)" />
<rect width="1.1" height="10" x="88.19999999999999" fill="rgb(27.528% 15.717% 74.975%)" />
<rect width="1.1" height="10" x="87.19999999999999" fill="rgb(27.715% 15.916% 74.407%)" />
<rect width="1.1" height="10" x="86.19999999999999" fill="rgb(27.895% 16.112% 73.84%)" />
<rect width="1.1" height="10" x="85.19999999999999" fill="rgb(28.069% 16.306% 73.274%)" />
<rect width="1.1" height="10" x="84.19999999999999" fill="rgb(28.236% 16.497% 72.709%)" />
<rect width="1.1" height="10" x="83.19999999999999" fill="rgb(28.397% 16.685% 72.144%)" />
<rect width="1.1" height="10" x="82.19999999999999" fill="rgb(28.551% 16.871% 71.58%)" />
<rect width="1.1" height="10" x="81.19999999999999" fill="rgb(28.7% 17.055% 71.016%)" />
<rect width="1.1" height="10" x="80.19999999999999" fill="rgb(28.843% 17.236% 70.453%)" />
<rect width="1.1" height="10" x="79.19999999999999" fill="rgb(28.98% 17.415% 69.891%)" />
<rect width="1.1" height="10" x="78.19999999999999" fill="rgb(29.111% 17.591% 69.33%)" />
<rect width="1.1" height="10" x="77.19999999999999" fill="rgb(29.238% 17.766% 68.769%)" />
<rect width="1.1" height="10" x="76.19999999999999" fill="rgb(29.358% 17.938% 68.209%)" />
<rect width="1.1" height="10" x="75.19999999999999" fill="rgb(29.474% 18.109% 67.65%)" />
<rect width="1.1" height="10" x="74.19999999999999" fill="rgb(29.584% 18.277% 67.091%)" />
<rect width="1.1" height="10" x="73.19999999999999" fill="rgb(29.69% 18.444% 66.533%)" />
<rect width="1.1" height="10" x="72.19999999999999" fill="rgb(29.79% 18.609% 65.975%)" />
<rect width="1.1" height="10" x="71.19999999999999" fill="rgb(29.886% 18.772% 65.419%)" />
<rect width="1.1" height="10" x="70.19999999999999" fill="rgb(29.977% 18.933% 64.863%)" />
<rect width="1.1" height="10" x="69.19999999999999" fill="rgb(30.063% 19.092% 64.307%)" />
<rect width="1.1" height="10" x="68.19999999999999" fill="rgb(30.145% 19.25% 63.753%)" />
<rect width="1.1" height="10" x="67.19999999999999" fill="rgb(30.222% 19.406% 63.199%)" />
<rect width="1.1" height="10" x="66.19999999999999" fill="rgb(30.295% 19.56% 62.645%)" />
<rect width="1.1" height="10" x="65.19999999999999" fill="rgb(30.363% 19.713% 62.093%)" />
<rect width="1.1" height="10" x="64.19999999999999" fill="rgb(30.427% 19.864% 61.541%)" />
<rect width="1.1" height="10" x="63.19999999999999" fill="rgb(30.487% 20.014% 60.99%)" />
<rect width="1.1" height="10" x="62.19999999999999" fill="rgb(30.543% 20.162% 60.439%)" />
<rect width="1.1" height="10" x="61.19999999999999" fill="rgb(30.595% 20.309% 59.889%)" />
<rect width="1.1" height="10" x="60.19999999999999" fill="rgb(30.642% 20.455% 59.34%)" />
<rect width="1.1" height="10" x="59.19999999999999" fill="rgb(30.686% 20.599% 58.791%)" />
<rect width="1.1" height="10" x="58.19999999999999" fill="rgb(30.726% 20.742% 58.243%)" />
<rect width="1.1" height="10" x="57.19999999999999" fill="rgb(30.761% 20.883% 57.696%)" />
<rect width="1.1" height="10" x="56.19999999999999" fill="rgb(30.793% 21.023% 57.149%)" />
<rect width="1.1" height="10" x="55.19999999999999" fill="rgb(30.822% 21.162% 56.604%)" />
<rect width="1.1" height="10" x="54.19999999999999" fill="rgb(30.846% 21.299% 56.058%)" />
<rect width="1.1" height="10" x="53.19999999999999" fill="rgb(30.867% 21.435% 55.514%)" />
<rect width="1.1" height="10" x="52.19999999999999" fill="rgb(30.884% 21.57% 54.97%)" />
<rect width="1.1" height="10" x="51.19999999999999" fill="rgb(30.898% 21.704% 54.427%)" />
<rect width="1.1" height="10" x="50.19999999999999" fill="rgb(30.907% 21.837% 53.884%)" />
<rect width="1.1" height="10" x="49.19999999999999" fill="rgb(30.914% 21.968% 53.342%)" />
<rect width="1.1" height="10" x="48.19999999999999" fill="rgb(30.917% 22.099% 52.801%)" />
<rect width="1.1" height="10" x="47.19999999999999" fill="rgb(30.916% 22.228% 52.26%)" />
<rect width="1.1" height="10" x="46.19999999999999" fill="rgb(30.912% 22.356% 51.72%)" />
<rect width="1.1" height="10" x="45.19999999999999" fill="rgb(30.905% 22.483% 51.181%)" />
<rect width="1.1" height="10" x="44.19999999999999" fill="rgb(30.894% 22.609% 50.642%)" />
<rect width="1.1" height="10" x="43.19999999999999" fill="rgb(30.88% 22.734% 50.104%)" />
<rect width="1.1" height="10" x="42.19999999999999" fill="rgb(30.862% 22.858% 49.566%)" />
<rect width="1.1" height="10" x="41.19999999999999" fill="rgb(30.842% 22.981% 49.03%)" />
<rect width="1.1" height="10" x="40.19999999999999" fill="rgb(30.818% 23.103% 48.493%)" />
<rect width="1.1" height="10" x="39.19999999999999" fill="rgb(30.79% 23.224% 47.958%)" />
<rect width="1.1" height="10" x="38.19999999999999" fill="rgb(30.76% 23.344% 47.423%)" />
<rect width="1.1" height="10" x="37.19999999999999" fill="rgb(30.726% 23.463% 46.888%)" />
<rect width="1.1" height="10" x="36.19999999999999" fill="rgb(30.689% 23.581% 46.355%)" />
<rect width="1.1" height="10" x="35.19999999999999" fill="rgb(30.649% 23.698% 45.821%)" />
<rect width="1.1" height="10" x="34.19999999999999" fill="rgb(30.606% 23.814% 45.289%)" />
<rect width="1.1" height="10" x="33.19999999999999" fill="rgb(30.56% 23.929% 44.757%)" />
<rect width="1.1" height="10" x="32.19999999999999" fill="rgb(30.511% 24.044% 44.225%)" />
<rect width="1.1" height="10" x="31.19999999999999" fill="rgb(30.458% 24.157% 43.694%)" />
<rect width="1.1" height="10" x="30.19999999999999" fill="rgb(30.403% 24.27% 43.164%)" />
<rect width="1.1" height="10" x="29.19999999999999" fill="rgb(30.344% 24.382% 42.634%)" />
<rect width="1.1" height="10" x="28.19999999999999" fill="rgb(30.282% 24.493% 42.104%)" />
<rect width="1.1" height="10" x="27.19999999999999" fill="rgb(30.218% 24.603% 41.576%)" />
<rect width="1.1" height="10" x="26.19999999999999" fill="rgb(30.15% 24.712% 41.047%)" />
<rect width="1.1" height="10" x="25.19999999999999" fill="rgb(30.079% 24.821% 40.519%)" />
<rect width="1.1" height="10" x="24.19999999999999" fill="rgb(30.005% 24.928% 39.992%)" />
<rect width="1.1" height="10" x="23.19999999999999" fill="rgb(29.929% 25.035% 39.465%)" />
<rect width="1.1" height="10" x="22.19999999999999" fill="rgb(29.849% 25.141% 38.938%)" />
<rect width="1.1" height="10" x="21.19999999999999" fill="rgb(29.766% 25.247% 38.412%)" />
<rect width="1.1" height="10" x="20.19999999999999" fill="rgb(29.68% 25.351% 37.887%)" />
<rect width="1.1" height="10" x="19.19999999999999" fill="rgb(29.592% 25.455% 37.361%)" />
<rect width="1.1" height="10" x="18.19999999999999" fill="rgb(29.5% 25.558% 36.836%)" />
<rect width="1.1" height="10" x="17.19999999999999" fill="rgb(29.405% 25.66% 36.312%)" />
<rect width="1.1" height="10" x="16.19999999999999" fill="rgb(29.308% 25.762% 35.787%)" />
<rect width="1.1" height="10" x="15.199999999999989" fill="rgb(29.207% 25.863% 35.263%)" />
<rect width="1.1" height="10" x="14.199999999999989" fill="rgb(29.104% 25.963% 34.74%)" />
<rect width="1.1" height="10" x="13.199999999999989" fill="rgb(28.997% 26.062% 34.216%)" />
<rect width="1.1" height="10" x="12.199999999999989" fill="rgb(28.888% 26.161% 33.693%)" />
<rect width="1.1" height="10" x="11.199999999999989" fill="rgb(28.775% 26.259% 33.17%)" />
<rect width="1.1" height="10" x="10.199999999999989" fill="rgb(28.66% 26.356% 32.647%)" />
<rect width="1.1" height="10" x="9.199999999999989" fill="rgb(28.541% 26.452% 32.124%)" />
<rect width="1.1" height="10" x="8.199999999999989" fill="rgb(28.42% 26.548% 31.601%)" />
<rect width="1.1" height="10" x="7.199999999999989" fill="rgb(28.296% 26.644% 31.078%)" />
<rect width="1.1" height="10" x="6.199999999999989" fill="rgb(28.168% 26.738% 30.555%)" />
<rect width="1.1" height="10" x="5.199999999999989" fill="rgb(28.038% 26.832% 30.032%)" />
<rect width="1.1" height="10" x="4.199999999999989" fill="rgb(27.904% 26.925% 29.509%)" />
<rect width="1.1" height="10" x="3.1999999999999886" fill="rgb(27.768% 27.018% 28.986%)" />
<rect width="1.1" height="10" x="2.1999999999999886" fill="rgb(27.628% 27.11% 28.463%)" />
<rect width="1.1" height="10" x="1.1999999999999886" fill="rgb(27.485% 27.201% 27.939%)" />
<rect width="1.1" height="10" x="0.19999999999998863" fill="rgb(27.34% 27.292% 27.415%)" />
<rect width="132" height="25" y="15" fill="none" stroke="grey" stroke-width="0.2"/>
<polyline fill="none" stroke-width="0.2" stroke="red" points="131.2,39.99964044341475 130.2,39.948453728677286 129.2,39.89805729117801 128.2,39.848446919798036 127.19999999999999,39.799618403393396 126.19999999999999,39.75156753079513 125.19999999999999,39.70429009080946 124.19999999999999,39.657781872217875 123.19999999999999,39.612038663777305 122.19999999999999,39.56705625422017 121.19999999999999,39.5228304322545 120.19999999999999,39.47935698656416 119.19999999999999,39.43663170580889 118.19999999999999,39.39465037862437 117.19999999999999,39.35340879362244 116.19999999999999,39.31290273939111 115.19999999999999,39.27312800449482 114.19999999999999,39.234080377474385 113.19999999999999,39.19575564684724 112.19999999999999,39.158149601107496 111.19999999999999,39.121258028726004 110.19999999999999,39.08507671815058 109.19999999999999,39.049601457806034 108.19999999999999,39.014828036094265 107.19999999999999,38.98075224139443 106.19999999999999,38.94736986206297 105.19999999999999,38.914676686433815 104.19999999999999,38.88266850281838 103.19999999999999,38.85134109950576 102.19999999999999,38.820690264762725 101.19999999999999,38.79071178683398 100.19999999999999,38.76140145394208 99.19999999999999,38.73275505428764 98.19999999999999,38.70476837604938 97.19999999999999,38.677437207384294 96.19999999999999,38.65075733642765 95.19999999999999,38.62472455129312 94.19999999999999,38.599334640072875 93.19999999999999,38.57458339083767 92.19999999999999,38.5504665916369 91.19999999999999,38.5269800304987 90.19999999999999,38.504119495430075 89.19999999999999,38.481880774416915 88.19999999999999,38.46025965542407 87.19999999999999,38.439251926395485 86.19999999999999,38.418853375254244 85.19999999999999,38.39905978990257 84.19999999999999,38.379866958222024 83.19999999999999,38.361270668073445 82.19999999999999,38.3432667072971 81.19999999999999,38.325850863712695 80.19999999999999,38.30901892511947 79.19999999999999,38.29276667929618 78.19999999999999,38.27708991400123 77.19999999999999,38.26198441697265 76.19999999999999,38.24744597592819 75.19999999999999,38.2334703785653 74.19999999999999,38.22005341256123 73.19999999999999,38.207190865573004 72.19999999999999,38.194878525237456 71.19999999999999,38.183112179171246 70.19999999999999,38.17188761497087 69.19999999999999,38.161200620212696 68.19999999999999,38.15104698245291 67.19999999999999,38.14142248922754 66.19999999999999,38.132322928052425 65.19999999999999,38.12374408642319 64.19999999999999,38.11568175181524 63.19999999999999,38.10813171168368 62.19999999999999,38.101089753463285 61.19999999999999,38.094551664568414 60.19999999999999,38.08851323239297 59.19999999999999,38.08297024431027 58.19999999999999,38.07791848767295 57.19999999999999,38.073353749812895 56.19999999999999,38.06927181804103 55.19999999999999,38.065668479647215 54.19999999999999,38.062539521900064 53.19999999999999,38.05988073204673 52.19999999999999,38.05768789731274 51.19999999999999,38.055956804901676 50.19999999999999,38.05468324199498 49.19999999999999,38.05386299575158 48.19999999999999,38.053491853307605 47.19999999999999,38.053565601775965 46.19999999999999,38.054080028246 45.19999999999999,38.05503091978293 44.19999999999999,38.056414063427404 43.19999999999999,38.0582252461949 42.19999999999999,38.06046025507507 41.19999999999999,38.06311487703104 40.19999999999999,38.06618489899863 39.19999999999999,38.0696661078854 38.19999999999999,38.07355429056976 37.19999999999999,38.07784523389975 36.19999999999999,38.08253472469186 35.19999999999999,38.0876185497296 34.19999999999999,38.09309249576191 33.19999999999999,38.098952349501396 32.19999999999999,38.105193897622314 31.19999999999999,38.11181292675825 30.19999999999999,38.11880522349952 29.19999999999999,38.12616657439021 28.19999999999999,38.133892765924756 27.19999999999999,38.14197958454397 26.19999999999999,38.15042281663055 25.19999999999999,38.159218248503784 24.19999999999999,38.16836166641338 23.19999999999999,38.177848856532286 22.19999999999999,38.18767560494814 21.19999999999999,38.197837697653156 20.19999999999999,38.208330920532056 19.19999999999999,38.21915105934746 18.19999999999999,38.2302938997222 17.19999999999999,38.24175522711755 16.19999999999999,38.253530826806326 15.199999999999989,38.26561648383912 14.199999999999989,38.27800798300135 13.199999999999989,38.29070110875809 12.199999999999989,38.3036916451816 11.199999999999989,38.316975375854724 10.199999999999989,38.33054808373904 9.199999999999989,38.344405550990366 8.199999999999989,38.35854355869264 7.199999999999989,38.372957886459936 6.199999999999989,38.38764431181414 5.199999999999989,38.40259860915573 4.199999999999989,38.41781654793329 3.1999999999999886,38.433293889050894 2.1999999999999886,38.44902637674182 1.1999999999999886,38.465009715545634 0.19999999999998863,38.481239470009065" />
<polyline fill="none" stroke-width="0.2" stroke="green" points="131.2,39.99990872302833 130.2,39.987285106849896 129.2,39.97467099215258 128.2,39.96206654108092 127.19999999999999,39.94947191578163 126.19999999999999,39.9368872784036 125.19999999999999,39.92431279109791 124.19999999999999,39.91174861601781 123.19999999999999,39.8991949153187 122.19999999999999,39.88665185115816 121.19999999999999,39.874119585695944 120.19999999999999,39.861598281093926 119.19999999999999,39.84908809951614 118.19999999999999,39.83658920312879 117.19999999999999,39.82410175410019 116.19999999999999,39.81162591460084 115.19999999999999,39.79916184680333 114.19999999999999,39.78670971288242 113.19999999999999,39.77426967501496 112.19999999999999,39.76184189537997 111.19999999999999,39.74942653615859 110.19999999999999,39.73702375953405 109.19999999999999,39.72463372769171 108.19999999999999,39.71225660281909 107.19999999999999,39.69989254710577 106.19999999999999,39.687541722743475 105.19999999999999,39.67520429192604 104.19999999999999,39.66288041684942 103.19999999999999,39.65057025971165 102.19999999999999,39.63827398271291 101.19999999999999,39.625991748055455 100.19999999999999,39.61372371794369 99.19999999999999,39.6014700545841 98.19999999999999,39.58923092018528 97.19999999999999,39.57700647695795 96.19999999999999,39.56479688711493 95.19999999999999,39.55260231287115 94.19999999999999,39.540422916443674 93.19999999999999,39.52825886005166 92.19999999999999,39.516110305916385 91.19999999999999,39.50397741626128 90.19999999999999,39.491860353311864 89.19999999999999,39.4797592792958 88.19999999999999,39.46767435644288 87.19999999999999,39.45560574698505 86.19999999999999,39.443553613156375 85.19999999999999,39.43151811719309 84.19999999999999,39.41949942133359 83.19999999999999,39.40749768781842 82.19999999999999,39.39551307889029 81.19999999999999,39.38354575679413 80.19999999999999,39.37159588377701 79.19999999999999,39.35966362208824 78.19999999999999,39.34774913397933 77.19999999999999,39.33585258170402 76.19999999999999,39.32397412751827 75.19999999999999,39.31211393368032 74.19999999999999,39.300272162450675 73.19999999999999,39.288448976092106 72.19999999999999,39.2766445368697 71.19999999999999,39.26485900705089 70.19999999999999,39.253092548905414 69.19999999999999,39.24134532470541 68.19999999999999,39.22961749672539 67.19999999999999,39.21790922724231 66.19999999999999,39.20622067853555 65.19999999999999,39.19455201288699 64.19999999999999,39.182903392581004 63.19999999999999,39.17127497990453 62.19999999999999,39.15966693714709 61.19999999999999,39.14807942660083 60.19999999999999,39.13651261056058 59.19999999999999,39.12496665132388 58.19999999999999,39.113441711191065 57.19999999999999,39.10193795246529 56.19999999999999,39.0904555374526 55.19999999999999,39.078994628462006 54.19999999999999,39.06755538780555 53.19999999999999,39.05613797779838 52.19999999999999,39.04474256075884 51.19999999999999,39.03336929900856 50.19999999999999,39.02201835487255 49.19999999999999,39.01068989067932 48.19999999999999,38.99938406876098 47.19999999999999,38.988101051453384 46.19999999999999,38.97684100109626 45.19999999999999,38.96560408003338 44.19999999999999,38.9543904506127 43.19999999999999,38.94320027518658 42.19999999999999,38.93203371611193 41.19999999999999,38.92089093575053 40.19999999999999,38.909772096469155 39.19999999999999,38.898677360639944 38.19999999999999,38.88760689064066 37.19999999999999,38.87656084885503 36.19999999999999,38.86553939767311 35.19999999999999,38.854542699491724 34.19999999999999,38.84357091671491 33.19999999999999,38.832624211754435 32.19999999999999,38.82170274703042 31.19999999999999,38.81080668497196 30.19999999999999,38.79993618801789 29.19999999999999,38.78909141861767 28.19999999999999,38.77827253923232 27.19999999999999,38.767479712335565 26.19999999999999,38.75671310041512 25.19999999999999,38.745972865974174 24.19999999999999,38.735259171533166 23.19999999999999,38.72457217963176 22.19999999999999,38.71391205283128 21.19999999999999,38.70327895371755 20.19999999999999,38.692673044904254 19.19999999999999,38.68209448903701 18.19999999999999,38.67154344879835 17.19999999999999,38.66102008691372 16.19999999999999,38.65052456615898 15.199999999999989,38.640057049369794 14.199999999999989,38.62961769945348 13.199999999999989,38.61920667940434 12.199999999999989,38.60882415232361 11.199999999999989,38.598470281446176 10.199999999999989,38.58814523017684 9.199999999999989,38.577849162141135 8.199999999999989,38.56758224125843 7.199999999999989,38.557344631851144 6.199999999999989,38.547136498815355 5.199999999999989,38.5369580079025 4.199999999999989,38.52680932621978 3.1999999999999886,38.516690623211055 2.1999999999999886,38.50660207287255 1.1999999999999886,38.496543860022015 0.19999999999998863,38.486516207573615" />
<polyline fill="none" stroke-width="0.2" stroke="blue" points="131.2,15.00238564996225 130.2,15.339553063528939 129.2,15.673707383006665 128.2,16.004862147672423 127.19999999999999,16.333030896872195 126.19999999999999,16.65822717002059 125.19999999999999,16.98046450660046 124.19999999999999,17.299756446162444 123.19999999999999,17.616116528324675 122.19999999999999,17.929558292772242 121.19999999999999,18.240095279256995 120.19999999999999,18.547741027596995 119.19999999999999,18.85250907767612 118.19999999999999,19.15441296944385 117.19999999999999,19.453466242914722 116.19999999999999,19.749682438168048 115.19999999999999,20.04307509534742 114.19999999999999,20.333657754660447 113.19999999999999,20.62144395637833 112.19999999999999,20.906447240835437 111.19999999999999,21.188681148429076 110.19999999999999,21.468159219618954 109.19999999999999,21.744894994926867 108.19999999999999,22.018902014936383 107.19999999999999,22.290193820292405 106.19999999999999,22.558783951700853 105.19999999999999,22.82468594992827 104.19999999999999,23.087913355801458 103.19999999999999,23.348479710207148 102.19999999999999,23.60639855409162 101.19999999999999,23.8616834284603 100.19999999999999,24.114347874377483 99.19999999999999,24.36440543296594 98.19999999999999,24.61186964540658 97.19999999999999,24.856754052938044 96.19999999999999,25.099072196856447 95.19999999999999,25.33883761851493 94.19999999999999,25.576063859323426 93.19999999999999,25.81076446074818 92.19999999999999,26.04295296431156 91.19999999999999,26.272642911591625 90.19999999999999,26.49984784422172 89.19999999999999,26.724581303890318 88.19999999999999,26.946856832340533 87.19999999999999,27.166687971369846 86.19999999999999,27.384088262829763 85.19999999999999,27.59907124862552 84.19999999999999,27.81165047071568 83.19999999999999,28.021839471111917 82.19999999999999,28.22965179187858 81.19999999999999,28.43510097513245 80.19999999999999,28.638200563042368 79.19999999999999,28.83896409782897 78.19999999999999,29.03740512176435 77.19999999999999,29.233537177171762 76.19999999999999,29.42737380642526 75.19999999999999,29.618928551949452 74.19999999999999,29.808214956219174 73.19999999999999,29.995246561759195 72.19999999999999,30.180036911143898 71.19999999999999,30.362599546997004 70.19999999999999,30.5429480119913 69.19999999999999,30.721095848848293 68.19999999999999,30.897056600337965 67.19999999999999,31.070843809278497 66.19999999999999,31.242471018535966 65.19999999999999,31.411951771024093 64.19999999999999,31.57929960970395 63.19999999999999,31.744528077583702 62.19999999999999,31.90765071771834 61.19999999999999,32.06868107320945 60.19999999999999,32.227632687204924 59.19999999999999,32.38451910289873 58.19999999999999,32.539353863530685 57.19999999999999,32.692150512386206 56.19999999999999,32.84292259279605 55.19999999999999,32.991683648136146 54.19999999999999,33.138447221827356 53.19999999999999,33.28322685733527 52.19999999999999,33.426036098169995 51.19999999999999,33.566888487886004 50.19999999999999,33.70579757008191 49.19999999999999,33.84277688840035 48.19999999999999,33.97783998652781 47.19999999999999,34.111000408194485 46.19999999999999,34.24227169717415 45.19999999999999,34.37166739728406 44.19999999999999,34.49920105238489 43.19999999999999,34.62488620638061 42.19999999999999,34.74873640321849 41.19999999999999,34.87076518688908 40.19999999999999,34.990986101426216 39.19999999999999,35.10941269090705 38.19999999999999,35.226058499452165 37.19999999999999,35.340937071225675 36.19999999999999,35.454061950435445 35.19999999999999,35.565446681333285 34.19999999999999,35.67510480821526 33.19999999999999,35.78304987542207 32.19999999999999,35.889295427339526 31.19999999999999,35.99385500839907 30.19999999999999,36.0967421630785 29.19999999999999,36.19797043590276 28.19999999999999,36.297553371444934 27.19999999999999,36.39550451432743 26.19999999999999,36.49183740922338 25.19999999999999,36.586565600858336 24.19999999999999,36.67970263401232 23.19999999999999,36.77126205352223 22.19999999999999,36.86125740428482 21.19999999999999,36.94970223126027 20.19999999999999,37.036610079476525 19.19999999999999,37.12199449403471 18.19999999999999,37.20586902011566 17.19999999999999,37.288247202988195 16.19999999999999,37.36914258801948 15.199999999999989,37.448568720688115 14.199999999999989,37.52653914660109 13.199999999999989,37.603067411515795 12.199999999999989,37.67816706136926 11.199999999999989,37.75185164231753 10.199999999999989,37.82413470079005 9.199999999999989,37.89502978356651 8.199999999999989,37.96455043788882 7.199999999999989,38.032710211630274 6.199999999999989,38.09952265356264 5.199999999999989,38.16500131380223 4.199999999999989,38.22915974461088 3.1999999999999886,38.29201150198329 2.1999999999999886,38.353570149271725 1.1999999999999886,38.41384926755419 0.19999999999998863,38.472862501235745" />
</svg>