<svg xmlns="http://www.w3.org/2000/svg" viewBox="0 0 67 45" width="670" height="450">
<desc>Show a MacBeth color checker.
Rectangular patches are sRGB, converted from averaged measured Lab values.
Circles show same Lab values, converted to CMYK
with an ICC profile
for premium coated paper, tac 300% and medium GCR
with the FOGRA51 characterization set.
CMYK values then "naively" converted to sRGB.
Note: the cyan patch has has the LCH Chroma reduced,
to bring it inside the sRGB gamut.
See file Macbeth.txt in the workings directory for details.
</desc>
<style>
.dark_skin rect { fill: rgb(45.8702% 32.0071% 26.3813%)}
.dark_skin circle { fill: rgb(34.7185% 20.6131% 20.4378%)}
.light_skin rect { fill: rgb(78.0170% 58.1957% 50.7737%)}
.light_skin circle { fill: rgb(75.8831% 51.4729% 52.0931%)}
.blue_sky rect { fill: rgb(35.8614% 48.0665% 61.6556%)}
.blue_sky circle { fill: rgb(28.2084% 50.0647% 73.0029%)}
.foliage rect { fill: rgb(34.9582% 42.3446% 25.4209%)}
.foliage circle { fill: rgb(24.22442% 40.4274% 13.0995%)}
.blue_flower rect { fill: rgb(51.2952% 50.4131% 68.9186%)}
.blue_flower circle { fill: rgb(43.9053% 49.5836% 91.4840%)}
.bluish_green rect { fill: rgb(36.8792% 74.3685% 67.4749%)}
.bluish_green circle { fill: rgb(38.0345%, 100%, 61.5359%)}
.orange rect { fill: rgb(87.3729% 48.7430% 17.2037%)}
.orange circle { fill: rgb(89.8193% 39.3982% 08.0897%)}
.purplish_blue rect { fill: rgb(27.0560% 36.0687% 65.7971%)}
.purplish_blue circle { fill: rgb(15.5480%, 31.9881%, 100%)}
.moderate_red rect { fill: rgb(78.2366% 32.9961% 38.2061%)}
.moderate_red circle { fill: rgb(79.5503% 19.9126% 47.3225%)}
.purple rect { fill: rgb(36.0261% 23.3161% 40.6449%)}
.purple circle { fill: rgb(22.4482% 10.6694% 57.4543%)}
.yellow_green rect { fill: rgb(62.3751% 74.0184% 24.7942%)}
.yellow_green circle { fill: rgb(56.0010% 90.8711% 11.3204%)}
.orange_yellow rect { fill: rgb(90.4681% 63.3661% 15.2514%)}
.orange_yellow circle { fill: rgb(91.06378% 58.6249% 07.7578%)}
.blue rect { fill: rgb(15.4346% 24.3828% 57.7067%)}
.blue circle { fill: rgb(0% 15.36345% 100%)}
.green rect { fill: rgb(26.3893% 58.1384% 28.6863%)}
.green circle { fill: rgb(24.2328% 78.5567% 11.6881%)}
.red rect { fill: rgb(71.3817% 18.0672% 22.0930%)}
.red circle { fill: rgb(71.8569% 03.3919% 19.4753%)}
.yellow rect { fill: rgb(94.0483% 78.3571% 08.8101%)}
.yellow circle { fill: rgb(92.2356% 79.3988% 06.3391%)}
.magenta rect { fill: rgb(75.57340% 32.8857% 58.4776%)}
.magenta circle { fill: rgb(75.6256% 20.4181% 96.5624%)}
.desat_cyan rect { fill: rgb(00.0904% 52.0570% 62.8808%)}
.desat_cyan circle { fill: rgb(15.4753% 64.0985% 63.6236%)}
.white_95 rect { fill: rgb(96.1749% 95.9684% 94.2031%)}
.white_95 circle { fill: rgb(95.7548% 96.8200% 94.4196%)}
.neutral_8 rect { fill: rgb(78.4876% 79.0090% 78.7352%)}
.neutral_8 circle { fill: rgb(75.7074% 81.9636% 81.9095%)}
.neutral_65 rect { fill: rgb(62.8550% 63.2928% 63.2408%)}
.neutral_65 circle { fill: rgb(56.9163% 64.3765% 65.4528%)}
.neutral_5 rect { fill: rgb(46.9112% 47.6060% 47.6211%)}
.neutral_5 circle { fill: rgb(37.1232% 43.8253% 46.2425%)}
.neutral_35 rect { fill: rgb(32.4963% 33.0535% 33.2257%)}
.neutral_35 circle { fill: rgb(20.1207% 25.0340% 27.9617%)}
.black_2 rect { fill: rgb(19.4628% 19.5396% 19.7948%)}
.black_2 circle { fill: rgb(06.0706% 08.0080% 10.4959%)}

#xmacbeth circle {display: none}
</style>
<rect width="100%" height="100%" fill="#222"/>
<g id="macbeth">
<g class="row1">
<g class="dark_skin">
    <rect x="1" y="1" width="10" height="10"/>
    <circle r="3" cx="6" cy="6"/>
</g>
<g class="light_skin" transform="translate(11,0)">
    <rect x="1" y="1" width="10" height="10"/>
    <circle r="3" cx="6" cy="6"/>
</g>
<g class="blue_sky" transform="translate(22,0)">
    <rect x="1" y="1" width="10" height="10"/>
    <circle r="3" cx="6" cy="6"/>
</g>
<g class="foliage" transform="translate(33,0)">
    <rect x="1" y="1" width="10" height="10"/>
    <circle r="3" cx="6" cy="6"/>
</g>
<g class="blue_flower" transform="translate(44,0)">
    <rect x="1" y="1" width="10" height="10"/>
    <circle r="3" cx="6" cy="6"/>
</g>
<g class="bluish_green" transform="translate(55,0)">
    <rect x="1" y="1" width="10" height="10"/>
    <circle r="3" cx="6" cy="6"/>
</g>
</g>
<g class="row2">
<g class="orange" transform="translate(0,11)">
    <rect x="1" y="1" width="10" height="10"/>
    <circle r="3" cx="6" cy="6"/>
</g>
<g class="purplish_blue" transform="translate(11,11)">
    <rect x="1" y="1" width="10" height="10"/>
    <circle r="3" cx="6" cy="6"/>
</g>
<g class="moderate_red" transform="translate(22,11)">
    <rect x="1" y="1" width="10" height="10"/>
    <circle r="3" cx="6" cy="6"/>
</g>
<g class="purple" transform="translate(33,11)">
    <rect x="1" y="1" width="10" height="10"/>
    <circle r="3" cx="6" cy="6"/>
</g>
<g class="yellow_green" transform="translate(44,11)">
    <rect x="1" y="1" width="10" height="10"/>
    <circle r="3" cx="6" cy="6"/>
</g>
<g class="orange_yellow" transform="translate(55,11)">
    <rect x="1" y="1" width="10" height="10"/>
    <circle r="3" cx="6" cy="6"/>
</g>
</g>
<g class="row3">
<g class="blue" transform="translate(0,22)">
    <rect x="1" y="1" width="10" height="10"/>
    <circle r="3" cx="6" cy="6"/>
</g>
<g class="green" transform="translate(11,22)">
    <rect x="1" y="1" width="10" height="10"/>
    <circle r="3" cx="6" cy="6"/>
</g>
<g class="red" transform="translate(22,22)">
    <rect x="1" y="1" width="10" height="10"/>
    <circle r="3" cx="6" cy="6"/>
</g>
<g class="yellow" transform="translate(33,22)">
    <rect x="1" y="1" width="10" height="10"/>
    <circle r="3" cx="6" cy="6"/>
</g>
<g class="magenta" transform="translate(44,22)">
    <rect x="1" y="1" width="10" height="10"/>
    <circle r="3" cx="6" cy="6"/>
</g>
<g class="desat_cyan" transform="translate(55,22)">
    <rect x="1" y="1" width="10" height="10"/>
    <circle r="3" cx="6" cy="6"/>
</g>
</g>
<g class="row4">
<g class="white_95" transform="translate(0,33)">
    <rect x="1" y="1" width="10" height="10"/>
    <circle r="3" cx="6" cy="6"/>
</g>
<g class="neutral_8" transform="translate(11,33)">
    <rect x="1" y="1" width="10" height="10"/>
    <circle r="3" cx="6" cy="6"/>
</g>
<g class="neutral_65" transform="translate(22,33)">
    <rect x="1" y="1" width="10" height="10"/>
    <circle r="3" cx="6" cy="6"/>
</g>
<g class="neutral_5" transform="translate(33,33)">
    <rect x="1" y="1" width="10" height="10"/>
    <circle r="3" cx="6" cy="6"/>
</g>
<g class="neutral_35" transform="translate(44,33)">
    <rect x="1" y="1" width="10" height="10"/>
    <circle r="3" cx="6" cy="6"/>
</g>
<g class="black_2" transform="translate(55,33)">
    <rect x="1" y="1" width="10" height="10"/>
    <circle r="3" cx="6" cy="6"/>
</g>
</g>
</g>
</svg>