<svg xmlns="http://www.w3.org/2000/svg" viewBox="-140 -140 290 280" overflow="visible" width="580" height="560">
<desc>Show a top-down view of the CIE Lab color space.
      The display-p3 primaries and secondaries are shown,
      with an annotation indicating the L value.
      For comparison, the sRGB primaries and secondaries are also shown.
</desc>
<rect x="-140" y="-140" width="100%" height="100%" fill="white" />
<g fill="none" stroke="black" stroke-width="0.5">

<!-- axes -->
​<polyline points="0 -120 0 120"/>
<polyline points="-120 0 120 0"/>

<!-- tic marks -->
<g stroke="#888">
<path d="M-3,-110 h6 M-3,-100 h6 M-3,-90 h6 M-3,-80 h6 M-3,-70 h6 M-3,-60 h6 M-3,-50 h6 M-3,-40 h6 M-3,-30 h6 M-3,-20 h6 M-3,-10 h6 M-3,10 h6 M-3,20 h6 M-3,30 h6 M-3,40 h6 M-3,50 h6 M-3,60 h6 M-3,70 h6 M-3,80 h6 M-3,90 h6 M-3,100 h6 M-3,110 h6"/>
<path d="M110,-3 v6 M100,-3 v6 M90,-3 v6 M80,-3 v6 M70,-3 v6 M60,-3 v6 M50,-3 v6 M40,-3 v6 M30,-3 v6 M20,-3 v6 M10,-3 v6 M-10,-3 v6 M-20,-3 v6 M-30,-3 v6 M-40,-3 v6 M-50,-3 v6 M-60,-3 v6 M-70,-3 v6 M-80,-3 v6 M-90,-3 v6 M-100,-3 v6 M-110,-3 v6"/>



<g stroke-dasharray="1 2" stroke="#bbb">
<!-- radial lines for sRGB  hue angle and chroma -->
<polyline points="0,0 80.81,-69.88"/>
<polyline points="0,0 -79.28,-80.99"/>
<polyline points="0,0 68.29,112.02"/>
<polyline points="0,0 -50.66,14.96"/>
<polyline points="0,0 93.54,60.49"/>
<polyline points="0,0 -15.75,-93.38"/>
</g>
<!-- radial lines for hue angle and chroma -->
<polyline points="0,0 94.469,-98.883"/>
<polyline points="0,0 -106.559,-102.871"/>
<polyline points="0,0 70.472,115.594"/>

<polyline points="0,0 -68.471,17.676"/>
<polyline points="0,0 105.781,61.540"/>
<polyline points="0,0 -17.445,-122.031"/>
</g>
</g>

<!-- sRGB primaries and secondaries -->
<g stroke-dasharray="1 2" stroke="#bbb" stroke-width="0.5" fill="white">
  <circle r="3" cx="80.81247134537588" cy="-69.88502268764606" fill="#FF000040"/>
  <circle r="3" cx="-79.2872863932051" cy="-80.99026038511582" fill="#00FF0040"/>
  <circle r="3" cx="68.29859917400466" cy="112.02941005918544" fill="#0000FF40"/>
  <circle r="3" cx="-50.665438698900886" cy="14.962023848069572" fill="#00FFFF40"/>
  <circle r="3" cx="93.54998546820059" cy="60.49854210467602" fill="#FF00FF40"/>
  <circle r="3" cx="-15.75288562782686" cy="-93.38840952541491" fill="#FFFF0040"/>
</g>

<!-- P3 primaries and secondaries -->
<!-- the fill colors are *not the P3 colors* -->
<g stroke="none" stroke-width="0.5">
  <circle r="3" cx="94.46921335172436" cy="-98.88385117001721" fill="red"/>
  <circle r="3" cx="-106.55984962161652" cy="-102.87178748239607" fill="green"/>
  <circle r="3" cx="70.47201646990844" cy="115.59444807877672" fill="blue"/>
  <circle r="3" cx="-68.47179865153824" cy="17.67647619832107" fill="cyan"/>
  <circle r="3" cx="105.78124033281067" cy="61.54049809723661" fill="magenta"/>
  <circle r="3" cx="-17.445233726661346" cy="-122.03124421392577" fill="yellow"/>
</g>

<circle r="4"/>
<circle r="3" fill="#777"/>
<circle r="2" fill="#fff"/>
<g font-family="sans-serif" font-size="6pt">
<!-- haha not really 6pt but a unit is required per CSS -->
  <text x="120" y="-3">+a</text>
  <text x="-120.5" y="-3" text-anchor="end">-a</text>
  <text x="4" y="122">-b</text>
  <text x="4" y="-118">+b</text>
</g>

<g font-family="sans-serif" font-size="5pt">
  <text x="88" y="-80">L: 56.2047%<tspan x="88" dy="10">C: 136.75689<tspan x="88" dy="10">H: 46.3080</tspan></tspan></text>
  <text x="-134" y="-85.9">L: 86.6146%<tspan x="-134" dy="10">C: 148.1135<tspan x="-134" dy="10">H: 136.0089</tspan></tspan></text>
  <text x="75" y="97">L: 29.5676%<tspan x="75" dy="10">C: 131.2070<tspan x="75" dy="10">H: 301.3685</tspan></tspan></text>
  <text x="-116" y="12">L: 89.8048%<tspan x="-116" dy="10">C: 70.7166<tspan x="-116" dy="10">H: 194.4753</tspan></tspan></text>
  <text x="105" y="35">L: 62.3180%<tspan x="105" dy="10">C: 122.3802<tspan x="105" dy="10">H: 329.8104</tspan></tspan></text>
  <text x="-63" y="-120">L: 97.3656%<tspan x="-63" dy="10">C: 123.2719<tspan x="-63" dy="10">H: 98.1357</tspan></tspan></text>

</g>
</svg>