<svg xmlns="http://www.w3.org/2000/svg" viewBox="-4 -4 140 60">
<rect width="1.1" height="10" x="123.27265724223571" fill="salmon" />
<rect width="1.1" height="10" x="122.27265724223571" fill="salmon" />
<rect width="1.1" height="10" x="121.27265724223571" fill="salmon" />
<rect width="1.1" height="10" x="120.27265724223571" fill="salmon" />
<rect width="1.1" height="10" x="119.27265724223571" fill="salmon" />
<rect width="1.1" height="10" x="118.27265724223571" fill="salmon" />
<rect width="1.1" height="10" x="117.27265724223571" fill="salmon" />
<rect width="1.1" height="10" x="116.27265724223571" fill="salmon" />
<rect width="1.1" height="10" x="115.27265724223571" fill="salmon" />
<rect width="1.1" height="10" x="114.27265724223571" fill="salmon" />
<rect width="1.1" height="10" x="113.27265724223571" fill="salmon" />
<rect width="1.1" height="10" x="112.27265724223571" fill="salmon" />
<rect width="1.1" height="10" x="111.27265724223571" fill="salmon" />
<rect width="1.1" height="10" x="110.27265724223571" fill="salmon" />
<rect width="1.1" height="10" x="109.27265724223571" fill="salmon" />
<rect width="1.1" height="10" x="108.27265724223571" fill="salmon" />
<rect width="1.1" height="10" x="107.27265724223571" fill="salmon" />
<rect width="1.1" height="10" x="106.27265724223571" fill="salmon" />
<rect width="1.1" height="10" x="105.27265724223571" fill="rgb(99.08% 99.72% 6.21%)" />
<rect width="1.1" height="10" x="104.27265724223571" fill="rgb(99.03% 99.7% 10.75%)" />
<rect width="1.1" height="10" x="103.27265724223571" fill="rgb(98.98% 99.68% 14%)" />
<rect width="1.1" height="10" x="102.27265724223571" fill="rgb(98.93% 99.66% 16.65%)" />
<rect width="1.1" height="10" x="101.27265724223571" fill="rgb(98.88% 99.64% 18.92%)" />
<rect width="1.1" height="10" x="100.27265724223571" fill="rgb(98.83% 99.62% 20.94%)" />
<rect width="1.1" height="10" x="99.27265724223571" fill="rgb(98.79% 99.6% 22.78%)" />
<rect width="1.1" height="10" x="98.27265724223571" fill="rgb(98.74% 99.58% 24.48%)" />
<rect width="1.1" height="10" x="97.27265724223571" fill="rgb(98.69% 99.55% 26.06%)" />
<rect width="1.1" height="10" x="96.27265724223571" fill="rgb(98.64% 99.53% 27.55%)" />
<rect width="1.1" height="10" x="95.27265724223571" fill="rgb(98.6% 99.51% 28.95%)" />
<rect width="1.1" height="10" x="94.27265724223571" fill="rgb(98.55% 99.49% 30.29%)" />
<rect width="1.1" height="10" x="93.27265724223571" fill="rgb(98.5% 99.46% 31.57%)" />
<rect width="1.1" height="10" x="92.27265724223571" fill="rgb(98.46% 99.44% 32.8%)" />
<rect width="1.1" height="10" x="91.27265724223571" fill="rgb(98.41% 99.42% 33.99%)" />
<rect width="1.1" height="10" x="90.27265724223571" fill="rgb(98.36% 99.39% 35.13%)" />
<rect width="1.1" height="10" x="89.27265724223571" fill="rgb(98.32% 99.37% 36.23%)" />
<rect width="1.1" height="10" x="88.27265724223571" fill="rgb(98.27% 99.34% 37.31%)" />
<rect width="1.1" height="10" x="87.27265724223571" fill="rgb(98.23% 99.32% 38.35%)" />
<rect width="1.1" height="10" x="86.27265724223571" fill="rgb(98.18% 99.29% 39.37%)" />
<rect width="1.1" height="10" x="85.27265724223571" fill="rgb(98.14% 99.26% 40.36%)" />
<rect width="1.1" height="10" x="84.27265724223571" fill="rgb(98.09% 99.24% 41.33%)" />
<rect width="1.1" height="10" x="83.27265724223571" fill="rgb(98.05% 99.21% 42.27%)" />
<rect width="1.1" height="10" x="82.27265724223571" fill="rgb(98.01% 99.18% 43.2%)" />
<rect width="1.1" height="10" x="81.27265724223571" fill="rgb(97.96% 99.15% 44.11%)" />
<rect width="1.1" height="10" x="80.27265724223571" fill="rgb(97.92% 99.13% 45%)" />
<rect width="1.1" height="10" x="79.27265724223571" fill="rgb(97.88% 99.1% 45.87%)" />
<rect width="1.1" height="10" x="78.27265724223571" fill="rgb(97.83% 99.07% 46.73%)" />
<rect width="1.1" height="10" x="77.27265724223571" fill="rgb(97.79% 99.04% 47.57%)" />
<rect width="1.1" height="10" x="76.27265724223571" fill="rgb(97.75% 99.01% 48.41%)" />
<rect width="1.1" height="10" x="75.27265724223571" fill="rgb(97.71% 98.98% 49.22%)" />
<rect width="1.1" height="10" x="74.27265724223571" fill="rgb(97.66% 98.95% 50.03%)" />
<rect width="1.1" height="10" x="73.27265724223571" fill="rgb(97.62% 98.92% 50.83%)" />
<rect width="1.1" height="10" x="72.27265724223571" fill="rgb(97.58% 98.88% 51.61%)" />
<rect width="1.1" height="10" x="71.27265724223571" fill="rgb(97.54% 98.85% 52.39%)" />
<rect width="1.1" height="10" x="70.27265724223571" fill="rgb(97.5% 98.82% 53.15%)" />
<rect width="1.1" height="10" x="69.27265724223571" fill="rgb(97.46% 98.79% 53.91%)" />
<rect width="1.1" height="10" x="68.27265724223571" fill="rgb(97.42% 98.75% 54.65%)" />
<rect width="1.1" height="10" x="67.27265724223571" fill="rgb(97.38% 98.72% 55.39%)" />
<rect width="1.1" height="10" x="66.27265724223571" fill="rgb(97.34% 98.69% 56.12%)" />
<rect width="1.1" height="10" x="65.27265724223571" fill="rgb(97.3% 98.65% 56.84%)" />
<rect width="1.1" height="10" x="64.27265724223571" fill="rgb(97.26% 98.62% 57.56%)" />
<rect width="1.1" height="10" x="63.27265724223571" fill="rgb(97.22% 98.58% 58.26%)" />
<rect width="1.1" height="10" x="62.27265724223571" fill="rgb(97.18% 98.54% 58.96%)" />
<rect width="1.1" height="10" x="61.27265724223571" fill="rgb(97.15% 98.51% 59.66%)" />
<rect width="1.1" height="10" x="60.27265724223571" fill="rgb(97.11% 98.47% 60.35%)" />
<rect width="1.1" height="10" x="59.27265724223571" fill="rgb(97.07% 98.43% 61.03%)" />
<rect width="1.1" height="10" x="58.27265724223571" fill="rgb(97.03% 98.4% 61.71%)" />
<rect width="1.1" height="10" x="57.27265724223571" fill="rgb(97% 98.36% 62.38%)" />
<rect width="1.1" height="10" x="56.27265724223571" fill="rgb(96.96% 98.32% 63.04%)" />
<rect width="1.1" height="10" x="55.27265724223571" fill="rgb(96.92% 98.28% 63.7%)" />
<rect width="1.1" height="10" x="54.27265724223571" fill="rgb(96.89% 98.24% 64.36%)" />
<rect width="1.1" height="10" x="53.27265724223571" fill="rgb(96.85% 98.2% 65.01%)" />
<rect width="1.1" height="10" x="52.27265724223571" fill="rgb(96.82% 98.16% 65.65%)" />
<rect width="1.1" height="10" x="51.27265724223571" fill="rgb(96.78% 98.12% 66.29%)" />
<rect width="1.1" height="10" x="50.27265724223571" fill="rgb(96.74% 98.08% 66.93%)" />
<rect width="1.1" height="10" x="49.27265724223571" fill="rgb(96.71% 98.04% 67.56%)" />
<rect width="1.1" height="10" x="48.27265724223571" fill="rgb(96.68% 98% 68.19%)" />
<rect width="1.1" height="10" x="47.27265724223571" fill="rgb(96.64% 97.95% 68.82%)" />
<rect width="1.1" height="10" x="46.27265724223571" fill="rgb(96.61% 97.91% 69.44%)" />
<rect width="1.1" height="10" x="45.27265724223571" fill="rgb(96.57% 97.87% 70.05%)" />
<rect width="1.1" height="10" x="44.27265724223571" fill="rgb(96.54% 97.82% 70.67%)" />
<rect width="1.1" height="10" x="43.27265724223571" fill="rgb(96.51% 97.78% 71.28%)" />
<rect width="1.1" height="10" x="42.27265724223571" fill="rgb(96.48% 97.73% 71.88%)" />
<rect width="1.1" height="10" x="41.27265724223571" fill="rgb(96.44% 97.69% 72.48%)" />
<rect width="1.1" height="10" x="40.27265724223571" fill="rgb(96.41% 97.64% 73.08%)" />
<rect width="1.1" height="10" x="39.27265724223571" fill="rgb(96.38% 97.6% 73.68%)" />
<rect width="1.1" height="10" x="38.27265724223571" fill="rgb(96.35% 97.55% 74.27%)" />
<rect width="1.1" height="10" x="37.27265724223571" fill="rgb(96.32% 97.5% 74.87%)" />
<rect width="1.1" height="10" x="36.27265724223571" fill="rgb(96.29% 97.45% 75.45%)" />
<rect width="1.1" height="10" x="35.27265724223571" fill="rgb(96.26% 97.41% 76.04%)" />
<rect width="1.1" height="10" x="34.27265724223571" fill="rgb(96.23% 97.36% 76.62%)" />
<rect width="1.1" height="10" x="33.27265724223571" fill="rgb(96.2% 97.31% 77.2%)" />
<rect width="1.1" height="10" x="32.27265724223571" fill="rgb(96.17% 97.26% 77.78%)" />
<rect width="1.1" height="10" x="31.27265724223571" fill="rgb(96.14% 97.21% 78.35%)" />
<rect width="1.1" height="10" x="30.27265724223571" fill="rgb(96.11% 97.16% 78.92%)" />
<rect width="1.1" height="10" x="29.27265724223571" fill="rgb(96.08% 97.1% 79.49%)" />
<rect width="1.1" height="10" x="28.27265724223571" fill="rgb(96.05% 97.05% 80.06%)" />
<rect width="1.1" height="10" x="27.27265724223571" fill="rgb(96.02% 97% 80.63%)" />
<rect width="1.1" height="10" x="26.27265724223571" fill="rgb(96% 96.95% 81.19%)" />
<rect width="1.1" height="10" x="25.27265724223571" fill="rgb(95.97% 96.89% 81.75%)" />
<rect width="1.1" height="10" x="24.27265724223571" fill="rgb(95.94% 96.84% 82.31%)" />
<rect width="1.1" height="10" x="23.27265724223571" fill="rgb(95.92% 96.79% 82.87%)" />
<rect width="1.1" height="10" x="22.27265724223571" fill="rgb(95.89% 96.73% 83.42%)" />
<rect width="1.1" height="10" x="21.27265724223571" fill="rgb(95.86% 96.68% 83.97%)" />
<rect width="1.1" height="10" x="20.27265724223571" fill="rgb(95.84% 96.62% 84.52%)" />
<rect width="1.1" height="10" x="19.27265724223571" fill="rgb(95.81% 96.56% 85.07%)" />
<rect width="1.1" height="10" x="18.27265724223571" fill="rgb(95.79% 96.51% 85.62%)" />
<rect width="1.1" height="10" x="17.27265724223571" fill="rgb(95.76% 96.45% 86.17%)" />
<rect width="1.1" height="10" x="16.27265724223571" fill="rgb(95.74% 96.39% 86.71%)" />
<rect width="1.1" height="10" x="15.27265724223571" fill="rgb(95.71% 96.33% 87.25%)" />
<rect width="1.1" height="10" x="14.27265724223571" fill="rgb(95.69% 96.27% 87.79%)" />
<rect width="1.1" height="10" x="13.27265724223571" fill="rgb(95.67% 96.21% 88.33%)" />
<rect width="1.1" height="10" x="12.27265724223571" fill="rgb(95.64% 96.15% 88.87%)" />
<rect width="1.1" height="10" x="11.27265724223571" fill="rgb(95.62% 96.09% 89.4%)" />
<rect width="1.1" height="10" x="10.27265724223571" fill="rgb(95.6% 96.03% 89.94%)" />
<rect width="1.1" height="10" x="9.27265724223571" fill="rgb(95.58% 95.97% 90.47%)" />
<rect width="1.1" height="10" x="8.27265724223571" fill="rgb(95.56% 95.91% 91%)" />
<rect width="1.1" height="10" x="7.272657242235709" fill="rgb(95.54% 95.85% 91.53%)" />
<rect width="1.1" height="10" x="6.272657242235709" fill="rgb(95.51% 95.78% 92.06%)" />
<rect width="1.1" height="10" x="5.272657242235709" fill="rgb(95.49% 95.72% 92.58%)" />
<rect width="1.1" height="10" x="4.272657242235709" fill="rgb(95.47% 95.65% 93.11%)" />
<rect width="1.1" height="10" x="3.2726572422357094" fill="rgb(95.45% 95.59% 93.63%)" />
<rect width="1.1" height="10" x="2.2726572422357094" fill="rgb(95.43% 95.52% 94.16%)" />
<rect width="1.1" height="10" x="1.2726572422357094" fill="rgb(95.42% 95.46% 94.68%)" />
<rect width="1.1" height="10" x="0.2726572422357094" fill="rgb(95.4% 95.39% 95.2%)" />
<rect width="123.27265724223571" height="25" y="15" fill="none" stroke="grey" stroke-width="0.2"/>
<polyline fill="none" stroke-width="0.2" stroke="red" points="123.27265724223571,15.000000000000039 122.27265724223571,15.02610291716783 121.27265724223571,15.052126398888724 120.27265724223571,15.07807019567402 119.27265724223571,15.103934058035097 118.27265724223571,15.129717736483222 117.27265724223571,15.155420981529709 116.27265724223571,15.181043543685913 115.27265724223571,15.206585173463065 114.27265724223571,15.232045621372578 113.27265724223571,15.257424637925741 112.27265724223571,15.282721973633823 111.27265724223571,15.30793737900827 110.27265724223571,15.33307060456028 109.27265724223571,15.358121400801174 108.27265724223571,15.38308951824234 107.27265724223571,15.407974707395049 106.27265724223571,15.432776718770661 105.27265724223571,15.457495302880371 104.27265724223571,15.482130210235589 103.27265724223571,15.50668119134765 102.27265724223571,15.531147996727814 101.27265724223571,15.555530376887415 100.27265724223571,15.579828082337762 99.27265724223571,15.604040863590225 98.27265724223571,15.62816847115607 97.27265724223571,15.652210655546615 96.27265724223571,15.676167167273206 95.27265724223571,15.700037756847134 94.27265724223571,15.723822174779745 93.27265724223571,15.747520171582266 92.27265724223571,15.771131497766163 91.27265724223571,15.79465590384266 90.27265724223571,15.818093140323047 89.27265724223571,15.84144295771872 88.27265724223571,15.864705106540917 87.27265724223571,15.887879337300994 86.27265724223571,15.910965400510293 85.27265724223571,15.933963046680148 84.27265724223571,15.956872026321822 83.27265724223571,15.979692089946628 82.27265724223571,16.002422988065984 81.27265724223571,16.025064471191055 80.27265724223571,16.047616289833236 79.27265724223571,16.070078194503786 78.27265724223571,16.092449935714118 77.27265724223571,16.114731263975475 76.27265724223571,16.13692192979923 75.27265724223571,16.159021683696665 74.27265724223571,16.181030276179058 73.27265724223571,16.20294745775784 72.27265724223571,16.224772978944223 71.27265724223571,16.246506590249577 70.27265724223571,16.26814804218516 69.27265724223571,16.289697085262357 68.27265724223571,16.311153469992455 67.27265724223571,16.33251694688676 66.27265724223571,16.353787266456642 65.27265724223571,16.374964179213322 64.27265724223571,16.39604743566822 63.27265724223571,16.417036786332595 62.27265724223571,16.437931981717714 61.27265724223571,16.45873277233502 60.27265724223571,16.479438908695744 59.27265724223571,16.50005014131118 58.27265724223571,16.520566220692775 57.27265724223571,16.540986897351733 56.27265724223571,16.56131192179938 55.27265724223571,16.581541044547045 54.27265724223571,16.601674016106077 53.27265724223571,16.621710586987753 52.27265724223571,16.641650507703368 51.27265724223571,16.66149352876433 50.27265724223571,16.68123940068189 49.27265724223571,16.700887873967293 48.27265724223571,16.720438699131975 47.27265724223571,16.73989162668725 46.27265724223571,16.75924640714438 45.27265724223571,16.778502791014695 44.27265724223571,16.797660528809523 43.27265724223571,16.816719371040172 42.27265724223571,16.83567906821799 41.27265724223571,16.854539370854205 40.27265724223571,16.87330002946025 39.27265724223571,16.891960794547362 38.27265724223571,16.91052141662687 37.27265724223571,16.928981646210158 36.27265724223571,16.94734123380851 35.27265724223571,16.96559992993319 34.27265724223571,16.983757485095534 33.27265724223571,17.00181364980686 32.27265724223571,17.019768174578456 31.27265724223571,17.03762080992171 30.27265724223571,17.055371306347904 29.27265724223571,17.07301941436833 28.27265724223571,17.090564884494412 27.27265724223571,17.10800746723732 26.27265724223571,17.12534691310845 25.27265724223571,17.142582972619085 24.27265724223571,17.159715396280568 23.27265724223571,17.17674393460424 22.27265724223571,17.19366833810139 21.27265724223571,17.210488357283324 20.27265724223571,17.22720374266138 19.27265724223571,17.24381424474687 18.27265724223571,17.26031961405109 17.27265724223571,17.276719601085393 16.27265724223571,17.293013956361058 15.27265724223571,17.309202430389416 14.27265724223571,17.325284773681773 13.27265724223571,17.341260736749486 12.27265724223571,17.357130070103857 11.27265724223571,17.372892524256127 10.27265724223571,17.388547849717703 9.27265724223571,17.40409579699989 8.27265724223571,17.419536116613926 7.272657242235709,17.434868559071298 6.272657242235709,17.450092874883175 5.272657242235709,17.465208814560924 4.272657242235709,17.480216128615794 3.2726572422357094,17.495114567559177 2.2726572422357094,17.50990388190243 1.2726572422357094,17.52458382215672 0.2726572422357094,17.53915413883343" />
<polyline fill="none" stroke-width="0.2" stroke="green" points="123.27265724223571,14.999999999999972 122.27265724223571,15.008010219533368 121.27265724223571,15.01620274099578 120.27265724223571,15.02457818824561 119.27265724223571,15.033137185141168 118.27265724223571,15.041880355540897 117.27265724223571,15.050808323303148 116.27265724223571,15.05992171228629 115.27265724223571,15.069221146348735 114.27265724223571,15.078707249348795 113.27265724223571,15.088380645144895 112.27265724223571,15.098241957595391 111.27265724223571,15.10829181055859 110.27265724223571,15.118530827892982 109.27265724223571,15.128959633456876 108.27265724223571,15.139578851108656 107.27265724223571,15.150389104706683 106.27265724223571,15.16139101810932 105.27265724223571,15.172585215175015 104.27265724223571,15.183972319762095 103.27265724223571,15.195552955728918 102.27265724223571,15.207327746933888 101.27265724223571,15.21929731723537 100.27265724223571,15.231462290491741 99.27265724223571,15.243823290561352 98.27265724223571,15.256380941302616 97.27265724223571,15.269135866573901 96.27265724223571,15.282088690233547 95.27265724223571,15.295240036139955 94.27265724223571,15.308590528151452 93.27265724223571,15.3221407901265 92.27265724223571,15.335891445923405 91.27265724223571,15.34984311940055 90.27265724223571,15.363996434416347 89.27265724223571,15.378352014829133 88.27265724223571,15.392910484497282 87.27265724223571,15.407672467279202 86.27265724223571,15.422638587033248 85.27265724223571,15.437809467617779 84.27265724223571,15.453185732891182 83.27265724223571,15.468768006711823 82.27265724223571,15.484556912938046 81.27265724223571,15.5005530754283 80.27265724223571,15.51675711804091 79.27265724223571,15.533169664634308 78.27265724223571,15.549791339066797 77.27265724223571,15.566622765196772 76.27265724223571,15.583664566882621 75.27265724223571,15.600917367982685 74.27265724223571,15.618381792355397 73.27265724223571,15.636058463859072 72.27265724223571,15.65394800635211 71.27265724223571,15.67205104369285 70.27265724223571,15.690368199739748 69.27265724223571,15.70890009835113 68.27265724223571,15.727647363385351 67.27265724223571,15.746610618700831 66.27265724223571,15.765790488155872 65.27265724223571,15.785187595608953 64.27265724223571,15.80480256491835 63.27265724223571,15.824636019942506 62.27265724223571,15.844688584539767 61.27265724223571,15.864960882568479 60.27265724223571,15.885453537887042 59.27265724223571,15.906167174353868 58.27265724223571,15.927102415827257 57.27265724223571,15.94825988616562 56.27265724223571,15.969640209227368 55.27265724223571,15.991244008870826 54.27265724223571,16.013071908954377 53.27265724223571,16.035124533336408 52.27265724223571,16.057402505875288 51.27265724223571,16.079906450429366 50.27265724223571,16.10263699085704 49.27265724223571,16.125594751016717 48.27265724223571,16.148780354766725 47.27265724223571,16.17219442596544 46.27265724223571,16.195837588471257 45.27265724223571,16.219710466142544 44.27265724223571,16.243813682837665 43.27265724223571,16.268147862415027 42.27265724223571,16.292713628732958 41.27265724223571,16.31751160564987 40.27265724223571,16.342542417024088 39.27265724223571,16.367806686714033 38.27265724223571,16.39330503857806 37.27265724223571,16.41903809647453 36.27265724223571,16.445006484261818 35.27265724223571,16.47121082579836 34.27265724223571,16.497651744942477 33.27265724223571,16.524329865552566 32.27265724223571,16.55124581148699 31.27265724223571,16.578400206604126 30.27265724223571,16.605793674762307 29.27265724223571,16.633426839819982 28.27265724223571,16.661300325635445 27.27265724223571,16.689414756067155 26.27265724223571,16.71777075497345 25.27265724223571,16.746368946212684 24.27265724223571,16.775209953643227 23.27265724223571,16.804294401123492 22.27265724223571,16.83362291251183 21.27265724223571,16.863196111666625 20.27265724223571,16.89301462244623 19.27265724223571,16.92307906870903 18.27265724223571,16.953390074313422 17.27265724223571,16.983948263117735 16.27265724223571,17.014754258980396 15.27265724223571,17.045808685759752 14.27265724223571,17.077112167314162 13.27265724223571,17.108665327502 12.27265724223571,17.14046879018165 11.27265724223571,17.172523179211527 10.27265724223571,17.204829118449965 9.27265724223571,17.23738723175534 8.27265724223571,17.270198142986064 7.272657242235709,17.303262476000423 6.272657242235709,17.33658085465688 5.272657242235709,17.370153902813758 4.272657242235709,17.403982244329466 3.2726572422357094,17.43806650306235 2.2726572422357094,17.47240730287079 1.2726572422357094,17.507005267613213 0.2726572422357094,17.54186102114794" />
<polyline fill="none" stroke-width="0.2" stroke="blue" points="123.27265724223571,40.00000000000001 122.27265724223571,39.87782602529593 121.27265724223571,39.754793934548566 120.27265724223571,39.63090075670941 119.27265724223571,39.506143520730014 118.27265724223571,39.38051925556192 117.27265724223571,39.2540249901567 116.27265724223571,39.126657753465835 115.27265724223571,38.99841457444093 114.27265724223571,38.86929248203349 113.27265724223571,38.73928850519504 112.27265724223571,38.608399672877155 111.27265724223571,38.47662301403134 110.27265724223571,38.343955557609156 109.27265724223571,38.21039433256216 108.27265724223571,38.075936367841855 107.27265724223571,37.9405786923998 106.27265724223571,37.804318335187524 105.27265724223571,37.66715232515657 104.27265724223571,37.52907769125852 103.27265724223571,37.390091462444865 102.27265724223571,37.25019066766716 101.27265724223571,37.10937233587694 100.27265724223571,36.96763349602576 99.27265724223571,36.82497117706516 98.27265724223571,36.681382407946664 97.27265724223571,36.53686421762184 96.27265724223571,36.391413635042184 95.27265724223571,36.24502768915927 94.27265724223571,36.09770340892463 93.27265724223571,35.94943782328979 92.27265724223571,35.800227961206325 91.27265724223571,35.65007085162574 90.27265724223571,35.49896352349959 89.27265724223571,35.3469030057794 88.27265724223571,35.193886327416756 87.27265724223571,35.039910517363154 86.27265724223571,34.884972604570144 85.27265724223571,34.72906961798927 84.27265724223571,34.57219858657207 83.27265724223571,34.414356539270095 82.27265724223571,34.25554050503486 81.27265724223571,34.095747512817894 80.27265724223571,33.93497459157079 79.27265724223571,33.77321877024509 78.27265724223571,33.61047707779229 77.27265724223571,33.44674654316396 76.27265724223571,33.28202419531159 75.27265724223571,33.11630706318678 74.27265724223571,32.94959217574105 73.27265724223571,32.781876561925934 72.27265724223571,32.613157250692986 71.27265724223571,32.443431270993706 70.27265724223571,32.27269565177968 69.27265724223571,32.100947422002434 68.27265724223571,31.928183610613516 67.27265724223571,31.75440124656445 66.27265724223571,31.57959735880678 65.27265724223571,31.403768976292046 64.27265724223571,31.226913127971805 63.27265724223571,31.049026842797595 62.27265724223571,30.870107149720937 61.27265724223571,30.690151077693375 60.27265724223571,30.509155655666444 59.27265724223571,30.3271179125917 58.27265724223571,30.14403487742069 57.27265724223571,29.95990357910493 56.27265724223571,29.77472104659595 55.27265724223571,29.588484308845345 54.27265724223571,29.401190394804637 53.27265724223571,29.212836333425322 52.27265724223571,29.023419153658985 51.27265724223571,28.83293588445713 50.27265724223571,28.641383554771327 49.27265724223571,28.448759193553112 48.27265724223571,28.255059829754035 47.27265724223571,28.060282492325612 46.27265724223571,27.864424210219397 45.27265724223571,27.667482012386927 44.27265724223571,27.46945292777974 43.27265724223571,27.27033398534938 42.27265724223571,27.070122214047366 41.27265724223571,26.868814642825292 40.27265724223571,26.66640830063465 39.27265724223571,26.462900216426974 38.27265724223571,26.258287419153852 37.27265724223571,26.052566937766773 36.27265724223571,25.8457358012173 35.27265724223571,25.637791038456946 34.27265724223571,25.42872967843733 33.27265724223571,25.218548750109942 32.27265724223571,25.007245282426318 31.27265724223571,24.794816304337992 30.27265724223571,24.58125884479655 29.27265724223571,24.36656993275347 28.27265724223571,24.150746597160317 27.27265724223571,23.933785866968638 26.27265724223571,23.715684771129972 25.27265724223571,23.496440338595892 24.27265724223571,23.27604959831787 23.27265724223571,23.054509579247473 22.27265724223571,22.831817310336273 21.27265724223571,22.60796982053576 20.27265724223571,22.382964138797508 19.27265724223571,22.156797294073044 18.27265724223571,21.929466315313924 17.27265724223571,21.70096823147166 16.27265724223571,21.471300071497822 15.27265724223571,21.240458864343957 14.27265724223571,21.00844163896158 13.27265724223571,20.775245424302184 12.27265724223571,20.540867249317408 11.27265724223571,20.30530414295873 10.27265724223571,20.068553134177723 9.27265724223571,19.830611251925895 8.27265724223571,19.591475525154838 7.272657242235709,19.351142982816018 6.272657242235709,19.109610653861004 5.272657242235709,18.866875567241397 4.272657242235709,18.622934751908684 3.2726572422357094,18.37778523681438 2.2726572422357094,18.131424050910073 1.2726572422357094,17.88384822314729 0.2726572422357094,17.635054782477596" />
<g style="font: 1.5px sans-serif; text-anchor: middle">
<text x="0" y="-1">0</text>
<text x="30.19294008482016" y="-1">0.06</text>
<text x="60.38588016964032" y="-1">0.12</text>
<text x="90.57882025446048" y="-1">0.18</text>
<text x="120.77176033928065" y="-1">0.24</text>
</g>
</svg>