<svg xmlns="http://www.w3.org/2000/svg" viewBox="-4 -4 140 60">
<rect width="1.1" height="10" x="123.27265724223571" fill="salmon" />
<rect width="1.1" height="10" x="122.27265724223571" fill="salmon" />
<rect width="1.1" height="10" x="121.27265724223571" fill="salmon" />
<rect width="1.1" height="10" x="120.27265724223571" fill="salmon" />
<rect width="1.1" height="10" x="119.27265724223571" fill="salmon" />
<rect width="1.1" height="10" x="118.27265724223571" fill="salmon" />
<rect width="1.1" height="10" x="117.27265724223571" fill="salmon" />
<rect width="1.1" height="10" x="116.27265724223571" fill="salmon" />
<rect width="1.1" height="10" x="115.27265724223571" fill="salmon" />
<rect width="1.1" height="10" x="114.27265724223571" fill="salmon" />
<rect width="1.1" height="10" x="113.27265724223571" fill="rgb(99.48% 99.86% 0%)" />
<rect width="1.1" height="10" x="112.27265724223571" fill="rgb(99.43% 99.84% 0%)" />
<rect width="1.1" height="10" x="111.27265724223571" fill="rgb(99.38% 99.82% 0%)" />
<rect width="1.1" height="10" x="110.27265724223571" fill="rgb(99.33% 99.81% 0%)" />
<rect width="1.1" height="10" x="109.27265724223571" fill="rgb(99.28% 99.79% 0%)" />
<rect width="1.1" height="10" x="108.27265724223571" fill="rgb(99.23% 99.77% 0%)" />
<rect width="1.1" height="10" x="107.27265724223571" fill="rgb(99.18% 99.75% 0%)" />
<rect width="1.1" height="10" x="106.27265724223571" fill="rgb(99.13% 99.74% 0%)" />
<rect width="1.1" height="10" x="105.27265724223571" fill="rgb(99.08% 99.72% 6.21%)" />
<rect width="1.1" height="10" x="104.27265724223571" fill="rgb(99.03% 99.7% 10.75%)" />
<rect width="1.1" height="10" x="103.27265724223571" fill="rgb(98.98% 99.68% 14%)" />
<rect width="1.1" height="10" x="102.27265724223571" fill="rgb(98.93% 99.66% 16.65%)" />
<rect width="1.1" height="10" x="101.27265724223571" fill="rgb(98.88% 99.64% 18.92%)" />
<rect width="1.1" height="10" x="100.27265724223571" fill="rgb(98.83% 99.62% 20.94%)" />
<rect width="1.1" height="10" x="99.27265724223571" fill="rgb(98.79% 99.6% 22.78%)" />
<rect width="1.1" height="10" x="98.27265724223571" fill="rgb(98.74% 99.58% 24.48%)" />
<rect width="1.1" height="10" x="97.27265724223571" fill="rgb(98.69% 99.55% 26.06%)" />
<rect width="1.1" height="10" x="96.27265724223571" fill="rgb(98.64% 99.53% 27.55%)" />
<rect width="1.1" height="10" x="95.27265724223571" fill="rgb(98.6% 99.51% 28.95%)" />
<rect width="1.1" height="10" x="94.27265724223571" fill="rgb(98.55% 99.49% 30.29%)" />
<rect width="1.1" height="10" x="93.27265724223571" fill="rgb(98.5% 99.46% 31.57%)" />
<rect width="1.1" height="10" x="92.27265724223571" fill="rgb(98.46% 99.44% 32.8%)" />
<rect width="1.1" height="10" x="91.27265724223571" fill="rgb(98.41% 99.42% 33.99%)" />
<rect width="1.1" height="10" x="90.27265724223571" fill="rgb(98.36% 99.39% 35.13%)" />
<rect width="1.1" height="10" x="89.27265724223571" fill="rgb(98.32% 99.37% 36.23%)" />
<rect width="1.1" height="10" x="88.27265724223571" fill="rgb(98.27% 99.34% 37.31%)" />
<rect width="1.1" height="10" x="87.27265724223571" fill="rgb(98.23% 99.32% 38.35%)" />
<rect width="1.1" height="10" x="86.27265724223571" fill="rgb(98.18% 99.29% 39.37%)" />
<rect width="1.1" height="10" x="85.27265724223571" fill="rgb(98.14% 99.26% 40.36%)" />
<rect width="1.1" height="10" x="84.27265724223571" fill="rgb(98.09% 99.24% 41.33%)" />
<rect width="1.1" height="10" x="83.27265724223571" fill="rgb(98.05% 99.21% 42.27%)" />
<rect width="1.1" height="10" x="82.27265724223571" fill="rgb(98.01% 99.18% 43.2%)" />
<rect width="1.1" height="10" x="81.27265724223571" fill="rgb(97.96% 99.15% 44.11%)" />
<rect width="1.1" height="10" x="80.27265724223571" fill="rgb(97.92% 99.13% 45%)" />
<rect width="1.1" height="10" x="79.27265724223571" fill="rgb(97.88% 99.1% 45.87%)" />
<rect width="1.1" height="10" x="78.27265724223571" fill="rgb(97.83% 99.07% 46.73%)" />
<rect width="1.1" height="10" x="77.27265724223571" fill="rgb(97.79% 99.04% 47.57%)" />
<rect width="1.1" height="10" x="76.27265724223571" fill="rgb(97.75% 99.01% 48.41%)" />
<rect width="1.1" height="10" x="75.27265724223571" fill="rgb(97.71% 98.98% 49.22%)" />
<rect width="1.1" height="10" x="74.27265724223571" fill="rgb(97.66% 98.95% 50.03%)" />
<rect width="1.1" height="10" x="73.27265724223571" fill="rgb(97.62% 98.92% 50.83%)" />
<rect width="1.1" height="10" x="72.27265724223571" fill="rgb(97.58% 98.88% 51.61%)" />
<rect width="1.1" height="10" x="71.27265724223571" fill="rgb(97.54% 98.85% 52.39%)" />
<rect width="1.1" height="10" x="70.27265724223571" fill="rgb(97.5% 98.82% 53.15%)" />
<rect width="1.1" height="10" x="69.27265724223571" fill="rgb(97.46% 98.79% 53.91%)" />
<rect width="1.1" height="10" x="68.27265724223571" fill="rgb(97.42% 98.75% 54.65%)" />
<rect width="1.1" height="10" x="67.27265724223571" fill="rgb(97.38% 98.72% 55.39%)" />
<rect width="1.1" height="10" x="66.27265724223571" fill="rgb(97.34% 98.69% 56.12%)" />
<rect width="1.1" height="10" x="65.27265724223571" fill="rgb(97.3% 98.65% 56.84%)" />
<rect width="1.1" height="10" x="64.27265724223571" fill="rgb(97.26% 98.62% 57.56%)" />
<rect width="1.1" height="10" x="63.27265724223571" fill="rgb(97.22% 98.58% 58.26%)" />
<rect width="1.1" height="10" x="62.27265724223571" fill="rgb(97.18% 98.54% 58.96%)" />
<rect width="1.1" height="10" x="61.27265724223571" fill="rgb(97.15% 98.51% 59.66%)" />
<rect width="1.1" height="10" x="60.27265724223571" fill="rgb(97.11% 98.47% 60.35%)" />
<rect width="1.1" height="10" x="59.27265724223571" fill="rgb(97.07% 98.43% 61.03%)" />
<rect width="1.1" height="10" x="58.27265724223571" fill="rgb(97.03% 98.4% 61.71%)" />
<rect width="1.1" height="10" x="57.27265724223571" fill="rgb(97% 98.36% 62.38%)" />
<rect width="1.1" height="10" x="56.27265724223571" fill="rgb(96.96% 98.32% 63.04%)" />
<rect width="1.1" height="10" x="55.27265724223571" fill="rgb(96.92% 98.28% 63.7%)" />
<rect width="1.1" height="10" x="54.27265724223571" fill="rgb(96.89% 98.24% 64.36%)" />
<rect width="1.1" height="10" x="53.27265724223571" fill="rgb(96.85% 98.2% 65.01%)" />
<rect width="1.1" height="10" x="52.27265724223571" fill="rgb(96.82% 98.16% 65.65%)" />
<rect width="1.1" height="10" x="51.27265724223571" fill="rgb(96.78% 98.12% 66.29%)" />
<rect width="1.1" height="10" x="50.27265724223571" fill="rgb(96.74% 98.08% 66.93%)" />
<rect width="1.1" height="10" x="49.27265724223571" fill="rgb(96.71% 98.04% 67.56%)" />
<rect width="1.1" height="10" x="48.27265724223571" fill="rgb(96.68% 98% 68.19%)" />
<rect width="1.1" height="10" x="47.27265724223571" fill="rgb(96.64% 97.95% 68.82%)" />
<rect width="1.1" height="10" x="46.27265724223571" fill="rgb(96.61% 97.91% 69.44%)" />
<rect width="1.1" height="10" x="45.27265724223571" fill="rgb(96.57% 97.87% 70.05%)" />
<rect width="1.1" height="10" x="44.27265724223571" fill="rgb(96.54% 97.82% 70.67%)" />
<rect width="1.1" height="10" x="43.27265724223571" fill="rgb(96.51% 97.78% 71.28%)" />
<rect width="1.1" height="10" x="42.27265724223571" fill="rgb(96.48% 97.73% 71.88%)" />
<rect width="1.1" height="10" x="41.27265724223571" fill="rgb(96.44% 97.69% 72.48%)" />
<rect width="1.1" height="10" x="40.27265724223571" fill="rgb(96.41% 97.64% 73.08%)" />
<rect width="1.1" height="10" x="39.27265724223571" fill="rgb(96.38% 97.6% 73.68%)" />
<rect width="1.1" height="10" x="38.27265724223571" fill="rgb(96.35% 97.55% 74.27%)" />
<rect width="1.1" height="10" x="37.27265724223571" fill="rgb(96.32% 97.5% 74.87%)" />
<rect width="1.1" height="10" x="36.27265724223571" fill="rgb(96.29% 97.45% 75.45%)" />
<rect width="1.1" height="10" x="35.27265724223571" fill="rgb(96.26% 97.41% 76.04%)" />
<rect width="1.1" height="10" x="34.27265724223571" fill="rgb(96.23% 97.36% 76.62%)" />
<rect width="1.1" height="10" x="33.27265724223571" fill="rgb(96.2% 97.31% 77.2%)" />
<rect width="1.1" height="10" x="32.27265724223571" fill="rgb(96.17% 97.26% 77.78%)" />
<rect width="1.1" height="10" x="31.27265724223571" fill="rgb(96.14% 97.21% 78.35%)" />
<rect width="1.1" height="10" x="30.27265724223571" fill="rgb(96.11% 97.16% 78.92%)" />
<rect width="1.1" height="10" x="29.27265724223571" fill="rgb(96.08% 97.1% 79.49%)" />
<rect width="1.1" height="10" x="28.27265724223571" fill="rgb(96.05% 97.05% 80.06%)" />
<rect width="1.1" height="10" x="27.27265724223571" fill="rgb(96.02% 97% 80.63%)" />
<rect width="1.1" height="10" x="26.27265724223571" fill="rgb(96% 96.95% 81.19%)" />
<rect width="1.1" height="10" x="25.27265724223571" fill="rgb(95.97% 96.89% 81.75%)" />
<rect width="1.1" height="10" x="24.27265724223571" fill="rgb(95.94% 96.84% 82.31%)" />
<rect width="1.1" height="10" x="23.27265724223571" fill="rgb(95.92% 96.79% 82.87%)" />
<rect width="1.1" height="10" x="22.27265724223571" fill="rgb(95.89% 96.73% 83.42%)" />
<rect width="1.1" height="10" x="21.27265724223571" fill="rgb(95.86% 96.68% 83.97%)" />
<rect width="1.1" height="10" x="20.27265724223571" fill="rgb(95.84% 96.62% 84.52%)" />
<rect width="1.1" height="10" x="19.27265724223571" fill="rgb(95.81% 96.56% 85.07%)" />
<rect width="1.1" height="10" x="18.27265724223571" fill="rgb(95.79% 96.51% 85.62%)" />
<rect width="1.1" height="10" x="17.27265724223571" fill="rgb(95.76% 96.45% 86.17%)" />
<rect width="1.1" height="10" x="16.27265724223571" fill="rgb(95.74% 96.39% 86.71%)" />
<rect width="1.1" height="10" x="15.27265724223571" fill="rgb(95.71% 96.33% 87.25%)" />
<rect width="1.1" height="10" x="14.27265724223571" fill="rgb(95.69% 96.27% 87.79%)" />
<rect width="1.1" height="10" x="13.27265724223571" fill="rgb(95.67% 96.21% 88.33%)" />
<rect width="1.1" height="10" x="12.27265724223571" fill="rgb(95.64% 96.15% 88.87%)" />
<rect width="1.1" height="10" x="11.27265724223571" fill="rgb(95.62% 96.09% 89.4%)" />
<rect width="1.1" height="10" x="10.27265724223571" fill="rgb(95.6% 96.03% 89.94%)" />
<rect width="1.1" height="10" x="9.27265724223571" fill="rgb(95.58% 95.97% 90.47%)" />
<rect width="1.1" height="10" x="8.27265724223571" fill="rgb(95.56% 95.91% 91%)" />
<rect width="1.1" height="10" x="7.272657242235709" fill="rgb(95.54% 95.85% 91.53%)" />
<rect width="1.1" height="10" x="6.272657242235709" fill="rgb(95.51% 95.78% 92.06%)" />
<rect width="1.1" height="10" x="5.272657242235709" fill="rgb(95.49% 95.72% 92.58%)" />
<rect width="1.1" height="10" x="4.272657242235709" fill="rgb(95.47% 95.65% 93.11%)" />
<rect width="1.1" height="10" x="3.2726572422357094" fill="rgb(95.45% 95.59% 93.63%)" />
<rect width="1.1" height="10" x="2.2726572422357094" fill="rgb(95.43% 95.52% 94.16%)" />
<rect width="1.1" height="10" x="1.2726572422357094" fill="rgb(95.42% 95.46% 94.68%)" />
<rect width="1.1" height="10" x="0.2726572422357094" fill="rgb(95.4% 95.39% 95.2%)" />
<rect width="123.27265724223571" height="25" y="15" fill="none" stroke="grey" stroke-width="0.2"/>
<polyline fill="none" stroke-width="0.2" stroke="red" points="123.27265724223571,15.000000000000053 122.27265724223571,15.030172691763099 121.27265724223571,15.060207072827797 120.27265724223571,15.090102697254558 119.27265724223571,15.119859119103968 118.27265724223571,15.149475892436392 117.27265724223571,15.178952571312362 116.27265724223571,15.20828870979236 115.27265724223571,15.237483861936774 114.27265724223571,15.26653758180618 113.27265724223571,15.295449423461019 112.27265724223571,15.324218940961742 111.27265724223571,15.352845688368966 110.27265724223571,15.381329219743005 109.27265724223571,15.409669089144359 108.27265724223571,15.43786485063357 107.27265724223571,15.465916058271105 106.27265724223571,15.49382226611743 105.27265724223571,15.521583028232918 104.27265724223571,15.549197898678138 103.27265724223571,15.576666431513576 102.27265724223571,15.603988180799657 101.27265724223571,15.631162700596896 100.27265724223571,15.658189544965719 99.27265724223571,15.685068267966688 98.27265724223571,15.711798423660216 97.27265724223571,15.738379566106783 96.27265724223571,15.764811249366872 95.27265724223571,15.791093027500985 94.27265724223571,15.817224454569583 93.27265724223571,15.843205084633038 92.27265724223571,15.869034471752016 91.27265724223571,15.894712169986903 90.27265724223571,15.920237733398107 89.27265724223571,15.945610716046229 88.27265724223571,15.970830671991632 87.27265724223571,15.995897155294816 86.27265724223571,16.020809720016338 85.27265724223571,16.045567920216655 84.27265724223571,16.070171309956216 83.27265724223571,16.09461944329545 82.27265724223571,16.118911874294984 81.27265724223571,16.14304815701508 80.27265724223571,16.167027845516344 79.27265724223571,16.19085049385915 78.27265724223571,16.21451565610413 77.27265724223571,16.23802288631161 76.27265724223571,16.261371738542202 75.27265724223571,16.284561766856292 74.27265724223571,16.30759252531434 73.27265724223571,16.330463567976942 72.27265724223571,16.353174448904433 71.27265724223571,16.375724722157397 70.27265724223571,16.398113941796176 69.27265724223571,16.420341661881377 68.27265724223571,16.442407436473427 67.27265724223571,16.464310819632786 66.27265724223571,16.486051365420018 65.27265724223571,16.50762862789544 64.27265724223571,16.52904216111967 63.27265724223571,16.550291519153106 62.27265724223571,16.571376256056187 61.27265724223571,16.592295925889545 60.27265724223571,16.613050082713517 59.27265724223571,16.633638280588574 58.27265724223571,16.654060073575366 57.27265724223571,16.67431501573419 56.27265724223571,16.694402661125547 55.27265724223571,16.71432256380994 54.27265724223571,16.734074277847885 53.27265724223571,16.753657357299804 52.27265724223571,16.773071356226144 51.27265724223571,16.792315828687478 50.27265724223571,16.811390328744235 49.27265724223571,16.830294410456787 48.27265724223571,16.849027627885736 47.27265724223571,16.86758953509159 46.27265724223571,16.885979686134732 45.27265724223571,16.90419763507567 44.27265724223571,16.922242935974865 43.27265724223571,16.940115142892807 42.27265724223571,16.95781380988998 41.27265724223571,16.975338491026815 40.27265724223571,16.992688740363878 39.27265724223571,17.00986411196157 38.27265724223571,17.02686415988035 37.27265724223571,17.04368843818082 36.27265724223571,17.060336500923384 35.27265724223571,17.076807902168472 34.27265724223571,17.093102195976552 33.27265724223571,17.109218936408123 32.27265724223571,17.125157677523624 31.27265724223571,17.140917973383623 30.27265724223571,17.156499378048558 29.27265724223571,17.171901445578854 28.27265724223571,17.187123730035143 27.27265724223571,17.20216578547769 26.27265724223571,17.217027165967092 25.27265724223571,17.231707425563766 24.27265724223571,17.246206118328242 23.27265724223571,17.260522798320995 22.27265724223571,17.274657019602508 21.27265724223571,17.288608336233196 20.27265724223571,17.302376302273615 19.27265724223571,17.315960471784194 18.27265724223571,17.329360398825386 17.27265724223571,17.342575637457728 16.27265724223571,17.35560574174164 15.27265724223571,17.368450265737593 14.27265724223571,17.3811087635061 13.27265724223571,17.39358078910766 12.27265724223571,17.40586589660273 11.27265724223571,17.417963640051678 10.27265724223571,17.429873573515103 9.27265724223571,17.44159525105347 8.27265724223571,17.453128226727152 7.272657242235709,17.46447205459685 6.272657242235709,17.475626288722836 5.272657242235709,17.486590483165653 4.272657242235709,17.497364191985703 3.2726572422357094,17.507946969243548 2.2726572422357094,17.518338368999714 1.2726572422357094,17.528537945314486 0.2726572422357094,17.538545252248426" />
<polyline fill="none" stroke-width="0.2" stroke="green" points="123.27265724223571,15 122.27265724223571,15.007249295768368 121.27265724223571,15.014691901342768 120.27265724223571,15.022328477311863 119.27265724223571,15.030159684264284 118.27265724223571,15.038186182788788 117.27265724223571,15.046408633474051 116.27265724223571,15.05482769690876 115.27265724223571,15.063444033681645 114.27265724223571,15.072258304381336 113.27265724223571,15.08127116959658 112.27265724223571,15.09048328991603 111.27265724223571,15.099895325928308 110.27265724223571,15.109507938222261 109.27265724223571,15.11932178738649 108.27265724223571,15.12933753400969 107.27265724223571,15.13955583868055 106.27265724223571,15.149977361987752 105.27265724223571,15.160602764520057 104.27265724223571,15.171432706866106 103.27265724223571,15.182467849614603 102.27265724223571,15.19370885335423 101.27265724223571,15.205156378673692 100.27265724223571,15.216811086161663 99.27265724223571,15.228673636406835 98.27265724223571,15.240744689997943 97.27265724223571,15.253024907523649 96.27265724223571,15.26551494957262 95.27265724223571,15.278215476733585 94.27265724223571,15.29112714959517 93.27265724223571,15.304250628746185 92.27265724223571,15.317586574775206 91.27265724223571,15.331135648270983 90.27265724223571,15.344898509822212 89.27265724223571,15.358875820017559 88.27265724223571,15.373068239445729 87.27265724223571,15.387476428695425 86.27265724223571,15.402101048355327 85.27265724223571,15.416942759014098 84.27265724223571,15.432002221260472 83.27265724223571,15.447280095683134 82.27265724223571,15.462777042870705 81.27265724223571,15.478493723411987 80.27265724223571,15.494430797895614 79.27265724223571,15.510588926910334 78.27265724223571,15.526968771044771 77.27265724223571,15.543570990887645 76.27265724223571,15.560396247027644 75.27265724223571,15.577445200053436 74.27265724223571,15.594718510553744 73.27265724223571,15.612216839117252 72.27265724223571,15.629940846332637 71.27265724223571,15.647891192788574 70.27265724223571,15.666068539073844 69.27265724223571,15.684473545777074 68.27265724223571,15.703106873486956 67.27265724223571,15.721969182792193 66.27265724223571,15.741061134281438 65.27265724223571,15.760383388543463 64.27265724223571,15.779936606166888 63.27265724223571,15.799721447740456 62.27265724223571,15.819738573852831 61.27265724223571,15.839988645092685 60.27265724223571,15.860472322048729 59.27265724223571,15.881190265309698 58.27265724223571,15.902143135464183 57.27265724223571,15.923331593100958 56.27265724223571,15.944756298808723 55.27265724223571,15.96641791317612 54.27265724223571,15.98831709679187 53.27265724223571,16.010454510244653 52.27265724223571,16.032830814123173 51.27265724223571,16.05544666901608 50.27265724223571,16.078302735512125 49.27265724223571,16.101399674199982 48.27265724223571,16.12473814566833 47.27265724223571,16.14831881050587 46.27265724223571,16.172142329301273 45.27265724223571,16.196209362643287 44.27265724223571,16.220520571120527 43.27265724223571,16.245076615321747 42.27265724223571,16.269878155835606 41.27265724223571,16.29492585325082 40.27265724223571,16.320220368156036 39.27265724223571,16.34576236113999 38.27265724223571,16.371552492791352 37.27265724223571,16.397591423698792 36.27265724223571,16.423879814451027 35.27265724223571,16.450418325636797 34.27265724223571,16.47720761784474 33.27265724223571,16.50424835166357 32.27265724223571,16.531541187681977 31.27265724223571,16.559086786488646 30.27265724223571,16.58688580867222 29.27265724223571,16.614938914821483 28.27265724223571,16.643246765525042 27.27265724223571,16.671810021371677 26.27265724223571,16.700629342950016 25.27265724223571,16.729705390848764 24.27265724223571,16.759038825656592 23.27265724223571,16.788630307962244 22.27265724223571,16.81848049835439 21.27265724223571,16.8485900574217 20.27265724223571,16.87895964575287 19.27265724223571,16.9095899239366 18.27265724223571,16.940481552561607 17.27265724223571,16.971635192216528 16.27265724223571,17.003051503490124 15.27265724223571,17.03473114697105 14.27265724223571,17.066674783247972 13.27265724223571,17.0988830729096 12.27265724223571,17.13135667654461 11.27265724223571,17.164096254741775 10.27265724223571,17.19710246808972 9.27265724223571,17.230375977177122 8.27265724223571,17.263917442592767 7.272657242235709,17.297727524925183 6.272657242235709,17.331806884763214 5.272657242235709,17.36615618269548 4.272657242235709,17.400776079310692 3.2726572422357094,17.435667235197535 2.2726572422357094,17.47083031094469 1.2726572422357094,17.506265967140923 0.2726572422357094,17.541974864374843" />
<polyline fill="none" stroke-width="0.2" stroke="blue" points="123.27265724223571,40 122.27265724223571,40 121.27265724223571,40 120.27265724223571,40 119.27265724223571,40 118.27265724223571,40 117.27265724223571,40 116.27265724223571,40 115.27265724223571,40 114.27265724223571,40 113.27265724223571,40 112.27265724223571,40 111.27265724223571,40 110.27265724223571,40 109.27265724223571,40 108.27265724223571,40 107.27265724223571,40 106.27265724223571,40 105.27265724223571,39.87217948126638 104.27265724223571,39.719156549794 103.27265724223571,39.565118867255585 102.27265724223571,39.41006312646865 101.27265724223571,39.253986020250686 100.27265724223571,39.09688424141921 99.27265724223571,38.938754482791744 98.27265724223571,38.77959343718575 97.27265724223571,38.61939779741878 96.27265724223571,38.45816425630829 95.27265724223571,38.29588950667181 94.27265724223571,38.13257024132684 93.27265724223571,37.968203153090876 92.27265724223571,37.80278493478144 91.27265724223571,37.63631227921603 90.27265724223571,37.46878187921214 89.27265724223571,37.30019042758725 88.27265724223571,37.13053461715894 87.27265724223571,36.95981114074466 86.27265724223571,36.78801669116191 85.27265724223571,36.6151479612282 84.27265724223571,36.441201643761055 83.27265724223571,36.26617443157796 82.27265724223571,36.09006301749641 81.27265724223571,35.91286409433389 80.27265724223571,35.73457435490798 79.27265724223571,35.55519049203614 78.27265724223571,35.37470919853587 77.27265724223571,35.193127167224695 76.27265724223571,35.010441090920054 75.27265724223571,34.826647662439534 74.27265724223571,34.6417435746006 73.27265724223571,34.455725520220746 72.27265724223571,34.26859019211751 71.27265724223571,34.08033428310835 70.27265724223571,33.8909544860108 69.27265724223571,33.70044749364237 68.27265724223571,33.50880999882055 67.27265724223571,33.31603869436285 66.27265724223571,33.12213027308677 65.27265724223571,32.9270814278098 64.27265724223571,32.730888851349484 63.27265724223571,32.53354923652331 62.27265724223571,32.335059276148755 61.27265724223571,32.135415663043354 60.27265724223571,31.93461509002458 59.27265724223571,31.73265424990996 58.27265724223571,31.52952983551701 57.27265724223571,31.325238539663204 56.27265724223571,31.119777055166033 55.27265724223571,30.913142074843066 54.27265724223571,30.70533029151178 53.27265724223571,30.49633839798964 52.27265724223571,30.286163087094188 51.27265724223571,30.074801051642908 50.27265724223571,29.862248984453316 49.27265724223571,29.64850357834292 48.27265724223571,29.433561526129232 47.27265724223571,29.21741952062973 46.27265724223571,29.000074254661925 45.27265724223571,28.781522421043334 44.27265724223571,28.56176071259145 43.27265724223571,28.340785822123788 42.27265724223571,28.118594442457816 41.27265724223571,27.895183266411102 40.27265724223571,27.6705489868011 39.27265724223571,27.444688296445314 38.27265724223571,27.217597888161283 37.27265724223571,26.989274454766466 36.27265724223571,26.759714689078393 35.27265724223571,26.52891528391453 34.27265724223571,26.296872932092477 33.27265724223571,26.063584326429677 32.27265724223571,25.829046159743626 31.27265724223571,25.59325512485183 30.27265724223571,25.35620791457184 29.27265724223571,25.117901221721088 28.27265724223571,24.878331739117108 27.27265724223571,24.637496159577417 26.27265724223571,24.395391175919507 25.27265724223571,24.152013480960917 24.27265724223571,23.90735976751909 23.27265724223571,23.66142672841155 22.27265724223571,23.414211056455834 21.27265724223571,23.1657094444694 20.27265724223571,22.91591858526978 19.27265724223571,22.66483517167447 18.27265724223571,22.41245589650098 17.27265724223571,22.15877745256679 16.27265724223571,21.90379653268945 15.27265724223571,21.64750982968645 14.27265724223571,21.38991403637528 13.27265724223571,21.131005845573384 12.27265724223571,20.870781950098383 11.27265724223571,20.6092390427677 10.27265724223571,20.34637381639889 9.27265724223571,20.082182963809412 8.27265724223571,19.816663177816828 7.272657242235709,19.54981115123856 6.272657242235709,19.28162357689215 5.272657242235709,19.012097147595163 4.272657242235709,18.74122855616504 3.2726572422357094,18.469014495419266 2.2726572422357094,18.195451658175394 1.2726572422357094,17.920536737250902 0.2726572422357094,17.644266425463343" />
<g style="font: 1.5px sans-serif; text-anchor: middle">
<text x="0" y="-1">0</text>
<text x="30.19294008482016" y="-1">0.06</text>
<text x="60.38588016964032" y="-1">0.12</text>
<text x="90.57882025446048" y="-1">0.18</text>
<text x="120.77176033928065" y="-1">0.24</text>
</g>
</svg>