<svg xmlns="http://www.w3.org/2000/svg" viewBox="-4 -4 160 90">
    <desc>Show a gradient from sRGB blue,
in JzCzHz,
as Chroma is reduced from the max value (0.156) to near-zero
demonstrating less purpling mid-way compared to LCH.
1.1 is an egregious hack to avoid limited subpixel precision compositing artifacts
</desc>
<rect width="1.1" height="10" x="146.6546621338471" fill="salmon" />
<rect width="1.1" height="10" x="145.6546621338471" fill="salmon" />
<rect width="1.1" height="10" x="144.6546621338471" fill="salmon" />
<rect width="1.1" height="10" x="143.6546621338471" fill="salmon" />
<rect width="1.1" height="10" x="142.6546621338471" fill="salmon" />
<rect width="1.1" height="10" x="141.6546621338471" fill="salmon" />
<rect width="1.1" height="10" x="140.6546621338471" fill="salmon" />
<rect width="1.1" height="10" x="139.6546621338471" fill="salmon" />
<rect width="1.1" height="10" x="138.6546621338471" fill="salmon" />
<rect width="1.1" height="10" x="137.6546621338471" fill="salmon" />
<rect width="1.1" height="10" x="136.6546621338471" fill="salmon" />
<rect width="1.1" height="10" x="135.6546621338471" fill="salmon" />
<rect width="1.1" height="10" x="134.6546621338471" fill="salmon" />
<rect width="1.1" height="10" x="133.6546621338471" fill="salmon" />
<rect width="1.1" height="10" x="132.6546621338471" fill="salmon" />
<rect width="1.1" height="10" x="131.6546621338471" fill="salmon" />
<rect width="1.1" height="10" x="130.6546621338471" fill="salmon" />
<rect width="1.1" height="10" x="129.6546621338471" fill="salmon" />
<rect width="1.1" height="10" x="128.6546621338471" fill="salmon" />
<rect width="1.1" height="10" x="127.6546621338471" fill="salmon" />
<rect width="1.1" height="10" x="126.6546621338471" fill="salmon" />
<rect width="1.1" height="10" x="125.6546621338471" fill="salmon" />
<rect width="1.1" height="10" x="124.6546621338471" fill="salmon" />
<rect width="1.1" height="10" x="123.6546621338471" fill="salmon" />
<rect width="1.1" height="10" x="122.6546621338471" fill="salmon" />
<rect width="1.1" height="10" x="121.6546621338471" fill="salmon" />
<rect width="1.1" height="10" x="120.6546621338471" fill="salmon" />
<rect width="1.1" height="10" x="119.6546621338471" fill="salmon" />
<rect width="1.1" height="10" x="118.6546621338471" fill="salmon" />
<rect width="1.1" height="10" x="117.6546621338471" fill="salmon" />
<rect width="1.1" height="10" x="116.6546621338471" fill="salmon" />
<rect width="1.1" height="10" x="115.6546621338471" fill="salmon" />
<rect width="1.1" height="10" x="114.6546621338471" fill="salmon" />
<rect width="1.1" height="10" x="113.6546621338471" fill="salmon" />
<rect width="1.1" height="10" x="112.6546621338471" fill="salmon" />
<rect width="1.1" height="10" x="111.6546621338471" fill="salmon" />
<rect width="1.1" height="10" x="110.6546621338471" fill="salmon" />
<rect width="1.1" height="10" x="109.6546621338471" fill="salmon" />
<rect width="1.1" height="10" x="108.6546621338471" fill="salmon" />
<rect width="1.1" height="10" x="107.6546621338471" fill="salmon" />
<rect width="1.1" height="10" x="106.6546621338471" fill="salmon" />
<rect width="1.1" height="10" x="105.6546621338471" fill="salmon" />
<rect width="1.1" height="10" x="104.6546621338471" fill="salmon" />
<rect width="1.1" height="10" x="103.6546621338471" fill="salmon" />
<rect width="1.1" height="10" x="102.6546621338471" fill="salmon" />
<rect width="1.1" height="10" x="101.6546621338471" fill="salmon" />
<rect width="1.1" height="10" x="100.6546621338471" fill="salmon" />
<rect width="1.1" height="10" x="99.6546621338471" fill="salmon" />
<rect width="1.1" height="10" x="98.6546621338471" fill="salmon" />
<rect width="1.1" height="10" x="97.6546621338471" fill="salmon" />
<rect width="1.1" height="10" x="96.6546621338471" fill="salmon" />
<rect width="1.1" height="10" x="95.6546621338471" fill="salmon" />
<rect width="1.1" height="10" x="94.6546621338471" fill="salmon" />
<rect width="1.1" height="10" x="93.6546621338471" fill="salmon" />
<rect width="1.1" height="10" x="92.6546621338471" fill="salmon" />
<rect width="1.1" height="10" x="91.6546621338471" fill="salmon" />
<rect width="1.1" height="10" x="90.6546621338471" fill="salmon" />
<rect width="1.1" height="10" x="89.6546621338471" fill="salmon" />
<rect width="1.1" height="10" x="88.6546621338471" fill="salmon" />
<rect width="1.1" height="10" x="87.6546621338471" fill="salmon" />
<rect width="1.1" height="10" x="86.6546621338471" fill="salmon" />
<rect width="1.1" height="10" x="85.6546621338471" fill="salmon" />
<rect width="1.1" height="10" x="84.6546621338471" fill="salmon" />
<rect width="1.1" height="10" x="83.6546621338471" fill="salmon" />
<rect width="1.1" height="10" x="82.6546621338471" fill="salmon" />
<rect width="1.1" height="10" x="81.6546621338471" fill="salmon" />
<rect width="1.1" height="10" x="80.6546621338471" fill="salmon" />
<rect width="1.1" height="10" x="79.6546621338471" fill="salmon" />
<rect width="1.1" height="10" x="78.6546621338471" fill="salmon" />
<rect width="1.1" height="10" x="77.6546621338471" fill="salmon" />
<rect width="1.1" height="10" x="76.6546621338471" fill="salmon" />
<rect width="1.1" height="10" x="75.6546621338471" fill="salmon" />
<rect width="1.1" height="10" x="74.6546621338471" fill="salmon" />
<rect width="1.1" height="10" x="73.6546621338471" fill="salmon" />
<rect width="1.1" height="10" x="72.6546621338471" fill="salmon" />
<rect width="1.1" height="10" x="71.6546621338471" fill="salmon" />
<rect width="1.1" height="10" x="70.6546621338471" fill="salmon" />
<rect width="1.1" height="10" x="69.6546621338471" fill="salmon" />
<rect width="1.1" height="10" x="68.6546621338471" fill="salmon" />
<rect width="1.1" height="10" x="67.6546621338471" fill="salmon" />
<rect width="1.1" height="10" x="66.6546621338471" fill="salmon" />
<rect width="1.1" height="10" x="65.6546621338471" fill="salmon" />
<rect width="1.1" height="10" x="64.6546621338471" fill="salmon" />
<rect width="1.1" height="10" x="63.6546621338471" fill="salmon" />
<rect width="1.1" height="10" x="62.6546621338471" fill="salmon" />
<rect width="1.1" height="10" x="61.6546621338471" fill="salmon" />
<rect width="1.1" height="10" x="60.6546621338471" fill="salmon" />
<rect width="1.1" height="10" x="59.6546621338471" fill="salmon" />
<rect width="1.1" height="10" x="58.6546621338471" fill="salmon" />
<rect width="1.1" height="10" x="57.6546621338471" fill="salmon" />
<rect width="1.1" height="10" x="56.6546621338471" fill="salmon" />
<rect width="1.1" height="10" x="55.6546621338471" fill="salmon" />
<rect width="1.1" height="10" x="54.6546621338471" fill="salmon" />
<rect width="1.1" height="10" x="53.6546621338471" fill="salmon" />
<rect width="1.1" height="10" x="52.6546621338471" fill="rgb(1.189% 33.847% 61.727%)" />
<rect width="1.1" height="10" x="51.6546621338471" fill="rgb(2.789% 33.898% 61.291%)" />
<rect width="1.1" height="10" x="50.6546621338471" fill="rgb(4.385% 33.947% 60.856%)" />
<rect width="1.1" height="10" x="49.6546621338471" fill="rgb(5.764% 33.993% 60.42%)" />
<rect width="1.1" height="10" x="48.6546621338471" fill="rgb(6.947% 34.036% 59.985%)" />
<rect width="1.1" height="10" x="47.6546621338471" fill="rgb(7.996% 34.078% 59.551%)" />
<rect width="1.1" height="10" x="46.6546621338471" fill="rgb(8.947% 34.117% 59.116%)" />
<rect width="1.1" height="10" x="45.6546621338471" fill="rgb(9.823% 34.154% 58.682%)" />
<rect width="1.1" height="10" x="44.6546621338471" fill="rgb(10.638% 34.188% 58.248%)" />
<rect width="1.1" height="10" x="43.6546621338471" fill="rgb(11.403% 34.22% 57.814%)" />
<rect width="1.1" height="10" x="42.6546621338471" fill="rgb(12.127% 34.251% 57.38%)" />
<rect width="1.1" height="10" x="41.6546621338471" fill="rgb(12.815% 34.278% 56.947%)" />
<rect width="1.1" height="10" x="40.6546621338471" fill="rgb(13.472% 34.304% 56.513%)" />
<rect width="1.1" height="10" x="39.6546621338471" fill="rgb(14.102% 34.328% 56.08%)" />
<rect width="1.1" height="10" x="38.6546621338471" fill="rgb(14.708% 34.349% 55.647%)" />
<rect width="1.1" height="10" x="37.6546621338471" fill="rgb(15.292% 34.369% 55.214%)" />
<rect width="1.1" height="10" x="36.6546621338471" fill="rgb(15.858% 34.386% 54.781%)" />
<rect width="1.1" height="10" x="35.6546621338471" fill="rgb(16.406% 34.401% 54.348%)" />
<rect width="1.1" height="10" x="34.6546621338471" fill="rgb(16.938% 34.415% 53.916%)" />
<rect width="1.1" height="10" x="33.6546621338471" fill="rgb(17.455% 34.426% 53.483%)" />
<rect width="1.1" height="10" x="32.6546621338471" fill="rgb(17.959% 34.435% 53.05%)" />
<rect width="1.1" height="10" x="31.654662133847097" fill="rgb(18.451% 34.442% 52.618%)" />
<rect width="1.1" height="10" x="30.654662133847097" fill="rgb(18.931% 34.448% 52.185%)" />
<rect width="1.1" height="10" x="29.654662133847097" fill="rgb(19.401% 34.451% 51.752%)" />
<rect width="1.1" height="10" x="28.654662133847097" fill="rgb(19.861% 34.452% 51.32%)" />
<rect width="1.1" height="10" x="27.654662133847097" fill="rgb(20.311% 34.452% 50.887%)" />
<rect width="1.1" height="10" x="26.654662133847097" fill="rgb(20.753% 34.449% 50.454%)" />
<rect width="1.1" height="10" x="25.654662133847097" fill="rgb(21.186% 34.445% 50.021%)" />
<rect width="1.1" height="10" x="24.654662133847097" fill="rgb(21.612% 34.438% 49.588%)" />
<rect width="1.1" height="10" x="23.654662133847097" fill="rgb(22.031% 34.43% 49.155%)" />
<rect width="1.1" height="10" x="22.654662133847097" fill="rgb(22.442% 34.42% 48.721%)" />
<rect width="1.1" height="10" x="21.654662133847097" fill="rgb(22.847% 34.408% 48.288%)" />
<rect width="1.1" height="10" x="20.654662133847097" fill="rgb(23.246% 34.395% 47.854%)" />
<rect width="1.1" height="10" x="19.654662133847097" fill="rgb(23.639% 34.379% 47.42%)" />
<rect width="1.1" height="10" x="18.654662133847097" fill="rgb(24.026% 34.362% 46.985%)" />
<rect width="1.1" height="10" x="17.654662133847097" fill="rgb(24.408% 34.342% 46.551%)" />
<rect width="1.1" height="10" x="16.654662133847097" fill="rgb(24.784% 34.321% 46.116%)" />
<rect width="1.1" height="10" x="15.654662133847097" fill="rgb(25.156% 34.298% 45.68%)" />
<rect width="1.1" height="10" x="14.654662133847097" fill="rgb(25.523% 34.274% 45.245%)" />
<rect width="1.1" height="10" x="13.654662133847097" fill="rgb(25.886% 34.247% 44.808%)" />
<rect width="1.1" height="10" x="12.654662133847097" fill="rgb(26.244% 34.219% 44.372%)" />
<rect width="1.1" height="10" x="11.654662133847097" fill="rgb(26.598% 34.189% 43.935%)" />
<rect width="1.1" height="10" x="10.654662133847097" fill="rgb(26.948% 34.158% 43.497%)" />
<rect width="1.1" height="10" x="9.654662133847097" fill="rgb(27.294% 34.124% 43.059%)" />
<rect width="1.1" height="10" x="8.654662133847097" fill="rgb(27.636% 34.089% 42.62%)" />
<rect width="1.1" height="10" x="7.654662133847097" fill="rgb(27.975% 34.052% 42.18%)" />
<rect width="1.1" height="10" x="6.654662133847097" fill="rgb(28.31% 34.014% 41.74%)" />
<rect width="1.1" height="10" x="5.654662133847097" fill="rgb(28.642% 33.973% 41.299%)" />
<rect width="1.1" height="10" x="4.654662133847097" fill="rgb(28.97% 33.931% 40.858%)" />
<rect width="1.1" height="10" x="3.654662133847097" fill="rgb(29.296% 33.888% 40.415%)" />
<rect width="1.1" height="10" x="2.654662133847097" fill="rgb(29.618% 33.842% 39.972%)" />
<rect width="1.1" height="10" x="1.654662133847097" fill="rgb(29.938% 33.795% 39.528%)" />
<rect width="1.1" height="10" x="0.654662133847097" fill="rgb(30.254% 33.746% 39.082%)" />
<rect width="1.1" height="10" x="-0.34533786615290296" fill="rgb(30.568% 33.695% 38.636%)" />
<rect width="146.572" height="35" y="15" fill="none" stroke="grey" stroke-width="0.2"/>
<polyline fill="none" stroke-width="0.2" stroke="red" points="146.6546621338471,50.000003409827706 145.6546621338471,49.98922594607358 144.6546621338471,49.978284548224 143.6546621338471,49.96718019069899 142.6546621338471,49.95591384232734 141.6546621338471,49.944486466375025 140.6546621338471,49.932899020573124 139.6546621338471,49.92115245715005 138.6546621338471,49.90924772285538 137.6546621338471,49.89718575899228 136.6546621338471,49.88496750144502 135.6546621338471,49.872593880705125 134.6546621338471,49.8600658219026 133.6546621338471,49.847384244831936 132.6546621338471,49.834550063979655 131.6546621338471,49.82156418855358 130.6546621338471,49.808427522509305 129.6546621338471,49.79514096457637 128.6546621338471,49.78170540828943 127.6546621338471,49.76812174201002 126.6546621338471,49.75439084895777 125.6546621338471,49.74051360723519 124.6546621338471,49.72649088985371 123.6546621338471,49.71232356476338 122.6546621338471,49.69801249487561 121.6546621338471,49.683558538090935 120.6546621338471,49.66896254732565 119.6546621338471,49.65422537053726 118.6546621338471,49.639347850749054 117.6546621338471,49.6243308260792 116.6546621338471,49.60917512976146 115.6546621338471,49.59388159017491 114.6546621338471,49.57845103086792 113.6546621338471,49.56288427058131 112.6546621338471,49.547182123276166 111.6546621338471,49.53134539815859 110.6546621338471,49.515374899701584 109.6546621338471,49.499271427672156 108.6546621338471,49.48303577715551 107.6546621338471,49.466668738579685 106.6546621338471,49.45017109773861 105.6546621338471,49.43354363581625 104.6546621338471,49.41678712941209 103.6546621338471,49.39990235056436 102.6546621338471,49.38289006677244 101.6546621338471,49.36575104102272 100.6546621338471,49.348486031810836 99.6546621338471,49.33109579316453 98.6546621338471,49.313581074667404 97.6546621338471,49.29594262148271 96.6546621338471,49.27818117437545 95.6546621338471,49.26029746973569 94.6546621338471,49.242292239601575 93.6546621338471,49.224166211681215 92.6546621338471,49.20592010937487 91.6546621338471,49.18755465179864 90.6546621338471,49.169070553806776 89.6546621338471,49.15046852601222 88.6546621338471,49.131749274810105 87.6546621338471,49.112913502398605 86.6546621338471,49.093961906801646 85.6546621338471,49.07489518188992 84.6546621338471,49.05571401740344 83.6546621338471,49.03641909897217 82.6546621338471,49.01701110813609 81.6546621338471,48.997490722369236 80.6546621338471,48.9778586150994 79.6546621338471,48.958115455728425 78.6546621338471,48.93826190965456 77.6546621338471,48.918298638291176 76.6546621338471,48.898226299089636 75.6546621338471,48.878045545558294 74.6546621338471,48.857757027284016 73.6546621338471,48.837361389951106 72.6546621338471,48.81685927536355 71.6546621338471,48.79625132146228 70.6546621338471,48.77553816234815 69.6546621338471,48.75472042829941 68.6546621338471,48.73379874579265 67.6546621338471,48.712773737523186 66.6546621338471,48.69164602242235 65.6546621338471,48.67041621567849 64.6546621338471,48.649084928755556 63.6546621338471,48.627652769413544 62.6546621338471,48.60612034172608 61.6546621338471,48.58448824610029 60.6546621338471,48.56275707929496 59.6546621338471,48.540927434439936 58.6546621338471,48.518999901054734 57.6546621338471,48.49697506506664 56.6546621338471,48.47485350882879 55.6546621338471,48.452635811139416 54.6546621338471,48.430322547259976 53.6546621338471,48.40791428893143 52.6546621338471,48.38541160439376 51.6546621338471,48.36281505840464 50.6546621338471,48.34012521225504 49.6546621338471,48.317342623787425 48.6546621338471,48.29446784741414 47.6546621338471,48.271501434133775 46.6546621338471,48.248443931548586 45.6546621338471,48.22529588388149 44.6546621338471,48.20205783199322 43.6546621338471,48.17873031339825 42.6546621338471,48.155313862282206 41.6546621338471,48.13180900951778 40.6546621338471,48.10821628268244 39.6546621338471,48.084536206072656 38.6546621338471,48.06076930072023 37.6546621338471,48.03691608440955 36.6546621338471,48.01297707169019 35.6546621338471,47.98895277389495 34.6546621338471,47.96484369915405 33.6546621338471,47.94065035241003 32.6546621338471,47.916373235430896 31.654662133847097,47.892012846826944 30.654662133847097,47.86756968206255 29.654662133847097,47.84304423347016 28.654662133847097,47.81843699026449 27.654662133847097,47.793748438553074 26.654662133847097,47.76897906134928 25.654662133847097,47.744129338585005 24.654662133847097,47.719199747118644 23.654662133847097,47.694190760747276 22.654662133847097,47.669102850213434 21.654662133847097,47.64393648321283 20.654662133847097,47.618692124401335 19.654662133847097,47.593370235397586 18.654662133847097,47.56797127478413 17.654662133847097,47.54249569810605 16.654662133847097,47.51694395786722 15.654662133847097,47.49131650351866 14.654662133847097,47.46561378144139 13.654662133847097,47.43983623492103 12.654662133847097,47.413984304112496 11.654662133847097,47.38805842598218 10.654662133847097,47.362059034232935 9.654662133847097,47.33598655919326 8.654662133847097,47.309841427652636 7.654662133847097,47.28362406261118 6.654662133847097,47.25733488290097 5.654662133847097,47.230974302561926 4.654662133847097,47.20454272976997 3.654662133847097,47.17804056483165 2.654662133847097,47.15146819596734 1.654662133847097,47.124825988721604 0.654662133847097,47.09811424973575 -0.34533786615290296,47.0713329690616" />
<polyline fill="none" stroke-width="0.2" stroke="green" points="146.6546621338471,49.99999660584752 145.6546621338471,49.93835955628884 144.6546621338471,49.877452918808004 143.6546621338471,49.81727203072795 142.6546621338471,49.75781225520654 141.6546621338471,49.69906898109896 140.6546621338471,49.6410376228275 139.6546621338471,49.58371362024178 138.6546621338471,49.5270924384949 137.6546621338471,49.47116956790331 136.6546621338471,49.415940523818094 135.6546621338471,49.3614008464967 134.6546621338471,49.30754610096926 133.6546621338471,49.254371876911314 132.6546621338471,49.20187378851507 131.6546621338471,49.15004747436031 130.6546621338471,49.09888859728755 129.6546621338471,49.04839284427297 128.6546621338471,48.99855592629737 127.6546621338471,48.949373578228055 126.6546621338471,48.90084155868954 125.6546621338471,48.852955649938885 124.6546621338471,48.80571165774666 123.6546621338471,48.75910541126722 122.6546621338471,48.7131327629243 121.6546621338471,48.66778958828512 120.6546621338471,48.6230717859385 119.6546621338471,48.5789752773785 118.6546621338471,48.535496006882575 117.6546621338471,48.492629941391826 116.6546621338471,48.450373070395806 115.6546621338471,48.40872140581182 114.6546621338471,48.36767098186708 113.6546621338471,48.327217854986316 112.6546621338471,48.28735810367294 111.6546621338471,48.24808782839279 110.6546621338471,48.20940315146285 109.6546621338471,48.17130021693475 108.6546621338471,48.133775190482794 107.6546621338471,48.096824259287814 106.6546621338471,48.06044363192898 105.6546621338471,48.02462953827156 104.6546621338471,47.98937822935334 103.6546621338471,47.954685977274984 102.6546621338471,47.92054907509182 101.6546621338471,47.88696383670249 100.6546621338471,47.85392659674036 99.6546621338471,47.82143371046698 98.6546621338471,47.78948155366295 97.6546621338471,47.75806652252157 96.6546621338471,47.72718503354139 95.6546621338471,47.696833523419784 94.6546621338471,47.667008448950185 93.6546621338471,47.63770628691509 92.6546621338471,47.60892353398236 91.6546621338471,47.580656706601715 90.6546621338471,47.55290234089958 89.6546621338471,47.52565699257973 88.6546621338471,47.49891723681849 87.6546621338471,47.472679668165384 86.6546621338471,47.44694090043985 85.6546621338471,47.421697566632375 84.6546621338471,47.39694631880284 83.6546621338471,47.37268382798268 82.6546621338471,47.34890678407677 81.6546621338471,47.325611895761575 80.6546621338471,47.30279589039083 79.6546621338471,47.28045551389549 78.6546621338471,47.258587530688374 77.6546621338471,47.237188723569 76.6546621338471,47.21625589362446 75.6546621338471,47.195785860137654 74.6546621338471,47.17577546048917 73.6546621338471,47.15622155006681 72.6546621338471,47.13712100216689 71.6546621338471,47.118470707906624 70.6546621338471,47.10026757612665 69.6546621338471,47.082508533301365 68.6546621338471,47.06519052344687 67.6546621338471,47.04831050802641 66.6546621338471,47.03186546586564 65.6546621338471,47.01585239305737 64.6546621338471,47.00026830287429 63.6546621338471,46.985110225677886 62.6546621338471,46.97037520883074 61.6546621338471,46.95606031660799 60.6546621338471,46.94216263010953 59.6546621338471,46.92867924717233 58.6546621338471,46.91560728228289 57.6546621338471,46.90294386649309 56.6546621338471,46.890686147331444 55.6546621338471,46.87883128871974 54.6546621338471,46.86737647088605 53.6546621338471,46.85631889028373 52.6546621338471,46.845655759503614 51.6546621338471,46.83538430719118 50.6546621338471,46.825501777965925 49.6546621338471,46.816005432336276 48.6546621338471,46.80689254661854 47.6546621338471,46.798160412855104 46.6546621338471,46.78980633873325 45.6546621338471,46.7818276475045 44.6546621338471,46.77422167790465 43.6546621338471,46.76698578407368 42.6546621338471,46.76011733547814 41.6546621338471,46.75361371683053 40.6546621338471,46.74747232801105 39.6546621338471,46.741690583991456 38.6546621338471,46.736265914757766 37.6546621338471,46.73119576523266 36.6546621338471,46.726477595201274 35.6546621338471,46.722108879233566 34.6546621338471,46.718087106611186 33.6546621338471,46.71440978125183 32.6546621338471,46.711074421637285 31.654662133847097,46.708078560739416 30.654662133847097,46.70541974594761 29.654662133847097,46.703095538998845 28.654662133847097,46.70110351590462 27.654662133847097,46.69944126688317 26.654662133847097,46.69810639629065 25.654662133847097,46.69709652255075 24.654662133847097,46.69640927809125 23.654662133847097,46.69604230927631 22.654662133847097,46.69599327634313 21.654662133847097,46.6962598533409 20.654662133847097,46.69683972806891 19.654662133847097,46.69773060201974 18.654662133847097,46.69893019032498 17.654662133847097,46.70043622170439 16.654662133847097,46.70224643841724 15.654662133847097,46.704358596222676 14.654662133847097,46.70677046434716 13.654662133847097,46.70947982546049 12.654662133847097,46.712484475664084 11.654662133847097,46.71578222450354 10.654662133847097,46.71937089500123 9.654662133847097,46.72324832372796 8.654662133847097,46.7274123609372 7.654662133847097,46.73186087079125 6.654662133847097,46.736591731732894 5.654662133847097,46.74160283713091 4.654662133847097,46.74689209642253 3.654662133847097,46.75245743729982 2.654662133847097,46.75829681036361 1.654662133847097,46.76440820090005 0.654662133847097,46.770789669330945 -0.34533786615290296,46.77743963959684" />
<polyline fill="none" stroke-width="0.2" stroke="blue" points="146.6546621338471,15.000002387381691 145.6546621338471,15.368230413931755 144.6546621338471,15.733554368679918 143.6546621338471,16.09599248099606 142.6546621338471,16.455562880140263 141.6546621338471,16.812283595805567 140.6546621338471,17.16617255862203 139.6546621338471,17.51724760068565 138.6546621338471,17.865526456057594 137.6546621338471,18.211026761290977 136.6546621338471,18.55376605593115 135.6546621338471,18.893761783027713 134.6546621338471,19.231031289632472 133.6546621338471,19.5655918273052 132.6546621338471,19.897460552610003 131.6546621338471,20.226654527610034 130.6546621338471,20.55319072036353 129.6546621338471,20.87708600541428 128.6546621338471,21.198357164279933 127.6546621338471,21.517020885935114 126.6546621338471,21.833093767291917 125.6546621338471,22.146592313692082 124.6546621338471,22.45753293937164 123.6546621338471,22.76593196794705 122.6546621338471,23.07180563287843 121.6546621338471,23.37517007794752 120.6546621338471,23.676041357725904 119.6546621338471,23.974435438036164 118.6546621338471,24.270368196418254 117.6546621338471,24.56385542258582 116.6546621338471,24.854912818892704 115.6546621338471,25.143556000780297 114.6546621338471,25.429800497239253 113.6546621338471,25.713661751254694 112.6546621338471,25.995155120256914 111.6546621338471,26.274295876568985 110.6546621338471,26.55109920784974 109.6546621338471,26.825580217538405 108.6546621338471,27.09775392528612 107.6546621338471,27.36763526740638 106.6546621338471,27.63523909729789 105.6546621338471,27.90058018588242 104.6546621338471,28.16367322203469 103.6546621338471,28.424532813014686 102.6546621338471,28.683173484884914 101.6546621338471,28.939609682940134 100.6546621338471,29.19385577212886 99.6546621338471,29.445926037470667 98.6546621338471,29.69583468447481 97.6546621338471,29.943595839552827 96.6546621338471,30.189223550431088 95.6546621338471,30.43273178657082 94.6546621338471,30.674134439559865 93.6546621338471,30.91344532353348 92.6546621338471,31.15067817557156 91.6546621338471,31.385846656097833 90.6546621338471,31.61896434929068 89.6546621338471,31.850044763472155 88.6546621338471,32.079101331502756 87.6546621338471,32.3061474111805 86.6546621338471,32.53119628562895 85.6546621338471,32.75426116368919 84.6546621338471,32.97535518030497 83.6546621338471,33.19449139690901 82.6546621338471,33.411682801805895 81.6546621338471,33.626942310556615 80.6546621338471,33.84028276634963 79.6546621338471,34.05171694039111 78.6546621338471,34.261257532268864 77.6546621338471,34.46891717032905 76.6546621338471,34.67470841205192 75.6546621338471,34.87864374441304 74.6546621338471,35.080735584259806 73.6546621338471,35.28099627867056 72.6546621338471,35.47943810532114 71.6546621338471,35.67607327284499 70.6546621338471,35.870913921193306 69.6546621338471,36.06397212199451 68.6546621338471,36.25525987890646 67.6546621338471,36.444789127978126 66.6546621338471,36.63257173798942 65.6546621338471,36.81861951081299 64.6546621338471,37.00294418175751 63.6546621338471,37.18555741991328 62.6546621338471,37.36647082850145 61.6546621338471,37.54569594521094 60.6546621338471,37.723244242544546 59.6546621338471,37.89912712815374 58.6546621338471,38.07335594518233 57.6546621338471,38.245941972592234 56.6546621338471,38.41689642550905 55.6546621338471,38.58623045554223 54.6546621338471,38.75395515112539 53.6546621338471,38.920081537835586 52.6546621338471,39.08462057872843 51.6546621338471,39.2475831746561 50.6546621338471,39.40898016459375 49.6546621338471,39.56882232595973 48.6546621338471,39.72712037493558 47.6546621338471,39.88388496678276 46.6546621338471,40.03912669615916 45.6546621338471,40.19285609743399 44.6546621338471,40.34508364500009 43.6546621338471,40.495819753583255 42.6546621338471,40.64507477855035 41.6546621338471,40.79285901622116 40.6546621338471,40.939182704168815 39.6546621338471,41.08405602152732 38.6546621338471,41.22748908929057 37.6546621338471,41.369491970614945 36.6546621338471,41.51007467111546 35.6546621338471,41.64924713916579 34.6546621338471,41.78701926618933 33.6546621338471,41.92340088695606 32.6546621338471,42.05840177987226 31.654662133847097,42.19203166726802 30.654662133847097,42.32430021569174 29.654662133847097,42.455217036188316 28.654662133847097,42.58479168458921 27.654662133847097,42.713033661791215 26.654662133847097,42.839952414037135 25.654662133847097,42.965557333197204 24.654662133847097,43.08985775704221 23.654662133847097,43.21286296951775 22.654662133847097,43.33458220101833 21.654662133847097,43.455024628654115 20.654662133847097,43.574199376520156 19.654662133847097,43.69211551595733 18.654662133847097,43.80878206581719 17.654662133847097,43.92420799271429 16.654662133847097,44.03840221128353 15.654662133847097,44.15137358442565 14.654662133847097,44.263130923551685 13.654662133847097,44.37368298881353 12.654662133847097,44.48303848933272 11.654662133847097,44.591206083409894 10.654662133847097,44.698194378717204 9.654662133847097,44.804011932468846 8.654662133847097,44.90866725154737 7.654662133847097,45.012168792573206 6.654662133847097,45.11452496187271 5.654662133847097,45.215744115274106 4.654662133847097,45.31583455757509 3.654662133847097,45.41480454133025 2.654662133847097,45.51266226401986 1.654662133847097,45.60941586053572 0.654662133847097,45.70507337673396 -0.34533786615290296,45.79964257867493" />
</svg>