<svg xmlns="http://www.w3.org/2000/svg" viewBox="-4 -4 160 90">
    <desc>Show a gradient from rec2020 blue,
in LCH,
as Chroma is reduced from the max value (146.572) to near-zero
demonstrating a purpling mid-way.
1.1 is an egregious hack to avoid limited subpixel precision compositing artifacts
</desc>
<rect width="1.1" height="10" x="146.5721113008567" fill="salmon" />
<rect width="1.1" height="10" x="145.5721113008567" fill="salmon" />
<rect width="1.1" height="10" x="144.5721113008567" fill="salmon" />
<rect width="1.1" height="10" x="143.5721113008567" fill="salmon" />
<rect width="1.1" height="10" x="142.5721113008567" fill="salmon" />
<rect width="1.1" height="10" x="141.5721113008567" fill="salmon" />
<rect width="1.1" height="10" x="140.5721113008567" fill="salmon" />
<rect width="1.1" height="10" x="139.5721113008567" fill="salmon" />
<rect width="1.1" height="10" x="138.5721113008567" fill="salmon" />
<rect width="1.1" height="10" x="137.5721113008567" fill="salmon" />
<rect width="1.1" height="10" x="136.5721113008567" fill="salmon" />
<rect width="1.1" height="10" x="135.5721113008567" fill="salmon" />
<rect width="1.1" height="10" x="134.5721113008567" fill="salmon" />
<rect width="1.1" height="10" x="133.5721113008567" fill="salmon" />
<rect width="1.1" height="10" x="132.5721113008567" fill="salmon" />
<rect width="1.1" height="10" x="131.5721113008567" fill="salmon" />
<rect width="1.1" height="10" x="130.5721113008567" fill="salmon" />
<rect width="1.1" height="10" x="129.5721113008567" fill="salmon" />
<rect width="1.1" height="10" x="128.5721113008567" fill="salmon" />
<rect width="1.1" height="10" x="127.5721113008567" fill="salmon" />
<rect width="1.1" height="10" x="126.5721113008567" fill="salmon" />
<rect width="1.1" height="10" x="125.5721113008567" fill="salmon" />
<rect width="1.1" height="10" x="124.5721113008567" fill="salmon" />
<rect width="1.1" height="10" x="123.5721113008567" fill="salmon" />
<rect width="1.1" height="10" x="122.5721113008567" fill="salmon" />
<rect width="1.1" height="10" x="121.5721113008567" fill="salmon" />
<rect width="1.1" height="10" x="120.5721113008567" fill="salmon" />
<rect width="1.1" height="10" x="119.5721113008567" fill="salmon" />
<rect width="1.1" height="10" x="118.5721113008567" fill="salmon" />
<rect width="1.1" height="10" x="117.5721113008567" fill="salmon" />
<rect width="1.1" height="10" x="116.5721113008567" fill="salmon" />
<rect width="1.1" height="10" x="115.5721113008567" fill="salmon" />
<rect width="1.1" height="10" x="114.5721113008567" fill="salmon" />
<rect width="1.1" height="10" x="113.5721113008567" fill="salmon" />
<rect width="1.1" height="10" x="112.5721113008567" fill="rgb(2.048% 5.971% 84.861%)" />
<rect width="1.1" height="10" x="111.5721113008567" fill="rgb(4.171% 6.343% 84.279%)" />
<rect width="1.1" height="10" x="110.5721113008567" fill="rgb(5.952% 6.699% 83.697%)" />
<rect width="1.1" height="10" x="109.5721113008567" fill="rgb(7.387% 7.041% 83.116%)" />
<rect width="1.1" height="10" x="108.5721113008567" fill="rgb(8.607% 7.37% 82.535%)" />
<rect width="1.1" height="10" x="107.5721113008567" fill="rgb(9.675% 7.687% 81.956%)" />
<rect width="1.1" height="10" x="106.5721113008567" fill="rgb(10.63% 7.994% 81.377%)" />
<rect width="1.1" height="10" x="105.5721113008567" fill="rgb(11.496% 8.292% 80.798%)" />
<rect width="1.1" height="10" x="104.5721113008567" fill="rgb(12.29% 8.58% 80.221%)" />
<rect width="1.1" height="10" x="103.5721113008567" fill="rgb(13.023% 8.86% 79.644%)" />
<rect width="1.1" height="10" x="102.5721113008567" fill="rgb(13.704% 9.133% 79.067%)" />
<rect width="1.1" height="10" x="101.5721113008567" fill="rgb(14.34% 9.398% 78.492%)" />
<rect width="1.1" height="10" x="100.5721113008567" fill="rgb(14.938% 9.657% 77.917%)" />
<rect width="1.1" height="10" x="99.5721113008567" fill="rgb(15.5% 9.91% 77.343%)" />
<rect width="1.1" height="10" x="98.5721113008567" fill="rgb(16.031% 10.157% 76.769%)" />
<rect width="1.1" height="10" x="97.5721113008567" fill="rgb(16.534% 10.398% 76.197%)" />
<rect width="1.1" height="10" x="96.5721113008567" fill="rgb(17.011% 10.634% 75.625%)" />
<rect width="1.1" height="10" x="95.5721113008567" fill="rgb(17.465% 10.866% 75.053%)" />
<rect width="1.1" height="10" x="94.5721113008567" fill="rgb(17.897% 11.092% 74.483%)" />
<rect width="1.1" height="10" x="93.5721113008567" fill="rgb(18.309% 11.314% 73.913%)" />
<rect width="1.1" height="10" x="92.5721113008567" fill="rgb(18.702% 11.532% 73.344%)" />
<rect width="1.1" height="10" x="91.5721113008567" fill="rgb(19.078% 11.746% 72.775%)" />
<rect width="1.1" height="10" x="90.5721113008567" fill="rgb(19.437% 11.956% 72.207%)" />
<rect width="1.1" height="10" x="89.5721113008567" fill="rgb(19.782% 12.163% 71.64%)" />
<rect width="1.1" height="10" x="88.5721113008567" fill="rgb(20.111% 12.366% 71.074%)" />
<rect width="1.1" height="10" x="87.5721113008567" fill="rgb(20.427% 12.565% 70.508%)" />
<rect width="1.1" height="10" x="86.5721113008567" fill="rgb(20.731% 12.762% 69.944%)" />
<rect width="1.1" height="10" x="85.5721113008567" fill="rgb(21.022% 12.955% 69.379%)" />
<rect width="1.1" height="10" x="84.5721113008567" fill="rgb(21.301% 13.145% 68.816%)" />
<rect width="1.1" height="10" x="83.5721113008567" fill="rgb(21.569% 13.332% 68.253%)" />
<rect width="1.1" height="10" x="82.5721113008567" fill="rgb(21.826% 13.517% 67.691%)" />
<rect width="1.1" height="10" x="81.5721113008567" fill="rgb(22.074% 13.699% 67.13%)" />
<rect width="1.1" height="10" x="80.5721113008567" fill="rgb(22.311% 13.879% 66.57%)" />
<rect width="1.1" height="10" x="79.5721113008567" fill="rgb(22.539% 14.056% 66.01%)" />
<rect width="1.1" height="10" x="78.5721113008567" fill="rgb(22.758% 14.23% 65.451%)" />
<rect width="1.1" height="10" x="77.5721113008567" fill="rgb(22.968% 14.402% 64.892%)" />
<rect width="1.1" height="10" x="76.5721113008567" fill="rgb(23.17% 14.572% 64.335%)" />
<rect width="1.1" height="10" x="75.5721113008567" fill="rgb(23.364% 14.74% 63.778%)" />
<rect width="1.1" height="10" x="74.5721113008567" fill="rgb(23.549% 14.906% 63.222%)" />
<rect width="1.1" height="10" x="73.5721113008567" fill="rgb(23.728% 15.069% 62.666%)" />
<rect width="1.1" height="10" x="72.5721113008567" fill="rgb(23.898% 15.231% 62.112%)" />
<rect width="1.1" height="10" x="71.5721113008567" fill="rgb(24.062% 15.391% 61.558%)" />
<rect width="1.1" height="10" x="70.5721113008567" fill="rgb(24.219% 15.548% 61.005%)" />
<rect width="1.1" height="10" x="69.5721113008567" fill="rgb(24.369% 15.704% 60.452%)" />
<rect width="1.1" height="10" x="68.5721113008567" fill="rgb(24.512% 15.858% 59.901%)" />
<rect width="1.1" height="10" x="67.5721113008567" fill="rgb(24.649% 16.011% 59.35%)" />
<rect width="1.1" height="10" x="66.5721113008567" fill="rgb(24.78% 16.162% 58.799%)" />
<rect width="1.1" height="10" x="65.5721113008567" fill="rgb(24.905% 16.311% 58.25%)" />
<rect width="1.1" height="10" x="64.5721113008567" fill="rgb(25.024% 16.458% 57.701%)" />
<rect width="1.1" height="10" x="63.572111300856704" fill="rgb(25.137% 16.604% 57.153%)" />
<rect width="1.1" height="10" x="62.572111300856704" fill="rgb(25.244% 16.748% 56.606%)" />
<rect width="1.1" height="10" x="61.572111300856704" fill="rgb(25.346% 16.891% 56.06%)" />
<rect width="1.1" height="10" x="60.572111300856704" fill="rgb(25.443% 17.032% 55.514%)" />
<rect width="1.1" height="10" x="59.572111300856704" fill="rgb(25.534% 17.172% 54.969%)" />
<rect width="1.1" height="10" x="58.572111300856704" fill="rgb(25.62% 17.311% 54.424%)" />
<rect width="1.1" height="10" x="57.572111300856704" fill="rgb(25.701% 17.448% 53.881%)" />
<rect width="1.1" height="10" x="56.572111300856704" fill="rgb(25.776% 17.584% 53.338%)" />
<rect width="1.1" height="10" x="55.572111300856704" fill="rgb(25.847% 17.718% 52.796%)" />
<rect width="1.1" height="10" x="54.572111300856704" fill="rgb(25.914% 17.851% 52.255%)" />
<rect width="1.1" height="10" x="53.572111300856704" fill="rgb(25.975% 17.983% 51.714%)" />
<rect width="1.1" height="10" x="52.572111300856704" fill="rgb(26.032% 18.114% 51.174%)" />
<rect width="1.1" height="10" x="51.572111300856704" fill="rgb(26.084% 18.243% 50.635%)" />
<rect width="1.1" height="10" x="50.572111300856704" fill="rgb(26.132% 18.372% 50.097%)" />
<rect width="1.1" height="10" x="49.572111300856704" fill="rgb(26.175% 18.499% 49.559%)" />
<rect width="1.1" height="10" x="48.572111300856704" fill="rgb(26.214% 18.624% 49.022%)" />
<rect width="1.1" height="10" x="47.572111300856704" fill="rgb(26.249% 18.749% 48.486%)" />
<rect width="1.1" height="10" x="46.572111300856704" fill="rgb(26.279% 18.873% 47.951%)" />
<rect width="1.1" height="10" x="45.572111300856704" fill="rgb(26.305% 18.995% 47.416%)" />
<rect width="1.1" height="10" x="44.572111300856704" fill="rgb(26.328% 19.117% 46.882%)" />
<rect width="1.1" height="10" x="43.572111300856704" fill="rgb(26.346% 19.237% 46.349%)" />
<rect width="1.1" height="10" x="42.572111300856704" fill="rgb(26.36% 19.357% 45.816%)" />
<rect width="1.1" height="10" x="41.572111300856704" fill="rgb(26.37% 19.475% 45.284%)" />
<rect width="1.1" height="10" x="40.572111300856704" fill="rgb(26.376% 19.593% 44.753%)" />
<rect width="1.1" height="10" x="39.572111300856704" fill="rgb(26.378% 19.709% 44.222%)" />
<rect width="1.1" height="10" x="38.572111300856704" fill="rgb(26.377% 19.824% 43.692%)" />
<rect width="1.1" height="10" x="37.572111300856704" fill="rgb(26.371% 19.939% 43.163%)" />
<rect width="1.1" height="10" x="36.572111300856704" fill="rgb(26.362% 20.052% 42.635%)" />
<rect width="1.1" height="10" x="35.572111300856704" fill="rgb(26.349% 20.165% 42.107%)" />
<rect width="1.1" height="10" x="34.572111300856704" fill="rgb(26.333% 20.276% 41.58%)" />
<rect width="1.1" height="10" x="33.572111300856704" fill="rgb(26.312% 20.387% 41.054%)" />
<rect width="1.1" height="10" x="32.572111300856704" fill="rgb(26.289% 20.497% 40.528%)" />
<rect width="1.1" height="10" x="31.572111300856704" fill="rgb(26.261% 20.606% 40.003%)" />
<rect width="1.1" height="10" x="30.572111300856704" fill="rgb(26.23% 20.714% 39.478%)" />
<rect width="1.1" height="10" x="29.572111300856704" fill="rgb(26.196% 20.821% 38.954%)" />
<rect width="1.1" height="10" x="28.572111300856704" fill="rgb(26.158% 20.928% 38.431%)" />
<rect width="1.1" height="10" x="27.572111300856704" fill="rgb(26.116% 21.033% 37.908%)" />
<rect width="1.1" height="10" x="26.572111300856704" fill="rgb(26.071% 21.138% 37.386%)" />
<rect width="1.1" height="10" x="25.572111300856704" fill="rgb(26.023% 21.242% 36.864%)" />
<rect width="1.1" height="10" x="24.572111300856704" fill="rgb(25.971% 21.345% 36.343%)" />
<rect width="1.1" height="10" x="23.572111300856704" fill="rgb(25.916% 21.447% 35.823%)" />
<rect width="1.1" height="10" x="22.572111300856704" fill="rgb(25.857% 21.549% 35.303%)" />
<rect width="1.1" height="10" x="21.572111300856704" fill="rgb(25.795% 21.65% 34.784%)" />
<rect width="1.1" height="10" x="20.572111300856704" fill="rgb(25.73% 21.75% 34.265%)" />
<rect width="1.1" height="10" x="19.572111300856704" fill="rgb(25.661% 21.849% 33.746%)" />
<rect width="1.1" height="10" x="18.572111300856704" fill="rgb(25.589% 21.948% 33.228%)" />
<rect width="1.1" height="10" x="17.572111300856704" fill="rgb(25.514% 22.045% 32.711%)" />
<rect width="1.1" height="10" x="16.572111300856704" fill="rgb(25.435% 22.142% 32.194%)" />
<rect width="1.1" height="10" x="15.572111300856704" fill="rgb(25.353% 22.239% 31.677%)" />
<rect width="1.1" height="10" x="14.572111300856704" fill="rgb(25.268% 22.334% 31.16%)" />
<rect width="1.1" height="10" x="13.572111300856704" fill="rgb(25.179% 22.429% 30.644%)" />
<rect width="1.1" height="10" x="12.572111300856704" fill="rgb(25.087% 22.523% 30.129%)" />
<rect width="1.1" height="10" x="11.572111300856704" fill="rgb(24.992% 22.617% 29.613%)" />
<rect width="1.1" height="10" x="10.572111300856704" fill="rgb(24.894% 22.71% 29.098%)" />
<rect width="1.1" height="10" x="9.572111300856704" fill="rgb(24.792% 22.802% 28.583%)" />
<rect width="1.1" height="10" x="8.572111300856704" fill="rgb(24.687% 22.893% 28.068%)" />
<rect width="1.1" height="10" x="7.5721113008567045" fill="rgb(24.578% 22.984% 27.553%)" />
<rect width="1.1" height="10" x="6.5721113008567045" fill="rgb(24.467% 23.074% 27.038%)" />
<rect width="1.1" height="10" x="5.5721113008567045" fill="rgb(24.352% 23.164% 26.523%)" />
<rect width="1.1" height="10" x="4.5721113008567045" fill="rgb(24.234% 23.252% 26.008%)" />
<rect width="1.1" height="10" x="3.5721113008567045" fill="rgb(24.112% 23.341% 25.493%)" />
<rect width="1.1" height="10" x="2.5721113008567045" fill="rgb(23.987% 23.428% 24.977%)" />
<rect width="1.1" height="10" x="1.5721113008567045" fill="rgb(23.859% 23.515% 24.462%)" />
<rect width="1.1" height="10" x="0.5721113008567045" fill="rgb(23.727% 23.601% 23.946%)" />
<rect width="146.5721113008567" height="35" y="15" fill="none" stroke="grey" stroke-width="0.2"/>
<polyline fill="none" stroke-width="0.2" stroke="red" points="146.5721113008567,50.00000340982791 145.5721113008567,49.95766056390428 144.5721113008567,49.91589017892762 143.5721113008567,49.87468934131696 142.5721113008567,49.834055137454556 141.5721113008567,49.793984653686145 140.5721113008567,49.75447497632123 139.5721113008567,49.71552319163317 138.5721113008567,49.6771263858596 137.5721113008567,49.6392816452025 136.5721113008567,49.60198605582852 135.5721113008567,49.56523670386914 134.5721113008567,49.52903067542098 133.5721113008567,49.493365056545905 132.5721113008567,49.458236933271394 131.5721113008567,49.423643391590645 130.5721113008567,49.389581517462865 129.5721113008567,49.356048396813456 128.5721113008567,49.323041115534274 127.5721113008567,49.2905567594838 126.5721113008567,49.25859241448743 125.5721113008567,49.2271451663376 124.5721113008567,49.196212100794085 123.5721113008567,49.16579030358421 122.5721113008567,49.13587686040297 121.5721113008567,49.1064688569134 120.5721113008567,49.07756337874667 119.5721113008567,49.049157511502344 118.5721113008567,49.02124834074858 117.5721113008567,48.993832952022316 116.5721113008567,48.96690843082957 115.5721113008567,48.94047186264556 114.5721113008567,48.914520332914925 113.5721113008567,48.889050927052 112.5721113008567,48.86406073044091 111.5721113008567,48.83954682843592 110.5721113008567,48.81550630636148 109.5721113008567,48.791936249512574 108.5721113008567,48.76883374315482 107.5721113008567,48.74619587252471 106.5721113008567,48.72401972282982 105.5721113008567,48.70230237924902 104.5721113008567,48.681040926932624 103.5721113008567,48.66023245100265 102.5721113008567,48.639874036552946 101.5721113008567,48.61996276864945 100.5721113008567,48.60049573233036 99.5721113008567,48.58147001260631 98.5721113008567,48.562882694460605 97.5721113008567,48.54473086284936 96.5721113008567,48.52701160270173 95.5721113008567,48.50972199892009 94.5721113008567,48.49285913638021 93.5721113008567,48.47642009993147 92.5721113008567,48.460401974396994 91.5721113008567,48.44480184457389 90.5721113008567,48.42961679523341 89.5721113008567,48.41484391112111 88.5721113008567,48.400480276957076 87.5721113008567,48.38652297743605 86.5721113008567,48.37296909722766 85.5721113008567,48.359815720976556 84.5721113008567,48.3470599333026 83.5721113008567,48.334698818801044 82.5721113008567,48.32272946204268 81.5721113008567,48.31114894757405 80.5721113008567,48.299954359917564 79.5721113008567,48.28914278357169 78.5721113008567,48.27871130301114 77.5721113008567,48.26865700268699 76.5721113008567,48.25897696702686 75.5721113008567,48.249668280435095 74.5721113008567,48.24072802729286 73.5721113008567,48.23215329195837 72.5721113008567,48.22394115876697 71.5721113008567,48.216088712031336 70.5721113008567,48.20859303604161 69.5721113008567,48.20145121506553 68.5721113008567,48.19466033334856 67.5721113008567,48.188217475114044 66.5721113008567,48.182119724563364 65.5721113008567,48.17636416587601 64.5721113008567,48.170947883209784 63.572111300856704,48.16586796070086 62.572111300856704,48.1611214824639 61.572111300856704,48.156705532592234 60.572111300856704,48.1526171951579 59.572111300856704,48.14885355421179 58.572111300856704,48.145411693783736 57.572111300856704,48.14228869788258 56.572111300856704,48.1394816504963 55.572111300856704,48.13698763559208 54.572111300856704,48.13480373711635 53.572111300856704,48.13292703899489 52.572111300856704,48.13135462513287 51.572111300856704,48.13008357941489 50.572111300856704,48.12911098570499 49.572111300856704,48.12843392784675 48.572111300856704,48.12804948966321 47.572111300856704,48.12795475495694 46.572111300856704,48.12814680750996 45.572111300856704,48.12862273108373 44.572111300856704,48.129379609419125 43.572111300856704,48.1304145262363 42.572111300856704,48.131724565234634 41.572111300856704,48.133306810092584 40.572111300856704,48.13515834446752 39.572111300856704,48.13727625199557 38.572111300856704,48.139657616291366 37.572111300856704,48.14229952094777 36.572111300856704,48.14519904953558 35.572111300856704,48.14835328560313 34.572111300856704,48.15175931267589 33.572111300856704,48.15541421425594 32.572111300856704,48.15931507382137 31.572111300856704,48.163458974825616 30.572111300856704,48.167843000696664 29.572111300856704,48.17246423483611 28.572111300856704,48.177319760618104 27.572111300856704,48.18240666138808 26.572111300856704,48.18772202046127 25.572111300856704,48.19326292112104 24.572111300856704,48.19902644661682 23.572111300856704,48.205009680161716 22.572111300856704,48.21120970492969 21.572111300856704,48.21762360405218 20.572111300856704,48.22424846061402 19.572111300856704,48.23108135764858 18.572111300856704,48.23811937813174 17.572111300856704,48.24535960497466 16.572111300856704,48.252799121014625 15.572111300856704,48.26043500900379 14.572111300856704,48.268264351594745 13.572111300856704,48.27628423132212 12.572111300856704,48.284491730578516 11.572111300856704,48.29288393158259 10.572111300856704,48.301457916335835 9.572111300856704,48.31021076656264 8.572111300856704,48.31913956362481 7.5721113008567045,48.328241388395355 6.5721113008567045,48.33751332106465 5.5721113008567045,48.346952440826705 4.5721113008567045,48.35655582533721 3.5721113008567045,48.36632054969175 2.5721113008567045,48.376243684247704 1.5721113008567045,48.3863222890276 0.5721113008567045,48.39655339377159" />
<polyline fill="none" stroke-width="0.2" stroke="green" points="146.5721113008567,49.99999660584702 145.5721113008567,49.986687032731865 144.5721113008567,49.97340904415711 143.5721113008567,49.96016267207133 142.5721113008567,49.94694794842639 141.5721113008567,49.93376490517749 140.5721113008567,49.92061357428308 139.5721113008567,49.90749398770491 138.5721113008567,49.894406177407994 137.5721113008567,49.88135017536062 136.5721113008567,49.86832601353436 135.5721113008567,49.85533372390398 134.5721113008567,49.842373338447544 133.5721113008567,49.82944488914634 132.5721113008567,49.81654840798486 131.5721113008567,49.80368392695086 130.5721113008567,49.79085147803527 129.5721113008567,49.77805109323228 128.5721113008567,49.76528280453922 127.5721113008567,49.752546643956656 126.5721113008567,49.73984264348834 125.5721113008567,49.72717083514118 124.5721113008567,49.71453125092529 123.5721113008567,49.70192392285392 122.5721113008567,49.689348882943506 121.5721113008567,49.67680616321361 120.5721113008567,49.66429579568697 119.5721113008567,49.65181781238944 118.5721113008567,49.63937224535001 117.5721113008567,49.62695912660082 116.5721113008567,49.614578488177116 115.5721113008567,49.60223036211725 114.5721113008567,49.58991478046269 113.5721113008567,49.577631775258006 112.5721113008567,49.565381378550875 111.5721113008567,49.553163622392034 110.5721113008567,49.54097853883535 109.5721113008567,49.528826159937715 108.5721113008567,49.51670651775914 107.5721113008567,49.504619644362684 106.5721113008567,49.49256557181447 105.5721113008567,49.48054433218366 104.5721113008567,49.46855595754251 103.5721113008567,49.456600479966276 102.5721113008567,49.444677931533285 101.5721113008567,49.43278834432489 100.5721113008567,49.42093175042548 99.5721113008567,49.40910818192246 98.5721113008567,49.39731767090627 97.5721113008567,49.385560249470366 96.5721113008567,49.373835949711214 95.5721113008567,49.362144803728285 94.5721113008567,49.350486843624076 93.5721113008567,49.33886210150407 92.5721113008567,49.32727060947675 91.5721113008567,49.315712399653606 90.5721113008567,49.304187504149105 89.5721113008567,49.29269595508073 88.5721113008567,49.28123778456892 87.5721113008567,49.269813024737125 86.5721113008567,49.258421707711776 85.5721113008567,49.247063865622266 84.5721113008567,49.235739530600995 83.5721113008567,49.22444873478333 82.5721113008567,49.21319151030762 81.5721113008567,49.201967889315185 80.5721113008567,49.19077790395033 79.5721113008567,49.17962158636034 78.5721113008567,49.16849896869549 77.5721113008567,49.15741008310901 76.5721113008567,49.14635496175714 75.5721113008567,49.13533363679909 74.5721113008567,49.12434614039706 73.5721113008567,49.11339250471625 72.5721113008567,49.10247276192485 71.5721113008567,49.091586944194056 70.5721113008567,49.08073508369805 69.5721113008567,49.06991721261406 68.5721113008567,49.05913336312231 67.5721113008567,49.048383567406056 66.5721113008567,49.03766785765159 65.5721113008567,49.02698626604826 64.5721113008567,49.01633882478847 63.572111300856704,49.00572556606768 62.572111300856704,48.995146522084454 61.572111300856704,48.98460172504044 60.572111300856704,48.97409120714042 59.572111300856704,48.963615000592284 58.572111300856704,48.9531731376071 57.572111300856704,48.94276565039911 56.572111300856704,48.93239257118575 55.572111300856704,48.92205393218769 54.572111300856704,48.91174976562884 53.572111300856704,48.901480103736425 52.572111300856704,48.89124497874097 51.572111300856704,48.88104442287639 50.572111300856704,48.87087846837999 49.572111300856704,48.860747147492525 48.572111300856704,48.85065049245826 47.572111300856704,48.840588535525 46.572111300856704,48.83056130894419 45.572111300856704,48.820568844970964 44.572111300856704,48.81061117586422 43.572111300856704,48.80068833388667 42.572111300856704,48.79080035130499 41.572111300856704,48.780947260389894 40.572111300856704,48.771129093416235 39.572111300856704,48.76134588266313 38.572111300856704,48.751597660414106 37.572111300856704,48.74188445895725 36.572111300856704,48.7322063105854 35.572111300856704,48.72256324759627 34.572111300856704,48.712955302292755 33.572111300856704,48.70338250698309 32.572111300856704,48.693844893981165 31.572111300856704,48.68434249560683 30.572111300856704,48.67487534418621 29.572111300856704,48.665443472052154 28.572111300856704,48.65604691154461 27.572111300856704,48.64668569501121 26.572111300856704,48.63735985480784 25.572111300856704,48.628069423299316 24.572111300856704,48.6188144328602 23.572111300856704,48.60959491587573 22.572111300856704,48.60041090474292 21.572111300856704,48.59126243187187 20.572111300856704,48.58214952968728 19.572111300856704,48.57307223063036 18.572111300856704,48.56403056716104 17.572111300856704,48.55502457176074 16.572111300856704,48.54605427693575 15.572111300856704,48.537119715221436 14.572111300856704,48.528220919187596 13.572111300856704,48.51935792144527 12.572111300856704,48.51053075465561 11.572111300856704,48.50173945154164 10.572111300856704,48.492984044904084 9.572111300856704,48.48426456764337 8.572111300856704,48.47558105279088 7.5721113008567045,48.46693353355497 6.5721113008567045,48.458322043391696 5.5721113008567045,48.44974661611885 4.5721113008567045,48.44120728611287 3.5721113008567045,48.432704088679365 2.5721113008567045,48.424237060841826 1.5721113008567045,48.41580624336505 0.5721113008567045,48.407411687956014" />
<polyline fill="none" stroke-width="0.2" stroke="blue" points="146.5721113008567,15.000002387382843 145.5721113008567,15.455802365932392 144.5721113008567,15.907635405291423 143.5721113008567,16.35551884285246 142.5721113008567,16.799470016195585 141.5721113008567,17.239506263087257 140.5721113008567,17.675644921478586 139.5721113008567,18.107903329504815 138.5721113008567,18.53629882548306 137.5721113008567,18.960848747911825 136.5721113008567,19.38157043546934 135.5721113008567,19.798481227012232 134.5721113008567,20.21159846157442 133.5721113008567,20.620939478365813 132.5721113008567,21.026521616770985 131.5721113008567,21.428362216347903 130.5721113008567,21.82647861682674 129.5721113008567,22.220888158108536 128.5721113008567,22.611608180264053 127.5721113008567,22.998656023532433 126.5721113008567,23.382049028319994 125.5721113008567,23.76180453519903 124.5721113008567,24.137939884906498 123.5721113008567,24.51047241834288 122.5721113008567,24.879419476570952 121.5721113008567,25.244798400814453 120.5721113008567,25.60662653245699 119.5721113008567,25.9649212130408 118.5721113008567,26.319699784265556 117.5721113008567,26.670979587987212 116.5721113008567,27.01877796621662 115.5721113008567,27.36311226111858 114.5721113008567,27.703999815010555 113.5721113008567,28.041457970361403 112.5721113008567,28.375504069790342 111.5721113008567,28.706155456065705 110.5721113008567,29.033429472103805 109.5721113008567,29.357343460967737 108.5721113008567,29.677914765866223 107.5721113008567,29.995160730152588 106.5721113008567,30.30909869732336 105.5721113008567,30.619746011017348 104.5721113008567,30.927120015014395 103.5721113008567,31.231238053234264 102.5721113008567,31.532117469735564 101.5721113008567,31.829775608714538 100.5721113008567,32.124229814504005 99.5721113008567,32.41549743157222 98.5721113008567,32.70359580452173 97.5721113008567,32.98854227808836 96.5721113008567,33.27035419714002 95.5721113008567,33.54904890667565 94.5721113008567,33.82464375182409 93.5721113008567,34.09715607784307 92.5721113008567,34.366603230118024 91.5721113008567,34.63300255416115 90.5721113008567,34.89637139561016 89.5721113008567,35.156727100227364 88.5721113008567,35.4140870138985 87.5721113008567,35.668468482631795 86.5721113008567,35.91988885255674 85.5721113008567,36.16836546992321 84.5721113008567,36.4139156811003 83.5721113008567,36.656556832575326 82.5721113008567,36.89630627095282 81.5721113008567,37.13318134295348 80.5721113008567,37.36719939541307 79.5721113008567,37.598377775281534 78.5721113008567,37.82673382962187 77.5721113008567,38.05228490560919 76.5721113008567,38.27504835052963 75.5721113008567,38.49504151177945 74.5721113008567,38.71228173686398 73.5721113008567,38.92678637339661 72.5721113008567,39.13857276909792 71.5721113008567,39.34765827179451 70.5721113008567,39.55406022941816 69.5721113008567,39.757795990004844 68.5721113008567,39.958882901693755 67.5721113008567,40.15733831272634 66.5721113008567,40.35317957144531 65.5721113008567,40.546424026293806 64.5721113008567,40.737089025814306 63.572111300856704,40.92519191864784 62.572111300856704,41.110750053532925 61.572111300856704,41.293780779304754 60.572111300856704,41.474301444894195 59.572111300856704,41.65232939932695 58.572111300856704,41.8278819917226 57.572111300856704,42.000976571293755 56.572111300856704,42.17163048734509 55.572111300856704,42.339861089272574 54.572111300856704,42.50568572656248 53.572111300856704,42.66912174879063 52.572111300856704,42.83018650562144 51.572111300856704,42.988897346807164 50.572111300856704,43.14527162218697 49.572111300856704,43.299326681686196 48.572111300856704,43.451079875315486 47.572111300856704,43.600548553169986 46.572111300856704,43.747750065428555 45.572111300856704,43.892701762353 44.572111300856704,44.03542099428731 43.572111300856704,44.175925111656916 42.572111300856704,44.314231464967925 41.572111300856704,44.450357404806454 40.572111300856704,44.58432028183791 39.572111300856704,44.71613744680632 38.572111300856704,44.84582625053374 37.572111300856704,44.97340404391954 36.572111300856704,45.098888177939926 35.572111300856704,45.222296003647365 34.572111300856704,45.34364487217004 33.572111300856704,45.46295213471145 32.572111300856704,45.58023514254998 31.572111300856704,45.69551124703855 30.572111300856704,45.80879779960437 29.572111300856704,45.92011215174876 28.572111300856704,46.02947165504703 27.572111300856704,46.13689366114856 26.572111300856704,46.242395521776906 25.572111300856704,46.3459945887302 24.572111300856704,46.44770821388163 23.572111300856704,46.54755374918025 22.572111300856704,46.64554854665202 21.572111300856704,46.741709958401266 20.572111300856704,46.8360553366125 19.572111300856704,46.92860203355296 18.572111300856704,47.01936740157567 17.572111300856704,47.10836879312359 16.572111300856704,47.1956235607349 15.572111300856704,47.2811490570498 14.572111300856704,47.36496263481949 13.572111300856704,47.447081646917965 12.572111300856704,47.52752344635779 11.572111300856704,47.60630538631139 10.572111300856704,47.68344482014054 9.572111300856704,47.7589591014378 8.572111300856704,47.832865584086655 7.5721113008567045,47.90518162235133 6.5721113008567045,47.97592457101673 5.5721113008567045,48.04511178561759 4.5721113008567045,48.11276062283887 3.5721113008567045,48.1788884412793 2.5721113008567045,48.24351260309691 1.5721113008567045,48.306650478282876 0.5721113008567045,48.36831946005823" />
</svg>