<svg xmlns="http://www.w3.org/2000/svg" viewBox="-130 -130 270 260" overflow="visible" width="540" height="520">
<desc>Show a top-down view of the CIE Lab color space.
      The sRGB primaries and secondaries are shown,
      with an annotation indicating the L value
</desc>
<rect x="-130" y="-130" width="100%" height="100%" fill="white" />
<g fill="none" stroke="black" stroke-width="0.5">

<!-- axes -->
​<polyline points="0 -120 0 120"/>
<polyline points="-120 0 120 0"/>

<!-- tic marks -->
<g stroke="#888">
<path d="M-3,-110 h6 M-3,-100 h6 M-3,-90 h6 M-3,-80 h6 M-3,-70 h6 M-3,-60 h6 M-3,-50 h6 M-3,-40 h6 M-3,-30 h6 M-3,-20 h6 M-3,-10 h6 M-3,10 h6 M-3,20 h6 M-3,30 h6 M-3,40 h6 M-3,50 h6 M-3,60 h6 M-3,70 h6 M-3,80 h6 M-3,90 h6 M-3,100 h6 M-3,110 h6"/>
<path d="M110,-3 v6 M100,-3 v6 M90,-3 v6 M80,-3 v6 M70,-3 v6 M60,-3 v6 M50,-3 v6 M40,-3 v6 M30,-3 v6 M20,-3 v6 M10,-3 v6 M-10,-3 v6 M-20,-3 v6 M-30,-3 v6 M-40,-3 v6 M-50,-3 v6 M-60,-3 v6 M-70,-3 v6 M-80,-3 v6 M-90,-3 v6 M-100,-3 v6 M-110,-3 v6"/>


<!-- radial lines for hue angle and chroma -->
<polyline points="0,0 80.81,-69.88"/>
<polyline points="0,0 -79.28,-80.99"/>
<polyline points="0,0 68.29,112.02"/>
<polyline points="0,0 -50.66,14.96"/>
<polyline points="0,0 93.54,60.49"/>
<polyline points="0,0 -15.75,-93.38"/>
</g>
</g>

<!-- primaries and secondaries -->
<g stroke="none" stroke-width="0.5">
  <circle r="3" cx="80.81247134537588" cy="-69.88502268764606" fill="red"/>
  <circle r="3" cx="-79.2872863932051" cy="-80.99026038511582" fill="green"/>
  <circle r="3" cx="68.29859917400466" cy="112.02941005918544" fill="blue"/>
  <circle r="3" cx="-50.665438698900886" cy="14.962023848069572" fill="cyan"/>
  <circle r="3" cx="93.54998546820059" cy="60.49854210467602" fill="magenta"/>
  <circle r="3" cx="-15.75288562782686" cy="-93.38840952541491" fill="yellow"/>
</g>

<circle r="4"/>
<circle r="3" fill="#777"/>
<circle r="2" fill="#fff"/>
<g font-family="sans-serif" font-size="6pt">
<!-- haha not really 6pt but a unit is required per CSS -->
  <text x="120" y="-3">+a</text>
  <text x="-120.5" y="-3" text-anchor="end">-a</text>
  <text x="4" y="122">-b</text>
  <text x="4" y="-118">+b</text>
</g>

<g font-family="sans-serif" font-size="5pt">
  <text x="85.8" y="-74.8">L: 54.2917%<tspan x="85.8" dy="10">C: 106.8390<tspan x="85.8" dy="10">H: 40.8526</tspan></tspan></text>
  <text x="-128" y="-85.9">L: 87.8181%<tspan x="-128" dy="10">C: 113.3397<tspan x="-128" dy="10">H: 134.3912</tspan></tspan></text>
  <text x="73.3" y="97">L: 29.5676%<tspan x="73.3" dy="10">C: 131.2070<tspan x="73.3" dy="10">H: 301.3685</tspan></tspan></text>
  <text x="-100" y="12">L: 90.6655%<tspan x="-100" dy="10">C: 52.8285<tspan x="-100" dy="10">H: 196.4524</tspan></tspan></text>
  <text x="99" y="55">L: 60.1697%<tspan x="99" dy="10">C: 111.4077<tspan x="99" dy="10">H: 327.1094</tspan></tspan></text>
  <text x="-60" y="-98">L: 97.6071%<tspan x="-60" dy="10">C: 94.7078<tspan x="-60" dy="10">H: 99.5746</tspan></tspan></text>
</g>
</svg>