<svg version="1.1" id="Layer_1" xmlns="http://www.w3.org/2000/svg" xmlns:xlink="http://www.w3.org/1999/xlink" x="0px" y="0px"
	 width="100%" viewBox="0 0 688 416" enable-background="new 0 0 688 416" xml:space="preserve">
<path fill="#000000" opacity="1.000000" stroke="none" 
	d="
M237.064285,321.713104 
	C260.468262,322.654541 281.848114,315.512360 303.355225,309.131714 
	C312.304779,306.476562 321.000275,303.095215 329.233704,298.632660 
	C330.842224,297.760834 332.483826,296.898712 333.938629,295.804047 
	C338.565063,292.322876 338.414856,289.127472 333.441162,286.206635 
	C328.408813,283.251373 322.721008,282.827148 317.079681,282.338226 
	C307.310760,281.491638 297.457703,281.447998 287.821442,279.351990 
	C285.881134,278.929932 283.956238,278.327271 282.113037,277.586823 
	C272.855896,273.868042 268.957947,267.016632 272.352905,257.594360 
	C281.774475,231.445679 304.733673,205.916260 337.780701,205.888290 
	C344.945129,205.882233 352.134064,205.368073 359.268097,205.803299 
	C369.762329,206.443512 377.983795,202.153366 385.272400,195.258286 
	C394.653290,186.383789 400.139038,174.869049 406.435730,163.911133 
	C410.915405,156.115295 415.098175,148.119598 421.056305,141.297974 
	C432.262299,128.468002 445.553528,129.839920 453.686707,144.646484 
	C460.021179,156.178452 463.979614,168.661819 464.969177,181.622375 
	C465.899750,193.810486 459.557831,203.642014 450.648529,211.613831 
	C447.960602,214.018936 444.473480,213.604736 441.117767,212.693436 
	C429.097870,209.429321 418.285126,203.494171 407.617645,197.331879 
	C404.265503,195.395462 402.353333,195.273102 399.859680,198.657104 
	C394.332550,206.157700 388.436401,213.396988 382.481232,220.568909 
	C374.646210,230.004822 365.231598,235.453568 352.174774,234.560608 
	C338.915588,233.653824 325.527832,234.145493 312.345734,236.389114 
	C305.845123,237.495529 299.851898,240.017792 295.398621,245.217484 
	C289.887451,251.652374 291.492950,257.259735 299.643616,259.233887 
	C308.840546,261.461426 318.359833,262.364685 327.268127,265.781830 
	C336.754211,269.420654 345.138641,274.520752 347.707489,285.217102 
	C349.886902,294.291840 346.494995,302.317169 341.260437,309.533478 
	C331.743042,322.654175 318.268280,330.640381 303.860657,337.070618 
	C280.672302,347.419861 256.378906,353.320740 230.885498,353.680054 
	C212.804993,353.934906 195.751572,350.333954 181.037994,339.167328 
	C166.860092,328.407227 159.987778,313.472473 158.814880,296.151459 
	C157.064941,270.308655 165.622971,247.026291 178.225204,224.968552 
	C178.637207,224.247406 179.162598,223.591721 179.621597,222.896591 
	C180.812698,221.092773 182.258331,219.687973 184.566727,220.859344 
	C187.055893,222.122421 186.293427,224.172913 185.416168,226.030304 
	C182.358139,232.504959 179.227341,238.940842 176.967422,245.761322 
	C172.792679,258.360840 170.219879,271.095032 172.374252,284.484955 
	C174.901321,300.191223 189.783218,314.540863 208.375992,318.519623 
	C217.651810,320.504578 227.061005,321.652405 237.064285,321.713104 
M430.111786,159.319763 
	C429.155945,159.050964 428.211029,158.603561 427.242340,158.544144 
	C422.951447,158.281036 418.113525,162.083405 417.592377,166.301590 
	C417.038574,170.783707 420.728424,171.696442 423.760834,172.791138 
	C427.798767,174.248825 431.933228,175.475479 436.089600,176.558136 
	C439.908875,177.552979 441.487671,175.726791 440.640045,172.023087 
	C439.344635,166.362823 435.861542,162.316483 430.111786,159.319763 
z"/>
<path fill="#000000" opacity="1.000000" stroke="none" 
	d="
M596.867676,127.048187 
	C598.841736,120.099747 600.931458,113.601234 602.571533,106.991150 
	C603.766602,102.174728 606.307373,102.013802 610.313599,103.513718 
	C630.917480,111.227669 645.859558,125.433487 656.745728,144.126450 
	C664.052307,156.672806 667.809814,170.452881 669.144409,184.862411 
	C669.962463,193.693924 667.922607,202.064911 664.156372,210.021255 
	C662.852539,212.775452 660.812744,214.918503 658.194031,216.589264 
	C640.575378,227.830597 621.447266,234.201538 600.503113,235.464981 
	C590.183044,236.087540 579.901978,237.075623 569.629639,235.461227 
	C563.855347,234.553772 563.491638,233.603271 564.323730,227.761398 
	C565.260620,221.183289 565.868408,214.558548 566.787903,207.977615 
	C567.635681,201.909866 568.610291,201.074768 574.515869,201.777939 
	C599.854492,204.794876 624.204041,200.326370 648.090271,192.246094 
	C649.819153,191.661240 651.469421,190.842163 653.151550,190.121216 
	C657.435120,188.285355 658.430786,185.251587 657.165833,180.806213 
	C654.642517,171.938614 649.037842,165.153580 642.614502,159.051865 
	C631.303955,148.307755 617.859192,141.116211 602.947205,136.669373 
	C596.131042,134.636749 596.105896,134.721069 596.867676,127.048187 
z"/>
<path fill="#000000" opacity="1.000000" stroke="none" 
	d="
M516.275391,220.288086 
	C517.786255,205.335953 515.969727,190.962509 514.226135,176.609085 
	C511.843445,156.994400 509.220123,137.408875 506.683472,117.812988 
	C504.573608,101.514000 502.538971,85.204422 500.290131,68.924515 
	C497.841095,51.195259 503.224304,35.091232 510.215912,19.288183 
	C510.670166,18.261471 511.352753,17.212803 513.279419,17.307627 
	C515.998962,22.990873 515.865845,29.424450 515.902222,35.536194 
	C516.035095,57.879990 519.740356,79.857216 522.008057,101.979622 
	C524.056213,121.961082 526.205017,141.932281 528.342590,161.904465 
	C528.925415,167.350296 530.161804,172.781677 530.178223,178.222473 
	C530.233398,196.486023 526.309448,214.145340 521.122620,231.549301 
	C520.502747,233.629242 519.461243,235.895584 516.596375,235.041092 
	C514.099365,234.296326 514.277649,232.077118 514.584961,230.048004 
	C515.057068,226.930740 515.624695,223.827942 516.275391,220.288086 
z"/>
<path fill="#000000" opacity="1.000000" stroke="none" 
	d="
M29.588079,231.237610 
	C26.380966,224.697922 27.264364,218.180618 28.357201,211.867538 
	C29.225313,206.852570 33.733410,205.957138 38.068069,205.842468 
	C43.884109,205.688614 49.707069,205.793091 55.527061,205.792618 
	C69.495186,205.791458 83.463524,205.748077 97.431366,205.811066 
	C106.492485,205.851959 108.858139,208.045532 109.778572,217.040771 
	C109.963852,218.851456 109.981987,220.700241 109.863342,222.517502 
	C109.226349,232.273636 107.017899,234.350388 97.310661,234.358841 
	C77.522484,234.376083 57.734272,234.355652 37.946136,234.387604 
	C34.883244,234.392548 31.917482,234.311707 29.588079,231.237610 
z"/>
<path fill="#000000" opacity="1.000000" stroke="none" 
	d="
M216.747208,375.495239 
	C219.820389,374.178589 221.374878,376.374329 223.137192,377.703369 
	C226.990204,380.609253 230.788620,383.602173 234.439133,386.756561 
	C236.766052,388.767242 238.364059,388.541687 240.125427,386.083313 
	C243.227325,381.753906 246.555038,377.586945 249.696915,373.285278 
	C251.499283,370.817596 253.377792,370.347382 256.027069,372.119263 
	C261.300232,375.646027 266.201477,379.628326 271.028687,383.721466 
	C272.989624,385.384216 273.244751,387.160248 272.033356,389.443298 
	C268.900116,395.348358 265.062286,400.775909 261.147003,406.167145 
	C259.131958,408.941803 257.053375,408.327728 254.761642,406.641174 
	C249.164612,402.522095 243.543533,398.435699 237.571350,394.072571 
	C233.829407,399.120148 230.255630,403.684753 226.976837,408.452240 
	C224.729706,411.719666 222.346939,412.452332 219.101517,410.022247 
	C214.839569,406.830963 210.534042,403.697937 206.258072,400.525299 
	C203.036285,398.134857 202.530869,395.478546 204.865311,391.978607 
	C208.561325,386.437225 212.206116,380.873352 216.747208,375.495239 
z"/>
</svg>
