<svg version="1.1" id="Layer_1" xmlns="http://www.w3.org/2000/svg" xmlns:xlink="http://www.w3.org/1999/xlink" x="0px" y="0px"
	 width="100%" viewBox="0 0 384 416" enable-background="new 0 0 384 416" xml:space="preserve">
<path fill="#000000" opacity="1.000000" stroke="none" 
	d="
M30.961773,262.978363 
	C18.762856,247.122330 16.739632,229.599182 21.179760,211.086426 
	C26.874521,187.342606 37.787064,165.838898 50.539871,145.204330 
	C51.598995,143.490631 52.680180,140.915192 55.511948,142.544601 
	C58.472546,144.248138 56.928761,146.629044 55.921680,148.643631 
	C49.137520,162.214859 42.785973,175.960632 38.811382,190.667236 
	C36.127689,200.597321 35.056377,210.612076 37.990982,220.697372 
	C42.184536,235.109268 52.305538,244.163773 65.588379,249.713562 
	C83.395851,257.153809 102.092728,258.213989 121.003883,255.391724 
	C148.226761,251.329056 173.942917,242.390778 198.697144,230.556702 
	C202.291336,228.838470 205.697495,226.702911 209.090637,224.599136 
	C210.601013,223.662689 212.522247,222.608200 212.262314,220.478821 
	C211.985474,218.211060 209.895264,217.345398 208.022049,216.663467 
	C202.671631,214.715683 196.995422,214.264206 191.431778,213.349319 
	C182.575821,211.893051 173.663498,210.775665 164.815399,209.276627 
	C158.541733,208.213776 152.544510,206.141037 147.160645,202.663071 
	C137.803452,196.618286 133.959717,187.294662 136.318771,176.360199 
	C139.789047,160.275009 148.287247,146.768005 158.805542,134.551117 
	C172.754044,118.350090 188.625992,104.501945 209.284744,97.326782 
	C216.383881,94.861122 223.641937,92.874207 231.259506,94.682335 
	C238.391357,96.375175 239.700928,98.566521 238.135315,105.581238 
	C236.412903,113.298561 234.688858,121.015511 232.898132,129.034378 
	C231.684784,128.550156 230.955643,128.460815 230.520737,128.055634 
	C222.904343,120.960205 213.742813,120.839890 204.689850,123.396805 
	C186.640121,128.494751 171.058380,137.714523 159.737717,153.165680 
	C159.540771,153.434479 159.347458,153.706177 159.160416,153.981918 
	C148.888199,169.127411 151.898590,178.659912 169.106262,184.591782 
	C180.315414,188.455856 192.002258,190.309036 203.749817,191.561325 
	C208.068665,192.021729 212.327560,192.635284 216.524704,193.661377 
	C224.680740,195.655319 227.468246,199.664291 228.343597,208.119049 
	C230.017654,224.288055 222.869354,236.263641 210.753433,245.648087 
	C177.778900,271.188660 140.442657,284.866302 98.641968,286.424438 
	C81.564735,287.061005 65.116158,285.041595 49.597752,277.559418 
	C42.457447,274.116730 36.284889,269.363708 30.961773,262.978363 
z"/>
<path fill="#000000" opacity="1.000000" stroke="none" 
	d="
M354.397400,223.502808 
	C339.913818,230.877625 324.814301,234.237656 309.042114,235.467361 
	C299.888123,236.181076 290.759857,236.609314 281.623108,236.082397 
	C272.720520,235.569000 271.669342,233.934082 273.039856,225.209641 
	C273.991943,219.148819 274.947937,213.079895 275.586945,206.981567 
	C276.026520,202.786423 277.916809,201.043793 282.113892,201.681168 
	C293.214752,203.366959 304.325012,203.054886 315.430115,201.684464 
	C330.818939,199.785416 345.985168,196.906891 360.298218,190.691650 
	C367.277679,187.660919 367.784393,186.353729 365.193878,179.195267 
	C360.743256,166.896896 351.614655,158.416229 341.358154,151.066162 
	C331.680786,144.131104 321.054321,139.002304 309.421265,136.202499 
	C305.243591,135.197052 304.182159,132.764008 305.081635,128.814499 
	C306.780060,121.356667 308.895477,114.031456 311.241821,106.751228 
	C312.498474,102.852127 314.289734,101.970116 318.228973,103.315857 
	C333.723511,108.609200 345.981720,118.352982 356.127441,130.816086 
	C370.610016,148.606583 377.958405,169.066376 377.493622,192.113358 
	C377.178467,207.741241 369.066406,217.846756 354.397400,223.502808 
z"/>
</svg>
