<svg version="1.1" id="Layer_1" xmlns="http://www.w3.org/2000/svg" xmlns:xlink="http://www.w3.org/1999/xlink" x="0px" y="0px"
	 width="100%" viewBox="0 0 832 304" enable-background="new 0 0 832 304" xml:space="preserve">
<path fill="#000000" opacity="1.000000" stroke="none" 
	d="
M536.484131,223.487885 
	C526.821350,235.043762 514.209106,235.687057 501.096710,233.935410 
	C494.687195,233.079178 489.812958,229.157471 486.089142,223.978058 
	C483.490448,220.363617 481.156830,216.558548 478.586121,212.658508 
	C475.164001,214.723877 473.066162,217.800568 470.501495,220.338409 
	C461.048737,229.692307 449.918793,234.849625 436.450958,234.357193 
	C429.479675,234.102310 422.524506,234.658539 415.522827,233.708511 
	C403.224701,232.039856 395.442871,224.872925 389.975250,214.404892 
	C386.342224,207.449203 383.651642,200.097488 380.868317,192.784637 
	C380.520294,191.870270 380.377869,190.837326 378.988312,190.217178 
	C376.585602,193.875870 374.116272,197.569778 371.713348,201.306381 
	C360.839233,218.215836 344.638947,226.357193 325.368134,229.272461 
	C316.286621,230.646317 307.181274,230.793732 298.022644,229.368637 
	C287.229858,227.689270 278.692932,220.906265 277.142395,212.083984 
	C276.917084,210.801987 276.827881,209.392075 277.113373,208.141235 
	C278.931763,200.173508 281.486328,192.435562 284.866302,184.990173 
	C285.522034,183.545731 286.010803,181.782379 287.978760,181.431686 
	C289.615784,181.718460 290.158051,182.950073 290.388336,184.288452 
	C292.282104,195.296280 300.343597,199.425995 309.968933,200.383255 
	C323.394104,201.718399 336.985474,201.764755 350.196930,198.481415 
	C368.176361,194.013153 376.546539,179.949890 374.127289,161.524933 
	C371.653107,142.682053 366.570984,124.412643 363.096436,105.797485 
	C360.471619,91.734543 366.562317,80.544853 373.067749,69.243988 
	C373.339691,68.771568 374.126587,68.595581 374.934418,68.131714 
	C377.670380,72.392639 377.452850,77.198112 378.130005,81.635239 
	C382.766541,112.015709 387.898743,142.296600 395.398224,172.122177 
	C396.854553,177.914047 398.669952,183.656677 400.838593,189.219757 
	C405.135834,200.243088 413.371735,205.823944 425.124298,205.656677 
	C432.921753,205.545731 440.718628,206.279007 448.531891,204.948181 
	C462.502502,202.568604 473.195679,195.467148 480.987640,183.767975 
	C481.726196,182.659073 482.436676,181.525848 483.251709,180.474899 
	C484.246460,179.192184 485.125946,177.391144 487.158722,178.060455 
	C488.782898,178.595215 488.955383,180.330505 489.205811,181.787140 
	C490.262085,187.931381 492.475220,193.606979 495.746521,198.916977 
	C498.726715,203.754608 502.783478,206.224075 508.610229,205.737732 
	C514.069641,205.282013 519.609314,206.417755 525.032959,205.086960 
	C537.223816,202.095749 545.132141,193.548004 551.508911,183.602905 
	C558.424316,172.817642 564.509033,161.502670 571.096558,150.502869 
	C574.180603,145.353180 577.647766,140.432938 582.491943,136.715637 
	C590.934814,130.236801 601.345947,131.422241 607.461243,140.115829 
	C615.474487,151.507507 618.932007,164.720184 621.338684,178.228790 
	C623.654358,191.226227 617.224854,201.033188 609.274353,210.104446 
	C606.440002,213.338333 602.516907,213.906738 598.241150,212.816162 
	C586.307068,209.772247 575.594482,203.974136 565.167175,197.768661 
	C560.559204,195.026367 558.340820,195.950134 555.484985,199.885239 
	C549.622681,207.962814 543.840881,216.141525 536.484131,223.487885 
M586.596558,174.842072 
	C589.160156,175.470200 591.700928,176.227463 594.294373,176.687393 
	C596.546265,177.086746 597.623291,175.968872 597.661438,173.602707 
	C597.758301,167.593765 589.748657,158.814987 583.788086,158.523911 
	C579.870178,158.332581 575.355164,161.655823 574.470764,165.442215 
	C573.354736,170.220291 576.941345,171.363449 580.198303,172.676300 
	C582.039124,173.418335 583.947021,173.993973 586.596558,174.842072 
z"/>
<path fill="#000000" opacity="1.000000" stroke="none" 
	d="
M119.606888,256.612213 
	C150.338867,253.181122 178.796814,243.706940 206.186661,230.731476 
	C209.782532,229.028000 213.186081,226.882324 216.547806,224.736404 
	C218.160110,223.707199 220.171021,222.588776 219.607391,220.081238 
	C219.098068,217.815277 217.141388,216.890976 215.218353,216.453369 
	C210.041916,215.275391 204.825668,214.242203 199.589935,213.361237 
	C188.942596,211.569687 178.152435,210.443405 167.644272,208.059387 
	C156.865128,205.613892 147.565674,200.408142 144.327316,188.658508 
	C142.499359,182.026138 143.420135,175.271820 145.999252,169.064697 
	C160.009445,135.346680 183.515533,110.880989 217.606873,97.204079 
	C224.697464,94.359444 232.298264,92.700058 240.057159,94.917046 
	C246.122284,96.650055 247.372925,98.753204 246.077347,104.764099 
	C244.367447,112.697250 242.591080,120.616081 240.835541,128.576187 
	C239.997787,128.576187 239.330582,128.783844 239.070755,128.546143 
	C230.018295,120.264824 219.507065,120.803871 209.033340,124.322891 
	C192.462402,129.890472 177.942566,138.747910 167.516266,153.269424 
	C164.069931,158.069397 161.743393,163.301590 161.260925,169.332352 
	C160.881897,174.070129 162.810760,177.170837 166.727371,179.651199 
	C176.273987,185.697037 187.134750,187.424179 197.878159,189.677185 
	C206.513824,191.488159 215.426300,191.293884 223.997696,193.544540 
	C231.955597,195.634125 234.546722,198.345810 235.855530,206.290146 
	C238.569275,222.762207 231.656357,235.333511 219.237198,245.081146 
	C192.396088,266.148315 162.193954,279.690460 128.215363,284.427826 
	C107.625610,287.298492 87.263451,288.098999 67.029419,281.554230 
	C37.414879,271.975281 21.538563,245.281891 28.148027,214.714722 
	C33.602337,189.489868 44.874462,166.728302 58.479179,145.021225 
	C59.585407,143.256165 60.720131,140.872650 63.511524,142.676102 
	C66.093742,144.344421 64.845955,146.474045 63.874584,148.392334 
	C57.094303,161.782104 50.950798,175.430832 46.819508,189.905823 
	C43.940918,199.991653 42.980377,210.230911 45.744724,220.436996 
	C49.127327,232.925735 57.533901,241.451248 68.627235,247.523224 
	C80.459778,253.999817 93.486382,255.692398 106.651337,256.601257 
	C110.796707,256.887451 114.979126,256.637054 119.606888,256.612213 
z"/>
<path fill="#000000" opacity="1.000000" stroke="none" 
	d="
M789.838379,151.168610 
	C779.494812,144.281189 768.851013,138.890289 757.035034,136.059464 
	C753.356201,135.178101 752.408203,132.908829 753.142883,129.322266 
	C754.748474,121.483597 757.035950,113.858276 759.511047,106.259605 
	C760.666260,102.713196 762.373047,101.999397 765.807678,103.115150 
	C778.657654,107.289520 789.311523,114.847389 798.627869,124.354263 
	C815.945862,142.026474 824.971619,163.582825 825.839966,188.070099 
	C826.322754,201.685242 822.278259,213.671890 808.361328,220.731689 
	C792.217712,228.921066 775.564209,234.206879 757.482910,235.459366 
	C747.160645,236.174393 736.904114,236.673859 726.577942,235.742737 
	C721.538696,235.288330 720.042603,232.763245 720.777222,228.068909 
	C721.829285,221.345657 722.645386,214.585831 723.630737,207.851639 
	C724.528259,201.717468 725.220581,201.029999 731.327881,201.770828 
	C755.975220,204.760635 779.709351,200.496902 802.998962,192.845001 
	C816.128174,188.531342 817.424866,185.240036 810.574463,173.024078 
	C805.604736,164.161819 798.170654,157.435211 789.838379,151.168610 
z"/>
<path fill="#000000" opacity="1.000000" stroke="none" 
	d="
M665.707336,136.026413 
	C663.166382,116.644501 661.234802,97.607750 657.977112,78.800720 
	C654.490723,58.674034 657.696655,39.813614 665.739441,21.433607 
	C666.203674,20.372700 666.786377,19.348269 667.436951,18.390411 
	C667.783936,17.879520 668.394409,17.547537 669.164062,16.901232 
	C672.398987,20.168005 672.112244,24.458549 672.127808,28.071445 
	C672.253967,57.420429 677.240356,86.298729 680.203552,115.367508 
	C682.392822,136.844772 685.015930,158.278641 687.101135,179.765274 
	C687.876526,187.755661 685.649841,195.603149 684.346497,203.457382 
	C682.850891,212.470108 681.344604,221.493958 678.322510,230.157440 
	C677.486450,232.554047 676.949280,236.045288 673.261597,234.922165 
	C670.163818,233.978714 670.792725,231.096069 671.441162,228.561661 
	C675.412109,213.041687 673.344849,197.473206 671.567017,181.953842 
	C669.827759,166.769943 667.693787,151.631226 665.707336,136.026413 
z"/>
<path fill="#000000" opacity="1.000000" stroke="none" 
	d="
M486.283691,255.999634 
	C494.340149,258.725952 499.903748,264.563446 505.961914,269.691711 
	C507.385803,270.897064 506.773651,272.394897 506.048340,273.790558 
	C502.970367,279.713501 499.316895,285.264038 495.321838,290.605164 
	C493.328735,293.269836 491.308197,293.546295 488.602142,291.479004 
	C483.083588,287.263092 477.412323,283.247040 471.387146,278.844055 
	C467.660522,283.906403 464.121246,288.477661 460.851868,293.234375 
	C458.472778,296.695770 455.986328,297.361237 452.580505,294.703064 
	C448.384491,291.428192 444.060974,288.316895 439.798279,285.127289 
	C436.982605,283.020416 436.134460,280.685486 438.409363,277.501312 
	C441.791748,272.767029 445.021362,267.917328 448.156586,263.014801 
	C450.549286,259.273346 453.068695,259.301178 456.320557,261.956268 
	C461.180969,265.924744 466.219849,269.674652 471.365173,273.658752 
	C476.766327,267.841553 480.334869,261.116852 486.283691,255.999634 
z"/>
</svg>