<svg version="1.1" id="Layer_1" xmlns="http://www.w3.org/2000/svg" xmlns:xlink="http://www.w3.org/1999/xlink" x="0px" y="0px"
	 width="100%" viewBox="0 0 544 608" enable-background="new 0 0 544 608" xml:space="preserve">
<path fill="#000000" opacity="1.000000" stroke="none" 
	d="
M119.371132,229.271973 
	C116.919418,224.341110 117.343597,219.451630 117.989723,214.703247 
	C118.610451,210.141586 121.672531,207.467712 126.223312,206.432007 
	C131.010132,205.342575 135.848480,205.817932 140.659805,205.768433 
	C158.863708,205.581161 173.040222,198.093445 183.001648,182.779282 
	C183.636719,181.802948 184.269547,180.819534 184.983063,179.901321 
	C185.799408,178.850784 186.665787,177.656555 188.224594,178.017059 
	C189.763046,178.372849 190.042358,179.748871 190.313202,181.093216 
	C191.637405,187.665939 193.670578,193.965210 197.510117,199.562881 
	C200.330658,203.674957 203.915741,206.299667 209.203583,205.719894 
	C209.697708,205.665726 210.210449,205.642044 210.700348,205.708649 
	C232.386154,208.657394 245.272018,196.467896 255.472031,179.678421 
	C262.125153,168.727219 267.722595,157.153015 275.025238,146.583221 
	C277.404907,143.138901 280.096222,139.968475 283.248474,137.229218 
	C291.458191,130.095200 302.795502,131.283661 308.953094,140.257050 
	C316.335602,151.015396 319.525940,163.416306 322.382080,175.972656 
	C325.428925,189.367813 319.396210,199.565796 311.529358,209.213837 
	C308.246521,213.240005 303.930664,214.085434 298.901123,212.660309 
	C286.928925,209.267990 276.089264,203.432404 265.460785,197.215881 
	C262.172729,195.292694 260.344513,195.570496 258.071533,198.537872 
	C252.102097,206.331055 245.801834,213.869736 239.748123,221.599686 
	C230.051575,233.981186 216.934616,236.147964 202.512650,233.978607 
	C195.929672,232.988388 190.966248,229.005341 187.177200,223.646713 
	C184.699097,220.142059 182.427414,216.491455 179.915070,212.681442 
	C176.977539,214.157959 175.170349,216.596802 173.262573,218.775421 
	C160.804886,233.001587 144.589264,235.836044 126.916687,234.182236 
	C123.881485,233.898193 121.133858,232.571091 119.371132,229.271973 
M281.015686,159.459671 
	C278.894928,160.571228 277.344574,162.215591 276.258514,164.354095 
	C274.946228,166.937988 275.064514,169.286987 277.712708,170.796631 
	C283.230316,173.942078 289.290649,175.611725 295.501984,176.702805 
	C297.767792,177.100815 298.784760,175.921173 298.856171,173.588638 
	C299.098541,165.670654 289.313568,157.428848 281.015686,159.459671 
z"/>
<path fill="#000000" opacity="1.000000" stroke="none" 
	d="
M473.366089,233.647308 
	C457.760101,235.877243 442.561249,237.445480 427.207275,235.508499 
	C422.679626,234.937332 421.410431,232.832855 422.193542,228.360382 
	C423.395172,221.497482 424.057953,214.535782 424.818268,207.601624 
	C425.334015,202.898102 427.543152,201.047043 432.433685,201.675751 
	C457.396332,204.884811 481.463806,200.496338 505.056152,192.613724 
	C517.109497,188.586517 518.575623,185.236923 512.377441,173.989990 
	C504.884491,160.393585 493.005371,151.346725 479.566559,144.186691 
	C472.936920,140.654510 465.991791,137.837433 458.641541,136.170258 
	C455.232269,135.396973 453.996796,133.536911 454.535187,130.054703 
	C455.864166,121.459007 458.443695,113.223038 461.344818,105.067184 
	C462.701508,101.253098 465.386810,102.540146 467.920776,103.423241 
	C484.365021,109.154182 497.159729,119.775230 507.668304,133.354904 
	C519.529907,148.683014 525.456604,166.312439 527.185303,185.433685 
	C527.951904,193.913422 525.871948,201.952682 522.385132,209.649673 
	C521.115906,212.451385 519.204773,214.695648 516.576721,216.340195 
	C503.337250,224.625031 489.363556,231.072647 473.366089,233.647308 
z"/>
<path fill="#000000" opacity="1.000000" stroke="none" 
	d="
M372.083801,175.652557 
	C368.462463,144.506683 364.779816,113.807404 359.811310,83.312508 
	C356.420410,62.500408 357.745483,42.607368 366.345917,23.308023 
	C367.336334,21.085510 367.916016,18.528477 370.574310,17.188639 
	C373.168274,18.747105 372.670654,21.628216 373.015656,23.827036 
	C373.734741,28.410362 374.081177,33.102997 374.039551,37.745861 
	C373.876404,55.945068 377.081024,73.832077 378.846252,91.848694 
	C380.498413,108.711601 382.467041,125.543587 384.309052,142.387787 
	C385.500702,153.284668 386.553253,164.200089 387.963898,175.068787 
	C389.432098,186.380814 386.673035,197.247421 384.863983,208.200562 
	C383.620026,215.732193 382.211121,223.274796 379.533325,230.480530 
	C378.690491,232.748550 378.185272,235.933807 374.765747,235.041718 
	C371.354126,234.151703 372.279846,230.926010 372.792511,228.689560 
	C376.827545,211.088470 374.189789,193.601578 372.083801,175.652557 
z"/>
<path fill="#000000" opacity="1.000000" stroke="none" 
	d="
M73.999878,205.799072 
	C80.325806,205.806885 86.157898,205.649750 91.976219,205.864838 
	C99.335815,206.136917 102.142799,209.154083 102.340775,216.394791 
	C102.795776,233.035461 101.574135,234.763077 84.659782,234.451920 
	C66.688347,234.121323 48.706089,234.399185 30.728642,234.364685 
	C23.822359,234.351440 21.532919,232.318802 20.477310,225.527725 
	C20.324097,224.542038 20.138647,223.556564 20.066298,222.563828 
	C19.088177,209.142593 22.194771,205.786530 35.547482,205.792877 
	C48.198299,205.798904 60.849113,205.797562 73.999878,205.799072 
z"/>
<path fill="#000000" opacity="1.000000" stroke="none" 
	d="
M139.994537,283.994110 
	C137.711075,281.878784 138.212631,279.850555 139.507248,277.908813 
	C143.008469,272.657654 146.574905,267.449829 150.129379,262.234314 
	C152.042511,259.427155 154.186890,259.333038 156.821075,261.428345 
	C161.994263,265.543243 167.286972,269.507812 172.902527,273.820465 
	C176.771225,268.798370 180.523575,264.186371 183.975876,259.359741 
	C186.518845,255.804474 189.135406,255.127106 192.624771,257.942139 
	C197.021851,261.489471 201.504562,264.930969 205.964233,268.400238 
	C208.160599,270.108795 208.476913,272.057251 207.110443,274.498016 
	C203.937363,280.165649 200.372284,285.570251 196.549667,290.813873 
	C194.710953,293.336151 192.690002,293.540131 190.205872,291.642548 
	C185.715546,288.212402 181.010529,285.053040 176.635468,281.485931 
	C173.789627,279.165619 171.979401,279.138550 169.900055,282.414276 
	C167.411194,286.335175 164.353134,289.889923 161.729263,293.731476 
	C159.688995,296.718658 157.468384,296.931885 154.563248,295.052673 
	C149.524872,291.793457 144.776764,288.167877 139.994537,283.994110 
z"/>


<g transform="translate(92 304)">
<path fill="#000000" opacity="1.000000" stroke="none"
	d="
M68.398468,284.953857
	C55.947052,282.367004 44.465397,278.558533 34.841694,270.549286
	C17.755949,256.329803 12.712358,237.535309 16.393482,216.591736
	C20.955898,190.634064 33.011810,167.540344 46.703739,145.302444
	C47.765511,143.577957 48.797821,140.951920 51.624554,142.534866
	C54.498066,144.143997 53.224087,146.588303 52.187313,148.649841
	C46.194374,160.566467 40.622662,172.653519 36.558365,185.391327
	C33.075684,196.306305 31.040316,207.368973 33.776459,218.748871
	C37.628563,234.770172 48.617676,244.563934 63.248249,250.301041
	C80.991302,257.258606 99.501701,258.170227 118.257118,255.229416
	C144.955170,251.043228 170.195389,242.309341 194.516159,230.750931
	C198.262146,228.970657 201.805222,226.741379 205.348846,224.567657
	C206.873474,223.632416 208.690491,222.519455 208.423950,220.379547
	C208.137344,218.078354 206.086151,217.184753 204.188217,216.594162
	C196.856461,214.312637 189.183914,213.755020 181.679260,212.336914
	C171.088531,210.335663 160.125916,210.292328 149.955322,206.070999
	C140.432831,202.118637 133.349991,196.041855 132.065475,185.220963
	C131.327423,179.003448 132.914963,172.961304 135.160263,167.193649
	C142.906128,147.296417 155.982956,131.351288 171.988815,117.524437
	C184.012833,107.137367 197.146454,98.865814 212.777344,95.212997
	C218.791412,93.807549 224.909973,93.005203 230.890350,95.790115
	C234.398575,97.423798 235.870377,99.595772 234.785843,103.708878
	C233.007599,110.452980 231.764771,117.338585 230.310699,124.167618
	C229.969604,125.769615 229.833969,127.447540 228.259109,128.761780
	C211.260330,115.540100 195.532242,124.090515 180.062210,132.128220
	C170.060959,137.324539 161.168213,144.410919 155.366623,154.224045
	C144.064774,173.340485 148.773880,178.409180 165.542633,184.574814
	C176.966324,188.775146 189.066177,190.443527 201.170151,191.660370
	C206.146622,192.160675 211.083038,192.857834 215.803467,194.573105
	C221.035202,196.474167 223.566040,200.333908 224.319717,205.820175
	C226.774567,223.689514 219.022827,236.763931 205.267105,247.066223
	C172.473679,271.626740 135.744995,285.011475 94.656067,286.492889
	C85.933029,286.807404 77.396896,286.124420 68.398468,284.953857
z"/>
<path fill="#000000" opacity="1.000000" stroke="none"
	d="
M372.258423,200.580475
	C370.869781,196.968689 369.634460,193.709106 368.259003,190.079834
	C365.987946,191.341110 365.214905,193.414612 364.229797,195.188797
	C351.372284,218.346405 330.903534,228.671478 305.246307,230.207016
	C298.759155,230.595261 292.261993,230.545883 285.842194,229.263382
	C280.008759,228.098022 274.780914,225.792160 270.473083,221.522079
	C266.336578,217.421753 264.735748,212.442276 265.855408,206.916138
	C267.444794,199.071609 270.256531,191.572861 273.601440,184.293121
	C274.159149,183.079361 274.847687,181.948761 276.073395,181.420685
	C278.153198,181.603897 278.658234,183.257416 278.901306,184.593506
	C280.915375,195.662430 289.114929,199.495255 298.707886,200.432663
	C311.301270,201.663269 324.049622,201.707764 336.494659,198.903320
	C356.833038,194.320114 365.670654,180.236343 362.398682,159.625610
	C359.710388,142.691605 355.997833,125.975098 351.973328,109.359070
	C348.378815,94.518463 353.883850,82.301552 360.650116,70.077911
	C360.959381,69.519203 361.526733,69.081177 362.038727,68.667038
	C362.264587,68.484344 362.652771,68.502274 363.275299,68.357468
	C366.414581,71.390518 365.599609,75.735977 366.183716,79.436073
	C371.364594,112.254547 376.518829,145.070679 385.293060,177.180344
	C386.518799,181.665909 387.916168,186.144073 389.707886,190.427490
	C393.785706,200.176422 401.598846,204.858597 411.870605,205.675659
	C415.849213,205.992142 419.886475,205.639053 423.851868,206.038788
	C431.106384,206.770065 434.183014,209.911285 435.099976,217.104141
	C435.502716,220.263184 435.239929,223.389206 434.411652,226.507614
	C433.187561,231.116180 430.060760,233.865005 425.614227,234.150421
	C418.654968,234.597122 411.655853,234.634262 404.664124,233.851379
	C391.961395,232.429047 383.804321,225.058838 378.319733,214.152481
	C376.153503,209.844894 374.369690,205.345001 372.258423,200.580475
z"/>
</g>
</svg>
