<svg version="1.1" id="Layer_1" xmlns="http://www.w3.org/2000/svg" xmlns:xlink="http://www.w3.org/1999/xlink" x="0px" y="0px"
	 width="100%" viewBox="0 0 544 304" enable-background="new 0 0 544 304" xml:space="preserve">
<path fill="#000000" opacity="1.000000" stroke="none" 
	d="
M119.371132,229.271973 
	C116.919418,224.341110 117.343597,219.451630 117.989723,214.703247 
	C118.610451,210.141586 121.672531,207.467712 126.223312,206.432007 
	C131.010132,205.342575 135.848480,205.817932 140.659805,205.768433 
	C158.863708,205.581161 173.040222,198.093445 183.001648,182.779282 
	C183.636719,181.802948 184.269547,180.819534 184.983063,179.901321 
	C185.799408,178.850784 186.665787,177.656555 188.224594,178.017059 
	C189.763046,178.372849 190.042358,179.748871 190.313202,181.093216 
	C191.637405,187.665939 193.670578,193.965210 197.510117,199.562881 
	C200.330658,203.674957 203.915741,206.299667 209.203583,205.719894 
	C209.697708,205.665726 210.210449,205.642044 210.700348,205.708649 
	C232.386154,208.657394 245.272018,196.467896 255.472031,179.678421 
	C262.125153,168.727219 267.722595,157.153015 275.025238,146.583221 
	C277.404907,143.138901 280.096222,139.968475 283.248474,137.229218 
	C291.458191,130.095200 302.795502,131.283661 308.953094,140.257050 
	C316.335602,151.015396 319.525940,163.416306 322.382080,175.972656 
	C325.428925,189.367813 319.396210,199.565796 311.529358,209.213837 
	C308.246521,213.240005 303.930664,214.085434 298.901123,212.660309 
	C286.928925,209.267990 276.089264,203.432404 265.460785,197.215881 
	C262.172729,195.292694 260.344513,195.570496 258.071533,198.537872 
	C252.102097,206.331055 245.801834,213.869736 239.748123,221.599686 
	C230.051575,233.981186 216.934616,236.147964 202.512650,233.978607 
	C195.929672,232.988388 190.966248,229.005341 187.177200,223.646713 
	C184.699097,220.142059 182.427414,216.491455 179.915070,212.681442 
	C176.977539,214.157959 175.170349,216.596802 173.262573,218.775421 
	C160.804886,233.001587 144.589264,235.836044 126.916687,234.182236 
	C123.881485,233.898193 121.133858,232.571091 119.371132,229.271973 
M281.015686,159.459671 
	C278.894928,160.571228 277.344574,162.215591 276.258514,164.354095 
	C274.946228,166.937988 275.064514,169.286987 277.712708,170.796631 
	C283.230316,173.942078 289.290649,175.611725 295.501984,176.702805 
	C297.767792,177.100815 298.784760,175.921173 298.856171,173.588638 
	C299.098541,165.670654 289.313568,157.428848 281.015686,159.459671 
z"/>
<path fill="#000000" opacity="1.000000" stroke="none" 
	d="
M473.366089,233.647308 
	C457.760101,235.877243 442.561249,237.445480 427.207275,235.508499 
	C422.679626,234.937332 421.410431,232.832855 422.193542,228.360382 
	C423.395172,221.497482 424.057953,214.535782 424.818268,207.601624 
	C425.334015,202.898102 427.543152,201.047043 432.433685,201.675751 
	C457.396332,204.884811 481.463806,200.496338 505.056152,192.613724 
	C517.109497,188.586517 518.575623,185.236923 512.377441,173.989990 
	C504.884491,160.393585 493.005371,151.346725 479.566559,144.186691 
	C472.936920,140.654510 465.991791,137.837433 458.641541,136.170258 
	C455.232269,135.396973 453.996796,133.536911 454.535187,130.054703 
	C455.864166,121.459007 458.443695,113.223038 461.344818,105.067184 
	C462.701508,101.253098 465.386810,102.540146 467.920776,103.423241 
	C484.365021,109.154182 497.159729,119.775230 507.668304,133.354904 
	C519.529907,148.683014 525.456604,166.312439 527.185303,185.433685 
	C527.951904,193.913422 525.871948,201.952682 522.385132,209.649673 
	C521.115906,212.451385 519.204773,214.695648 516.576721,216.340195 
	C503.337250,224.625031 489.363556,231.072647 473.366089,233.647308 
z"/>
<path fill="#000000" opacity="1.000000" stroke="none" 
	d="
M372.083801,175.652557 
	C368.462463,144.506683 364.779816,113.807404 359.811310,83.312508 
	C356.420410,62.500408 357.745483,42.607368 366.345917,23.308023 
	C367.336334,21.085510 367.916016,18.528477 370.574310,17.188639 
	C373.168274,18.747105 372.670654,21.628216 373.015656,23.827036 
	C373.734741,28.410362 374.081177,33.102997 374.039551,37.745861 
	C373.876404,55.945068 377.081024,73.832077 378.846252,91.848694 
	C380.498413,108.711601 382.467041,125.543587 384.309052,142.387787 
	C385.500702,153.284668 386.553253,164.200089 387.963898,175.068787 
	C389.432098,186.380814 386.673035,197.247421 384.863983,208.200562 
	C383.620026,215.732193 382.211121,223.274796 379.533325,230.480530 
	C378.690491,232.748550 378.185272,235.933807 374.765747,235.041718 
	C371.354126,234.151703 372.279846,230.926010 372.792511,228.689560 
	C376.827545,211.088470 374.189789,193.601578 372.083801,175.652557 
z"/>
<path fill="#000000" opacity="1.000000" stroke="none" 
	d="
M73.999878,205.799072 
	C80.325806,205.806885 86.157898,205.649750 91.976219,205.864838 
	C99.335815,206.136917 102.142799,209.154083 102.340775,216.394791 
	C102.795776,233.035461 101.574135,234.763077 84.659782,234.451920 
	C66.688347,234.121323 48.706089,234.399185 30.728642,234.364685 
	C23.822359,234.351440 21.532919,232.318802 20.477310,225.527725 
	C20.324097,224.542038 20.138647,223.556564 20.066298,222.563828 
	C19.088177,209.142593 22.194771,205.786530 35.547482,205.792877 
	C48.198299,205.798904 60.849113,205.797562 73.999878,205.799072 
z"/>
<path fill="#000000" opacity="1.000000" stroke="none" 
	d="
M139.994537,283.994110 
	C137.711075,281.878784 138.212631,279.850555 139.507248,277.908813 
	C143.008469,272.657654 146.574905,267.449829 150.129379,262.234314 
	C152.042511,259.427155 154.186890,259.333038 156.821075,261.428345 
	C161.994263,265.543243 167.286972,269.507812 172.902527,273.820465 
	C176.771225,268.798370 180.523575,264.186371 183.975876,259.359741 
	C186.518845,255.804474 189.135406,255.127106 192.624771,257.942139 
	C197.021851,261.489471 201.504562,264.930969 205.964233,268.400238 
	C208.160599,270.108795 208.476913,272.057251 207.110443,274.498016 
	C203.937363,280.165649 200.372284,285.570251 196.549667,290.813873 
	C194.710953,293.336151 192.690002,293.540131 190.205872,291.642548 
	C185.715546,288.212402 181.010529,285.053040 176.635468,281.485931 
	C173.789627,279.165619 171.979401,279.138550 169.900055,282.414276 
	C167.411194,286.335175 164.353134,289.889923 161.729263,293.731476 
	C159.688995,296.718658 157.468384,296.931885 154.563248,295.052673 
	C149.524872,291.793457 144.776764,288.167877 139.994537,283.994110 
z"/>
</svg>