<svg xmlns="http://www.w3.org/2000/svg" xmlns:xlink="http://www.w3.org/1999/xlink" viewBox="0 0 80 70" width="160" height="140">
<g transform="translate(40,35)">
<path d="M15.1-6.2H3.4l-6.3-9.9c1.8-0.3,5.4-1.5,5.4-3.6s-4.8-3.6-6.3-3.6h-3.9l-4.5-6.9h-8.4l2.4,6.9h-0.3v7.2h3l3.6,9.9h-15.9l-6.6-6.6h-4.8l5.7,9.6v7.8l-5.7,9.6h4.8l6.6-6.6h15.9l-3.6,9.6h-3v7.2h0.3l-2.4,6.9h8.7l4.5-6.9h3.9c1.5,0,6.3-1.5,6.3-3.6c0-1.8-3.6-3.3-5.4-3.6l6.3-9.9h11.7c3.9,0,18-2.7,18-6.9C33.1-3.5,19-6.2,15.1-6.2z"/>
<circle r="3" fill="red"/>
</g>
</svg>