<?xml version="1.0" encoding="utf-8"?>
<!-- Generator: Adobe Illustrator 21.1.0, SVG Export Plug-In . SVG Version: 6.00 Build 0)  -->
<svg version="1.1" id="Layer_1" xmlns="http://www.w3.org/2000/svg" xmlns:xlink="http://www.w3.org/1999/xlink" x="0px" y="0px"
	 width="125px" height="200px" viewBox="0 0 125 200" enable-background="new 0 0 125 200" xml:space="preserve">
<g>
	<g>
		<rect x="23.4" y="22" fill="none" stroke="#C0C0C0" stroke-width="3" stroke-dasharray="6,4" width="100" height="150"/>
		<text transform="matrix(1 0 0 1 42.9748 11.1523)" font-family="'Arial'" font-weight="700" font-size="13px" letter-spacing="0.5px">LTR END</text>
		<text transform="matrix(1 0 0 1 40.9748 195.1523)" font-family="'Arial'" font-weight="700" font-size="13px" letter-spacing="0.5px">RTL END</text>
		<g>
			<rect x="23.4" y="132.5" fill="#FFFFFF" stroke="#FF0000" stroke-width="3" width="24" height="39.5"/>
			<text transform="matrix(0 -1 1 0 39.6818 165.249)" fill="#FF0000" font-family="'Arial'" font-size="12px">Latin</text>
		</g>
		<g>
			<rect x="50.4" y="22" fill="#FFFFFF" stroke="#FF0000" stroke-width="3" width="24" height="40.5"/>
			<text transform="matrix(0 -1 1 0 66.6818 54.7295)" fill="#FF0000" font-family="'Arial'" font-size="12px">العربية</text>
		</g>
		<g>
			<rect x="77.4" y="122.5" fill="#FFFFFF" stroke="#FF0000" stroke-width="3" width="24" height="49.5"/>
			<text transform="matrix(1 0 0 1 83.4142 136.1191)"><tspan x="0" y="0" fill="#FF0000" font-family="'KozGoPr6N-Regular-90ms-RKSJ-H'" font-size="12px">日</tspan><tspan x="0" y="14.4" fill="#FF0000" font-family="'KozGoPr6N-Regular-90ms-RKSJ-H'" font-size="12px">本</tspan><tspan x="0" y="28.8" fill="#FF0000" font-family="'KozGoPr6N-Regular-90ms-RKSJ-H'" font-size="12px">語</tspan></text>
		</g>
		<line fill="#FFFFFF" stroke="#333333" stroke-width="3" x1="22.1" y1="22" x2="124.7" y2="22"/>
		<line fill="#FFFFFF" stroke="#333333" stroke-width="3" x1="22.1" y1="172" x2="124.7" y2="172"/>
	</g>
	<g>
		<rect x="-70.5" y="91" transform="matrix(6.123234e-17 -1 1 6.123234e-17 -91 103)" fill="#EFEFEF" width="153" height="12"/>
		<text transform="matrix(0 -1 1 0 10.1289 128.7236)" fill="#6D6D6D" font-family="'Arial'" font-size="10px" letter-spacing="0.5px">INLINE AXIS</text>
	</g>
</g>
</svg>
