<?xml version="1.0" encoding="utf-8"?>
<!-- Generator: Adobe Illustrator 21.1.0, SVG Export Plug-In . SVG Version: 6.00 Build 0)  -->
<svg version="1.1" id="Layer_1" xmlns="http://www.w3.org/2000/svg" xmlns:xlink="http://www.w3.org/1999/xlink" x="0px" y="0px"
	 width="199px" height="125px" viewBox="0 0 199 125" enable-background="new 0 0 199 125" xml:space="preserve">
<g>
	<rect x="21.3" fill="#EFEFEF" width="153" height="12"/>
	<text transform="matrix(1 0 0 1 66.077 10.1289)" fill="#6D6D6D" font-family="'Arial'" font-size="10px" letter-spacing="0.5px">INLINE AXIS</text>
</g>
<rect x="22.8" y="23.5" fill="none" stroke="#C0C0C0" stroke-width="3" stroke-dasharray="6,4" width="150" height="100"/>
<text transform="matrix(0 -1 1 0 11.1523 103.9395)" font-family="'Arial'" font-weight="700" font-size="13px" letter-spacing="0.5px">RTL END</text>
<g>
	<rect x="133.3" y="23.5" fill="#FFFFFF" stroke="#FF0000" stroke-width="3" width="39.5" height="24"/>
	<text transform="matrix(1 0 0 1 140.0742 39.7676)" fill="#FF0000" font-family="'Arial'" font-size="12px">Latin</text>
</g>
<g>
	<rect x="22.8" y="50.5" fill="#FFFFFF" stroke="#FF0000" stroke-width="3" width="40.5" height="24"/>
	<text transform="matrix(1 0 0 1 30.5928 66.7676)" fill="#FF0000" font-family="'Arial'" font-size="12px">العربية</text>
</g>
<g>
	<rect x="123.3" y="77.5" fill="#FFFFFF" stroke="#FF0000" stroke-width="3" width="49.5" height="24"/>
	
		<text transform="matrix(1 0 0 1 130.0742 93.7676)" fill="#FF0000" font-family="'KozGoPr6N-Regular-90ms-RKSJ-H'" font-size="12px">日本語</text>
</g>
<text transform="matrix(0 -1 1 0 193.1523 103.9395)" font-family="'Arial'" font-weight="700" font-size="13px" letter-spacing="0.5px">LTR END</text>
<line fill="#FFFFFF" stroke="#333333" stroke-width="3" x1="172.8" y1="125" x2="172.8" y2="22"/>
<line fill="#FFFFFF" stroke="#333333" stroke-width="3" x1="22.8" y1="125" x2="22.8" y2="22"/>
</svg>
