<?xml version="1.0" encoding="utf-8"?>
<!-- Generator: Adobe Illustrator 21.1.0, SVG Export Plug-In . SVG Version: 6.00 Build 0)  -->
<svg version="1.1" id="Layer_1" xmlns="http://www.w3.org/2000/svg" xmlns:xlink="http://www.w3.org/1999/xlink" x="0px" y="0px"
	 width="125px" height="180px" viewBox="0 0 125 180" enable-background="new 0 0 125 180" xml:space="preserve">
<g>
	<rect x="24" y="1.5" fill="none" stroke="#C0C0C0" stroke-width="3" stroke-dasharray="6,4" width="100" height="150"/>
	<text transform="matrix(1 0 0 1 57.4536 174.6299)" font-family="'Arial'" font-weight="700" font-size="13px" letter-spacing="0.5px">LEFT</text>
	<g>
		<rect x="24" y="112" fill="#FFFFFF" stroke="#FF0000" stroke-width="3" width="24" height="39.5"/>
		<text transform="matrix(0 -1 1 0 40.2676 144.7275)" fill="#FF0000" font-family="'Arial'" font-size="12px">Latin</text>
	</g>
	<g>
		<rect x="54" y="111" fill="#FFFFFF" stroke="#FF0000" stroke-width="3" width="24" height="40.5"/>
		<text transform="matrix(0 -1 1 0 70.2676 143.708)" fill="#FF0000" font-family="'Arial'" font-size="12px">العربية</text>
	</g>
	<g>
		<rect x="84" y="102" fill="#FFFFFF" stroke="#FF0000" stroke-width="3" width="24" height="49.5"/>
		<text transform="matrix(1 0 0 1 90 115.5967)"><tspan x="0" y="0" fill="#FF0000" font-family="'KozGoPr6N-Regular-90ms-RKSJ-H'" font-size="12px">日</tspan><tspan x="0" y="14.4" fill="#FF0000" font-family="'KozGoPr6N-Regular-90ms-RKSJ-H'" font-size="12px">本</tspan><tspan x="0" y="28.8" fill="#FF0000" font-family="'KozGoPr6N-Regular-90ms-RKSJ-H'" font-size="12px">語</tspan></text>
	</g>
	<line fill="#FFFFFF" stroke="#333333" stroke-width="3" x1="22.5" y1="151.5" x2="125.5" y2="151.5"/>
	<g>
		
			<rect x="-70.5" y="71" transform="matrix(6.123234e-17 -1 1 6.123234e-17 -70.9775 82.9775)" fill="#EFEFEF" width="153" height="12"/>
		<text transform="matrix(0 -1 1 0 10.1289 108.7012)" fill="#6D6D6D" font-family="'Arial'" font-size="10px" letter-spacing="0.5px">INLINE AXIS</text>
	</g>
</g>
</svg>
