<?xml version="1.0" encoding="utf-8"?>
<!-- Generator: Adobe Illustrator 21.1.0, SVG Export Plug-In . SVG Version: 6.00 Build 0)  -->
<svg version="1.1" id="Layer_1" xmlns="http://www.w3.org/2000/svg" xmlns:xlink="http://www.w3.org/1999/xlink" x="0px" y="0px"
	 width="125px" height="180px" viewBox="0 0 125 180" enable-background="new 0 0 125 180" xml:space="preserve">
<g>
	<rect x="1.5" y="1.5" fill="none" stroke="#C0C0C0" stroke-width="3" stroke-dasharray="6,4" width="100" height="150"/>
	<g>
		<rect x="77.5" y="112" fill="#FFFFFF" stroke="#FF0000" stroke-width="3" width="24" height="39.5"/>
		<text transform="matrix(0 1 -1 0 85.2324 118.7734)" fill="#FF0000" font-family="'Arial'" font-size="12px">Latin</text>
	</g>
	<g>
		<rect x="47.5" y="111" fill="#FFFFFF" stroke="#FF0000" stroke-width="3" width="24" height="40.5"/>
		<text transform="matrix(0 1 -1 0 55.2324 118.792)" fill="#FF0000" font-family="'Arial'" font-size="12px">العربية</text>
	</g>
	<g>
		<rect x="17.5" y="102" fill="#FFFFFF" stroke="#FF0000" stroke-width="3" width="24" height="49.5"/>
		<text transform="matrix(1 0 0 1 23.5 115.5967)"><tspan x="0" y="0" fill="#FF0000" font-family="'KozGoPr6N-Regular-90ms-RKSJ-H'" font-size="12px">日</tspan><tspan x="0" y="14.4" fill="#FF0000" font-family="'KozGoPr6N-Regular-90ms-RKSJ-H'" font-size="12px">本</tspan><tspan x="0" y="28.8" fill="#FF0000" font-family="'KozGoPr6N-Regular-90ms-RKSJ-H'" font-size="12px">語</tspan></text>
	</g>
	<text transform="matrix(1 0 0 1 30.6548 174.6299)" font-family="'Arial'" font-weight="700" font-size="13px" letter-spacing="0.5px">RIGHT</text>
	<line fill="#FFFFFF" stroke="#333333" stroke-width="3" x1="0.5" y1="151.5" x2="103.5" y2="151.5"/>
	<g>
		
			<rect x="42.5" y="71" transform="matrix(-1.836970e-16 1 -1 -1.836970e-16 195.9765 -42.0214)" fill="#EFEFEF" width="153" height="12"/>
		<text transform="matrix(0 1 -1 0 114.8691 45.2539)" fill="#6D6D6D" font-family="'Arial'" font-size="10px" letter-spacing="0.5px">INLINE AXIS</text>
	</g>
</g>
</svg>
