<?xml version="1.0" encoding="utf-8"?>
<!-- Generator: Adobe Illustrator 21.1.0, SVG Export Plug-In . SVG Version: 6.00 Build 0)  -->
<svg version="1.1" id="Layer_1" xmlns="http://www.w3.org/2000/svg" xmlns:xlink="http://www.w3.org/1999/xlink" x="0px" y="0px"
	 width="125px" height="174px" viewBox="0 0 125 174" enable-background="new 0 0 125 174" xml:space="preserve">
<g>
	<rect x="23.3" y="22" fill="none" stroke="#C0C0C0" stroke-width="3" stroke-dasharray="6,4" width="100" height="150"/>
	<text transform="matrix(1 0 0 1 54.4079 11.1523)" font-family="'Arial'" font-weight="700" font-size="13px" letter-spacing="0.5px">RIGHT</text>
	<g>
		<rect x="23.3" y="22" fill="#FFFFFF" stroke="#FF0000" stroke-width="3" width="24" height="39.5"/>
		<text transform="matrix(0 -1 1 0 39.5207 54.75)" fill="#FF0000" font-family="'Arial'" font-size="12px">Latin</text>
	</g>
	<g>
		<rect x="53.3" y="22" fill="#FFFFFF" stroke="#FF0000" stroke-width="3" width="24" height="40.5"/>
		<text transform="matrix(0 -1 1 0 69.5207 54.7305)" fill="#FF0000" font-family="'Arial'" font-size="12px">العربية</text>
	</g>
	<g>
		<rect x="83.3" y="22" fill="#FFFFFF" stroke="#FF0000" stroke-width="3" width="24" height="49.5"/>
		<text transform="matrix(1 0 0 1 89.2531 35.6191)"><tspan x="0" y="0" fill="#FF0000" font-family="'KozGoPr6N-Regular-90ms-RKSJ-H'" font-size="12px">日</tspan><tspan x="0" y="14.4" fill="#FF0000" font-family="'KozGoPr6N-Regular-90ms-RKSJ-H'" font-size="12px">本</tspan><tspan x="0" y="28.8" fill="#FF0000" font-family="'KozGoPr6N-Regular-90ms-RKSJ-H'" font-size="12px">語</tspan></text>
	</g>
	<line fill="#FFFFFF" stroke="#333333" stroke-width="3" x1="21.7" y1="22" x2="124.7" y2="22"/>
	<g>
		
			<rect x="-70.5" y="91.5" transform="matrix(6.123234e-17 -1 1 6.123234e-17 -91.5 103.5)" fill="#EFEFEF" width="153" height="12"/>
		<text transform="matrix(0 -1 1 0 10.1289 129.2246)" fill="#6D6D6D" font-family="'Arial'" font-size="10px" letter-spacing="0.5px">INLINE AXIS</text>
	</g>
</g>
</svg>
