<?xml version="1.0" encoding="utf-8"?>
<!-- Generator: Adobe Illustrator 21.1.0, SVG Export Plug-In . SVG Version: 6.00 Build 0)  -->
<svg version="1.1" id="Layer_1" xmlns="http://www.w3.org/2000/svg" xmlns:xlink="http://www.w3.org/1999/xlink" x="0px" y="0px"
	 width="229px" height="193px" viewBox="0 0 229 193" enable-background="new 0 0 229 193" xml:space="preserve">
<text transform="matrix(0 -1 1 0 223.8523 146.5313)" font-family="'Arial'" font-weight="700" font-size="13px" letter-spacing="0.5px">RTL START</text>
<rect x="22.5" y="23.5" fill="none" stroke="#C0C0C0" stroke-width="3" stroke-dasharray="6,4" width="180" height="168"/>
<g>
	<rect x="42.5" y="43.5" fill="none" width="140" height="38.2"/>
	<text transform="matrix(1 0 0 1 42.5006 50.6599)"><tspan x="0" y="0" font-family="'Arial'" font-size="10px">This is an English-language </tspan><tspan x="0" y="14" font-family="'Arial'" font-size="10px">document. The following is a </tspan><tspan x="0" y="28" font-family="'Arial'" font-size="10px">list in various languages.</tspan></text>
</g>
<text transform="matrix(1 0 0 1 42.5008 108.0784)" font-family="'Arial'" font-weight="700" font-size="10px">Translations:</text>
<text transform="matrix(1 0 0 1 42.5008 125.667)" fill="#FF0000" font-family="'Arial'" font-size="10px" text-decoration=" underline">français</text>
<text transform="matrix(1 0 0 1 156.9422 146.2114)" fill="#FF0000" font-family="'Arial'" font-size="12px" text-decoration=" underline">العربية</text>
<text transform="matrix(1 0 0 1 42.5008 166.2676)" fill="#FF0000" font-family="'KozGoPr6N-Regular-90ms-RKSJ-H'" font-size="12px" text-decoration=" underline">日本語</text>
<line fill="#FFFFFF" stroke="#333333" stroke-width="3" x1="22.5" y1="193.5" x2="22.5" y2="22"/>
<line fill="#FFFFFF" stroke="#333333" stroke-width="3" x1="202.5" y1="192" x2="202.5" y2="22"/>
<text transform="matrix(0 -1 1 0 11.3524 146.3594)" font-family="'Arial'" font-weight="700" font-size="13px" letter-spacing="0.5px">LTR START</text>
<g>
	<rect x="21" fill="#EFEFEF" width="183" height="12"/>
	<text transform="matrix(1 0 0 1 80.777 10.1289)" fill="#6D6D6D" font-family="'Arial'" font-size="10px" letter-spacing="0.5px">INLINE AXIS</text>
</g>
</svg>
