<?xml version="1.0" encoding="utf-8"?>
<!-- Generator: Adobe Illustrator 21.1.0, SVG Export Plug-In . SVG Version: 6.00 Build 0)  -->
<svg version="1.1" id="Layer_1" xmlns="http://www.w3.org/2000/svg" xmlns:xlink="http://www.w3.org/1999/xlink" x="0px" y="0px"
	 width="162px" height="240px" viewBox="0 0 162 240" enable-background="new 0 0 162 240" xml:space="preserve">
<rect x="2" y="26.3" fill="none" stroke="#C0C0C0" stroke-width="3" stroke-dasharray="6,4" width="136" height="182.2"/>
<g>
	
		<text transform="matrix(0 1 -1 0 58.332 46.3008)" fill="#FF0000" font-family="'Arial'" font-size="10px" text-decoration=" underline">français</text>
</g>
<g>
	
		<text transform="matrix(0 1 -1 0 41.332 166.2012)" fill="#FF0000" font-family="'Arial'" font-size="10px" text-decoration=" underline">العربية</text>
</g>
<g>
	<text transform="matrix(1 0 0 1 21.9998 55.1006)"><tspan x="0" y="0" fill="#FF0000" font-family="'KozGoPr6N-Regular-90ms-RKSJ-H'" font-size="10px" text-decoration=" underline">日</tspan><tspan x="0" y="12" fill="#FF0000" font-family="'KozGoPr6N-Regular-90ms-RKSJ-H'" font-size="10px" text-decoration=" underline">本</tspan><tspan x="0" y="24" fill="#FF0000" font-family="'KozGoPr6N-Regular-90ms-RKSJ-H'" font-size="10px" text-decoration=" underline">語</tspan></text>
</g>
<line fill="#FFFFFF" stroke="#333333" stroke-width="3" x1="0" y1="26.3" x2="139.5" y2="26.3"/>
<line fill="#FFFFFF" stroke="#333333" stroke-width="3" x1="0" y1="208.5" x2="139.5" y2="208.5"/>
<rect x="104.7" y="46" fill="none" width="13" height="142"/>
<text transform="matrix(1 0 0 1 105.1992 56.2891)"><tspan x="0" y="0" font-family="'MicrosoftYaHeiUI'" font-size="12px">这</tspan><tspan x="0" y="16" font-family="'MicrosoftYaHeiUI'" font-size="12px">是</tspan><tspan x="0" y="32" font-family="'MicrosoftYaHeiUI'" font-size="12px">一</tspan><tspan x="0" y="48" font-family="'MicrosoftYaHeiUI'" font-size="12px">份</tspan><tspan x="0" y="64" font-family="'MicrosoftYaHeiUI'" font-size="12px">中</tspan><tspan x="0" y="80" font-family="'MicrosoftYaHeiUI'" font-size="12px">文</tspan><tspan x="0" y="96" font-family="'MicrosoftYaHeiUI'" font-size="12px">文</tspan><tspan x="0" y="112" font-family="'MicrosoftYaHeiUI'" font-size="12px">件</tspan><tspan x="0" y="128" font-family="'MicrosoftYaHeiUI'" font-size="12px">︒</tspan></text>
<rect x="85.7" y="46" fill="none" width="13" height="143"/>
<text transform="matrix(1 0 0 1 86.1992 56.2891)"><tspan x="0" y="0" font-family="'MicrosoftYaHeiUI'" font-size="12px">下</tspan><tspan x="0" y="16" font-family="'MicrosoftYaHeiUI'" font-size="12px">面</tspan><tspan x="0" y="32" font-family="'MicrosoftYaHeiUI'" font-size="12px">有</tspan><tspan x="0" y="48" font-family="'MicrosoftYaHeiUI'" font-size="12px">外</tspan><tspan x="0" y="64" font-family="'MicrosoftYaHeiUI'" font-size="12px">文</tspan><tspan x="0" y="80" font-family="'MicrosoftYaHeiUI'" font-size="12px">的</tspan><tspan x="0" y="96" font-family="'MicrosoftYaHeiUI'" font-size="12px">列</tspan><tspan x="0" y="112" font-family="'MicrosoftYaHeiUI'" font-size="12px">表</tspan><tspan x="0" y="128" font-family="'MicrosoftYaHeiUI'" font-size="12px">：</tspan></text>
<text transform="matrix(1 0 0 1 30.7193 11.1523)" font-family="'Arial'" font-weight="700" font-size="13px" letter-spacing="0.5px">LTR START</text>
<text transform="matrix(1 0 0 1 30.7193 235.1523)" font-family="'Arial'" font-weight="700" font-size="13px" letter-spacing="0.5px">RTL START</text>
<g>
	
		<rect x="62.8" y="111.4" transform="matrix(-1.836970e-16 1 -1 -1.836970e-16 272.8496 -38.0488)" fill="#EFEFEF" width="185.2" height="12"/>
	<text transform="matrix(0 1 -1 0 151.3203 85.7515)" fill="#6D6D6D" font-family="'Arial'" font-size="10px" letter-spacing="0.5px">INLINE AXIS</text>
</g>
</svg>
