<?xml version="1.0" encoding="utf-8"?>
<!-- Generator: Adobe Illustrator 21.1.0, SVG Export Plug-In . SVG Version: 6.00 Build 0)  -->
<svg version="1.1" id="Layer_1" xmlns="http://www.w3.org/2000/svg" xmlns:xlink="http://www.w3.org/1999/xlink" x="0px" y="0px"
	 width="123px" height="183px" viewBox="0 0 123 183" enable-background="new 0 0 123 183" xml:space="preserve">
<text transform="matrix(0 -1 1 0 11.1524 126.29)" font-family="'Arial'" font-weight="700" font-size="13px" letter-spacing="0.5px">START</text>
<rect x="21" y="25" fill="none" stroke="#C0C0C0" stroke-width="3" stroke-dasharray="6,4" width="100" height="156"/>
<g>
	<rect x="21" y="141.5" fill="#FFFFFF" stroke="#FF0000" stroke-width="3" width="24" height="39.5"/>
	<text transform="matrix(0 -1 1 0 37.2911 174.2266)" fill="#FF0000" font-family="'Arial'" font-size="12px">Latin</text>
</g>
<g>
	<rect x="21" y="80" fill="#FFFFFF" stroke="#FF0000" stroke-width="3" width="24" height="55.5"/>
	<text transform="matrix(0 -1 1 0 39 125)" fill="#FF0000" font-family="'Arial'" font-size="16px">العربية</text>
</g>
<g>
	<g>
		<rect x="21" y="25" fill="#FFFFFF" stroke="#FF0000" stroke-width="3" width="24" height="49.5"/>
	</g>
	<text transform="matrix(1 0 0 1 27.5235 38.5957)"><tspan x="0" y="0" fill="#FF0000" font-family="'KozGoPr6N-Regular-90ms-RKSJ-H'" font-size="12px">日</tspan><tspan x="0" y="14.4" fill="#FF0000" font-family="'KozGoPr6N-Regular-90ms-RKSJ-H'" font-size="12px">本</tspan><tspan x="0" y="28.8" fill="#FF0000" font-family="'KozGoPr6N-Regular-90ms-RKSJ-H'" font-size="12px">語</tspan></text>
</g>
<line fill="#FFFFFF" stroke="#333333" stroke-width="3.005" x1="21" y1="182.5" x2="21" y2="23.5"/>
<g>
	<rect x="19.5" fill="#EFEFEF" width="103" height="12"/>
	<text transform="matrix(1 0 0 1 38.7901 10.1289)" fill="#6D6D6D" font-family="'Arial'" font-size="10px" letter-spacing="0.5px">BLOCK AXIS</text>
</g>
</svg>
