<?xml version="1.0" encoding="utf-8"?>
<!-- Generator: Adobe Illustrator 21.1.0, SVG Export Plug-In . SVG Version: 6.00 Build 0)  -->
<svg version="1.1" id="Layer_1" xmlns="http://www.w3.org/2000/svg" xmlns:xlink="http://www.w3.org/1999/xlink" x="0px" y="0px"
	 width="183px" height="125px" viewBox="0 0 183 125" enable-background="new 0 0 183 125" xml:space="preserve">
<g>
	
		<rect x="123.5" y="67" transform="matrix(6.123234e-17 -1 1 6.123234e-17 101.978 248.022)" fill="#EFEFEF" width="103" height="12"/>
	<text transform="matrix(0 -1 1 0 179.1289 105.2549)" fill="#6D6D6D" font-family="'Arial'" font-size="10px" letter-spacing="0.5px">BLOCK AXIS</text>
</g>
<g>
	<rect x="1.5" y="23" fill="none" stroke="#C0C0C0" stroke-width="3" stroke-dasharray="6,4" width="156" height="100"/>
	<g>
		<rect x="1.5" y="23" fill="#FFFFFF" stroke="#FF0000" stroke-width="3" width="39.5" height="24"/>
		<text transform="matrix(1 0 0 1 8.2734 39.2896)" fill="#FF0000" font-family="'Arial'" font-size="12px">Latin</text>
	</g>
	<g>
		<rect x="47" y="23" fill="#FFFFFF" stroke="#FF0000" stroke-width="3" width="55.5" height="24"/>
		<text transform="matrix(1 0 0 1 58 41)" fill="#FF0000" font-family="'Arial'" font-size="16px">العربية</text>
	</g>
	<g>
		<rect x="108" y="23" fill="#FFFFFF" stroke="#FF0000" stroke-width="3" width="49.5" height="24"/>
		
			<text transform="matrix(1 0 0 1 114.7734 39.2896)" fill="#FF0000" font-family="'KozGoPr6N-Regular-90ms-RKSJ-H'" font-size="12px">日本語</text>
	</g>
	<text transform="matrix(1 0 0 1 56.2104 11.1523)" font-family="'Arial'" font-weight="700" font-size="13px" letter-spacing="0.5px">START</text>
	<line fill="#FFFFFF" stroke="#333333" stroke-width="3.005" x1="0" y1="23" x2="159" y2="23"/>
</g>
</svg>
