<?xml version="1.0" encoding="utf-8"?>
<!-- Generator: Adobe Illustrator 12.0.1, SVG Export Plug-In  -->
<!DOCTYPE svg PUBLIC "-//W3C//DTD SVG 1.1//EN" "http://www.w3.org/Graphics/SVG/1.1/DTD/svg11.dtd" [
	<!ENTITY ns_flows "http://ns.adobe.com/Flows/1.0/">
	<!ENTITY ns_svg "http://www.w3.org/2000/svg">
	<!ENTITY ns_xlink "http://www.w3.org/1999/xlink">
]>
<svg  version="1.1" xmlns="&ns_svg;" xmlns:xlink="&ns_xlink;" xmlns:a="http://ns.adobe.com/AdobeSVGViewerExtensions/3.0/"
	 width="149" height="170" viewBox="0 -0.5381 149 170" enable-background="new 0 -0.5381 149 170" xml:space="preserve">
<defs>
</defs>
<line fill="none" stroke="#000000" x1="0" y1="38.9336" x2="67.5981" y2="38.9336"/>
<line fill="none" stroke="#000000" x1="0" y1="43.0972" x2="67.5991" y2="43.0972"/>
<line fill="none" stroke="#000000" x1="0" y1="47.2617" x2="67.5981" y2="47.2617"/>
<line fill="none" stroke="#000000" x1="0" y1="51.4263" x2="67.5981" y2="51.4263"/>
<line fill="none" stroke="#000000" x1="0" y1="55.5903" x2="67.5981" y2="55.5903"/>
<line fill="none" stroke="#000000" x1="0" y1="59.7544" x2="67.5981" y2="59.7544"/>
<line fill="none" stroke="#000000" x1="0" y1="63.9189" x2="67.5981" y2="63.9189"/>
<line fill="none" stroke="#000000" x1="0" y1="68.083" x2="67.5981" y2="68.083"/>
<line fill="none" stroke="#000000" x1="0" y1="72.2476" x2="67.5981" y2="72.2476"/>
<line fill="none" stroke="#000000" x1="0" y1="76.4116" x2="67.5981" y2="76.4116"/>
<line fill="none" stroke="#000000" x1="0" y1="80.5762" x2="67.5981" y2="80.5762"/>
<line fill="none" stroke="#000000" x1="0" y1="84.7402" x2="67.5981" y2="84.7402"/>
<line fill="none" stroke="#000000" x1="0" y1="88.9043" x2="67.5981" y2="88.9043"/>
<line fill="none" stroke="#000000" x1="0" y1="93.0693" x2="67.5981" y2="93.0693"/>
<line fill="none" stroke="#000000" x1="0" y1="97.2329" x2="67.5981" y2="97.2329"/>
<line fill="none" stroke="#000000" x1="0" y1="101.3975" x2="67.5981" y2="101.3975"/>
<line fill="none" stroke="#000000" x1="0" y1="105.5615" x2="67.5981" y2="105.5615"/>
<line fill="none" stroke="#000000" x1="0" y1="109.7261" x2="67.5981" y2="109.7261"/>
<line fill="none" stroke="#000000" x1="0" y1="113.8906" x2="67.5981" y2="113.8906"/>
<line fill="none" stroke="#000000" x1="0" y1="118.0542" x2="67.5981" y2="118.0542"/>
<line fill="none" stroke="#000000" x1="0" y1="122.2188" x2="67.5981" y2="122.2188"/>
<line fill="none" stroke="#000000" x1="0" y1="126.3828" x2="67.5981" y2="126.3828"/>
<line fill="none" stroke="#000000" x1="0" y1="130.5469" x2="67.5981" y2="130.5469"/>
<line fill="none" stroke="#000000" x1="0" y1="134.7119" x2="67.5981" y2="134.7119"/>
<line fill="none" stroke="#000000" x1="0" y1="138.876" x2="67.5981" y2="138.876"/>
<line fill="none" stroke="#000000" x1="0" y1="143.04" x2="67.5981" y2="143.04"/>
<line fill="none" stroke="#000000" x1="0" y1="147.2046" x2="67.5981" y2="147.2046"/>
<line fill="none" stroke="#000000" x1="0" y1="151.3691" x2="67.5981" y2="151.3691"/>
<line fill="none" stroke="#000000" x1="0" y1="155.5327" x2="67.5981" y2="155.5327"/>
<line fill="none" stroke="#000000" x1="0" y1="159.6968" x2="67.5981" y2="159.6968"/>
<line fill="none" stroke="#000000" x1="0" y1="163.8623" x2="67.5981" y2="163.8623"/>
<line fill="none" stroke="#000000" x1="0" y1="168.0254" x2="67.5981" y2="168.0254"/>
<line fill="none" stroke="#000000" x1="81.1719" y1="38.9336" x2="148.7695" y2="38.9336"/>
<line fill="none" stroke="#000000" x1="81.1719" y1="43.0972" x2="148.7705" y2="43.0972"/>
<line fill="none" stroke="#000000" x1="81.1719" y1="47.2617" x2="148.7695" y2="47.2617"/>
<line fill="none" stroke="#000000" x1="81.1719" y1="51.4263" x2="148.7695" y2="51.4263"/>
<line fill="none" stroke="#000000" x1="81.1719" y1="55.5903" x2="148.7695" y2="55.5903"/>
<line fill="none" stroke="#000000" x1="81.1719" y1="59.7544" x2="148.7695" y2="59.7544"/>
<line fill="none" stroke="#000000" x1="81.1719" y1="63.9189" x2="148.7695" y2="63.9189"/>
<line fill="none" stroke="#000000" x1="81.1719" y1="68.083" x2="148.7695" y2="68.083"/>
<line fill="none" stroke="#000000" x1="81.1719" y1="72.2476" x2="148.7695" y2="72.2476"/>
<line fill="none" stroke="#000000" x1="81.1719" y1="76.4116" x2="148.7695" y2="76.4116"/>
<line fill="none" stroke="#000000" x1="81.1719" y1="80.5762" x2="148.7695" y2="80.5762"/>
<line fill="none" stroke="#000000" x1="81.1719" y1="84.7402" x2="148.7695" y2="84.7402"/>
<line fill="none" stroke="#000000" x1="81.1719" y1="88.9043" x2="148.7695" y2="88.9043"/>
<line fill="none" stroke="#000000" x1="81.1719" y1="93.0693" x2="148.7695" y2="93.0693"/>
<line fill="none" stroke="#000000" x1="81.1719" y1="97.2329" x2="148.7695" y2="97.2329"/>
<line fill="none" stroke="#000000" x1="81.1719" y1="101.3975" x2="148.7695" y2="101.3975"/>
<line fill="none" stroke="#000000" x1="81.1719" y1="105.5615" x2="148.7695" y2="105.5615"/>
<line fill="none" stroke="#000000" x1="81.1719" y1="109.7261" x2="148.7695" y2="109.7261"/>
<line fill="none" stroke="#000000" x1="81.1719" y1="113.8901" x2="148.7695" y2="113.8901"/>
<line fill="none" stroke="#000000" x1="81.1719" y1="118.0537" x2="148.7695" y2="118.0537"/>
<line fill="none" stroke="#000000" x1="81.1719" y1="122.2188" x2="148.7695" y2="122.2188"/>
<line fill="none" stroke="#000000" x1="81.1719" y1="126.3828" x2="148.7695" y2="126.3828"/>
<line fill="none" stroke="#000000" x1="81.1719" y1="130.5469" x2="148.7695" y2="130.5469"/>
<line fill="none" stroke="#000000" x1="81.1719" y1="134.7119" x2="148.7695" y2="134.7119"/>
<line fill="none" stroke="#000000" x1="81.1719" y1="138.876" x2="148.7695" y2="138.876"/>
<line fill="none" stroke="#000000" x1="81.1719" y1="143.04" x2="148.7695" y2="143.04"/>
<line fill="none" stroke="#000000" x1="81.1719" y1="147.2046" x2="148.7695" y2="147.2046"/>
<line fill="none" stroke="#000000" x1="81.1719" y1="151.3691" x2="148.7695" y2="151.3691"/>
<line fill="none" stroke="#000000" x1="81.1719" y1="155.5327" x2="148.7695" y2="155.5327"/>
<line fill="none" stroke="#000000" x1="81.1719" y1="159.6968" x2="148.7695" y2="159.6968"/>
<line fill="none" stroke="#000000" x1="81.1719" y1="163.8623" x2="148.7695" y2="163.8623"/>
<line fill="none" stroke="#000000" x1="81.1719" y1="168.0254" x2="148.7695" y2="168.0254"/>
<line fill="none" stroke="#000000" stroke-width="1.5" x1="0" y1="14.7505" x2="88.5996" y2="14.7505"/>
<line fill="none" stroke="#000000" stroke-width="1.5" x1="0" y1="7.7505" x2="88.5996" y2="7.7505"/>
<line fill="none" stroke="#000000" stroke-width="1.5" x1="0" y1="21.751" x2="88.5996" y2="21.751"/>
<line fill="none" stroke="#000000" stroke-width="1.5" x1="0" y1="0.75" x2="88.5996" y2="0.75"/>
<rect x="47.4766" y="82.3354" fill="#FFFFFF" stroke="#FFFFFF" stroke-width="8" width="53.8164" height="62.3481"/>
<line fill="none" stroke="#000000" x1="47.4766" y1="82.3354" x2="101.293" y2="144.6836"/>
<line fill="none" stroke="#000000" x1="47.4766" y1="144.6836" x2="101.293" y2="82.3354"/>
<rect x="47.4766" y="82.3354" fill="none" stroke="#000000" width="53.8164" height="62.3481"/>
</svg>
