<svg xmlns="http://www.w3.org/2000/svg" viewBox="0 0 982 982">

  <g style="font-family: Helvetica, sans-serif">
    <!-- device/screen boundary -->
    <rect x="3.5" y="3.5" width="974.66" height="974.66" rx="168.88" ry="168.88" fill="none" stroke="black" stroke-width="7"/>

    <!-- content safe area -->
    <rect x="165.08" y="158.7" width="658.69" height="658.69" fill="#ddd"/>

    <g>
      <line x1="165.11" y1="3.5" x2="165.11" y2="6.5" stroke="black"/>
      <line x1="165.11" y1="12.52" x2="165.11" y2="972.15" stroke="black" stroke-dasharray="6"/>
      <line x1="165.11" y1="975.16" x2="165.11" y2="978.16" stroke="black"/>
    </g>

    <g>
      <line x1="823.77" y1="4.64" x2="823.77" y2="7.64" stroke="black"/>
      <line x1="823.77" y1="13.66" x2="823.77" y2="973.29" stroke="black" stroke-dasharray="6"/>
      <line x1="823.77" y1="976.3" x2="823.77" y2="979.3" stroke="black"/>
    </g>
    <g>
      <line x1="3.5" y1="158.7" x2="6.5" y2="158.7" stroke="black"/>
      <line x1="12.52" y1="158.7" x2="972.15" y2="158.7" stroke="black" stroke-dasharray="6"/>
      <line x1="975.16" y1="158.7" x2="978.16" y2="158.7" stroke="black"/>
    </g>
    <g>
      <line x1="3.67" y1="817.39" x2="6.67" y2="817.39" stroke="black"/>
      <line x1="12.69" y1="817.39" x2="972.32" y2="817.39" stroke="black" stroke-dasharray="6"/>
      <line x1="975.33" y1="817.39" x2="978.33" y2="817.39" stroke="black"/>
    </g>

    <text transform="translate(340.69 491.97)" font-size="90" font-style="italic">Content<tspan x="-33.35" y="108">Safe Area</tspan></text>

    <g>
      <line x1="264.62" y1="21.56" x2="264.62" y2="143.2" stroke="black"/>
      <polygon points="259.63 23.02 264.62 14.38 269.6 23.02 259.63 23.02"/>
      <polygon points="259.63 141.74 264.62 150.38 269.6 141.74 259.63 141.74"/>
    </g>
    <text transform="translate(268.97 97.34)" font-size="40">safe-area-inset-top</text>

    <g>
      <line x1="261.81" y1="832.89" x2="261.81" y2="961.02" stroke="black"/>
      <polygon points="256.82 834.35 261.81 825.71 266.79 834.35 256.82 834.35"/>
      <polygon points="256.82 959.56 261.81 968.2 266.79 959.56 256.82 959.56"/>
    </g>
    <text transform="translate(268.97 902.32)" font-size="40">safe-area-inset-bottom</text>

    <g>
      <line x1="22.83" y1="222.91" x2="144.47" y2="222.91" stroke="black"/>
      <polygon points="24.29 227.9 15.65 222.91 24.29 217.93 24.29 227.9"/>
      <polygon points="143.01 227.9 151.65 222.91 143.01 217.93 143.01 227.9"/>
    </g>
    <text transform="translate(27.24 271.34)" font-size="40">safe-area-inset-left</text>

    <g>
      <line x1="838.87" y1="305.85" x2="960.52" y2="305.85" stroke="black"/>
      <polygon points="840.33 310.84 831.69 305.85 840.33 300.87 840.33 310.84"/>
      <polygon points="959.06 310.84 967.69 305.85 959.06 300.87 959.06 310.84"/>
    </g>
    <text transform="translate(604.13 358.82)" font-size="40">safe-area-inset-right</text>
  </g>
</svg>
