<?xml version="1.0" encoding="UTF-8"?>
<!DOCTYPE svg PUBLIC "-//W3C//DTD SVG 1.1//EN" "http://www.w3.org/Graphics/SVG/1.1/DTD/svg11.dtd">
<!-- Creator: CorelDRAW -->
<svg xmlns="http://www.w3.org/2000/svg" xml:space="preserve" shape-rendering="geometricPrecision" text-rendering="geometricPrecision" image-rendering="optimizeQuality" fill-rule="evenodd" clip-rule="evenodd"
viewBox="0 0 220 159.999">
 <defs>
   <linearGradient id="id0" gradientUnits="userSpaceOnUse" x1="19.9997" y1="51.8052" x2="19.9997" y2="8.19703">
    <stop offset="0" stop-color="white"/>
    <stop offset="1" stop-color="dodgerblue"/>
   </linearGradient>
   <linearGradient id="id1" gradientUnits="userSpaceOnUse" x1="49.9993" y1="51.8052" x2="49.9993" y2="8.19703">
    <stop offset="0" stop-color="white"/>
    <stop offset="1" stop-color="dodgerblue"/>
   </linearGradient>
   <linearGradient id="id2" gradientUnits="userSpaceOnUse" x1="79.9989" y1="51.8052" x2="79.9989" y2="8.19703">
    <stop offset="0" stop-color="white"/>
    <stop offset="1" stop-color="dodgerblue"/>
   </linearGradient>
   <linearGradient id="id3" gradientUnits="userSpaceOnUse" x1="108.194" y1="80.0004" x2="151.802" y2="80.0004">
    <stop offset="0" stop-color="white"/>
    <stop offset="1" stop-color="dodgerblue"/>
   </linearGradient>
   <linearGradient id="id4" gradientUnits="userSpaceOnUse" x1="108.194" y1="110" x2="151.802" y2="110">
    <stop offset="0" stop-color="white"/>
    <stop offset="1" stop-color="dodgerblue"/>
   </linearGradient>
   <linearGradient id="id5" gradientUnits="userSpaceOnUse" x1="108.194" y1="140" x2="151.802" y2="140">
    <stop offset="0" stop-color="white"/>
    <stop offset="1" stop-color="dodgerblue"/>
   </linearGradient>
 </defs>
 <g id="Layer_x0020_1">
  <metadata id="CorelCorpID_0Corel-Layer"/>
  <path fill="dodgerblue" d="M76.5716 110l3.42727 0c0,-16.5641 -13.4354,-29.9996 -29.9996,-29.9996l0 1.04239 0 2.38488c14.6714,0 26.5723,11.901 26.5723,26.5723z"/>
  <polyline fill="none" stroke="black" stroke-width="2.00012" points="49.285,-30.503 49.2797,109.273 199.157,109.273 "/>
  <path fill="url(#id0)" fill-rule="nonzero" stroke="lightskyblue" stroke-width="0.575999" d="M8.96427 51.8052l-0.00529133 -30.0019 11.0355 -13.6063 11.0407 13.5912 0.00529133 30.0019 -22.0762 0.0151181zm-0.00302362 -15.0017m5.51508 -21.8033m11.0385 -0.00755905m5.5234 21.7958m-11.0362 15.0092"/>
  <path fill="url(#id1)" fill-rule="nonzero" stroke="lightskyblue" stroke-width="0.575999" d="M38.9639 51.8052l-0.00529133 -30.0019 11.0355 -13.6063 11.0407 13.5912 0.00529133 30.0019 -22.0762 0.0151181zm-0.00302362 -15.0017m5.51508 -21.8033m11.0385 -0.00755905m5.5234 21.7958m-11.0362 15.0092"/>
  <path fill="url(#id2)" fill-rule="nonzero" stroke="lightskyblue" stroke-width="0.575999" d="M68.9634 51.8052l-0.00529133 -30.0019 11.0355 -13.6063 11.0407 13.5912 0.00529133 30.0019 -22.0762 0.0151181zm-0.00302362 -15.0017m5.51508 -21.8033m11.0385 -0.00755905m5.5234 21.7958m-11.0362 15.0092"/>
  <path fill="url(#id3)" fill-rule="nonzero" stroke="lightskyblue" stroke-width="0.575999" d="M108.194 68.965l30.0019 -0.00529133 13.6063 11.0355 -13.5912 11.0407 -30.0019 0.00529133 -0.0151181 -22.0762zm15.0017 -0.00302362m21.8033 5.51508m0.00755905 11.0385m-21.7958 5.5234m-15.0092 -11.0362"/>
  <path fill="url(#id4)" fill-rule="nonzero" stroke="lightskyblue" stroke-width="0.575999" d="M108.194 98.9645l30.0019 -0.00529133 13.6063 11.0355 -13.5912 11.0407 -30.0019 0.00529133 -0.0151181 -22.0762zm15.0017 -0.00302362m21.8033 5.51508m0.00755905 11.0385m-21.7958 5.5234m-15.0092 -11.0362"/>
  <path fill="url(#id5)" fill-rule="nonzero" stroke="lightskyblue" stroke-width="0.575999" d="M108.194 128.964l30.0019 -0.00529133 13.6063 11.0355 -13.5912 11.0407 -30.0019 0.00529133 -0.0151181 -22.0762zm15.0017 -0.00302362m21.8033 5.51508m0.00755905 11.0385m-21.7958 5.5234m-15.0092 -11.0362"/>
  <path fill="tomato" stroke="red" stroke-width="2.66683" d="M103.94 25.3273c12.5132,0 22.3581,10.6137 22.3581,23.9614l-3.75609 0 6.76157 11.2721 6.75325 -11.2721 -3.74853 0c0,-16.5982 -12.808,-29.8477 -28.3683,-29.8477l0 5.88623z"/>
  <text x="68.6845" y="86.1701"  fill="black" font-weight="normal" font-size="16.0002" font-family="Arial">90°</text>
 </g>
</svg>
