<?xml version="1.0" encoding="UTF-8"?>
<!DOCTYPE svg PUBLIC "-//W3C//DTD SVG 1.1//EN" "http://www.w3.org/Graphics/SVG/1.1/DTD/svg11.dtd">
<!-- Creator: CorelDRAW -->
<svg xmlns="http://www.w3.org/2000/svg" xml:space="preserve" shape-rendering="geometricPrecision" text-rendering="geometricPrecision" image-rendering="optimizeQuality" fill-rule="evenodd" clip-rule="evenodd"
viewBox="0 0 160 220.001">
 <defs>
   <linearGradient id="id0" gradientUnits="userSpaceOnUse" x1="81.3145" y1="52.2476" x2="81.3145" y2="8.63927">
    <stop offset="0" stop-color="white"/>
    <stop offset="1" stop-color="dodgerblue"/>
   </linearGradient>
   <linearGradient id="id1" gradientUnits="userSpaceOnUse" x1="49.7705" y1="51.9498" x2="49.7705" y2="8.34144">
    <stop offset="0" stop-color="white"/>
    <stop offset="1" stop-color="dodgerblue"/>
   </linearGradient>
   <linearGradient id="id2" gradientUnits="userSpaceOnUse" x1="21.2418" y1="52.1025" x2="21.2418" y2="8.49414">
    <stop offset="0" stop-color="white"/>
    <stop offset="1" stop-color="dodgerblue"/>
   </linearGradient>
   <linearGradient id="id3" gradientUnits="userSpaceOnUse" x1="130.473" y1="71.9707" x2="130.473" y2="28.3624">
    <stop offset="0" stop-color="white"/>
    <stop offset="1" stop-color="dodgerblue"/>
   </linearGradient>
   <linearGradient id="id4" gradientUnits="userSpaceOnUse" x1="130.205" y1="122.623" x2="130.205" y2="79.0143">
    <stop offset="0" stop-color="white"/>
    <stop offset="1" stop-color="dodgerblue"/>
   </linearGradient>
   <linearGradient id="id5" gradientUnits="userSpaceOnUse" x1="130.693" y1="172.398" x2="130.693" y2="128.789">
    <stop offset="0" stop-color="white"/>
    <stop offset="1" stop-color="dodgerblue"/>
   </linearGradient>
 </defs>
 <g id="Layer_x0020_1">
  <metadata id="CorelCorpID_0Corel-Layer"/>
  <line fill="none" stroke="black" stroke-width="2.00013" x1="49.8778" y1="-8.10938" x2="49.8831" y2= "180.001" />
  <line fill="none" stroke="black" stroke-width="2.00013" x1="130.591" y1="-38.5672" x2="130.597" y2= "180.001" />
  <path fill="url(#id0)" fill-rule="nonzero" stroke="lightskyblue" stroke-width="0.576002" d="M92.35 52.2476l0.00529136 -30.002 -11.0355 -13.6063 -11.0408 13.5912 -0.00529136 30.002 22.0763 0.0151182zm0.00302363 -15.0017m-5.5151 -21.8034m-11.0385 -0.00755908m-5.52342 21.7958m11.0363 15.0093"/>
  <path fill="url(#id1)" fill-rule="nonzero" stroke="lightskyblue" stroke-width="0.576002" d="M60.806 51.9498l0.00529136 -30.002 -11.0355 -13.6063 -11.0408 13.5912 -0.00529136 30.002 22.0763 0.0151182zm0.00302363 -15.0017m-5.5151 -21.8034m-11.0385 -0.00755908m-5.52342 21.7958m11.0363 15.0093"/>
  <path fill="url(#id2)" fill-rule="nonzero" stroke="lightskyblue" stroke-width="0.576002" d="M32.2773 52.1025l0.00529136 -30.002 -11.0355 -13.6063 -11.0408 13.5912 -0.00529136 30.002 22.0763 0.0151182zm0.00302363 -15.0017m-5.5151 -21.8034m-11.0385 -0.00755908m-5.52342 21.7958m11.0363 15.0093"/>
  <path fill="url(#id3)" fill-rule="nonzero" stroke="lightskyblue" stroke-width="0.576002" d="M141.508 71.9707l0.00529136 -30.002 -11.0355 -13.6063 -11.0408 13.5912 -0.00529136 30.002 22.0763 0.0151182zm0.00302363 -15.0017m-5.5151 -21.8034m-11.0385 -0.00755908m-5.52342 21.7958m11.0363 15.0093"/>
  <path fill="url(#id4)" fill-rule="nonzero" stroke="lightskyblue" stroke-width="0.576002" d="M141.241 122.623l0.00529136 -30.002 -11.0355 -13.6063 -11.0408 13.5912 -0.00529136 30.002 22.0763 0.0151182zm0.00302363 -15.0017m-5.5151 -21.8034m-11.0385 -0.00755908m-5.52342 21.7958m11.0363 15.0093"/>
  <path fill="url(#id5)" fill-rule="nonzero" stroke="lightskyblue" stroke-width="0.576002" d="M141.729 172.398l0.00529136 -30.002 -11.0355 -13.6063 -11.0408 13.5912 -0.00529136 30.002 22.0763 0.0151182zm0.00302363 -15.0017m-5.5151 -21.8034m-11.0385 -0.00755908m-5.52342 21.7958m11.0363 15.0093"/>
  <polygon fill="tomato" stroke="red" stroke-width="2.00013" points="70.3539,73.565 92.5261,95.8423 95.1824,93.1861 98.3723,105.938 85.6262,102.743 88.2764,100.092 66.0142,77.8819 "/>
  <g transform="matrix(0.989903 0 0 1 54.4092 86.0208)">
   <text x="80" y="110"  fill="black" font-weight="normal" font-size="16.0003" font-family="Arial">0°</text>
  </g>
  <g transform="matrix(0.989903 0 0 1 -25.426 86.4479)">
   <text x="80" y="110"  fill="black" font-weight="normal" font-size="16.0003" font-family="Arial">0°</text>
  </g>
 </g>
</svg>
