<?xml version="1.0" encoding="UTF-8" standalone="no"?>
<!-- Creator: CorelDRAW -->

<svg
   xmlns:dc="http://purl.org/dc/elements/1.1/"
   xmlns:cc="http://creativecommons.org/ns#"
   xmlns:rdf="http://www.w3.org/1999/02/22-rdf-syntax-ns#"
   xmlns:svg="http://www.w3.org/2000/svg"
   xmlns="http://www.w3.org/2000/svg"
   xmlns:sodipodi="http://sodipodi.sourceforge.net/DTD/sodipodi-0.dtd"
   xmlns:inkscape="http://www.inkscape.org/namespaces/inkscape"
   xml:space="preserve"
   fill-rule="evenodd"
   clip-rule="evenodd"
   viewBox="0 0 138 100.363"
   fill="white"
   id="svg4463"
   version="1.1"
   inkscape:version="0.48.0 r9654"
   width="100%"
   height="100%"
   sodipodi:docname="text-flow-vectors-tb.svg"
   inkscape:export-filename="/home/fantasai/w3c/csswg/css3-writing-modes/diagrams/text-flow-vectors-tb.png"
   inkscape:export-xdpi="90.07"
   inkscape:export-ydpi="90.07"><metadata
   id="metadata4514"><rdf:RDF><cc:Work
       rdf:about=""><dc:format>image/svg+xml</dc:format><dc:type
         rdf:resource="http://purl.org/dc/dcmitype/StillImage" /><dc:title></dc:title></cc:Work></rdf:RDF></metadata><sodipodi:namedview
   pagecolor="#ffffff"
   bordercolor="#666666"
   borderopacity="1"
   objecttolerance="10"
   gridtolerance="10"
   guidetolerance="10"
   inkscape:pageopacity="0"
   inkscape:pageshadow="2"
   inkscape:window-width="1079"
   inkscape:window-height="1164"
   id="namedview4512"
   showgrid="false"
   inkscape:zoom="2.6404153"
   inkscape:cx="69"
   inkscape:cy="50.1815"
   inkscape:window-x="0"
   inkscape:window-y="0"
   inkscape:window-maximized="0"
   inkscape:current-layer="Layer_x0020_1" />
 <defs
   id="defs4465">
   <linearGradient
   id="id0"
   gradientUnits="userSpaceOnUse"
   x1="58.6529"
   y1="52.5372"
   x2="58.6529"
   y2="25.183">
    <stop
   offset="0"
   stop-color="white"
   id="stop4468" />
    <stop
   offset="1"
   stop-color="dodgerblue"
   id="stop4470" />
   </linearGradient>
   <linearGradient
   id="id1"
   gradientUnits="userSpaceOnUse"
   x1="39.5851"
   y1="35.6311"
   x2="39.5851"
   y2="96.789">
    <stop
   offset="0"
   stop-color="white"
   id="stop4473" />
    <stop
   offset="1"
   stop-color="#33CC33"
   id="stop4475" />
   </linearGradient>
   <linearGradient
   id="id2"
   gradientUnits="userSpaceOnUse"
   x1="55.477"
   y1="55.3992"
   x2="112.599"
   y2="55.3992">
    <stop
   offset="0"
   stop-color="white"
   id="stop4478" />
    <stop
   offset="1"
   stop-color="#FF9933"
   id="stop4480" />
   </linearGradient>
 
   
   
  
   
   
  </defs>
 <g
   id="Layer_x0020_1">
  <metadata
   id="CorelCorpID_0Corel-Layer" />
  <path
   fill="url(#id0)"
   fill-rule="nonzero"
   stroke="lightskyblue"
   stroke-width="0.361309"
   d="M51.7307 52.5372l-0.00331911 -18.8193 6.92224 -8.53485 6.92556 8.52537 0.00331911 18.8193 -13.8478 0.00948317zm-0.00189663 -9.41015m3.45946 -13.6766m6.92413 -0.00474158m3.46468 13.6719m-6.92271 9.41489"
   id="path4484" />
  <g
   transform="matrix(0.999941 0.0108984 -0.0108984 0.999941 -17.2162 -21.5717)"
   id="g4486">
   <text
   x="69.0441"
   y="73.5998"
   fill="black"
   font-weight="bold"
   font-size="23.4182"
   font-family="Palatino Linotype"
   id="text4488">Text</text>

   <text
   x="69.0882"
   y="97.018"
   fill="black"
   font-weight="bold"
   font-size="23.4182"
   font-family="Palatino Linotype"
   id="text4490">Flow</text>

  </g>
  <path
   fill="url(#id1)"
   fill-rule="nonzero"
   stroke="#CCFFCC"
   stroke-width="0.361309"
   d="M34.1366 35.6311l0 34.9474 -6.24514 0 11.6937 26.2105 11.6932 -26.2105 -6.24514 0 0 -34.9474 -10.8966 0zm0 17.4732m-3.12233 17.4742m2.72404 13.1053m11.6932 0m2.72404 -13.1053m-3.12233 -17.4742m-5.44808 -17.4732"
   id="path4492" />
  <path
   fill="url(#id2)"
   fill-rule="nonzero"
   stroke="#FFCC66"
   stroke-width="0.361309"
   d="M55.477 54.6515l41.4097 0 0 -1.82693 15.7122 2.57468 -15.7122 2.57515 0 -1.82693 -41.4097 0 0 -1.49597zm20.7046 0m20.7051 -0.913703m7.85586 0.374111m0 2.57515m-7.85586 0.374111m-20.7051 -0.913703m-20.7046 -0.748222"
   id="path4494" />
  <text
   style="font-size:10.03600025px;font-weight:normal;fill:#ff9933;font-family:Arial"
   id="text4498"
   font-size="10.036"
   font-weight="normal"
   y="-126.3684"
   x="43.867302"
   transform="matrix(0,1,-1,0,0,0)">inline</text>
<text
   style="font-size:10.03600025px;font-weight:normal;fill:#ff9933;font-family:Arial"
   id="text4500"
   font-size="10.036"
   font-weight="normal"
   y="-115.1564"
   x="25.576916"
   transform="matrix(0,1,-1,0,0,0)">base direction</text>

  <text
   x="51.652184"
   y="10.5149"
   font-weight="normal"
   font-size="10.036"
   id="text4502"
   style="font-size:10.03600025px;font-weight:normal;fill:#1e90ff;font-family:Arial">line</text>

  <text
   x="36.4272"
   y="21.7269"
   fill="dodgerblue"
   font-weight="normal"
   font-size="10.036"
   font-family="Arial"
   id="text4504">orientation</text>

  <text
   style="font-size:10.03600025px;font-weight:normal;fill:#33cc33;font-family:Arial"
   id="text4508"
   font-size="10.036"
   font-weight="normal"
   y="11.670898"
   x="-68.108582"
   transform="matrix(0,-1,1,0,0,0)">block</text>
<text
   style="font-size:10.03600025px;font-weight:normal;fill:#33cc33;font-family:Arial"
   id="text4510"
   font-size="10.036"
   font-weight="normal"
   y="22.8829"
   x="-86.779999"
   transform="matrix(0,-1,1,0,0,0)">flow direction</text>

 </g>
</svg>