<?xml version="1.0" encoding="UTF-8"?>
<!DOCTYPE svg PUBLIC "-//W3C//DTD SVG 1.1//EN" "http://www.w3.org/Graphics/SVG/1.1/DTD/svg11.dtd">
<!-- Creator: CorelDRAW -->
<svg xmlns="http://www.w3.org/2000/svg" xml:space="preserve" fill-rule="evenodd" clip-rule="evenodd"
viewBox="0 0 138 100.363" fill="white">
 <defs>
   <linearGradient id="id0" gradientUnits="userSpaceOnUse" x1="58.6529" y1="52.5372" x2="58.6529" y2="25.183">
    <stop offset="0" stop-color="white"/>
    <stop offset="1" stop-color="dodgerblue"/>
   </linearGradient>
   <linearGradient id="id1" gradientUnits="userSpaceOnUse" x1="39.5851" y1="35.6311" x2="39.5851" y2="96.789">
    <stop offset="0" stop-color="white"/>
    <stop offset="1" stop-color="#33CC33"/>
   </linearGradient>
   <linearGradient id="id2" gradientUnits="userSpaceOnUse" x1="55.477" y1="55.3992" x2="112.599" y2="55.3992">
    <stop offset="0" stop-color="white"/>
    <stop offset="1" stop-color="#FF9933"/>
   </linearGradient>
 </defs>
 <g id="Layer_x0020_1">
  <metadata id="CorelCorpID_0Corel-Layer"/>
  <path fill="url(#id0)" fill-rule="nonzero" stroke="lightskyblue" stroke-width="0.361309" d="M51.7307 52.5372l-0.00331911 -18.8193 6.92224 -8.53485 6.92556 8.52537 0.00331911 18.8193 -13.8478 0.00948317zm-0.00189663 -9.41015m3.45946 -13.6766m6.92413 -0.00474158m3.46468 13.6719m-6.92271 9.41489"/>
  <g transform="matrix(0.999941 0.0108984 -0.0108984 0.999941 -17.2162 -21.5717)">
   <text x="69.0441" y="73.5998"  fill="black" font-weight="bold" font-size="23.4182" font-family="Palatino Linotype">Text</text>
   <text x="69.0882" y="97.018"  fill="black" font-weight="bold" font-size="23.4182" font-family="Palatino Linotype">Flow</text>
  </g>
  <path fill="url(#id1)" fill-rule="nonzero" stroke="#CCFFCC" stroke-width="0.361309" d="M34.1366 35.6311l0 34.9474 -6.24514 0 11.6937 26.2105 11.6932 -26.2105 -6.24514 0 0 -34.9474 -10.8966 0zm0 17.4732m-3.12233 17.4742m2.72404 13.1053m11.6932 0m2.72404 -13.1053m-3.12233 -17.4742m-5.44808 -17.4732"/>
  <path fill="url(#id2)" fill-rule="nonzero" stroke="#FFCC66" stroke-width="0.361309" d="M55.477 54.6515l41.4097 0 0 -1.82693 15.7122 2.57468 -15.7122 2.57515 0 -1.82693 -41.4097 0 0 -1.49597zm20.7046 0m20.7051 -0.913703m7.85586 0.374111m0 2.57515m-7.85586 0.374111m-20.7051 -0.913703m-20.7046 -0.748222"/>
  <g transform="matrix(-2.92662E-013 1 -1 -2.92662E-013 176.55 -13.4158)">
   <text x="57.2831" y="50.1816"  fill="#FF9933" font-weight="normal" font-size="10.036" font-family="Arial">inline</text>
   <text x="42.78" y="61.3936"  fill="#FF9933" font-weight="normal" font-size="10.036" font-family="Arial">directionality</text>
  </g>
  <text x="47.8649" y="10.5149"  fill="dodgerblue" font-weight="normal" font-size="10.036" font-family="Arial">line</text>
  <text x="36.4272" y="21.7269"  fill="dodgerblue" font-weight="normal" font-size="10.036" font-family="Arial">orientation</text>
  <g transform="matrix(3.45631E-013 -1 1 3.45631E-013 -38.5107 129.56)">
   <text x="57.2854" y="50.1816"  fill="#33CC33" font-weight="normal" font-size="10.036" font-family="Arial">block</text>
   <text x="42.78" y="61.3936"  fill="#33CC33" font-weight="normal" font-size="10.036" font-family="Arial">flow direction</text>
  </g>
 </g>
</svg>
