<svg xmlns="http://www.w3.org/2000/svg" version="1.1" width="600" height="400">
	<rect x="0" y="0" width="100%" height="100%" fill="none" stroke="black"/>
	<g transform="scale(1, -1) translate(75, -250)" stroke="black" font-family="Times">
		<line x1="0" y1="0" x2="0" y2="200"/>
		<line x1="0" y1="0" x2="400" y2="0"/>
		<text transform="scale(1, -1) translate(180, 100)" font-size="24">Italic</text>
		<text transform="scale(1, -1) rotate(-90) translate(50, -25)" font-size="24">Distance</text>
		<g transform="translate(50, -50)">
			<line x1="0" y1="0" x2="0" y2="10"/>
			<line x1="0" y1="0" x2="25" y2="0"/>
			<line x1="25" y1="0" x2="25" y2="10"/>
			<text transform="scale(1, -1) translate(9, 20)" font-size="12">A</text>
		</g>
		<g transform="translate(125, -50)">
			<line x1="0" y1="0" x2="0" y2="10"/>
			<line x1="0" y1="0" x2="25" y2="0"/>
			<line x1="25" y1="0" x2="25" y2="10"/>
			<text transform="scale(1, -1) translate(9, 20)" font-size="12">B</text>
		</g>
		<g transform="translate(187.5, -50)">
			<line x1="0" y1="0" x2="0" y2="10"/>
			<line x1="0" y1="0" x2="25" y2="0"/>
			<line x1="25" y1="0" x2="25" y2="10"/>
			<text transform="scale(1, -1) translate(9, 20)" font-size="12">C</text>
		</g>
		<g transform="translate(237.5, -50)">
			<line x1="0" y1="0" x2="0" y2="10"/>
			<line x1="0" y1="0" x2="25" y2="0"/>
			<line x1="25" y1="0" x2="25" y2="10"/>
			<text transform="scale(1, -1) translate(9, 20)" font-size="12">D</text>
		</g>
		<g transform="translate(325, -50)">
			<line x1="0" y1="0" x2="0" y2="10"/>
			<line x1="0" y1="0" x2="25" y2="0"/>
			<line x1="25" y1="0" x2="25" y2="10"/>
			<text transform="scale(1, -1) translate(9, 20)" font-size="12">E</text>
		</g>
		<g>
			<line x1="50" y1="-5" x2="50" y2="5"/>
			<text transform="scale(1, -1)" x="-10" y="18" font-size="12">Min Family Italic</text>
			<line x1="150" y1="0" x2="150" y2="200"/>
			<text transform="scale(1, -1)" x="148" y="18" font-size="12">0</text>
			<line x1="250" y1="-5" x2="250" y2="5"/>
			<text transform="scale(1, -1)" x="248" y="18" font-size="12">1</text>
			<line x1="350" y1="-5" x2="350" y2="5"/>
			<text transform="scale(1, -1)" x="310" y="18" font-size="12">Max Family Italic</text>
		</g>
		<line x1="350" y1="0" x2="350" y2="200" stroke-dasharray="5, 5"/>
		<line x1="50" y1="0" x2="50" y2="200" stroke-dasharray="5, 5"/>
		<line x1="0" y1="100" x2="400" y2="100" stroke-dasharray="5, 5"/>
		<text transform="scale(1, -1)" x="405" y="-95">Check oblique</text>
		<line x1="250" y1="0" x2="350" y2="50"/>
		<line x1="250" y1="50" x2="50" y2="150"/>
		<circle cx="250" cy="50" r="5" fill="white"/>
		<circle cx="150" cy="100" r="5" fill="black"/>
	</g>
</svg>