<svg xmlns="http://www.w3.org/2000/svg" version="1.1" width="600" height="375">
	<rect x="0" y="0" width="100%" height="100%" fill="none" stroke="black"/>
	<g transform="scale(1, -1) translate(75, -225)" stroke="black" font-family="Times">
		<line x1="0" y1="0" x2="0" y2="175"/>
		<line x1="0" y1="0" x2="400" y2="0"/>
		<text transform="scale(1, -1) translate(210, 100)" font-size="24">Oblique</text>
		<text transform="scale(1, -1) rotate(-90) translate(50, -25)" font-size="24">Distance</text>
		<g transform="translate(50, -50)">
			<line x1="0" y1="0" x2="0" y2="10"/>
			<line x1="0" y1="0" x2="50" y2="0"/>
			<line x1="50" y1="0" x2="50" y2="10"/>
			<text transform="scale(1, -1) translate(21, 20)" font-size="12">A</text>
		</g>
		<g transform="translate(150, -50)">
			<line x1="0" y1="0" x2="0" y2="10"/>
			<line x1="0" y1="0" x2="50" y2="0"/>
			<line x1="50" y1="0" x2="50" y2="10"/>
			<text transform="scale(1, -1) translate(21, 20)" font-size="12">B</text>
		</g>
		<g transform="translate(250, -50)">
			<line x1="0" y1="0" x2="0" y2="10"/>
			<line x1="0" y1="0" x2="100" y2="0"/>
			<line x1="100" y1="0" x2="100" y2="10"/>
			<text transform="scale(1, -1) translate(48, 20)" font-size="12">C</text>
		</g>
		<g>
			<line x1="50" y1="-5" x2="50" y2="5"/>
			<text transform="scale(1, -1)" x="-10" y="18" font-size="12">Min Family Oblique</text>
			<line x1="200" y1="0" x2="200" y2="175"/>
			<text transform="scale(1, -1)" x="188" y="18" font-size="12">0deg</text>
			<line x1="350" y1="-5" x2="350" y2="5"/>
			<text transform="scale(1, -1)" x="300" y="18" font-size="12">Max Family Oblique</text>
		</g>
		<line x1="350" y1="0" x2="350" y2="175" stroke-dasharray="5, 5"/>
		<line x1="50" y1="0" x2="50" y2="175" stroke-dasharray="5, 5"/>
		<line x1="0" y1="75" x2="400" y2="75" stroke-dasharray="5, 5"/>
		<text transform="scale(1, -1)" x="405" y="-70">Check italic</text>
		<line x1="200" y1="0" x2="350" y2="75"/>
		<line x1="200" y1="75" x2="50" y2="150"/>
		<circle cx="200" cy="75" r="5" fill="white"/>
	</g>
</svg>