<!-- vim: set expandtab ts=2 sw=2 tw=80: -->
<svg xmlns="http://www.w3.org/2000/svg"
  xmlns:xlink="http://www.w3.org/1999/xlink"
  width="100%" height="100%" viewBox="0 0 500 518">
  <defs>
    <style type="text/css">
    svg {
      font-size: 19px;
      font-family: sans-serif;
    }

    /*
     * Line work
     */
    .tick {
      stroke: black;
      stroke-width: 1;
      fill: none;
    }
    .arrowLine {
      stroke: black;
      stroke-width: 1.5;
      marker-end: url(#arrow);
      fill: none;
    }
    .bracket {
      stroke: black;
      stroke-width: 1.5;
      fill: none;
    }
    .activeSpan  {
      fill: paleturquoise;
      stroke: black;
    }
    .tLine {
      stroke: blue;
      stroke-width: 4;
      stroke-dasharray: 3 10;
      stroke-linecap: round;
    }
    .tLineLabel {
      fill: blue;
      font-size: 35px;
      font-style: italic;
    }
    .tLineNum {
      fill: blue;
      font-size: 15px;
      font-style: italic;
    }

    /* Text labels */
    .exampleLabel {
      font-size: 1.5em;
    }
    .tickLabel {
      font-size: 0.8em;
      text-anchor: middle;
    }
    .timeLabel {
      text-anchor: middle;
    }
    .regionLabel {
      text-anchor: middle;
    }
    .animationLabel {
      text-anchor: start;
      font-size: 15px;
    }
    .startTimeLabel {
      text-anchor: start;
      font-size: 17px;
      font-style: italic;
      fill: red;
    }
    .action {
      fill: #FF4500;
      font-size: 25px;
      font-style: italic;
    }
    text.executionBlock {
      font-size: 25px;
    }
    </style>

    <!-- Arrows -->
    <style type="text/css">
      .blackArrowHead {
        fill: black;
        stroke: none;
      }
    </style>
    <marker id="arrow" viewBox="0 -5 10 10" orient="auto" markerWidth="5"
      markerHeight="5">
      <path d="M0-5l10 5l-10 5z" class="blackArrowHead"/>
    </marker>

    <!-- Star -->
    <style type="text/css">
      .startTimeStar {
        stroke: red;
        stroke-linecap: round;
        stroke-width: 2;
        fill: none;
      }
    </style>
    <path d="M-3.5-3.5l7 7M3.5-3.5l-7 7M0-5v10M-5 0h10"
      class="startTimeStar" id="star"/>
  </defs>
  <!-- Timeline -->
  <g transform="translate(10 15)">
    <text y="0.1em">Timeline</text>
    <g transform="translate(0 20)">
      <line x2="480" class="arrowLine"/>
      <path d="M0-5v10m120-10v10m120-10v10m120-10v10" class="tick"/>
      <g class="tickLabel">
        <text x="0" y="1.3em">0</text>
        <text x="120" y="1.3em">1</text>
        <text x="240" y="1.3em">2</text>
        <text x="360" y="1.3em">3</text>
      </g>
    </g>
  </g>
  <!-- A -->
  <g transform="translate(130 140)">
    <rect y="30" width="240" height="50" class="activeSpan"/>
    <path d="M0 0h360" class="arrowLine"/>
    <path d="M0-5v10m120-10v10m120-10v10" class="tick"/>
    <text y="-27">Player current time</text>
    <g transform="translate(0 20)" class="tickLabel">
      <text x="0">0</text>
      <text x="120">1</text>
      <text x="240">2</text>
    </g>
    <use xlink:href="#star"/>
    <text x="5" y="-5" class="startTimeLabel">start time = 1s</text>
    <text x="15" y="60" class="animationLabel">Source content</text>
  </g>
  <!-- Seeked result -->
  <g transform="translate(70 375)">
    <rect y="90" width="240" height="50" class="activeSpan"/>
    <path d="M0 0h360" class="arrowLine"/>
    <path d="M0-5v10m120-10v10m120-10v10" class="tick"/>
    <text y="-30">Player current time&#x2032;</text>
    <g transform="translate(0 20)" class="tickLabel">
      <text x="0">0</text>
      <text x="120">1</text>
    </g>
    <use x="60" xlink:href="#star"/>
    <text x="65" y="-8" class="startTimeLabel">start time = 1s</text>
    <text x="15" y="120" class="animationLabel">Source content</text>
    <path d="M2 25s0 7 7 7h14s7 0 7 7c0 0 0-7 7-7h14s7 0 7-7"
      class="bracket"/>
    <text x="30" y="60" class="regionLabel">time drift<tspan
      x="30" dy="1em">= -0.5s</tspan></text>
  </g>
  <!-- Dotted 't' line -->
  <g transform="translate(310 20)">
    <path d="M0 0v495" class="tLine"/>
    <text x="10" y="485" class="tLineLabel">t</text>
    <text x="5" y="30" class="tLineNum">2.5</text>
    <text x="5" y="135" class="tLineNum">1.5</text>
    <text x="5" y="370" class="tLineNum">2</text>
  </g>
  <!-- Seek -->
  <g transform="translate(10 250)">
    <rect width="325" height="55" fill="white" stroke="black"/>
    <text x="15" y="37" class="executionBlock">&#x21d2; <tspan
      class="action">Seek current time to 2s</tspan></text>
  </g>
</svg>
