<!-- vim: set expandtab ts=2 sw=2 tw=80: -->
<svg xmlns="http://www.w3.org/2000/svg" width="100%" height="100%"
  xmlns:xlink="http://www.w3.org/1999/xlink"
  viewBox="0 0 600 330">
  <defs>
    <style type="text/css">
    svg {
      font-size: 19px;
      font-family: sans-serif;
    }

    /*
     * Line work
     */
    .line, .arrowLine, .dottedArrow, .doubleArrowLine {
      stroke: black;
      stroke-width: 1.5;
      fill: none;
    }
    .arrowLine, .dottedArrow {
      marker-end: url(#arrow);
    }
    .dottedArrow {
      stroke-dasharray: 4 4;
      stroke-width: 2;
    }
    .doubleArrowLine {
      marker-start: url(#reverseArrow);
      marker-end: url(#arrow);
    }

    /*
     * Animation spans
     */
    .activeSpan  {
      fill: paleturquoise;
      stroke: black;
    }
    .dashLine {
      fill: none;
      stroke: red;
      stroke-dasharray: 3 6;
      stroke-width: 2;
      stroke-linecap: round;
    }

    /*
     * Text labels
     */
    .documentTimelineLabel {
      font-size: 0.8em;
    }
    .timeLabel {
      text-anchor: middle;
      font-size: 0.8em;
    }
    .localTimelineLabel {
      font-size: 0.7em;
    }
    .localTimelineTick {
      font-size: 0.6em;
      text-anchor: middle;
    }
    .legendText {
      font-size: 0.7em;
    }

    /*
     * Time space lines
     */
    .itemTime {
      stroke: red;
      stroke-width: 3;
      fill: none;
      stroke-linecap: round;
    }
    .itemTimeMask {
      stroke: white;
      stroke-width: 7;
      fill: none;
      stroke-linecap: round;
    }
    .activeTime {
      stroke: navy;
      stroke-width: 4;
      fill: none;
      stroke-linecap: round;
      stroke-dasharray: 1 10;
    }
    .iterationTime, .iterationTimeDotted {
      stroke: green;
      stroke-width: 3;
      fill: none;
      stroke-linecap: round;
      stroke-linejoin: round;
    }
    .iterationTimeDotted {
      stroke-dasharray: 3 6;
    }
    .excludedPoint {
      fill: none;
      stroke: green;
      stroke-width: 2;
    }
    .includedPoint {
      fill: green;
      stroke: green;
      stroke-width: 2;
    }
    </style>

    <!-- Arrows -->
    <style type="text/css">
      .blackArrowHead {
        fill: black;
        stroke: none;
      }
    </style>
    <marker id="arrow" viewBox="0 -5 10 10" orient="auto" markerWidth="5"
      markerHeight="5">
      <path d="M0-5l10 5l-10 5z" class="blackArrowHead"/>
    </marker>
    <marker id="reverseArrow" viewBox="-10 -5 10 10" orient="auto"
      markerWidth="5" markerHeight="5">
      <path d="M0-5l-10 5l10 5z" class="blackArrowHead"/>
    </marker>

    <!-- Star -->
    <style type="text/css">
      .startTimeStar {
        stroke: red;
        stroke-linecap: round;
        stroke-width: 2;
        fill: none;
      }
    </style>
    <path d="M-3.5-3.5l7 7M3.5-3.5l-7 7M0-5v10M-5 0h10"
      class="startTimeStar" id="star"/>
  </defs>
  <!-- Inherited timeline -->
  <g>
    <text x="43" y="1em" class="documentTimelineLabel">Inherited time</text>
    <line x1="40" x2="95%" y1="22" y2="22" class="arrowLine"/>
    <path d="M40 20v4" class="line"/>
    <text x="40" y="3em" class="localTimelineTick">0</text>
  </g>
  <!-- A single animation -->
  <g transform="translate(155 20)">
    <!-- Text labels -->
    <g transform="translate(0 55)">
      <text class="timeLabel">start time</text>
      <text x="75" class="timeLabel" y="-1.2em">start of
                       <tspan x="75" dy="0.9em">active</tspan>
                       <tspan x="75" dy="0.9em">interval</tspan></text>
      <text x="325" class="timeLabel">end time</text>
    </g>
    <!-- Arrows -->
    <g transform="translate(0 70)">
      <path d="M0 0v30" class="dottedArrow"/>
      <path d="M75 0v30" class="dottedArrow"/>
      <path d="M325 0v30" class="dottedArrow"/>
    </g>
    <!-- Animation shaded areas -->
    <g transform="translate(0 120)">
      <line y2="100" class="dashLine"/>
      <rect x="75" width="250" height="100" class="activeSpan"/>
      <use xlink:href="#star"/>
    </g>
    <!-- Local timeline -->
    <g transform="translate(-65 220)">
      <text y="-0.8em" transform="rotate(-90)" class="localTimelineLabel">
        Time space time</text>
      <path d="M0 20v-150" class="doubleArrowLine"/>
      <path d="M-2 0h4M-2-40h4M-2-80h4M-2-120h4" class="line"/>
      <text y="1em" transform="rotate(-90)" class="localTimelineTick">
        0
        <tspan x="40">1</tspan>
        <tspan x="80">2</tspan>
        <tspan x="120">3</tspan>
      </text>
    </g>
    <!-- Time space time -->
    <g transform="translate(0 220)">
      <!-- Item time -->
      <path d="M270-108l80-32" class="itemTimeMask"/>
      <path d="M-25 10l375-150" class="itemTime"/>
      <!-- Active time -->
      <path d="M-25 0h100l250-100h25" class="activeTime"/>
      <!-- Iteration time solid parts -->
      <path d="M-25 0h100l100-40m0 40l100-40m0 40l50-20h25"
        class="iterationTime" mask="url(#excludedEndPoints)"/>
      <path d="M175-40v40m100-40v40" class="iterationTimeDotted"
        mask="url(#excludedEndPoints)"/>
      <!-- End-points to demonstrate end-point exlcusive timing -->
      <circle cx="175" cy="-40" r="4" class="excludedPoint"/>
      <circle cx="175" cy="0" r="3" class="includedPoint"/>
      <circle cx="275" cy="-40" r="4" class="excludedPoint"/>
      <circle cx="275" cy="0" r="3" class="includedPoint"/>
      <mask id="excludedEndPoints">
        <rect x="-30" y="-110" width="390" height="120" fill="white"/>
        <circle cx="175" cy="-40" r="4" fill="black" stroke="none"/>
        <circle cx="275" cy="-40" r="4" fill="black" stroke="none"/>
      </mask>
    </g>
    <!-- Legend -->
    <g transform="translate(100 255)">
      <path d="M0 0h40" class="itemTime"/>
      <text x="50px" y="0.4em" class="legendText">Item time</text>
      <g transform="translate(0 18)">
        <path d="M0 0h40" class="activeTime"/>
        <text x="50px" y="0.4em" class="legendText">Active time</text>
      </g>
      <g transform="translate(0 36)">
        <path d="M0 0h40" class="iterationTime"/>
        <text x="50px" y="0.4em" class="legendText">Iteration time</text>
      </g>
    </g>
  </g>
</svg>
