<!-- vim: set expandtab ts=2 sw=2 tw=80: -->
<svg xmlns="http://www.w3.org/2000/svg" width="100%" height="100%"
  xmlns:xlink="http://www.w3.org/1999/xlink"
  viewBox="0 0 600 312">
  <defs>
    <style type="text/css">
    svg {
      font-size: 19px;
      font-family: sans-serif;
    }

    /*
     * Line work
     */
    .line, .arrowLine {
      stroke: black;
      stroke-width: 1.5;
      fill: none;
    }
    .arrowLine {
      marker-end: url(#arrow);
    }
    .bracket, .stateBracket {
      stroke: black;
      stroke-width: 1.5;
      fill: none;
    }
    .stateBracket {
      stroke: navy;
      stroke-width: 2;
    }

    /*
     * Animation spans
     */
    .activeSpan  {
      fill: paleturquoise;
      stroke: black;
    }
    .fillSpan  {
      fill: lightgrey;
      stroke: black;
    }

    /*
     * Text labels
     */
    .regionLabel, .stateLabel {
      text-anchor: middle;
    }
    .stateLabel {
      fill: navy;
    }
    </style>

    <!-- Arrows -->
    <style type="text/css">
      .blackArrowHead {
        fill: black;
        stroke: none;
      }
    </style>
    <marker id="arrow" viewBox="0 -5 10 10" orient="auto" markerWidth="5"
      markerHeight="5">
      <path d="M0-5l10 5l-10 5z" class="blackArrowHead"/>
    </marker>

    <!-- Star -->
    <style type="text/css">
      .startTimeStar {
        stroke: red;
        stroke-linecap: round;
        stroke-width: 2;
        fill: none;
      }
    </style>
    <path d="M-3.5-3.5l7 7M3.5-3.5l-7 7M0-5v10M-5 0h10"
      class="startTimeStar" id="star"/>

    <!-- Fade out effect -->
    <mask id="fadeout" maskContentUnits="objectBoundingBox">
      <rect x="-0.05" y="-0.05" width="1.1" height="1.1"
        fill="url(#fadeoutGrad)"/>
    </mask>
    <linearGradient id="fadeoutGrad">
      <stop offset="0" stop-color="white" stop-opacity="1"/>
      <stop offset="0.35" stop-color="white" stop-opacity="1"/>
      <stop offset="0.9" stop-color="white" stop-opacity="0"/>
    </linearGradient>
  </defs>
  <!-- Timeline -->
  <g>
    <text x="1em" y="1.1em">Time</text>
    <line x1="3.5em" x2="97%" y1="0.8em" y2="0.8em" class="arrowLine"/>
  </g>
  <g transform="translate(50 90)">
    <!-- Delay -->
    <g transform="translate(40)">
      <text x="55" y="-35" class="regionLabel">start delay</text>
      <path d="M2-7s0-10 10-10h33s10 0 10-10c0 0 0 10 10 10h33s10 0 10 10"
        class="bracket"/>
      <use xlink:href="#star"/>
    </g>
    <!-- Active interval -->
    <g transform="translate(150)">
      <text x="100" y="-35" class="regionLabel">active interval</text>
      <path d="M2-7s0-10 10-10h78s10 0 10-10c0 0 0 10 10 10h78s10 0 10 10"
        class="bracket"/>
      <rect width="200" height="80" class="activeSpan"/>
    </g>
    <!-- Backwards fill -->
    <g transform="translate(350)">
      <text x="75" y="-35" class="regionLabel">fill: forwards</text>
      <path d="M2-7s0-10 10-10h53s10 0 10-10c0 0 0 10 10 10h53s10 0 10 10"
        class="bracket" mask="url(#fadeout)"/>
      <rect width="150" height="80" class="fillSpan" mask="url(#fadeout)"/>
    </g>
  </g>
  <!-- States -->
  <g transform="translate(0 175)">
    <path d="M22 0s0 10 10 10h68s10 0 10 10c0 0 0-10 10-10h68s10 0 10-10"
      class="stateBracket"/>
    <text x="110" y="37" class="stateLabel">scheduled</text>
    <path d="M202 0s0 10 10 10h78s10 0 10 10c0 0 0-10 10-10h78s10 0 10-10"
      class="stateBracket"/>
    <text x="300" y="37" class="stateLabel">active</text>
    <path d="M22 45s0 10 10 10h168s10 0 10 10c0 0 0-10 10-10h168s10 0 10-10"
      class="stateBracket"/>
    <text x="210" y="80" class="stateLabel">current</text>
    <path d="M202 95s0 10 10 10h153s10 0 10 10c0 0 0-10 10-10h153s10 0 10-10"
      class="stateBracket"/>
    <text x="375" y="133" class="stateLabel">in effect</text>
  </g>
</svg>
