<svg width="560" height="360" xmlns="http://www.w3.org/2000/svg" xmlns:svg="http://www.w3.org/2000/svg">
 <!-- Created with SVG-edit - http://svg-edit.googlecode.com/ -->

 <g display="inline">
  <title>BeforeScroll</title>
  <rect id="content_1" height="337.97902" width="243.97903" y="17.33334" x="14.73334" stroke-linecap="null" stroke-linejoin="null" stroke-dasharray="null" stroke="#000000" fill="#ffffff"/>
  <rect id="scrollbar_1" height="337.2028" width="12" y="17.54313" x="259.05852" stroke-linecap="null" stroke-linejoin="null" stroke-dasharray="null" stroke="#000000" fill="#ffffff"/>
  <rect fill="#b2b2b2" stroke="#000000" stroke-width="0" stroke-dasharray="null" stroke-linejoin="null" stroke-linecap="null" x="259.55852" y="17.79313" width="11" height="9" id="scrollupbutton_1"/>
  <path id="scrollup_1" d="m261.255768,24.557659l3.624207,-6.122219l3.624115,6.122219l-7.248322,0z" stroke-linecap="null" stroke-linejoin="null" stroke-dasharray="null" stroke-width="0" stroke="#000000" fill="#000000"/>
  <rect fill="#999999" stroke="#000000" stroke-width="0" stroke-dasharray="null" stroke-linejoin="null" stroke-linecap="null" x="259.62102" y="345.21672" width="11" height="9" id="scrolldownbutton_1"/>
  <path id="scrolldown_1" d="m261.88446,347.036621l3.311768,5.246918l3.311676,-5.246918l-6.623444,0z" stroke-linecap="null" stroke-linejoin="null" stroke-dasharray="null" stroke-width="0" stroke="#000000" fill="#000000"/>
  <rect id="scrollprogress_1" height="113.67133" width="11" y="30.54313" x="259.55852" stroke-linecap="null" stroke-linejoin="null" stroke-dasharray="null" stroke-width="0" stroke="#000000" fill="#b2b2b2"/>
  <text fill="#000000" stroke="#000000" stroke-width="0" stroke-dasharray="null" stroke-linejoin="null" stroke-linecap="null" x="78.502662" y="42.5703" id="svg_2" font-size="24" font-family="Monospace" text-anchor="middle" xml:space="preserve" transform="matrix(0.788294, 0, 0, 0.630525, 76.1569, 9.83237)">The photo slideshow.</text>
  <line id="content_hr_1" y2="46" x2="248.23334" y1="46" x1="28.23334" stroke-linecap="null" stroke-linejoin="null" stroke-dasharray="null" stroke="#000000" fill="none"/>
  <rect fill="#ffffff" stroke="#000000" stroke-width="null" stroke-dasharray="null" stroke-linejoin="null" stroke-linecap="null" x="24" y="69.833331" width="226.5" height="61.833332" id="photoslideshow1"/>
  <rect fill="#ffffff" stroke="#000000" stroke-width="null" stroke-dasharray="null" stroke-linejoin="null" stroke-linecap="null" x="29.800029" y="72.288882" width="50.000001" height="56.666668" id="pic1"/>
  <rect fill="#ffffff" stroke="#000000" stroke-width="null" stroke-dasharray="null" stroke-linejoin="null" stroke-linecap="null" x="84.28889" y="72" width="50.000001" height="56.666668" id="svg_8"/>
  <rect fill="#ffffff" stroke="#000000" stroke-width="null" stroke-dasharray="null" stroke-linejoin="null" stroke-linecap="null" x="138.955554" y="72" width="50.000001" height="56.666668" id="svg_9"/>
  <rect fill="#ffffff" stroke="#000000" stroke-width="null" stroke-dasharray="null" stroke-linejoin="null" stroke-linecap="null" x="194.28889" y="72" width="50.000001" height="56.666668" id="svg_11"/>
  <rect fill="#ffffff" stroke="#000000" stroke-width="null" stroke-dasharray="null" stroke-linejoin="null" stroke-linecap="null" x="18.538895" y="177.038894" width="226.5" height="61.833332" id="slideShowContent"/>
  <rect fill="#ffffff" stroke="#000000" stroke-width="null" stroke-dasharray="null" stroke-linejoin="null" stroke-linecap="null" x="19" y="179.994444" width="13.500004" height="56.666668" id="svg_13"/>
  <rect fill="#ffffff" stroke="#000000" stroke-width="null" stroke-dasharray="null" stroke-linejoin="null" stroke-linecap="null" x="42.327785" y="180" width="50.000001" height="56.666668" id="svg_14"/>
  <rect fill="#ffffff" stroke="#000000" stroke-width="null" stroke-dasharray="null" stroke-linejoin="null" stroke-linecap="null" x="96.494449" y="179.705563" width="50.000001" height="56.666668" id="svg_15"/>
  <rect fill="#ffffff" stroke="#000000" stroke-width="null" stroke-dasharray="null" stroke-linejoin="null" stroke-linecap="null" x="150.827785" y="180.205563" width="50.000001" height="56.666668" id="pic4"/>
  <path fill="#ffffff" stroke="#000000" stroke-width="null" stroke-dasharray="null" stroke-linejoin="null" stroke-linecap="null" d="m36.823891,131.191299l0,0c0,-4.093994 10.038483,-7.412811 22.416615,-7.412811l10.189289,0l0,0l48.90448,0l91.690292,0c5.945633,0 11.649292,0.781029 15.848907,2.170952c4.203308,1.390411 6.567276,3.275597 6.567276,5.241859l0,18.531113l0,0l0,11.118683l0,0c0,4.093826 -10.034607,7.412781 -22.416183,7.412781l-91.690292,0l-63.888733,18.848358l14.984253,-18.848358l-10.189289,0c-12.378132,0 -22.416615,-3.318954 -22.416615,-7.412781l0,0l0,-11.118683l0,0l0,-18.531113z" id="description"/>
  <text fill="#000000" stroke="#000000" stroke-width="0" stroke-dasharray="null" stroke-linejoin="null" stroke-linecap="null" x="226.144926" y="217.129545" id="svg_18" font-size="24" font-family="Monospace" text-anchor="middle" xml:space="preserve" transform="matrix(0.347141, 0, 0, 0.440207, 57.6295, 55.0943)">This slideshow will related with time base.</text>
  <rect id="svg_1" fill="#ffffff" stroke="#000000" stroke-width="null" stroke-dasharray="null" stroke-linejoin="null" stroke-linecap="null" x="25.930252" y="277.448768" width="226.5" height="61.833332"/>
  <rect id="svg_3" fill="#ffffff" stroke="#000000" stroke-width="null" stroke-dasharray="null" stroke-linejoin="null" stroke-linecap="null" x="31.730281" y="279.904318" width="50.000001" height="56.666668"/>
  <rect id="svg_4" fill="#ffffff" stroke="#000000" stroke-width="null" stroke-dasharray="null" stroke-linejoin="null" stroke-linecap="null" x="86.219142" y="279.615437" width="50.000001" height="56.666668"/>
  <rect id="svg_5" fill="#ffffff" stroke="#000000" stroke-width="null" stroke-dasharray="null" stroke-linejoin="null" stroke-linecap="null" x="140.885806" y="279.615437" width="50.000001" height="56.666668"/>
  <rect id="svg_6" fill="#ffffff" stroke="#000000" stroke-width="null" stroke-dasharray="null" stroke-linejoin="null" stroke-linecap="null" x="196.219142" y="279.615437" width="50.000001" height="56.666668"/>
  <rect id="svg_41" fill="#ffffff" stroke="#000000" stroke-width="null" stroke-dasharray="null" stroke-linejoin="null" stroke-linecap="null" x="211.000003" y="179.994444" width="34.000009" height="56.666668"/>
 </g>
 <g display="inline">
  <title>AfterScroll</title>
  <rect height="337.97902" width="243.97903" y="17.632705" x="284.459643" stroke-linecap="null" stroke-linejoin="null" stroke-dasharray="null" stroke="#000000" fill="#ffffff" id="svg_19"/>
  <rect height="337.2028" width="12" y="17.842495" x="528.784823" stroke-linecap="null" stroke-linejoin="null" stroke-dasharray="null" stroke="#000000" fill="#ffffff" id="svg_20"/>
  <rect fill="#b2b2b2" stroke="#000000" stroke-width="0" stroke-dasharray="null" stroke-linejoin="null" stroke-linecap="null" x="529.284823" y="18.092495" width="11" height="9" id="svg_21"/>
  <rect fill="#999999" stroke="#000000" stroke-width="0" stroke-dasharray="null" stroke-linejoin="null" stroke-linecap="null" x="529.347323" y="345.516085" width="11" height="9" id="svg_22"/>
  <path d="m531.610718,347.335938l3.311768,5.246918l3.311768,-5.246918l-6.623535,0z" stroke-linecap="null" stroke-linejoin="null" stroke-dasharray="null" stroke-width="0" stroke="#000000" fill="#000000" id="svg_23"/>
  <rect height="113.67133" width="11" y="109.509164" x="529.284823" stroke-linecap="null" stroke-linejoin="null" stroke-dasharray="null" stroke-width="0" stroke="#000000" fill="#b2b2b2" id="svg_24"/>
  <text fill="#000000" stroke="#000000" stroke-width="0" stroke-dasharray="null" stroke-linejoin="null" stroke-linecap="null" x="420.667258" y="43.045087" font-size="24" font-family="Monospace" text-anchor="middle" xml:space="preserve" transform="matrix(0.788294, 0, 0, 0.630525, 76.1569, 9.83237)" id="svg_25">The photo slideshow.</text>
  <line y2="46.299365" x2="517.959643" y1="46.299365" x1="297.959643" stroke-linecap="null" stroke-linejoin="null" stroke-dasharray="null" stroke="#000000" fill="none" id="svg_26"/>
  <rect fill="#ffffff" stroke="#000000" stroke-width="null" stroke-dasharray="null" stroke-linejoin="null" stroke-linecap="null" x="293.726303" y="70.132697" width="226.5" height="61.833332" id="svg_27"/>
  <rect fill="#ffffff" stroke="#000000" stroke-width="null" stroke-dasharray="null" stroke-linejoin="null" stroke-linecap="null" x="299.526332" y="72.588247" width="50.000001" height="56.666668" id="svg_28"/>
  <rect fill="#ffffff" stroke="#000000" stroke-width="null" stroke-dasharray="null" stroke-linejoin="null" stroke-linecap="null" x="354.015193" y="72.299365" width="50.000001" height="56.666668" id="svg_29"/>
  <rect fill="#ffffff" stroke="#000000" stroke-width="null" stroke-dasharray="null" stroke-linejoin="null" stroke-linecap="null" x="408.681857" y="72.299365" width="50.000001" height="56.666668" id="svg_30"/>
  <rect fill="#ffffff" stroke="#000000" stroke-width="null" stroke-dasharray="null" stroke-linejoin="null" stroke-linecap="null" x="464.015193" y="72.299365" width="50.000001" height="56.666668" id="svg_31"/>
  <rect fill="#ffffff" stroke="#000000" stroke-width="null" stroke-dasharray="null" stroke-linejoin="null" stroke-linecap="null" x="293.765198" y="177.338259" width="226.5" height="61.833332" id="svg_32"/>
  <rect fill="#ffffff" stroke="#000000" stroke-width="null" stroke-dasharray="null" stroke-linejoin="null" stroke-linecap="null" x="299.565227" y="179.79381" width="50.000001" height="56.666668" id="svg_33"/>
  <rect fill="#ffffff" stroke="#000000" stroke-width="null" stroke-dasharray="null" stroke-linejoin="null" stroke-linecap="null" x="354.054088" y="179.504928" width="50.000001" height="56.666668" id="svg_34"/>
  <rect fill="#ffffff" stroke="#000000" stroke-width="null" stroke-dasharray="null" stroke-linejoin="null" stroke-linecap="null" x="408.720752" y="179.504928" width="50.000001" height="56.666668" id="svg_35"/>
  <rect fill="#ffffff" stroke="#000000" stroke-width="null" stroke-dasharray="null" stroke-linejoin="null" stroke-linecap="null" x="464.054088" y="179.504928" width="50.000001" height="56.666668" id="svg_36"/>
  <path fill="#ffffff" stroke="#000000" stroke-width="null" stroke-dasharray="null" stroke-linejoin="null" stroke-linecap="null" d="m306.550201,131.490692l0,0c0,-4.094032 10.038483,-7.412849 22.416595,-7.412849l10.189301,0l0,0l48.90448,0l91.690308,0c5.945618,0 11.649292,0.781029 15.848877,2.170952c4.203308,1.390411 6.567291,3.27562 6.567291,5.241898l0,18.531113l0,0l0,11.118683l0,0c0,4.093826 -10.034607,7.412781 -22.416168,7.412781l-91.690308,0l-63.888733,18.848358l14.984253,-18.848358l-10.189301,0c-12.378113,0 -22.416595,-3.318954 -22.416595,-7.412781l0,0l0,-11.118683l0,0l0,-18.531113z" id="svg_37"/>
  <text fill="#000000" stroke="#000000" stroke-width="0" stroke-dasharray="null" stroke-linejoin="null" stroke-linecap="null" x="999.297527" y="195.093016" font-size="24" font-family="Monospace" text-anchor="middle" xml:space="preserve" transform="matrix(0.347141, 0, 0, 0.440207, 57.6295, 55.0943)" id="svg_38">After scroll, This slideshow will</text>
  <text fill="#000000" stroke="#000000" stroke-width="0" stroke-dasharray="null" stroke-linejoin="null" stroke-linecap="null" x="1000.215832" y="236.857482" font-size="24" font-family="Monospace" text-anchor="middle" xml:space="preserve" transform="matrix(0.347141, 0, 0, 0.440207, 57.6295, 55.0943)" id="svg_39">start automatically without scroll.</text>
  <path d="m531.665833,24.350451l3.624146,-6.122221l3.624146,6.122221l-7.248291,0z" stroke-linecap="null" stroke-linejoin="null" stroke-dasharray="null" stroke-width="0" stroke="#000000" fill="#000000" id="svg_40"/>
 </g>
</svg>