<?xml version="1.0" encoding="utf-8"?>
<!DOCTYPE svg PUBLIC "-//W3C//DTD SVG 1.1//EN" "http://www.w3.org/Graphics/SVG/1.1/DTD/svg11.dtd">
<svg version="1.1"
	 xmlns="http://www.w3.org/2000/svg"
	 x="0px" y="0px" width="153px" height="121px" viewBox="-5.925 -0.774 301 242"
	 overflow="visible" enable-background="new -0.874 -0.774 295 242" xml:space="preserve">
<defs>
</defs>
<text transform="matrix(1 0 0 1 102.0234 30.9111)" font-family="'Helvetica'" font-size="36">head</text>
<text transform="matrix(1 0 0 1 112.043 223.1807)" font-family="'Helvetica'" font-size="36">foot</text>
<text transform="matrix(1 0 0 1 0 127.0459)" font-family="'Helvetica'" font-size="36">end </text>
<text transform="matrix(1 0 0 1 214.0664 127.0459)" font-family="'Helvetica'" font-size="36"> start</text>
<g>
	<g>
		
			<line fill="none" stroke="#000000" stroke-width="2" stroke-miterlimit="10" x1="214.126" y1="120.226" x2="82.126" y2="120.226"/>
		<g>
			<path d="M70.066,120.226c5.68-2.107,12.727-5.703,17.095-9.512l-3.44,9.512l3.44,9.51
				C82.793,125.927,75.746,122.331,70.066,120.226z"/>
		</g>
	</g>
</g>
<g>
	<g>
		
			<line fill="none" stroke="#FF0000" stroke-width="8" stroke-miterlimit="10" x1="142.126" y1="48.226" x2="142.126" y2="178.226"/>
		<g>
			<path fill="#FF0000" d="M142.066,192.226c-2.529-6.815-6.844-15.271-11.414-20.514l11.414,4.129l11.412-4.129
				C148.908,176.954,144.593,185.41,142.066,192.226z"/>
		</g>
	</g>
</g>
</svg>
