<?xml version="1.0" encoding="utf-8"?>
<!DOCTYPE svg PUBLIC "-//W3C//DTD SVG 1.1//EN" "http://www.w3.org/Graphics/SVG/1.1/DTD/svg11.dtd">
<svg version="1.1"
     xmlns="http://www.w3.org/2000/svg"
     x="0px" y="0px" width="153px" height="121px" viewBox="-0.925 -0.774 306 242"
     overflow="visible" enable-background="new -0.892 -0.774 306 242" xml:space="preserve">
<text transform="matrix(1 0 0 1 112.0166 30.9111)" font-family="'Helvetica'" font-size="36">end</text>
<text transform="matrix(1 0 0 1 107.042 223.1807)" font-family="'Helvetica'" font-size="36">start</text>
<text transform="matrix(1 0 0 1 0 127.0459)" font-family="'Helvetica'" font-size="36">foot </text>
<text transform="matrix(1 0 0 1 214.0488 127.0459)" font-family="'Helvetica'" font-size="36"> head</text>
<g>
  <g>
    <line fill="none" stroke="#000000" stroke-width="2" stroke-miterlimit="10" x1="142.108" y1="192.226" x2="142.108" y2="60.226"/>
    <g>
      <path d="M142.049,48.226c2.107,5.68,5.703,12.727,9.512,17.095l-9.512-3.44l-9.51,3.44
	       C136.348,60.952,139.943,53.905,142.049,48.226z"/>
    </g>
  </g>
</g>
<g>
  <g>
    <line fill="none" stroke="#FF0000" stroke-width="8" stroke-miterlimit="10" x1="214.108" y1="120.226" x2="84.108" y2="120.226"/>
    <g>
      <path fill="#FF0000" d="M70.049,120.226c6.815-2.529,15.272-6.844,20.514-11.414l-4.128,11.414l4.128,11.412
			      C85.321,127.067,76.864,122.752,70.049,120.226z"/>
    </g>
  </g>
</g>
</svg>
