<?xml version="1.0" encoding="utf-8"?>
<!DOCTYPE svg PUBLIC "-//W3C//DTD SVG 1.1//EN" "http://www.w3.org/Graphics/SVG/1.1/DTD/svg11.dtd">
<svg version="1.1"
     xmlns="http://www.w3.org/2000/svg"
     x="0px" y="0px" width="153px" height="121px" viewBox="-0.925 -0.774 306 242"
     overflow="visible" enable-background="new -0.853 -0.774 305 242" xml:space="preserve">
<text transform="matrix(1 0 0 1 132.0557 30.9111)" font-family="'Helvetica'" font-size="36">end</text>
<text transform="matrix(1 0 0 1 127.0811 223.1807)" font-family="'Helvetica'" font-size="36">start</text>
<text transform="matrix(1 0 0 1 0 127.0459)" font-family="'Helvetica'" font-size="36">head </text>
<text transform="matrix(1 0 0 1 234.0869 127.0459)" font-family="'Helvetica'" font-size="36"> foot</text>
<g>
  <g>
    <line fill="none" stroke="#000000" stroke-width="2" stroke-miterlimit="10" x1="162.147" y1="192.226" x2="162.147" y2="60.226"/>
    <g>
      <path d="M162.088,48.226c2.107,5.68,5.703,12.727,9.512,17.095l-9.512-3.44l-9.51,3.44
	       C156.387,60.952,159.982,53.905,162.088,48.226z"/>
    </g>
  </g>
</g>
<g>
  <g>
    <line fill="none" stroke="#FF0000" stroke-width="8" stroke-miterlimit="10" x1="90.147" y1="120.226" x2="219.147" y2="120.226"/>
    <g>
      <path fill="#FF0000" d="M234.088,120.226c-6.815,2.529-15.271,6.844-20.514,11.414l4.128-11.414l-4.128-11.412
			      C218.816,113.384,227.272,117.699,234.088,120.226z"/>
    </g>
  </g>
</g>
</svg>
