<svg xmlns="http://www.w3.org/2000/svg" version="1.1" width="600" height="450">
	<rect x="0" y="0" width="100%" height="100%" fill="none" stroke="black"/>
	<g transform="scale(1, -1) translate(75, -300)" stroke="black" font-family="Times">
		<line x1="0" y1="0" x2="0" y2="250"/>
		<line x1="0" y1="0" x2="500" y2="0"/>
		<text transform="scale(1, -1) translate(210, 100)" font-size="24">Stretch</text>
		<text transform="scale(1, -1) rotate(-90) translate(100, -25)" font-size="24">Distance</text>
		<g transform="translate(50, -50)">
			<line x1="0" y1="0" x2="0" y2="10"/>
			<line x1="0" y1="0" x2="25" y2="0"/>
			<line x1="25" y1="0" x2="25" y2="10"/>
			<text transform="scale(1, -1) translate(9, 20)" font-size="12">A</text>
		</g>
		<g transform="translate(100, -50)">
			<line x1="0" y1="0" x2="0" y2="10"/>
			<line x1="0" y1="0" x2="100" y2="0"/>
			<line x1="100" y1="0" x2="100" y2="10"/>
			<text transform="scale(1, -1) translate(48, 20)" font-size="12">B</text>
		</g>
		<g transform="translate(350, -50)">
			<line x1="0" y1="0" x2="0" y2="10"/>
			<line x1="0" y1="0" x2="100" y2="0"/>
			<line x1="100" y1="0" x2="100" y2="10"/>
			<text transform="scale(1, -1) translate(48, 20)" font-size="12">C</text>
		</g>
		<g>
			<line x1="50" y1="-5" x2="50" y2="5"/>
			<text transform="scale(1, -1)" x="-10" y="18" font-size="12">Min Family Stretch</text>
			<line x1="100" y1="-5" x2="100" y2="5"/>
			<text transform="scale(1, -1)" x="95" y="18" font-size="12">50</text>
			<line x1="200" y1="-5" x2="200" y2="5"/>
			<text transform="scale(1, -1)" x="190" y="18" font-size="12">100</text>
			<line x1="150" y1="-5" x2="150" y2="5"/>
			<text transform="scale(1, -1)" x="145" y="18" font-size="12">75</text>
			<line x1="350" y1="-5" x2="350" y2="5"/>
			<text transform="scale(1, -1)" x="340" y="18" font-size="12">175</text>
			<line x1="450" y1="-5" x2="450" y2="5"/>
			<text transform="scale(1, -1)" x="410" y="18" font-size="12">Max Family Stretch</text>
		</g>
		<line x1="450" y1="0" x2="450" y2="250" stroke-dasharray="5, 5"/>
		<line x1="50" y1="0" x2="50" y2="250" stroke-dasharray="5, 5"/>
		<line x1="150" y1="0" x2="50" y2="50"/>
		<line x1="150" y1="50" x2="450" y2="200"/>
		<circle cx="150" cy="50" r="5" fill="white"/>
	</g>
</svg>