<svg version="1.1" id="Layer_1" xmlns="http://www.w3.org/2000/svg" xmlns:xlink="http://www.w3.org/1999/xlink" x="0px" y="0px"
	 width="100%" viewBox="0 0 1024 512" enable-background="new 0 0 1024 512" xml:space="preserve">
<path fill="#000000" opacity="1.000000" stroke="none" 
	d="
M220.913452,155.843903 
	C228.842041,152.634842 236.185516,148.849380 245.606918,146.998947 
	C243.840103,154.453674 241.979813,160.400864 239.240219,166.032486 
	C238.121384,168.332413 235.368729,168.414505 233.206940,169.172623 
	C202.168991,180.057495 172.021469,192.872162 144.016510,210.324020 
	C140.198029,212.703613 136.485153,215.258469 133.239639,218.404526 
	C128.843445,222.666061 129.058548,225.052353 134.457733,227.922485 
	C144.457718,233.238342 154.605499,238.275558 164.624344,243.556641 
	C186.315750,254.990570 205.238129,270.218475 223.316040,286.593781 
	C226.525803,289.501282 229.984695,292.147369 233.065231,295.181488 
	C244.248840,306.196594 257.791840,306.373199 271.778961,303.387146 
	C280.179657,301.593719 286.119843,295.938110 290.699127,288.813843 
	C291.568054,287.461975 292.281097,285.558380 294.313202,285.823639 
	C296.541016,286.114410 296.164825,288.270081 296.570465,289.787506 
	C300.469696,304.373901 312.388031,310.072998 325.559540,302.782013 
	C333.243530,298.528564 338.362274,291.615387 338.670532,282.216553 
	C339.311005,262.688202 337.225220,243.316971 335.242737,223.936768 
	C333.904938,210.858551 332.225708,197.801987 332.620514,184.596588 
	C332.749084,180.295578 333.969452,176.401871 336.025330,172.729736 
	C336.910797,171.148163 337.975616,169.305176 340.125488,169.585144 
	C342.724182,169.923553 342.676208,172.390991 343.004883,174.261414 
	C343.319000,176.049103 343.248779,177.913605 343.255554,179.744675 
	C343.352692,206.084885 346.350586,232.211823 348.995148,258.365875 
	C349.881226,267.128998 350.365997,275.944916 352.291565,284.570801 
	C356.211121,302.128876 365.184875,307.858154 382.733551,304.087830 
	C389.441345,302.646667 392.360382,301.446198 396.035522,298.543213 
	C395.541962,297.917877 395.127960,297.204102 394.543396,296.681000 
	C385.205231,288.325287 382.453796,282.905975 389.230896,266.716156 
	C394.380920,254.413269 403.253113,244.761047 414.686188,237.975052 
	C423.048462,233.011703 432.053711,231.512589 441.229279,236.850693 
	C446.293274,239.796783 451.215912,242.876328 455.505768,246.870117 
	C456.839325,248.111664 458.311859,249.723572 457.342499,251.649231 
	C456.160614,253.997055 454.038757,252.681793 452.499939,252.032700 
	C441.895203,247.559433 431.572449,249.662674 421.368866,253.324768 
	C415.734070,255.347107 410.172150,257.614197 404.713287,260.072754 
	C399.603088,262.374298 399.069366,264.890198 402.081848,269.996948 
	C409.008789,281.739441 424.434814,287.850220 437.985107,284.008820 
	C447.797485,281.227142 456.891479,276.622223 466.162689,272.471924 
	C468.474152,271.437164 471.162994,269.036774 473.477173,271.072052 
	C475.572906,272.915222 473.265869,275.747498 473.054596,278.148834 
	C472.462250,284.881165 468.557739,288.304688 462.265259,290.827148 
	C443.718628,298.261902 425.453369,306.409424 407.576385,315.370239 
	C395.170105,321.588837 382.355988,325.452850 368.204254,324.536163 
	C360.554840,324.040649 354.833832,321.196625 350.673096,314.843170 
	C347.177643,309.505615 345.020691,303.551086 342.335083,297.115936 
	C339.801483,302.807251 337.799408,308.215576 334.313019,312.819336 
	C324.554565,325.705261 318.331390,325.376740 303.106537,323.904999 
	C298.848419,323.493408 295.768250,320.156891 293.311127,316.651245 
	C291.798462,314.493073 290.389679,312.262024 288.984253,310.139191 
	C287.013733,310.183472 286.131958,311.592560 285.279144,312.688110 
	C276.981262,323.347778 265.540253,325.269318 253.035431,324.716949 
	C245.374481,324.378540 238.702454,321.886841 233.082535,316.718597 
	C223.764130,308.149109 214.624268,299.382111 205.191925,290.941071 
	C199.295563,285.664368 193.115005,280.673309 185.678467,276.329773 
	C185.933502,282.390442 186.179855,287.651978 185.491531,292.960785 
	C183.792389,306.065308 176.660965,314.494385 164.410721,318.949646 
	C155.393173,322.229187 145.980484,323.755188 136.518936,324.044983 
	C121.055054,324.518646 105.516159,325.588837 90.118568,323.238800 
	C83.796577,322.273865 77.628899,320.297943 71.035378,318.695526 
	C71.331421,326.009155 71.885605,333.033325 69.232353,339.707581 
	C67.720856,343.509766 66.953346,348.214935 62.030930,349.090027 
	C56.826183,350.015320 53.726589,346.253143 51.000320,342.644440 
	C45.241570,335.021729 42.636002,326.076172 40.760838,316.872711 
	C40.567337,315.922974 40.360073,314.976074 40.041523,313.472412 
	C32.491371,315.272614 25.374828,317.458405 19.557495,322.414642 
	C14.470796,326.748383 14.688401,332.892731 15.639130,338.675507 
	C18.901876,358.520996 22.623369,378.290955 25.906305,398.133301 
	C27.388000,407.088776 30.101454,416.077881 27.174616,425.250488 
	C26.283585,428.042938 25.480776,430.993561 22.661665,432.670227 
	C19.792103,431.309052 20.025341,428.697754 19.850149,426.551788 
	C18.006618,403.970245 13.379611,381.795319 10.154358,359.417358 
	C8.022247,344.624023 7.288438,329.965546 12.468959,315.527069 
	C15.767884,306.332764 21.634678,299.392365 29.784529,294.253601 
	C35.551991,290.617035 41.610184,287.439484 46.154514,282.096130 
	C48.794289,278.992188 51.172092,280.857361 53.243587,283.143829 
	C63.516132,294.482239 76.500023,300.930359 91.380402,303.311493 
	C106.579391,305.743591 121.955765,304.990631 137.259064,304.302887 
	C146.385956,303.892731 155.527237,303.239960 164.420044,300.715973 
	C181.782074,295.788300 185.039429,283.707855 172.311707,270.811523 
	C165.163330,263.568451 156.417099,258.691956 147.052307,255.033569 
	C137.745529,251.397873 131.282654,245.224258 126.464272,236.427460 
	C119.857285,224.365280 124.133774,212.471069 131.233032,205.238129 
	C141.050583,195.235687 153.436264,188.848694 165.526810,182.166962 
	C183.331696,172.327286 201.848083,163.940384 220.913452,155.843903 
z"/>
<path fill="#000000" opacity="1.000000" stroke="none" 
	d="
M699.533203,241.491821 
	C708.577698,251.569412 714.216736,263.250275 719.497131,276.198120 
	C724.119019,265.327972 726.116943,254.777542 727.632629,244.151932 
	C729.939514,227.978882 730.196472,211.658432 730.700012,195.357681 
	C730.909912,188.561935 733.458679,182.537323 737.497742,176.668762 
	C740.296631,179.193863 740.005005,182.121628 740.256958,184.786789 
	C743.325073,217.238266 746.713013,249.635468 755.298096,281.227753 
	C756.919189,287.193085 758.798584,293.042847 761.958130,298.402435 
	C764.438171,302.609314 767.939026,304.970673 773.015930,304.728699 
	C777.337830,304.522705 781.710754,304.843994 785.986511,304.321869 
	C796.113464,303.085205 803.410400,297.378082 808.855896,288.990570 
	C809.921143,287.349762 810.953857,285.122559 813.204163,285.300629 
	C815.995972,285.521545 815.421448,288.363129 815.720337,290.096832 
	C818.016357,303.415558 824.096252,305.738464 841.251709,303.103027 
	C850.662903,301.657257 857.278625,295.388824 862.463989,287.637848 
	C863.297668,286.391724 864.093567,285.118256 864.974060,283.906189 
	C865.659241,282.963043 866.435364,281.914917 867.775513,282.173981 
	C869.294617,282.467682 869.754272,283.816833 870.117493,285.122803 
	C870.249756,285.598480 870.256897,286.110138 870.309326,286.606659 
	C870.798645,291.239624 871.738831,295.983124 876.851501,297.366425 
	C882.499573,298.894623 888.122742,298.396973 892.598389,293.737305 
	C895.065125,291.169220 896.638428,288.054626 898.348267,285.002899 
	C899.114746,283.634888 899.380981,281.483398 901.568726,281.719482 
	C903.563171,281.934631 903.827637,283.923157 904.490906,285.410736 
	C904.762268,286.019379 905.008667,286.639130 905.273926,287.250610 
	C912.049194,302.871429 920.160706,307.321167 936.899353,304.420563 
	C939.667358,303.940887 942.451721,303.191437 945.043030,302.118591 
	C956.453186,297.394287 960.392639,290.682159 958.471680,278.548492 
	C955.169495,257.691528 951.458496,236.898972 948.201050,216.035339 
	C946.509521,205.200974 944.619141,194.358368 944.671936,183.321167 
	C944.700745,177.292709 946.613403,171.835342 949.970032,166.936859 
	C952.641296,163.038498 954.608215,163.054321 957.044189,166.901260 
	C959.804932,171.261139 962.279785,175.801025 964.936157,180.228333 
	C966.122253,182.205200 966.264893,183.954803 964.280212,185.486755 
	C956.358765,191.601212 956.572449,199.991455 957.757690,208.677048 
	C960.141174,226.143417 965.008850,243.204880 966.656921,260.765564 
	C968.185669,277.054993 965.808411,293.060394 959.773865,308.234650 
	C955.577515,318.786591 946.970947,323.298309 935.570801,324.583618 
	C919.158569,326.434052 908.757324,319.570923 902.286682,305.165833 
	C901.958557,304.435394 901.479370,303.772766 900.865967,302.731171 
	C897.781921,305.272675 896.561035,308.803680 894.424072,311.619568 
	C884.500610,324.695801 870.383850,324.377106 861.444153,310.763947 
	C861.170959,310.347809 860.857910,309.957855 860.427307,309.370026 
	C857.181274,311.052521 855.333862,313.915863 852.876038,316.045441 
	C843.540283,324.134430 832.803955,326.111481 821.134705,322.931366 
	C814.701416,321.178131 810.771545,316.020844 807.208862,310.225067 
	C804.289062,312.996918 801.919067,315.498444 799.290100,317.689240 
	C794.127869,321.991119 788.070312,324.149261 781.368958,324.354065 
	C777.373169,324.476196 773.368347,324.465912 769.371582,324.361328 
	C759.189331,324.094910 753.249878,319.897461 749.838928,310.265198 
	C745.708008,298.599609 743.852417,286.390503 741.855896,274.247284 
	C740.131714,263.760620 738.847961,253.201553 736.796082,242.564041 
	C734.571106,252.286942 732.541199,262.059509 730.079102,271.721985 
	C725.477844,289.779175 719.180725,307.020203 706.246155,321.149567 
	C702.424011,325.324707 698.239563,328.548615 693.031494,330.654846 
	C680.168884,335.856781 666.869812,339.486908 653.247925,342.005890 
	C652.920349,342.066528 652.587646,342.181213 652.263062,342.163910 
	C650.218201,342.055115 647.338562,343.414093 646.494751,340.782837 
	C645.594849,337.976685 648.702515,337.454071 650.515869,336.659332 
	C664.892456,330.358398 678.750732,323.122772 691.815125,314.389557 
	C700.077942,308.865997 707.400635,302.499908 712.423462,293.696350 
	C714.242981,290.507324 714.611572,287.768433 713.122864,284.352570 
	C708.642761,274.072876 701.644836,265.639008 694.012939,257.674469 
	C686.738647,250.083160 679.065857,242.898712 669.964172,237.488922 
	C664.685486,234.351410 663.807800,234.620560 660.898804,240.065964 
	C659.326416,243.009369 656.884766,243.046021 654.505310,242.118744 
	C646.704407,239.078644 639.215515,235.297516 633.283997,229.271362 
	C627.006042,222.893234 626.127441,205.383728 631.252930,198.072922 
	C632.996033,195.586533 635.311340,195.442566 637.899109,196.082703 
	C642.802795,197.295685 647.281616,199.530701 651.586121,202.082291 
	C669.484070,212.691666 685.537109,225.567154 699.533203,241.491821 
z"/>
<path fill="#000000" opacity="1.000000" stroke="none" 
	d="
M558.267334,327.912933 
	C563.820862,353.655731 569.327637,378.972504 574.838013,404.288513 
	C576.151489,410.322693 575.686768,415.974762 571.898804,420.962311 
	C569.913086,420.411682 569.854553,419.196472 569.649414,418.046844 
	C565.380981,394.127960 558.553467,370.807159 552.992126,347.190948 
	C549.211731,331.137909 550.637146,315.513092 555.106506,299.929657 
	C557.662415,291.017792 563.862183,285.600250 572.213806,282.383606 
	C577.767456,280.244629 583.411987,278.341614 589.081177,276.309570 
	C585.655151,271.170013 578.773193,269.783844 573.854492,273.066589 
	C571.368286,274.725861 569.164001,276.878418 566.257812,277.800903 
	C563.993347,278.519745 561.772217,278.673920 561.848694,275.219727 
	C562.067993,265.309326 573.589355,251.562302 583.258179,249.382248 
	C588.627747,248.171585 593.542725,249.058441 598.084045,251.938278 
	C605.506897,256.645508 611.467407,262.836090 616.235779,270.224487 
	C620.931091,277.499878 621.319031,285.063690 618.550354,293.139191 
	C617.158630,297.198486 614.880676,298.958282 610.524231,298.989838 
	C601.887024,299.052399 593.216919,298.632874 584.630249,300.202698 
	C578.495422,301.324249 572.760986,303.454956 567.372742,306.514709 
	C558.952759,311.296112 556.069641,318.012848 558.267334,327.912933 
z"/>
<path fill="#000000" opacity="1.000000" stroke="none" 
	d="
M996.716187,248.077393 
	C995.028748,233.945282 992.492493,220.360565 991.626282,206.579819 
	C990.992920,196.503204 994.268738,187.233704 998.013855,178.110138 
	C998.440430,177.071136 998.971680,175.950241 1000.846191,175.565887 
	C1003.278442,179.013733 1002.990479,183.334717 1003.055847,187.175903 
	C1003.415833,208.347626 1006.963562,229.191223 1009.073181,250.178940 
	C1010.335327,262.735657 1012.696838,275.269409 1012.807312,287.828918 
	C1012.910583,299.566498 1010.204773,311.236115 1006.639771,322.541687 
	C1006.177979,324.005981 1005.344971,325.525757 1003.465515,324.977600 
	C1001.375916,324.368164 1001.501770,322.389282 1001.766907,320.786438 
	C1005.818359,296.293976 999.069946,272.561554 996.716187,248.077393 
z"/>
<path fill="#000000" opacity="1.000000" stroke="none" 
	d="
M268.145752,363.934143 
	C258.599548,357.262268 258.599213,357.262054 264.881439,348.037170 
	C265.348724,347.350983 265.814362,346.663300 266.298859,345.989319 
	C269.978119,340.871185 270.565735,340.787292 275.721252,344.623047 
	C284.205719,350.935669 284.335297,351.031677 290.770142,342.352814 
	C293.149261,339.144012 294.992004,338.562805 298.437500,340.961639 
	C310.168793,349.129150 310.247345,349.501099 302.038025,361.214172 
	C299.552551,364.760437 297.320770,365.320770 293.974548,362.556213 
	C290.924164,360.035980 287.646484,357.790894 284.258911,355.268127 
	C281.553223,357.266754 280.306488,360.046234 278.580078,362.388641 
	C274.368744,368.102509 274.281799,368.154785 268.145752,363.934143 
z"/>
</svg>