<svg version="1.1" id="Layer_1" xmlns="http://www.w3.org/2000/svg" xmlns:xlink="http://www.w3.org/1999/xlink" x="0px" y="0px"
	 width="100%" viewBox="0 0 1024 592" enable-background="new 0 0 1024 592" xml:space="preserve">
<path fill="#000000" opacity="1.000000" stroke="none" 
	d="
M10.449980,593.000000 
	C8.642977,585.241211 8.800725,577.401672 8.803043,569.575989 
	C8.809858,546.577209 8.478864,523.569885 8.993631,500.581818 
	C9.619802,472.618896 11.089404,444.700745 19.589567,417.694733 
	C31.854349,378.728180 56.126854,350.143951 93.082520,332.572632 
	C96.965645,330.726318 99.394852,328.416046 100.871353,324.282196 
	C108.592812,302.663910 122.502266,285.881836 141.532928,273.182373 
	C149.846268,267.634735 158.211258,262.140411 165.903900,255.723389 
	C172.903824,249.884186 176.389694,242.682755 177.012283,233.272736 
	C178.713089,207.566422 179.027191,181.718399 183.606628,156.256500 
	C187.724014,133.363541 197.254379,113.147720 213.821976,96.601036 
	C234.701309,75.748047 257.211212,56.658623 278.969391,36.755341 
	C289.530914,27.094198 300.975922,18.367458 310.324066,7.402206 
	C311.343658,6.206229 312.376160,4.308633 314.361359,5.376334 
	C316.553406,6.555303 315.476501,8.713363 315.056061,10.329436 
	C311.942566,22.296904 306.306946,32.621655 297.286346,41.483639 
	C280.984619,57.498707 263.730927,72.425896 246.688080,87.600761 
	C234.241287,98.683350 222.117493,110.100128 210.108368,121.654091 
	C202.073257,129.384674 199.718338,139.320862 198.419800,149.623627 
	C194.640045,179.612442 194.445755,209.752411 195.441681,239.904953 
	C195.588135,244.339523 196.622330,248.817871 197.785294,253.130478 
	C200.159744,261.935730 204.577026,269.498108 214.312622,271.280090 
	C224.712234,273.183655 234.258850,270.758850 241.566147,262.521942 
	C244.655487,259.039551 247.314041,255.176208 250.187775,251.501160 
	C255.978683,244.095474 260.695251,242.783524 269.391632,246.027817 
	C272.035187,247.014008 274.685944,248.184662 277.437683,248.638626 
	C285.571045,249.980423 292.200592,247.272797 297.010101,240.473785 
	C303.868195,230.778717 306.736938,219.616013 307.570190,208.099503 
	C309.623657,179.718948 310.953339,151.286652 312.900452,122.897568 
	C314.135437,104.891907 317.512329,87.272987 324.501160,70.497910 
	C324.821350,69.729370 325.113312,68.949051 325.417297,68.173798 
	C326.170471,66.253174 326.920929,64.315697 329.624939,64.986435 
	C332.492157,65.697662 332.507721,67.883621 332.135498,70.128914 
	C330.638062,79.161804 329.965271,88.274994 329.120178,97.383629 
	C326.822144,122.152794 327.240082,146.971222 327.190918,171.787476 
	C327.171082,181.799042 327.320892,191.796890 330.383911,201.452164 
	C332.213531,207.219498 334.955688,212.436386 340.189087,215.717087 
	C342.772430,214.586441 342.935913,212.388062 343.747925,210.643982 
	C353.099792,190.557007 366.989502,174.212234 384.930389,161.363770 
	C391.640656,156.558167 399.440582,154.710373 407.717346,155.752335 
	C413.812592,156.519653 418.304901,159.581451 420.302673,165.639359 
	C422.336945,171.807831 420.657501,177.080811 416.288544,181.673553 
	C414.256836,183.809326 412.173126,184.041733 409.626984,182.398651 
	C398.708221,175.352539 388.013458,177.255417 377.778961,183.819962 
	C369.861206,188.898483 367.148834,197.933060 370.872864,205.019760 
	C374.667999,212.241791 386.092316,216.613510 393.864227,213.673477 
	C404.824890,209.527206 414.414612,203.395905 421.462921,193.812210 
	C422.960938,191.775360 424.453918,190.852371 426.896545,192.271317 
	C429.365875,193.705795 428.567047,195.552460 427.783783,197.445969 
	C415.437897,227.290710 379.286926,257.773651 342.172882,258.349640 
	C329.815125,258.541443 320.551575,253.912048 315.065094,242.540314 
	C314.640259,241.659775 314.022064,240.872513 313.434631,239.948959 
	C311.375366,241.214813 311.175323,243.356064 310.446350,245.106064 
	C307.938416,251.126511 305.059204,256.912964 301.085541,262.129211 
	C290.611420,275.878693 274.364075,279.745575 258.875671,272.121155 
	C253.420120,269.435577 251.531738,269.841492 247.949249,274.861908 
	C242.050964,283.127533 237.355118,292.239410 230.570312,299.877991 
	C222.313446,309.173920 212.329163,313.512970 199.753876,310.430450 
	C190.852158,308.248383 185.401871,302.369720 182.030075,294.260101 
	C178.872635,286.665955 177.319412,278.673828 176.685394,270.495972 
	C176.557419,268.845428 176.709427,267.150391 175.317093,265.165833 
	C164.883377,278.157959 149.832260,285.014069 136.861450,294.537079 
	C138.005554,297.065094 140.118027,296.931580 141.722412,297.470703 
	C145.856476,298.859985 149.811783,300.578491 153.446716,302.978119 
	C157.312256,305.529968 159.120300,309.100403 157.936981,313.700836 
	C154.874054,325.608612 149.743668,336.565430 142.333908,346.403320 
	C137.729797,352.516113 131.166748,354.935211 123.909294,356.355438 
	C107.381630,359.589783 91.166908,363.891113 75.633057,370.616302 
	C50.496021,381.499054 36.685307,400.874390 32.229836,427.466125 
	C28.374798,450.474213 26.551069,473.684540 25.155272,496.947815 
	C23.251509,528.677124 21.167715,560.395630 19.080553,592.559387 
	C16.299986,593.000000 13.599973,593.000000 10.449980,593.000000 
z"/>
<path fill="#000000" opacity="1.000000" stroke="none" 
	d="
M482.449982,593.000000 
	C480.491364,563.873169 480.409454,534.737915 481.430542,505.593750 
	C481.838501,493.949036 481.743958,482.296814 482.630768,470.656982 
	C485.433136,433.874420 493.227051,398.852295 517.475281,369.492767 
	C530.627075,353.568695 546.558472,341.167297 565.377197,332.636536 
	C569.311340,330.853149 571.753723,328.444275 573.194885,324.335266 
	C575.731628,317.102692 579.083191,310.217834 583.300232,303.753326 
	C588.025452,296.509827 594.030640,292.653992 603.047974,294.663177 
	C610.228882,296.263184 617.314453,298.050537 623.767639,301.683319 
	C630.032471,305.210144 631.626892,308.898193 629.668884,315.805176 
	C626.598694,326.635132 621.674133,336.593628 615.087830,345.738220 
	C610.482239,352.132721 603.883911,354.831696 596.462524,356.265594 
	C580.086975,359.429504 564.053223,363.736328 548.630554,370.244598 
	C523.032715,381.046722 508.815247,400.589264 504.391479,427.581146 
	C500.460083,451.568909 498.782227,475.787994 497.148865,500.027069 
	C495.079285,530.738159 494.430786,561.540710 491.110168,592.588257 
	C488.299988,593.000000 485.599976,593.000000 482.449982,593.000000 
z"/>
<path fill="#000000" opacity="1.000000" stroke="none" 
	d="
M856.020508,348.084198 
	C866.015198,356.109741 874.822205,353.824493 879.604675,342.274475 
	C881.594055,337.470062 884.075806,336.892426 887.607239,340.411987 
	C892.332458,345.121155 898.735962,344.766357 902.728516,339.451355 
	C906.565613,334.343292 907.744812,328.213074 908.568542,322.126923 
	C910.579407,307.269653 910.997437,292.279266 911.630676,277.320496 
	C912.586487,254.741257 911.714783,232.025497 917.597046,209.867371 
	C920.380554,199.382050 923.785217,189.134964 928.108337,179.193985 
	C928.930420,177.303833 929.386353,174.840195 932.564026,175.721863 
	C935.587280,176.560669 935.658691,178.622192 935.352783,181.163910 
	C931.787170,210.793076 932.558044,240.674545 930.222290,270.371643 
	C928.245056,295.509216 924.600586,320.337250 914.130737,343.630066 
	C910.630798,351.416565 906.655396,358.908844 900.158875,364.719666 
	C894.611572,369.681335 888.561157,372.691376 881.073792,369.220673 
	C878.638184,368.091644 877.425354,369.468445 876.001770,370.980225 
	C867.431152,380.081787 859.877136,381.602753 848.781799,376.279602 
	C846.799805,375.328705 845.452942,375.284393 843.970215,376.936768 
	C842.414368,378.670624 840.748840,380.314636 839.045349,381.905975 
	C830.020020,390.337402 819.696533,391.881012 808.629822,386.497711 
	C800.972107,382.772675 799.963501,382.989960 795.070190,389.851013 
	C789.368469,397.845581 784.732605,406.635651 777.928650,413.801453 
	C763.344971,429.160583 741.171997,428.832886 726.843567,413.234375 
	C726.514832,412.876526 726.099609,412.598114 725.546570,412.132660 
	C723.841919,413.249817 723.767273,415.177460 723.252380,416.787659 
	C718.865845,430.505066 712.339478,442.895569 701.339355,452.555115 
	C700.713440,453.104706 700.126709,453.698822 699.500793,454.248352 
	C691.822205,460.989471 683.680603,464.331543 673.577087,459.077759 
	C668.714417,456.549255 663.507935,454.664215 659.037415,451.398651 
	C655.524048,448.832214 655.451355,445.869476 659.063965,443.628876 
	C660.866699,442.510773 661.433411,441.171722 661.821167,439.265503 
	C663.552612,430.752625 663.991943,422.080048 664.494751,413.479584 
	C665.612122,394.367584 665.759827,375.199432 666.841248,356.084625 
	C668.013306,335.369629 667.212769,314.411530 673.699524,294.257202 
	C677.330444,282.975769 682.075317,272.153656 686.763611,261.300598 
	C687.560913,259.454803 688.567444,258.139862 690.932556,258.965790 
	C693.262695,259.779510 693.856567,261.165588 693.305908,263.570312 
	C688.671326,283.810760 688.877686,304.530945 687.266541,325.076080 
	C685.290344,350.275421 685.924316,375.678772 681.369934,400.677002 
	C679.245178,412.339783 675.799133,423.625031 671.742065,434.740448 
	C671.010925,436.743744 670.342346,438.769928 669.614258,440.874146 
	C684.936707,441.216125 706.255676,427.612793 712.178528,413.996826 
	C713.735291,410.417847 714.364868,406.604950 714.559753,402.819489 
	C715.723633,380.209473 716.541809,357.581116 717.777466,334.975433 
	C719.110840,310.582153 719.337524,286.007599 727.539673,262.536407 
	C729.351624,257.351562 731.406738,252.251846 733.340942,247.109558 
	C734.069336,245.172852 734.728271,243.295563 737.521484,244.010284 
	C740.302734,244.721939 740.654236,246.593872 740.282898,248.978928 
	C737.797729,264.943512 736.115417,281.009705 735.774475,297.148102 
	C735.317932,318.760254 733.462524,340.455933 737.348267,361.943848 
	C739.180603,372.076599 743.320007,381.079559 754.571289,383.597443 
	C767.680969,386.531189 780.536926,386.942444 790.342285,375.245483 
	C793.123108,371.928131 795.659790,368.406647 798.324097,364.990936 
	C804.015625,357.694305 808.890076,356.311401 817.550964,359.606750 
	C821.432922,361.083771 825.176697,362.786957 829.526123,362.727753 
	C838.714844,362.602722 844.244385,357.353027 848.154419,349.825226 
	C850.062622,346.151520 852.447876,345.518677 856.020508,348.084198 
z"/>
<path fill="#000000" opacity="1.000000" stroke="none" 
	d="
M992.646851,322.807220 
	C991.472229,293.185272 998.687012,265.959656 1011.432434,239.991440 
	C1012.465454,237.886612 1013.093933,235.531540 1016.423340,236.722824 
	C1019.775818,237.922318 1018.709656,240.171753 1018.174805,242.425308 
	C1015.783325,252.501205 1015.118591,262.821442 1014.418701,273.079285 
	C1012.448303,301.958740 1011.253296,330.894012 1009.048767,359.753510 
	C1007.481445,380.271667 1002.250549,400.065399 994.185303,419.052155 
	C993.198914,421.374329 992.484131,423.813629 988.880859,422.640381 
	C985.393616,421.504913 986.581604,418.954498 986.891296,416.891052 
	C989.240295,401.236542 990.022095,385.464050 990.684937,369.678650 
	C991.334351,354.214508 991.989868,338.750671 992.646851,322.807220 
z"/>
<path fill="#000000" opacity="1.000000" stroke="none" 
	d="
M220.775360,361.992676 
	C219.240540,359.735565 220.368393,358.238770 221.506851,356.752838 
	C226.577286,350.134857 232.044403,343.870483 237.995438,338.022583 
	C240.781509,335.284760 243.435989,334.931976 246.872223,337.156921 
	C251.621628,340.232239 255.984558,343.769012 260.564178,347.763702 
	C264.316193,343.693573 267.834778,339.744263 271.497375,335.933380 
	C277.578644,329.605865 278.399628,329.548431 285.617218,334.787964 
	C289.114777,337.326996 292.748291,339.728485 295.564850,343.086975 
	C299.980591,348.352234 300.408508,352.862732 296.864197,358.640228 
	C292.858734,365.169403 286.955383,369.794006 280.859589,374.198334 
	C278.252502,376.082001 276.261932,374.914215 274.264587,373.022949 
	C270.425781,369.387939 266.875580,365.395416 262.015533,362.519257 
	C256.866791,368.088867 251.832779,373.584045 245.781998,378.029388 
	C242.932953,380.122528 240.757263,380.462402 237.973541,377.757019 
	C232.486542,372.424377 226.676498,367.424133 220.775360,361.992676 
z"/>
</svg>