<svg width="560" height="360" xmlns="http://www.w3.org/2000/svg" xmlns:svg="http://www.w3.org/2000/svg">
 <!-- Created with SVG-edit - http://svg-edit.googlecode.com/ -->

 <g display="inline">
  <title>BeforeScroll</title>
  <rect fill="#ffffff" stroke="#000000" stroke-dasharray="null" stroke-linejoin="null" stroke-linecap="null" x="15" y="17" width="244" height="338" id="content_1"/>
  <rect fill="#ffffff" stroke="#000000" stroke-dasharray="null" stroke-linejoin="null" stroke-linecap="null" x="259" y="17" width="12" height="337" id="scrollbar_1"/>
  <rect height="9" width="11" y="18" x="259" stroke-linecap="null" stroke-linejoin="null" stroke-dasharray="null" stroke-width="0" stroke="#000000" fill="#b2b2b2" id="scrollupbutton_1"/>
  <path fill="#000000" stroke="#000000" stroke-width="0" stroke-dasharray="null" stroke-linejoin="null" stroke-linecap="null" d="m261.07059,24.37247l3.62421,-6.12222l3.62411,6.12222l-7.24832,0z" id="scrollup_1"/>
  <rect height="9" width="11" y="345" x="259" stroke-linecap="null" stroke-linejoin="null" stroke-dasharray="null" stroke-width="0" stroke="#000000" fill="#999999" id="scrolldownbutton_1"/>
  <path fill="#000000" stroke="#000000" stroke-width="0" stroke-dasharray="null" stroke-linejoin="null" stroke-linecap="null" d="m261.69928,346.85144l3.31177,5.24692l3.31168,-5.24692l-6.62344,0z" id="scrolldown_1"/>
  <rect fill="#b2b2b2" stroke="#000000" stroke-width="0" stroke-dasharray="null" stroke-linejoin="null" stroke-linecap="null" x="259" y="30" width="11" height="114" id="scrollprogress_1"/>
  <line y2="62" x2="257" y1="62" x1="15" stroke-linecap="null" stroke-linejoin="null" stroke-dasharray="null" stroke="#000000" fill="none" id="content_navigator_line_1"/>
  <circle fill="#ffffff" stroke="#000000" stroke-dasharray="null" stroke-linejoin="null" stroke-linecap="null" cx="197" cy="164" r="32" id="contentAniamtion1"/>
  <path fill="none" stroke="#000000" stroke-width="null" stroke-dasharray="null" stroke-linejoin="null" stroke-linecap="null" d="m127.19254,174.33089l4.66244,-4.67743l-9.01302,0l-9.01305,0l0,-2.89565l0,-2.89558l8.90897,0c4.9006,0 8.91013,-0.14687 8.91013,-0.32619c0,-0.17929 -1.95105,-2.28433 -4.33505,-4.67734l-4.33551,-4.35153l4.00726,0l4.00632,0l6.11971,6.13121l6.11961,6.13121l-6.13066,6.1194l-6.13199,6.11942l-4.21783,0l-4.21835,0l4.66104,-4.67752l0,0l-0.00002,0z" id="contentAnimation2"/>
  <path fill="none" stroke="#000000" stroke-width="null" stroke-dasharray="null" stroke-linejoin="null" stroke-linecap="null" d="m40.26385,150.86273l18.59988,-18.59937l26.30432,0l18.5993,18.59937l0,26.30464l-18.5993,18.59924l-26.30432,0l-18.59988,-18.59924l0,-26.30464z" id="contentAnimation3"/>
  <text transform="matrix(0.788294, 0, 0, 0.630525, 76.1569, 9.83237)" xml:space="preserve" text-anchor="middle" font-family="Monospace" font-size="24" y="112.33209" x="-8.28612" stroke-linecap="null" stroke-linejoin="null" stroke-dasharray="null" stroke-width="0" stroke="#000000" fill="#000000" id="svg_28">Abstract</text>
  <line fill="none" stroke="#000000" stroke-dasharray="null" stroke-linejoin="null" stroke-linecap="null" x1="24.125" y1="88.25" x2="244.125" y2="88.25" id="svg_29"/>
  <text transform="matrix(0.788294, 0, 0, 0.630525, 76.1569, 9.83237)" xml:space="preserve" text-anchor="middle" font-family="Monospace" font-size="24" y="375.68665" x="1.98721" stroke-linecap="null" stroke-linejoin="null" stroke-dasharray="null" stroke-width="0" stroke="#000000" fill="#000000" id="contentBackground">Background</text>
  <line fill="none" stroke="#000000" stroke-dasharray="null" stroke-linejoin="null" stroke-linecap="null" x1="24.75" y1="260.53818" x2="244.75" y2="260.53818" id="contentFakeString1"/>
  <line fill="none" stroke="#000000" stroke-width="3" stroke-dasharray="null" stroke-linejoin="null" stroke-linecap="null" x1="33.8125" y1="272.5" x2="243.8125" y2="272.5" id="contentFakeString2"/>
  <line fill="none" stroke="#000000" stroke-width="3" stroke-dasharray="null" stroke-linejoin="null" stroke-linecap="null" x1="34.0625" y1="287.5" x2="244.0625" y2="287.5" id="contentFakeString3"/>
  <line fill="none" stroke="#000000" stroke-width="3" stroke-dasharray="null" stroke-linejoin="null" stroke-linecap="null" x1="34.4375" y1="302.5" x2="244.4375" y2="302.5" id="contentFakeString4"/>
  <line fill="none" stroke="#000000" stroke-width="3" stroke-dasharray="null" stroke-linejoin="null" stroke-linecap="null" x1="34.6875" y1="317.5" x2="244.6875" y2="317.5" id="contentFakeString5"/>
  <text xml:space="preserve" text-anchor="middle" font-family="Monospace" font-size="24" y="-40.29743" x="-233.10302" stroke-linecap="null" stroke-linejoin="null" stroke-dasharray="null" stroke-width="0" stroke="#000000" fill="#000000" id="menuAbstractString" transform="matrix(0.475203, 0, 0, 0.454473, 155.442, 61.2775)">Abstract</text>
  <rect fill="none" stroke="#000000" stroke-dasharray="null" stroke-linejoin="null" stroke-linecap="null" x="16.89815" y="26.01851" width="55.16667" height="27.25926" id="menuAbstract"/>
  <text xml:space="preserve" text-anchor="middle" font-family="Monospace" font-size="24" y="-116.68357" x="557.91041" stroke-linecap="null" stroke-linejoin="null" stroke-dasharray="null" stroke-width="0" stroke="#000000" fill="#000000" transform="matrix(0.445549, 0, 0, 0.525656, -140.188, 104.584)" id="menuBackgroundString">Background</text>
  <rect fill="none" stroke="#000000" stroke-dasharray="null" stroke-linejoin="null" stroke-linecap="null" x="73.92591" y="25.90741" width="65.16667" height="27.25926" id="menuBackground"/>
  <text id="menuDetailString" xml:space="preserve" text-anchor="middle" font-family="Monospace" font-size="24" y="-120.11797" x="591.92316" stroke-linecap="null" stroke-linejoin="null" stroke-dasharray="null" stroke-width="0" stroke="#000000" fill="#000000" transform="matrix(0.476443, 0, 0, 0.475228, -113.763, 100.498)">Detail</text>
  <rect id="menuDetail" fill="none" stroke="#000000" stroke-dasharray="null" stroke-linejoin="null" stroke-linecap="null" x="141.29166" y="25.87037" width="47.66667" height="27.25926"/>
  <text id="menuAppendixString" xml:space="preserve" text-anchor="middle" font-family="Monospace" font-size="24" y="-163.52999" x="674.71334" stroke-linecap="null" stroke-linejoin="null" stroke-dasharray="null" stroke-width="0" stroke="#000000" fill="#000000" transform="matrix(0.412112, 0, 0, 0.474379, -53.9646, 121.107)">Appendix</text>
  <rect id="menuAppendix" fill="none" stroke="#000000" stroke-dasharray="null" stroke-linejoin="null" stroke-linecap="null" x="191.16668" y="25.87036" width="63.16667" height="27.25926"/>
 </g>
 <g display="inline">
  <title>AfterScroll</title>
  <rect fill="#ffffff" stroke="#000000" stroke-dasharray="null" stroke-linejoin="null" stroke-linecap="null" x="290.73334" y="17.83334" width="243.97903" height="337.97902" id="content_1"/>
  <rect fill="#ffffff" stroke="#000000" stroke-dasharray="null" stroke-linejoin="null" stroke-linecap="null" x="535.05852" y="17.54313" width="12" height="337.2028" id="scrollbar_1"/>
  <rect id="scrollupbutton_1" height="9" width="11" y="17.79313" x="535.55852" stroke-linecap="null" stroke-linejoin="null" stroke-dasharray="null" stroke-width="0" stroke="#000000" fill="#b2b2b2"/>
  <path fill="#000000" stroke="#000000" stroke-width="0" stroke-dasharray="null" stroke-linejoin="null" stroke-linecap="null" d="m537.25574,24.55766l3.62427,-6.12222l3.62408,6.12222l-7.24835,0z" id="scrollup_1"/>
  <rect id="scrolldownbutton_1" height="9" width="11" y="345.21672" x="535.62102" stroke-linecap="null" stroke-linejoin="null" stroke-dasharray="null" stroke-width="0" stroke="#000000" fill="#999999"/>
  <path fill="#000000" stroke="#000000" stroke-width="0" stroke-dasharray="null" stroke-linejoin="null" stroke-linecap="null" d="m537.88446,347.03662l3.31177,5.24692l3.31171,-5.24692l-6.62347,0z" id="scrolldown_1"/>
  <rect fill="#b2b2b2" stroke="#000000" stroke-width="0" stroke-dasharray="null" stroke-linejoin="null" stroke-linecap="null" x="535.55852" y="108.54313" width="11" height="113.67133" id="scrollprogress_1"/>
  <line id="content_navigator_line_1" y2="43.33334" x2="533.28737" y1="43.33334" x1="290.60904" stroke-linecap="null" stroke-linejoin="null" stroke-dasharray="null" stroke="#000000" fill="none"/>
  <text transform="matrix(0.355455, 0, 0, 0.43521, -14.8316, 114.733)" xml:space="preserve" text-anchor="middle" font-family="Monospace" font-size="24" id="menuString" y="-189.33641" x="1200.05381" stroke-linecap="null" stroke-linejoin="null" stroke-dasharray="null" stroke-width="0" stroke="#000000" fill="#000000">| Abstract  |  Background  |  Detail |  Appendix  |</text>
  <circle fill="#ffffff" stroke="#000000" stroke-dasharray="null" stroke-linejoin="null" stroke-linecap="null" cx="471.75" cy="80.5" r="31.67654" id="contentFigure1"/>
  <path fill="none" stroke="#000000" stroke-width="null" stroke-dasharray="null" stroke-linejoin="null" stroke-linecap="null" d="m402.19257,90.83089l4.66241,-4.67743l-9.013,0l-9.01306,0l0,-2.89565l0,-2.89558l8.90894,0c4.90063,0 8.91016,-0.14687 8.91016,-0.32619c0,-0.17929 -1.95105,-2.28433 -4.33502,-4.67734l-4.33557,-4.35153l4.00732,0l4.00629,0l6.11969,6.13121l6.11963,6.13121l-6.13068,6.1194l-6.13196,6.11942l-4.21783,0l-4.21832,0l4.66101,-4.67752l0,0l0,0z" id="contentFigure2"/>
  <path fill="none" stroke="#000000" stroke-width="null" stroke-dasharray="null" stroke-linejoin="null" stroke-linecap="null" d="m315.26385,67.36273l18.59985,-18.59937l26.30432,0l18.5993,18.59937l0,26.30464l-18.5993,18.59923l-26.30432,0l-18.59985,-18.59923l0,-26.30464z" id="contentFigure3"/>
  <text transform="matrix(0.788294, 0, 0, 0.630525, 76.1569, 9.83237)" xml:space="preserve" text-anchor="middle" font-family="Monospace" font-size="24" y="198.05689" x="350.84182" stroke-linecap="null" stroke-linejoin="null" stroke-dasharray="null" stroke-width="0" stroke="#000000" fill="#000000" id="contentBackground">Background</text>
  <line fill="none" stroke="#000000" stroke-dasharray="null" stroke-linejoin="null" stroke-linecap="null" x1="299.75" y1="148.53818" x2="519.75" y2="148.53818" id="contentBackgroundHR"/>
  <path fill="#ffffff" stroke="#000000" stroke-width="null" stroke-dasharray="null" stroke-linejoin="null" stroke-linecap="null" d="m374.67828,62.78076l0,0c0,1.8427 8.19391,3.336 18.31012,3.336l8.32086,0l0,0l39.94183,0l74.88354,0c4.86493,0 9.51343,-0.35101 12.94989,-0.97672c3.42902,-0.62566 5.36273,-1.47421 5.36273,-2.35928l0,-8.34007l0,0l0,-5.00438l0,0c0,-1.84227 -8.19397,-3.33604 -18.31262,-3.33604l-74.88354,0l-52.17877,-8.48296l12.23694,8.48296l-8.32086,0c-10.11621,0 -18.31012,1.49377 -18.31012,3.33604l0,0l0,5.00438l0,0l0,8.34007l0,0z" id="descriptionFigure"/>
  <text fill="#000000" stroke="#000000" stroke-width="0" stroke-dasharray="null" stroke-linejoin="null" stroke-linecap="null" x="707.48164" y="32.66731" id="description" font-size="24" font-family="serif" text-anchor="middle" xml:space="preserve" transform="matrix(0.555069, 0, 0, 0.5493, 61.0906, 42.7482)">Resize the menu icon</text>
  <line fill="none" stroke="#000000" stroke-width="3" stroke-dasharray="null" stroke-linejoin="null" stroke-linecap="null" x1="308.8125" y1="160.5" x2="518.8125" y2="160.5" id="fakeString1"/>
  <line fill="none" stroke="#000000" stroke-width="3" stroke-dasharray="null" stroke-linejoin="null" stroke-linecap="null" x1="309.0625" y1="175.5" x2="519.0625" y2="175.5" id="fakeString2"/>
  <line fill="none" stroke="#000000" stroke-width="3" stroke-dasharray="null" stroke-linejoin="null" stroke-linecap="null" x1="309.4375" y1="190.5" x2="519.4375" y2="190.5" id="fakeString3"/>
  <line fill="none" stroke="#000000" stroke-width="3" stroke-dasharray="null" stroke-linejoin="null" stroke-linecap="null" x1="309.6875" y1="205.5" x2="519.6875" y2="205.5" id="fakeString4"/>
  <rect fill="#ffffff" stroke="#000000" stroke-width="null" stroke-dasharray="null" stroke-linejoin="null" stroke-linecap="null" x="311" y="240.99999" width="211" height="115" id="exampleCodeFigure"/>
  <text fill="#000000" stroke="#000000" stroke-width="0" stroke-dasharray="null" stroke-linejoin="null" stroke-linecap="null" x="534.96609" y="343.09748" font-size="24" font-family="serif" text-anchor="middle" xml:space="preserve" transform="matrix(0.477434, 0, 0, 0.439052, 91.2298, 80.3377)" id="exampleCode">Example code:</text>
  <line fill="none" stroke="#000000" stroke-width="2" stroke-dasharray="null" stroke-linejoin="null" stroke-linecap="null" x1="328.5" y1="259" x2="511.5" y2="259" id="fakeString5"/>
  <line fill="none" stroke="#000000" stroke-width="2" stroke-dasharray="null" stroke-linejoin="null" stroke-linecap="null" x1="328.25" y1="271" x2="511.25" y2="271" id="fakeString6"/>
  <line fill="none" stroke="#000000" stroke-width="2" stroke-dasharray="null" stroke-linejoin="null" stroke-linecap="null" x1="328.375" y1="281.5" x2="511.375" y2="281.5" id="fakeString7"/>
  <line fill="none" stroke="#000000" stroke-width="2" stroke-dasharray="null" stroke-linejoin="null" stroke-linecap="null" x1="328.125" y1="293.5" x2="511.125" y2="293.5" id="fakeString8"/>
  <line fill="none" stroke="#000000" stroke-width="2" stroke-dasharray="null" stroke-linejoin="null" stroke-linecap="null" x1="328.9375" y1="304.75" x2="511.9375" y2="304.75" id="fakeString9"/>
  <line fill="none" stroke="#000000" stroke-width="2" stroke-dasharray="null" stroke-linejoin="null" stroke-linecap="null" x1="328.6875" y1="316.75" x2="511.6875" y2="316.75" id="fakeString10"/>
  <line fill="none" stroke="#000000" stroke-width="2" stroke-dasharray="null" stroke-linejoin="null" stroke-linecap="null" x1="328.8125" y1="327.25" x2="511.8125" y2="327.25" id="fakeString11"/>
  <line fill="none" stroke="#000000" stroke-width="2" stroke-dasharray="null" stroke-linejoin="null" stroke-linecap="null" x1="328.5625" y1="339.25" x2="511.5625" y2="339.25" id="fakeString12"/>
 </g>
</svg>