<svg width="560" height="360" xmlns="http://www.w3.org/2000/svg">
  <path fill="#fff" stroke="#000" stroke-dasharray="null" stroke-linejoin="null" stroke-linecap="null" d="M15 17.5h244v338H15zM259 17h12v337h-12z"/>
  <path fill="#b2b2b2" d="M259 18h11v9h-11z"/>
  <path d="M261.07 24.372l3.625-6.122 3.624 6.122h-7.25z"/>
  <path fill="#999" d="M259 345h11v9h-11z"/>
  <path d="M261.7 346.85l3.31 5.248 3.313-5.247H261.7z"/>
  <path fill="#b2b2b2" d="M259 30h11v114h-11z"/>
  <circle fill="#fff" stroke="#000" stroke-dasharray="null" stroke-linejoin="null" stroke-linecap="null" cx="152" cy="254" r="32"/>
  <path fill="none" stroke="#000" stroke-width="null" stroke-dasharray="null" stroke-linejoin="null" stroke-linecap="null" d="M102.193 262.33l4.662-4.677H88.83v-5.791h8.908c4.9 0 8.91-.147 8.91-.326 0-.18-1.95-2.284-4.335-4.677l-4.336-4.353h8.014l6.12 6.13 6.12 6.133-6.13 6.12-6.132 6.118h-8.436l4.66-4.677zM19.764 237.363l18.6-18.6h26.304l18.6 18.6v26.304l-18.6 18.6H38.364l-18.6-18.6v-26.304z"/>
  <text transform="matrix(.85515 0 0 .7733 106.75 9.283)" text-anchor="middle" font-family="Monospace" font-size="24" y="58.075" x="32.089" stroke-linecap="null" stroke-linejoin="null" stroke-dasharray="null" stroke-width="0" stroke="#000">
    The Web Animations
  </text>
  <path fill="none" stroke="#000" stroke-dasharray="null" stroke-linejoin="null" stroke-linecap="null" d="M28.125 65.75h220"/>
  <text transform="matrix(.7883 0 0 .63053 76.157 9.832)" text-anchor="middle" font-family="Monospace" font-size="24" y="146.513" x="9.599" stroke-linecap="null" stroke-linejoin="null" stroke-dasharray="null" stroke-width="0" stroke="#000">
    Abstraction
  </text>
  <path fill="none" stroke="#000" stroke-dasharray="null" stroke-linejoin="null" stroke-linecap="null" d="M30.75 116.038h157"/>
  <path fill="none" stroke="#000" stroke-width="3" stroke-dasharray="null" stroke-linejoin="null" stroke-linecap="null" d="M39.813 128h143M40.25 142h143M40.03 158h143M40.47 172h143M35.53 332.5h143M35.97 346.5h143"/>
  <path fill="#fff" stroke="#000" stroke-dasharray="null" stroke-linejoin="null" stroke-linecap="null" opacity=".75" d="M15 17.5h243.5V24H15z"/>
  <path fill="#fff" stroke="#000" stroke-dasharray="null" stroke-linejoin="null" stroke-linecap="null" d="M141 60.755c0 2.876-6.366 5.21-14.22 5.21H31.115c-3.77 0-7.388-.55-10.055-1.527-2.667-.977-4.165-2.302-4.165-3.683V39.918c0-2.877 6.366-5.21 14.22-5.21H89.29l40.532-13.244-9.505 13.245h6.463c7.854 0 14.22 2.33 14.22 5.208v20.837z"/>
  <text stroke="#000" stroke-width="0" stroke-dasharray="null" stroke-linejoin="null" stroke-linecap="null" x="727.675" y="-977.791" font-size="24" font-family="Monospace" text-anchor="middle" transform="matrix(.3478 0 0 .47673 -181.554 514.288)">
    This bar indicate the
  </text>
  <text stroke="#000" stroke-width="0" stroke-dasharray="null" stroke-linejoin="null" stroke-linecap="null" x="780.094" y="-952.323" font-size="24" font-family="Monospace" text-anchor="middle" transform="matrix(.3478 0 0 .47673 -181.554 514.288)">
    progress of articles.
  </text>
  <text transform="matrix(.7883 0 0 .63053 76.157 9.832)" text-anchor="middle" font-family="Monospace" font-size="24" y="468.07" x="4.524" stroke-linecap="null" stroke-linejoin="null" stroke-dasharray="null" stroke-width="0" stroke="#000">
    Background
  </text>
  <path fill="none" stroke="#000" stroke-dasharray="null" stroke-linejoin="null" stroke-linecap="null" d="M26.75 316.288h157"/>
  <g>
    <path fill="#fff" stroke="#000" stroke-dasharray="null" stroke-linejoin="null" stroke-linecap="null" d="M289 17h244v338H289zM533 16h12v337h-12z"/>
    <path fill="#b2b2b2" d="M533 17h11v9h-11z"/>
    <path d="M535.07 23.372l3.625-6.122 3.624 6.122h-7.25z"/>
    <path fill="#999" d="M533 344h11v9h-11z"/>
    <path d="M535.7 345.85l3.31 5.248 3.313-5.247H535.7z"/>
    <path fill="#b2b2b2" d="M533.5 129.5h11v114h-11z"/>
    <text transform="matrix(.88793 0 0 .80666 139.852 6.504)" text-anchor="middle" font-family="Monospace" font-size="24" y="52.515" x="311.563" stroke-linecap="null" stroke-linejoin="null" stroke-dasharray="null" stroke-width="0" stroke="#000">
      The Web Animations
    </text>
    <path fill="none" stroke="#000" stroke-dasharray="null" stroke-linejoin="null" stroke-linecap="null" d="M307.93 64.12h220"/>
    <circle fill="#fff" stroke="#000" stroke-dasharray="null" stroke-linejoin="null" stroke-linecap="null" cx="464.492" cy="104.269" r="32"/>
    <path fill="none" stroke="#000" stroke-width="null" stroke-dasharray="null" stroke-linejoin="null" stroke-linecap="null" d="M414.685 112.6l4.662-4.677H401.32v-5.792h8.91c4.9 0 8.91-.146 8.91-.325 0-.18-1.95-2.284-4.335-4.677l-4.335-4.352h8.013l6.12 6.13 6.12 6.133-6.13 6.118-6.133 6.12h-8.436l4.66-4.678zM332.256 87.632l18.6-18.6h26.304l18.6 18.6v26.304l-18.6 18.6h-26.304l-18.6-18.6V87.632z"/>
    <text transform="matrix(.7883 0 0 .63053 76.157 9.832)" text-anchor="middle" font-family="Monospace" font-size="24" y="246.856" x="371.763" stroke-linecap="null" stroke-linejoin="null" stroke-dasharray="null" stroke-width="0" stroke="#000">
      Background
    </text>
    <path fill="none" stroke="#000" stroke-dasharray="null" stroke-linejoin="null" stroke-linecap="null" d="M316.242 176.807h157"/>
    <path fill="none" stroke="#000" stroke-width="3" stroke-dasharray="null" stroke-linejoin="null" stroke-linecap="null" d="M324.305 185.77h143M324.742 199.77h143M324.523 215.77h143"/>
    <text transform="matrix(.4316 0 0 .34015 117.81 103.983)" text-anchor="middle" font-family="Monospace" font-size="24" y="372.618" x="563.46" stroke-linecap="null" stroke-linejoin="null" stroke-dasharray="null" stroke-width="0" stroke="#000">
      Example code:
    </text>
    <path fill="#fff" stroke="#000" stroke-width="null" stroke-dasharray="null" stroke-linejoin="null" stroke-linecap="null" d="M322.5 238h175v117h-175z"/>
    <path fill="none" stroke="#000" stroke-width="3" stroke-dasharray="null" stroke-linejoin="null" stroke-linecap="null" d="M348.023 253.27h110.5M349 268.5h110.5M350.512 284.385h110.5M351.488 299.615h110.5M350.768 317.827h110.5M351.744 333.058h110.5"/>
    <path fill="#fff" stroke="#000" stroke-dasharray="null" stroke-linejoin="null" stroke-linecap="null" opacity=".75" d="M289 16.75h243.5v6.5H289z"/>
    <path fill="red" opacity=".75" d="M289.5 16.75h127v6.5h-127z"/>
  </g>
</svg>
