<svg width="560" height="360" xmlns="http://www.w3.org/2000/svg">
  <path fill="#fff" stroke="#000" stroke-dasharray="null" stroke-linejoin="null" stroke-linecap="null" d="M14.733 17.333h243.98v337.98H14.732zM259.06 17.543h12v337.203h-12z"/>
  <path fill="#b2b2b2" d="M259.56 17.793h11v9h-11z"/>
  <path d="M261.256 24.558l3.624-6.123 3.624 6.123h-7.248z"/>
  <path fill="#999" d="M259.62 345.217h11v9h-11z"/>
  <path d="M261.884 347.037l3.312 5.247 3.312-5.247h-6.624z"/>
  <path fill="#b2b2b2" d="M259.56 30.543h11v113.67h-11z"/>
  <text transform="matrix(.7883 0 0 .63053 76.157 9.832)" text-anchor="middle" font-family="Monospace" font-size="24" y="45.742" x="79.348" stroke-linecap="null" stroke-linejoin="null" stroke-dasharray="null" stroke-width="0" stroke="#000">
    The picture-story show
  </text>
  <path fill="none" stroke="#000" stroke-dasharray="null" stroke-linejoin="null" stroke-linecap="null" d="M28.233 46h220"/>
  <path stroke-linecap="null" stroke-linejoin="null" stroke-dasharray="null" stroke-width="null" stroke="#000" fill="#fff" d="M24 70.5h226.5V223H24z"/>
  <path stroke-linecap="null" stroke-linejoin="null" stroke-dasharray="null" stroke-width="2" stroke="#000" fill="none" d="M32.5 250H246M32 265.5h214.5M32 282h214M31.5 298.5h214"/>
  <circle r="21.708" cy="156" cx="84.5" stroke-linecap="null" stroke-linejoin="null" stroke-dasharray="null" stroke-width="2" stroke="#000" fill="none"/>
  <circle r="21.708" cy="159" cx="179.25" stroke-linecap="null" stroke-linejoin="null" stroke-dasharray="null" stroke-width="2" stroke="#000" fill="none"/>
  <path d="M370.643 80.747c0-4.203 3.326-7.608 7.43-7.608H428.06c1.97 0 3.857.8 5.252 2.226 1.39 1.428 2.178 3.363 2.178 5.38V111.18c0 4.202-3.33 7.61-7.43 7.61H397.66l-21.178 19.345 4.968-19.346h-3.378c-4.105 0-7.43-3.408-7.43-7.61V80.747z" stroke-linecap="null" stroke-linejoin="null" stroke-dasharray="null" stroke-width="2" stroke="#000" fill="none"/>
  <path d="M230.376 265.6c0 4.882-10.068 8.84-22.488 8.84H56.605c-5.965 0-11.685-.932-15.902-2.59-4.217-1.657-6.586-3.905-6.586-6.25V230.25c0-4.88 10.068-8.838 22.488-8.838H148.6l64.098-22.474-15.032 22.474h10.222c12.42 0 22.488 3.957 22.488 8.838V265.6z" stroke-linecap="null" stroke-linejoin="null" stroke-dasharray="null" stroke-width="2" stroke="#000" fill="#fff"/>
  <text transform="matrix(.41855 0 0 .49627 -102.7 114.13)" text-anchor="middle" font-family="Monospace" font-size="24" y="280.24" x="562.536" stroke-linecap="null" stroke-linejoin="null" stroke-dasharray="null" stroke-width="0" stroke="#000">
    This animation related with scroll.
  </text>
  <g>
    <path fill="#fff" stroke="#000" stroke-dasharray="null" stroke-linejoin="null" stroke-linecap="null" d="M284.587 17.51h243.98v337.98h-243.98zM528.913 17.72h12v337.203h-12z"/>
    <path fill="#b2b2b2" d="M529.413 17.97h11v9h-11z"/>
    <path d="M531.11 24.735l3.624-6.122 3.624 6.122h-7.248z"/>
    <path fill="#999" d="M529.475 345.394h11v9h-11z"/>
    <path d="M531.74 347.214l3.31 5.247 3.312-5.246h-6.623z"/>
    <path fill="#b2b2b2" d="M529.413 118.22h11v113.67h-11z"/>
    <text transform="matrix(.7883 0 0 .63053 76.157 9.832)" text-anchor="middle" font-family="Monospace" font-size="24" y="46.023" x="421.675" stroke-linecap="null" stroke-linejoin="null" stroke-dasharray="null" stroke-width="0" stroke="#000">
      The picture-story show
    </text>
    <path fill="none" stroke="#000" stroke-dasharray="null" stroke-linejoin="null" stroke-linecap="null" d="M298.087 46.177h220"/>
    <path stroke-linecap="null" stroke-linejoin="null" stroke-dasharray="null" stroke-width="null" stroke="#000" fill="#fff" d="M293.854 70.677h226.5v152.5h-226.5z"/>
    <path stroke-linecap="null" stroke-linejoin="null" stroke-dasharray="null" stroke-width="2" stroke="#000" fill="none" d="M302.354 250.177h213.5M301.854 265.677h214.5M301.854 282.177h214M301.354 298.677h214"/>
    <circle r="33.458" cy="158.427" cx="403.104" stroke-linecap="null" stroke-linejoin="null" stroke-dasharray="null" stroke-width="2" stroke="#000" fill="none"/>
    <path stroke-linecap="null" stroke-linejoin="null" stroke-dasharray="null" stroke-width="2" stroke="#000" fill="none" d="M403 125v66"/>
    <path d="M334.378 262.413c0 4.88 9.683 8.838 21.627 8.838H501.496c5.736 0 11.237-.93 15.293-2.587 4.054-1.658 6.332-3.906 6.332-6.25V227.06c0-4.88-9.682-8.838-21.626-8.838h-88.474L351.38 195.75l14.455 22.472h-9.83c-11.944 0-21.627 3.957-21.627 8.838V262.413z" stroke-linecap="null" stroke-linejoin="null" stroke-dasharray="null" stroke-width="2" stroke="#000" fill="#fff"/>
    <text transform="matrix(.41855 0 0 .49627 -102.7 114.13)" text-anchor="middle" font-family="Monospace" font-size="24" y="248.63" x="1264.966" stroke-linecap="null" stroke-linejoin="null" stroke-dasharray="null" stroke-width="0" stroke="#000">
      If we scroll this content, the
    </text>
    <text transform="matrix(.41855 0 0 .49627 -102.7 114.13)" text-anchor="middle" font-family="Monospace" font-size="24" y="283.968" x="1267.345" stroke-linecap="null" stroke-linejoin="null" stroke-dasharray="null" stroke-width="0" stroke="#000">
      The animation will advance.
    </text>
  </g>
</svg>
