<svg width="560" height="360" xmlns="http://www.w3.org/2000/svg">
  <path fill="#fff" stroke="#000" stroke-dasharray="null" stroke-linejoin="null" stroke-linecap="null" d="M15 17h244v338H15zM259 17h12v337h-12z"/>
  <path fill="#b2b2b2" d="M259 18h11v9h-11z"/>
  <path d="M261.07 24.372l3.625-6.122 3.624 6.122h-7.25z"/>
  <path fill="#999" d="M259 345h11v9h-11z"/>
  <path d="M261.7 346.85l3.31 5.248 3.313-5.247H261.7z"/>
  <path fill="#b2b2b2" d="M259 30h11v114h-11z"/>
  <path stroke-linecap="null" stroke-linejoin="null" stroke-dasharray="null" stroke="#000" fill="none" d="M15 62h242"/>
  <circle fill="#fff" stroke="#000" stroke-dasharray="null" stroke-linejoin="null" stroke-linecap="null" cx="197" cy="164" r="32"/>
  <path fill="none" stroke="#000" stroke-width="null" stroke-dasharray="null" stroke-linejoin="null" stroke-linecap="null" d="M127.193 174.33l4.662-4.677H113.83v-5.791h8.908c4.9 0 8.91-.147 8.91-.326 0-.18-1.95-2.284-4.335-4.677l-4.336-4.353h8.014l6.12 6.13 6.12 6.133-6.13 6.12-6.132 6.118h-8.436l4.66-4.677zM40.264 150.863l18.6-18.6h26.304l18.6 18.6v26.304l-18.6 18.6H58.864l-18.6-18.6v-26.304z"/>
  <text transform="matrix(.7883 0 0 .63053 76.157 9.832)" text-anchor="middle" font-family="Monospace" font-size="24" y="112.332" x="-8.286" stroke-linecap="null" stroke-linejoin="null" stroke-dasharray="null" stroke-width="0" stroke="#000">
    Abstract
  </text>
  <path fill="none" stroke="#000" stroke-dasharray="null" stroke-linejoin="null" stroke-linecap="null" d="M24.125 88.25h220"/>
  <text transform="matrix(.7883 0 0 .63053 76.157 9.832)" text-anchor="middle" font-family="Monospace" font-size="24" y="375.687" x="1.987" stroke-linecap="null" stroke-linejoin="null" stroke-dasharray="null" stroke-width="0" stroke="#000">
    Background
  </text>
  <path fill="none" stroke="#000" stroke-dasharray="null" stroke-linejoin="null" stroke-linecap="null" d="M24.75 260.538h220"/>
  <path fill="none" stroke="#000" stroke-width="3" stroke-dasharray="null" stroke-linejoin="null" stroke-linecap="null" d="M33.813 272.5h210M34.063 287.5h210M34.438 302.5h210M34.688 317.5h210"/>
  <text text-anchor="middle" font-family="Monospace" font-size="24" y="-40.297" x="-233.103" stroke-linecap="null" stroke-linejoin="null" stroke-dasharray="null" stroke-width="0" stroke="#000" transform="matrix(.4752 0 0 .45447 155.442 61.278)">
    Abstract
  </text>
  <path fill="none" stroke="#000" stroke-dasharray="null" stroke-linejoin="null" stroke-linecap="null" d="M16.898 26.02h55.167v27.258H16.898z"/>
  <text text-anchor="middle" font-family="Monospace" font-size="24" y="-116.684" x="557.91" stroke-linecap="null" stroke-linejoin="null" stroke-dasharray="null" stroke-width="0" stroke="#000" transform="matrix(.44555 0 0 .52566 -140.188 104.584)">
    Background
  </text>
  <path fill="none" stroke="#000" stroke-dasharray="null" stroke-linejoin="null" stroke-linecap="null" d="M73.926 25.907h65.167v27.26H73.926z"/>
  <text text-anchor="middle" font-family="Monospace" font-size="24" y="-120.118" x="591.923" stroke-linecap="null" stroke-linejoin="null" stroke-dasharray="null" stroke-width="0" stroke="#000" transform="matrix(.47644 0 0 .47523 -113.763 100.498)">
    Detail
  </text>
  <path fill="none" stroke="#000" stroke-dasharray="null" stroke-linejoin="null" stroke-linecap="null" d="M141.292 25.87h47.667v27.26H141.29z"/>
  <text text-anchor="middle" font-family="Monospace" font-size="24" y="-163.53" x="674.713" stroke-linecap="null" stroke-linejoin="null" stroke-dasharray="null" stroke-width="0" stroke="#000" transform="matrix(.4121 0 0 .47438 -53.965 121.107)">
    Appendix
  </text>
  <path fill="none" stroke="#000" stroke-dasharray="null" stroke-linejoin="null" stroke-linecap="null" d="M191.167 25.87h63.167v27.26h-63.167z"/>
  <g>
    <path fill="#fff" stroke="#000" stroke-dasharray="null" stroke-linejoin="null" stroke-linecap="null" d="M290.733 17.833h243.98v337.98h-243.98zM535.06 17.543h12v337.203h-12z"/>
    <path fill="#b2b2b2" d="M535.56 17.793h11v9h-11z"/>
    <path d="M537.256 24.558l3.624-6.123 3.624 6.123h-7.248z"/>
    <path fill="#999" d="M535.62 345.217h11v9h-11z"/>
    <path d="M537.884 347.037l3.312 5.247 3.312-5.247h-6.624z"/>
    <path fill="#b2b2b2" d="M535.56 108.543h11v113.67h-11z"/>
    <path stroke-linecap="null" stroke-linejoin="null" stroke-dasharray="null" stroke="#000" fill="none" d="M290.61 43.333h242.677"/>
    <text transform="matrix(.35546 0 0 .4352 -14.832 114.733)" text-anchor="middle" font-family="Monospace" font-size="24" y="-189.336" x="1200.054" stroke-linecap="null" stroke-linejoin="null" stroke-dasharray="null" stroke-width="0" stroke="#000">
      | Abstract | Background | Detail | Appendix |
    </text>
    <circle fill="#fff" stroke="#000" stroke-dasharray="null" stroke-linejoin="null" stroke-linecap="null" cx="471.75" cy="80.5" r="31.677"/>
    <path fill="none" stroke="#000" stroke-width="null" stroke-dasharray="null" stroke-linejoin="null" stroke-linecap="null" d="M402.193 90.83l4.662-4.677H388.83v-5.791h8.908c4.9 0 8.91-.147 8.91-.326 0-.18-1.95-2.284-4.335-4.677l-4.336-4.353h8.014l6.12 6.13 6.12 6.133-6.13 6.12-6.132 6.118h-8.436l4.66-4.677zM315.264 67.363l18.6-18.6h26.304l18.6 18.6v26.304l-18.6 18.6h-26.304l-18.6-18.6V67.363z"/>
    <text transform="matrix(.7883 0 0 .63053 76.157 9.832)" text-anchor="middle" font-family="Monospace" font-size="24" y="198.057" x="350.842" stroke-linecap="null" stroke-linejoin="null" stroke-dasharray="null" stroke-width="0" stroke="#000">
      Background
    </text>
    <path fill="none" stroke="#000" stroke-dasharray="null" stroke-linejoin="null" stroke-linecap="null" d="M299.75 148.538h220"/>
    <path fill="#fff" stroke="#000" stroke-width="null" stroke-dasharray="null" stroke-linejoin="null" stroke-linecap="null" d="M374.678 62.78c0 1.843 8.194 3.337 18.31 3.337h123.148c4.865 0 9.513-.35 12.95-.977 3.43-.626 5.362-1.474 5.362-2.36V49.437c0-1.842-8.194-3.336-18.312-3.336H441.25l-52.178-8.483L401.31 46.1h-8.322c-10.116 0-18.31 1.494-18.31 3.336V62.78z"/>
    <text stroke="#000" stroke-width="0" stroke-dasharray="null" stroke-linejoin="null" stroke-linecap="null" x="707.482" y="32.667" font-size="24" font-family="serif" text-anchor="middle" transform="matrix(.55507 0 0 .5493 61.09 42.748)">
      Resize the menu icon
    </text>
    <path fill="none" stroke="#000" stroke-width="3" stroke-dasharray="null" stroke-linejoin="null" stroke-linecap="null" d="M308.813 160.5h210M309.063 175.5h210M309.438 190.5h210M309.688 205.5h210"/>
    <path fill="#fff" stroke="#000" stroke-width="null" stroke-dasharray="null" stroke-linejoin="null" stroke-linecap="null" d="M311 241h211v115H311z"/>
    <text stroke="#000" stroke-width="0" stroke-dasharray="null" stroke-linejoin="null" stroke-linecap="null" x="534.966" y="343.097" font-size="24" font-family="serif" text-anchor="middle" transform="matrix(.47743 0 0 .43905 91.23 80.338)">
      Example code:
    </text>
    <path fill="none" stroke="#000" stroke-width="2" stroke-dasharray="null" stroke-linejoin="null" stroke-linecap="null" d="M328.5 259h183M328.25 271h183M328.375 281.5h183M328.125 293.5h183M328.938 304.75h183M328.688 316.75h183M328.813 327.25h183M328.563 339.25h183"/>
  </g>
</svg>
