<svg width="560" height="360" xmlns="http://www.w3.org/2000/svg" xmlns:svg="http://www.w3.org/2000/svg">
 <!-- Created with SVG-edit - http://svg-edit.googlecode.com/ -->

 <g display="inline">
  <title>BeforeScroll</title>
  <rect id="content_1" height="338" width="244" y="17.5" x="15" stroke-linecap="null" stroke-linejoin="null" stroke-dasharray="null" stroke="#000000" fill="#ffffff"/>
  <rect id="scrollbar_1" height="337" width="12" y="17" x="259" stroke-linecap="null" stroke-linejoin="null" stroke-dasharray="null" stroke="#000000" fill="#ffffff"/>
  <rect id="scrollupbutton_1" fill="#b2b2b2" stroke="#000000" stroke-width="0" stroke-dasharray="null" stroke-linejoin="null" stroke-linecap="null" x="259" y="18" width="11" height="9"/>
  <path id="scrollup_1" d="m261.07059,24.37247l3.62421,-6.12222l3.62411,6.12222l-7.24832,0z" stroke-linecap="null" stroke-linejoin="null" stroke-dasharray="null" stroke-width="0" stroke="#000000" fill="#000000"/>
  <rect id="scrolldownbutton_1" fill="#999999" stroke="#000000" stroke-width="0" stroke-dasharray="null" stroke-linejoin="null" stroke-linecap="null" x="259" y="345" width="11" height="9"/>
  <path id="scrolldown_1" d="m261.69928,346.85144l3.31177,5.24692l3.31168,-5.24692l-6.62344,0z" stroke-linecap="null" stroke-linejoin="null" stroke-dasharray="null" stroke-width="0" stroke="#000000" fill="#000000"/>
  <rect id="scrollprogress_1" height="114" width="11" y="30" x="259" stroke-linecap="null" stroke-linejoin="null" stroke-dasharray="null" stroke-width="0" stroke="#000000" fill="#b2b2b2"/>
  <circle id="contentAniamtion1" r="32" cy="254" cx="152" stroke-linecap="null" stroke-linejoin="null" stroke-dasharray="null" stroke="#000000" fill="#ffffff"/>
  <path id="contentAnimation2" d="m102.19254,262.33087l4.66245,-4.67743l-9.01303,0l-9.01302,0l0,-2.89563l0,-2.89557l8.90897,0c4.9006,0 8.91013,-0.14688 8.91013,-0.3262c0,-0.17929 -1.95105,-2.28433 -4.33505,-4.67734l-4.33551,-4.35153l4.00726,0l4.00632,0l6.11969,6.1312l6.11963,6.13124l-6.13068,6.11937l-6.13197,6.11945l-4.21783,0l-4.21835,0l4.66104,-4.67755l0,0l-0.00003,0l-0.00002,0z" stroke-linecap="null" stroke-linejoin="null" stroke-dasharray="null" stroke-width="null" stroke="#000000" fill="none"/>
  <path id="contentAnimation3" d="m19.76385,237.36273l18.59988,-18.59937l26.30432,0l18.59927,18.59937l0,26.30463l-18.59927,18.59924l-26.30432,0l-18.59988,-18.59924l0,-26.30463z" stroke-linecap="null" stroke-linejoin="null" stroke-dasharray="null" stroke-width="null" stroke="#000000" fill="none"/>
  <text id="pageTitle" fill="#000000" stroke="#000000" stroke-width="0" stroke-dasharray="null" stroke-linejoin="null" stroke-linecap="null" x="22.72393" y="50.44602" font-size="24" font-family="Monospace" text-anchor="middle" xml:space="preserve" transform="matrix(0.913903, 0, 0, 0.83692, 111.926, 5.55203)">The Web Animations</text>
  <line id="pageTitleHR" y2="65.75" x2="248.125" y1="65.75" x1="28.125" stroke-linecap="null" stroke-linejoin="null" stroke-dasharray="null" stroke="#000000" fill="none"/>
  <text id="contentBackground" fill="#000000" stroke="#000000" stroke-width="0" stroke-dasharray="null" stroke-linejoin="null" stroke-linecap="null" x="9.59858" y="146.51255" font-size="24" font-family="Monospace" text-anchor="middle" xml:space="preserve" transform="matrix(0.788294, 0, 0, 0.630525, 76.1569, 9.83237)">Abstraction</text>
  <line id="contentFakeString1" y2="116.03818" x2="187.74999" y1="116.03818" x1="30.75" stroke-linecap="null" stroke-linejoin="null" stroke-dasharray="null" stroke="#000000" fill="none"/>
  <line id="contentFakeString2" y2="128" x2="182.8125" y1="128" x1="39.8125" stroke-linecap="null" stroke-linejoin="null" stroke-dasharray="null" stroke-width="3" stroke="#000000" fill="none"/>
  <line y2="142" x2="183.25" y1="142" x1="40.25" stroke-linecap="null" stroke-linejoin="null" stroke-dasharray="null" stroke-width="3" stroke="#000000" fill="none" id="contentFakeString3"/>
  <line y2="158" x2="183.03125" y1="158" x1="40.03125" stroke-linecap="null" stroke-linejoin="null" stroke-dasharray="null" stroke-width="3" stroke="#000000" fill="none" id="contentFakeString4"/>
  <line y2="172" x2="183.46875" y1="172" x1="40.46875" stroke-linecap="null" stroke-linejoin="null" stroke-dasharray="null" stroke-width="3" stroke="#000000" fill="none" id="contentFakeString5"/>
  <line y2="310" x2="179.03125" y1="310" x1="36.03125" stroke-linecap="null" stroke-linejoin="null" stroke-dasharray="null" stroke-width="3" stroke="#000000" fill="none" id="contentFakeString6"/>
  <line y2="324" x2="179.46875" y1="324" x1="36.46875" stroke-linecap="null" stroke-linejoin="null" stroke-dasharray="null" stroke-width="3" stroke="#000000" fill="none" id="contentFakeString7"/>
  <rect fill="#ffffff" stroke="#000000" stroke-width="null" stroke-dasharray="null" stroke-linejoin="null" stroke-linecap="null" x="190.5" y="85" width="61" height="81.5" id="menuBar"/>
  <text fill="#000000" stroke="#000000" stroke-width="0" stroke-dasharray="null" stroke-linejoin="null" stroke-linecap="null" x="182.15679" y="141.37469" font-size="24" font-family="Monospace" text-anchor="middle" xml:space="preserve" transform="matrix(0.788294, 0, 0, 0.545121, 76.1569, 20.4569)" id="menuTitle">Menu</text>
  <text fill="#000000" stroke="#000000" stroke-width="0" stroke-dasharray="null" stroke-linejoin="null" stroke-linecap="null" x="147.22945" y="140.18962" font-size="24" font-family="Monospace" text-anchor="middle" xml:space="preserve" transform="matrix(0.470339, 0, 0, 0.444253, 151.443, 49.8833)" id="menuAbstract">Abstract</text>
  <text fill="#000000" stroke="#000000" stroke-width="0" stroke-dasharray="null" stroke-linejoin="null" stroke-linecap="null" x="155.88183" y="168.27858" font-size="24" font-family="Monospace" text-anchor="middle" xml:space="preserve" transform="matrix(0.422052, 0, 0, 0.494587, 155.101, 42.8535)" id="menuBackground">Background</text>
  <text fill="#000000" stroke="#000000" stroke-width="0" stroke-dasharray="null" stroke-linejoin="null" stroke-linecap="null" x="149.48155" y="198.66666" font-size="24" font-family="Monospace" text-anchor="middle" xml:space="preserve" transform="matrix(0.470339, 0, 0, 0.444253, 151.443, 49.8833)" id="menuDetail">Detail</text>
  <text fill="#000000" stroke="#000000" stroke-width="0" stroke-dasharray="null" stroke-linejoin="null" stroke-linecap="null" x="148.41849" y="233.55669" font-size="24" font-family="Monospace" text-anchor="middle" xml:space="preserve" transform="matrix(0.470339, 0, 0, 0.444253, 151.443, 49.8833)" id="menuAppendix">Appendix</text>
 </g>
 <g display="inline">
  <title>AfterScroll</title>
  <rect id="content_1" height="338" width="244" y="17" x="289" stroke-linecap="null" stroke-linejoin="null" stroke-dasharray="null" stroke="#000000" fill="#ffffff"/>
  <rect id="scrollbar_1" height="337" width="12" y="16" x="533" stroke-linecap="null" stroke-linejoin="null" stroke-dasharray="null" stroke="#000000" fill="#ffffff"/>
  <rect id="scrollupbutton_1" fill="#b2b2b2" stroke="#000000" stroke-width="0" stroke-dasharray="null" stroke-linejoin="null" stroke-linecap="null" x="533" y="17" width="11" height="9"/>
  <path id="scrollup_1" d="m535.07056,23.37247l3.62427,-6.12222l3.62408,6.12222l-7.24835,0z" stroke-linecap="null" stroke-linejoin="null" stroke-dasharray="null" stroke-width="0" stroke="#000000" fill="#000000"/>
  <rect id="scrolldownbutton_1" fill="#999999" stroke="#000000" stroke-width="0" stroke-dasharray="null" stroke-linejoin="null" stroke-linecap="null" x="533" y="344" width="11" height="9"/>
  <path id="scrolldown_1" d="m535.69928,345.85144l3.31177,5.24692l3.31171,-5.24692l-6.62347,0z" stroke-linecap="null" stroke-linejoin="null" stroke-dasharray="null" stroke-width="0" stroke="#000000" fill="#000000"/>
  <rect id="scrollprogress_1" height="114" width="11" y="95" x="533" stroke-linecap="null" stroke-linejoin="null" stroke-dasharray="null" stroke-width="0" stroke="#000000" fill="#b2b2b2"/>
  <circle id="contentAniamtion1" r="32" cy="55.5" cx="426.5" stroke-linecap="null" stroke-linejoin="null" stroke-dasharray="null" stroke="#000000" fill="#ffffff"/>
  <path id="contentAnimation2" d="m376.69254,63.83087l4.66245,-4.67743l-9.01303,0l-9.01303,0l0,-2.89563l0,-2.89557l8.909,0c4.90057,0 8.91019,-0.14688 8.91019,-0.3262c0,-0.17929 -1.95105,-2.28433 -4.33508,-4.67734l-4.33548,-4.35153l4.00726,0l4.00632,0l6.11963,6.1312l6.11963,6.13124l-6.13068,6.11937l-6.13199,6.11945l-4.2178,0l-4.21835,0l4.66104,-4.67755l0,0l-0.00003,0l-0.00003,0l0,-0.00001z" stroke-linecap="null" stroke-linejoin="null" stroke-dasharray="null" stroke-width="null" stroke="#000000" fill="none"/>
  <path id="contentAnimation3" d="m294.26385,38.86273l18.59988,-18.59937l26.30432,0l18.59927,18.59937l0,26.30463l-18.59927,18.59924l-26.30432,0l-18.59988,-18.59924l0,-26.30463z" stroke-linecap="null" stroke-linejoin="null" stroke-dasharray="null" stroke-width="null" stroke="#000000" fill="none"/>
  <text id="contentBackground" fill="#000000" stroke="#000000" stroke-width="0" stroke-dasharray="null" stroke-linejoin="null" stroke-linecap="null" x="343.86473" y="237.70639" font-size="24" font-family="Monospace" text-anchor="middle" xml:space="preserve" transform="matrix(0.788294, 0, 0, 0.630525, 76.1569, 9.83237)">Background</text>
  <line id="contentFakeString1" y2="173.53818" x2="451.24999" y1="173.53818" x1="294.25" stroke-linecap="null" stroke-linejoin="null" stroke-dasharray="null" stroke="#000000" fill="none"/>
  <line id="contentFakeString2" y2="100.5" x2="456.3125" y1="100.5" x1="313.3125" stroke-linecap="null" stroke-linejoin="null" stroke-dasharray="null" stroke-width="3" stroke="#000000" fill="none"/>
  <line y2="114.5" x2="456.75" y1="114.5" x1="313.75" stroke-linecap="null" stroke-linejoin="null" stroke-dasharray="null" stroke-width="3" stroke="#000000" fill="none" id="contentFakeString3"/>
  <line y2="184.5" x2="453.03125" y1="184.5" x1="310.03125" stroke-linecap="null" stroke-linejoin="null" stroke-dasharray="null" stroke-width="3" stroke="#000000" fill="none" id="contentFakeString4"/>
  <line y2="198.5" x2="453.46875" y1="198.5" x1="310.46875" stroke-linecap="null" stroke-linejoin="null" stroke-dasharray="null" stroke-width="3" stroke="#000000" fill="none" id="contentFakeString5"/>
  <line y2="216.5" x2="453.53125" y1="216.5" x1="310.53125" stroke-linecap="null" stroke-linejoin="null" stroke-dasharray="null" stroke-width="3" stroke="#000000" fill="none" id="contentFakeString6"/>
  <line y2="230.5" x2="453.96875" y1="230.5" x1="310.96875" stroke-linecap="null" stroke-linejoin="null" stroke-dasharray="null" stroke-width="3" stroke="#000000" fill="none" id="contentFakeString7"/>
  <rect fill="#ffffff" stroke="#000000" stroke-width="null" stroke-dasharray="null" stroke-linejoin="null" stroke-linecap="null" x="467.5" y="22.5" width="61" height="81.5" id="menuBar"/>
  <text fill="#000000" stroke="#000000" stroke-width="0" stroke-dasharray="null" stroke-linejoin="null" stroke-linecap="null" x="533.54853" y="26.72125" font-size="24" font-family="Monospace" text-anchor="middle" xml:space="preserve" transform="matrix(0.788294, 0, 0, 0.545121, 76.1569, 20.4569)" id="menuTitle">Menu</text>
  <text fill="#000000" stroke="#000000" stroke-width="0" stroke-dasharray="null" stroke-linejoin="null" stroke-linecap="null" x="736.16636" y="-0.49598" font-size="24" font-family="Monospace" text-anchor="middle" xml:space="preserve" transform="matrix(0.470339, 0, 0, 0.444253, 151.443, 49.8833)" id="menuAbstract">Abstract</text>
  <text fill="#000000" stroke="#000000" stroke-width="0" stroke-dasharray="null" stroke-linejoin="null" stroke-linecap="null" x="744.59374" y="29.84395" font-size="24" font-family="Monospace" text-anchor="middle" xml:space="preserve" transform="matrix(0.435848, 0, 0, 0.393919, 174.369, 49.9452)" id="menuBackground">Background</text>
  <text fill="#000000" stroke="#000000" stroke-width="0" stroke-dasharray="null" stroke-linejoin="null" stroke-linecap="null" x="738.41846" y="57.98106" font-size="24" font-family="Monospace" text-anchor="middle" xml:space="preserve" transform="matrix(0.470339, 0, 0, 0.444253, 151.443, 49.8833)" id="menuDetail">Detail</text>
  <text fill="#000000" stroke="#000000" stroke-width="0" stroke-dasharray="null" stroke-linejoin="null" stroke-linecap="null" x="737.3554" y="92.87109" font-size="24" font-family="Monospace" text-anchor="middle" xml:space="preserve" transform="matrix(0.470339, 0, 0, 0.444253, 151.443, 49.8833)" id="menuAppendix">Appendix</text>
  <text transform="matrix(0.429311, 0, 0, 0.365223, 125.598, 145.094)" xml:space="preserve" text-anchor="middle" font-family="Monospace" font-size="24" id="exasmpleCodeHeader" y="317.08239" x="516.29707" stroke-linecap="null" stroke-linejoin="null" stroke-dasharray="null" stroke-width="0" stroke="#000000" fill="#000000">Example code:</text>
  <rect id="exampleCode" height="88.5" width="149" y="266.5" x="313" stroke-linecap="null" stroke-linejoin="null" stroke-dasharray="null" stroke="#000000" fill="#ffffff"/>
  <line id="exampleCodeFake1" y2="281.5" x2="444.75" y1="281.5" x1="325.75" stroke-linecap="null" stroke-linejoin="null" stroke-dasharray="null" stroke-width="2" stroke="#000000" fill="none"/>
  <line id="exampleCodeFake2" y2="295" x2="445.75" y1="295" x1="326.75" stroke-linecap="null" stroke-linejoin="null" stroke-dasharray="null" stroke-width="2" stroke="#000000" fill="none"/>
  <line id="exampleCodeFake3" y2="309.75" x2="445.75" y1="309.75" x1="326.75" stroke-linecap="null" stroke-linejoin="null" stroke-dasharray="null" stroke-width="2" stroke="#000000" fill="none"/>
  <line id="exampleCodeFake4" y2="323.25" x2="446.75" y1="323.25" x1="327.75" stroke-linecap="null" stroke-linejoin="null" stroke-dasharray="null" stroke-width="2" stroke="#000000" fill="none"/>
 </g>
</svg>