<svg width="560" height="360" xmlns="http://www.w3.org/2000/svg" xmlns:svg="http://www.w3.org/2000/svg">
 <!-- Created with SVG-edit - http://svg-edit.googlecode.com/ -->

 <g display="inline">
  <title>BeforeScroll</title>
  <rect fill="#ffffff" stroke="#000000" stroke-dasharray="null" stroke-linejoin="null" stroke-linecap="null" x="15" y="17.5" width="244" height="338" id="content_1"/>
  <rect fill="#ffffff" stroke="#000000" stroke-dasharray="null" stroke-linejoin="null" stroke-linecap="null" x="259" y="17" width="12" height="337" id="scrollbar_1"/>
  <rect height="9" width="11" y="18" x="259" stroke-linecap="null" stroke-linejoin="null" stroke-dasharray="null" stroke-width="0" stroke="#000000" fill="#b2b2b2" id="scrollupbutton_1"/>
  <path fill="#000000" stroke="#000000" stroke-width="0" stroke-dasharray="null" stroke-linejoin="null" stroke-linecap="null" d="m261.07059,24.37247l3.62421,-6.12222l3.62411,6.12222l-7.24832,0z" id="scrollup_1"/>
  <rect height="9" width="11" y="345" x="259" stroke-linecap="null" stroke-linejoin="null" stroke-dasharray="null" stroke-width="0" stroke="#000000" fill="#999999" id="scrolldownbutton_1"/>
  <path fill="#000000" stroke="#000000" stroke-width="0" stroke-dasharray="null" stroke-linejoin="null" stroke-linecap="null" d="m261.69928,346.85144l3.31177,5.24692l3.31168,-5.24692l-6.62344,0z" id="scrolldown_1"/>
  <rect fill="#b2b2b2" stroke="#000000" stroke-width="0" stroke-dasharray="null" stroke-linejoin="null" stroke-linecap="null" x="259" y="30" width="11" height="114" id="scrollprogress_1"/>
  <circle fill="#ffffff" stroke="#000000" stroke-dasharray="null" stroke-linejoin="null" stroke-linecap="null" cx="152" cy="254" r="32" id="contentAniamtion1"/>
  <path fill="none" stroke="#000000" stroke-width="null" stroke-dasharray="null" stroke-linejoin="null" stroke-linecap="null" d="m102.19254,262.33087l4.66245,-4.67743l-9.01303,0l-9.01302,0l0,-2.89563l0,-2.89557l8.90897,0c4.9006,0 8.91013,-0.14688 8.91013,-0.3262c0,-0.17929 -1.95105,-2.28433 -4.33505,-4.67734l-4.33551,-4.35153l4.00726,0l4.00632,0l6.11969,6.1312l6.11963,6.13124l-6.13068,6.11937l-6.13197,6.11945l-4.21783,0l-4.21835,0l4.66104,-4.67755l0,0l-0.00003,0l-0.00002,0z" id="contentAnimation2"/>
  <path fill="none" stroke="#000000" stroke-width="null" stroke-dasharray="null" stroke-linejoin="null" stroke-linecap="null" d="m19.76385,237.36273l18.59988,-18.59937l26.30432,0l18.59927,18.59937l0,26.30463l-18.59927,18.59924l-26.30432,0l-18.59988,-18.59924l0,-26.30463z" id="contentAnimation3"/>
  <text transform="matrix(0.855147, 0, 0, 0.773303, 106.75, 9.28296)" xml:space="preserve" text-anchor="middle" font-family="Monospace" font-size="24" y="58.07549" x="32.08895" stroke-linecap="null" stroke-linejoin="null" stroke-dasharray="null" stroke-width="0" stroke="#000000" fill="#000000" id="pageTitle">The Web Animations</text>
  <line fill="none" stroke="#000000" stroke-dasharray="null" stroke-linejoin="null" stroke-linecap="null" x1="28.125" y1="65.75" x2="248.125" y2="65.75" id="pageTitleHR"/>
  <text transform="matrix(0.788294, 0, 0, 0.630525, 76.1569, 9.83237)" xml:space="preserve" text-anchor="middle" font-family="Monospace" font-size="24" y="146.51255" x="9.59858" stroke-linecap="null" stroke-linejoin="null" stroke-dasharray="null" stroke-width="0" stroke="#000000" fill="#000000" id="contentBackground">Abstraction</text>
  <line fill="none" stroke="#000000" stroke-dasharray="null" stroke-linejoin="null" stroke-linecap="null" x1="30.75" y1="116.03818" x2="187.74999" y2="116.03818" id="contentFakeString1"/>
  <line fill="none" stroke="#000000" stroke-width="3" stroke-dasharray="null" stroke-linejoin="null" stroke-linecap="null" x1="39.8125" y1="128" x2="182.8125" y2="128" id="contentFakeString2"/>
  <line id="contentFakeString3" fill="none" stroke="#000000" stroke-width="3" stroke-dasharray="null" stroke-linejoin="null" stroke-linecap="null" x1="40.25" y1="142" x2="183.25" y2="142"/>
  <line id="contentFakeString4" fill="none" stroke="#000000" stroke-width="3" stroke-dasharray="null" stroke-linejoin="null" stroke-linecap="null" x1="40.03125" y1="158" x2="183.03125" y2="158"/>
  <line id="contentFakeString5" fill="none" stroke="#000000" stroke-width="3" stroke-dasharray="null" stroke-linejoin="null" stroke-linecap="null" x1="40.46875" y1="172" x2="183.46875" y2="172"/>
  <line id="contentFakeString6" fill="none" stroke="#000000" stroke-width="3" stroke-dasharray="null" stroke-linejoin="null" stroke-linecap="null" x1="35.53125" y1="332.5" x2="178.53125" y2="332.5"/>
  <line id="contentFakeString7" fill="none" stroke="#000000" stroke-width="3" stroke-dasharray="null" stroke-linejoin="null" stroke-linecap="null" x1="35.96875" y1="346.5" x2="178.96875" y2="346.5"/>
  <rect fill="#ffffff" stroke="#000000" stroke-dasharray="null" stroke-linejoin="null" stroke-linecap="null" opacity="0.75" x="15" y="17.5" width="243.50001" height="6.5" id="svg_18"/>
  <path fill="#ffffff" stroke="#000000" stroke-dasharray="null" stroke-linejoin="null" stroke-linecap="null" d="m141.0009,60.75459l0,0c0,2.87657 -6.36674,5.20896 -14.2205,5.20896l-6.46385,0l0,0l-31.02654,0l-58.17474,0c-3.77151,0 -7.38854,-0.549 -10.05541,-1.5257c-2.66681,-0.97688 -4.16504,-2.30178 -4.16504,-3.68327l0,-13.02304l0,0l0,-7.81348l0,0c0,-2.87665 6.36665,-5.20902 14.22045,-5.20902l58.17474,0l40.53232,-13.2455l-9.50578,13.2455l6.46385,0c7.85375,0 14.2205,2.33237 14.2205,5.20902l0,0l0,7.81348l0,0l0,13.02304l0,0.00001z" id="svg_20"/>
  <text fill="#000000" stroke="#000000" stroke-width="0" stroke-dasharray="null" stroke-linejoin="null" stroke-linecap="null" x="727.67477" y="-977.79142" id="svg_21" font-size="24" font-family="Monospace" text-anchor="middle" xml:space="preserve" transform="matrix(0.347797, 0, 0, 0.476733, -181.554, 514.288)">This bar indicate the</text>
  <text fill="#000000" stroke="#000000" stroke-width="0" stroke-dasharray="null" stroke-linejoin="null" stroke-linecap="null" x="780.09413" y="-952.3227" font-size="24" font-family="Monospace" text-anchor="middle" xml:space="preserve" transform="matrix(0.347797, 0, 0, 0.476733, -181.554, 514.288)" id="svg_22">progress of articles.</text>
  <text transform="matrix(0.788294, 0, 0, 0.630525, 76.1569, 9.83237)" xml:space="preserve" text-anchor="middle" font-family="Monospace" font-size="24" y="468.06999" x="4.52435" stroke-linecap="null" stroke-linejoin="null" stroke-dasharray="null" stroke-width="0" stroke="#000000" fill="#000000" id="svg_46">Background</text>
  <line fill="none" stroke="#000000" stroke-dasharray="null" stroke-linejoin="null" stroke-linecap="null" x1="26.75001" y1="316.28818" x2="183.75" y2="316.28818" id="svg_47"/>
 </g>
 <g display="inline">
  <title>AfterScroll</title>
  <rect fill="#ffffff" stroke="#000000" stroke-dasharray="null" stroke-linejoin="null" stroke-linecap="null" x="289" y="17" width="244" height="338" id="content_1"/>
  <rect fill="#ffffff" stroke="#000000" stroke-dasharray="null" stroke-linejoin="null" stroke-linecap="null" x="533" y="16" width="12" height="337" id="scrollbar_1"/>
  <rect height="9" width="11" y="17" x="533" stroke-linecap="null" stroke-linejoin="null" stroke-dasharray="null" stroke-width="0" stroke="#000000" fill="#b2b2b2" id="scrollupbutton_1"/>
  <path fill="#000000" stroke="#000000" stroke-width="0" stroke-dasharray="null" stroke-linejoin="null" stroke-linecap="null" d="m535.07056,23.37247l3.62427,-6.12222l3.62408,6.12222l-7.24835,0z" id="scrollup_1"/>
  <rect height="9" width="11" y="344" x="533" stroke-linecap="null" stroke-linejoin="null" stroke-dasharray="null" stroke-width="0" stroke="#000000" fill="#999999" id="scrolldownbutton_1"/>
  <path fill="#000000" stroke="#000000" stroke-width="0" stroke-dasharray="null" stroke-linejoin="null" stroke-linecap="null" d="m535.69928,345.85144l3.31177,5.24692l3.31171,-5.24692l-6.62347,0z" id="scrolldown_1"/>
  <rect fill="#b2b2b2" stroke="#000000" stroke-width="0" stroke-dasharray="null" stroke-linejoin="null" stroke-linecap="null" x="533.5" y="129.5" width="11" height="114" id="scrollprogress_1"/>
  <text transform="matrix(0.88793, 0, 0, 0.806655, 139.852, 6.50372)" xml:space="preserve" text-anchor="middle" font-family="Monospace" font-size="24" y="52.51519" x="311.56322" stroke-linecap="null" stroke-linejoin="null" stroke-dasharray="null" stroke-width="0" stroke="#000000" fill="#000000" id="svg_5">The Web Animations</text>
  <line fill="none" stroke="#000000" stroke-dasharray="null" stroke-linejoin="null" stroke-linecap="null" x1="307.92969" y1="64.11932" x2="527.92969" y2="64.11932" id="svg_6"/>
  <circle fill="#ffffff" stroke="#000000" stroke-dasharray="null" stroke-linejoin="null" stroke-linecap="null" cx="464.4922" cy="104.26909" r="32" id="svg_23"/>
  <path fill="none" stroke="#000000" stroke-width="null" stroke-dasharray="null" stroke-linejoin="null" stroke-linecap="null" d="m414.68475,112.59998l4.66241,-4.67744l-9.013,0l-9.01303,0l0,-2.89563l0,-2.89557l8.90897,0c4.9006,0 8.91013,-0.1469 8.91013,-0.32623c0,-0.17926 -1.95105,-2.2843 -4.33505,-4.67731l-4.33551,-4.35155l4.00726,0l4.00632,0l6.11969,6.13123l6.11963,6.13123l-6.13068,6.11938l-6.13196,6.11945l-4.21783,0l-4.21835,0l4.66104,-4.67755l0,0l-0.00003,0l0,0l0,-0.00001z" id="svg_24"/>
  <path fill="none" stroke="#000000" stroke-width="null" stroke-dasharray="null" stroke-linejoin="null" stroke-linecap="null" d="m332.25604,87.63182l18.59988,-18.59937l26.30432,0l18.59927,18.59937l0,26.30464l-18.59927,18.59924l-26.30432,0l-18.59988,-18.59924l0,-26.30464z" id="svg_25"/>
  <text transform="matrix(0.788294, 0, 0, 0.630525, 76.1569, 9.83237)" xml:space="preserve" text-anchor="middle" font-family="Monospace" font-size="24" y="246.85606" x="371.76319" stroke-linecap="null" stroke-linejoin="null" stroke-dasharray="null" stroke-width="0" stroke="#000000" fill="#000000" id="svg_26">Background</text>
  <line fill="none" stroke="#000000" stroke-dasharray="null" stroke-linejoin="null" stroke-linecap="null" x1="316.2422" y1="176.80727" x2="473.24219" y2="176.80727" id="svg_27"/>
  <line fill="none" stroke="#000000" stroke-width="3" stroke-dasharray="null" stroke-linejoin="null" stroke-linecap="null" x1="324.3047" y1="185.76909" x2="467.3047" y2="185.76909" id="svg_28"/>
  <line fill="none" stroke="#000000" stroke-width="3" stroke-dasharray="null" stroke-linejoin="null" stroke-linecap="null" x1="324.7422" y1="199.76909" x2="467.7422" y2="199.76909" id="svg_29"/>
  <line fill="none" stroke="#000000" stroke-width="3" stroke-dasharray="null" stroke-linejoin="null" stroke-linecap="null" x1="324.52345" y1="215.76909" x2="467.52345" y2="215.76909" id="svg_30"/>
  <text transform="matrix(0.431599, 0, 0, 0.34015, 117.811, 103.983)" xml:space="preserve" text-anchor="middle" font-family="Monospace" font-size="24" y="372.61773" x="563.45971" stroke-linecap="null" stroke-linejoin="null" stroke-dasharray="null" stroke-width="0" stroke="#000000" fill="#000000" id="svg_34">Example code:</text>
  <rect fill="#ffffff" stroke="#000000" stroke-width="null" stroke-dasharray="null" stroke-linejoin="null" stroke-linecap="null" x="322.5" y="237.99999" width="174.99999" height="117.00001" id="svg_35"/>
  <line fill="none" stroke="#000000" stroke-width="3" stroke-dasharray="null" stroke-linejoin="null" stroke-linecap="null" x1="348.02344" y1="253.26909" x2="458.52344" y2="253.26909" id="svg_32"/>
  <line fill="none" stroke="#000000" stroke-width="3" stroke-dasharray="null" stroke-linejoin="null" stroke-linecap="null" x1="349.00001" y1="268.5" x2="459.5" y2="268.5" id="svg_37"/>
  <line fill="none" stroke="#000000" stroke-width="3" stroke-dasharray="null" stroke-linejoin="null" stroke-linecap="null" x1="350.51172" y1="284.38454" x2="461.01172" y2="284.38454" id="svg_38"/>
  <line fill="none" stroke="#000000" stroke-width="3" stroke-dasharray="null" stroke-linejoin="null" stroke-linecap="null" x1="351.48829" y1="299.61546" x2="461.98828" y2="299.61546" id="svg_39"/>
  <line fill="none" stroke="#000000" stroke-width="3" stroke-dasharray="null" stroke-linejoin="null" stroke-linecap="null" x1="350.76758" y1="317.82682" x2="461.26758" y2="317.82682" id="svg_40"/>
  <line fill="none" stroke="#000000" stroke-width="3" stroke-dasharray="null" stroke-linejoin="null" stroke-linecap="null" x1="351.74415" y1="333.05773" x2="462.24414" y2="333.05773" id="svg_41"/>
  <rect fill="#ffffff" stroke="#000000" stroke-dasharray="null" stroke-linejoin="null" stroke-linecap="null" opacity="0.75" x="289" y="16.75" width="243.50001" height="6.5" id="svg_44"/>
  <rect fill="#ff0000" stroke="#000000" stroke-width="0" stroke-dasharray="null" stroke-linejoin="null" stroke-linecap="null" opacity="0.75" x="289.5" y="16.75" width="127" height="6.5" id="svg_45"/>
 </g>
</svg>