<svg viewBox="0 0 560 360" xmlns="http://www.w3.org/2000/svg">
  <path stroke-linecap="null" stroke-linejoin="null" stroke-dasharray="null" stroke="#000" fill="#fff" d="M14.733 17.333h243.98v337.98H14.732zM259.06 17.543h12v337.203h-12z"/>
  <path fill="#b2b2b2" d="M259.56 17.793h11v9h-11z"/>
  <path d="M261.256 24.558l3.624-6.123 3.624 6.123h-7.248z"/>
  <path fill="#999" d="M259.62 345.217h11v9h-11z"/>
  <path d="M261.884 347.037l3.312 5.247 3.312-5.247h-6.624z"/>
  <path fill="#b2b2b2" d="M259.56 30.543h11v113.67h-11z"/>
  <path fill="none" stroke="#000" stroke-dasharray="null" stroke-linejoin="null" stroke-linecap="null" d="M15.61 44.333h242.677"/>
  <text fill="#b2b2b2" stroke="#000" stroke-width="0" stroke-dasharray="null" stroke-linejoin="null" stroke-linecap="null" x="426.397" y="-187.039" font-size="24" font-family="Monospace" text-anchor="middle" transform="matrix(.35546 0 0 .4352 -14.832 114.733)">
    | | | Detail | Appendix |
  </text>
  <text stroke="#000" stroke-width="0" stroke-dasharray="null" stroke-linejoin="null" stroke-linecap="null" x=".063" y="90.943" font-size="24" font-family="Monospace" text-anchor="middle" transform="matrix(.7883 0 0 .63053 76.157 9.832)">
    Abstract
  </text>
  <path stroke-linecap="null" stroke-linejoin="null" stroke-dasharray="null" stroke="#000" fill="none" d="M23.233 81h220"/>
  <circle r="31.677" cy="195.5" cx="187.75" stroke-linecap="null" stroke-linejoin="null" stroke-dasharray="null" stroke="#000" fill="#fff"/>
  <path d="M118.193 205.83l4.662-4.677H104.83v-5.791h8.908c4.9 0 8.91-.147 8.91-.326 0-.18-1.95-2.284-4.335-4.677l-4.336-4.353h8.014l6.12 6.13 6.12 6.133-6.13 6.12-6.132 6.118h-8.436l4.66-4.677zM31.264 182.363l18.6-18.6h26.304l18.6 18.6v26.304l-18.6 18.6H49.864l-18.6-18.6v-26.304z" stroke-linecap="null" stroke-linejoin="null" stroke-dasharray="null" stroke-width="null" stroke="#000" fill="none"/>
  <text stroke="#000" stroke-width="0" stroke-dasharray="null" stroke-linejoin="null" stroke-linecap="null" x=".063" y="398.057" font-size="24" font-family="Monospace" text-anchor="middle" transform="matrix(.7883 0 0 .63053 76.157 9.832)">
    Background
  </text>
  <path stroke-linecap="null" stroke-linejoin="null" stroke-dasharray="null" stroke="#000" fill="none" d="M24.75 274.538h220"/>
  <text fill="#b2b2b2" stroke="#000" stroke-width="0" stroke-dasharray="null" stroke-linejoin="null" stroke-linecap="null" x="368.771" y="-187.035" font-size="24" font-family="Monospace" text-anchor="middle" transform="matrix(.35546 0 0 .4352 -14.832 114.733)">
    Background
  </text>
  <text stroke="#000" stroke-width="0" stroke-dasharray="null" stroke-linejoin="null" stroke-linecap="null" x="202.85" y="-187.035" font-size="24" font-family="Monospace" font-weight="bold" text-anchor="middle" transform="matrix(.35546 0 0 .4352 -14.832 114.733)">
    Abstract
  </text>
  <path stroke-linecap="null" stroke-linejoin="null" stroke-dasharray="null" stroke-width="3" stroke="#000" fill="none" d="M30 93h210M30.25 108h210M30.625 123h210M30.875 138h210M33.813 286.5h210M34.063 301.5h210M34.438 316.5h210M34.688 331.5h210"/>
  <g>
    <path stroke-linecap="null" stroke-linejoin="null" stroke-dasharray="null" stroke="#000" fill="#fff" d="M289.733 16.333h243.98v337.98h-243.98zM534.06 16.543h12v337.203h-12z"/>
    <path fill="#b2b2b2" d="M534.56 16.793h11v9h-11z"/>
    <path d="M536.256 23.558l3.624-6.123 3.624 6.123h-7.248z"/>
    <path fill="#999" d="M534.62 344.217h11v9h-11z"/>
    <path d="M536.884 346.037l3.312 5.247 3.312-5.247h-6.624z"/>
    <path fill="#b2b2b2" d="M534.56 99.543h11v113.67h-11z"/>
    <path fill="none" stroke="#000" stroke-dasharray="null" stroke-linejoin="null" stroke-linecap="null" d="M290.61 43.333h242.677"/>
    <text fill="#b2b2b2" stroke="#000" stroke-width="0" stroke-dasharray="null" stroke-linejoin="null" stroke-linecap="null" x="1200.054" y="-189.336" font-size="24" font-family="Monospace" text-anchor="middle" transform="matrix(.35546 0 0 .4352 -14.832 114.733)">
      | | | Detail | Appendix |
    </text>
    <circle r="31.677" cy="80.5" cx="471.75" stroke-linecap="null" stroke-linejoin="null" stroke-dasharray="null" stroke="#000" fill="#fff"/>
    <path d="M402.193 90.83l4.662-4.677H388.83v-5.791h8.908c4.9 0 8.91-.147 8.91-.326 0-.18-1.95-2.284-4.335-4.677l-4.336-4.353h8.014l6.12 6.13 6.12 6.133-6.13 6.12-6.132 6.118h-8.436l4.66-4.677zM315.264 67.363l18.6-18.6h26.304l18.6 18.6v26.304l-18.6 18.6h-26.304l-18.6-18.6V67.363z" stroke-linecap="null" stroke-linejoin="null" stroke-dasharray="null" stroke-width="null" stroke="#000" fill="none"/>
    <text stroke="#000" stroke-width="0" stroke-dasharray="null" stroke-linejoin="null" stroke-linecap="null" x="350.842" y="198.057" font-size="24" font-family="Monospace" text-anchor="middle" transform="matrix(.7883 0 0 .63053 76.157 9.832)">
      Background
    </text>
    <path stroke-linecap="null" stroke-linejoin="null" stroke-dasharray="null" stroke="#000" fill="none" d="M299.75 148.538h220"/>
    <text stroke="#000" stroke-width="0" stroke-dasharray="null" stroke-linejoin="null" stroke-linecap="null" x="1142.428" y="-189.333" font-size="24" font-family="Monospace" font-weight="bold" text-anchor="middle" transform="matrix(.35546 0 0 .4352 -14.832 114.733)">
      Background
    </text>
    <text fill="#999" stroke="#000" stroke-width="0" stroke-dasharray="null" stroke-linejoin="null" stroke-linecap="null" x="976.506" y="-189.333" font-size="24" font-family="Monospace" text-anchor="middle" transform="matrix(.35546 0 0 .4352 -14.832 114.733)">
      Abstract
    </text>
    <path stroke-linecap="null" stroke-linejoin="null" stroke-dasharray="null" stroke-width="3" stroke="#000" fill="none" d="M308.813 160.5h210M309.063 175.5h210M309.438 190.5h210M309.688 205.5h210"/>
    <path stroke-linecap="null" stroke-linejoin="null" stroke-dasharray="null" stroke-width="null" stroke="#000" fill="#fff" d="M310 239h211v115H310z"/>
    <path stroke-linecap="null" stroke-linejoin="null" stroke-dasharray="null" stroke-width="2" stroke="#000" fill="none" d="M328.5 259h183M328.25 271h183M328.375 281.5h183M328.125 293.5h183M328.938 304.75h183M328.688 316.75h183M328.813 327.25h183M328.563 339.25h183"/>
  </g>
</svg>
