<svg viewBox="0 0 560 360" width="100%" height="100%" xmlns="http://www.w3.org/2000/svg">
 <title>Navigation highlight use case</title>
 <g display="inline">
  <rect id="content_1" height="337.97902" width="243.97903" y="17.33334" x="14.73334" stroke-linecap="null" stroke-linejoin="null" stroke-dasharray="null" stroke="#000000" fill="#ffffff"/>
  <rect id="scrollbar_1" height="337.2028" width="12" y="17.54313" x="259.05852" stroke-linecap="null" stroke-linejoin="null" stroke-dasharray="null" stroke="#000000" fill="#ffffff"/>
  <rect id="scrollupbutton_1" fill="#b2b2b2" stroke="#000000" stroke-width="0" stroke-dasharray="null" stroke-linejoin="null" stroke-linecap="null" x="259.55852" y="17.79313" width="11" height="9"/>
  <path id="scrollup_1" d="m261.25577,24.55766l3.62421,-6.12222l3.62411,6.12222l-7.24832,0z" stroke-linecap="null" stroke-linejoin="null" stroke-dasharray="null" stroke-width="0" stroke="#000000" fill="#000000"/>
  <rect id="scrolldownbutton_1" fill="#999999" stroke="#000000" stroke-width="0" stroke-dasharray="null" stroke-linejoin="null" stroke-linecap="null" x="259.62102" y="345.21672" width="11" height="9"/>
  <path id="scrolldown_1" d="m261.88446,347.03662l3.31177,5.24692l3.31168,-5.24692l-6.62344,0z" stroke-linecap="null" stroke-linejoin="null" stroke-dasharray="null" stroke-width="0" stroke="#000000" fill="#000000"/>
  <rect id="scrollprogress_1" height="113.67133" width="11" y="30.54313" x="259.55852" stroke-linecap="null" stroke-linejoin="null" stroke-dasharray="null" stroke-width="0" stroke="#000000" fill="#b2b2b2"/>
  <line id="content_navigator_line_1" fill="none" stroke="#000000" stroke-dasharray="null" stroke-linejoin="null" stroke-linecap="null" x1="15.60904" y1="44.33334" x2="258.28737" y2="44.33334"/>
  <text fill="#b2b2b2" stroke="#000000" stroke-width="0" stroke-dasharray="null" stroke-linejoin="null" stroke-linecap="null" x="426.3975" y="-187.03866" id="svg_1" font-size="24" font-family="Monospace" text-anchor="middle" xml:space="preserve" transform="matrix(0.355455, 0, 0, 0.43521, -14.8316, 114.733)">|            |            |  Detail |  Appendix  |</text>
  <text fill="#000000" stroke="#000000" stroke-width="0" stroke-dasharray="null" stroke-linejoin="null" stroke-linecap="null" x="0.06323" y="90.94269" id="svg_2" font-size="24" font-family="Monospace" text-anchor="middle" xml:space="preserve" transform="matrix(0.788294, 0, 0, 0.630525, 76.1569, 9.83237)">Abstract</text>
  <line id="content_hr_1" y2="81" x2="243.23334" y1="81" x1="23.23334" stroke-linecap="null" stroke-linejoin="null" stroke-dasharray="null" stroke="#000000" fill="none"/>
  <circle id="contentFigure1" r="31.67656" cy="195.5" cx="187.75" stroke-linecap="null" stroke-linejoin="null" stroke-dasharray="null" stroke="#000000" fill="#ffffff"/>
  <path id="contentFigure2" d="m118.19254,205.83089l4.66245,-4.67743l-9.01303,0l-9.01305,0l0,-2.89565l0,-2.89558l8.90897,0c4.9006,0 8.91013,-0.14687 8.91013,-0.32619c0,-0.17929 -1.95105,-2.28433 -4.33505,-4.67734l-4.33551,-4.35153l4.00726,0l4.00632,0l6.11971,6.13121l6.11961,6.13121l-6.13066,6.1194l-6.13199,6.11942l-4.21783,0l-4.21835,0l4.66104,-4.67752l0,0l-0.00002,0z" stroke-linecap="null" stroke-linejoin="null" stroke-dasharray="null" stroke-width="null" stroke="#000000" fill="none"/>
  <path id="contentFigure3" d="m31.26385,182.36273l18.59988,-18.59937l26.30432,0l18.5993,18.59937l0,26.30464l-18.5993,18.59924l-26.30432,0l-18.59988,-18.59924l0,-26.30464z" stroke-linecap="null" stroke-linejoin="null" stroke-dasharray="null" stroke-width="null" stroke="#000000" fill="none"/>
  <text id="backgroundHeading" fill="#000000" stroke="#000000" stroke-width="0" stroke-dasharray="null" stroke-linejoin="null" stroke-linecap="null" x="0.06323" y="398.05689" font-size="24" font-family="Monospace" text-anchor="middle" xml:space="preserve" transform="matrix(0.788294, 0, 0, 0.630525, 76.1569, 9.83237)">Background</text>
  <line id="menuHorizontalLine" y2="274.53818" x2="244.75" y1="274.53818" x1="24.75" stroke-linecap="null" stroke-linejoin="null" stroke-dasharray="null" stroke="#000000" fill="none"/>
  <text id="backgroundMenuString" fill="#b2b2b2" stroke="#000000" stroke-width="0" stroke-dasharray="null" stroke-linejoin="null" stroke-linecap="null" x="368.77132" y="-187.0348" font-size="24" font-family="Monospace" text-anchor="middle" xml:space="preserve" transform="matrix(0.355455, 0, 0, 0.43521, -14.8316, 114.733)">Background</text>
  <text id="abstractMenuString" fill="black" stroke="#000000" stroke-width="0" stroke-dasharray="null" stroke-linejoin="null" stroke-linecap="null" x="202.84981" y="-187.0348" font-size="24" font-family="Monospace" font-weight="bold" text-anchor="middle" xml:space="preserve" transform="matrix(0.355455, 0, 0, 0.43521, -14.8316, 114.733)">Abstract</text>
  <line id="fakeString1" y2="93" x2="240" y1="93" x1="30" stroke-linecap="null" stroke-linejoin="null" stroke-dasharray="null" stroke-width="3" stroke="#000000" fill="none"/>
  <line id="fakeString2" y2="108" x2="240.25" y1="108" x1="30.25" stroke-linecap="null" stroke-linejoin="null" stroke-dasharray="null" stroke-width="3" stroke="#000000" fill="none"/>
  <line id="fakeString3" y2="123" x2="240.625" y1="123" x1="30.625" stroke-linecap="null" stroke-linejoin="null" stroke-dasharray="null" stroke-width="3" stroke="#000000" fill="none"/>
  <line id="fakeString4" y2="138" x2="240.875" y1="138" x1="30.875" stroke-linecap="null" stroke-linejoin="null" stroke-dasharray="null" stroke-width="3" stroke="#000000" fill="none"/>
  <line id="fakeString5" y2="286.5" x2="243.8125" y1="286.5" x1="33.8125" stroke-linecap="null" stroke-linejoin="null" stroke-dasharray="null" stroke-width="3" stroke="#000000" fill="none"/>
  <line id="fakeString6" y2="301.5" x2="244.0625" y1="301.5" x1="34.0625" stroke-linecap="null" stroke-linejoin="null" stroke-dasharray="null" stroke-width="3" stroke="#000000" fill="none"/>
  <line id="fakeString7" y2="316.5" x2="244.4375" y1="316.5" x1="34.4375" stroke-linecap="null" stroke-linejoin="null" stroke-dasharray="null" stroke-width="3" stroke="#000000" fill="none"/>
  <line id="fakeString8" y2="331.5" x2="244.6875" y1="331.5" x1="34.6875" stroke-linecap="null" stroke-linejoin="null" stroke-dasharray="null" stroke-width="3" stroke="#000000" fill="none"/>
 </g>
 <g display="inline">
  <title>AfterScroll</title>
  <rect id="content_1" height="337.97902" width="243.97903" y="16.33334" x="289.73334" stroke-linecap="null" stroke-linejoin="null" stroke-dasharray="null" stroke="#000000" fill="#ffffff"/>
  <rect id="scrollbar_1" height="337.2028" width="12" y="16.54313" x="534.05852" stroke-linecap="null" stroke-linejoin="null" stroke-dasharray="null" stroke="#000000" fill="#ffffff"/>
  <rect fill="#b2b2b2" stroke="#000000" stroke-width="0" stroke-dasharray="null" stroke-linejoin="null" stroke-linecap="null" x="534.55852" y="16.79313" width="11" height="9" id="scrollupbutton_1"/>
  <path id="scrollup_1" d="m536.25574,23.55766l3.62427,-6.12222l3.62408,6.12222l-7.24835,0z" stroke-linecap="null" stroke-linejoin="null" stroke-dasharray="null" stroke-width="0" stroke="#000000" fill="#000000"/>
  <rect fill="#999999" stroke="#000000" stroke-width="0" stroke-dasharray="null" stroke-linejoin="null" stroke-linecap="null" x="534.62102" y="344.21672" width="11" height="9" id="scrolldownbutton_1"/>
  <path id="scrolldown_1" d="m536.88446,346.03662l3.31177,5.24692l3.31171,-5.24692l-6.62347,0z" stroke-linecap="null" stroke-linejoin="null" stroke-dasharray="null" stroke-width="0" stroke="#000000" fill="#000000"/>
  <rect id="scrollprogress_1" height="113.67133" width="11" y="99.54313" x="534.55852" stroke-linecap="null" stroke-linejoin="null" stroke-dasharray="null" stroke-width="0" stroke="#000000" fill="#b2b2b2"/>
  <line fill="none" stroke="#000000" stroke-dasharray="null" stroke-linejoin="null" stroke-linecap="null" x1="290.60904" y1="43.33334" x2="533.28737" y2="43.33334" id="content_navigator_line_1"/>
  <text fill="#b2b2b2" stroke="#000000" stroke-width="0" stroke-dasharray="null" stroke-linejoin="null" stroke-linecap="null" x="1200.05381" y="-189.33641" id="menubar" font-size="24" font-family="Monospace" text-anchor="middle" xml:space="preserve" transform="matrix(0.355455, 0, 0, 0.43521, -14.8316, 114.733)">|            |            |  Detail |  Appendix  |</text>
  <circle id="contnetFigure1" r="31.67654" cy="80.5" cx="471.75" stroke-linecap="null" stroke-linejoin="null" stroke-dasharray="null" stroke="#000000" fill="#ffffff"/>
  <path id="contnetFigure2" d="m402.19257,90.83089l4.66241,-4.67743l-9.013,0l-9.01306,0l0,-2.89565l0,-2.89558l8.90894,0c4.90063,0 8.91016,-0.14687 8.91016,-0.32619c0,-0.17929 -1.95105,-2.28433 -4.33502,-4.67734l-4.33557,-4.35153l4.00732,0l4.00629,0l6.11969,6.13121l6.11963,6.13121l-6.13068,6.1194l-6.13196,6.11942l-4.21783,0l-4.21832,0l4.66101,-4.67752l0,0l0,0z" stroke-linecap="null" stroke-linejoin="null" stroke-dasharray="null" stroke-width="null" stroke="#000000" fill="none"/>
  <path id="contnetFigure3" d="m315.26385,67.36273l18.59985,-18.59937l26.30432,0l18.5993,18.59937l0,26.30464l-18.5993,18.59923l-26.30432,0l-18.59985,-18.59923l0,-26.30464z" stroke-linecap="null" stroke-linejoin="null" stroke-dasharray="null" stroke-width="null" stroke="#000000" fill="none"/>
  <text id="menuBacktroundString" fill="#000000" stroke="#000000" stroke-width="0" stroke-dasharray="null" stroke-linejoin="null" stroke-linecap="null" x="350.84182" y="198.05689" font-size="24" font-family="Monospace" text-anchor="middle" xml:space="preserve" transform="matrix(0.788294, 0, 0, 0.630525, 76.1569, 9.83237)">Background</text>
  <line id="menuHorizontalLine" y2="148.53818" x2="519.75" y1="148.53818" x1="299.75" stroke-linecap="null" stroke-linejoin="null" stroke-dasharray="null" stroke="#000000" fill="none"/>
  <text id="abstractMenuString" fill="black" stroke="#000000" stroke-width="0" stroke-dasharray="null" stroke-linejoin="null" stroke-linecap="null" x="1142.42763" y="-189.33255" font-size="24" font-family="Monospace" font-weight="bold" text-anchor="middle" xml:space="preserve" transform="matrix(0.355455, 0, 0, 0.43521, -14.8316, 114.733)">Background</text>
  <text id="abstractContentString" fill="#999999" stroke="#000000" stroke-width="0" stroke-dasharray="null" stroke-linejoin="null" stroke-linecap="null" x="976.50612" y="-189.33255" font-size="24" font-family="Monospace" text-anchor="middle" xml:space="preserve" transform="matrix(0.355455, 0, 0, 0.43521, -14.8316, 114.733)">Abstract</text>
  <line id="fakeString1" y2="160.5" x2="518.8125" y1="160.5" x1="308.8125" stroke-linecap="null" stroke-linejoin="null" stroke-dasharray="null" stroke-width="3" stroke="#000000" fill="none"/>
  <line id="fakeString2" y2="175.5" x2="519.0625" y1="175.5" x1="309.0625" stroke-linecap="null" stroke-linejoin="null" stroke-dasharray="null" stroke-width="3" stroke="#000000" fill="none"/>
  <line id="fakeString3" y2="190.5" x2="519.4375" y1="190.5" x1="309.4375" stroke-linecap="null" stroke-linejoin="null" stroke-dasharray="null" stroke-width="3" stroke="#000000" fill="none"/>
  <line id="fakeString4" y2="205.5" x2="519.6875" y1="205.5" x1="309.6875" stroke-linecap="null" stroke-linejoin="null" stroke-dasharray="null" stroke-width="3" stroke="#000000" fill="none"/>
  <rect id="exampleCode" height="115" width="211" y="238.99999" x="310" stroke-linecap="null" stroke-linejoin="null" stroke-dasharray="null" stroke-width="null" stroke="#000000" fill="#ffffff"/>
  <line id="fakeString5" y2="259" x2="511.5" y1="259" x1="328.5" stroke-linecap="null" stroke-linejoin="null" stroke-dasharray="null" stroke-width="2" stroke="#000000" fill="none"/>
  <line id="fakeString6" y2="271" x2="511.25" y1="271" x1="328.25" stroke-linecap="null" stroke-linejoin="null" stroke-dasharray="null" stroke-width="2" stroke="#000000" fill="none"/>
  <line id="fakeString7" y2="281.5" x2="511.375" y1="281.5" x1="328.375" stroke-linecap="null" stroke-linejoin="null" stroke-dasharray="null" stroke-width="2" stroke="#000000" fill="none"/>
  <line id="fakeString8" y2="293.5" x2="511.125" y1="293.5" x1="328.125" stroke-linecap="null" stroke-linejoin="null" stroke-dasharray="null" stroke-width="2" stroke="#000000" fill="none"/>
  <line id="fakeString9" y2="304.75" x2="511.9375" y1="304.75" x1="328.9375" stroke-linecap="null" stroke-linejoin="null" stroke-dasharray="null" stroke-width="2" stroke="#000000" fill="none"/>
  <line id="fakeString10" y2="316.75" x2="511.6875" y1="316.75" x1="328.6875" stroke-linecap="null" stroke-linejoin="null" stroke-dasharray="null" stroke-width="2" stroke="#000000" fill="none"/>
  <line id="fakeString11" y2="327.25" x2="511.8125" y1="327.25" x1="328.8125" stroke-linecap="null" stroke-linejoin="null" stroke-dasharray="null" stroke-width="2" stroke="#000000" fill="none"/>
  <line id="fakeString12" y2="339.25" x2="511.5625" y1="339.25" x1="328.5625" stroke-linecap="null" stroke-linejoin="null" stroke-dasharray="null" stroke-width="2" stroke="#000000" fill="none"/>
 </g>
</svg>
