<svg width="560" height="360" xmlns="http://www.w3.org/2000/svg" xmlns:svg="http://www.w3.org/2000/svg">
 <!-- Created with SVG-edit - http://svg-edit.googlecode.com/ -->

 <g display="inline">
  <title>BeforeScroll</title>
  <rect fill="#ffffff" stroke="#000000" stroke-dasharray="null" stroke-linejoin="null" stroke-linecap="null" x="14.73334" y="17.33334" width="243.97903" height="337.97902" id="content_1"/>
  <rect fill="#ffffff" stroke="#000000" stroke-dasharray="null" stroke-linejoin="null" stroke-linecap="null" x="259.05852" y="17.54313" width="12" height="337.2028" id="scrollbar_1"/>
  <rect id="scrollupbutton_1" height="9" width="11" y="17.79313" x="259.55852" stroke-linecap="null" stroke-linejoin="null" stroke-dasharray="null" stroke-width="0" stroke="#000000" fill="#b2b2b2"/>
  <path fill="#000000" stroke="#000000" stroke-width="0" stroke-dasharray="null" stroke-linejoin="null" stroke-linecap="null" d="m261.25577,24.55766l3.62421,-6.12222l3.62411,6.12222l-7.24832,0z" id="scrollup_1"/>
  <rect id="scrolldownbutton_1" height="9" width="11" y="345.21672" x="259.62102" stroke-linecap="null" stroke-linejoin="null" stroke-dasharray="null" stroke-width="0" stroke="#000000" fill="#999999"/>
  <path fill="#000000" stroke="#000000" stroke-width="0" stroke-dasharray="null" stroke-linejoin="null" stroke-linecap="null" d="m261.88446,347.03662l3.31177,5.24692l3.31168,-5.24692l-6.62344,0z" id="scrolldown_1"/>
  <rect fill="#b2b2b2" stroke="#000000" stroke-width="0" stroke-dasharray="null" stroke-linejoin="null" stroke-linecap="null" x="259.55852" y="30.54313" width="11" height="113.67133" id="scrollprogress_1"/>
  <text transform="matrix(0.788294, 0, 0, 0.630525, 76.1569, 9.83237)" xml:space="preserve" text-anchor="middle" font-family="Monospace" font-size="24" id="svg_2" y="45.74226" x="79.34837" stroke-linecap="null" stroke-linejoin="null" stroke-dasharray="null" stroke-width="0" stroke="#000000" fill="#000000">The picture-story show</text>
  <line fill="none" stroke="#000000" stroke-dasharray="null" stroke-linejoin="null" stroke-linecap="null" x1="28.23334" y1="46" x2="248.23334" y2="46" id="content_hr_1"/>
  <rect id="mainContent" height="152.5" width="226.5" y="70.5" x="24" stroke-linecap="null" stroke-linejoin="null" stroke-dasharray="null" stroke-width="null" stroke="#000000" fill="#ffffff"/>
  <line id="fakeString1" y2="250" x2="246" y1="250" x1="32.5" stroke-linecap="null" stroke-linejoin="null" stroke-dasharray="null" stroke-width="2" stroke="#000000" fill="none"/>
  <line id="fakeString2" y2="265.5" x2="246.5" y1="265.5" x1="32" stroke-linecap="null" stroke-linejoin="null" stroke-dasharray="null" stroke-width="2" stroke="#000000" fill="none"/>
  <line id="svg_29" y2="282" x2="246" y1="282" x1="32" stroke-linecap="null" stroke-linejoin="null" stroke-dasharray="null" stroke-width="2" stroke="#000000" fill="none"/>
  <line id="svg_30" y2="298.5" x2="245.5" y1="298.5" x1="31.5" stroke-linecap="null" stroke-linejoin="null" stroke-dasharray="null" stroke-width="2" stroke="#000000" fill="none"/>
  <circle id="svg_31" r="21.70829" cy="156" cx="84.5" stroke-linecap="null" stroke-linejoin="null" stroke-dasharray="null" stroke-width="2" stroke="#000000" fill="none"/>
  <circle id="svg_33" r="21.70828" cy="159" cx="179.25" stroke-linecap="null" stroke-linejoin="null" stroke-dasharray="null" stroke-width="2" stroke="#000000" fill="none"/>
  <path id="svg_60" d="m370.64258,80.74678l0,0c0,-4.20242 3.32681,-7.60812 7.43158,-7.60812l3.3779,0l0,0l16.2095,0l30.39719,0c1.97107,0 3.85825,0.80074 5.25327,2.22729c1.39139,1.42765 2.17831,3.36304 2.17831,5.38083l0,19.02042l0,0l0,11.41313l0,0c0,4.20145 -3.3306,7.6082 -7.43158,7.6082l-30.39719,0l-21.1774,19.34625l4.9679,-19.34625l-3.3779,0c-4.10477,0 -7.43158,-3.40675 -7.43158,-7.6082l0,0l0,-11.41313l0,0l0,-19.02042z" stroke-linecap="null" stroke-linejoin="null" stroke-dasharray="null" stroke-width="2" stroke="#000000" fill="none"/>
  <path id="svg_61" d="m230.37573,265.60062l0,0c0,4.88126 -10.06798,8.83823 -22.48805,8.83823l-10.22148,0l0,0l-49.06528,0l-91.99717,0c-5.96452,0 -11.68464,-0.93124 -15.90202,-2.58862c-4.21666,-1.65753 -6.58597,-3.90558 -6.58597,-6.2496l0,-22.0955l0,0l0,-13.25731l0,0c0,-4.88107 10.06787,-8.83815 22.48799,-8.83815l91.99717,0l64.09738,-22.47343l-15.0321,22.47343l10.22148,0c12.42007,0 22.48805,3.95708 22.48805,8.83815l0,0l0,13.25731l0,0l0,22.0955z" stroke-linecap="null" stroke-linejoin="null" stroke-dasharray="null" stroke-width="2" stroke="#000000" fill="#ffffff"/>
  <text transform="matrix(0.418553, 0, 0, 0.496271, -102.701, 114.129)" xml:space="preserve" text-anchor="middle" font-family="Monospace" font-size="24" id="svg_62" y="280.24043" x="562.53632" stroke-linecap="null" stroke-linejoin="null" stroke-dasharray="null" stroke-width="0" stroke="#000000" fill="#000000">This animation related with scroll.</text>
 </g>
 <g display="inline">
  <title>AfterScroll</title>
  <rect id="svg_41" fill="#ffffff" stroke="#000000" stroke-dasharray="null" stroke-linejoin="null" stroke-linecap="null" x="284.5874" y="17.51048" width="243.97903" height="337.97902"/>
  <rect id="svg_42" fill="#ffffff" stroke="#000000" stroke-dasharray="null" stroke-linejoin="null" stroke-linecap="null" x="528.91258" y="17.72027" width="12" height="337.2028"/>
  <rect id="svg_43" height="9" width="11" y="17.97027" x="529.41258" stroke-linecap="null" stroke-linejoin="null" stroke-dasharray="null" stroke-width="0" stroke="#000000" fill="#b2b2b2"/>
  <path id="svg_44" fill="#000000" stroke="#000000" stroke-width="0" stroke-dasharray="null" stroke-linejoin="null" stroke-linecap="null" d="m531.10986,24.7348l3.62415,-6.12222l3.62415,6.12222l-7.24829,0z"/>
  <rect id="svg_45" height="9" width="11" y="345.39386" x="529.47508" stroke-linecap="null" stroke-linejoin="null" stroke-dasharray="null" stroke-width="0" stroke="#000000" fill="#999999"/>
  <path id="svg_46" fill="#000000" stroke="#000000" stroke-width="0" stroke-dasharray="null" stroke-linejoin="null" stroke-linecap="null" d="m531.73853,347.21378l3.31177,5.24692l3.31165,-5.24692l-6.62341,0z"/>
  <rect id="svg_47" fill="#b2b2b2" stroke="#000000" stroke-width="0" stroke-dasharray="null" stroke-linejoin="null" stroke-linecap="null" x="529.41258" y="118.22027" width="11" height="113.67133"/>
  <text id="svg_48" transform="matrix(0.788294, 0, 0, 0.630525, 76.1569, 9.83237)" xml:space="preserve" text-anchor="middle" font-family="Monospace" font-size="24" y="46.02321" x="421.67504" stroke-linecap="null" stroke-linejoin="null" stroke-dasharray="null" stroke-width="0" stroke="#000000" fill="#000000">The picture-story show</text>
  <line id="svg_49" fill="none" stroke="#000000" stroke-dasharray="null" stroke-linejoin="null" stroke-linecap="null" x1="298.0874" y1="46.17714" x2="518.0874" y2="46.17714"/>
  <rect id="svg_50" height="152.5" width="226.5" y="70.67714" x="293.85406" stroke-linecap="null" stroke-linejoin="null" stroke-dasharray="null" stroke-width="null" stroke="#000000" fill="#ffffff"/>
  <line id="svg_51" y2="250.17714" x2="515.85406" y1="250.17714" x1="302.35406" stroke-linecap="null" stroke-linejoin="null" stroke-dasharray="null" stroke-width="2" stroke="#000000" fill="none"/>
  <line id="svg_52" y2="265.67714" x2="516.35406" y1="265.67714" x1="301.85406" stroke-linecap="null" stroke-linejoin="null" stroke-dasharray="null" stroke-width="2" stroke="#000000" fill="none"/>
  <line id="svg_53" y2="282.17714" x2="515.85406" y1="282.17714" x1="301.85406" stroke-linecap="null" stroke-linejoin="null" stroke-dasharray="null" stroke-width="2" stroke="#000000" fill="none"/>
  <line id="svg_54" y2="298.67714" x2="515.35406" y1="298.67714" x1="301.35406" stroke-linecap="null" stroke-linejoin="null" stroke-dasharray="null" stroke-width="2" stroke="#000000" fill="none"/>
  <circle id="svg_55" r="33.45828" cy="158.42714" cx="403.10407" stroke-linecap="null" stroke-linejoin="null" stroke-dasharray="null" stroke-width="2" stroke="#000000" fill="none"/>
  <line id="svg_59" y2="191" x2="403" y1="125" x1="403" stroke-linecap="null" stroke-linejoin="null" stroke-dasharray="null" stroke-width="2" stroke="#000000" fill="none"/>
  <path id="svg_63" d="m334.37799,262.41312l0,0c0,4.88126 9.68256,8.83823 21.62701,8.83823l9.83002,0l0,0l47.18649,0l88.47415,0c5.73611,0 11.23706,-0.93124 15.29297,-2.58862c4.05536,-1.65753 6.33374,-3.90558 6.33374,-6.2496l0,-22.0955l0,0l0,-13.25731l0,0c0,-4.88107 -9.68225,-8.83815 -21.62671,-8.83815l-88.47415,0l-61.64297,-22.47343l14.45648,22.47343l-9.83002,0c-11.94446,0 -21.62701,3.95708 -21.62701,8.83815l0,0l0,13.25731l0,0l0,22.0955z" stroke-linecap="null" stroke-linejoin="null" stroke-dasharray="null" stroke-width="2" stroke="#000000" fill="#ffffff"/>
  <text id="svg_64" transform="matrix(0.418553, 0, 0, 0.496271, -102.701, 114.129)" xml:space="preserve" text-anchor="middle" font-family="Monospace" font-size="24" y="248.62968" x="1264.96566" stroke-linecap="null" stroke-linejoin="null" stroke-dasharray="null" stroke-width="0" stroke="#000000" fill="#000000">If we scroll this content, the</text>
  <text id="svg_65" transform="matrix(0.418553, 0, 0, 0.496271, -102.701, 114.129)" xml:space="preserve" text-anchor="middle" font-family="Monospace" font-size="24" y="283.96779" x="1267.34487" stroke-linecap="null" stroke-linejoin="null" stroke-dasharray="null" stroke-width="0" stroke="#000000" fill="#000000">The animation will advance.</text>
 </g>
</svg>