<?xml version="1.0" encoding="utf-8"?>
<!-- Generator: Adobe Illustrator 15.1.0, SVG Export Plug-In . SVG Version: 6.00 Build 0)  -->
<!DOCTYPE svg PUBLIC "-//W3C//DTD SVG 1.1//EN" "http://www.w3.org/Graphics/SVG/1.1/DTD/svg11.dtd">
<svg version="1.1" id="Layer_1" xmlns="http://www.w3.org/2000/svg" xmlns:xlink="http://www.w3.org/1999/xlink" x="0px" y="0px"
	 width="600px" height="400px" viewBox="0 0 300 200" enable-background="new 0 0 300 200" xml:space="preserve">
<rect fill="#F1F2F2" width="300" height="200"/>
<rect x="10" y="10" fill="#FFFFFF" stroke="#000000" stroke-width="0.5" stroke-miterlimit="10" width="185" height="105"/>
<rect x="10" y="125" fill="#ECEAE6" stroke="#000000" stroke-width="0.5" stroke-miterlimit="10" width="185" height="30"/>
<rect x="10" y="165" fill="#ECEAE6" stroke="#000000" stroke-width="0.5" stroke-miterlimit="10" width="87" height="24.999"/>
<rect x="108" y="165.001" fill="#ECEAE6" stroke="#000000" stroke-width="0.5" stroke-miterlimit="10" width="87" height="24.999"/>
<rect x="205" y="10" fill="#ECEAE6" stroke="#000000" stroke-width="0.5" stroke-miterlimit="10" width="85" height="180"/>
<g>
	<path d="M100.821,55.303h3.403l5.093,14.395h-3.262l-0.95-2.959h-5.301l-0.976,2.959h-3.146L100.821,55.303z M100.623,64.258h3.687
		l-1.818-5.664L100.623,64.258z"/>
</g>
<path d="M49.306,182.441c0.397-0.944,1.334-1.943,2.812-2.998c1.283-0.918,2.113-1.576,2.49-1.973
	c0.58-0.619,0.869-1.296,0.869-2.031c0-0.6-0.166-1.098-0.498-1.494c-0.332-0.397-0.807-0.596-1.426-0.596
	c-0.846,0-1.422,0.315-1.729,0.947c-0.176,0.364-0.28,0.943-0.312,1.738h-2.705c0.045-1.205,0.264-2.178,0.655-2.92
	c0.743-1.413,2.063-2.119,3.959-2.119c1.499,0,2.691,0.414,3.578,1.244s1.33,1.93,1.33,3.297c0,1.048-0.313,1.979-0.939,2.793
	c-0.411,0.54-1.086,1.143-2.025,1.807l-1.115,0.791c-0.698,0.494-1.175,0.853-1.433,1.074c-0.257,0.221-0.474,0.479-0.649,0.771
	h6.182v2.451h-9.697C48.677,184.209,48.896,183.281,49.306,182.441z"/>
<path d="M150.845,180.703c0,0.566,0.091,1.035,0.273,1.406c0.337,0.684,0.951,1.025,1.841,1.025c0.546,0,1.021-0.188,1.428-0.562
	s0.609-0.913,0.609-1.616c0-0.932-0.377-1.553-1.13-1.865c-0.429-0.176-1.103-0.264-2.024-0.264v-1.992
	c0.901-0.014,1.531-0.102,1.888-0.264c0.616-0.273,0.925-0.826,0.925-1.66c0-0.541-0.158-0.98-0.473-1.318s-0.758-0.508-1.33-0.508
	c-0.655,0-1.138,0.209-1.445,0.625c-0.309,0.416-0.457,0.973-0.444,1.67h-2.598c0.026-0.703,0.146-1.371,0.361-2.002
	c0.228-0.553,0.585-1.064,1.073-1.533c0.364-0.332,0.796-0.586,1.297-0.762c0.501-0.176,1.115-0.264,1.844-0.264
	c1.354,0,2.444,0.35,3.273,1.05s1.244,1.64,1.244,2.817c0,0.834-0.248,1.537-0.742,2.109c-0.312,0.357-0.639,0.602-0.977,0.732
	c0.254,0,0.618,0.219,1.094,0.654c0.709,0.658,1.064,1.557,1.064,2.695c0,1.197-0.415,2.251-1.244,3.159
	c-0.83,0.908-2.057,1.362-3.684,1.362c-2.002,0-3.395-0.654-4.175-1.963c-0.41-0.697-0.638-1.607-0.683-2.734H150.845z"/>
<path d="M250.908,103.989h-1.602v3.047h-2.725v-3.047h-5.605v-2.432l5.205-8.594h3.125v8.848h1.602V103.989z M246.582,101.812
	v-6.099l-3.534,6.099H246.582z"/>
<path d="M96.318,137.314v-1.895c0.877-0.039,1.49-0.098,1.841-0.176c0.559-0.123,1.013-0.371,1.364-0.742
	c0.24-0.254,0.422-0.592,0.545-1.016c0.072-0.254,0.107-0.443,0.107-0.566h2.324v14.16h-2.852v-9.766H96.318z"/>
<g>
	<g>
		<line fill="none" stroke="#DC1E3D" stroke-width="0.5" stroke-miterlimit="10" x1="53.5" y1="155" x2="53.5" y2="161.412"/>
		<g>
			<polygon fill="#DC1E3D" points="51.021,160.683 53.514,165 56.007,160.683 			"/>
		</g>
	</g>
</g>
<g>
	<g>
		<line fill="none" stroke="#DC1E3D" stroke-width="0.5" stroke-miterlimit="10" x1="97" y1="178.11" x2="104.412" y2="178.11"/>
		<g>
			<polygon fill="#DC1E3D" points="103.683,180.59 108,178.097 103.683,175.604 			"/>
		</g>
	</g>
</g>
<g>
	<g>
		<line fill="none" stroke="#DC1E3D" stroke-width="0.5" stroke-miterlimit="10" x1="195" y1="177.5" x2="201.412" y2="177.5"/>
		<g>
			<polygon fill="#DC1E3D" points="200.683,179.979 205,177.486 200.683,174.993 			"/>
		</g>
	</g>
</g>
</svg>
